<svg width="52" height="28" viewBox="0 0 52 28" fill="none" xmlns="http://www.w3.org/2000/svg">
<rect width="52" height="28" rx="6" fill="white"/>
<g clip-path="url(#clip0_828_3478)">
<path d="M26.7231 16.3366C28.0142 10.9668 24.7078 5.56703 19.338 4.27587C13.9682 2.98471 8.56846 6.2911 7.2773 11.6609C5.98614 17.0307 9.29254 22.4305 14.6623 23.7216C20.0321 25.0128 25.4319 21.7064 26.7231 16.3366Z" fill="#FA526B"/>
<path d="M19.7681 9.90293C19.3112 9.90312 18.8612 10.0142 18.4567 10.2265C18.0522 10.4389 17.7053 10.7463 17.4457 11.1222C17.4007 11.2002 17.3359 11.2649 17.258 11.3099C17.18 11.355 17.0915 11.3787 17.0015 11.3787C16.9115 11.3787 16.823 11.355 16.7451 11.3099C16.6671 11.2649 16.6024 11.2002 16.5574 11.1222C16.1644 10.5508 15.5747 10.1442 14.9008 9.98016C14.227 9.81613 13.5164 9.90617 12.9047 10.2331C12.2931 10.5599 11.8234 11.1008 11.5854 11.7521C11.3473 12.4035 11.3577 13.1198 11.6144 13.764C12.4041 16.2161 15.938 19.0998 17.0025 19.2043C18.065 19.0998 21.599 16.2161 22.3886 13.764C22.5191 13.4325 22.5848 13.079 22.5821 12.7227C22.5821 11.9749 22.285 11.2577 21.7562 10.7288C21.2274 10.2 20.5102 9.90293 19.7623 9.90293H19.7681Z" fill="white"/>
<g style="mix-blend-mode:multiply" opacity="0.2">
<path d="M25.9105 9.47314C25.5255 11.4463 24.6277 13.2832 23.3074 14.7993C21.5656 16.7346 18.5639 18.3293 15.9027 18.3293C12.9533 18.3293 10.4334 17.4526 8.17098 15.5908C7.74512 15.2396 7.35605 14.846 7.00977 14.4161C7.07211 15.908 7.46784 17.367 8.1679 18.6859C8.86796 20.0049 9.85456 21.1503 11.0552 22.038C12.2559 22.9257 13.6402 23.5332 15.1064 23.8159C16.5727 24.0986 18.0836 24.0492 19.5282 23.6715C20.9729 23.2938 22.3146 22.5972 23.4548 21.6331C24.595 20.6689 25.5048 19.4616 26.1173 18.0998C26.7298 16.738 27.0295 15.2562 26.9944 13.7634C26.9593 12.2706 26.5902 10.8046 25.9144 9.47314H25.9105Z" fill="#5990FF"/>
</g>
<g style="mix-blend-mode:overlay" opacity="0.3">
<path d="M12.9571 9.35095C14.2738 8.32444 14.8953 6.92031 14.3453 6.21474C13.7952 5.50918 12.2819 5.76936 10.9652 6.79587C9.64847 7.82239 9.02697 9.22652 9.57702 9.93208C10.1271 10.6376 11.6404 10.3775 12.9571 9.35095Z" fill="white"/>
</g>
</g>
<path d="M40 19.2637C37.4658 19.2637 35.9644 17.2129 35.9644 13.7046C35.9644 10.2109 37.4878 8.16748 40 8.16748C42.5049 8.16748 44.0283 10.2109 44.0283 13.7192C44.0283 17.2129 42.5269 19.2637 40 19.2637ZM40 17.6963C41.3403 17.6963 42.1167 16.3047 42.1167 13.7046C42.1167 11.1191 41.3257 9.74219 40 9.74219C38.6743 9.74219 37.876 11.1265 37.876 13.7046C37.876 16.3047 38.6597 17.6963 40 17.6963Z" fill="#8F2682"/>
<defs>
<clipPath id="clip0_828_3478">
<rect width="20" height="20" fill="white" transform="translate(7 4)"/>
</clipPath>
</defs>
</svg>
