<svg width="20" height="20" viewBox="0 0 20 20" fill="none" xmlns="http://www.w3.org/2000/svg">
<g id="uil:plus">
<rect width="20" height="20" rx="10" fill="white"/>
<path id="Vector" d="M14.3125 9.8125H10.1875V5.6875C10.1875 5.50516 10.1151 5.3303 9.98614 5.20136C9.8572 5.07243 9.68234 5 9.5 5C9.31766 5 9.1428 5.07243 9.01386 5.20136C8.88493 5.3303 8.8125 5.50516 8.8125 5.6875V9.8125H4.6875C4.50516 9.8125 4.3303 9.88493 4.20136 10.0139C4.07243 10.1428 4 10.3177 4 10.5C4 10.6823 4.07243 10.8572 4.20136 10.9861C4.3303 11.1151 4.50516 11.1875 4.6875 11.1875H8.8125V15.3125C8.8125 15.4948 8.88493 15.6697 9.01386 15.7986C9.1428 15.9276 9.31766 16 9.5 16C9.68234 16 9.8572 15.9276 9.98614 15.7986C10.1151 15.6697 10.1875 15.4948 10.1875 15.3125V11.1875H14.3125C14.4948 11.1875 14.6697 11.1151 14.7986 10.9861C14.9276 10.8572 15 10.6823 15 10.5C15 10.3177 14.9276 10.1428 14.7986 10.0139C14.6697 9.88493 14.4948 9.8125 14.3125 9.8125Z" fill="#404040"/>
</g>
</svg>
