<svg width="34" height="35" viewBox="0 0 34 35" fill="none" xmlns="http://www.w3.org/2000/svg">
<rect x="0.292969" width="33.4146" height="35" rx="10" fill="#F4E9F1"/>
<path d="M15.8708 9.83681C15.7778 9.65748 15.7306 9.45793 15.7334 9.25594C15.7334 8.92284 15.8657 8.60339 16.1013 8.36786C16.3368 8.13232 16.6563 8 16.9894 8C17.3225 8 17.6419 8.13232 17.8774 8.36786C18.113 8.60339 18.2453 8.92284 18.2453 9.25594C18.2475 9.45661 18.2003 9.65473 18.1079 9.83289C18.0717 9.90856 18.0607 9.99384 18.0765 10.0762C17.3563 9.96111 16.6224 9.96111 15.9022 10.0762C15.9171 9.9951 15.9062 9.91133 15.8708 9.83681ZM18.7477 25.2338C18.7477 25.7023 18.5616 26.1515 18.2304 26.4827C17.8992 26.8139 17.4499 27 16.9815 27C16.5131 27 16.0639 26.8139 15.7326 26.4827C15.4014 26.1515 15.2153 25.7023 15.2153 25.2338C15.2124 25.2031 15.2058 25.1728 15.1957 25.1436H18.7516C18.7468 25.1734 18.7455 25.2037 18.7477 25.2338ZM23.6812 24.0878C23.6298 24.1778 23.5536 24.2511 23.4618 24.2991C23.37 24.3471 23.2663 24.3677 23.1631 24.3586H10.8156C10.7156 24.364 10.6161 24.3415 10.5281 24.2937C10.4401 24.2459 10.3671 24.1746 10.3172 24.0878C10.2944 24.0385 10.2875 23.9833 10.2973 23.9299C10.3072 23.8765 10.3333 23.8275 10.3721 23.7895L11.4672 22.5296C11.6418 22.3355 11.7395 22.0843 11.7419 21.8232V15.0607C11.7419 12.7058 14.0968 10.7788 17.009 10.7788C19.9212 10.7788 22.2761 12.7019 22.2761 15.0607V21.8153C22.2785 22.0764 22.3762 22.3276 22.5508 22.5218L23.6262 23.7777C23.6665 23.8172 23.6935 23.8684 23.7034 23.924C23.7132 23.9795 23.7055 24.0368 23.6812 24.0878Z" fill="#8F2682"/>
</svg>
