<svg width="21" height="17" viewBox="0 0 21 17" fill="none" xmlns="http://www.w3.org/2000/svg">
<g clip-path="url(#clip0_828_3498)">
<path d="M6.92152 13.8272C6.80451 13.8279 6.69187 13.7829 6.60762 13.7017C6.10862 13.2135 5.7126 12.6302 5.44301 11.9863C5.17343 11.3423 5.03575 10.6509 5.03812 9.9528C5.03586 9.08672 5.24695 8.23342 5.65274 7.46828C6.05852 6.70314 6.6465 6.04972 7.36475 5.56575C8.08299 5.08177 8.90937 4.78213 9.77089 4.69333C10.6324 4.60452 11.5025 4.72926 12.3044 5.05654C13.1063 5.38382 13.8152 5.90356 14.3685 6.56983C14.9219 7.2361 15.3026 8.0284 15.4771 8.87672C15.6515 9.72505 15.6144 10.6033 15.3689 11.4339C15.1234 12.2644 14.6771 13.0217 14.0695 13.6389C14.0296 13.6861 13.9804 13.7246 13.925 13.7518C13.8696 13.7791 13.8091 13.7947 13.7473 13.7975C13.6856 13.8003 13.624 13.7903 13.5663 13.7682C13.5086 13.7461 13.4561 13.7122 13.4121 13.6689C13.3681 13.6255 13.3335 13.5735 13.3106 13.5161C13.2876 13.4587 13.2768 13.3972 13.2787 13.3355C13.2807 13.2737 13.2953 13.213 13.3218 13.1572C13.3483 13.1014 13.3861 13.0516 13.4327 13.0111C14.0384 12.3933 14.4473 11.6098 14.6079 10.7597C14.7685 9.9096 14.6735 9.03097 14.335 8.2348C13.9964 7.43864 13.4296 6.76066 12.7059 6.28651C11.9823 5.81236 11.1344 5.56331 10.2692 5.57082C9.40413 5.57833 8.56065 5.84207 7.84535 6.32871C7.13005 6.81536 6.57502 7.50308 6.25038 8.30501C5.92574 9.10693 5.84605 9.98708 6.02137 10.8343C6.19669 11.6815 6.61917 12.4577 7.23542 13.0649C7.27832 13.1052 7.31251 13.1538 7.33588 13.2078C7.35926 13.2618 7.37131 13.32 7.37131 13.3788C7.37131 13.4376 7.35926 13.4959 7.33588 13.5498C7.31251 13.6038 7.27832 13.6525 7.23542 13.6927C7.19538 13.7358 7.14677 13.77 7.09271 13.7932C7.03865 13.8164 6.98033 13.828 6.92152 13.8272Z" fill="#161616"/>
<path d="M17.5762 10.1323H20.3385" stroke="#161616" stroke-width="1.5" stroke-miterlimit="10"/>
<path d="M0.5 10.1323H3.26233" stroke="#161616" stroke-width="1.5" stroke-miterlimit="10"/>
<path d="M10.3027 3.26233V0.5" stroke="#161616" stroke-width="1.5" stroke-miterlimit="10"/>
<path d="M15.6211 5.1368L17.5763 3.18164" stroke="#161616" stroke-width="1.5" stroke-miterlimit="10"/>
<path d="M3.2627 3.18164L5.21785 5.1368" stroke="#161616" stroke-width="1.5" stroke-miterlimit="10"/>
<path d="M2.34766 16.0515H18.4912" stroke="#161616" stroke-width="1.5" stroke-miterlimit="10"/>
</g>
<defs>
<clipPath id="clip0_828_3498">
<rect width="19.8386" height="16" fill="white" transform="translate(0.5 0.5)"/>
</clipPath>
</defs>
</svg>
