<svg width="19" height="20" viewBox="0 0 19 20" fill="none" xmlns="http://www.w3.org/2000/svg">
<path d="M17.6706 8.36788H16.9993V8.33329H9.49935V11.6666H14.2089C13.5218 13.607 11.6756 15 9.49935 15C6.7381 15 4.49935 12.7612 4.49935 9.99996C4.49935 7.23871 6.7381 4.99996 9.49935 4.99996C10.7739 4.99996 11.9335 5.48079 12.8164 6.26621L15.1735 3.90913C13.6852 2.52204 11.6943 1.66663 9.49935 1.66663C4.89727 1.66663 1.16602 5.39788 1.16602 9.99996C1.16602 14.602 4.89727 18.3333 9.49935 18.3333C14.1014 18.3333 17.8327 14.602 17.8327 9.99996C17.8327 9.44121 17.7752 8.89579 17.6706 8.36788Z" fill="#FFC107"/>
<path d="M2.12695 6.12121L4.86487 8.12913C5.6057 6.29496 7.39987 4.99996 9.49945 4.99996C10.774 4.99996 11.9336 5.48079 12.8165 6.26621L15.1736 3.90913C13.6853 2.52204 11.6945 1.66663 9.49945 1.66663C6.29862 1.66663 3.52279 3.47371 2.12695 6.12121Z" fill="#FF3D00"/>
<path d="M9.50078 18.3334C11.6533 18.3334 13.6091 17.5096 15.0879 16.17L12.5087 13.9875C11.6439 14.6452 10.5872 15.0009 9.50078 15C7.33328 15 5.49286 13.618 4.79953 11.6892L2.08203 13.783C3.4612 16.4817 6.26203 18.3334 9.50078 18.3334Z" fill="#4CAF50"/>
<path d="M17.6712 8.36796H17V8.33337H9.5V11.6667H14.2096C13.8809 12.5902 13.2889 13.3972 12.5067 13.988L12.5079 13.9871L15.0871 16.1696C14.9046 16.3355 17.8333 14.1667 17.8333 10C17.8333 9.44129 17.7758 8.89587 17.6712 8.36796Z" fill="#1976D2"/>
</svg>
