<svg width="123" height="92" viewBox="0 0 123 92" fill="none" xmlns="http://www.w3.org/2000/svg">
<path d="M101.083 92.0001H19.9327C7.70327 92.0001 -1.6575 80.8463 0.770046 68.8601C1.05813 67.4377 1.46806 66.0476 2.00067 64.7154C3.89749 59.9721 7.35028 55.8089 8.2273 50.7763C9.40957 43.9913 5.66974 37.3688 4.96963 30.5172C4.16464 22.637 7.73698 14.4498 14.0614 9.68049C20.3858 4.91123 29.2399 3.72771 36.5948 6.66861C43.3364 9.36414 48.7472 15.1873 55.8759 16.5641C61.97 17.7411 68.168 15.4258 73.7722 12.7579C79.3762 10.09 84.976 6.96926 91.1561 6.39498C97.3363 5.8207 104.38 8.65839 106.362 14.54C107.654 18.3747 106.561 22.5966 105.025 26.3405C103.489 30.0843 101.494 33.7177 100.914 37.7226C100.335 41.7275 101.582 46.3602 105.116 48.3322C106.916 49.3367 109.045 49.5229 111.006 50.1593C118.268 52.5161 122.155 60.8956 121.823 68.5229C121.674 71.9338 120.706 75.633 119.368 79.2868C116.564 86.9423 109.236 92.0001 101.083 92.0001Z" fill="#D7F5FF"/>
<path d="M107.961 41.0012C108.871 43.7206 111.516 45.9463 114.379 45.7857C116.17 45.6852 117.829 44.6981 119.038 43.3738C120.248 42.0496 121.055 40.4084 121.71 38.7386C122.441 36.873 123.007 34.9081 123 32.9043C122.983 28.5161 118.317 23.1166 113.83 26.2746C109.665 29.2053 106.282 35.9867 107.961 41.0012Z" fill="#D7F5FF"/>
<path d="M68.7225 10.2916C70.7749 9.36661 72.8522 7.65256 72.7935 5.40213C72.7596 4.10262 71.9777 2.90424 70.9438 2.11662C69.9098 1.32879 68.6463 0.902321 67.3805 0.606284C63.1001 -0.394256 54.8452 -0.681081 52.4164 3.99355C49.9434 8.7536 55.8399 11.1753 59.4894 11.6269C62.6123 12.0136 65.8469 11.5877 68.7225 10.2916Z" fill="#D7F5FF"/>
<path d="M90.0694 40.3748L72.8723 41.1425L72.0032 42.0356L63.5557 51.5582L67.0401 59.2223L78.525 48.5855H80.6884L87.2797 60.7792L84.984 73.9886L92.7903 74.3912L94.4221 60.5572C94.5701 59.3023 94.4887 58.0309 94.1819 56.805L90.0694 40.3748Z" fill="#576993"/>
<path d="M85.7128 43.6199C89.3416 41.1772 90.0692 40.3748 90.0692 40.3748L72.872 41.1425L72.0029 42.0356C74.3026 45.9926 82.0839 46.0623 85.7128 43.6199Z" fill="#422C4F"/>
<path d="M92.0987 74.3554L92.7029 75.6323C92.9577 76.1704 93.3594 76.6253 93.8621 76.9444L93.8885 76.9612C94.6169 77.4234 95.1239 78.1644 95.291 79.0108H85.8174L87.3374 74.1099L92.0987 74.3554Z" fill="#454F6B"/>
<path d="M67.5576 20.8143C66.2311 21.362 65.1275 22.3404 64.4249 23.5917L59.8933 31.6628C59.4147 32.5153 59.2652 33.514 59.4735 34.4691C59.9021 36.4338 61.7244 37.7735 63.7273 37.5966L67.4979 37.409L66.6915 33.6317L65.2477 32.5936L69.4649 28.0924V23.9051L67.5576 20.8143Z" fill="#6CA8BF"/>
<path d="M69.4653 28.0923L68.1614 23.1177L68.0724 24.7143C67.9864 26.2589 68.0622 27.8086 68.2983 29.3376L69.4653 28.0923Z" fill="#468097"/>
<path d="M65.2486 32.5936C64.0307 32.1087 62.6818 32.0641 61.4346 32.4673L61.0439 32.5936L61.76 32.0306C62.6969 31.2941 64.0003 31.2411 64.9938 31.8996L65.5521 32.2697L65.2486 32.5936Z" fill="#468097"/>
<path d="M62.1893 35.0849C61.3481 36.8069 62.4472 37.7878 63.4678 38.2264C64.4885 38.665 66.5036 36.6558 66.5036 36.6558L66.0823 34.8705L64.7763 34.1639L62.1893 35.0849Z" fill="#EBA588"/>
<path d="M67.4977 37.3287C67.7862 37.3566 68.0772 37.3848 68.3527 37.4749C68.628 37.5649 68.8903 37.7234 69.0524 37.9635C69.1987 38.1804 69.2402 38.5035 69.0526 38.6858C68.8489 38.8839 68.5152 38.8102 68.2447 38.7233C67.625 38.5244 67.0055 38.3257 66.3857 38.1268C66.7105 37.8507 67.126 37.5379 67.4977 37.3287Z" fill="#EBA588"/>
<path d="M62.1895 35.0849C63.6742 34.0263 65.5219 33.4872 67.3429 33.5816C67.6477 34.0234 67.9605 34.5173 68.2168 35.0168C68.3958 35.366 68.4458 35.7655 68.3692 36.1505C68.3439 36.2776 68.3194 36.4068 68.2951 36.537C68.1265 37.441 67.4712 38.1761 66.5934 38.4499C65.7258 38.7204 64.8308 38.925 63.9336 39.0535C63.3631 39.1354 62.8795 38.6321 62.9815 38.0647C63.0332 37.7773 63.0841 37.4896 63.1301 37.1996C62.5481 36.7353 62.2485 35.8273 62.1895 35.0849Z" fill="#F0BF9C"/>
<path d="M84.7709 18.3568L74.6464 17.0309L67.5576 20.814L69.4651 28.0921L71.4825 31.8998C72.3369 33.5123 72.693 35.3421 72.5059 37.1572L72.003 42.0356C76.7388 44.3721 82.2996 44.3356 87.0044 41.9374L90.0692 40.3749L89.1411 28.9997L84.7709 18.3568Z" fill="#6CA8BF"/>
<path d="M71.9746 19.5313C72.1714 20.1828 72.3726 20.8438 72.7409 21.4162C73.1091 21.9886 73.6727 22.4707 74.3442 22.5823C75.0401 22.6981 75.7645 22.3916 76.2577 21.8872C76.751 21.3829 77.034 20.7029 77.1724 20.0111C77.3108 19.3192 77.315 18.6086 77.3188 17.9031C75.6579 18.6415 73.7628 19.2059 71.9746 19.5313Z" fill="#EBA588"/>
<path d="M78.1583 16.2611C78.7895 15.5383 79.172 14.5841 79.3594 13.6026C79.5467 12.6211 79.5495 11.608 79.4996 10.6066C79.4653 9.91551 79.4037 9.21435 79.1699 8.57203C78.936 7.92971 78.506 7.34517 77.9194 7.09771C77.3327 6.85024 76.5418 7.00454 76.1787 7.5694C76.1321 7.09226 75.759 6.71332 75.3446 6.56467C74.9303 6.41602 74.4814 6.45559 74.0499 6.52154C73.6185 6.5877 73.1836 6.67898 72.7504 6.62916C72.2358 6.56991 71.7595 6.31574 71.2723 6.12417C70.7852 5.9324 70.2433 5.80239 69.7559 5.99374C69.1863 6.21755 68.8098 6.85296 68.7041 7.50889C68.5982 8.16482 68.7682 8.79458 68.9457 9.43167C68.3086 9.50076 67.6981 9.83469 67.2629 10.352C66.8276 10.8694 66.5718 11.5653 66.5573 12.2704C66.541 13.0718 66.827 13.8523 67.2352 14.516C67.6433 15.1797 68.17 15.7425 68.6928 16.3C69.378 17.0311 69.8499 18.0285 70.6271 18.6377C71.4042 19.247 72.3495 19.6288 73.3025 19.5822C74.2476 19.5359 75.1447 19.0757 75.9038 18.4539C76.6628 17.8323 77.5023 17.0118 78.1583 16.2611Z" fill="#6A3649"/>
<path d="M70.0234 17.281C70.0234 18.0278 69.4182 18.6331 68.6714 18.6331C67.9246 18.6331 67.3193 18.0276 67.3193 17.281C67.3193 16.5342 67.9248 15.929 68.6714 15.929C69.418 15.929 70.0234 16.5342 70.0234 17.281Z" fill="#F0BF9C"/>
<path d="M68.6708 18.0719C69.1077 18.0719 69.4618 17.7178 69.4618 17.281C69.4618 16.8441 69.1077 16.49 68.6708 16.49C68.234 16.49 67.8799 16.8441 67.8799 17.281C67.8799 17.7178 68.234 18.0719 68.6708 18.0719Z" fill="#EBA588"/>
<path d="M80.2315 15.2919C80.2315 16.0387 79.6262 16.6439 78.8794 16.6439C78.1326 16.6439 77.5273 16.0385 77.5273 15.2919C77.5273 14.5451 78.1328 13.9398 78.8794 13.9398C79.626 13.9398 80.2315 14.5451 80.2315 15.2919Z" fill="#F0BF9C"/>
<path d="M78.8789 16.0828C79.3157 16.0828 79.6698 15.7287 79.6698 15.2918C79.6698 14.855 79.3157 14.5009 78.8789 14.5009C78.442 14.5009 78.0879 14.855 78.0879 15.2918C78.0879 15.7287 78.442 16.0828 78.8789 16.0828Z" fill="#EBA588"/>
<path d="M78.2359 15.9183C77.6395 15.6472 77.2404 15.0698 77.1977 14.4159L77.1516 13.7108C76.1124 13.0848 75.5278 11.7759 75.746 10.5825C74.8235 11.3622 73.8146 12.0395 72.7435 12.5976C71.9425 13.0151 71.0988 13.3687 70.21 13.5305C69.4589 13.6675 68.6719 13.6591 67.9414 13.4472C67.9523 13.6704 67.977 13.8953 68.0193 14.1209L68.5012 16.6932C69.0016 19.364 71.5724 21.1233 74.2432 20.6229C76.5621 20.1885 78.1928 18.193 78.2552 15.9269L78.2359 15.9183Z" fill="#F0BF9C"/>
<path d="M70.1445 14.4987C69.7332 14.4416 69.3412 14.5879 69.0674 14.8597L71.0825 15.1394C70.8932 14.8035 70.5559 14.5559 70.1445 14.4987Z" fill="#472948"/>
<path d="M70.2721 15.8711C70.2439 16.0748 70.0812 16.2208 69.9087 16.1967C69.7362 16.1728 69.6194 15.9882 69.6478 15.7845C69.6761 15.5807 69.8388 15.4348 70.0113 15.4589C70.1836 15.4828 70.3004 15.6672 70.2721 15.8711Z" fill="#422C4F"/>
<path d="M74.0866 14.3425C74.4903 14.2443 74.895 14.3507 75.1946 14.5937L73.2178 15.0742C73.3723 14.7208 73.683 14.4405 74.0866 14.3425Z" fill="#472948"/>
<path d="M73.9213 15.7397C73.9129 15.9453 74.0473 16.1176 74.2211 16.1245C74.3951 16.1316 74.5427 15.9706 74.551 15.765C74.5594 15.5594 74.425 15.3871 74.251 15.3802C74.077 15.3733 73.9296 15.5341 73.9213 15.7397Z" fill="#422C4F"/>
<path d="M72.7 17.328C72.3117 17.3638 71.9235 17.3996 71.5352 17.4352C71.639 17.6816 71.8653 17.8751 72.1318 17.8545C72.3986 17.8338 72.6354 17.5874 72.7 17.328Z" fill="#EBA588"/>
<path d="M75.5321 17.592C74.1708 18.0336 72.8095 18.4751 71.4482 18.9167C72.0891 19.5919 73.1265 19.9354 74.0156 19.6595C74.9048 19.3833 75.3863 18.5116 75.5321 17.592Z" fill="white"/>
<path d="M97.9399 78.9746H23.6533V81.6188H97.9399V78.9746Z" fill="#C7D2D7"/>
<path d="M95.8338 81.619H25.7588V91.9998H95.8338V81.619Z" fill="#99A3B0"/>
<path d="M95.8338 81.619H25.7588V84.2367H95.8338V81.619Z" fill="#422C4F"/>
<path d="M49.9099 65.1265L48.7783 64.7361V66.3297L57.908 72.8957L67.0376 66.3532V64.7361L66.1005 65.0671C60.8654 66.9166 55.1584 66.9375 49.9099 65.1265Z" fill="#422C4F"/>
<path d="M55.4441 54.0011L52.0566 65.7567C55.9007 66.702 59.9152 66.7014 63.7583 65.7603L60.3698 54.0009C59.4059 56.111 56.4082 56.111 55.4441 54.0011Z" fill="#6C6FC3"/>
<path d="M67.0366 64.7362L61.4933 51.5586H55.2332L48.7773 64.7362L49.9089 65.1267C50.617 65.371 51.3341 65.5791 52.0566 65.7569L55.444 54.0012C56.4079 56.1114 59.4058 56.1114 60.3697 54.0012L63.7582 65.7606C64.5467 65.5676 65.3284 65.3398 66.0993 65.0674L67.0366 64.7362Z" fill="#545AA8"/>
<path d="M45.8027 62.0976L46.9226 57.3336L51.4281 57.6384L48.6153 62.0976H45.8027Z" fill="#EBA588"/>
<path d="M52.3701 47.7985L50.717 48.54C49.4995 49.086 48.5583 50.106 48.1113 51.3631L46.0107 57.2721L51.428 57.6385L53.4611 52.3433L52.3701 47.7985Z" fill="#6C6FC3"/>
<path d="M46.9225 57.3336L51.4279 57.6384L50.4289 59.2223L46.8086 57.8185L46.9225 57.3336Z" fill="#422C4F"/>
<path d="M69.9573 72.6602H69.0824C68.9831 72.6602 68.8849 72.6681 68.7874 72.6807C69.3704 74.3288 69.3401 76.132 68.7007 77.7596L68.2363 78.9747L69.4339 78.8887L69.8775 77.7596C70.5194 76.1253 70.5479 74.3137 69.9573 72.6602Z" fill="white"/>
<path d="M68.7876 72.6807C68.4231 72.7282 68.0739 72.8622 67.7709 73.0753L66.4028 74.038C65.8377 74.4355 65.1638 74.6489 64.4729 74.6489H63.5979L61.8184 77.6584L62.9246 78.1234C64.5715 78.8156 66.3584 79.1095 68.1402 78.9814L68.2363 78.9745L68.7007 77.7594C69.3403 76.132 69.3707 74.3288 68.7876 72.6807Z" fill="#797C99"/>
<path d="M64.4729 74.6492H63.5979L61.8184 77.6587L62.9246 78.1237C63.0498 78.1763 63.1771 78.2221 63.3038 78.2701C64.1289 77.2501 64.6131 75.9543 64.6466 74.6425C64.5888 74.6454 64.5311 74.6492 64.4729 74.6492Z" fill="#422C4F"/>
<path d="M43.4207 66.1957C42.4768 68.0833 43.2879 70.3771 45.2084 71.2518L61.1115 78.4961L61.7515 78.0575C63.1473 77.1011 64.0893 75.6134 64.3566 73.9425L56.9243 70.017L48.7793 64.736C46.9151 63.5272 44.4143 64.2084 43.4207 66.1957Z" fill="#454F6B"/>
<path d="M49.8652 73.373L57.7366 70.4459L64.3568 73.9425L59.3319 77.6852L49.8652 73.373Z" fill="#422C4F"/>
<path d="M45.8597 72.6603H46.7346C46.8337 72.6603 46.9321 72.6682 47.0296 72.6808C46.4466 74.3289 46.4769 76.1321 47.1163 77.7597L47.5807 78.9748L46.3831 78.8888L45.9395 77.7597C45.2976 76.1254 45.2691 74.3138 45.8597 72.6603Z" fill="white"/>
<path d="M47.0294 72.6808C47.3939 72.7283 47.7431 72.8623 48.0461 73.0754L49.4142 74.0381C49.9793 74.4357 50.6532 74.649 51.3441 74.649H52.2191L53.9986 77.6586L52.8924 78.1236C51.2455 78.8157 49.4586 79.1097 47.6767 78.9815L47.5806 78.9746L47.1163 77.7595C46.4767 76.1321 46.4463 74.3289 47.0294 72.6808Z" fill="#797C99"/>
<path d="M51.3439 74.6493H52.2188L53.9984 77.6588L52.8921 78.1238C52.7669 78.1764 52.6396 78.2222 52.513 78.2702C51.6879 77.2502 51.2036 75.9544 51.1699 74.6426C51.2279 74.6455 51.2857 74.6493 51.3439 74.6493Z" fill="#422C4F"/>
<path d="M72.3969 66.1958C73.3407 68.0834 72.5296 70.3772 70.6092 71.2519L54.706 78.4962L54.066 78.0576C52.6702 77.1013 51.7283 75.6135 51.4609 73.9426L58.8933 70.0171L67.0383 64.7362C68.9024 63.5273 71.4033 64.2086 72.3969 66.1958Z" fill="#454F6B"/>
<path d="M70.015 62.0975L68.8951 57.3335L64.3896 57.6383L67.2024 62.0975H70.015Z" fill="#EBA588"/>
<path d="M63.4474 47.7985L65.1005 48.54C66.318 49.086 67.2593 50.106 67.7063 51.3631L69.8068 57.2721L64.3896 57.6385L62.3564 52.3433L63.4474 47.7985Z" fill="#6C6FC3"/>
<path d="M68.8951 57.3335L64.3896 57.6383L65.3887 59.2221L69.009 57.8184L68.8951 57.3335Z" fill="#422C4F"/>
<path d="M51.8466 46.6992L51.6451 47.6594C51.485 48.4223 51.5013 49.2118 51.6927 49.9676L52.3961 52.7445L46.149 61.4389C45.1434 62.8383 45.7076 64.8096 47.3015 65.4651C48.6684 66.0273 50.232 65.3716 50.7891 64.0025L55.0657 53.4936L55.2931 53.1411C55.6603 52.5716 55.6371 51.8344 55.2347 51.2893L51.8466 46.6992Z" fill="#F0BF9C"/>
<path d="M55.2349 51.2893L52.7131 47.8727C52.6807 48.8006 52.8023 49.7341 53.082 50.6197C53.2868 51.2679 53.6151 51.9364 54.2207 52.2452C54.5612 52.4188 54.968 52.4579 55.3354 52.3524C55.4091 52.3312 55.4805 52.3028 55.5502 52.2705C55.5527 51.9251 55.4495 51.5798 55.2349 51.2893Z" fill="#EBA588"/>
<path d="M63.9704 46.6992L64.1718 47.6594C64.332 48.4223 64.3156 49.2118 64.1243 49.9676L63.4208 52.7445L69.668 61.4389C70.6735 62.8383 70.1093 64.8096 68.5154 65.4651C67.1485 66.0273 65.585 65.3716 65.0279 64.0025L60.7513 53.4936L60.5239 53.1411C60.1567 52.5716 60.1799 51.8344 60.5823 51.2893L63.9704 46.6992Z" fill="#F0BF9C"/>
<path d="M61.7901 52.5266C62.3956 52.2178 62.7241 51.5493 62.9288 50.9011C63.2588 49.8562 63.3706 48.7445 63.2653 47.6539L60.5821 51.2893C60.33 51.6308 60.227 52.0474 60.2752 52.451C60.3991 52.5306 60.534 52.5932 60.6757 52.6338C61.0429 52.7393 61.4497 52.7002 61.7901 52.5266Z" fill="#EBA588"/>
<path d="M53.4628 50.4654C52.7171 49.8198 52.1478 48.8726 51.8936 47.9194C51.6395 46.9662 51.628 45.9591 51.7693 44.9829C51.9156 43.971 52.2294 42.9728 52.7826 42.1129C53.3357 41.2531 54.139 40.5377 55.0981 40.1839C56.0572 39.8301 57.1731 39.8629 58.0652 40.3623C59.0605 39.721 60.4917 39.6546 61.5588 40.1676C62.6259 40.6807 63.4433 41.6193 64.0069 42.6604C64.7089 43.9572 65.056 45.4571 64.9103 46.9245C64.7644 48.3919 64.0785 50.093 62.5725 50.9107L61.4964 51.5585L59.6645 52.3436L55.8263 51.9249L53.9246 50.8084L53.4628 50.4654Z" fill="#8C404C"/>
<path d="M60.6365 51.6969C59.4917 51.9075 58.2855 51.7725 57.2155 51.3142C56.1454 50.8559 55.1642 50.0271 54.5267 49.0531C54.57 49.3437 54.6129 49.6425 54.5474 49.9291C54.4816 50.2155 54.2815 50.4908 53.9953 50.5567C53.8159 50.598 53.6262 50.5515 53.4629 50.4657C54.3125 51.7509 55.6729 52.6688 57.2553 52.9299L57.3911 53.1658C57.63 53.5803 58.2179 53.6076 58.4941 53.2171L58.658 52.9853C60.2366 52.8534 61.6299 52.0725 62.5726 50.911C61.7718 51.2139 60.9212 51.3852 60.0651 51.4118C60.2481 51.5162 60.4533 51.5922 60.6365 51.6969Z" fill="#F0BF9C"/>
<path d="M36.0938 46.6992L40.1284 63.2608C40.6445 65.3789 40.7621 67.5742 40.4755 69.7355L38.5014 84.6198H30.7201L31.0578 79.6473C31.3438 75.4347 32.0253 71.2582 33.093 67.1731L26.2538 51.9594H25.207L26.5209 64.0697C26.714 65.8491 26.6342 67.6473 26.2846 69.4026L23.253 84.6198H15.2275L16.1127 77.4184C16.5624 73.7594 17.5579 70.1883 19.066 66.8241L16.4749 55.1878C15.6542 51.502 15.681 47.6778 16.5536 44.0037L35.6056 44.7714L36.0938 46.6992Z" fill="#576993"/>
<path d="M26.2538 51.9593H24.6268C23.4134 51.9593 22.2219 51.634 21.1768 51.0172H27.0389L29.0362 58.1487L26.2538 51.9593Z" fill="#422C4F"/>
<path d="M24.7179 48.5244C26.564 48.3307 28.33 47.693 30.1303 47.2401C31.9306 46.7873 34.1046 46.7775 36.0935 46.699L35.6051 44.7711L16.5532 44.0034C16.4031 44.6355 16.2798 45.2721 16.1797 45.9115C18.5289 47.8643 21.6763 48.8437 24.7179 48.5244Z" fill="#422C4F"/>
<path d="M38.4632 87.2369H29.8838L30.2495 84.6199H38.8288L38.4632 87.2369Z" fill="#7288AF"/>
<path d="M23.2013 87.2369H14.6221L14.9876 84.6199H23.5668L23.2013 87.2369Z" fill="#7288AF"/>
<path d="M24.3008 52.7184L25.8763 64.2172C26.0494 65.4804 26.0034 66.7643 25.7404 68.0118L22.4164 83.7824C22.1526 82.7501 22.1344 81.6702 22.3634 80.6294L25.1642 67.9019C25.4356 66.6692 25.4944 65.399 25.3386 64.1464L24.0986 54.1856C24.0368 53.6871 24.1063 53.1813 24.3008 52.7184Z" fill="#7288AF"/>
<path d="M35.5356 47.3534L39.6988 64.8941C39.9454 65.933 40.0007 67.0081 39.8621 68.0666L37.8037 83.7821C37.5382 82.5705 37.4917 81.3215 37.6659 80.0936L39.3632 68.1386C39.5202 67.0332 39.4652 65.9081 39.2011 64.8234L35.4638 49.4671C35.294 48.7693 35.319 48.0382 35.5356 47.3534Z" fill="#7288AF"/>
<path d="M40.6706 89.4056L40.3765 89.2823C39.9165 89.0895 39.5003 88.8056 39.1532 88.4478L37.9784 87.2368H31.9069L31.1748 90.7436H42.3018C41.9046 90.1566 41.3422 89.687 40.6706 89.4056Z" fill="#454F6B"/>
<path d="M31.1744 90.7437L30.9121 91.9998H42.8457C42.7431 91.5445 42.556 91.1201 42.3014 90.7437H31.1744Z" fill="white"/>
<path d="M37.9786 87.2368H31.9071L31.6553 88.4427L38.5636 87.8398L37.9786 87.2368Z" fill="#422C4F"/>
<path d="M24.987 89.4056L24.6929 89.2823C24.2329 89.0895 23.8169 88.8056 23.4696 88.4478L22.2948 87.2368H16.2233L15.4912 90.7436H26.6182C26.2208 90.1566 25.6584 89.687 24.987 89.4056Z" fill="#454F6B"/>
<path d="M15.4908 90.7437L15.2285 91.9998H27.1621C27.0595 91.5445 26.8722 91.1201 26.6176 90.7437H15.4908Z" fill="white"/>
<path d="M22.2938 87.2368H16.2224L15.9707 88.4427L22.8788 87.8398L22.2938 87.2368Z" fill="#422C4F"/>
<path d="M38.5691 25.7129C36.0335 25.1305 34.4501 22.6029 35.0328 20.0673L35.395 18.4904C35.9774 15.9548 38.5051 14.3714 41.0406 14.9541C43.5762 15.5365 45.1594 18.0641 44.5772 20.5997L44.215 22.1766C43.6323 24.712 41.1047 26.2954 38.5691 25.7129Z" fill="#F2C9AD"/>
<path d="M43.2374 23.6955C44.0902 23.6955 44.7814 23.0042 44.7814 22.1515C44.7814 21.2987 44.0902 20.6074 43.2374 20.6074C42.3847 20.6074 41.6934 21.2987 41.6934 22.1515C41.6934 23.0042 42.3847 23.6955 43.2374 23.6955Z" fill="#F2C9AD"/>
<path d="M35.1999 23.5924C33.7988 22.5778 32.7775 21.0158 32.529 19.304C32.2805 17.5921 32.8462 15.7556 34.0982 14.562C35.3502 13.3684 37.2792 12.8957 38.9066 13.4817C39.3105 12.9436 39.8201 12.4464 40.4176 12.1374C41.0151 11.8284 41.8387 11.8457 42.2719 12.3603C42.61 12.7621 42.6724 13.3996 43.1319 13.6538C43.7529 13.9971 44.4476 13.3565 45.1433 13.217C46.1195 13.0213 47.0173 13.8759 47.4006 14.7948C48.0373 16.3213 47.732 18.1973 46.6444 19.4433C45.5568 20.6892 43.7389 21.245 42.1406 20.8202C41.8446 21.6581 41.4539 22.5422 40.812 23.1565C40.1199 23.8189 39.1319 24.0997 38.1743 24.1177C37.2166 24.1357 35.9758 24.1543 35.1999 23.5924Z" fill="#EBA25D"/>
<path d="M47.1379 31.5818L48.5511 32.8554L53.4629 27.4643C52.9175 26.7931 52.5354 26.0042 52.347 25.1601L51.9791 23.5126C52.4203 23.5126 52.8317 23.7345 53.0741 24.1028L53.9943 25.5015L55.8327 21.5105C55.9181 21.325 56.1304 21.2345 56.3234 21.3013C56.5164 21.3681 56.6274 21.5706 56.5797 21.7693L56.0617 23.9313L57.7634 21.7238C57.8984 21.5486 58.1413 21.4986 58.3347 21.606C58.5424 21.7213 58.6237 21.9788 58.5198 22.1924L57.3179 24.6641L59.4063 23.1954C59.5725 23.0784 59.8005 23.1071 59.9328 23.2614C60.067 23.418 60.058 23.6514 59.9123 23.7971L58.0247 25.6847L59.6778 24.9574C59.844 24.8843 60.0371 24.97 60.0944 25.1421C60.1392 25.2765 60.0867 25.4239 59.9671 25.4999L55.5123 28.3279L50.5613 37.0483C49.834 38.3291 48.1145 38.6206 47.006 37.6508L43.6572 34.7216L47.1379 31.5818Z" fill="#F2C9AD"/>
<path d="M47.1379 31.5818L47.6975 32.0861C47.8706 35.071 45.3277 36.1827 45.3277 36.1827L43.6572 34.7216L47.1379 31.5818Z" fill="#422C4F"/>
<path d="M30.0169 22.4468L38.9082 23.2587C40.9765 23.4475 42.8602 24.527 44.0688 26.2159L47.6089 31.1629L47.602 31.2109C47.2894 33.3782 45.7012 35.1431 43.5787 35.6816L40.4906 31.5817L38.3084 37.4566C37.3466 40.0459 36.6637 42.7306 36.2711 45.4649L36.094 46.6993L32.0636 46.3218C30.3874 46.1648 28.6973 46.2713 27.0542 46.6373C23.4653 47.4368 19.7108 46.9857 16.4136 45.3585L15.5068 44.9111L17.2177 39.0222C18.3851 35.0033 20.1465 31.1814 22.4432 27.6829L23.964 25.3665C25.2876 23.35 27.6149 22.2276 30.0169 22.4468Z" fill="#E68799"/>
<path d="M40.4902 31.5817L41.4533 32.1721C42.6879 32.9289 43.4797 34.2368 43.5783 35.6816L40.4902 31.5817Z" fill="#E36B85"/>
<path d="M91.3025 27.0392C93.8381 26.4568 95.4215 23.9292 94.8388 21.3936L94.4766 19.8167C93.8942 17.2811 91.3666 15.6977 88.831 16.2802C86.2954 16.8626 84.712 19.3902 85.2944 21.9258L85.6566 23.5027C86.2393 26.0385 88.7669 27.6217 91.3025 27.0392Z" fill="#F2C9AD"/>
<path d="M96.3163 24.3219C96.4762 24.7783 96.3416 25.3017 96.0556 25.6917C95.7698 26.0818 95.3507 26.3548 94.9144 26.5633C92.8859 27.5329 90.4393 26.9466 88.7717 25.4386C88.0875 25.618 87.3206 25.4447 86.78 24.9885C86.2397 24.5321 86.0284 23.6852 86.0908 22.9807C84.9278 22.6721 84.0047 21.6569 83.7242 20.4868C83.4437 19.3167 83.7799 18.0347 84.5309 17.0947C85.2819 16.1547 86.4181 15.5532 87.607 15.3687C88.796 15.1843 90.0304 15.4008 91.1281 15.8938C92.2209 15.0811 93.9869 15.0941 95.0693 15.9204C96.1517 16.7468 96.5918 18.3186 96.0958 19.587C97.0069 19.9303 97.7276 20.7588 97.8124 21.7287C97.8974 22.6987 97.1543 23.8259 96.3163 24.3219Z" fill="#422C4F"/>
<path d="M88.1872 52.1341L82.6504 65.3743C82.0051 66.9175 81.7036 68.5826 81.7671 70.2541L82.4297 87.6908H89.1381V69.9152L95.8332 59.7159L94.133 67.4786C93.8613 68.7195 93.7966 69.997 93.9419 71.2588L95.8332 87.6908H102.389L101.482 70.4461L104.967 57.8084C105.753 54.96 105.968 51.9846 105.599 49.0531L88.1872 52.1341Z" fill="#454F6B"/>
<path d="M88.186 52.1342L87.3213 54.2021C87.5943 54.2731 87.869 54.3373 88.1443 54.3985L89.0971 51.973L88.186 52.1342Z" fill="#422C4F"/>
<path d="M105.598 49.0532L89.5808 51.8876L88.5596 54.4876C91.6847 55.1239 94.9392 55.1364 98.0661 54.5054C100.787 53.9565 103.405 52.9226 105.769 51.4804C105.755 50.6703 105.7 49.8601 105.598 49.0532Z" fill="#422C4F"/>
<path d="M83.8315 65.3788C83.2934 66.7481 83.0468 68.188 83.0985 69.6588L83.6851 86.3374C83.6891 86.4505 83.7819 86.5394 83.8941 86.5394C83.8966 86.5394 83.8991 86.5394 83.9016 86.5392C84.0172 86.535 84.1074 86.4383 84.1035 86.3227L83.5168 69.6442C83.4674 68.231 83.7044 66.8475 84.2211 65.5317L88.5591 54.4876C88.4205 54.4594 88.2823 54.4292 88.1443 54.3984L83.8315 65.3788Z" fill="#576993"/>
<path d="M89.0973 51.973L88.1445 54.3985C88.2825 54.4292 88.4207 54.4594 88.5593 54.4876L89.5805 51.8876L89.0973 51.973Z" fill="#454F6B"/>
<path d="M97.8118 57.3337L97.2109 60.0718L97.9567 58.278H98.4554C99.5635 58.278 100.647 57.9493 101.568 57.3337H97.8118Z" fill="#422C4F"/>
<path d="M95.8321 59.7158L94.1318 67.4786L96.3027 62.2558L97.3765 57.363L95.8321 59.7158Z" fill="#422C4F"/>
<path d="M95.3633 66.5377C95.0334 68.0422 94.9494 69.581 95.1142 71.1121L96.7539 86.3526C96.7654 86.46 96.8561 86.5395 96.9618 86.5395C96.9691 86.5395 96.9767 86.5391 96.9844 86.5383C97.0994 86.5259 97.1825 86.4227 97.1701 86.3076L95.5304 71.0673C95.3707 69.5812 95.4521 68.0876 95.7722 66.6273L97.2107 60.072L96.303 62.2559L95.3633 66.5377Z" fill="#576993"/>
<path d="M97.3956 57.3337L97.3765 57.363L96.3027 62.2558L97.2105 60.072L97.8114 57.3337H97.3956Z" fill="#454F6B"/>
<path d="M87.7872 88.0576V87.6904H82.9022C82.9022 87.7815 82.8951 87.8711 82.8838 87.9599L87.9074 89.0381C87.8291 88.7171 87.7872 88.3884 87.7872 88.0576Z" fill="#422C4F"/>
<path d="M87.9069 89.0382L82.8832 87.96C82.7859 88.722 82.2818 89.3811 81.5532 89.666L80.2763 90.1654C79.4531 90.4874 78.8164 91.1601 78.54 91.9998H88.7638L87.9527 89.2186C87.9351 89.1592 87.9215 89.0985 87.9069 89.0382Z" fill="#8C404C"/>
<path d="M101.673 88.0576V87.6904H96.788C96.788 87.7815 96.7808 87.8711 96.7695 87.9599L101.793 89.0381C101.715 88.7171 101.673 88.3884 101.673 88.0576Z" fill="#422C4F"/>
<path d="M101.793 89.0382L96.7697 87.96C96.6724 88.722 96.1683 89.3811 95.4397 89.666L94.1628 90.1654C93.3396 90.4874 92.7029 91.1601 92.4268 91.9998H102.651L101.839 89.2186C101.822 89.1592 101.808 89.0985 101.793 89.0382Z" fill="#8C404C"/>
<path d="M71.8643 40.9681L71.1183 41.4629C70.4856 41.8826 69.8881 42.3533 69.3323 42.8704L68.2907 43.8391C68.024 44.0872 67.908 44.4576 67.9856 44.8135L68.2496 46.0221C68.3127 46.3106 68.5681 46.5162 68.8633 46.5162H70.1676L69.4685 47.9483C69.3609 48.1687 69.4531 48.4348 69.6741 48.5416C69.8778 48.64 70.123 48.569 70.2428 48.3768L72.8849 44.1347L74.1934 43.0356L71.8643 40.9681Z" fill="#EBA588"/>
<path d="M73.2716 42.2168L72.0828 43.2188C71.6174 43.6641 71.3863 44.3008 71.457 44.941L71.4721 45.0769L71.3578 45.0442C70.7909 44.8818 70.1816 45.0691 69.8037 45.5218L72.0493 46.2792C72.2949 46.3622 72.556 46.2043 72.5968 45.9483L72.8853 44.1346L74.1938 43.0354L73.2716 42.2168Z" fill="#F0BF9C"/>
<path d="M71.5968 41.1453C71.3014 43.3103 73.4042 43.6982 73.4042 43.6982L74.1931 43.0356L71.864 40.9681L71.5968 41.1453Z" fill="#422C4F"/>
<path d="M71.4717 40.5496L78.6947 35.3155L83.3029 29.417C84.5587 27.8097 86.301 26.6521 88.2694 26.1174L89.9303 25.6662C92.429 24.9875 95.0383 24.8173 97.604 25.1657C99.8253 25.4671 101.648 27.0738 102.226 29.2396L104.175 36.5409C104.6 38.1308 104.955 39.7385 105.24 41.3592L106.801 50.2325C101.7 53.8042 95.2642 54.8959 89.2704 53.2063L87.54 52.7187L87.8718 51.6034C88.704 48.8066 88.8939 45.8577 88.4273 42.9771L87.0166 34.2687L83.3435 38.2972C82.5532 39.164 81.6174 39.8857 80.5783 40.4296L74.3504 43.69C72.8549 43.3728 71.7133 42.1606 71.4865 40.6488L71.4717 40.5496Z" fill="#CC6164"/>
<path d="M87.0166 34.2687L89.1364 32.3147L88.8632 38.9332C88.8303 39.7297 88.7185 40.5208 88.5295 41.2951L88.3044 42.2169L87.0166 34.2687Z" fill="#A34262"/>
</svg>
