<svg width="19" height="20" viewBox="0 0 19 20" fill="none" xmlns="http://www.w3.org/2000/svg">
<g id="Frame 6" clip-path="url(#clip0_596_4411)">
<path id="Vector 11" d="M15.25 20H14.75C13.2312 20 12 18.7688 12 17.25C12 15.7312 10.7688 14.5 9.25 14.5C7.73122 14.5 6.5 15.7312 6.5 17.25C6.5 18.7688 5.26878 20 3.75 20H3.25C1.45507 20 0 18.5449 0 16.75V9.02123C0 7.75027 0.604008 6.55494 1.62721 5.80101L8.89049 0.449116C9.25099 0.183478 9.74415 0.189894 10.0976 0.46482L16.9558 5.79893C17.9301 6.55675 18.5 7.72197 18.5 8.95634V16.75C18.5 18.5449 17.0449 20 15.25 20Z" fill="#A3A3A5"/>
</g>
<defs>
<clipPath id="clip0_596_4411">
<rect width="18.5" height="20" fill="white"/>
</clipPath>
</defs>
</svg>
