<svg width="121" height="92" viewBox="0 0 121 92" fill="none" xmlns="http://www.w3.org/2000/svg">
<path d="M28.725 18.8969C28.725 18.8969 26.6523 26.214 26.1761 27.4562C26.1761 27.4562 25.7591 31.5858 25.8705 34.5264C25.9819 37.4667 26.23 39.5739 26.23 39.5739L27.7511 39.6738C27.7511 39.6738 28.7432 33.6964 28.9442 31.0423C29.1452 28.3883 29.1996 27.5719 29.1996 27.5719L31.3568 21.7996L28.725 18.8969Z" fill="#DC7368"/>
<path d="M31.0987 14.0251C31.0987 14.0251 29.193 15.0537 26.8486 22.6693C26.8486 22.6693 27.5191 24.3252 30.595 25.2546L32.4895 21.4029L31.0987 14.0251Z" fill="#051C34"/>
<path d="M52.7372 74.3454C52.7279 74.6103 52.6941 74.7959 52.6941 74.7959L45.0361 74.5221C45.0416 74.3708 45.0498 74.2196 45.0632 74.0711C45.2213 72.0712 45.916 70.3556 45.916 70.3556L47.8591 69.6023C47.9887 70.5947 48.3906 71.2398 48.9085 71.6697C49.045 71.7857 49.1878 71.8827 49.3363 71.9665C49.4053 72.007 49.4743 72.0446 49.5461 72.0796C49.703 72.1584 49.8659 72.2238 50.029 72.2782C50.6974 72.5076 51.3798 72.5754 51.8557 72.6655C52.6671 72.8217 52.7578 73.7695 52.7372 74.3454Z" fill="#C6DCE3"/>
<path d="M52.7372 74.3453C52.7279 74.6102 52.6941 74.7959 52.6941 74.7959L45.0361 74.5221C45.0416 74.3707 45.0498 74.2196 45.0632 74.071L52.7372 74.3453Z" fill="#A6C1C9"/>
<path d="M49.3369 71.9662L48.2623 72.2688L48.0518 71.8716L48.9088 71.6694C49.0454 71.7854 49.1881 71.8826 49.3369 71.9662Z" fill="#A6C1C9"/>
<path d="M50.0291 72.2782L49.2958 72.7283L48.8613 72.5395L49.5462 72.0796C49.7031 72.1582 49.8659 72.2236 50.0291 72.2782Z" fill="#A6C1C9"/>
<path d="M32.9618 74.3382C32.9901 74.5972 33.0643 74.7866 33.0643 74.7866L38.165 74.6041C38.2247 74.4532 38.2652 74.3028 38.2922 74.1475C38.7076 71.6887 35.2113 68.8229 35.2113 68.8229L34.1868 70.2967C34.1868 70.2967 34.3933 72.5898 33.4996 73.101C32.9635 73.4071 32.9127 73.9504 32.9618 74.3382Z" fill="#C6DCE3"/>
<path d="M38.2926 74.1477L32.9619 74.3384C32.9902 74.5973 33.0644 74.7868 33.0644 74.7868L38.1651 74.6043C38.225 74.4531 38.2657 74.3029 38.2926 74.1477Z" fill="#A6C1C9"/>
<path d="M33.7256 72.9097C33.7256 72.9097 35.857 72.3429 36.8597 72.9423L36.847 72.5875C36.847 72.5875 35.0078 71.7736 33.7256 72.9097Z" fill="#A6C1C9"/>
<path d="M34.1318 72.3492C34.1318 72.3492 35.4816 71.6727 36.835 72.2524L36.6702 71.9001C36.6702 71.9001 35.0591 71.3561 34.1318 72.3492Z" fill="#A6C1C9"/>
<path d="M32.0354 34.0996C31.862 38.9519 32.1629 43.9106 32.2405 45.1686C32.3183 46.4264 33.1155 60.4764 33.1043 65.9C33.0985 68.6782 33.8693 72.0691 33.8693 72.0691C33.8693 72.0691 36.5893 70.0268 38.0301 71.6679L38.4828 69.5161L37.8421 67.7862C37.8421 67.7862 38.6424 66.4028 38.068 65.2854C37.4935 64.168 38.1429 40.742 38.1429 40.742L39.3265 40.7084L44.5115 68.0247L44.4564 69.5683C44.4564 69.5683 45.1305 71.5605 45.0964 72.816L49.1513 71.6786L48.6011 69.878L48.8564 67.3442L47.8509 63.9921C47.8509 63.9921 44.6198 37.9423 45.0418 35.0472L32.0354 34.0996Z" fill="#0462A0"/>
<path d="M31.1413 19.4888C31.1391 19.6155 31.1396 19.7422 31.1399 19.8715C31.1411 20.1106 31.142 20.3542 31.143 20.6031C31.1451 20.8177 31.1471 21.0371 31.1487 21.2589C31.1504 21.4199 31.1516 21.5833 31.1533 21.7466C31.1571 22.1148 31.1607 22.4928 31.1667 22.8734C31.1686 22.9539 31.1684 23.0344 31.17 23.1173C31.269 29.8296 31.5715 37.7973 31.5715 37.7973C31.5715 37.7973 39.0029 39.0625 45.4663 37.8138C45.4663 37.8138 44.7904 29.4451 45.1458 24.0752C45.1612 23.8514 45.1765 23.6277 45.1892 23.4064C45.1971 23.3237 45.2024 23.2435 45.2076 23.1609C45.2366 22.7596 45.263 22.3632 45.2939 21.9768C45.3046 21.8115 45.3178 21.6487 45.3284 21.4882C45.3492 21.2474 45.3674 21.0117 45.3854 20.7784C45.4041 20.5279 45.4251 20.2826 45.4433 20.0442C45.4515 19.9544 45.4596 19.8643 45.4651 19.7769C45.7365 16.4835 45.988 14.1521 45.988 14.1521C45.988 14.1521 43.2384 12.5764 39.1155 12.5266C34.995 12.4792 32.2013 13.3616 31.4465 14.0223C31.2199 14.2211 31.1399 16.4586 31.1413 19.4888Z" fill="#DDDEE0"/>
<path d="M31.1426 19.4885C37.7347 20.0948 42.5654 19.9798 45.4664 19.7764C45.7378 16.483 45.9893 14.1516 45.9893 14.1516C45.9893 14.1516 43.2397 12.5759 39.1168 12.5261C34.9963 12.4787 32.2025 13.3612 31.4478 14.0218C31.2212 14.2208 31.1412 16.4584 31.1426 19.4885Z" fill="#DDDEE0"/>
<path d="M36.2758 12.4209C36.2758 12.4209 35.6863 15.9625 35.3308 19.0812C35.1045 21.0679 35.7309 36.6788 35.7309 36.6788C35.7309 36.6788 31.9273 36.32 30.8489 35.7939C30.8489 35.7939 30.4642 20.4221 31.0992 14.0253C31.0992 14.0253 33.0904 12.8741 36.2758 12.4209Z" fill="#0C2649"/>
<path d="M41.6192 14.8427C41.7208 16.9444 41.4844 36.549 41.4844 36.549C41.4844 36.549 44.361 36.8458 46.2282 35.7545C46.2282 35.7545 46.7307 20.611 46.3266 13.7099C46.3266 13.7099 44.6269 12.7235 41.6988 12.6147L41.6192 14.8427Z" fill="#0C2649"/>
<path d="M41.6193 14.8427C41.6193 14.8427 41.5632 12.61 38.7673 12.5101C35.9717 12.4102 35.9875 14.6412 35.9875 14.6412L35.4519 13.3211L34.6387 13.7657C35.0694 11.831 36.0977 11.5582 36.0977 11.5582C38.346 11.0242 41.928 11.7666 41.928 11.7666C42.8251 12.8598 42.9769 14.1859 42.9769 14.1859L42.1374 13.8647L41.6193 14.8427Z" fill="#051C36"/>
<path d="M40.2217 10.543C40.2217 10.543 39.7735 12.1388 40.3465 12.802C40.3465 12.802 39.3174 14.3372 37.1738 12.6734C37.1738 12.6734 37.6306 11.6302 37.2361 10.9281L40.2217 10.543Z" fill="#C66058"/>
<path d="M36.017 7.50167C36.017 7.50167 35.2195 6.64676 35.0832 7.60802C34.9254 8.72139 35.9243 9.20813 36.1355 8.8596C36.3466 8.51108 36.017 7.50167 36.017 7.50167Z" fill="#DC7368"/>
<path d="M41.8062 7.76678C41.8062 7.76678 42.6628 6.97104 42.7301 7.93949C42.8079 9.06148 41.7767 9.4754 41.5911 9.11274C41.4054 8.75032 41.8062 7.76678 41.8062 7.76678Z" fill="#DC7368"/>
<path d="M38.6811 11.6507C36.8463 11.585 35.8534 10.3495 35.9818 6.75454C36.0481 4.90029 37.0324 3.7965 39.0876 3.87004C41.1431 3.94357 41.9678 5.1118 41.9017 6.96605C41.7635 10.8291 40.5768 11.7185 38.6811 11.6507Z" fill="#DC7368"/>
<path d="M41.2474 8.22656C41.2731 8.4122 41.1056 8.58874 40.8735 8.62059C40.6414 8.65269 40.4325 8.52813 40.4069 8.34249C40.3813 8.15685 40.5487 7.98055 40.7808 7.94845C41.0132 7.9166 41.222 8.04116 41.2474 8.22656Z" fill="#C66058"/>
<path d="M37.4698 8.19198C37.4508 8.37834 37.2465 8.51033 37.0134 8.48661C36.7804 8.46314 36.6067 8.29283 36.6254 8.10647C36.6443 7.92011 36.8484 7.78812 37.0817 7.81184C37.315 7.83555 37.4887 8.00562 37.4698 8.19198Z" fill="#C66058"/>
<path d="M40.663 6.06507C40.644 6.08016 40.6194 6.08782 40.5935 6.08423C40.2282 6.03441 39.8871 6.32113 39.8816 6.32544C39.8433 6.35658 39.7853 6.35371 39.7525 6.3149C39.7194 6.27634 39.7242 6.21861 39.7628 6.18555C39.7774 6.17238 40.1724 5.84158 40.6182 5.90266C40.6685 5.90961 40.7037 5.95584 40.6967 6.0059C40.6934 6.03009 40.6807 6.05093 40.663 6.06507Z" fill="#E39366"/>
<path d="M37.2224 5.96008C37.2049 5.94547 37.1927 5.92463 37.1901 5.90044C37.1843 5.84989 37.2202 5.80438 37.2703 5.79839C37.717 5.74641 38.1049 6.08488 38.1197 6.09853C38.1575 6.13231 38.1611 6.19003 38.1276 6.22788C38.0941 6.26597 38.0349 6.26741 37.998 6.23579C37.9959 6.23315 37.6543 5.93804 37.2916 5.98068C37.2655 5.98355 37.2411 5.97565 37.2224 5.96008Z" fill="#E39366"/>
<path d="M40.4932 7.33977C40.485 7.56757 40.3758 7.74866 40.2491 7.74411C40.1224 7.73956 40.0263 7.55128 40.0347 7.32324C40.0428 7.09544 40.1521 6.91436 40.2788 6.91891C40.4053 6.92346 40.5013 7.11197 40.4932 7.33977Z" fill="#304951"/>
<path d="M38.0439 7.25213C38.0358 7.47993 37.9265 7.66126 37.7998 7.65647C37.6731 7.65191 37.5773 7.4634 37.5854 7.2356C37.5936 7.0078 37.7028 6.82671 37.8295 6.83126C37.956 6.83581 38.0521 7.02433 38.0439 7.25213Z" fill="#304951"/>
<path d="M36.8714 4.67172C36.8714 4.67172 38.1508 4.62908 40.9615 4.52776C40.9615 4.52776 41.9487 5.63226 41.7822 8.25855C41.7822 8.25855 43.5933 3.58159 38.8009 3.41008C34.0085 3.23881 36.0019 7.94667 36.0019 7.94667C36.0019 7.94667 35.9483 5.52735 36.8714 4.67172Z" fill="#E39366"/>
<path d="M39.0619 8.56141L38.9297 8.41816L39.3055 8.07059C38.9714 7.56038 39.0145 6.40893 39.0166 6.35767L39.2116 6.36581C39.2111 6.37827 39.1649 7.61715 39.5103 8.01933L39.5716 8.09072L39.0619 8.56141Z" fill="#C66058"/>
<path d="M37.5666 9.03373C37.5666 9.03373 39.3698 9.17458 40.2903 8.96594C40.2903 8.96594 40.4046 10.2851 39.0026 10.3002C37.5206 10.3162 37.5666 9.03373 37.5666 9.03373Z" fill="#304951"/>
<path d="M45.9322 13.5166C45.9322 13.5166 47.0296 13.3561 49.5095 16.0875L52.9809 19.2281C52.9809 19.2281 48.8158 18.944 47.6454 22.098L45.3849 18.7644C44.6948 16.8236 44.6977 13.3317 45.9322 13.5166Z" fill="#051C34"/>
<path d="M52.9804 19.2281C52.9804 19.2281 52.636 21.4963 51.444 22.1569C50.053 22.928 47.6965 22.5251 47.4294 21.9133C47.1621 21.3016 49.0317 16.9623 52.9804 19.2281Z" fill="#051C36"/>
<path d="M50.7271 18.5796C50.7271 18.5796 54.0089 23.8501 53.8638 23.8872C53.7189 23.9243 50.6339 25.381 50.6339 25.381L47.7168 20.7239C47.7168 20.7239 48.9142 18.2397 50.7271 18.5796Z" fill="#DC7368"/>
<path d="M43.3644 19.8297C43.2192 19.7164 41.9954 17.2425 41.8232 17.2638C41.651 17.2851 40.4554 17.1699 40.2832 17.1912C40.1108 17.2126 39.436 17.6399 39.3351 17.7223C39.057 17.9496 39.5162 18.0919 39.7186 18.0351C39.7186 18.0351 40.5534 17.787 40.4243 17.803C40.3266 17.815 40.8792 17.9925 41.1547 18.0782C41.2474 18.107 41.3173 18.1827 41.3393 18.2771L41.6328 19.5365C41.6498 19.6096 41.6366 19.6858 41.5952 19.7485C41.4464 19.973 41.0802 20.506 40.9441 20.5227C40.7716 20.544 40.2114 20.5256 40.0715 20.4554C40.0142 20.4267 39.831 20.4837 39.6341 20.561C39.4305 20.6411 39.4511 20.8859 39.6628 20.941L41.1182 21.3096L42.5056 21.3798C42.9066 21.6337 43.3644 19.8297 43.3644 19.8297Z" fill="#DC7368"/>
<path d="M51.1771 22.0385L43.3646 19.8295L42.5059 21.379L50.2841 26.3142C51.2379 26.9195 52.4419 26.9715 53.4446 26.451C54.2259 26.0455 54.4511 24.4025 53.6644 23.4493C53.057 22.7137 52.8134 22.5013 51.1771 22.0385Z" fill="#DC7368"/>
<path d="M41.963 16.8261C41.7223 16.4328 41.3649 16.0754 40.927 15.9588C40.8044 15.9262 40.6793 16.0278 40.7006 16.1531C40.7327 16.3423 40.9953 16.4153 41.4236 16.9766C41.5893 17.1938 41.7203 17.4427 41.7821 17.7088C41.8176 17.8617 41.8231 18.0205 41.8629 18.1723C41.9563 18.5285 42.7341 18.9868 42.5932 18.5273C42.3616 17.7723 42.2112 17.2317 41.963 16.8261Z" fill="#DC7368"/>
<path d="M40.8887 16.6046C40.5296 16.2889 40.1885 16.0242 39.6469 15.954C39.5166 15.937 39.4237 16.0982 39.4833 16.2156C39.5734 16.3931 39.8551 16.3852 40.4508 16.8099C40.6812 16.9742 40.8875 17.1807 41.0307 17.425C41.1129 17.5654 41.1672 17.7211 41.2535 17.859C41.4554 18.1829 42.3647 18.3987 42.084 17.9872C41.6226 17.3105 41.259 16.9301 40.8887 16.6046Z" fill="#DC7368"/>
<path d="M40.7489 2.76881C40.0343 2.04709 39.1655 1.50022 38.3054 0.960309C38.5116 1.39603 38.7178 1.83198 38.9241 2.2677C37.9602 1.75749 36.9965 1.24727 36.0326 0.737061C36.4295 1.30069 36.8265 1.86432 37.2231 2.42795C36.2108 2.09476 35.1986 1.76156 34.1863 1.4286C34.5338 2.03703 35.1569 2.89337 35.8166 3.12955C34.6977 3.2637 34.0313 3.23974 33.0176 2.83301C33.6727 3.67306 34.661 4.59744 35.6946 4.85566C36.7282 5.11388 37.8038 5.14047 38.8687 5.16562C39.4463 5.17927 41.4716 5.56421 41.8694 5.01758C42.3051 4.41874 41.1288 3.17052 40.7489 2.76881Z" fill="#FFB777"/>
<path d="M26.4668 46.1189C26.4668 46.1189 27.1353 46.5992 27.2604 46.5774C27.3852 46.5556 27.498 46.5209 27.429 46.2955C27.429 46.2955 27.1907 45.8667 26.6994 45.6061L26.4668 46.1189Z" fill="#DC7368"/>
<path d="M26.416 45.8409C26.416 45.8409 27.0846 46.3211 27.2096 46.2993C27.3346 46.2775 27.4472 46.2428 27.3782 46.0174C27.3782 46.0174 27.1399 45.5886 26.6486 45.328L26.416 45.8409Z" fill="#DC7368"/>
<path d="M26.2451 45.3716C26.2451 45.3716 26.9137 45.8519 27.0387 45.8301C27.1635 45.8083 27.2763 45.7736 27.2073 45.5482C27.2073 45.5482 26.969 45.1194 26.4777 44.8588L26.2451 45.3716Z" fill="#DC7368"/>
<path d="M26.2861 46.2909C26.2861 46.2909 26.7997 46.9343 26.9259 46.9472C27.0522 46.9599 27.17 46.9573 27.1645 46.7214C27.1645 46.7214 27.0512 46.2442 26.6488 45.8602L26.2861 46.2909Z" fill="#DC7368"/>
<path d="M26.7687 45.9958C26.6626 45.4499 27.0044 44.3241 27.0044 44.3241L27.2379 43.8934C27.2379 43.8934 27.31 44.293 27.4291 44.4681C27.5481 44.6432 27.9805 44.591 28.0179 43.4886L27.8413 42.5312L28.2195 41.3989C28.2195 41.3989 28.2821 40.6477 27.7529 39.674L26.2319 39.5741C26.1945 39.5743 26.0762 43.4203 26.0762 43.4203L26.1099 45.2008L26.224 46.1379L26.7687 45.9958Z" fill="#DC7368"/>
<path d="M26.2129 46.0492L26.2859 46.2909L26.6944 46.3592L26.4771 46.0638L26.2129 46.0492Z" fill="#DC7368"/>
<path d="M35.9962 20.7632L40.8796 20.5385C40.9996 20.533 41.0926 20.4312 41.0871 20.3109L40.9896 18.1946C40.9841 18.0746 40.8823 17.9817 40.762 17.9872L35.8786 18.2119C35.7586 18.2174 35.6656 18.3192 35.6711 18.4394L35.7686 20.5557C35.7744 20.6757 35.8762 20.7687 35.9962 20.7632Z" fill="#051C34"/>
<path d="M36.0193 19.5623L36.8251 19.5252C36.96 19.519 37.0642 19.4047 37.0579 19.2699L37.0208 18.4641C37.0146 18.3292 36.9003 18.225 36.7655 18.2312L35.9597 18.2684C35.8248 18.2746 35.7206 18.3888 35.7268 18.5237L35.764 19.3295C35.7704 19.4644 35.8847 19.5686 36.0193 19.5623Z" fill="#C1D3D9"/>
<path d="M36.4418 18.6072C36.4095 18.7078 36.4648 18.8154 36.5654 18.8477C36.6661 18.88 36.7736 18.8247 36.8059 18.7241C36.8383 18.6235 36.7827 18.5159 36.6823 18.4836C36.582 18.4513 36.4742 18.5066 36.4418 18.6072Z" fill="#0C2649"/>
<path d="M35.8959 18.7572C35.8636 18.8578 35.9192 18.9654 36.0195 18.9977C36.1201 19.0301 36.2277 18.9747 36.26 18.8741C36.2924 18.7735 36.237 18.666 36.1364 18.6336C36.0358 18.6013 35.928 18.6566 35.8959 18.7572Z" fill="#0C2649"/>
<path d="M36.2895 19.0841C36.2572 19.1847 36.3125 19.2923 36.4131 19.3246C36.5137 19.357 36.6213 19.3014 36.6536 19.201C36.6859 19.1004 36.6304 18.9929 36.53 18.9605C36.4296 18.9282 36.3216 18.9835 36.2895 19.0841Z" fill="#0C2649"/>
<path d="M65.0967 6.99631C65.3415 6.01948 66.4678 4.93869 67.1217 4.17313C67.7759 3.40757 68.7264 2.85615 69.7331 2.84442C70.7004 2.83316 73.3561 4.50417 73.7552 5.38542C74.4884 7.00493 74.7948 7.8275 74.7179 9.60343C74.6408 11.3794 74.1219 14.1134 72.7357 15.2261C66.9571 19.8647 64.1201 10.8933 65.0967 6.99631Z" fill="#0D497C"/>
<path d="M72.3566 15.0019C70.5237 16.8978 69.5765 17.6282 68.3132 15.1713C68.204 14.959 68.3187 13.8871 68.1987 13.6377C68.0473 13.3168 67.534 12.4947 67.384 12.1164C66.8465 10.7362 66.3885 8.39716 66.6633 7.34655C66.945 6.27103 68.5233 5.04484 69.0263 4.77991C69.046 4.76961 69.0658 4.75907 69.0831 4.75141C69.1178 4.73823 69.1499 4.72506 69.1846 4.71428C69.2639 4.69009 69.3459 4.67859 69.4357 4.67667C69.6326 4.675 69.8158 4.73105 69.995 4.8295C70.5045 5.10808 70.9313 5.15527 71.5941 5.61518C72.5228 6.26145 72.7181 7.49219 72.7341 8.25224C72.7784 10.3657 72.7444 11.0143 72.1427 12.6501C71.6617 13.9592 72.3566 15.0019 72.3566 15.0019Z" fill="#0C2649"/>
<path d="M61.6658 18.5593C61.2229 19.8583 60.9698 22.1856 61.9123 23.5059C62.6585 24.5513 63.2255 25.6917 63.5436 26.9361C63.8006 27.9424 63.4875 29.0263 62.9308 29.903C62.6671 30.3181 62.2767 30.7162 61.8565 31.094C61.1401 31.7386 61.0807 32.8407 61.7188 33.5627C61.8278 33.686 61.9365 33.8096 62.0458 33.932C62.6264 34.5831 63.5984 34.7064 64.3254 34.2243C65.5947 33.3823 66.9551 32.365 67.889 31.3963C69.1372 30.1018 70.064 28.4006 70.0547 26.6024C70.0484 25.438 69.6551 24.3093 69.1693 23.2513C68.2313 21.2083 66.8866 19.0771 65.1791 17.5843C63.4724 16.0918 62.2896 16.7304 61.6658 18.5593Z" fill="#0D497C"/>
<path d="M79.1425 74.3541C79.1217 74.6061 79.0541 74.7917 79.0541 74.7917L74.1005 74.744C74.0389 74.5991 73.9956 74.4542 73.9656 74.3042C73.5002 71.929 76.82 69.0601 76.82 69.0601L77.8514 70.464C77.8514 70.464 77.7091 72.6941 78.5894 73.1674C79.1171 73.4508 79.1803 73.9763 79.1425 74.3541Z" fill="#C6DCE3"/>
<path d="M73.9658 74.3041L79.1427 74.3539C79.1219 74.6059 79.0543 74.7915 79.0543 74.7915L74.1007 74.7439C74.0391 74.5989 73.996 74.4543 73.9658 74.3041Z" fill="#A6C1C9"/>
<path d="M78.3652 72.9873C78.3652 72.9873 76.2826 72.4915 75.3252 73.0982L75.3286 72.7537C75.3286 72.7537 77.0923 71.9178 78.3652 72.9873Z" fill="#A6C1C9"/>
<path d="M77.9561 72.454C77.9561 72.454 76.6293 71.832 75.3311 72.4286L75.482 72.0825C75.482 72.0825 77.0315 71.5136 77.9561 72.454Z" fill="#A6C1C9"/>
<path d="M65.5887 40.8904C65.6497 38.8014 65.6268 36.0223 65.5146 35.4455L78.3682 35.1631C79.7374 47.8298 78.0831 72.3742 78.0831 72.3742C78.0831 72.3742 75.6387 70.2181 74.3174 71.8752L73.4728 69.7948L74.0146 68.0884C74.0146 68.0884 73.175 66.7841 73.6807 65.6741C74.1864 64.5643 72.3503 41.8855 72.3503 41.8855L71.2784 41.9058L65.5887 40.8904Z" fill="#FFB777"/>
<path d="M63.6572 16.4641C63.6572 16.4641 66.2509 14.8105 70.2438 14.5739C74.2366 14.3375 76.9863 15.0661 77.7485 15.6707C78.4247 16.207 78.624 31.3575 78.6601 34.768C78.6642 35.1585 78.3806 35.4914 77.9942 35.5477C75.8166 35.8646 68.9081 36.7562 65.5927 35.8553C64.985 35.6903 64.5979 35.095 64.7026 34.4739C64.9613 32.938 65.3498 29.7414 64.9296 26.0467C64.3392 20.8562 63.6572 16.4641 63.6572 16.4641Z" fill="#162141"/>
<path d="M68.61 12.7404C68.61 12.7404 69.1178 14.2669 68.5928 14.9362C68.5928 14.9362 69.6609 16.3772 71.6627 14.6658C71.6627 14.6658 71.1719 13.6753 71.5221 12.9768L68.61 12.7404Z" fill="#C66058"/>
<path d="M70.1558 13.7437C71.9317 13.5959 72.8376 12.3522 72.5478 8.87294C72.3983 7.07833 71.3935 6.05335 69.4044 6.21911C67.415 6.38487 66.6688 7.55525 66.8183 9.3501C67.1297 13.0885 68.3209 13.8963 70.1558 13.7437Z" fill="#DC7368"/>
<path d="M69.9943 11.3157C69.9375 11.3315 69.8803 11.3469 69.8226 11.3622C69.1322 11.5435 69.3385 12.5999 70.0408 12.4729C70.0906 12.4638 70.1421 12.4523 70.1958 12.438C70.2511 12.4231 70.3038 12.4068 70.3534 12.3893C71.0286 12.1517 70.6839 11.1243 69.9943 11.3157Z" fill="#304951"/>
<path d="M67.5099 10.5417C67.4936 10.7228 67.6641 10.8862 67.8905 10.9066C68.1169 10.9269 68.3138 10.7966 68.33 10.6155C68.3463 10.4344 68.1758 10.2711 67.9494 10.2507C67.7228 10.2306 67.5262 10.3609 67.5099 10.5417Z" fill="#C66058"/>
<path d="M71.1708 10.335C71.1977 10.5149 71.4018 10.6335 71.6267 10.5997C71.8516 10.5662 72.0121 10.3932 71.9853 10.2134C71.9584 10.0335 71.7544 9.91489 71.5294 9.94842C71.3047 9.9822 71.1443 10.1551 71.1708 10.335Z" fill="#C66058"/>
<path d="M67.8854 8.43951C67.905 8.45268 67.9295 8.45795 67.9541 8.45221C68.3034 8.3746 68.6567 8.62419 68.6622 8.62803C68.702 8.65509 68.7578 8.64743 68.7863 8.60742C68.8153 8.56742 68.8057 8.51209 68.7657 8.48311C68.7506 8.47161 68.3415 8.18368 67.9156 8.27854C67.8677 8.28932 67.8373 8.33675 67.8478 8.3849C67.8528 8.40813 67.867 8.42729 67.8854 8.43951Z" fill="#DDDEE0"/>
<path d="M71.1063 8.47239C71.1247 8.46018 71.1386 8.44125 71.1439 8.41802C71.1549 8.36987 71.1247 8.3222 71.0771 8.31118C70.6514 8.21417 70.2418 8.50018 70.226 8.51192C70.186 8.54042 70.1764 8.59575 70.2049 8.636C70.2334 8.67624 70.2902 8.6839 70.329 8.65731C70.3314 8.65492 70.6919 8.40604 71.0373 8.48533C71.0622 8.4906 71.0866 8.48533 71.1063 8.47239Z" fill="#DDDEE0"/>
<path d="M68.1998 9.64732C68.2182 9.86794 68.3325 10.0385 68.4549 10.0282C68.5773 10.0179 68.6619 9.83081 68.6434 9.61043C68.625 9.38982 68.5107 9.21927 68.3883 9.22957C68.2659 9.23987 68.1813 9.42695 68.1998 9.64732Z" fill="#304951"/>
<path d="M70.5718 9.44993C70.5903 9.67055 70.7043 9.8411 70.8269 9.8308C70.9496 9.8205 71.0339 9.63342 71.0154 9.41305C70.997 9.19243 70.8827 9.02188 70.7603 9.03218C70.6379 9.04224 70.5536 9.22932 70.5718 9.44993Z" fill="#304951"/>
<path d="M71.5889 6.89453C71.5889 6.89453 69.3356 7.93196 67.8658 7.05765C67.8658 7.05765 66.7108 8.05892 66.9927 10.5975C66.9927 10.5975 65.1574 5.72583 69.4983 5.22544C73.7874 4.73103 72.5823 10.0298 72.5823 10.0298C72.5823 10.0298 72.5231 7.68165 71.5889 6.89453Z" fill="#DDDEE0"/>
<path d="M69.5362 10.924L69.6579 10.7788L69.2775 10.459C69.5779 9.94907 69.4833 8.83474 69.479 8.78516L69.2905 8.80192C69.2914 8.8139 69.393 10.0128 69.0768 10.4188L69.0205 10.4907L69.5362 10.924Z" fill="#C66058"/>
<path d="M72.4459 14.5387C72.4459 14.5387 72.4035 15.1759 72.3649 16.2274C72.2346 19.7994 72.1524 28.154 73.9473 32.572C73.9473 32.572 80.0653 31.8584 80.6376 31.6067C81.2098 31.3549 80.7418 18.6094 78.9833 16.0128C78.9833 16.0128 76.2993 14.1411 72.4459 14.5387Z" fill="#0462A0"/>
<path d="M88.2856 30.3537L87.1224 31.8705L84.3598 30.559L84.2001 29.8862C84.1328 29.6023 84.1488 29.3051 84.2463 29.0303L85.954 24.2168C86.1257 23.5428 85.6306 22.8826 84.9355 22.8586L79.1741 22.6591C78.2838 22.6282 76.5675 21.3225 76.5881 18.3606C76.5986 16.8547 77.157 15.3207 77.224 15.1417C77.224 15.1417 84.2791 17.6346 86.9282 18.954C87.9072 19.3154 88.6828 19.9684 89.2316 20.5622C89.8632 21.2456 90.0946 22.2069 89.8587 23.107L88.5702 29.7223C88.5254 29.9516 88.4279 30.1679 88.2856 30.3537Z" fill="#0D497C"/>
<path d="M84.1761 31.0453C84.2348 30.857 84.294 30.6963 84.3611 30.5592C84.42 30.4287 84.4875 30.3192 84.5582 30.2289C84.9781 29.7007 85.559 29.8545 86.3842 30.0634C87.082 30.2416 87.3917 30.554 87.3701 31.0424C87.3673 31.1873 87.3337 31.344 87.271 31.5157C87.2355 31.6293 87.1838 31.7466 87.1237 31.8707C87.0769 31.9716 87.024 32.0736 86.9656 32.1828C86.8582 32.3711 86.7346 32.5726 86.5912 32.7891C86.3042 33.2222 84.8749 32.8765 84.8749 32.8765C84.4392 32.7831 83.8743 32.5098 83.961 32.0082C84.0032 31.7663 84.0458 31.5516 84.0933 31.3598C84.1196 31.2462 84.146 31.1423 84.1761 31.0453Z" fill="#0C2649"/>
<path d="M80.7437 32.4305C80.7504 32.5105 80.7571 32.5907 80.7585 32.6664C80.7664 32.8746 80.7542 33.0418 80.6993 33.0676C80.5281 33.1483 74.3626 34.0746 74.3626 34.0746L74.2508 33.671L74.1892 33.4437L74.0905 33.0842L74.0266 32.8571L73.9482 32.5718C76.1446 31.9926 80.6373 31.6067 80.6373 31.6067C80.6373 31.6067 80.6517 31.6932 80.6718 31.822C80.6799 31.8903 80.6912 31.9698 80.7032 32.0568C80.7175 32.1739 80.7331 32.3033 80.7437 32.4305Z" fill="#0D497C"/>
<path d="M68.0368 14.9056C68.0368 14.9056 69.9772 27.0233 68.6734 33.0604C68.6734 33.0604 63.6128 33.2772 63.1203 33.1133C62.8496 33.0233 62.297 29.951 63.5641 25.3176C63.5641 25.3176 62.2958 18.1712 62.8206 16.8892C62.8206 16.8892 64.8545 15.0937 68.0368 14.9056Z" fill="#0462A0"/>
<path d="M60.6113 32.3192C60.7816 32.2198 60.9338 32.1412 61.0758 32.0852C61.2073 32.0287 61.3311 31.9932 61.4442 31.9743C62.1106 31.8677 62.4356 32.3731 62.9039 33.0836C63.2989 33.6858 63.3169 34.1253 62.9715 34.4712C62.8716 34.5764 62.7413 34.6693 62.5791 34.7539C62.4764 34.8138 62.3588 34.8655 62.2308 34.9168C62.1283 34.9599 62.0205 34.9992 61.9034 35.0406C61.6972 35.1072 61.4701 35.1726 61.2181 35.2356C60.7141 35.3618 59.892 34.1423 59.892 34.1423C59.6333 33.7794 59.4007 33.1966 59.8031 32.8848C59.9974 32.7343 60.1737 32.6047 60.3383 32.4953C60.4338 32.4294 60.5237 32.3702 60.6113 32.3192Z" fill="#0C2649"/>
<path d="M58.6059 37.4981L58.5616 37.4495C58.5616 37.4495 58.4334 37.3505 58.3803 37.197C58.3271 37.0432 58.4224 36.8909 58.4224 36.8909C58.4224 36.8909 57.8554 37.1342 57.4647 37.3043L57.3512 37.2631C57.2276 37.2114 57.1418 37.0964 57.128 36.963L56.9509 35.2565C56.9361 35.1125 56.9665 34.9676 57.0379 34.8421C57.1189 34.6996 57.248 34.5903 57.4017 34.5338L59.9804 33.5876L60.8144 33.0604C61.2463 33.3694 61.5438 33.8317 61.6459 34.3527L61.6672 34.4617L61.0389 34.9571L60.8089 35.3482C60.6659 35.5914 60.497 35.8187 60.3042 36.0247C60.2817 36.0489 60.2647 36.0661 60.2568 36.0731L59.5959 36.6453C59.4922 36.7352 59.4201 36.8556 59.3899 36.9895L59.3082 37.3515C59.2613 37.4899 59.1453 37.5939 59.0023 37.6248C58.8572 37.6567 58.706 37.6083 58.6059 37.4981Z" fill="#DC7368"/>
<path d="M57.5181 35.9295L57.8118 36.1003C57.8664 36.1322 57.8839 36.2026 57.8506 36.2563L57.5102 36.8036L57.4707 36.8673L58.0382 36.223C58.0693 36.1878 58.1266 36.1978 58.1438 36.2417L58.2351 36.4747L58.3714 36.6058L58.2803 36.4285L58.1392 36.0644L58.2892 35.5736L58.5393 35.4452L58.6566 35.5171L58.6006 35.4081L58.5043 35.3884L58.2269 35.531L57.9263 35.4155L58.053 35.5123C58.1416 35.5798 58.1778 35.6958 58.1438 35.8019L58.0525 36.0862L57.9934 36.1166L57.5181 35.9295Z" fill="#C66058"/>
<path d="M58.3804 37.1971C58.4335 37.3509 58.5617 37.4496 58.5617 37.4496L58.4369 37.5215C58.3454 37.5742 58.2352 37.5837 58.1358 37.5476L57.4648 37.3044C57.8555 37.1344 58.4225 36.891 58.4225 36.891C58.4225 36.891 58.3272 37.0433 58.3804 37.1971Z" fill="#C66058"/>
<path d="M63.1188 33.9483C63.1217 34.0291 63.1245 34.1096 63.131 34.1852C63.1461 34.3934 63.1734 34.5577 63.2206 34.5752C63.3686 34.6296 68.4899 34.6171 68.4899 34.6171L68.5395 34.1991L68.5663 33.9637L68.6097 33.5912L68.6384 33.3557L68.6729 33.0601C66.8228 32.8168 63.1207 33.1133 63.1207 33.1133C63.1207 33.1133 63.1178 33.2015 63.1147 33.3327C63.1152 33.4017 63.1142 33.4827 63.1133 33.5708C63.1138 33.6894 63.1145 33.8202 63.1188 33.9483Z" fill="#0D497C"/>
<path d="M84.0261 33.136L82.5771 34.7421L82.787 35.5148L85.4597 36.2538L85.6253 35.6873C85.6981 35.4384 85.7472 35.1831 85.7721 34.9248L85.9216 33.5981L84.0261 33.136Z" fill="#DC7368"/>
<path d="M82.5769 34.7421L82.1515 35.3986C82.0339 35.5802 82.0262 35.8121 82.1316 36.0011L82.3446 36.3829L83.1633 36.6193L82.5769 34.7421Z" fill="#DC7368"/>
<path d="M82.7866 35.5148L82.5295 36.4442C82.4812 36.619 82.5839 36.7999 82.7585 36.8483C82.9334 36.8967 83.1143 36.7941 83.1626 36.6193L83.4664 35.7028L82.7866 35.5148Z" fill="#DC7368"/>
<path d="M83.4662 35.7029L83.2542 36.4694C83.2058 36.6443 83.3083 36.8251 83.4832 36.8735C83.658 36.9219 83.8389 36.8194 83.8873 36.6445L84.1457 35.8909L83.4662 35.7029Z" fill="#DC7368"/>
<path d="M84.1467 35.891L83.9798 36.4944C83.9314 36.6692 84.0339 36.8501 84.2088 36.8985C84.3836 36.9469 84.5645 36.8443 84.6129 36.6695L84.8263 36.079L84.1467 35.891Z" fill="#DC7368"/>
<path d="M84.826 36.0787L84.7044 36.5192C84.656 36.6941 84.7585 36.875 84.9334 36.9233C85.1082 36.9717 85.2891 36.8692 85.3375 36.6943L85.4591 36.2541L84.826 36.0787Z" fill="#DC7368"/>
<path d="M84.0098 33.1926L84.3312 32.0301L84.6156 32.0153C85.1169 31.9889 85.6135 32.1259 86.0303 32.406L86.2684 32.5657L85.9213 33.5984C85.9213 33.5984 84.9164 33.8559 84.0098 33.1926Z" fill="#DC7368"/>
<path d="M82.6861 35.0972L82.5752 36.1878L82.7853 35.5149L82.6861 35.0972Z" fill="#C66058"/>
<path d="M65.8938 13.3767C66.2737 13.9535 66.2066 14.7277 65.7103 15.2075C65.6183 15.2966 65.5182 15.3782 65.4111 15.4513C66.1729 16.0537 67.0879 16.4315 68.0527 16.5419L68.2769 16.5675C68.2769 16.5675 68.8157 13.7441 67.704 12.9077C67.3454 12.6379 66.5355 13.3362 66.5355 13.3362L65.8938 13.3767Z" fill="#0D497C"/>
<path d="M72.3658 16.2273L72.0323 14.3336C72.0244 13.2947 72.4333 13.0322 73.3886 12.6238L74.2294 12.6226L74.1867 13.128C74.1398 13.6835 74.3791 14.2246 74.8213 14.5638C74.3051 15.2807 73.5774 15.818 72.7402 16.1006L72.3658 16.2273Z" fill="#0D497C"/>
<path d="M52.0465 71.5528C51.9541 71.8175 51.9141 72.0123 51.9141 72.0123L59.0063 74.2416C59.0535 74.0886 59.0983 73.935 59.1373 73.7827C59.6758 71.7605 59.63 69.8792 59.63 69.8792L58.1523 68.5414C57.696 69.4449 57.112 69.935 56.4957 70.1829C56.3318 70.251 56.169 70.2989 56.0053 70.3319C55.9289 70.3487 55.8532 70.3628 55.7761 70.3738C55.6065 70.3995 55.4362 70.4103 55.2695 70.4105C54.583 70.4174 53.9417 70.2625 53.4782 70.1959C52.6856 70.085 52.2465 70.9801 52.0465 71.5528Z" fill="#C6DCE3"/>
<path d="M52.0465 71.5529C51.9541 71.8175 51.9141 72.0123 51.9141 72.0123L59.0063 74.2417C59.0535 74.0886 59.0983 73.9351 59.1373 73.7827L52.0465 71.5529Z" fill="#A6C1C9"/>
<path d="M56.0059 70.332L56.8672 70.9723L57.1964 70.6544L56.4962 70.183C56.3323 70.251 56.1695 70.2989 56.0059 70.332Z" fill="#A6C1C9"/>
<path d="M55.2695 70.4104L55.7699 71.0852L56.2301 71.0416L55.7761 70.3735C55.6066 70.3994 55.4365 70.4102 55.2695 70.4104Z" fill="#A6C1C9"/>
<path d="M66.0358 52.9854L60.8283 66.8385L60.759 68.4918C60.744 68.8496 60.6587 69.2006 60.503 69.5232C60.2721 70.0018 59.9453 70.8124 59.901 71.6395L59.8148 71.5377C58.9105 70.4687 57.5234 69.9347 56.1357 70.1216L56.8328 68.3418L56.8333 67.3291C56.8338 66.7027 56.9866 66.0856 57.2791 65.5316L57.9615 64.2383C57.9615 64.2383 58.9774 57.0814 60.2999 54.7836L66.0358 52.9854Z" fill="#FFB777"/>
<path d="M60.2988 54.7834C62.9812 39.431 64.1695 40.9343 65.531 36.6787L71.7705 40.8656L64.3118 56.6261L60.2988 54.7834Z" fill="#FFB777"/>
<path d="M78.7112 29.7177C79.0264 29.5771 79.3886 29.3723 79.4102 29.0279C79.4241 28.8058 79.2851 28.607 79.1558 28.4259C78.2084 27.0979 77.45 25.6351 76.9108 24.0953C76.3072 24.206 75.9053 24.3377 76.0411 24.9641C76.1702 25.5587 76.4742 26.1654 76.7367 26.7108C76.8833 27.0158 78.4087 29.8528 78.7112 29.7177Z" fill="#0D497C"/>
<path d="M64.4089 30.511C64.0937 30.3704 63.7315 30.1656 63.7099 29.8211C63.6961 29.599 63.835 29.4002 63.9641 29.2191C64.9115 27.8911 65.6698 26.4283 66.209 24.8888C66.8127 24.9995 67.2146 25.1312 67.0788 25.7576C66.9497 26.3521 66.6455 26.9589 66.3832 27.5043C66.2368 27.809 64.7117 30.6461 64.4089 30.511Z" fill="#0D497C"/>
<path d="M38.4915 80.2166C38.0677 80.3488 37.6294 80.5081 37.3333 80.8387C37.0372 81.1695 36.9434 81.7226 37.2447 82.0486C37.5089 82.3346 37.9619 82.3502 38.2711 82.5868C38.7406 82.9459 38.7008 83.7162 38.3279 84.1747C37.9547 84.6332 37.3585 84.8421 36.7821 84.9729C35.6285 85.2342 34.4067 85.274 33.3381 85.7811C32.2695 86.2882 31.383 87.4894 31.7555 88.6121C31.9715 89.263 32.5519 89.7241 33.1517 90.0561C35.1418 91.1579 37.5204 91.226 39.7948 91.2672C53.1408 91.5093 66.4871 91.7517 79.8331 91.9939C80.6914 92.0095 81.5784 92.0198 82.3701 91.6883C83.1617 91.3567 83.8368 90.5862 83.7764 89.7301C86.962 89.8656 90.1833 88.9571 92.8285 87.1768C93.7898 86.5301 94.7747 85.4749 94.4324 84.368C94.1831 83.5625 93.3284 83.1246 92.5343 82.8405C90.5677 82.137 88.4596 81.8318 86.3744 81.9489C84.0511 82.0795 81.7624 82.7262 79.4367 82.6479C76.4006 82.5454 73.5606 81.2239 70.6419 80.3814C66.3506 79.143 61.8439 78.9471 57.4063 79.1758C55.1225 79.2934 52.8464 79.5234 50.5752 79.7842C48.6627 80.0039 47.2485 79.4985 45.3619 79.3852C43.0467 79.2462 40.7062 79.526 38.4915 80.2166Z" fill="#86BDDC"/>
<path d="M31.9722 83.1459C31.8206 83.2954 31.5954 83.3605 31.365 83.3701C31.1345 83.3799 30.8962 83.3385 30.6602 83.297C30.5924 83.2851 30.5215 83.2719 30.4621 83.2302C30.3747 83.1689 30.3345 83.063 30.3045 82.9658C30.2461 82.7765 30.2006 82.5854 30.1685 82.3945C30.1436 82.2467 30.1292 82.0876 30.2044 81.9746C30.2794 81.8617 30.5527 81.7791 30.6983 81.77C30.9568 81.7537 31.3041 81.8641 31.4986 82.1121C31.7176 82.3906 31.8773 82.8261 31.9722 83.1459Z" fill="#F5D5B1"/>
<path d="M22.2396 82.4728C22.1215 82.7383 21.9935 83.1692 21.8455 83.419C21.6158 83.8073 21.2579 83.9726 20.7559 84.0634C21.2685 84.117 21.8755 84.13 22.1734 83.8114C22.3397 83.6336 22.3787 83.3807 22.448 83.1493C22.6029 82.6324 22.9371 82.184 23.396 81.8668C23.5642 81.7506 23.9479 81.6335 23.518 81.5231C23.1967 81.4404 22.4707 81.954 22.2396 82.4728Z" fill="#FFB777"/>
<path d="M23.3801 82.7411C23.2963 83.1037 23.2625 83.4999 23.015 83.7778C22.764 84.0597 21.0142 84.4636 20.8887 84.0866C21.2401 84.0772 21.8442 83.8264 21.986 83.5612C22.1278 83.2958 22.1834 82.9907 22.3039 82.7147C22.4907 82.2874 22.8375 81.9355 23.2857 81.7185C23.4112 81.6577 23.5557 81.6061 23.7114 81.6363C24.2328 81.7377 23.4433 82.4678 23.3801 82.7411Z" fill="#F5D5B1"/>
<path d="M24.0445 83.0486C24.154 83.4182 24.1767 83.6899 24.1717 84.0446C24.1684 84.2734 24.0967 84.4918 23.9463 84.6564C23.5549 85.0847 23.0339 84.7742 22.5661 84.6272C22.3357 84.5546 22.0849 84.5953 21.9778 84.7606C21.949 84.8049 21.8992 84.8394 21.842 84.8535C21.7275 84.8818 21.595 84.8521 21.4695 84.8224L19.7396 84.4128C19.694 84.402 19.6854 84.3474 19.7273 84.3378C20.1259 84.247 20.6821 83.9845 20.9317 84.0908C21.7294 84.4315 21.5809 83.8343 22.4269 83.9493C22.6629 83.9814 22.8382 83.8252 22.7869 83.6163C22.6128 82.909 22.7318 82.1892 23.1302 81.6442C23.2133 81.5304 23.3125 81.421 23.4541 81.3654C23.6026 81.3072 23.8469 81.3635 23.9923 81.471C24.7085 82.0011 23.9449 82.7121 24.0445 83.0486Z" fill="#FFB777"/>
<path d="M26.6412 83.9675C26.8208 84.0023 27.3344 83.7495 27.756 83.8101C27.9148 83.8329 28.1419 84.1275 28.2786 84.2013C28.7225 84.4408 28.6753 84.4387 29.3276 84.6363C29.3887 84.6548 29.3937 84.7192 29.3355 84.7338C28.8123 84.8648 28.1653 84.7635 27.7014 84.4674C27.6012 84.4035 27.4923 84.2538 27.3684 84.2411C27.2532 84.2291 27.1586 84.3491 27.0618 84.3886C26.7732 84.506 26.4186 84.5728 26.0864 84.477C25.6758 84.3584 25.4162 84.0303 25.2531 83.7177C25.0897 83.4051 24.9735 83.069 24.6837 82.8077C24.4441 82.5916 24.442 82.6218 24.1514 82.4467C23.8609 82.2716 23.572 81.8543 23.5703 81.5868C23.6865 81.5058 24.1359 81.4042 24.3021 81.4263C26.3693 81.9935 26.1437 83.8715 26.6412 83.9675Z" fill="#FFB777"/>
<path d="M24.2738 81.4462C24.2072 81.4186 24.0041 81.0339 24.0041 81.0339L23.4941 81.0917L23.5195 81.5317L23.9346 81.6033L24.2738 81.4462Z" fill="#846848"/>
<path d="M24.0041 81.0339L23.7861 81.1992L23.4941 81.0914L24.0041 81.0339Z" fill="#846848"/>
<path d="M28.8496 83.6117C28.8379 83.6235 28.8235 83.6321 28.8123 83.6441C28.7675 83.6915 28.7833 83.7737 28.8013 83.8446C28.9249 83.8826 29.0518 83.8973 29.1725 83.8872C29.1816 83.8865 29.191 83.8855 29.1979 83.8807C29.207 83.8747 29.2109 83.8637 29.2166 83.8549C29.2387 83.8206 29.2868 83.8144 29.3304 83.8108C29.4286 83.8026 29.5271 83.7943 29.6253 83.7861C29.6274 83.7377 29.6293 83.6896 29.6315 83.6412C29.6317 83.6323 29.632 83.6228 29.6267 83.6146C29.6107 83.5895 29.5754 83.6081 29.5472 83.6036C29.4744 83.5916 29.4918 83.439 29.4358 83.3904C29.379 83.3413 29.2617 83.331 29.1972 83.3336C29.1167 83.337 28.9852 83.3542 28.9332 83.4093C28.8834 83.4632 28.9026 83.5588 28.8496 83.6117Z" fill="#F5D5B1"/>
<path d="M31.0976 83.6184C31.0751 83.6574 31.064 83.7073 31.0827 83.7549C31.0933 83.7822 31.5546 83.8249 31.5776 83.7406C31.5841 83.7173 31.5872 83.6919 31.5802 83.6668C31.5733 83.6419 31.5572 83.6189 31.539 83.5988C31.3944 83.4387 31.1821 83.4723 31.0976 83.6184Z" fill="#F5D5B1"/>
<path d="M33.8138 83.969C33.8435 83.9671 33.8754 83.9683 33.9082 83.9711C34.2534 84.0035 34.5978 84.0157 34.9317 83.9685C34.9602 83.9644 34.9856 83.9625 35.0062 83.9637C34.9162 83.7232 34.7926 83.4899 34.6218 83.3031C33.957 82.577 33.6001 83.224 33.8138 83.969Z" fill="#F5D5B1"/>
<path d="M80.2616 79.5322C80.2616 79.6975 80.2463 79.8161 80.2463 79.8161L73.2291 80.7888C73.2291 80.6355 73.2331 80.4817 73.2451 80.3299C73.3726 78.3027 73.0928 76.5136 73.0928 76.5136L74.2188 76.5533C74.9861 76.5804 75.7507 76.446 76.4628 76.1588C76.6271 76.9955 77.0339 77.535 77.5139 77.8775C77.6354 77.9659 77.7594 78.0385 77.8857 78.0995C77.9434 78.1285 78.0009 78.1554 78.0598 78.18C78.187 78.2346 78.3161 78.2782 78.4426 78.3132C78.937 78.4541 79.4005 78.4756 79.7052 78.5178C80.1912 78.5865 80.2616 79.1731 80.2616 79.5322Z" fill="#A6C1C9"/>
<path d="M80.1937 79.3303C80.1937 79.4956 80.1784 79.6142 80.1784 79.6142L73.1611 80.5869C73.1611 80.4336 73.1652 80.2798 73.1772 80.128L80.1937 79.3303Z" fill="#A6C1C9"/>
<path d="M77.817 77.8976L76.8789 78.1623L76.6641 77.8451L77.4452 77.6755C77.5669 77.7639 77.6907 77.8365 77.817 77.8976Z" fill="#DDDEE0"/>
<path d="M78.3745 78.1115L77.8063 78.4739L77.4316 78.3512L77.9917 77.9783C78.1191 78.0326 78.248 78.0762 78.3745 78.1115Z" fill="#DDDEE0"/>
<path d="M52.0747 77.0356C52.1004 76.7175 60.5656 66.8282 65.0006 61.7414C66.0371 60.5526 67.6669 60.1068 67.6669 60.1068L69.3624 65.9951L58.8115 82.6954C58.8115 82.6954 51.4244 85.1008 52.0747 77.0356Z" fill="#0C2649"/>
<path d="M39.5744 74.0344C39.5744 74.0344 35.824 71.6136 41.0018 65.0302C42.685 62.8899 44.6794 61.1923 45.6569 61.0404C46.6089 60.8924 56.0909 63.9769 56.3587 64.0931C56.6265 64.2093 55.7328 65.7399 55.7328 65.7399C55.7328 65.7399 48.8155 64.3638 46.6934 64.096C45.4169 63.9348 43.188 74.5367 41.4837 74.803C39.7794 75.0696 39.5744 74.0344 39.5744 74.0344Z" fill="#894B4C"/>
<path d="M58.8062 62.4932C58.4812 62.7732 57.3014 63.288 57.3014 63.288L57.0938 63.7393L57.5453 63.7134L58.9746 62.7989C59.3547 62.4582 58.9578 62.3627 58.8062 62.4932Z" fill="#894B4C"/>
<path d="M59.8574 63.2614L57.7293 63.8126L57.2881 64.2394L57.9372 64.3226L59.9913 63.6248C60.0464 63.6176 60.0837 63.5917 60.1091 63.5594C60.1865 63.4607 60.1412 63.3158 60.0248 63.2693C59.9776 63.2504 59.9208 63.242 59.8574 63.2614Z" fill="#894B4C"/>
<path d="M60.4605 64.2373L57.8932 64.4314L57.2627 64.7078L58.1631 64.9138L60.5084 64.606C60.5544 64.6 60.5978 64.5779 60.6272 64.542C60.6874 64.4687 60.6768 64.3655 60.6119 64.2951C60.5733 64.2536 60.517 64.2333 60.4605 64.2373Z" fill="#894B4C"/>
<path d="M60.257 65.6611L60.2491 65.6523C60.2222 65.6226 60.1873 65.6015 60.1482 65.5921L58.1055 65.0956L57.292 65.2108L57.5763 65.6887L57.9989 65.6369L60.0757 65.9895C60.1384 66.0001 60.2026 65.9802 60.2479 65.9354C60.3241 65.8611 60.3279 65.7402 60.257 65.6611Z" fill="#894B4C"/>
<path d="M58.2304 65.126L58.1796 64.2402L57.4153 63.2269L56.1089 63.5623L55.0527 64.0622L55.1382 65.5538L56.2262 66.2492C56.4574 66.3967 56.4823 66.431 56.992 66.5186L57.2229 65.9974C57.188 65.92 57.2153 65.8281 57.2881 65.784C57.3535 65.7445 57.4481 65.7045 57.576 65.6889L58.2304 65.126Z" fill="#894B4C"/>
<path d="M57.2239 65.9974L57.489 66.1471C57.977 66.3833 58.3039 66.7491 58.3423 67.0663C58.3564 67.1824 58.24 67.2368 58.1396 67.2425C58.1396 67.2425 57.97 67.2179 57.9339 67.1712L57.4347 66.7817L56.9055 66.4894C56.9055 66.4894 56.7906 66.1045 57.2239 65.9974Z" fill="#894B4C"/>
<path d="M87.7331 76.3902C86.4183 76.3208 85.2656 77.1613 85.2656 78.2735V79.716L91.9255 79.3643C92.704 79.3231 93.3019 78.708 93.3019 77.988C93.3019 77.2679 92.704 76.6528 91.9255 76.6116L87.7331 76.3902Z" fill="#A6C1C9"/>
<path d="M88.25 77.6049H88.6273V78.8526H88.25V77.8916V77.6049Z" fill="#DDDEE0"/>
<path d="M89.1787 77.6031H89.532V78.8272H89.1787V77.8844V77.6031Z" fill="#DDDEE0"/>
<path d="M90.1074 77.6016H90.4373V78.8019H90.1074V77.8773V77.6016Z" fill="#DDDEE0"/>
<path d="M91.0352 77.5999H91.3413V78.7765H91.0352V77.87V77.5999Z" fill="#DDDEE0"/>
<path d="M88.0161 78.5801C88.0161 78.8048 87.9658 79.0295 87.8628 79.2384L87.7888 79.3917C87.6223 79.7354 87.3286 79.9998 86.969 80.1347L78.7156 83.7778C77.6678 84.2404 76.5372 84.4849 75.392 84.4971L58.118 84.6797C58.118 84.6797 53.3615 81.2344 58.5808 78.0459C58.8266 77.8953 75.8725 79.7512 77.0014 79.8755L77.3584 79.6666C78.6301 78.9183 80.0182 78.387 81.4619 78.0907L86.295 77.1019C86.7604 77.0305 87.2335 77.1838 87.5693 77.5144C87.8599 77.8028 88.0161 78.1889 88.0161 78.5801Z" fill="#0C2649"/>
<path d="M39.2345 74.4591C40.6628 77.3535 43.5069 79.6046 45.0044 80.8502C46.9332 82.4546 48.9752 84.1144 51.4386 84.5901C54.0594 85.0962 57.2527 85.0663 59.2358 83.2796C61.1512 81.554 59.9221 78.8316 58.3366 77.8232C54.177 75.1777 56.1264 80.2574 50.1322 72.613C47.5246 69.2875 36.9024 69.7336 39.2345 74.4591Z" fill="#F43F4C"/>
<path opacity="0.2" d="M43.0748 78.4317C42.5883 77.8252 42.1277 77.1655 41.9629 76.4057C42.5241 76.2864 43.0286 76.742 43.4219 77.1595L46.2659 80.1798C46.3342 80.2522 46.4556 80.2179 46.4755 80.1204L46.5028 79.9882C46.5491 79.7642 46.8466 79.706 46.9685 79.8995C47.1944 80.2581 47.3486 80.6982 47.7518 80.702C47.9492 80.7039 48.1295 80.5825 48.2325 80.4141C48.4177 80.1111 48.3877 79.7623 48.3849 79.4255C48.3779 78.612 48.5408 77.7976 48.8599 77.0493C48.9413 76.8584 49.1059 76.6368 49.3035 76.6996C49.4338 76.741 49.4942 76.8876 49.5325 77.0191C49.8765 78.2048 49.7941 79.6181 50.6787 80.4792C50.7721 80.5703 50.8813 80.6553 51.0104 80.6745C51.1228 80.6912 51.2361 80.6558 51.3408 80.6117C52.2014 80.2495 52.726 79.306 53.6063 78.9941C53.8533 78.9067 54.1829 78.9019 54.3189 79.1256C54.4056 79.2681 54.3781 79.4495 54.3477 79.6135C54.2669 80.0483 53.7644 81.0759 53.6834 81.5107C55.7822 81.9349 55.9248 80.9844 56.8348 81.0175C56.9239 81.0208 57.0199 81.0266 57.0887 81.0831C57.384 81.3267 56.4101 82.3457 56.4101 82.3457C57.5301 82.5704 57.8492 82.2679 58.3494 82.3457C58.5211 82.3725 58.718 82.4161 58.7975 82.5709C58.8488 82.6703 58.8378 82.7958 58.9005 82.8883C58.9755 82.9984 59.1255 83.0226 59.2582 83.0313C60.3351 83.101 61.5733 82.838 62.3745 83.5611C63.3851 83.1776 64.573 83.2979 65.4861 83.8763C65.6629 83.9882 65.8493 84.1633 65.809 84.3686C62.2521 84.7602 58.6766 85.1526 55.1032 84.9574C53.3572 84.862 50.6485 84.1365 49.1047 83.3151C46.7912 82.0836 44.7628 80.536 43.0748 78.4317Z" fill="#000508"/>
<path opacity="0.2" d="M46.3034 78.9048C46.3336 78.9537 46.3765 78.9934 46.4184 79.0325C46.4383 79.0509 46.4594 79.0701 46.4855 79.0775C46.5351 79.0914 46.5868 79.0586 46.6184 79.0176C46.6802 78.9376 46.6922 78.8274 46.6718 78.7283C46.663 78.6842 46.6476 78.6406 46.6191 78.6061C46.5767 78.5546 46.5054 78.529 46.4397 78.5417C46.3743 78.5541 46.3173 78.6044 46.297 78.6679C46.2694 78.7539 46.2522 78.8219 46.3034 78.9048Z" fill="#000508"/>
<path opacity="0.2" d="M54.3984 78.2956C54.3924 78.3529 54.4017 78.4103 54.4113 78.4671C54.4159 78.4939 54.4207 78.522 54.4369 78.5438C54.4676 78.5852 54.5287 78.5907 54.5787 78.5778C54.6767 78.5524 54.7534 78.4724 54.7982 78.3816C54.818 78.3414 54.8327 78.2973 54.8312 78.2527C54.8291 78.1861 54.7883 78.1222 54.7289 78.092C54.6695 78.0618 54.5938 78.0669 54.5387 78.1045C54.4638 78.1552 54.4087 78.1986 54.3984 78.2956Z" fill="#000508"/>
<path opacity="0.2" d="M57.6195 82.0731C57.6011 82.0472 57.5939 82.0173 57.5869 81.9878C57.5836 81.9739 57.5802 81.9593 57.5867 81.9447C57.5987 81.9174 57.6413 81.8997 57.6806 81.8937C57.7572 81.8819 57.8322 81.9016 57.8866 81.9342C57.9108 81.9485 57.9321 81.966 57.9419 81.9881C57.9565 82.0204 57.9429 82.0611 57.9074 82.0901C57.872 82.1191 57.8162 82.1351 57.7673 82.1306C57.7009 82.1244 57.6506 82.1169 57.6195 82.0731Z" fill="#000508"/>
<path opacity="0.2" d="M57.5257 80.6073C57.5185 80.6751 57.5298 80.7436 57.541 80.811C57.5463 80.8428 57.5523 80.8759 57.5714 80.902C57.6079 80.9511 57.6804 80.9578 57.7396 80.9422C57.8558 80.912 57.9468 80.8172 58 80.7094C58.0235 80.6617 58.0409 80.6095 58.0393 80.5563C58.0366 80.4773 57.9882 80.4013 57.9176 80.3654C57.8469 80.3297 57.7571 80.3355 57.6919 80.3803C57.6035 80.4406 57.5379 80.4921 57.5257 80.6073Z" fill="#000508"/>
<path d="M46.4842 74.3892C46.3134 77.1844 48.4683 80.518 49.6056 83.9024C50.0638 85.2661 51.3295 86.1936 52.7682 86.1859L62.3121 86.1445L61.8064 84.6174C61.8064 84.6174 55.8398 82.9807 54.0025 82.8884C52.6065 82.8185 51.7998 78.9354 51.439 76.6138C51.2577 75.4472 51.0847 73.8177 50.1889 73.0488C49.0918 72.1074 46.6866 71.0752 46.4842 74.3892Z" fill="#894B4C"/>
<path d="M61.4482 84.594L63.0294 83.5868C63.1825 83.4893 63.3677 83.4557 63.5451 83.4936L64.8394 83.7686C65.3513 83.8773 65.7297 84.3111 65.7683 84.8331L65.7925 85.1603C65.8088 85.3835 65.6648 85.5871 65.449 85.6458L64.7131 85.8463C63.9334 86.0588 63.1267 86.1548 62.319 86.1314L61.9541 86.1208L61.5191 84.8067L61.4482 84.594Z" fill="#894B4C"/>
<path d="M65.3276 84.2421C65.3195 84.5099 65.2706 84.7765 65.1832 85.0299C65.3333 85.0203 65.4814 85.136 65.5084 85.2841C65.3276 85.2383 65.1468 85.1925 64.9657 85.1466C64.9043 85.131 64.8387 85.1154 64.7786 85.1353C64.7041 85.1597 64.655 85.2342 64.6389 85.3109C64.6226 85.3875 64.6337 85.4671 64.6444 85.5444C64.3105 85.1796 64.5728 85.1981 64.8648 84.9394C65.0318 84.7918 65.3204 84.4821 65.3276 84.2421Z" fill="#754245"/>
<path d="M64.5 62.315C64.5 62.315 69.1997 69.0707 71.5 74.3239C71.575 74.4952 71.7213 75.8148 71.7443 76.0443C71.8274 76.8731 72.8124 77.6755 73.1777 78.4179C73.148 78.363 73.2644 78.5939 73.1777 78.4179C73.1777 78.4179 75.6686 77.0389 77.0247 77.1507L77.0127 76.0484L76.256 74.9997L76.2375 73.4211C76.2354 73.2446 76.1707 73.0748 76.0548 72.9418L75.1496 71.9032L70.8276 60.5252C70.8281 60.5252 67.1754 57.5576 64.5 62.315Z" fill="#0C2649"/>
<path d="M40.8447 71.6987L41.3693 72.677C41.6697 73.2372 42.2539 73.587 42.8899 73.587C44.1841 73.6936 44.9089 72.636 45.0682 72.2853C45.578 71.1624 45.2508 70.3834 44.8905 69.9019L44.4466 69.3088L41.1755 71.4486L40.8447 71.6987Z" fill="#754245"/>
<path d="M45.7332 70.278C45.5816 71.7092 43.5834 73.5338 41.0853 72.0783C41.0987 72.0752 41.1109 72.0692 41.1229 72.0633C41.1214 72.0601 41.1198 72.0558 41.1183 72.0527C41.1078 72.0587 41.0972 72.0633 41.0853 72.0661C40.3096 71.721 39.5805 71.0685 39.0284 70.0018C36.9894 66.0636 39.0569 64.1851 42.5795 64.044C43.1541 64.0215 43.6972 64.4582 44.1683 65.1212C44.1683 65.1107 44.1683 65.0987 44.1669 65.0882C44.188 65.1258 44.2419 65.2427 44.3094 65.3447C44.3109 65.3493 44.314 65.3538 44.3154 65.3567C44.548 65.7184 44.7595 66.1323 44.9425 66.5704C44.9591 66.608 44.9756 66.6469 44.9921 66.6873C45.0266 66.7714 45.0597 66.8584 45.0927 66.9439C45.1797 67.1719 45.2578 67.4014 45.3282 67.6325C45.6417 68.6484 45.7991 69.6478 45.7332 70.278Z" fill="#894B4C"/>
<path d="M44.9972 66.6756C44.9807 66.6351 44.9642 66.5961 44.9476 66.5587C44.7646 66.1206 44.5531 65.7065 44.3205 65.345C44.3191 65.3419 44.316 65.3376 44.3145 65.333C44.247 65.231 44.1931 65.1141 44.172 65.0765C44.1734 65.0916 44.1751 65.1081 44.1751 65.1229C44.178 65.5189 43.7416 65.7141 43.4759 65.4784C43.5705 65.66 43.4879 65.9675 43.3154 66.0801C43.1444 66.1913 42.7587 66.2392 42.6299 66.0801C42.7918 66.5844 42.2308 67.0732 41.6456 66.7343C41.9743 67.5986 40.8429 67.8266 40.6405 67.5789C41.0755 68.3397 40.132 68.8736 39.8469 68.2721C39.9205 69.2248 39.5631 70.5314 40.8446 71.8321C40.8326 71.8381 41.1043 72.0635 41.0908 72.0666C40.5418 72.2916 39.2409 71.7845 39.0593 71.2414C38.6528 71.3059 38.3137 70.7477 38.5568 70.4177C38.3273 70.5437 38.0123 70.4852 37.8427 70.2842C37.6731 70.0847 37.6703 69.7637 37.8336 69.5582C37.19 69.4456 36.6544 68.8755 36.5823 68.2259C36.5119 67.5777 36.9093 66.9041 37.5124 66.6536C37.2168 66.2064 36.3631 64.103 38.8267 63.7535C38.6976 63.371 38.8524 62.9118 39.1868 62.6837C39.5197 62.4571 40.0045 62.4828 40.3136 62.7436C40.5387 62.2724 41.0786 61.974 41.5979 62.031C42.117 62.0894 42.6076 62.2545 42.723 62.7647C43.1477 62.3611 43.9083 63.0677 43.8604 63.5178C43.8604 63.5178 44.3179 63.3288 44.837 64.064C45.14 64.4915 45.266 65.0901 44.9014 65.4652C45.2327 65.7951 45.1922 66.2466 44.9972 66.6756Z" fill="#041C36"/>
<path d="M39.1916 69.922C38.948 70.0447 38.8307 70.3352 38.9147 70.5949C39.0513 71.017 39.2719 71.0982 39.4197 71.1734C39.7931 71.3631 40.2264 71.3981 40.6255 71.2711L40.8612 71.1959L40.0791 70.0318C39.7299 69.762 39.4168 69.8087 39.1916 69.922Z" fill="#894B4C"/>
<path d="M45.3217 68.1696C45.4242 68.3171 45.3576 68.5406 45.1732 68.6688C44.9887 68.7969 44.7561 68.7814 44.6536 68.6338C44.5511 68.4863 44.6177 68.2628 44.8021 68.1346C44.9866 68.0065 45.2192 68.022 45.3217 68.1696Z" fill="#C66058"/>
<path d="M42.3454 70.2412C42.4609 70.4043 42.3732 70.6647 42.1497 70.8227C41.9265 70.9808 41.6517 70.977 41.5363 70.8141C41.4208 70.651 41.5083 70.3906 41.7318 70.2325C41.9555 70.0742 42.23 70.0783 42.3454 70.2412Z" fill="#C66058"/>
<path d="M41.2242 68.8476C41.2031 68.8533 41.1801 68.8514 41.1595 68.8401C41.1166 68.8169 41.1008 68.7635 41.1238 68.7208C41.3291 68.3414 42.0092 67.9905 42.0278 67.9862C42.075 67.9749 42.1225 68.0041 42.1337 68.0513C42.145 68.0988 42.1138 68.1459 42.0686 68.1574C42.0652 68.1577 41.4448 68.4964 41.2786 68.8044C41.2666 68.8265 41.2467 68.8413 41.2242 68.8476Z" fill="#4C3033"/>
<path d="M43.995 66.4034C43.9935 66.3816 43.9842 66.3606 43.9669 66.3445C43.9312 66.3115 43.8754 66.3136 43.8426 66.3491C43.5497 66.6655 43.4364 67.4224 43.4385 67.4416C43.4431 67.49 43.4859 67.5254 43.5343 67.5209C43.5827 67.5163 43.6174 67.4715 43.6139 67.4251C43.6129 67.422 43.7339 66.7254 43.972 66.4688C43.9887 66.4504 43.9964 66.4267 43.995 66.4034Z" fill="#4C3033"/>
<path d="M42.4794 68.9901C42.5491 69.1973 42.5124 69.3968 42.3972 69.4354C42.282 69.4742 42.1323 69.3374 42.0626 69.1302C41.9929 68.923 42.0298 68.7235 42.1448 68.6849C42.2597 68.6461 42.4097 68.7829 42.4794 68.9901Z" fill="#304951"/>
<path d="M44.206 69.7269L44.0266 69.6737L44.1655 69.2028C43.64 68.9465 43.1104 67.9766 43.0869 67.9335L43.2515 67.8444C43.2572 67.8547 43.8271 68.8981 44.309 69.06L44.3945 69.0888L44.206 69.7269Z" fill="#754245"/>
<path d="M44.1107 68.1413C44.0793 68.1413 44.0484 68.1303 44.0238 68.1087C43.9845 68.0745 43.9689 68.0199 43.9845 67.9701L44.1773 67.3458C44.1986 67.2759 44.2726 67.2361 44.3426 67.2586C44.4125 67.2799 44.4513 67.3542 44.4298 67.4239L44.3249 67.7641L44.5443 67.662C44.6109 67.6309 44.689 67.6601 44.7199 67.726C44.7505 67.7923 44.722 67.8709 44.6557 67.9016L44.1663 68.1291C44.1488 68.137 44.1296 68.1413 44.1107 68.1413Z" fill="#304951"/>
<path d="M43.6363 70.5844C43.5539 70.6608 43.4797 70.7516 43.4497 70.8599C43.42 70.9682 43.4435 71.0968 43.53 71.1684C43.6208 71.2436 43.7575 71.2388 43.8639 71.1881C43.9703 71.1375 44.0529 71.0491 44.1331 70.9626C44.3657 70.7121 44.7619 70.4151 44.9023 70.1051C44.7777 70.0098 44.3863 70.1825 44.2448 70.234C44.0234 70.3147 43.8105 70.423 43.6363 70.5844Z" fill="#304951"/>
<path d="M22.2075 20.8713C21.5289 20.8811 20.9011 20.5347 20.6048 19.7826L18.2094 13.6966C16.3932 13.621 14.785 14.8608 14.3957 16.6365L14.2257 17.4126C14.0491 18.2186 14.2568 19.0608 14.7881 19.692L19.3714 24.6456C20.7317 25.8225 22.9316 25.3674 23.1103 24.0736L22.2075 20.8713Z" fill="#E39366"/>
<path d="M24.5832 78.4213C24.5879 78.7044 24.5633 78.9042 24.5633 78.9042L16.614 79.046C16.6114 78.8843 16.6114 78.7224 16.6171 78.5633C16.671 76.4211 17.2962 74.552 17.2962 74.552L19.2681 73.6384C19.4568 74.6898 19.9088 75.355 20.4691 75.7842C20.6169 75.9001 20.7702 75.9955 20.9288 76.0764C21.0023 76.1155 21.0761 76.1519 21.1523 76.1852C21.3192 76.2602 21.4915 76.3208 21.6634 76.3696C22.3686 76.5766 23.0793 76.6101 23.5773 76.6793C24.4267 76.8001 24.5729 77.8059 24.5832 78.4213Z" fill="#C6DCE3"/>
<path d="M24.5832 78.4214C24.5879 78.7045 24.5633 78.9043 24.5633 78.9043L16.614 79.0461C16.6114 78.8844 16.6114 78.7225 16.6171 78.5634L24.5832 78.4214Z" fill="#A6C1C9"/>
<path d="M20.9284 76.0765L19.8318 76.4603L19.5918 76.0485L20.4687 75.7843C20.6168 75.9002 20.7698 75.9956 20.9284 76.0765Z" fill="#A6C1C9"/>
<path d="M21.6633 76.3697L20.9284 76.8915L20.4678 76.7147L21.1521 76.1853C21.3191 76.2605 21.4913 76.3209 21.6633 76.3697Z" fill="#A6C1C9"/>
<path d="M10.4717 78.6731C10.4566 78.9507 10.39 79.1572 10.39 79.1572L5.09532 79.2516C5.02538 79.0939 4.97483 78.9359 4.93843 78.7718C4.37264 76.1726 7.83754 72.9177 7.83754 72.9177L8.98013 74.4318C8.98013 74.4318 8.89246 76.8897 9.84654 77.3841C10.4186 77.68 10.5012 78.2565 10.4717 78.6731Z" fill="#C6DCE3"/>
<path d="M4.93848 78.7718L10.4718 78.6731C10.4567 78.9507 10.3901 79.1572 10.3901 79.1572L5.09537 79.2516C5.02519 79.094 4.97489 78.9359 4.93848 78.7718Z" fill="#A6C1C9"/>
<path d="M9.60132 77.1927C9.60132 77.1927 7.36165 76.7088 6.35608 77.4049L6.34961 77.0258C6.34961 77.0258 8.21033 76.0535 9.60132 77.1927Z" fill="#A6C1C9"/>
<path d="M9.14969 76.6178C9.14969 76.6178 7.71414 75.9727 6.34375 76.6679L6.49514 76.2827C6.49514 76.2827 8.13453 75.611 9.14969 76.6178Z" fill="#A6C1C9"/>
<path d="M1.0296 35.272C0.148582 43.9813 1.27584 50.4313 1.42555 51.7686C1.57526 53.106 3.49108 64.7393 3.77805 70.5251C3.92512 73.4889 4.91033 77.062 4.91033 77.062C4.91033 77.062 7.61614 74.7294 9.199 76.3983L9.54969 74.0774L8.79059 72.2684C8.79059 72.2684 9.5437 70.7476 8.88689 69.588C8.23008 68.4284 8.09977 43.4179 8.09977 43.4179L8.89743 43.3731L14.6109 67.9493L15.1999 72.3195C15.2217 74.4554 15.6711 74.413 16.4177 76.4143C16.5133 76.6704 16.5763 76.9425 16.5832 77.2221L20.7217 75.7793L20.0527 73.8899L20.1779 71.1726L18.752 66.0359C18.752 66.0359 14.2374 43.0186 15.1774 37.0572L1.0296 35.272Z" fill="#0C2649"/>
<path d="M18.8387 15.515C18.8387 15.515 16.9313 12.9218 12.153 12.3951C7.77762 11.9127 4.46962 12.8698 3.58214 13.4684C2.69465 14.0673 0.919922 36.6257 0.919922 36.6257C3.89713 37.9956 11.0744 39.6939 15.0689 38.2222C15.0689 38.2222 15.6823 31.5851 16.7696 25.9395C17.8569 20.2936 18.8387 15.515 18.8387 15.515Z" fill="#FFB777"/>
<path d="M13.4931 11.9751L13.1666 13.1802C13.1666 13.1802 11.4573 14.8002 9.70508 12.6303C9.70508 12.6303 10.4948 11.2364 9.97288 9.36609C9.97288 9.36609 10.2203 9.42118 10.6079 9.53233C10.6084 9.53233 10.674 11.6486 13.4931 11.9751Z" fill="#C66058"/>
<path d="M10.1326 7.56282C9.43223 11.6397 13.2646 12.8616 14.5253 11.5171C14.9294 11.0866 15.3749 10.2543 15.7129 9.32197C15.7903 9.1107 15.8614 8.89536 15.9254 8.67786C16.358 7.20255 16.4566 5.65395 15.6808 5.11475C12.9807 3.23654 10.8328 3.48566 10.1326 7.56282Z" fill="#E37771"/>
<path d="M13.0905 7.34299C13.033 7.56552 13.0866 7.772 13.2102 7.80409C13.3338 7.83595 13.4809 7.68145 13.5384 7.45892C13.5959 7.23615 13.5422 7.02991 13.4186 6.99781C13.2948 6.96596 13.1479 7.12046 13.0905 7.34299Z" fill="#304951"/>
<path d="M15.0836 8.03835C15.0261 8.26112 15.0798 8.46736 15.2034 8.49946C15.3272 8.53132 15.4741 8.37682 15.5316 8.15429C15.589 7.93176 15.5354 7.72528 15.4118 7.69318C15.2882 7.66108 15.1413 7.81582 15.0836 8.03835Z" fill="#304951"/>
<path d="M12.0467 7.81528C11.9466 7.97553 12.0281 8.20693 12.2283 8.33197C12.4288 8.45724 12.6722 8.42874 12.7723 8.26849C12.8724 8.10824 12.791 7.87685 12.5907 7.75181C12.3905 7.62653 12.1469 7.65503 12.0467 7.81528Z" fill="#C66058"/>
<path d="M15.3018 8.99121C15.3038 9.1735 15.486 9.31794 15.7126 9.32201C15.79 9.11074 15.8612 8.8954 15.9251 8.6779C15.8628 8.65203 15.7941 8.63957 15.7217 8.64029C15.4853 8.64532 15.2973 8.80293 15.3018 8.99121Z" fill="#C66058"/>
<path d="M13.1274 5.9508C13.1485 5.96565 13.1739 5.97475 13.2014 5.97571C13.5535 5.98768 13.8331 6.31753 13.836 6.32088C13.8829 6.37789 13.9699 6.38603 14.0271 6.33813C14.0846 6.28998 14.0925 6.20447 14.0441 6.14698C14.03 6.12949 13.6836 5.72036 13.2105 5.70455C13.1358 5.70192 13.0728 5.7606 13.0704 5.83558C13.0687 5.88301 13.0917 5.92541 13.1274 5.9508Z" fill="#704048"/>
<path d="M16.2252 7.01647C16.2801 6.96857 16.2875 6.88521 16.2411 6.82844C16.0422 6.58555 15.6686 6.7422 15.4791 6.87323C15.4185 6.91323 15.4022 6.99995 15.4446 7.06175C15.487 7.12355 15.5713 7.13912 15.6334 7.09672C15.7397 7.0239 15.9658 6.92066 16.031 7.00042C16.0784 7.05839 16.1639 7.06701 16.2219 7.01959C16.2229 7.01839 16.2241 7.01719 16.2252 7.01647Z" fill="#704048"/>
<path d="M14.7463 9.63707C14.6085 9.63707 14.4459 9.60138 14.2598 9.53024L14.3386 9.324C14.6001 9.42365 14.8054 9.44305 14.9171 9.37813C14.9645 9.35059 14.986 9.31178 14.9956 9.28639C14.569 8.35028 14.7472 7.33608 14.7551 7.29272L14.9726 7.33225C14.9707 7.34231 14.7954 8.34812 15.2122 9.22794L15.2256 9.25621L15.2222 9.28711C15.2203 9.30507 15.1985 9.46485 15.0359 9.56425C14.9566 9.61312 14.86 9.63707 14.7463 9.63707Z" fill="#B66657"/>
<path d="M14.6592 10.0953C14.6592 10.0953 14.5325 10.0193 13.8508 9.7573C13.1688 9.49524 12.7832 9.38745 12.7832 9.38745C12.7832 9.38745 12.6656 10.285 13.7229 10.5506C14.5996 10.771 14.6592 10.0953 14.6592 10.0953Z" fill="#304951"/>
<path d="M10.146 10.3504L10.1336 9.39223C10.1336 9.39223 9.81067 8.47552 10.083 7.92363C10.3554 7.37198 10.5535 7.6587 10.5535 7.6587C10.5535 7.6587 11.7732 6.53863 11.933 5.54886C12.0927 4.5591 12.0927 4.5591 12.0927 4.5591C10.8601 4.54544 9.94769 4.75743 9.32825 4.98188C8.68725 6.58366 8.58736 8.86309 10.146 10.3504Z" fill="#896A75"/>
<path d="M10.5536 7.65862C10.5536 7.65862 10.0984 6.72898 9.37576 7.04133C8.65308 7.35369 9.30581 9.01584 9.97029 9.13105C10.635 9.24579 10.5536 7.65862 10.5536 7.65862Z" fill="#E37771"/>
<path d="M9.96176 12.321C9.9002 12.6949 9.97062 15.1439 9.97062 15.1439L11.8608 15.6182C12.0773 14.7925 12.8487 13.8806 12.9519 13.5278C13.0271 13.2703 13.0573 12.8223 13.0693 12.5054C13.0808 12.2058 12.6599 12.1128 12.5535 12.3931C12.5409 12.4269 12.5298 12.4645 12.5217 12.5069C12.4692 12.7716 12.3159 13.1318 12.154 13.385C12.0371 13.5678 11.7537 13.4861 11.7492 13.2691L11.7267 12.1852L9.96176 12.321Z" fill="#E28079"/>
<path d="M9.96185 11.2685C10.0402 10.8172 10.2553 10.3551 10.6601 10.1407C10.8503 10.2751 10.8465 10.5302 10.4515 11.2167C10.3317 11.4249 10.36 11.6937 10.3957 11.931C10.4163 12.0673 10.4632 12.1988 10.4797 12.3356C10.5188 12.6566 10.2047 13.0142 10.0416 12.625C9.87633 12.2307 9.89023 11.6803 9.96185 11.2685Z" fill="#E28079"/>
<path d="M11.4324 11.0789C11.6044 10.6545 11.9124 10.2482 12.3534 10.1244C12.5108 10.2959 12.4531 10.5443 11.922 11.1319C11.7611 11.3099 11.7318 11.5786 11.7163 11.8182C11.7074 11.9557 11.7256 12.0941 11.7129 12.2314C11.6832 12.5535 11.3007 12.8364 11.2235 12.4215C11.1455 12.0014 11.2755 11.466 11.4324 11.0789Z" fill="#E28079"/>
<path d="M11.1795 9.84744C11.2337 9.78109 11.3053 9.71234 11.3956 9.71881C11.5005 9.72623 11.5697 9.83858 11.5606 9.93583C11.5513 10.0355 11.4859 10.1215 11.4263 10.2079C11.1173 10.6559 10.9098 11.259 10.8542 11.9685C10.8447 12.0902 10.9702 12.4316 10.8274 12.4919C10.3948 12.6752 10.4834 12.0569 10.488 11.9166C10.4976 11.6171 10.5359 11.3347 10.5982 11.0741C10.7134 10.5893 10.9146 10.1713 11.1795 9.84744Z" fill="#E28079"/>
<path d="M11.6703 9.88919C11.7376 9.7996 11.8274 9.70403 11.9391 9.71313C12.0679 9.72367 12.1436 9.87697 12.1237 10.0046C12.1039 10.1323 12.0193 10.2387 11.9436 10.3433C11.6291 10.7783 11.4214 11.2902 11.3443 11.8218C11.3225 11.9715 11.3091 12.1281 11.2305 12.2575C11.1819 12.3375 11.0508 12.4568 10.9445 12.4331C10.8219 12.4058 10.8482 12.3265 10.8508 12.2122C10.8578 11.9351 10.8997 11.657 10.9653 11.388C11.0968 10.8481 11.3366 10.334 11.6703 9.88919Z" fill="#E28079"/>
<path d="M9.9706 15.1439L9.60938 16.2499L11.5609 16.9649L11.8608 15.6182L9.9706 15.1439Z" fill="#E28079"/>
<path d="M13.1941 24.5416L6.57715 24.1016L8.27115 20.5981L14.8881 21.0384L13.1941 24.5416Z" fill="#DDDEE0"/>
<path d="M4.19419 13.1747C0.32591 13.5354 0.865826 18.8407 1.39688 19.4721C1.39688 19.4721 3.93381 25.8984 6.00725 26.6525C7.57286 27.2218 9.20195 24.8895 9.7675 23.3224C10.8445 20.3383 11.9018 16.9517 11.8131 15.824L9.96871 15.1439C9.32052 15.5708 6.82407 21.7252 6.82407 21.7252C6.82407 21.7252 4.91951 15.0931 4.19419 13.1747Z" fill="#E39367"/>
<path d="M22.8434 24.6735C22.8434 24.6735 23.9924 23.3759 22.5693 21.0862C21.1781 18.848 18.5401 14.7437 18.6642 14.7186C18.8345 14.6841 17.2864 14.7083 17.2864 14.7083C17.2864 14.7083 16.3912 14.1904 16.67 15.3138C16.6801 15.3541 18.0035 19.6353 18.6671 21.656C19.0434 22.8022 19.6705 23.8495 20.5031 24.7224C21.2241 25.5006 22.5902 25.1245 22.8434 24.6735Z" fill="#E39366"/>
<path d="M17.4341 3.83533L16.2587 3.22739C16.2587 3.22739 15.9801 3.69736 15.0274 3.31434C14.0748 2.93132 12.0172 2.50758 10.6386 3.22451C10.161 3.47291 9.669 4.13236 9.3291 4.982C9.94854 4.75755 10.8607 4.54556 12.0936 4.55922C12.0936 4.55922 15.1465 4.36136 16.1918 5.98685C16.1918 5.98685 17.9383 5.22465 17.4341 3.83533Z" fill="#803C3B"/>
<path d="M16.3443 14.8358L16.197 14.5893C15.9747 13.7359 16.407 12.4311 16.5716 11.9851C16.6056 11.8929 16.6978 11.8373 16.7956 11.8488L17.9537 11.9851C18.0795 12.0584 18.257 12.2035 18.4072 12.3487C18.5619 12.4982 18.6688 12.6874 18.72 12.8963C18.7557 13.0419 18.7059 13.3768 18.7138 13.5308C18.7138 13.5308 18.9255 15.2382 17.9844 15.4847C17.9803 15.4859 17.976 15.4869 17.9719 15.4881C17.3429 15.655 16.6787 15.3944 16.3443 14.8358Z" fill="#E28079"/>
<path d="M16.1532 14.6558C16.02 14.4467 15.9582 14.201 15.9065 13.9586C15.7709 13.3245 15.5972 12.3321 15.609 11.83C15.613 11.6614 15.8104 11.5555 15.9419 11.6612C16.066 11.761 16.1546 11.9237 16.1894 12.0832C16.2471 12.3489 16.2131 12.6306 16.29 12.8914C16.6447 13.1434 16.9909 13.4208 17.187 13.8263C17.273 14.0038 17.3176 14.2029 17.3078 14.4C17.2697 15.178 16.5444 15.2703 16.1532 14.6558Z" fill="#E28079"/>
<path d="M16.6198 9.50506C16.6128 9.37714 16.6066 9.2442 16.6471 9.12587C16.6876 9.00754 16.7898 8.90909 16.8943 8.93256C17.0533 8.96849 17.0895 9.21953 17.0895 9.41427C17.0895 10.4287 17.0893 11.4432 17.0893 12.4576C16.873 12.3599 16.4267 12.5477 16.5697 11.985C16.5697 11.985 16.648 10.0742 16.6198 9.50506Z" fill="#E28079"/>
<path d="M17.5079 9.35205C17.5149 9.23779 17.5228 9.12018 17.5774 9.02364C17.6315 8.92807 17.746 8.86004 17.8505 8.89645C18.0093 8.95154 18.0244 9.17359 18.0071 9.34438C17.9125 10.2807 17.8093 11.3026 17.6962 12.4222C17.4509 12.2773 17.2231 12.3803 17.209 12.0696C17.209 12.0696 17.4734 9.87591 17.5079 9.35205Z" fill="#E28079"/>
<path d="M18.3511 9.87472C18.3669 9.77986 18.3839 9.68333 18.4393 9.60213C18.4937 9.52212 18.5981 9.4608 18.6867 9.48356C18.8233 9.51853 18.8223 9.7001 18.7955 9.8443C18.6407 10.675 18.4551 11.67 18.229 12.8831C17.9973 12.7013 17.758 12.8023 17.7853 12.4581C17.7853 12.4581 18.2738 10.3227 18.3511 9.87472Z" fill="#E28079"/>
<path d="M18.8344 10.9997C18.8519 10.9074 18.8708 10.8121 18.9293 10.7383C18.9875 10.6648 19.0972 10.62 19.187 10.6609C19.3238 10.7232 19.3118 10.9084 19.2769 11.0461C19.0922 11.7777 18.8402 12.7442 18.6414 13.5311C18.4548 13.4005 18.3266 13.2269 18.3398 13.0098C18.3398 13.0098 18.7532 11.4141 18.8344 10.9997Z" fill="#E28079"/>
<path d="M114.705 9.29964C114.992 9.1897 115.05 8.81123 114.812 8.61672C112.173 6.4573 111.421 5.58946 108.943 3.59459C108.576 3.18834 109.619 1.53002 110.388 1.95544C111.843 2.761 115.754 4.6979 117.106 5.48119C118.041 6.0223 118.988 6.57323 119.742 7.34598C120.496 8.11873 121.046 9.15496 120.998 10.2336C120.956 11.1858 117.744 13.2273 115.229 14.9364C112.48 16.8043 109.332 17.6396 108.362 17.4873C106.925 17.2618 107.803 17.161 106.622 16.3118C105.092 15.2112 102.336 13.6913 104.479 12.9696C104.479 12.9696 106.06 11.9975 108.005 11.4686C111.16 10.6113 113.604 9.72195 114.705 9.29964Z" fill="#DC7368"/>
<path d="M106.259 2.84025L105.576 3.22686C105.576 3.22686 104.613 2.11877 104.704 1.66628C104.737 1.50483 104.838 1.44399 105.122 1.2653C105.278 1.16756 105.224 0.982403 105.496 0.788857C105.742 0.613516 105.913 0.828141 106.122 0.753166C106.704 0.54429 107.223 -0.0912013 107.955 0.349786C107.955 0.349786 108.784 0.688012 109.333 1.04325L108.478 2.52718L106.259 2.84025Z" fill="#C66058"/>
<path d="M110.244 1.82252C109.919 1.08499 109.117 0.686876 108.679 0.998273C108.078 1.42513 108.113 1.98229 108.113 1.98229C107.335 1.86588 106.439 2.26878 106.334 2.82809C106.324 2.68078 106.318 2.54951 106.318 2.54951L105.411 2.14326L105.522 3.01781C105.569 3.38119 105.825 3.68396 106.177 3.78337C106.636 3.91296 107.306 4.03009 107.96 3.88469C108.095 3.85451 109.318 3.98338 109.706 4.20735L111.369 2.47909C110.776 2.1241 110.278 1.90037 110.244 1.82252ZM106.369 3.15722C106.378 3.18165 106.384 3.20561 106.396 3.23028C106.386 3.23339 106.377 3.20393 106.369 3.15722Z" fill="#DC7368"/>
<path d="M105.412 2.14335C105.412 2.14335 106.216 1.94142 106.363 1.52008C106.383 1.46307 106.664 1.52199 106.635 2.03316C106.608 2.49092 105.983 2.75345 105.983 2.75345L105.412 2.14335Z" fill="#DC7368"/>
<path d="M104.923 1.44266C104.697 1.50014 104.622 1.77609 104.773 1.9864C104.924 2.19767 105.307 2.3493 105.423 2.41829C105.656 2.55746 105.831 2.45039 105.824 2.1766C105.816 1.90089 105.29 1.34924 104.923 1.44266Z" fill="#DC7368"/>
<path d="M105.362 0.913686C105.042 1.29335 105.591 1.58343 105.856 1.82776C106.124 2.07472 106.194 2.16958 106.36 2.11113C106.529 2.0522 106.679 1.93148 106.534 1.53552C106.388 1.13909 105.943 0.860509 105.943 0.860509C105.943 0.860509 106.565 1.19131 106.706 1.45264C106.846 1.71446 107.018 1.72021 107.185 1.5899C107.355 1.45791 107.476 1.02315 107.048 0.599413C107.048 0.599413 107.518 1.01525 107.635 1.16113C107.752 1.30748 108.113 1.13909 107.977 0.635344C107.84 0.129682 107.324 -0.0772784 106.999 0.0257225C106.806 0.0868044 106.818 0.343827 106.818 0.343827C106.818 0.343827 106.175 0.118903 105.924 0.656903C105.924 0.656903 105.613 0.6169 105.362 0.913686Z" fill="#DC7368"/>
<path d="M96.0236 76.4682C96.0303 76.748 96.0636 76.9444 96.0636 76.9444L104.152 76.7523C104.148 76.5925 104.142 76.4325 104.13 76.2758C103.988 74.1624 103.276 72.3422 103.276 72.3422L101.234 71.5222C101.085 72.5685 100.652 73.2445 100.1 73.6917C99.9547 73.8122 99.8028 73.913 99.6447 73.9995C99.5714 74.0412 99.4981 74.0802 99.4219 74.1162C99.2552 74.1974 99.0825 74.2642 98.9098 74.3198C98.2013 74.5538 97.4798 74.6166 96.9763 74.7057C96.1168 74.8604 96.0093 75.8602 96.0236 76.4682Z" fill="#C6DCE3"/>
<path d="M96.0234 76.4682C96.0301 76.748 96.0634 76.9444 96.0634 76.9444L104.152 76.7523C104.148 76.5925 104.142 76.4325 104.129 76.2759L96.0234 76.4682Z" fill="#A6C1C9"/>
<path d="M99.6445 73.9998L100.775 74.333L101.002 73.9162L100.1 73.692C99.9542 73.8125 99.8024 73.9131 99.6445 73.9998Z" fill="#A6C1C9"/>
<path d="M98.9092 74.3201L99.6776 74.8046L100.139 74.6109L99.4213 74.1165C99.2546 74.1977 99.0819 74.2645 98.9092 74.3201Z" fill="#A6C1C9"/>
<path d="M113.3 77.0315C113.328 77.3051 113.406 77.5056 113.406 77.5056L118.793 77.3439C118.857 77.1848 118.9 77.0263 118.93 76.8627C119.383 74.2689 115.709 71.222 115.709 71.222L114.618 72.7721C114.618 72.7721 114.822 75.1948 113.876 75.7289C113.308 76.0485 113.251 76.6214 113.3 77.0315Z" fill="#C6DCE3"/>
<path d="M118.929 76.8625L113.3 77.0314C113.328 77.305 113.405 77.5055 113.405 77.5055L118.792 77.3438C118.856 77.185 118.9 77.0264 118.929 76.8625Z" fill="#A6C1C9"/>
<path d="M114.115 75.5281C114.115 75.5281 116.369 74.9424 117.424 75.5815L117.413 75.2068C117.413 75.2068 115.476 74.3361 114.115 75.5281Z" fill="#A6C1C9"/>
<path d="M114.548 74.9388C114.548 74.9388 115.977 74.2327 117.403 74.8531L117.231 74.4801C117.231 74.4801 115.533 73.8956 114.548 74.9388Z" fill="#A6C1C9"/>
<path d="M93.9238 16.0012C93.9238 16.0012 95.705 14.5989 100.359 13.6374C104.62 12.7569 106.088 12.3087 107.016 12.8158C107.342 12.9936 108.655 14.2744 110.011 16.7004C110.653 17.8502 111.074 19.1121 111.257 20.4163L113.494 36.3348C110.691 37.9591 107.028 39.316 100.079 39.5089C100.079 39.5089 100.078 36.5467 97.4465 29.2313C96.8677 27.6221 95.4799 23.7909 95.013 22.2969C93.9289 18.826 93.9238 16.0012 93.9238 16.0012Z" fill="#0E5D99"/>
<path d="M98.7759 12.9435L98.5361 14.272C98.5361 14.272 101.268 16.1052 103.226 13.1641C103.226 13.1641 101.658 11.9384 101.998 10.0492C101.998 10.0492 101.76 10.1263 101.388 10.2717C101.388 10.2717 101.52 12.3605 98.7759 12.9435Z" fill="#C66058"/>
<path d="M101.675 8.28926C102.742 12.2366 99.0839 13.7945 97.7186 12.5885C97.2809 12.2023 96.7652 11.4246 96.346 10.5383C96.2502 10.3375 96.1601 10.1323 96.0773 9.9241C95.5146 8.51227 95.2739 6.99744 95.9874 6.39477C98.4702 4.29594 100.607 4.34194 101.675 8.28926Z" fill="#DC7368"/>
<path d="M98.743 8.34749C98.8204 8.5614 98.7866 8.76932 98.6681 8.81244C98.5492 8.85531 98.3904 8.71686 98.3131 8.50319C98.2357 8.28929 98.2695 8.08137 98.388 8.03825C98.5068 7.99514 98.6657 8.13383 98.743 8.34749Z" fill="#304951"/>
<path d="M96.8465 9.21677C96.9239 9.43067 96.8901 9.63859 96.7716 9.68171C96.6528 9.72458 96.494 9.58613 96.4166 9.37246C96.3392 9.1588 96.373 8.95064 96.4916 8.90752C96.6101 8.86441 96.7692 9.00286 96.8465 9.21677Z" fill="#304951"/>
<path d="M99.8139 8.71542C99.9272 8.86393 99.8687 9.09916 99.6831 9.24072C99.4975 9.38253 99.2551 9.37702 99.1418 9.22875C99.0285 9.08047 99.0869 8.84501 99.2725 8.70344C99.4582 8.56163 99.7006 8.56691 99.8139 8.71542Z" fill="#C66058"/>
<path d="M96.7196 10.1746C96.7347 10.354 96.5684 10.5133 96.3459 10.5382C96.2501 10.3375 96.16 10.1322 96.0771 9.92405C96.1361 9.89291 96.2027 9.87423 96.2738 9.86824C96.5071 9.85123 96.7067 9.98897 96.7196 10.1746Z" fill="#C66058"/>
<path d="M98.5623 6.93191C98.545 6.9506 98.5223 6.96449 98.4957 6.97096C98.1575 7.05408 97.9541 7.42967 97.9517 7.43374C97.9177 7.49842 97.8355 7.52405 97.7704 7.48907C97.705 7.45434 97.6801 7.37314 97.7151 7.30751C97.7251 7.28763 97.9774 6.82173 98.4318 6.71034C98.5036 6.69261 98.5764 6.73669 98.5939 6.80855C98.6052 6.8543 98.5918 6.90005 98.5623 6.93191Z" fill="#4C3033"/>
<path d="M95.6793 8.42761C95.6106 8.40605 95.5706 8.33395 95.5898 8.26376C95.6724 7.96458 96.0729 7.95692 96.2966 7.99979C96.3673 8.01177 96.4169 8.08339 96.4032 8.15645C96.3896 8.22927 96.3196 8.27718 96.2466 8.26352C96.1213 8.24005 95.8758 8.23718 95.8487 8.33539C95.8288 8.40677 95.7553 8.44893 95.6837 8.42904C95.6822 8.42857 95.6805 8.42809 95.6793 8.42761Z" fill="#4C3033"/>
<path d="M97.2577 10.7632C97.1736 10.7632 97.0988 10.7472 97.0332 10.7153C96.8634 10.6322 96.8272 10.4765 96.8236 10.459L96.8174 10.4283L96.8279 10.3991C97.1568 9.49222 96.8907 8.52161 96.8878 8.51203L97.1005 8.45215C97.1123 8.49407 97.3815 9.47569 97.049 10.4369C97.0605 10.4599 97.0854 10.4959 97.1343 10.5186C97.2488 10.5718 97.449 10.5337 97.6972 10.4116L97.7949 10.6097C97.5877 10.7119 97.4078 10.7632 97.2577 10.7632Z" fill="#B66657"/>
<path d="M99.2601 11.2545L98.1396 11.8025C98.1396 11.8025 97.7043 11.0458 98.72 10.6863C98.8702 10.6331 98.9971 10.6104 99.1049 10.6089C99.4688 10.6039 99.5869 11.0947 99.2601 11.2545Z" fill="#304951"/>
<path d="M95.5659 7.30022C95.5659 7.30022 92.8146 5.88527 96.4639 4.56207C97.418 4.21618 99.4593 3.17515 100.882 3.75268C100.882 3.75268 103.779 5.76431 102.077 11.4365L101.71 10.0489C101.71 10.0489 102.076 9.15735 101.757 8.63947C101.437 8.12183 101.246 8.65671 101.246 8.65671C101.246 8.65671 100.591 8.24711 99.982 6.55023C99.6471 5.61771 99.4668 5.51495 99.4668 5.51495C99.4668 5.51495 96.444 5.60358 95.5659 7.30022Z" fill="#0C2649"/>
<path d="M101.27 8.42274C101.27 8.42274 101.631 7.46555 102.371 7.70581C103.112 7.94606 102.623 9.6427 101.98 9.81732C101.337 9.99242 101.27 8.42274 101.27 8.42274Z" fill="#DC7368"/>
<path d="M96.0753 53.4063C95.8751 55.9844 95.968 57.8068 96.7362 60.2759L100.387 71.4551L100.322 72.1419L100.759 72.8715L103.617 73.4028L103.898 72.4866C103.898 72.4866 103.501 71.4954 103.483 71.2218C103.251 67.7205 102.621 59.732 101.501 56.5377L105.065 47.232L98.4093 45.4359C98.4093 45.4359 96.3941 49.2989 96.0753 53.4063Z" fill="#0C2649"/>
<path d="M109.631 55.9013L114.233 72.2531L114.115 73.1224L114.547 73.5183C115.453 72.9923 116.544 72.8883 117.533 73.2333L117.947 73.6915C117.947 73.6915 118.13 73.1133 118.112 72.7111C118.112 72.7111 117.709 72.1314 117.704 71.8888C117.423 58.5245 115.412 56.0297 115.412 56.0297L115.769 45.0396L108.165 46.9688C108.166 46.9693 108.863 53.4322 109.631 55.9013Z" fill="#0C2649"/>
<path d="M94.4391 28.5662C94.945 27.1369 95.3477 25.9538 95.5716 25.2428C96.3597 22.739 98.0101 21.3132 97.355 18.4999C97.068 17.2675 95.4935 15.4978 94.4973 15.6202C93.515 15.7409 92.0042 17.5987 91.986 18.9358C91.9575 21.0284 90.3593 23.4564 89.6682 26.0434C89.6666 26.0496 89.6651 26.0556 89.6635 26.0616C89.3715 27.1551 88.7942 28.9358 89.3494 29.9219L90.8348 30.6499L94.4391 28.5662Z" fill="#C66058"/>
<path d="M99.5361 20.0452L100.125 18.9146L100.456 17.8889C100.734 17.3705 101.124 17.1497 101.712 17.1312L103.056 17.1346L103.615 18.2606C103.798 18.8322 103.795 19.5563 103.462 20.0557L101.155 21.9505L99.5361 20.0452Z" fill="#DC7368"/>
<path d="M101.724 17.6886L102.829 16.0774L103.618 14.6105C103.838 14.3116 104.142 14.5075 104.099 14.8259L102.625 18.0852L101.724 17.6886Z" fill="#DC7368"/>
<path d="M101.868 17.2466L101.326 17.7987C101.272 17.8588 101.25 17.9405 101.266 18.0196L101.306 18.3135L102.11 17.1251L101.868 17.2466Z" fill="#C66058"/>
<path d="M89.2609 27.6633C89.1237 28.2077 89.1246 28.7783 89.231 29.3295C89.5462 30.9624 89.9848 33.1877 92.4774 32.4277C96.9139 31.075 101.154 21.9503 101.154 21.9503L99.5354 20.0453L94.3803 23.9953C94.3803 23.9953 89.6691 26.0433 89.2609 27.6633Z" fill="#DC7368"/>
<path d="M99.8529 37.668C99.8529 37.668 96.4471 43.7965 95.9841 47.3659C95.5831 50.4559 99.6869 53.3596 105.065 51.907L106.636 46.3358L107.619 51.907C107.619 51.907 112.977 52.72 116.181 50.2022C119.386 47.6844 113.415 35.7754 113.415 35.7754C113.415 35.7754 104.151 38.2968 99.8529 37.668Z" fill="#86BDDC"/>
<path d="M116.315 50.2023H116.05V49.5242C115.768 45.9908 114.993 43.2411 113.917 40.2023L112.413 35.9568L112.662 35.8684L114.166 40.114C115.249 43.1721 116.029 45.9409 116.314 49.5134L116.315 50.2023Z" fill="#FFB777"/>
<path d="M116.697 49.1988C116.41 45.6055 115.637 42.8506 114.563 39.8195L112.937 35.8252L113.181 35.7256L114.811 39.7256C115.889 42.7718 116.667 45.5373 116.958 49.1411H116.961V49.1883L116.697 49.1988Z" fill="#FFB777"/>
<path d="M93.4165 78.8005L57.0742 49.8821L57.6069 49.2126L93.949 78.131L93.9574 78.3058C93.9715 78.6036 93.7119 78.8412 93.4165 78.8005Z" fill="#0462A0"/>
<path d="M53.4659 48.5806C52.3719 49.1732 51.5244 50.1244 50.6978 51.054C49.8711 51.9839 49.0172 52.931 47.917 53.5117C48.0095 53.9378 48.5369 54.1498 48.9607 54.047C49.3844 53.9445 49.7157 53.6207 50.0043 53.2939C50.9761 52.1937 51.7376 50.8952 52.8689 49.9596C53.9653 49.0529 55.6157 48.5322 56.9205 49.3071C57.5279 48.6347 56.5192 48.1848 55.9803 48.0924C55.1292 47.9467 54.2151 48.1745 53.4659 48.5806Z" fill="#829BA1"/>
<path d="M53.5624 49.0774C52.6488 49.9217 52.0622 51.0528 51.4909 52.158C50.9196 53.2633 50.326 54.392 49.4033 55.2265C49.5981 55.6165 50.1617 55.6917 50.5469 55.4876C50.932 55.2835 51.1733 54.888 51.3721 54.5C52.0421 53.1938 52.4591 51.7475 53.3243 50.5615C54.1629 49.4122 55.6334 48.5001 57.0891 48.9286C57.5116 48.1269 56.4232 47.9403 55.8782 47.9836C55.0176 48.0524 54.1881 48.4989 53.5624 49.0774Z" fill="#829BA1"/>
<path d="M53.8382 49.9111C53.1955 50.9764 52.9469 52.226 52.7054 53.4465C52.4639 54.6669 52.2081 55.9161 51.5537 56.9744C51.8493 57.2949 52.4115 57.2103 52.7248 56.907C53.0381 56.6038 53.1596 56.1568 53.2427 55.7288C53.5227 54.2877 53.521 52.7827 54.0221 51.4027C54.5079 50.0654 55.6666 48.7803 57.184 48.7867C57.3668 47.8993 56.2695 48.0226 55.7581 48.2162C54.9508 48.5216 54.2784 49.1813 53.8382 49.9111Z" fill="#829BA1"/>
<path d="M53.6429 48.0157C52.5489 48.6084 51.7014 49.5596 50.8745 50.4892C50.0479 51.4191 49.1939 52.3662 48.0938 52.9468C48.1862 53.373 48.7137 53.585 49.1374 53.4822C49.5612 53.3797 49.8924 53.0558 50.1811 52.7291C51.1529 51.6289 51.9141 50.3304 53.0457 49.3948C54.1421 48.4881 55.7925 47.9674 57.0972 48.7423C57.7047 48.0699 56.696 47.62 56.1573 47.5276C55.306 47.3819 54.3919 47.6097 53.6429 48.0157Z" fill="#829BA1"/>
<path d="M53.5476 46.4439C52.3722 46.8514 51.3815 47.6527 50.4149 48.4362C49.4484 49.2197 48.4524 50.0159 47.2725 50.4107C47.2945 50.8462 47.7808 51.1408 48.2155 51.1082C48.6503 51.0756 49.0297 50.81 49.3675 50.5343C50.5045 49.6061 51.4665 48.4482 52.7346 47.7085C53.9634 46.9915 55.6764 46.7453 56.8381 47.7214C57.5464 47.1563 56.6242 46.5489 56.1073 46.3704C55.2917 46.0882 54.3527 46.1649 53.5476 46.4439Z" fill="#829BA1"/>
<path d="M53.7873 47.1324C52.6718 47.6831 51.7883 48.6012 50.927 49.499C50.0656 50.3968 49.1764 51.3106 48.0547 51.8491C48.1309 52.2784 48.6499 52.5102 49.0773 52.4238C49.5046 52.3373 49.8479 52.0264 50.1487 51.7109C51.1615 50.6483 51.9718 49.3797 53.1379 48.4879C54.268 47.6237 55.9369 47.1662 57.2112 47.9899C57.8438 47.341 56.8531 46.8533 56.318 46.7405C55.4736 46.5623 54.5514 46.7551 53.7873 47.1324Z" fill="#A6C1C9"/>
<path d="M53.8142 48.0098C52.8958 48.8491 52.3029 49.9766 51.7252 51.0785C51.1476 52.1804 50.5476 53.3057 49.6201 54.135C49.8127 54.5261 50.3758 54.6045 50.7622 54.4025C51.1486 54.2006 51.392 53.8066 51.5932 53.4197C52.2704 52.1174 52.6958 50.6734 53.5677 49.4923C54.4128 48.3478 55.8886 47.444 57.3416 47.8807C57.7687 47.0813 56.6812 46.8885 56.136 46.929C55.2753 46.9932 54.4432 47.4349 53.8142 48.0098Z" fill="#A6C1C9"/>
<path d="M54.164 46.1366C52.9469 46.3946 51.8642 47.0663 50.8079 47.7233C49.7515 48.3804 48.664 49.0465 47.444 49.2913C47.4117 49.7261 47.8575 50.0792 48.293 50.1007C48.7284 50.1225 49.1378 49.906 49.5074 49.6746C50.7513 48.8951 51.8498 47.8661 53.2001 47.2898C54.5087 46.7314 56.2389 46.7 57.2703 47.8131C58.0435 47.3405 57.204 46.6231 56.7134 46.3817C55.9387 46.0008 54.9976 45.9598 54.164 46.1366Z" fill="#C2D2D6"/>
<path d="M53.3733 49.7543C52.2794 50.3469 51.4316 51.2981 50.605 52.2277C49.7784 53.1576 48.9244 54.1047 47.8242 54.6854C47.9167 55.1115 48.4441 55.3235 48.8679 55.2207C49.2916 55.1182 49.6229 54.7944 49.9115 54.4676C50.8831 53.3674 51.6446 52.0689 52.7762 51.1333C53.8725 50.2266 55.5229 49.7059 56.8277 50.4808C57.4352 49.8084 56.4267 49.3586 55.8877 49.2661C55.0367 49.1205 54.1226 49.3483 53.3733 49.7543Z" fill="#A6C1C9"/>
<path d="M53.4696 50.2511C52.556 51.0955 51.9694 52.2266 51.3981 53.3318C50.8268 54.437 50.2332 55.5657 49.3105 56.4C49.5053 56.7902 50.0689 56.8652 50.4541 56.6611C50.8393 56.457 51.0805 56.0616 51.2793 55.6735C51.9493 54.3673 52.3663 52.9212 53.2315 51.735C54.0701 50.5858 55.5407 49.6736 56.9963 50.1021C57.4189 49.3004 56.3304 49.1138 55.7855 49.1574C54.9248 49.2261 54.0953 49.6726 53.4696 50.2511Z" fill="#A6C1C9"/>
<path d="M53.7454 51.0848C53.1027 52.1501 52.8541 53.3997 52.6126 54.6202C52.3712 55.8406 52.1151 57.0898 51.4609 58.1481C51.7565 58.4686 52.3187 58.384 52.632 58.0808C52.9453 57.7775 53.0668 57.3305 53.1499 56.9025C53.4299 55.4614 53.4283 53.9564 53.9294 52.5764C54.4151 51.2391 55.5738 49.954 57.0913 49.9607C57.274 49.0732 56.1767 49.1966 55.6653 49.3901C54.8581 49.6953 54.1854 50.3552 53.7454 51.0848Z" fill="#A6C1C9"/>
<path d="M53.5501 49.1892C52.4561 49.7818 51.6086 50.733 50.7818 51.6627C49.9551 52.5926 49.1012 53.5397 48.001 54.1203C48.0934 54.5465 48.6209 54.7584 49.0446 54.6557C49.4684 54.5532 49.7997 54.2293 50.0883 53.9026C51.0601 52.8021 51.8213 51.5039 52.9529 50.5682C54.0493 49.6616 55.6997 49.1408 57.0042 49.9157C57.6117 49.2433 56.603 48.7935 56.0643 48.701C55.2134 48.5556 54.2994 48.7834 53.5501 49.1892Z" fill="#829BA1"/>
<path d="M57.6351 46.9141L55.4785 51.3259L56.2515 52.0299L58.6603 47.1239L57.6351 46.9141Z" fill="#6AADC7"/>
<path d="M55.7793 50.7122L56.5782 51.3661L58.6612 47.1239L57.6359 46.9141L55.7793 50.7122Z" fill="#86BDDC"/>
<path d="M43.0532 56.5627C42.9811 56.6669 42.914 56.7989 42.9653 56.9146C43 56.993 43.0817 57.0406 43.1641 57.0636C43.3737 57.1221 43.6025 57.049 43.7792 56.9218C43.9558 56.7946 44.0899 56.6183 44.2214 56.4449C44.4782 56.1057 44.8059 55.7627 45.0014 55.3893C44.3074 55.2748 43.4175 56.0355 43.0532 56.5627Z" fill="#86BDDC"/>
<path d="M44.7442 53.0286C44.7023 53.0686 44.6657 53.1213 44.7088 53.175C44.738 53.2114 44.7969 53.2377 44.8549 53.2533C45.002 53.2933 45.1531 53.2775 45.265 53.2346C45.3766 53.1917 45.4559 53.1247 45.5337 53.0588C45.6854 52.9297 45.8854 52.8037 45.9927 52.6554C45.5107 52.5577 44.9562 52.8255 44.7442 53.0286Z" fill="#86BDDC"/>
<path d="M46.0206 57.8713C46.007 57.9276 46.0041 57.9918 46.0695 58.0138C46.1136 58.0287 46.1775 58.0191 46.2348 58.0014C46.3804 57.9559 46.4992 57.8612 46.5704 57.765C46.6415 57.6687 46.6722 57.5695 46.7021 57.472C46.7606 57.2816 46.8612 57.0679 46.8719 56.8851C46.4132 57.0617 46.0899 57.586 46.0206 57.8713Z" fill="#86BDDC"/>
<path d="M97.9776 83.5304C97.9776 86.5778 96.5136 89.0462 94.7072 89.0462C93.7297 89.0462 92.8537 88.3233 92.2546 87.1745C92.2929 87.1383 92.3334 87.1002 92.3739 87.0619L92.0587 86.7375L92.052 86.7442C91.7298 85.9875 91.5183 85.0866 91.4574 84.1091C91.4462 83.9177 91.4395 83.7263 91.4395 83.5301C91.4395 83.528 91.4395 83.528 91.4395 83.5256C91.4416 80.4827 92.9035 78.0165 94.7075 78.0165C96.5136 78.017 97.9776 80.4854 97.9776 83.5304Z" fill="#C6DCE3"/>
<path d="M104.914 89.0261L94.708 89.0467V78.0165L105.155 79.0755L104.914 89.0261Z" fill="#C6DCE3"/>
<path d="M107.812 84.0971C107.812 86.8515 106.623 89.0838 105.155 89.0838C105.074 89.0838 104.993 89.077 104.914 89.0634C103.558 88.8358 102.497 86.6984 102.497 84.0971C102.497 81.4957 103.558 79.3605 104.914 79.1329C104.993 79.1195 105.074 79.1125 105.155 79.1125C106.623 79.1125 107.812 81.3446 107.812 84.0971Z" fill="#768C91"/>
<path d="M107.33 84.0971C107.33 86.6985 106.27 88.8359 104.914 89.0634C103.558 88.8359 102.497 86.6985 102.497 84.0971C102.497 81.4957 103.558 79.3605 104.914 79.1329C106.27 79.3605 107.33 81.4955 107.33 84.0971Z" fill="#A6C1C9"/>
<path d="M92.3727 87.0621C92.3322 87.1005 92.2918 87.1388 92.2534 87.1747C92.1813 87.0372 92.1138 86.8932 92.0508 86.7445L92.0575 86.7378L92.3727 87.0621Z" fill="#C6DCE3"/>
<path d="M92.0509 86.7445C92.1139 86.8932 92.1815 87.0372 92.2536 87.1747C90.9584 88.4045 89.8414 89.0733 89.0981 89.0733C88.9834 89.0733 88.8751 89.0575 88.7784 89.0237C88.4902 88.9245 88.3055 88.6859 88.2581 88.3503C88.1139 87.3369 89.1724 85.4742 91.4384 83.5258C91.9204 83.1114 92.4564 82.6925 93.0467 82.2781L93.3056 82.6474C92.6028 83.1406 91.9879 83.6317 91.4564 84.1091C89.4249 85.9358 88.6028 87.5618 88.7041 88.2871C88.7357 88.5077 88.8459 88.5686 88.9247 88.5978C89.3391 88.7401 90.4043 88.3369 92.0509 86.7445Z" fill="#0C2649"/>
<path d="M94.7987 78.8869C94.2303 78.8306 93.8942 78.7982 93.9438 78.8054L93.5196 79.1338C93.3852 79.2378 93.3066 79.398 93.3066 79.5679V79.7775L94.4464 79.8474C94.4454 79.5164 94.5774 79.1566 94.7987 78.8869Z" fill="#DEEEF2"/>
<path d="M95.6016 78.9668C95.5788 78.9912 95.5491 79.013 95.5101 79.0296C95.191 79.1651 95.0011 79.5383 95.0039 79.8814L102.498 80.3405C102.498 80.1259 102.623 79.9309 102.818 79.8416L103.076 79.723C103.076 79.723 98.2365 79.2308 95.6016 78.9668Z" fill="#DEEEF2"/>
</svg>
