<svg width="212" height="86" viewBox="0 0 212 86" fill="none" xmlns="http://www.w3.org/2000/svg">
<g clip-path="url(#clip0_1914_7009)">
<path d="M95.7929 46.9547V50.0354C95.7929 51.1171 95.7929 52.2335 95.6889 53.393H103.815V66.036H94.5528C94.1696 67.9279 93.6715 69.7948 93.0612 71.6263C92.5133 73.3079 91.7589 74.9152 90.8151 76.4118C89.5182 78.2782 87.9247 79.9209 86.0974 81.2751C84.1049 82.737 81.8838 83.8599 79.5239 84.5981C76.7667 85.4523 73.9029 85.9155 71.0165 85.9741C67.4989 86.0516 63.9839 85.7264 60.5405 85.0049V72.3532C62.6855 73.199 64.9342 73.7549 67.2268 74.0061C69.4689 74.2845 71.743 74.1555 73.939 73.6253C75.9863 73.1388 77.8774 72.1447 79.4372 70.735C81.0713 69.1821 82.1394 67.1295 82.4725 64.9024C82.7211 61.8736 82.9119 58.7381 83.0448 55.4959C83.1778 52.2537 83.2038 48.723 83.1229 44.9038V25.6148H95.7929V46.9547Z" fill="white"/>
<path d="M123.197 40.5251C121.531 40.6091 119.863 40.4131 118.262 39.9453C116.813 39.5386 115.472 38.8176 114.334 37.8338C113.246 36.8689 112.409 35.6541 111.897 34.2944C111.341 32.7368 111.175 31.0675 111.411 29.4311C111.562 28.2836 111.853 27.1588 112.279 26.0821C112.685 25.0864 113.194 24.1352 113.796 23.2437C114.408 22.3435 115.068 21.4768 115.774 20.6476L117.994 18.0515L133.699 0.00867462L143.238 8.2729L126.284 27.8907H151.963C154.864 27.8278 157.744 28.3885 160.409 29.5349C162.713 30.5389 164.781 32.0128 166.48 33.8618C168.082 35.634 169.306 37.7125 170.079 39.9712C170.87 42.218 171.274 44.582 171.275 46.9634C171.274 49.3498 170.86 51.718 170.053 53.9642C169.259 56.2187 168.027 58.2948 166.428 60.0737C164.743 61.9117 162.697 63.3845 160.418 64.4005C157.764 65.5517 154.891 66.1156 151.997 66.0533H103.754V53.4104H151.85C153.272 53.4657 154.684 53.1368 155.934 52.4585C156.933 51.8989 157.758 51.0755 158.319 50.0787C158.839 49.1279 159.091 48.0543 159.048 46.972C159.028 45.8798 158.729 44.8106 158.18 43.8654C157.592 42.8807 156.763 42.0617 155.77 41.4856C154.582 40.8231 153.236 40.4969 151.876 40.5424L123.197 40.5251Z" fill="white"/>
<path d="M192.713 20.639C194.667 22.2255 196.653 23.9995 198.671 25.961C200.674 27.9043 202.522 30.002 204.195 32.2349C205.815 34.3823 207.188 36.7045 208.288 39.1578C209.328 41.4344 209.889 43.8995 209.936 46.4009C209.987 49.0246 209.478 51.6292 208.444 54.0421C207.452 56.3903 206.008 58.5217 204.195 60.316C202.371 62.1083 200.223 63.5385 197.864 64.5303C195.431 65.5568 192.814 66.0807 190.172 66.0707H175.872V53.419H189.955C191.102 53.4498 192.244 53.2496 193.311 52.8306C194.187 52.4783 194.973 51.9341 195.609 51.2383C196.203 50.5784 196.655 49.8037 196.936 48.9624C197.228 48.1292 197.358 47.248 197.318 46.3663C197.195 45.0132 196.739 43.7114 195.991 42.576C195.082 41.1171 194.031 39.7518 192.852 38.5001C191.481 37.0372 190.034 35.6478 188.516 34.3377C186.926 32.9531 185.356 31.6291 183.807 30.3657L192.713 20.639Z" fill="white"/>
<path d="M19.4692 70.6052C16.4732 70.6343 13.5091 69.9895 10.797 68.7187C8.53257 67.5959 6.57233 65.9456 5.08205 63.9072C3.57605 61.7944 2.50057 59.407 1.9167 56.8805C1.24749 54.0654 0.918506 51.1805 0.936755 48.2874L12.1499 43.8567C12.1613 45.4349 12.324 47.0084 12.6355 48.5557C12.9406 50.1603 13.5278 51.6984 14.3699 53.0988C15.219 54.4942 16.3757 55.678 17.7521 56.5603C19.3801 57.5322 21.2495 58.027 23.1462 57.9881H43.3957C44.7955 58.0581 46.1892 57.7597 47.437 57.1228C48.371 56.6191 49.1413 55.8595 49.657 54.9334C50.1071 54.0593 50.2853 53.0709 50.1687 52.095C50.0605 51.071 49.6869 50.0927 49.0847 49.2566C48.4186 48.3496 47.5482 47.6115 46.5437 47.1019C45.3354 46.4982 43.9907 46.2179 42.6412 46.2884L35.8162 46.3403C33.9648 46.4702 32.1043 46.3332 30.2921 45.9336C28.8583 45.6228 27.4924 45.0571 26.2595 44.2635C25.2267 43.5808 24.342 42.6979 23.6579 41.6674C23.0112 40.6644 22.5692 39.544 22.357 38.3703C21.922 36.3725 21.9398 34.3029 22.4091 32.3127C22.8777 30.4117 23.6476 28.5975 24.6898 26.9388C25.7669 25.2166 27.0481 23.6302 28.5056 22.2139C30.0125 20.7297 31.602 19.3314 33.2666 18.0256C34.949 16.7102 36.6372 15.4929 38.3312 14.3737C40.0251 13.2545 41.5977 12.2103 43.0488 11.2411L50.7931 21.288C47.7265 22.6977 44.8046 24.4018 42.0689 26.3764C39.2498 28.432 36.7662 30.9102 34.7062 33.7233C36.1111 33.7233 37.5247 33.7233 38.9296 33.7233C40.3344 33.7233 41.7307 33.7233 43.1009 33.7752C44.4779 33.8292 45.8506 33.965 47.2115 34.1819C48.5908 34.3973 49.9508 34.7214 51.2787 35.1512C53.5498 35.8777 55.6501 37.0551 57.4533 38.6126C59.0423 40.0026 60.3544 41.6789 61.3211 43.5538C62.2509 45.37 62.8388 47.3411 63.0555 49.3691C63.2655 51.3926 63.1573 53.4365 62.7347 55.4267C62.2949 57.4567 61.5431 59.4066 60.5059 61.2073C59.465 63.0493 58.109 64.6952 56.4994 66.0707C54.8247 67.5096 52.9113 68.6459 50.8451 69.4283C48.548 70.2772 46.1139 70.6967 43.6645 70.6657L19.4692 70.6052Z" fill="white"/>
<path d="M47.1508 77.2252C47.6327 77.7023 48.0152 78.2698 48.2763 78.8951C48.5373 79.5204 48.6717 80.191 48.6717 80.8684C48.6717 81.5458 48.5373 82.2164 48.2763 82.8417C48.0152 83.467 47.6327 84.0346 47.1508 84.5116C46.1858 85.4676 44.8812 86.004 43.5215 86.004C42.1617 86.004 40.8571 85.4676 39.8922 84.5116C38.9294 83.5495 38.3887 82.2454 38.3887 80.8857C38.3887 79.5261 38.9294 78.222 39.8922 77.2598C40.8579 76.2986 42.1662 75.7588 43.5302 75.7588C44.8941 75.7588 46.2025 76.2986 47.1681 77.2598" fill="white"/>
<path d="M32.0957 77.2252C32.5777 77.7023 32.9602 78.2698 33.2212 78.8951C33.4823 79.5204 33.6166 80.191 33.6166 80.8684C33.6166 81.5458 33.4823 82.2164 33.2212 82.8417C32.9602 83.467 32.5777 84.0346 32.0957 84.5116C31.1323 85.467 29.8291 86.0033 28.4708 86.0033C27.1124 86.0033 25.8093 85.467 24.8458 84.5116C23.883 83.5495 23.3423 82.2454 23.3423 80.8857C23.3423 79.5261 23.883 78.222 24.8458 77.2598C25.8115 76.2986 27.1198 75.7588 28.4838 75.7588C29.8478 75.7588 31.1561 76.2986 32.1218 77.2598" fill="white"/>
<path d="M189.036 5.27008C189.639 5.86557 190.118 6.57448 190.444 7.35579C190.771 8.1371 190.939 8.97531 190.939 9.82191C190.939 10.6685 190.771 11.5067 190.444 12.288C190.118 13.0693 189.639 13.7782 189.036 14.3737C187.832 15.5685 186.203 16.2392 184.505 16.2392C182.807 16.2392 181.177 15.5685 179.973 14.3737C178.773 13.1719 178.1 11.5444 178.1 9.84787C178.1 8.1513 178.773 6.52388 179.973 5.32202C181.178 4.12193 182.811 3.4479 184.513 3.4479C186.216 3.4479 187.848 4.12193 189.053 5.32202" fill="white"/>
<path d="M62.2923 17.264C60.5579 15.9747 58.9362 14.7545 57.3145 13.4997C57.2195 13.4234 57.1407 13.3291 57.0826 13.2221C57.0246 13.1151 56.9884 12.9977 56.9763 12.8767C56.9626 10.0388 57.708 7.24862 59.1356 4.79414C59.76 3.77301 60.0029 3.67782 61.0175 4.3355C64.0961 6.3345 66.4463 8.94789 67.3915 12.5651C67.9292 14.5814 68.2588 16.6583 68.6403 18.7006C68.7199 19.1536 68.9072 19.5809 69.1867 19.9467C69.681 18.3717 70.0973 16.7621 70.6783 15.2218C71.9011 12.0286 73.2106 8.87866 74.494 5.70277C74.6405 5.3853 74.8147 5.08127 75.0144 4.79414C76.7488 1.84325 78.9689 2.66535 80.6686 4.45665C80.9014 4.68708 81.0404 4.99536 81.0589 5.32202C80.9635 7.16525 80.8074 8.99982 80.6686 10.8344L80.2957 10.9209C80.0009 10.6181 79.6974 10.3325 79.4285 10.0556C78.041 8.55849 76.7141 8.57579 75.4306 10.1508C73.9853 12.0482 72.9543 14.2266 72.4041 16.5458C71.32 20.4573 70.3748 24.412 69.3341 28.3321C69.204 28.8167 68.8832 29.5436 68.5189 29.6301C67.7471 29.8205 67.4696 29.0244 67.3135 28.4273C66.7758 26.3764 66.3422 24.2995 65.7785 22.2572C65.3767 20.6968 64.8638 19.1669 64.2435 17.6794C63.6105 16.2256 63.4197 16.2602 62.3096 17.316" fill="white"/>
<path d="M5.0734 20.6736C5.64577 22.863 4.93465 24.7062 4.20618 26.5667C3.64249 28.0465 3.17421 29.5696 2.67122 31.0666C2.64566 31.1425 2.62821 31.2208 2.61917 31.3003C2.34167 33.031 2.91404 34.4762 4.07611 34.8656C5.23818 35.255 6.67775 34.6146 7.60568 33.0656L8.60298 31.3955C9.09783 31.7517 9.45145 32.2701 9.60205 32.8602C9.75265 33.4502 9.69063 34.0743 9.42684 34.6233C8.88335 36.4843 8.07745 38.2588 7.03332 39.8934C5.29889 42.4375 2.1769 41.9616 0.841389 39.1232C-0.0811332 36.9356 -0.293442 34.5145 0.234327 32.2003C0.92962 28.5452 2.24031 25.0341 4.11079 21.8159C4.39064 21.399 4.70386 21.0054 5.04739 20.639" fill="white"/>
<path d="M182.298 80.8597C182.346 80.0661 182.596 79.298 183.026 78.6284C183.455 77.9589 184.05 77.4102 184.752 77.0348C185.915 76.368 187.127 75.7894 188.377 75.3041C196.182 72.3099 203.987 69.359 211.749 66.3908C211.829 66.3694 211.91 66.3521 211.991 66.3389C212.031 67.1156 211.803 67.8823 211.345 68.5119C210.888 69.1415 210.228 69.5961 209.476 69.8004C202.581 71.971 195.822 74.5515 189.236 77.5281C187.224 78.4367 185.272 79.4665 183.295 80.4444C182.992 80.5828 182.688 80.704 182.298 80.8684" fill="white"/>
<path d="M106.122 75.7022C106.122 78.0819 105.09 79.8559 103.216 80.3578C102.542 80.509 101.852 80.5759 101.161 80.5569H97.883V71.9032C97.8624 71.7647 97.8738 71.6234 97.9164 71.4899C97.959 71.3565 98.0316 71.2346 98.1287 71.1335C98.2258 71.0325 98.3448 70.9549 98.4766 70.9068C98.6084 70.8587 98.7495 70.8414 98.889 70.8561H101.69C104.803 70.8475 106.122 72.6042 106.122 75.7022ZM101.69 72.5436H99.843V78.8002H101.43C103.407 78.8002 104.092 77.7444 104.092 75.7022C104.092 73.6599 103.52 72.5436 101.716 72.5436H101.69Z" fill="white"/>
<path d="M111.628 70.8475H112.643V74.4734H116.632V70.8475H118.652V80.5569H116.632V76.23H112.643V80.5569H110.631V71.9032C110.624 71.6315 110.725 71.3681 110.911 71.1703C111.098 70.9726 111.356 70.8565 111.628 70.8475Z" fill="white"/>
<path d="M123.145 71.8946C123.145 71.2023 123.475 70.8475 124.142 70.8475H125.131V80.5569H123.145V71.8946Z" fill="white"/>
<path d="M130.681 70.8475H131.67V74.8455L135.459 70.8475H137.974L134.098 74.7849L138.321 80.5569H135.884L133.43 77.0954C132.996 76.5243 132.563 76.2993 132.225 76.4204C132.066 76.4576 131.925 76.547 131.825 76.6743C131.724 76.8016 131.669 76.9592 131.67 77.1214V80.5223H129.684V71.8686C129.686 71.6029 129.791 71.3482 129.976 71.1579C130.162 70.9676 130.415 70.8564 130.681 70.8475Z" fill="white"/>
<path d="M148.346 75.9012C148.723 76.0145 149.05 76.2526 149.274 76.5762C149.468 77.0308 149.571 77.5187 149.577 78.0127L149.664 79.9165C149.661 80.0403 149.688 80.163 149.743 80.2744C149.797 80.3858 149.877 80.4826 149.976 80.5569H147.791C147.694 80.3755 147.64 80.174 147.635 79.9684C147.562 79.4265 147.533 78.8795 147.548 78.3329C147.47 77.156 147.262 76.7839 146.083 76.7839H143.967V80.5569H141.981V71.9032C141.976 71.6316 142.079 71.3691 142.268 71.1729C142.456 70.9768 142.714 70.8629 142.987 70.8561H146.672C148.693 70.8561 149.803 71.6263 149.803 73.6253C149.865 74.1147 149.753 74.6103 149.487 75.0261C149.221 75.4418 148.817 75.7514 148.346 75.9012ZM146.429 72.5349H143.967V75.131H146.317C147.262 75.131 147.791 74.7935 147.791 73.8503C147.791 72.907 147.314 72.5349 146.429 72.5349Z" fill="white"/>
<path d="M154.486 71.8946C154.486 71.2023 154.816 70.8475 155.484 70.8475H156.472V80.5569H154.486V71.8946Z" fill="white"/>
<path d="M165.752 76.2906H162.994V80.6174H161.034V71.9638C161.029 71.6921 161.132 71.4296 161.321 71.2335C161.509 71.0374 161.768 70.9235 162.04 70.9167H168.11V72.6042H163.028V74.6897H166.827V75.3301C166.809 75.5987 166.686 75.8496 166.485 76.0291C166.284 76.2087 166.021 76.3025 165.752 76.2906Z" fill="white"/>
<path d="M175.941 80.5569V76.931L172.42 70.8734H174.849L176.956 75.0532L178.604 71.4619C178.675 71.2816 178.802 71.1281 178.965 71.0227C179.128 70.9173 179.32 70.8651 179.514 70.8734H181.145L177.953 76.931V80.5569H175.941Z" fill="white"/>
</g>
<defs>
<clipPath id="clip0_1914_7009">
<rect width="212" height="86" fill="white"/>
</clipPath>
</defs>
</svg>
