<svg width="138" height="92" viewBox="0 0 138 92" fill="none" xmlns="http://www.w3.org/2000/svg">
<path d="M71.5594 65.771C71.5594 65.771 71.1527 68.0851 72.0532 69.2787C73.0915 70.6552 74.6782 71.8737 75.9925 71.5024C76.7296 71.2943 76.7316 70.2933 76.3161 69.0881C75.7696 67.502 74.6618 65.6536 74.6618 65.6536L71.5594 65.771Z" fill="#60606D"/>
<path d="M74.9359 66.9654C74.3364 66.6657 73.5508 66.8753 73.0692 67.2955C72.87 67.4698 73.1126 67.7451 73.325 67.6056C73.8245 67.2773 74.3497 67.4137 74.8984 67.3548C75.1173 67.3312 75.0986 67.0468 74.9359 66.9654Z" fill="#4A4E6E"/>
<path d="M75.4737 68.1834C75.2643 67.9427 74.868 67.9637 74.5758 67.9953C74.2468 68.0307 73.9132 68.0905 73.6633 68.3216C73.4742 68.4967 73.7147 68.7935 73.9191 68.6318C74.1548 68.4452 74.4621 68.485 74.7431 68.4467C75.0018 68.4121 75.233 68.5284 75.4573 68.353C75.5083 68.3133 75.516 68.2318 75.4737 68.1834Z" fill="#4A4E6E"/>
<path d="M67.4119 66.2036C67.4119 66.2036 67.0052 68.5176 67.9059 69.7114C68.944 71.0877 70.5309 72.3062 71.845 71.9349C72.5821 71.7268 72.5843 70.7258 72.169 69.5206C71.6223 67.9347 70.5145 66.0861 70.5145 66.0861L67.4119 66.2036Z" fill="#60606D"/>
<path d="M70.7884 67.3981C70.1891 67.0982 69.4034 67.3081 68.9219 67.7282C68.7224 67.9023 68.9651 68.1777 69.1776 68.0382C69.6772 67.7096 70.2021 67.8461 70.751 67.7873C70.9698 67.7637 70.9512 67.4794 70.7884 67.3981Z" fill="#4A4E6E"/>
<path d="M71.3261 68.6159C71.1167 68.3756 70.7204 68.3964 70.4282 68.428C70.0994 68.4634 69.766 68.523 69.5159 68.7541C69.3268 68.9294 69.5671 69.226 69.7717 69.0643C70.0074 68.8777 70.3145 68.9173 70.5956 68.8792C70.8541 68.8444 71.0856 68.9607 71.3099 68.7856C71.3609 68.746 71.3686 68.6645 71.3261 68.6159Z" fill="#4A4E6E"/>
<path d="M58.9742 52.2439C59.0671 51.4934 58.7878 50.3603 58.5571 48.8958C58.2675 47.0553 58.4918 44.6213 59.6655 43.5446C61.4867 41.8739 65.3883 42.5856 67.1977 42.7591C69.0068 42.9328 72.8072 43.7613 73.5137 44.9194C74.1117 45.8994 74.8093 47.7657 74.4254 48.8824C73.8495 50.5576 72.9192 53.4057 72.821 54.115C72.6208 55.5601 72.1841 60.3443 71.4018 60.6809C70.6192 61.0174 67.4693 61.2726 65.6231 61.28C64.0635 61.2862 59.3575 60.0367 58.6163 58.8085C57.8754 57.5797 58.814 53.5372 58.9742 52.2439Z" fill="#617F9F"/>
<path d="M75.389 55.665C75.8613 55.299 75.5833 51.7156 75.2753 50.1174C74.9673 48.5191 74.6065 47.4694 74.1906 47.4759C73.3589 47.4882 71.9973 48.6956 72.0099 49.5275C72.0192 50.1521 72.6277 53.1854 72.6277 53.1854L75.389 55.665Z" fill="#D8A06B"/>
<path d="M65.9254 41.1014L67.508 41.5962L69.1575 41.7631L68.9557 45.7923C68.9557 45.7923 67.7878 46.6078 66.5346 46.3511C65.2812 46.0945 64.6543 44.8828 64.6543 44.8828L65.9254 41.1014Z" fill="#EAAE74"/>
<path d="M64.2212 39.1979C64.5419 39.0419 64.9351 39.5137 64.9984 39.6C65.1935 39.0401 65.3981 38.5427 65.5659 38.268C66.2036 37.2273 67.5253 36.7217 68.6229 36.7544C70.2398 36.803 71.3383 37.61 71.8046 39.1864C72.0453 39.9971 72.0756 40.8714 71.9165 41.7003C72.0835 41.6602 72.2615 41.6538 72.4144 41.7368C72.6674 41.8751 72.8582 42.7493 72.3847 43.261C71.9139 43.7716 71.0441 43.7438 70.9528 43.733C70.3458 44.6055 69.6095 45.1485 68.4458 45.3356C67.2916 45.5211 66.0437 45.2821 65.3552 44.3888C64.6779 43.5098 64.3322 42.0308 64.4221 41.61C64.0935 41.3614 63.7511 40.8127 63.6913 40.4444C63.6135 39.9625 63.7518 39.4276 64.2212 39.1979Z" fill="#EAAE74"/>
<path d="M65.8696 44.791C66.627 45.1932 67.3514 45.5745 68.2467 45.4718C68.3025 45.4646 68.363 45.5408 68.304 45.582C67.6625 46.0308 65.9837 45.7066 65.8085 44.8333C65.8012 44.7958 65.8393 44.7746 65.8696 44.791Z" fill="#CF8143"/>
<path d="M72.378 40.6313C72.378 40.6313 72.9263 39.0722 72.7692 38.5193C72.612 37.9662 71.9712 37.1527 71.3908 36.7216C70.9875 36.4219 70.5185 36.3095 70.0329 36.3286C69.4032 35.6456 68.5241 35.1812 67.5999 35.5323C67.164 35.698 66.5908 36.1902 66.329 36.7292C66.1556 36.7603 66.0022 36.828 65.6094 37.1673C64.9341 37.7504 64.664 39.0034 64.7499 39.5262C64.8621 40.2081 64.5598 40.9634 64.772 40.9071C64.8975 40.8738 65.1622 40.6905 65.5486 39.9587C65.567 39.9529 65.5847 39.9453 65.6022 39.9367C65.7928 40.2555 66.5397 39.7004 66.8335 39.8318C67.3401 40.0579 67.7027 40.5606 68.2626 40.6355C68.6525 40.6878 69.4434 40.4585 69.4434 40.4585C69.4434 40.4585 69.9788 40.9189 70.473 41.0331C70.9671 41.1476 71.053 40.8808 71.3487 40.9761C71.2375 41.7653 71.1295 42.6746 71.2064 42.7695C71.345 42.9397 71.3262 42.9973 71.8177 42.5119C72.1743 42.1605 72.6737 41.6558 72.378 40.6313Z" fill="#432624"/>
<path d="M69.2216 41.3903C69.4093 41.294 69.6123 41.3522 69.7957 41.4337C69.9828 41.5165 70.2864 41.6453 70.3839 41.8304C70.4607 41.9759 70.3839 42.1275 70.2217 42.1526C70.0007 42.187 69.7488 42.0059 69.5528 41.9158C69.3754 41.8343 69.2087 41.6773 69.1765 41.4801C69.1714 41.4486 69.1931 41.405 69.2216 41.3903Z" fill="#432624"/>
<path d="M67.2992 40.7643C67.2043 40.5761 67.0059 40.5036 66.8096 40.462C66.6096 40.4187 66.2878 40.3444 66.1003 40.4368C65.9529 40.5095 65.9257 40.6773 66.0423 40.7928C66.2007 40.9505 66.5108 40.9524 66.7228 40.9945C66.9141 41.0329 67.1415 41.0039 67.283 40.8633C67.3059 40.8408 67.3136 40.793 67.2992 40.7643Z" fill="#432624"/>
<path d="M67.2691 43.1541C67.3714 42.979 67.5664 42.919 67.7197 42.7999C67.6227 42.5079 67.7212 42.1712 67.8568 41.8888C67.9294 41.7373 68.2172 41.7451 68.1815 41.9478C68.1488 42.1342 68.0982 42.5357 68.2391 42.6745C68.323 42.7576 68.3241 42.9024 68.2623 42.997C68.0866 43.2653 67.5004 43.653 67.2641 43.2463C67.2472 43.2173 67.2531 43.1817 67.2691 43.1541Z" fill="#CF8143"/>
<path d="M67.5408 43.8244C67.1164 43.6762 66.6967 43.7285 66.3661 43.9802C66.2301 44.0838 66.3939 44.2913 66.5507 44.2231C66.85 44.0924 67.1904 44.1326 67.5038 44.2487C67.7823 44.3519 67.8705 44.7109 68.1844 44.7162C68.2429 44.7173 68.2887 44.6903 68.3079 44.64C68.4427 44.2799 67.8519 43.9333 67.5408 43.8244Z" fill="#432624"/>
<path d="M66.946 41.6792C66.7429 41.665 66.583 41.8658 66.3817 41.8934C66.1611 41.9241 65.9892 41.599 65.9147 41.4037C65.8591 41.2586 65.6917 41.339 65.6647 41.4806C65.5927 41.8567 65.8236 42.2234 66.0971 42.3624C66.3609 42.4956 66.8321 42.3313 67.043 42.0569C67.16 41.9046 67.121 41.6919 66.946 41.6792Z" fill="#593143"/>
<path d="M69.0887 42.3766C69.2616 42.4845 69.2727 42.741 69.419 42.8817C69.5792 43.0365 69.9095 42.8747 70.0849 42.7606C70.215 42.6758 70.3029 42.8396 70.2416 42.97C70.0784 43.3165 69.676 43.477 69.3733 43.4282C69.0813 43.3807 68.797 42.9706 68.7882 42.6247C68.7831 42.4328 68.9398 42.2837 69.0887 42.3766Z" fill="#593143"/>
<path d="M66.6591 43.9589C66.6473 43.9578 66.6457 43.976 66.6575 43.9771C66.6692 43.9782 66.6709 43.96 66.6591 43.9589Z" fill="#DC8C7A"/>
<path d="M58.3739 56.5239C58.503 55.6597 60.046 54.3367 61.5681 53.0471C62.903 51.9158 65.3094 50.5833 66.0505 50.5704C68.0839 50.5347 69.093 52.5232 69.093 52.5232C69.093 52.5232 69.9274 50.5154 72.0833 50.6878C74.9679 50.9185 74.406 57.7392 74.5786 59.7859C74.7513 61.8327 74.9401 65.6341 74.7397 65.7995C74.5394 65.965 71.8221 66.3963 71.611 66.1913C71.4 65.9865 71.0568 64.7541 71.0568 64.7541C71.0568 64.7541 70.9578 66.2673 70.6203 66.4193C70.2752 66.5747 67.487 66.8568 67.2804 66.6064C67.0737 66.3558 65.4257 63.3373 65.4257 63.3373C65.4257 63.3373 62.0999 64.8175 59.8895 62.8521C57.6787 60.8866 58.2451 57.3882 58.3739 56.5239Z" fill="#3E394F"/>
<path d="M75.3889 55.6649C74.5416 56.3218 67.1621 57.7362 66.8815 57.2941C66.6009 56.8519 66.2597 56.081 66.5735 55.6959C66.8874 55.3107 72.6278 53.1855 72.6278 53.1855L75.3889 55.6649Z" fill="#D8A06B"/>
<path d="M67.3652 55.476C66.9845 55.2276 65.6179 54.5287 65.2654 54.4148C64.913 54.3011 64.1018 54.2366 63.7516 54.3569C63.4013 54.4772 63.2425 54.8392 63.2425 54.8392C63.2425 54.8392 62.8596 54.3563 62.5518 55.1249C62.2436 55.8935 62.3138 56.6766 62.3989 57.0808C62.4835 57.4854 62.8311 58.0225 63.6162 58.1867C64.4015 58.3502 66.5966 58.0776 67.0868 57.5055C67.5772 56.9333 67.7457 55.7246 67.3652 55.476Z" fill="#D8A06B"/>
<path d="M63.1715 54.7249C63.3643 54.6741 63.7282 54.7746 63.9086 54.8368C64.2725 54.9619 64.6308 55.0935 65.017 55.1272C65.1346 55.1375 65.1242 55.317 65.0058 55.3104C64.6788 55.2924 64.3693 55.209 64.0572 55.1137C63.7209 55.011 63.4436 54.9963 63.1595 54.7877C63.135 54.7695 63.1417 54.7328 63.1715 54.7249Z" fill="#BF773E"/>
<path d="M62.5117 55.334C62.8074 55.3861 63.0523 55.5575 63.3395 55.6385C63.7149 55.7449 64.1495 55.9198 64.5421 55.8864C64.6496 55.8773 64.6897 56.0345 64.5776 56.0551C64.1822 56.1276 63.7572 56.0243 63.3736 55.927C63.021 55.8372 62.6863 55.6932 62.4791 55.384C62.4648 55.3634 62.487 55.3297 62.5117 55.334Z" fill="#BF773E"/>
<path d="M62.2693 56.4114C62.5727 56.4469 62.8621 56.5435 63.1633 56.5905C63.4815 56.6401 63.8263 56.6201 64.1466 56.5995C64.2307 56.594 64.2235 56.7137 64.1564 56.7358C63.5895 56.9244 62.6373 57.0425 62.2369 56.4786C62.2187 56.4526 62.2305 56.407 62.2693 56.4114Z" fill="#BF773E"/>
<path d="M62.6856 57.5543C62.8823 57.5048 63.0446 57.5116 63.2449 57.5423C63.5388 57.5882 63.8387 57.5534 64.1307 57.5092C64.2551 57.4903 64.2928 57.6678 64.1708 57.7006C63.9222 57.7665 63.6792 57.8202 63.4216 57.8303C63.1886 57.8397 62.9023 57.6761 62.6821 57.6099C62.6539 57.6012 62.6587 57.5613 62.6856 57.5543Z" fill="#BF773E"/>
<path d="M59.0322 49.6662C59.0322 49.6662 59.5991 48.5672 60.2417 48.1214C60.8844 47.6755 62.4105 47.6375 62.4105 47.6375C62.4105 47.6375 62.9172 48.6088 63.3974 49.8543C63.8777 51.1001 64.6799 52.838 64.6799 52.838C64.6799 52.838 70.0463 53.1681 70.3445 53.4276C70.6426 53.687 70.8441 54.952 70.8441 54.952C70.8441 54.952 65.0755 56.8899 63.1623 56.1526C61.2489 55.4157 59.0322 49.6662 59.0322 49.6662Z" fill="#EAAE74"/>
<path d="M69.7627 53.2337C70.1134 52.9443 71.3942 52.0984 71.7319 51.9462C72.0693 51.7939 72.8684 51.6401 73.23 51.7207C73.5914 51.8014 73.7892 52.1435 73.7892 52.1435C73.7892 52.1435 74.1161 51.6213 74.5075 52.3509C74.8989 53.0804 74.9158 53.8666 74.8764 54.2779C74.8371 54.6893 74.5513 55.2617 73.789 55.5116C73.0269 55.7613 70.8148 55.7337 70.2643 55.2196C69.7138 54.7051 69.412 53.5229 69.7627 53.2337Z" fill="#EAAE74"/>
<path d="M73.8471 52.022C73.6497 51.9928 73.2989 52.1331 73.1269 52.2147C72.779 52.3793 72.4375 52.5497 72.0575 52.6263C71.9416 52.6496 71.9719 52.8272 72.0892 52.8073C72.4119 52.7529 72.7101 52.6358 73.0095 52.5063C73.3323 52.3672 73.6064 52.3218 73.8657 52.0827C73.8881 52.0621 73.8776 52.0266 73.8471 52.022Z" fill="#CF8143"/>
<path d="M74.571 52.5543C74.283 52.6384 74.0586 52.836 73.782 52.9486C73.4208 53.0956 73.0083 53.3181 72.6144 53.3282C72.5065 53.3311 72.4843 53.4918 72.598 53.4999C72.9989 53.5282 73.41 53.3786 73.7805 53.2391C74.1208 53.1111 74.4374 52.9307 74.6091 52.6005C74.6207 52.578 74.5951 52.5471 74.571 52.5543Z" fill="#CF8143"/>
<path d="M74.9315 53.5982C74.634 53.667 74.3569 53.795 74.0628 53.8749C73.7521 53.9595 73.4072 53.9781 73.0865 53.9932C73.0023 53.9971 73.0227 54.1148 73.0919 54.1297C73.6762 54.2543 74.6358 54.2663 74.9709 53.6613C74.9865 53.6333 74.9698 53.5895 74.9315 53.5982Z" fill="#CF8143"/>
<path d="M74.6437 54.7803C74.4426 54.7527 74.2821 54.7774 74.0864 54.8306C73.7995 54.9088 73.4976 54.9073 73.2022 54.8959C73.0766 54.8911 73.0591 55.0712 73.1837 55.0902C73.438 55.1285 73.6856 55.1548 73.9427 55.1364C74.1751 55.1196 74.4417 54.9253 74.6529 54.8352C74.6805 54.8234 74.6709 54.784 74.6437 54.7803Z" fill="#CF8143"/>
<path d="M85.15 41.7194C84.9468 40.8489 84.4333 40.1683 83.6307 39.7593C83.1168 39.4973 82.6128 39.4432 82.1204 39.5328C81.966 38.8559 81.4096 38.2932 80.6928 38.0023C79.9448 37.6987 78.9952 37.9732 78.4426 38.5556C78.213 38.2851 77.9252 38.0764 77.5125 37.9421C76.8553 37.7277 76.0707 37.9079 75.5218 38.2958C75.0865 38.6034 74.8357 39.1758 74.8177 39.7192C74.2728 39.7453 73.6748 40.1256 73.2916 40.4657C72.4074 41.2495 72.2711 42.5506 72.7611 43.5594C73.172 44.4058 74.5628 44.9175 75.8247 44.899C75.9047 45.4754 76.2127 45.9627 76.7412 46.2563C77.6474 46.7598 78.6732 46.3454 79.356 45.6298C79.4874 45.819 79.6445 45.9923 79.8357 46.1378C80.6652 46.768 81.4486 46.5872 82.2674 46.067C82.8301 45.7097 83.1742 45.071 83.2607 44.4237C83.5542 44.3679 83.8546 44.227 84.188 43.9825C84.8926 43.4654 85.355 42.598 85.15 41.7194Z" fill="#A9E0E5"/>
<path d="M79.032 47.1842C79.032 47.1842 77.4706 48.8376 78.4809 49.2969C79.4914 49.7563 79.032 47.1842 79.032 47.1842Z" fill="#A9E0E5"/>
<path d="M78.8484 51.6853C78.8484 51.6853 77.287 53.3387 78.2973 53.798C79.3077 54.2573 78.8484 51.6853 78.8484 51.6853Z" fill="#A9E0E5"/>
<path d="M83.1658 46.4496C83.1658 46.4496 81.6043 48.103 82.6147 48.5623C83.625 49.0215 83.1658 46.4496 83.1658 46.4496Z" fill="#A9E0E5"/>
<path d="M82.4304 50.1238C82.4304 50.1238 80.869 51.777 81.8793 52.2365C82.8899 52.6957 82.4304 50.1238 82.4304 50.1238Z" fill="#A9E0E5"/>
<path d="M80.7219 49.3889C80.7219 49.3889 79.4913 50.692 80.2879 51.0539C81.084 51.4159 80.7219 49.3889 80.7219 49.3889Z" fill="#A9E0E5"/>
<path d="M77.0785 49.1935C77.0785 49.1935 75.8477 50.4966 76.6443 50.8585C77.4404 51.2204 77.0785 49.1935 77.0785 49.1935Z" fill="#A9E0E5"/>
<path d="M64.382 32.4552C64.4692 32.0534 64.3444 31.6278 63.8964 31.3181C63.4771 31.0281 63.0366 30.8921 62.5545 30.861C62.4816 30.3492 62.2397 29.8746 61.8076 29.5754C61.1703 29.1335 60.1393 28.8668 59.4234 29.2866C59.1078 29.4717 58.8419 29.7228 58.6852 30.0196C58.1895 29.7044 57.6207 29.5226 57.0748 29.5576C56.065 29.6216 55.3146 30.5433 55.2214 31.4519C54.6053 31.4519 54.002 31.6458 53.503 32.0318C52.7077 32.6469 52.5521 33.9811 53.2213 34.7291C53.7815 35.3552 54.4515 35.5538 55.1662 35.5611C55.3571 35.9772 55.7504 36.3525 56.0823 36.5472C56.4543 36.7649 57.4284 36.9062 58.1895 36.7586C58.8169 37.3826 60.1384 37.6523 60.8161 37.6311C61.5811 37.6076 62.3456 37.3901 62.8531 36.798C62.9738 36.6569 63.0713 36.5028 63.1398 36.3442C63.427 36.356 63.7234 36.3135 64.0235 36.2254C64.8963 35.9687 65.3443 35.3922 65.6201 34.549C65.8889 33.7279 65.2054 32.8227 64.382 32.4552Z" fill="#A9E0E5"/>
<path d="M56.3573 37.5798C56.3573 37.5798 54.7957 39.2333 55.8061 39.6925C56.8166 40.1518 56.3573 37.5798 56.3573 37.5798Z" fill="#A9E0E5"/>
<path d="M60.8573 38.4064C60.8573 38.4064 59.2957 40.0598 60.3061 40.5191C61.3168 40.9783 60.8573 38.4064 60.8573 38.4064Z" fill="#A9E0E5"/>
<path d="M56.0819 41.5295C56.0819 41.5295 54.5203 43.183 55.5307 43.6422C56.541 44.1015 56.0819 41.5295 56.0819 41.5295Z" fill="#A9E0E5"/>
<path d="M58.1423 39.8761C58.1423 39.8761 56.7793 41.3194 57.6614 41.7203C58.5431 42.1213 58.1423 39.8761 58.1423 39.8761Z" fill="#A9E0E5"/>
<path d="M58.1423 43.5503C58.1423 43.5503 56.7793 44.9934 57.6614 45.3945C58.5431 45.7955 58.1423 43.5503 58.1423 43.5503Z" fill="#A9E0E5"/>
<path d="M41.332 22.2386L37.1795 22.6557L39.7987 18.3753L36.0367 20.4461L38.3177 14.499L33.9998 17.0242V13.1952L31.9631 16.6174L30.3338 10.4254L28.2154 16.8616L25.3639 13.0325L25.8528 18.5726L20.7199 14.2543L22.2679 20.7721L17.9502 20.6091L21.8481 24.7001L18.7806 24.5082L26.7023 29.4275L33.9852 28.7886L41.332 22.2386Z" fill="#FFC441"/>
<path d="M22.5195 25.7025L24.2278 25.809L20.2705 21.6556L23.4912 21.7771L22.3221 16.8551L27.0108 20.7995L26.6152 16.318L28.5483 18.9136L30.2308 13.8018L31.6172 19.0708L33.041 16.679V18.6949L36.445 16.704L34.2034 22.5487L37.0951 20.957L35.3541 23.8018L38.4915 23.487L33.5844 27.8618L26.9363 28.445L22.5195 25.7025Z" fill="#FF5E61"/>
<path d="M23.0143 46.6044C23.3987 45.478 35.7974 46.5857 36.2369 46.7919C36.7468 47.0326 36.8123 61.0961 36.761 62.6967C36.6912 64.8672 35.5747 77.3825 35.5747 77.3825C35.5747 77.3825 33.1706 77.8285 32.8298 77.6686C32.4898 77.5078 31.673 64.9813 31.5574 63.4463C31.4835 62.4662 30.1762 55.656 29.6646 52.6135C29.4565 56.0609 28.1117 64.2751 28.0813 65.2367C28.0107 67.4071 26.6932 77.5196 26.6932 77.5196C26.6932 77.5196 24.3835 77.1753 24.0434 77.016C23.7032 76.8548 23.0362 66.6424 22.921 65.1075C22.8051 63.5724 22.6311 47.7322 23.0143 46.6044Z" fill="#3D5E65"/>
<path d="M35.4911 77.2007C35.4911 77.2007 39.8318 80.4628 39.4009 81.2943C38.9694 82.1251 32.5859 80.9497 32.4015 79.8414C32.2472 78.9176 32.7706 77.5028 32.7706 77.5028L35.4911 77.2007Z" fill="#B88136"/>
<path d="M36.0619 78.3996C36.3217 78.2189 36.5839 78.0421 36.9037 78.0009C37.0882 77.977 37.2238 78.2418 37.0262 78.329C36.7476 78.4528 36.4889 78.6138 36.2446 78.7967C36.0127 78.97 35.8293 79.1338 35.5312 79.1516C35.4723 79.155 35.4158 79.0801 35.4405 79.0245C35.5704 78.7336 35.8057 78.5789 36.0619 78.3996Z" fill="#451E1F"/>
<path d="M36.1493 77.5582C36.2983 77.4837 36.4336 77.678 36.3158 77.7935C36.1669 77.9396 36.0129 78.0648 35.8444 78.1877C35.6628 78.3203 35.5064 78.5065 35.3014 78.5993C35.1743 78.6563 35.0116 78.5494 35.0622 78.4018C35.2085 77.9794 35.7807 77.7446 36.1493 77.5582Z" fill="#451E1F"/>
<path d="M23.9843 76.8417C23.9843 76.8417 19.638 80.0972 20.068 80.9289C20.4978 81.7607 26.8832 80.5956 27.0696 79.4878C27.2252 78.5643 26.7047 77.1479 26.7047 77.1479L23.9843 76.8417Z" fill="#B88136"/>
<path d="M23.4111 78.0402C23.1522 77.8581 22.8894 77.6812 22.5698 77.64C22.3855 77.6155 22.2491 77.8801 22.4464 77.9681C22.7257 78.0919 22.9838 78.2537 23.2275 78.4369C23.4595 78.6108 23.6429 78.7746 23.9403 78.7924C23.9999 78.7957 24.0564 78.7216 24.0317 78.6653C23.902 78.3749 23.667 78.2192 23.4111 78.0402Z" fill="#451E1F"/>
<path d="M23.3252 77.1986C23.1758 77.1235 23.0402 77.3174 23.158 77.4334C23.3074 77.5796 23.4605 77.7051 23.6292 77.8288C23.8097 77.9614 23.9663 78.1476 24.1713 78.2402C24.2971 78.298 24.4613 78.1911 24.4101 78.0437C24.2657 77.6209 23.6934 77.385 23.3252 77.1986Z" fill="#451E1F"/>
<path d="M36.5804 48.5558C36.5804 48.5558 36.4309 39.4779 36.363 38.0525C36.2692 36.0831 37.4624 31.2064 36.8135 28.9231C36.179 26.6905 31.272 27.3122 29.6436 27.3122C28.0152 27.3122 23.1079 26.6905 22.4734 28.9231C21.8247 31.2064 23.0177 36.0833 22.9239 38.0525C22.856 39.4779 22.7066 48.5558 22.7066 48.5558C22.7066 48.5558 26.8955 49.3549 29.6434 49.3549C32.3916 49.3547 36.5804 48.5558 36.5804 48.5558Z" fill="#3D3734"/>
<path d="M31.86 28.4155L31.2995 25.9799C31.2995 25.9799 30.3479 26.2776 29.6448 26.2776C28.9417 26.2776 27.9892 25.9799 27.9892 25.9799L27.4287 28.4151C27.4287 28.4151 28.4644 30.2246 29.6452 30.2246C30.8255 30.2246 31.86 28.4155 31.86 28.4155Z" fill="#FFC4A8"/>
<path d="M33.0124 22.9028C33.0124 25.151 31.1965 26.9737 29.6445 26.9737C28.0921 26.9737 26.2764 25.1511 26.2764 22.9028C26.2764 20.6544 27.155 18.8317 29.6445 18.8317C32.1336 18.8318 33.0124 20.6544 33.0124 22.9028Z" fill="#FFC4A8"/>
<path d="M26.7339 23.0861C26.445 22.5242 25.5815 22.0794 25.3929 22.8C25.2045 23.5211 25.734 24.44 26.4411 24.577C27.1488 24.7143 27.022 23.6491 26.7339 23.0861Z" fill="#FFC4A8"/>
<path d="M33.7046 23.9286C33.4159 24.4907 32.552 24.9353 32.3636 24.2147C32.1752 23.4938 32.7047 22.5747 33.4118 22.438C34.1193 22.3006 33.9927 23.3658 33.7046 23.9286Z" fill="#FFC4A8"/>
<path d="M27.6461 23.5373C27.7155 23.82 28.0007 23.9929 28.2828 23.9234C28.5652 23.8542 28.738 23.5694 28.6688 23.2869C28.5994 23.0039 28.3142 22.8317 28.032 22.9007C27.7495 22.9701 27.5769 23.2549 27.6461 23.5373Z" fill="#7C564F"/>
<path d="M28.8349 22.7095C28.776 22.6455 28.7317 22.566 28.6685 22.5009C28.5797 22.4094 28.4582 22.3715 28.3449 22.3205C28.0786 22.2006 27.8744 22.1943 27.5877 22.2405C27.4823 22.2576 27.4827 22.4348 27.5877 22.4523C27.8415 22.4942 28.0567 22.5511 28.2884 22.6602C28.4549 22.7386 28.617 22.8494 28.8058 22.8199C28.8579 22.8116 28.8649 22.7425 28.8349 22.7095Z" fill="#B65745"/>
<path d="M31.6434 23.5373C31.5742 23.82 31.2888 23.9929 31.0067 23.9234C30.7243 23.8542 30.5515 23.5694 30.6207 23.2869C30.6903 23.0039 30.9753 22.8317 31.2575 22.9007C31.5398 22.9701 31.7126 23.2549 31.6434 23.5373Z" fill="#7C564F"/>
<path d="M30.4542 22.7095C30.5131 22.6455 30.5574 22.566 30.6207 22.5009C30.7096 22.4094 30.831 22.3715 30.9444 22.3205C31.2106 22.2006 31.415 22.1943 31.7015 22.2405C31.807 22.2576 31.8068 22.4348 31.7015 22.4523C31.4476 22.4942 31.2325 22.5511 31.0009 22.6602C30.8342 22.7386 30.6722 22.8494 30.4835 22.8199C30.4314 22.8116 30.4242 22.7425 30.4542 22.7095Z" fill="#B65745"/>
<path d="M30.1232 24.4794C30.0169 24.3977 29.9999 24.249 29.861 24.1905C29.7057 24.1248 29.5427 24.1005 29.6546 23.8943C29.7252 23.7638 29.82 23.6442 29.859 23.4981C29.9037 23.331 29.8542 23.1802 29.8805 23.0129C29.9055 22.8556 29.6906 22.7689 29.6141 22.917C29.5042 23.1292 29.4838 23.3586 29.3515 23.5642C29.2363 23.7426 29.0849 23.9421 29.1508 24.1695C29.2516 24.5169 29.7554 24.7366 30.0908 24.6373C30.1549 24.6185 30.1788 24.5221 30.1232 24.4794Z" fill="#DC8C7A"/>
<path d="M30.5377 25.2262C30.4304 25.09 30.129 25.0606 29.9642 25.0473C29.7108 25.0265 29.4582 25.1294 29.205 25.1413C28.9579 25.1529 28.9575 25.5397 29.205 25.5257C29.44 25.5125 29.6681 25.4376 29.9005 25.4197C30.1029 25.4045 30.3119 25.5765 30.5081 25.4547C30.5951 25.4012 30.5962 25.3001 30.5377 25.2262Z" fill="#7C564F"/>
<path d="M30.8846 26.7494C30.5376 26.7214 30.1782 26.8215 29.8275 26.8233C29.4332 26.8252 29.0006 26.7819 28.6418 26.6046C28.4337 26.5019 28.2413 26.7702 28.408 26.933C28.7182 27.2361 29.2183 27.2662 29.6272 27.306C30.1621 27.3584 30.5122 27.1764 30.9187 26.8578C30.9667 26.82 30.9439 26.7542 30.8846 26.7494Z" fill="#DC8C7A"/>
<path d="M27.3261 20.472C27.3261 20.472 27.3261 21.257 28.6546 21.0759C29.983 20.8949 30.4057 20.291 30.7076 20.774C31.0096 21.257 31.7342 21.74 32.0965 21.6798C32.4589 21.6193 32.2174 23.2499 32.64 23.2499C33.0625 23.2499 33.6062 22.344 33.5456 21.1966C33.4853 20.0494 32.64 18.4191 31.6736 17.9963C30.7074 17.5735 29.6204 17.634 28.5337 17.8756C27.4466 18.117 25.9976 18.3588 25.8769 19.6871C25.756 21.0156 25.6351 21.6194 25.8769 22.4044C26.1183 23.1895 26.2994 23.3104 26.4808 22.8876C26.662 22.4647 27.3261 20.472 27.3261 20.472Z" fill="#B65745"/>
<path d="M36.8653 35.2886C37.3028 36.1015 39.6161 37.7271 39.8663 38.1647C40.1164 38.6023 39.9913 44.4165 39.9913 44.4165L41.8668 44.9791C41.8668 44.9791 42.5811 43.2435 42.9296 41.353C43.1964 39.9061 43.136 38.315 43.0547 37.6644C42.867 36.1639 39.5537 31.7251 38.9285 31.6625C38.3032 31.5999 36.4277 34.4757 36.8653 35.2886Z" fill="#FFC4A8"/>
<path d="M42.0219 44.3451C41.9024 43.8268 41.459 43.3247 40.9129 43.3188C40.4082 43.3134 39.7232 43.7641 39.5373 43.9414C39.3515 44.1184 39.1277 44.4864 38.92 44.7823C38.7546 45.018 38.6653 45.3036 38.6845 45.5908C38.6961 45.763 38.6217 46.0024 38.5886 46.1767C38.5581 46.3366 38.6261 46.421 38.5763 46.5756C38.3877 47.1603 38.7353 47.6016 39.2655 47.7127C39.5252 47.7672 39.7029 47.9616 39.978 47.997C40.3 48.038 40.6104 47.9589 40.8985 47.7973C41.1655 47.6476 41.3773 47.4569 41.593 47.2345C41.8331 46.987 41.9392 46.6976 42.075 46.3875C42.3509 45.7582 42.1656 44.9676 42.0219 44.3451Z" fill="#FFC4A8"/>
<path d="M41.4204 46.6854C41.3759 46.5146 41.1639 46.3903 41.0079 46.5137C40.6645 46.7859 40.3212 47.1296 39.9177 47.299C39.6958 47.3925 39.4761 47.2755 39.3817 47.0576C39.3048 46.879 39.3955 46.6994 39.4696 46.5411C39.5614 46.3457 39.6897 46.1687 39.7907 45.9781C39.9791 45.6222 40.0113 45.269 39.9526 44.88C39.9408 44.8022 39.8406 44.8104 39.8356 44.8892C39.8189 45.1611 39.7819 45.437 39.6768 45.6903C39.5971 45.8828 39.4772 46.062 39.3704 46.2421C39.33 46.1258 39.2516 46.0241 39.1563 45.9864C38.9511 45.9047 38.577 46.1373 38.6127 46.3787C38.6216 46.4383 38.6998 46.4304 38.718 46.3805C38.7776 46.2186 39.1066 46.0545 39.1785 46.2675C39.2002 46.3321 39.1977 46.4431 39.2266 46.5207C39.1128 46.7978 39.0749 47.1171 39.2913 47.3482C39.5456 47.6201 39.8877 47.5666 40.1898 47.3931C40.3823 47.2819 40.5598 47.116 40.7335 46.975C40.8163 46.9078 40.8991 46.8481 40.9782 46.775C41.2018 46.5689 41.2198 46.7124 41.3779 46.7351C41.4062 46.7393 41.4279 46.7135 41.4204 46.6854Z" fill="#DC8C7A"/>
<path d="M39.0721 45.417C38.8183 45.3881 38.664 45.6249 38.7177 45.8236C38.7353 45.8878 38.8262 45.8937 38.8408 45.8402C38.8551 45.787 38.9055 45.7364 38.9383 45.6922C38.9762 45.6405 39.038 45.6194 39.1144 45.6175C39.2785 45.614 39.3059 45.8107 39.4172 45.8834C39.4447 45.9014 39.4837 45.9035 39.4947 45.8768C39.5832 45.662 39.3348 45.4473 39.0721 45.417Z" fill="#DC8C7A"/>
<path d="M35.6777 27.9113C36.9907 27.9737 40.6168 32.225 40.5543 32.9753C40.4917 33.7255 37.8035 36.5389 37.5532 36.4765C36.875 36.307 34.8024 34.976 34.8024 34.976C34.8024 34.976 34.3649 27.8487 35.6777 27.9113Z" fill="#3D3734"/>
<path d="M22.4225 35.2886C21.9851 36.1015 19.6717 37.7271 19.4216 38.1647C19.1716 38.6023 19.2967 44.4165 19.2967 44.4165L17.4212 44.9791C17.4212 44.9791 16.7069 43.2435 16.3584 41.353C16.0916 39.9061 16.1518 38.315 16.2333 37.6644C16.421 36.1639 19.7343 31.7251 20.3595 31.6625C20.9847 31.5999 22.86 34.4757 22.4225 35.2886Z" fill="#FFC4A8"/>
<path d="M17.2666 44.3451C17.3862 43.8268 17.8296 43.3247 18.3757 43.3188C18.8804 43.3134 19.5655 43.7641 19.7511 43.9414C19.937 44.1184 20.1607 44.4864 20.3684 44.7823C20.534 45.018 20.6231 45.3036 20.6041 45.5908C20.5925 45.763 20.6669 46.0024 20.6998 46.1767C20.7304 46.3366 20.6623 46.421 20.7122 46.5756C20.9008 47.1603 20.5532 47.6016 20.0231 47.7127C19.7633 47.7672 19.5857 47.9616 19.3106 47.997C18.9886 48.038 18.6782 47.9589 18.3903 47.7973C18.1231 47.6476 17.9113 47.4569 17.6958 47.2345C17.4557 46.987 17.3496 46.6976 17.2136 46.3875C16.9378 45.7582 17.123 44.9676 17.2666 44.3451Z" fill="#FFC4A8"/>
<path d="M17.8687 46.6854C17.9132 46.5146 18.1252 46.3903 18.281 46.5137C18.6246 46.7859 18.9677 47.1296 19.3712 47.299C19.5933 47.3925 19.8128 47.2755 19.9072 47.0576C19.9841 46.879 19.8934 46.6994 19.8193 46.5411C19.7275 46.3457 19.5994 46.1687 19.4982 45.9781C19.3098 45.6222 19.2774 45.269 19.3363 44.88C19.348 44.8022 19.4483 44.8104 19.4535 44.8892C19.4702 45.1611 19.5072 45.437 19.6123 45.6903C19.6919 45.8828 19.8117 46.062 19.9188 46.2421C19.9593 46.1258 20.0377 46.0241 20.1328 45.9864C20.338 45.9047 20.712 46.1373 20.6763 46.3787C20.6673 46.4383 20.5893 46.4304 20.5709 46.3805C20.5113 46.2186 20.1823 46.0545 20.1105 46.2675C20.0886 46.3321 20.0914 46.4431 20.0623 46.5207C20.1762 46.7978 20.214 47.1171 19.9978 47.3482C19.7435 47.6201 19.4014 47.5666 19.0995 47.3931C18.907 47.2819 18.7294 47.116 18.5557 46.975C18.4729 46.9078 18.3903 46.8481 18.3112 46.775C18.0875 46.5689 18.0696 46.7124 17.9116 46.7351C17.883 46.7393 17.8611 46.7135 17.8687 46.6854Z" fill="#DC8C7A"/>
<path d="M20.217 45.417C20.4708 45.3881 20.6251 45.6249 20.5714 45.8236C20.5539 45.8878 20.4629 45.8937 20.4485 45.8402C20.4341 45.787 20.3837 45.7364 20.351 45.6922C20.3131 45.6405 20.2513 45.6194 20.1751 45.6175C20.0108 45.614 19.9834 45.8107 19.872 45.8834C19.8446 45.9014 19.8056 45.9035 19.7947 45.8768C19.7059 45.662 19.9543 45.4473 20.217 45.417Z" fill="#DC8C7A"/>
<path d="M23.6106 27.9113C22.2977 27.9737 18.6716 32.225 18.7342 32.9753C18.7968 33.7255 21.485 36.5389 21.7352 36.4765C22.4133 36.307 24.486 34.976 24.486 34.976C24.486 34.976 24.9236 27.8487 23.6106 27.9113Z" fill="#3D3734"/>
<path d="M101.602 29.7042C101.602 29.7042 98.9223 23.491 99.7749 22.0292C100.628 20.5673 101.818 20.7875 103.308 21.1765C104.798 21.5659 108.11 22.8364 108.11 22.8364L108.064 24.8466L104.1 25.1356L105.501 27.4505L101.602 29.7042Z" fill="#FFC4A8"/>
<path d="M102.455 27.6939C101.824 28.1447 100.932 28.7904 101.176 29.5823C101.42 30.3744 103.43 35.0644 104.221 35.6127C105.013 36.1611 108.38 30.3275 107.815 29.5214C107.389 28.9126 106.963 28.9731 106.719 28.6688C106.139 27.9442 105.44 26.9024 105.257 26.7197C105.074 26.5369 103.308 27.0851 102.455 27.6939Z" fill="#F79F27"/>
<path d="M104.196 48.2219C104.571 47.1246 116.651 48.2037 117.079 48.4047C117.576 48.6391 119.284 61.6105 119.234 63.1703C119.166 65.285 118.079 77.4785 118.079 77.4785C118.079 77.4785 115.736 77.9133 115.404 77.7573C115.073 77.6005 114.277 65.396 114.165 63.9004C114.093 62.9453 111.277 54.953 110.676 54.953C110.074 54.953 107.701 63.4286 107.671 64.3659C107.602 66.4806 106.319 77.9779 106.319 77.9779C106.319 77.9779 104.069 77.6425 103.737 77.4872C103.406 77.3302 102.756 65.7354 102.644 64.2399C102.53 62.744 103.823 49.3208 104.196 48.2219Z" fill="#725559"/>
<path d="M117.997 77.3015C117.997 77.3015 122.226 80.4801 121.806 81.2901C121.386 82.0997 115.166 80.9547 114.987 79.8746C114.836 78.9744 115.346 77.5961 115.346 77.5961L117.997 77.3015Z" fill="#B88136"/>
<path d="M118.553 78.4695C118.807 78.2936 119.062 78.1212 119.374 78.0813C119.553 78.0581 119.685 78.3157 119.493 78.4011C119.221 78.5216 118.97 78.6784 118.731 78.8569C118.505 79.0258 118.327 79.1853 118.036 79.2022C117.979 79.2055 117.924 79.1327 117.948 79.0784C118.075 78.795 118.304 78.6442 118.553 78.4695Z" fill="#451E1F"/>
<path d="M118.638 77.6498C118.784 77.5775 118.916 77.7665 118.801 77.8795C118.656 78.0219 118.506 78.1435 118.342 78.2635C118.165 78.3926 118.012 78.5741 117.813 78.6644C117.689 78.72 117.53 78.6158 117.579 78.4719C117.722 78.0603 118.279 77.8314 118.638 77.6498Z" fill="#451E1F"/>
<path d="M103.679 77.3171C103.679 77.3171 99.4442 80.4889 99.8631 81.2996C100.282 82.1102 106.503 80.9749 106.685 79.8955C106.837 78.9958 106.329 77.6156 106.329 77.6156L103.679 77.3171Z" fill="#B88136"/>
<path d="M103.12 78.485C102.868 78.3076 102.612 78.1352 102.3 78.0953C102.121 78.0714 101.988 78.3292 102.18 78.4147C102.452 78.5353 102.704 78.6931 102.941 78.8716C103.167 79.0411 103.346 79.2006 103.636 79.2181C103.694 79.2214 103.749 79.1489 103.724 79.0942C103.599 78.8113 103.37 78.6595 103.12 78.485Z" fill="#451E1F"/>
<path d="M103.037 77.665C102.891 77.592 102.759 77.7808 102.874 77.8939C103.019 78.0363 103.168 78.1587 103.333 78.279C103.509 78.4082 103.661 78.5898 103.861 78.6798C103.984 78.7363 104.144 78.632 104.094 78.4884C103.953 78.0763 103.395 77.8465 103.037 77.665Z" fill="#451E1F"/>
<path d="M117.414 50.1231C117.414 50.1231 117.268 41.2784 117.202 39.8898C117.111 37.971 118.273 33.2194 117.641 30.9949C117.023 28.8194 112.242 29.4252 110.656 29.4252C109.069 29.4252 104.288 28.8194 103.67 30.9949C103.037 33.2194 104.2 37.971 104.109 39.8898C104.042 41.2784 103.897 50.1231 103.897 50.1231C103.897 50.1231 107.978 50.9016 110.656 50.9016C113.333 50.9016 117.414 50.1231 117.414 50.1231Z" fill="#F79F27"/>
<path d="M112.814 30.5002L112.269 28.127C112.269 28.127 111.341 28.4171 110.656 28.4171C109.971 28.4171 109.043 28.127 109.043 28.127L108.497 30.4998C108.497 30.4998 109.506 32.2631 110.656 32.2631C111.807 32.2629 112.814 30.5002 112.814 30.5002Z" fill="#FFC4A8"/>
<path d="M113.937 25.1291C113.937 27.3195 112.258 29.0053 110.746 29.0053C109.233 29.0053 107.374 27.3195 107.374 25.1291C107.374 22.9384 108.23 21.1625 110.656 21.1625C113.081 21.1625 113.937 22.9384 113.937 25.1291Z" fill="#FFC4A8"/>
<path d="M107.82 25.3076C107.538 24.76 106.697 24.3267 106.513 25.0288C106.329 25.7315 106.845 26.6267 107.534 26.7603C108.224 26.894 108.1 25.8561 107.82 25.3076Z" fill="#FFC4A8"/>
<path d="M114.611 26.1284C114.329 26.6762 113.487 27.1093 113.304 26.4072C113.121 25.7048 113.636 24.8093 114.325 24.6761C115.015 24.5423 114.891 25.5799 114.611 26.1284Z" fill="#FFC4A8"/>
<path d="M111.217 25.9316C109.892 25.4344 109.446 26.4374 109.352 27.2271C109.301 27.6626 109.983 27.8617 110.714 27.679C111.27 27.5399 111.833 27.99 112.084 27.7705C112.645 27.281 112.542 26.4287 111.217 25.9316Z" fill="white"/>
<path d="M110.706 24.772C110.924 24.5427 110.865 24.2645 110.772 23.9668C110.738 23.8547 110.59 23.8702 110.578 23.9865C110.555 24.2064 110.53 24.3363 110.373 24.4658C110.263 24.5565 110.007 24.7521 109.996 24.9284C109.966 25.4316 110.448 25.6668 110.799 25.5429C110.852 25.5244 110.849 25.4467 110.815 25.407C110.701 25.2726 110.589 25.1411 110.46 25.0279C110.484 25.0007 110.507 24.974 110.531 24.9471C110.586 24.884 110.648 24.8325 110.706 24.772Z" fill="#DC8C7A"/>
<path d="M109.861 23.5438C109.764 23.3893 109.578 23.3832 109.414 23.3918C109.17 23.4051 108.887 23.4424 108.67 23.3087C108.507 23.2084 108.309 23.4537 108.462 23.5777C108.676 23.7516 108.932 23.8139 109.205 23.8195C109.417 23.8237 109.74 23.822 109.861 23.6132C109.873 23.5924 109.874 23.5644 109.861 23.5438Z" fill="#BA8436"/>
<path d="M112.735 23.3414C112.717 23.2752 112.662 23.2172 112.594 23.2005C112.385 23.1484 112.173 23.1484 111.96 23.174C111.767 23.1971 111.632 23.3085 111.456 23.3407C111.283 23.3723 111.28 23.6632 111.456 23.6928C111.578 23.7136 111.708 23.7379 111.822 23.675C111.983 23.5872 112.215 23.6439 112.388 23.6279C112.586 23.6099 112.8 23.583 112.735 23.3414Z" fill="#BA8436"/>
<path d="M109.558 24.335C109.435 24.3129 109.313 24.3092 109.192 24.2804C109.065 24.2504 108.939 24.2218 108.807 24.2233C108.521 24.2266 108.535 24.5956 108.807 24.623C108.927 24.6351 109.044 24.6955 109.156 24.7334C109.292 24.7797 109.417 24.7801 109.558 24.7551C109.785 24.714 109.785 24.3757 109.558 24.335Z" fill="#7C564F"/>
<path d="M111.864 28.8768C111.526 28.8498 111.176 28.9471 110.834 28.949C110.45 28.9508 110.029 28.9087 109.679 28.7359C109.476 28.636 109.289 28.8973 109.451 29.0561C109.753 29.3512 110.241 29.3805 110.639 29.4195C111.16 29.4704 111.502 29.2934 111.898 28.9826C111.944 28.9457 111.922 28.8814 111.864 28.8768Z" fill="#DC8C7A"/>
<path d="M114.551 22.745C114.185 21.5875 113.546 20.5368 112.632 20.2323C111.718 19.928 111.246 20.0649 110.211 20.004C109.175 19.9429 108.642 20.3238 107.79 21.2375C107.078 21.9995 107.165 23.5824 107.18 24.1004C107.195 24.6182 107.378 25.395 107.698 25.395C108.018 25.395 108.028 22.8705 108.389 22.6453C108.799 22.8979 109.374 22.888 109.817 22.7417C110.162 22.6275 110.593 22.3927 110.956 22.1021C111.076 22.2085 111.224 22.292 111.396 22.3529C111.656 22.4451 111.994 22.5125 112.312 22.4983C112.841 22.9634 113.135 23.7048 113.363 23.9788C113.591 24.2529 113.5 25.075 113.82 25.1208C114.14 25.1663 114.916 23.9024 114.551 22.745Z" fill="#BA8436"/>
<path d="M112.779 24.283C112.73 24.0912 112.54 24.1207 112.381 24.0934C112.283 24.0771 112.188 24.098 112.094 24.1238C111.949 24.163 111.825 24.1985 111.673 24.207C111.438 24.2202 111.437 24.5606 111.673 24.5724C111.881 24.5827 112.063 24.5356 112.267 24.5188C112.346 24.512 112.422 24.4968 112.5 24.4813C112.592 24.4627 112.651 24.3689 112.739 24.3532C112.77 24.3475 112.786 24.3111 112.779 24.283Z" fill="#7C564F"/>
<path d="M119.709 29.7041C119.709 29.7041 122.389 23.491 121.536 22.0291C120.684 20.5672 119.079 20.9934 118.206 20.9937C117.569 20.9937 114.186 21.5419 114.186 21.5419L113.82 23.2476L117.536 24.5875L115.81 27.4507L119.709 29.7041Z" fill="#FFC4A8"/>
<path d="M118.856 27.6939C119.487 28.1447 120.378 28.7904 120.135 29.5823C119.891 30.3744 117.881 35.0644 117.089 35.6127C116.297 36.1611 112.931 30.3275 113.495 29.5214C113.921 28.9126 114.348 28.9731 114.592 28.6688C115.171 27.9442 115.871 26.9024 116.053 26.7197C116.237 26.5369 118.003 27.0851 118.856 27.6939Z" fill="#F79F27"/>
<path d="M114.552 21.7246C114.552 21.7246 114.308 20.2627 113.212 19.8362C112.115 19.4101 112.298 19.349 111.019 19.6535C109.74 19.9582 109.069 20.75 110.166 21.2981C111.262 21.8463 113.029 23.1865 113.821 23.2476C114.612 23.3083 114.552 21.7246 114.552 21.7246Z" fill="#FFC4A8"/>
<path d="M112.505 21.8454C112.284 21.4222 111.863 21.1548 111.431 20.9684C110.931 20.7528 110.497 20.5312 109.938 20.4893C109.795 20.4786 109.803 20.6886 109.938 20.7064C110.484 20.7793 110.92 21.0529 111.398 21.2932C111.773 21.4812 112.036 21.7876 112.434 21.9377C112.489 21.9585 112.528 21.8899 112.505 21.8454Z" fill="#DC8C7A"/>
<path d="M112.739 20.9395C112.425 20.0387 110.817 19.6992 110.044 20.0527C109.974 20.0845 110.025 20.1951 110.094 20.1776C110.589 20.0527 111.253 20.2582 111.704 20.4685C112.036 20.6231 112.317 20.9866 112.676 21.0264C112.717 21.0304 112.753 20.9787 112.739 20.9395Z" fill="#DC8C7A"/>
<path d="M112.78 19.863C112.373 19.6271 111.987 19.5603 111.53 19.4907C111.442 19.4771 111.425 19.6074 111.51 19.6263C111.9 19.713 112.239 19.7912 112.587 20.0004C112.844 20.1546 113.005 20.3916 113.247 20.5493C113.293 20.5793 113.369 20.5511 113.357 20.4873C113.301 20.1756 113.039 20.0129 112.78 19.863Z" fill="#DC8C7A"/>
<path d="M109.502 10.8002C108.212 10.7126 106.946 11.165 105.83 11.7726C105.358 12.0297 104.737 12.4238 104.476 12.9162C104.293 13.2597 104.324 13.5778 104.769 13.6292C104.975 13.6529 105.052 13.3456 104.84 13.3088C104.509 13.2511 105.538 12.4554 105.617 12.4023C105.978 12.157 106.381 11.9686 106.781 11.7967C107.542 11.4699 108.358 11.2878 109.185 11.2624C109.614 11.2493 110.044 11.3071 110.459 11.4111C111.143 11.5818 111.341 12.2472 110.726 12.6715C110.635 12.7346 110.543 12.7946 110.45 12.8521C110.432 12.7979 110.408 12.7436 110.374 12.69C110.124 12.2996 109.315 12.3754 108.932 12.4059C107.813 12.495 106.488 12.8762 105.88 13.9028C105.606 14.367 106.105 14.6461 106.486 14.6826C107.161 14.7466 107.89 14.4778 108.526 14.2873C108.576 14.2721 108.627 14.2553 108.677 14.2391C108.412 14.3716 108.14 14.491 107.873 14.6202C107.593 14.7564 107.273 14.8255 107.049 15.0524C106.863 15.2414 107.034 15.5389 107.276 15.5371C107.573 15.5345 107.843 15.3901 108.134 15.3349C108.346 15.2949 108.971 15.264 109.078 15.1452C108.646 15.6237 107.97 15.7987 107.496 16.2317C107.351 16.3647 107.435 16.575 107.571 16.6681C107.657 16.7264 107.751 16.7623 107.857 16.7612C107.921 16.7647 107.985 16.7598 108.047 16.7458C108.063 16.7428 108.078 16.7401 108.094 16.7373C107.982 16.906 107.904 17.15 108.07 17.3044C108.15 17.3784 108.244 17.4056 108.348 17.4249C108.373 17.4352 108.393 17.442 108.409 17.4452C108.391 17.5664 108.361 17.6866 108.349 17.8093C108.306 18.2272 108.463 18.724 108.63 19.1002C108.672 19.1955 108.802 19.1959 108.833 19.0908C108.99 18.5486 108.782 18.0371 108.902 17.4926C108.966 17.203 108.814 17.0392 108.579 16.9531C108.582 16.945 108.585 16.9382 108.587 16.9296C108.634 16.8661 108.696 16.7899 108.708 16.7095C108.73 16.5618 108.739 16.481 108.659 16.3529C108.601 16.2576 108.52 16.2258 108.431 16.2204C108.649 16.0648 108.87 15.9146 109.095 15.7735C109.311 15.6379 109.657 15.3468 109.643 15.0614C109.626 14.7416 109.349 14.6485 108.985 14.6564C108.991 14.6526 108.998 14.6495 109.005 14.646C109.461 14.4049 109.867 14.0776 110.203 13.6858C110.253 13.6273 110.299 13.5655 110.338 13.5015C110.802 13.2485 111.299 12.9127 111.527 12.4256C112.102 11.2002 110.274 10.8524 109.502 10.8002ZM109.986 13.1129C109.469 13.3806 108.928 13.5843 108.358 13.7653C107.953 13.8938 107.486 14.0139 107.064 14.0553C106.857 14.0759 106.66 14.0925 106.451 14.0656C106.515 14.0739 106.766 13.728 106.828 13.6851C107.591 13.1556 108.453 12.9145 109.383 12.9046C109.575 12.9026 109.768 12.9077 109.949 12.9778C110.003 12.9982 110.007 13.0498 109.986 13.1129Z" fill="#828282"/>
</svg>
