<svg width="90" height="80" viewBox="0 0 90 80" fill="none" xmlns="http://www.w3.org/2000/svg">
<path d="M75.5021 68.065C64.7194 74.8896 42.9072 75.0384 42.0623 54.1894C42.0623 53.5425 42.0168 52.8956 42.0103 52.3005C42.0103 52.3005 42.0103 52.3005 42.0103 52.2617V52.1711C42.0103 51.4725 42.0103 50.7997 42.0103 50.1528C42.0103 50.1528 42.0103 50.1528 42.0103 50.1011C42.3612 32.6352 50.5311 34.246 56.6211 34.0002C61.0537 33.8255 66.3703 28.5858 75.4696 36.0961C75.4696 36.0961 75.593 36.3807 75.801 36.8982C77.5104 41.2259 85.1538 61.9649 75.5021 68.065Z" fill="url(#paint0_radial_271_2589)"/>
<g style="mix-blend-mode:multiply" opacity="0.1">
<path d="M42.0038 51.1555C43.6807 57.5208 44.9351 51.88 47.9184 51.8994C51.974 51.8994 52.0455 48.3933 55.4383 48.762C59.2145 49.1696 59.8774 45.2689 63.5756 47.0478C69.7826 50.0234 74.4102 65.3416 78.9729 64.5136C83.5355 63.6856 75.2032 70.9824 71.3555 71.0536C67.5078 71.1248 43.5572 61.5638 43.5572 61.5638C43.5572 61.5638 41.9843 59.759 42.0038 51.1555Z" fill="#F18F6C"/>
</g>
<g style="mix-blend-mode:multiply" opacity="0.1">
<path d="M42.5562 58.6075C43.0631 55.2049 45.065 57.8895 45.2209 56.4793C45.3769 55.0691 46.4688 52.1322 48.9126 52.598C51.3564 53.0637 51.311 47.7205 54.1447 48.8331C56.9785 49.9457 58.5514 50.2821 59.0583 48.8331C59.5653 47.3841 62.2106 46.0645 65.7528 49.5576C69.295 53.0508 73.9811 63.899 76.9709 64.9922C79.9607 66.0855 64.3554 68.6795 62.2171 67.8903C60.0787 67.1011 43.5571 61.5638 43.5571 61.5638L42.5562 58.6075Z" fill="#804C39"/>
</g>
<g style="mix-blend-mode:multiply" opacity="0.2">
<path d="M75.7881 36.8982C70.0621 32.1889 61.9117 33.1204 59.5394 35.9473C56.6732 39.3564 56.4132 34.6535 48.8348 36.9435C43.1997 38.6448 42.1728 46.278 42.0168 50.1011C42.3678 32.6352 50.5376 34.246 56.6277 34.0002C61.0603 33.8255 66.3769 28.5858 75.4761 36.0961C75.4566 36.0961 75.5801 36.3807 75.7881 36.8982Z" fill="#F18F6C"/>
</g>
<path style="mix-blend-mode:screen" opacity="0.2" d="M45.6239 40.9153C44.6796 42.3871 44.0491 44.0362 43.7715 45.7605C43.5303 47.2801 43.4997 48.8254 43.6805 50.3533C43.7499 51.0544 43.865 51.7501 44.025 52.4363C44.8764 55.9424 48.1197 54.0406 49.3806 51.9964C50.323 50.4827 51.5189 48.3221 53.2803 47.5717C54.7296 46.9249 56.127 47.5006 57.5764 47.824C58.8854 48.1022 60.2386 48.1022 61.5476 47.824C62.7175 47.617 64.2644 47.0478 65.4473 47.3906C68.3006 48.2316 69.1195 52.9409 70.2439 55.192C71.069 56.9574 72.0683 58.6367 73.2272 60.2054C73.4484 60.5401 73.7351 60.8271 74.07 61.0494C74.405 61.2716 74.7815 61.4246 75.177 61.4991C77.6208 61.7449 75.541 58.2259 75.0405 57.262C74.366 56.0661 73.7606 54.8329 73.2272 53.5683C73.0192 53.0379 71.6543 50.0881 72.8047 49.9587C73.5001 49.8811 74.7545 51.1167 75.4045 51.4207C76.6199 51.9835 77.7573 52.7145 78.9922 53.2255C79.5836 53.4907 80.5391 53.633 80.7926 54.364C81.046 55.095 80.7146 56.447 80.7926 57.2297C80.89 58.3682 81.6765 58.9051 82.3329 59.8172C84.0553 62.1072 82.2419 64.1578 81.2865 66.3702C80.6886 67.748 79.8566 72.5091 82.8009 71.9139C82.9309 69.8374 84.3348 68.1103 85.0237 66.2602C85.7127 64.4101 86.2001 62.6635 86.7006 60.8264C87.149 59.2221 88.4359 56.2982 87.0256 55.0044C86.1221 54.157 84.9587 54.0212 83.9838 53.3096C82.6839 52.3651 83.2233 51.0649 83.2753 49.7129C83.3569 48.82 83.1811 47.9224 82.7684 47.1254C82.2136 46.2559 81.6103 45.418 80.9615 44.6155C79.7981 43.1147 78.6607 41.6269 77.6208 40.0356C76.7098 38.6006 75.4066 37.454 73.8641 36.73C71.4723 35.695 68.736 34.5629 66.0647 35.3068C64.3294 35.7985 62.867 36.8529 61.1706 37.448C57.3944 38.7418 53.3712 36.6524 49.6016 37.8685C47.9647 38.4017 46.5608 39.477 45.6239 40.9153Z" fill="url(#paint1_linear_271_2589)"/>
<path d="M14.4981 68.065C25.2807 74.8896 47.0995 75.0384 47.9444 54.1894C47.9444 53.5425 47.9834 52.8956 47.9964 52.3005V52.1711C47.9964 51.4725 47.9964 50.7997 47.9964 50.1528V50.1011C47.6389 32.6352 39.4691 34.246 33.3791 34.0002C28.9529 33.8255 23.6299 28.5858 14.5306 36.0961L14.2056 36.8982C12.4897 41.2259 4.86586 61.9649 14.4981 68.065Z" fill="url(#paint2_radial_271_2589)"/>
<g style="mix-blend-mode:multiply" opacity="0.1">
<path d="M48.0026 51.1555C46.3258 57.5208 45.0649 51.88 42.0816 51.8994C38.0324 51.8994 37.9545 48.3933 34.5617 48.762C30.7855 49.1696 30.1226 45.2689 26.4244 47.0478C20.2174 50.0234 15.5898 65.3416 11.0271 64.5136C6.46448 63.6856 14.8033 70.9824 18.6445 71.0536C22.4857 71.1248 46.4363 61.5638 46.4363 61.5638C46.4363 61.5638 48.0221 59.759 48.0026 51.1555Z" fill="#F18F6C"/>
</g>
<g style="mix-blend-mode:multiply" opacity="0.1">
<path d="M47.4569 58.6075C46.9564 55.2049 44.9481 57.8895 44.7921 56.4793C44.6361 55.0691 43.5442 52.1322 41.1004 52.598C38.6566 53.0637 38.7086 47.7205 35.8683 48.8331C33.0281 49.9457 31.4617 50.2821 30.9547 48.8331C30.4478 47.3841 27.8025 46.0645 24.2603 49.5576C20.7181 53.0508 16.0189 63.8925 13.0097 64.9858C10.0004 66.079 25.6252 68.6924 27.7635 67.8903C29.9018 67.0881 46.417 61.5573 46.417 61.5573L47.4569 58.6075Z" fill="#804C39"/>
</g>
<g style="mix-blend-mode:multiply" opacity="0.2">
<path d="M14.2185 36.8982C19.938 32.1889 28.0884 33.1204 30.4672 35.9473C33.34 39.3564 33.5935 34.6535 41.1783 36.9435C46.8069 38.6448 47.8403 46.278 47.9963 50.1011C47.6388 32.6352 39.469 34.246 33.379 34.0002C28.9528 33.8255 23.6298 28.5858 14.5305 36.0961L14.2185 36.8982Z" fill="#F18F6C"/>
</g>
<path style="mix-blend-mode:screen" opacity="0.2" d="M44.376 40.9153C45.3203 42.3871 45.9508 44.0362 46.2283 45.7605C46.4696 47.2801 46.5002 48.8254 46.3193 50.3533C46.25 51.0543 46.1349 51.7501 45.9748 52.4363C45.1299 55.9424 41.8802 54.0406 40.6193 51.9964C39.6834 50.4827 38.481 48.3221 36.7196 47.5717C35.2767 46.9249 33.8728 47.5006 32.4234 47.824C31.1145 48.1022 29.7612 48.1022 28.4523 47.824C27.2824 47.617 25.7355 47.0478 24.5526 47.3906C21.6993 48.2316 20.8804 52.9409 19.756 55.192C18.9309 56.9574 17.9315 58.6367 16.7727 60.2054C16.5523 60.5408 16.2659 60.8284 15.9308 61.0508C15.5956 61.2731 15.2188 61.4256 14.8229 61.4991C12.3791 61.7449 14.4589 58.2259 14.9593 57.262C15.6338 56.0661 16.2393 54.8329 16.7727 53.5683C16.9807 53.0379 18.3456 50.0881 17.1952 49.9587C16.4997 49.8811 15.2453 51.1167 14.5954 51.4207C13.38 51.9835 12.2426 52.7145 11.0142 53.2255C10.4162 53.4907 9.46078 53.633 9.2073 54.364C8.95382 55.095 9.28529 56.447 9.2073 57.2297C9.10981 58.3682 8.32337 58.9051 7.66692 59.8172C5.95106 62.1072 7.75793 64.1578 8.71335 66.3702C9.3113 67.748 10.1497 72.5091 7.20547 71.9139C7.07548 69.8374 5.66509 68.1103 4.97614 66.2602C4.2872 64.4101 3.80623 62.6635 3.29927 60.8264C2.85731 59.2221 1.56391 56.2982 2.9743 55.0044C3.87773 54.157 5.04114 54.0212 6.01606 53.3096C7.31596 52.3651 6.783 51.0649 6.7245 49.7129C6.64926 48.8203 6.82478 47.9245 7.23146 47.1254C7.80611 46.2394 8.43334 45.3883 9.10981 44.5767C10.2667 43.0759 11.4041 41.5881 12.444 39.9967C13.3551 38.5618 14.6582 37.4152 16.2007 36.6912C18.5926 35.6562 21.3353 34.5241 24.0001 35.268C25.7355 35.7597 27.1979 36.8141 28.8877 37.4092C32.6639 38.703 36.6871 36.6135 40.4568 37.8297C42.0779 38.3844 43.4604 39.4729 44.376 40.9153Z" fill="url(#paint3_linear_271_2589)"/>
<path d="M73.8317 57.4625C72.6813 62.23 68.5347 64.423 64.271 66.0531C62.9711 66.5512 61.6712 66.9975 60.4623 67.4439C56.5811 68.9698 52.5787 70.1707 48.4968 71.0341C38.0976 72.9747 27.4385 70.8465 19.1256 64.1965C18.251 63.555 17.4926 62.7696 16.8833 61.8742C15.7004 59.9789 15.7719 57.5854 16.0254 55.3666C17.4098 43.3216 24.5787 31.529 33.9055 23.8311C39.105 19.5357 45.7215 17.194 52.104 19.1929C53.1004 19.5062 54.0646 19.9134 54.9833 20.409C62.2172 24.3033 67.6053 32.2923 70.855 40.4171C71.9857 43.2305 72.8813 46.1319 73.5328 49.0918C74.1502 51.8605 74.4882 54.7262 73.8317 57.4625Z" fill="url(#paint4_linear_271_2589)"/>
<path style="mix-blend-mode:multiply" d="M73.8318 57.4627C72.6814 62.2302 68.5347 64.4232 64.2711 66.0533C64.7715 65.4776 47.7494 68.3303 48.4383 67.7352C58.285 59.2675 66.7539 33.1723 59.9554 28.0554C54.8338 24.1741 53.0205 22.7639 52.104 19.1931C53.1005 19.5064 54.0646 19.9136 54.9833 20.4093C62.2172 24.3035 67.6053 32.2925 70.855 40.4173C71.9857 43.2307 72.8813 46.1321 73.5328 49.092C74.1503 51.8607 74.4882 54.7264 73.8318 57.4627Z" fill="url(#paint5_linear_271_2589)"/>
<path style="mix-blend-mode:multiply" d="M36.4077 22.2334C35.6408 22.7444 34.8933 23.3008 34.1719 23.8894C24.8451 31.5873 17.6827 43.38 16.2983 55.425C16.0383 57.6438 15.9733 60.0372 17.1562 61.9326C17.7656 62.828 18.5239 63.6133 19.3986 64.2549C27.6919 70.9049 38.3575 73.0331 48.7567 71.0925C52.841 70.23 56.8456 69.0291 60.7287 67.5023L61.1642 67.3405C50.0046 54.5905 39.8394 39.0847 36.4077 22.2334Z" fill="url(#paint6_linear_271_2589)"/>
<path style="mix-blend-mode:multiply" d="M43.7132 70.0961C35.9138 59.6425 27.029 44.1691 27.9129 30.0476C21.7514 37.228 17.3383 46.2197 16.2854 55.4248C16.0254 57.6436 15.9604 60.0371 17.1433 61.9325C17.7526 62.8278 18.5109 63.6132 19.3856 64.2548C26.665 70.0767 35.7708 72.4378 44.8896 71.6292C44.4866 71.1182 44.0966 70.6201 43.7132 70.0961Z" fill="url(#paint7_linear_271_2589)"/>
<mask id="mask0_271_2589" style="mask-type:luminance" maskUnits="userSpaceOnUse" x="42" y="58" width="12" height="17">
<path d="M53.4362 73.447C47.0797 76.0345 44.6359 71.4352 42.8291 61.4796C41.8802 56.2658 48.1067 57.2814 51.7594 66.9717C52.5423 69.0664 53.1042 71.2365 53.4362 73.447Z" fill="white"/>
</mask>
<g mask="url(#mask0_271_2589)">
<path d="M53.4362 56.2659H41.8801V76.0217H53.4362V56.2659Z" fill="#F18F6C"/>
<path d="M43.2515 66.1889C41.7262 62.4469 41.5765 58.2891 42.8291 54.448V55.6447H54.0862V76.6943H56.2115C54.3885 76.5254 52.6193 75.9883 51.0119 75.1159C47.4448 73.1485 44.6949 69.9852 43.2515 66.1889Z" fill="#F18F6C"/>
<path d="M43.414 66.1307C41.8911 62.4219 41.7414 58.2953 42.9916 54.4868V55.5995H54.0862V76.455H56.205C54.4011 76.2906 52.6496 75.7624 51.0574 74.9024C47.5504 72.9668 44.8432 69.86 43.414 66.1307Z" fill="#F19270"/>
<path d="M43.5571 66.0918C42.0634 62.4373 41.916 58.3748 43.1411 54.6226V55.6446H54.0863V76.3061H56.1986C54.4179 76.1411 52.6891 75.6196 51.116 74.773C47.6454 72.8584 44.9677 69.7831 43.5571 66.0918Z" fill="#F29473"/>
<path d="M43.7259 66.0078C42.2507 62.3986 42.1056 58.3863 43.3165 54.6809V55.6189H54.0861V76.0863H56.1919C54.4362 75.9226 52.7318 75.4078 51.1808 74.5726C47.7573 72.6838 45.1163 69.6496 43.7259 66.0078Z" fill="#F29776"/>
<path d="M43.8885 65.9431C42.4309 62.3839 42.2882 58.4256 43.4856 54.7715V55.6189H54.0862V75.8922H56.1855C54.4524 75.7311 52.77 75.2228 51.2394 74.3979C47.8643 72.5303 45.2608 69.5358 43.8885 65.9431Z" fill="#F2997A"/>
<path d="M44.0444 65.8784C42.6115 62.3743 42.4711 58.4786 43.648 54.8813V55.6447H54.0861V75.698H56.179C54.4684 75.5404 52.8078 75.0386 51.2978 74.2231C47.9665 72.3804 45.3973 69.4246 44.0444 65.8784Z" fill="#F29C7D"/>
<path d="M44.207 65.8201C42.7895 62.3553 42.6513 58.5027 43.817 54.946V55.5929H54.0862V75.4781H56.1726C54.4871 75.3281 52.8492 74.8419 51.3564 74.0485C48.0743 72.2289 45.5426 69.3151 44.207 65.8201Z" fill="#F39E80"/>
<path d="M44.363 65.7556C42.9646 62.3385 42.8264 58.539 43.9731 55.0303V55.6189H54.0863V75.3101H56.1661C54.5041 75.1514 52.8908 74.6631 51.4215 73.874C48.1775 72.0845 45.6764 69.2078 44.363 65.7556Z" fill="#F3A083"/>
<path d="M44.5189 65.6974C43.1324 62.3202 42.9965 58.5626 44.1354 55.095V55.5931H54.0861V75.1483H56.1594C54.5199 74.9931 52.9285 74.5113 51.4798 73.7317C48.2782 71.9567 45.812 69.1102 44.5189 65.6974Z" fill="#F3A285"/>
<path d="M44.6749 65.6326C43.3198 62.3092 43.1863 58.6165 44.2979 55.2048V55.6188H54.0861V74.9218H56.1595C54.5409 74.7672 52.9698 74.2922 51.5383 73.5246C48.3864 71.7826 45.9552 68.987 44.6749 65.6326Z" fill="#F3A488"/>
<path d="M44.8569 65.5744C43.5135 62.3 43.3822 58.6572 44.4864 55.2954V55.6189H54.1056V74.7278H56.1725C54.5786 74.5757 53.0316 74.1072 51.6228 73.3499C48.5155 71.6349 46.1186 68.8803 44.8569 65.5744Z" fill="#F4A68B"/>
<path d="M44.9934 65.5098C43.6745 62.2817 43.5455 58.6933 44.6294 55.3796V55.619H54.0862V74.5015H56.1465C54.5748 74.3591 53.0488 73.8991 51.6618 73.1495C48.6047 71.4636 46.2433 68.7583 44.9934 65.5098Z" fill="#F4A88D"/>
<path d="M45.1494 65.445C43.8488 62.2645 43.7222 58.7283 44.7919 55.4636V55.6189H54.0861V74.3332H56.14C54.5915 74.1904 53.0881 73.7371 51.7203 73.0006C48.7006 71.3355 46.3722 68.6582 45.1494 65.445Z" fill="#F4AA90"/>
<path d="M45.3118 65.3868C44.0309 62.2539 43.9042 58.7711 44.9543 55.5542V55.6189H54.0861V74.1391H56.1334C54.6095 74.0026 53.1286 73.5626 51.7788 72.8454C48.8058 71.1972 46.5149 68.5551 45.3118 65.3868Z" fill="#F4AC92"/>
<path d="M45.4678 65.3221C44.2 62.2311 44.0756 58.7926 45.1169 55.6188C45.5956 54.1859 46.363 52.8652 47.3722 51.7375V55.5736H54.0862V73.8998H56.127C54.6243 73.7598 53.1653 73.3197 51.8373 72.606C48.9198 70.9988 46.6646 68.4198 45.4678 65.3221Z" fill="#F5AE94"/>
<path d="M45.6237 65.2639C44.3855 62.2294 44.2635 58.8571 45.2793 55.7418C45.753 54.3402 46.507 53.0485 47.4956 51.9446V55.6318H54.0861V73.7445H56.1204C54.6406 73.603 53.2053 73.1628 51.9022 72.4508C49.0245 70.8656 46.8011 68.3206 45.6237 65.2639Z" fill="#F5AF96"/>
<path d="M45.7863 65.1992C44.5598 62.2091 44.4401 58.8828 45.4483 55.813C45.9145 54.4338 46.655 53.1621 47.6256 52.074V55.6189H54.0861V73.557H56.114C54.6589 73.4209 53.2463 72.994 51.9608 72.302C49.1225 70.7368 46.9344 68.2198 45.7863 65.1992Z" fill="#F5B198"/>
<path d="M45.9422 65.1409C44.7375 62.1977 44.62 58.9247 45.6107 55.9034C46.0684 54.5449 46.798 53.2927 47.7555 52.2227V55.6188H54.086V73.3628H56.1074C54.6755 73.2263 53.2855 72.8062 52.0192 72.1272C49.2305 70.5829 47.0786 68.1089 45.9422 65.1409Z" fill="#F5B29A"/>
<path d="M46.0983 65.0764C44.9147 62.1801 44.7996 58.9603 45.7733 55.9877C46.2228 54.6518 46.9416 53.4213 47.8856 52.3716V55.606H54.0861V73.1559H56.1075C54.6958 73.0239 53.3254 72.6103 52.0778 71.9398C49.3353 70.4236 47.2179 67.9932 46.0983 65.0764Z" fill="#F5B49C"/>
<path d="M46.2609 65.0117C45.0935 62.166 44.9783 59.0005 45.9359 56.0782C46.3785 54.7617 47.0861 53.5489 48.0157 52.5139V55.619H54.0863V72.9748H56.1011C54.714 72.8462 53.3675 72.4391 52.1429 71.7781C49.4401 70.2858 47.356 67.8884 46.2609 65.0117Z" fill="#F5B59E"/>
<path d="M46.4168 64.9534C45.274 62.1517 45.1612 59.0385 46.0984 56.1622C46.5341 54.869 47.2308 53.6781 48.1457 52.6626V55.6189H54.0862V72.7807H56.0946C54.7284 72.6532 53.402 72.2527 52.1949 71.6033C49.5413 70.1342 47.4947 67.7788 46.4168 64.9534Z" fill="#F6B6A0"/>
<path d="M46.5727 64.8888C45.4481 62.137 45.3376 59.078 46.2607 56.2529C46.6909 54.9831 47.3739 53.8126 48.269 52.8115V55.619H54.086V72.5609H56.0879C54.7471 72.4321 53.4457 72.0385 52.2597 71.4029C49.6549 69.9628 47.6418 67.657 46.5727 64.8888Z" fill="#F6B8A1"/>
<path d="M46.7351 64.8304C45.629 62.1239 45.5208 59.1151 46.4297 56.3368C46.8438 55.0898 47.5071 53.939 48.3795 52.9536V55.6188H54.0666V72.3924H56.0619C54.7457 72.2671 53.4682 71.88 52.3052 71.2539C49.7452 69.8339 47.7722 67.5586 46.7351 64.8304Z" fill="#F6B9A3"/>
<path d="M46.8911 64.7981C45.8034 62.1391 45.6975 59.1826 46.5922 56.4533C47.0093 55.227 47.6727 54.0979 48.542 53.1348V55.6511H54.099V72.2243H56.0879C54.794 72.1078 53.5377 71.7291 52.3962 71.1116C49.8692 69.7207 47.9189 67.4839 46.8911 64.7981Z" fill="#F6BAA4"/>
<path d="M47.0471 64.7076C44.8308 59.0862 46.9236 53.0055 51.7268 51.123V55.6512H54.0861V72.0303H56.0684C54.7977 71.9133 53.564 71.5414 52.4417 70.9371C49.9606 69.56 48.0495 67.3531 47.0471 64.7076Z" fill="#F6BBA6"/>
<path d="M47.2098 64.6429C45.026 59.125 47.0863 53.1543 51.805 51.3042V55.6189H54.0863V71.791H56.0361C54.7879 71.6775 53.5761 71.3121 52.4744 70.7172C50.0549 69.3734 48.1903 67.2221 47.2098 64.6429Z" fill="#F6BCA7"/>
<path d="M47.3657 64.5781C45.2273 59.1637 47.2422 53.303 51.8763 51.4917V55.6188H54.0861V71.6098H56.036C54.813 71.4963 53.6257 71.1377 52.5458 70.5553C50.165 69.2331 48.3304 67.1161 47.3657 64.5781Z" fill="#F6BDA9"/>
<path d="M47.5216 64.5201C45.4222 59.2027 47.4046 53.4584 51.9477 51.6794V55.619H54.0861V71.4158H56.0359C54.8337 71.3041 53.6665 70.952 52.6042 70.3808C50.2702 69.0829 48.4706 67.0077 47.5216 64.5201Z" fill="#F6BEAA"/>
<path d="M47.6843 64.4554C45.6239 59.2803 47.5673 53.6072 52.0194 51.8606V55.619H54.0863V71.2218H56.0361C54.8566 71.1126 53.7114 70.7671 52.6694 70.2062C50.3785 68.9341 48.6129 66.8973 47.6843 64.4554Z" fill="#F7BFAB"/>
<path d="M47.8401 64.3971C45.8187 59.2867 47.7296 53.7559 52.0972 52.0481V55.6189H54.0861V71.0276H56.0359C54.879 70.921 53.7558 70.5821 52.7342 70.0314C50.4862 68.7866 48.7527 66.7909 47.8401 64.3971Z" fill="#F7C0AC"/>
<path d="M47.9962 64.3324C46.0463 59.3256 47.8857 53.9111 52.1688 52.2292V55.6189H54.0862V70.8336H56.036C54.8975 70.7302 53.792 70.3979 52.7863 69.8568C50.5864 68.6335 48.8902 66.6774 47.9962 64.3324Z" fill="#F7C1AD"/>
<path d="M48.1586 64.2676C46.2088 59.3643 48.0481 54.0598 52.2403 52.4167V55.6512H54.0861V70.62H56.036C54.9273 70.5141 53.8511 70.1886 52.8707 69.6626C50.7101 68.4735 49.0411 66.5627 48.1586 64.2676Z" fill="#F7C1AE"/>
<path d="M48.3145 64.2096C46.4167 59.4032 48.2105 54.2088 52.3117 52.6045V55.619H54.0861V70.4455H56.0359C54.9491 70.3462 53.8941 70.027 52.9356 69.5075C50.8144 68.3409 49.1771 66.4638 48.3145 64.2096Z" fill="#F7C2AF"/>
<path d="M48.4706 64.1513C46.6183 59.4549 48.3666 54.3639 52.3703 52.792V55.6253H54.0667V70.2578H56.0165C54.952 70.1541 53.9196 69.8372 52.9813 69.3263C50.9121 68.1841 49.3146 66.3513 48.4706 64.1513Z" fill="#F7C3B0"/>
<path d="M48.633 64.0866C46.8132 59.4873 48.5291 54.5127 52.4613 52.9731V55.6189H54.0861V70.0573H56.036C54.9977 69.957 53.9901 69.6513 53.0722 69.1582C51.0363 68.0435 49.4634 66.2466 48.633 64.0866Z" fill="#F7C3B1"/>
<path d="M48.7891 64.0219C47.0147 59.4938 48.6916 54.6615 52.5328 53.1543V55.6189H54.0862V69.8503H56.0035C54.9882 69.7558 54.0023 69.4588 53.1047 68.9771C51.1235 67.8842 49.5948 66.1289 48.7891 64.0219Z" fill="#F7C4B2"/>
<path d="M48.9451 63.9636C47.2097 59.5648 48.8476 54.8102 52.6043 53.3418V55.6188H54.0861V69.6626H55.997C55.0043 69.5707 54.0405 69.2802 53.1632 68.8088C51.2276 67.7387 49.7338 66.0228 48.9451 63.9636Z" fill="#F7C5B2"/>
<path d="M49.1076 63.899C47.4113 59.6101 49.0101 54.9655 52.6823 53.5488V55.6383H54.0862V69.488H55.9971C55.0246 69.4005 54.0803 69.1166 53.2218 68.6535C51.3282 67.6033 49.8704 65.9185 49.1076 63.899Z" fill="#F7C5B3"/>
<path d="M49.2635 63.8344C47.6062 59.6491 49.1725 55.1144 52.7537 53.7107V55.6513H54.0862V69.307H55.9905C55.0432 69.2198 54.1234 68.9426 53.2867 68.492C51.434 67.4624 50.0084 65.812 49.2635 63.8344Z" fill="#F7C6B4"/>
<path d="M49.4065 63.7761C47.7881 59.6878 49.309 55.2631 52.8058 53.8982V55.6189H54.0667V69.0805H55.9645C55.0398 68.9959 54.1421 68.7252 53.3257 68.2849C51.5244 67.2909 50.1357 65.6932 49.4065 63.7761Z" fill="#F7C6B4"/>
<path d="M49.5821 63.7114C48.0092 59.7266 49.4911 55.4184 52.8968 54.0793V55.6189H54.0862V68.5113H58.6034C55.1976 69.8503 51.155 67.6962 49.5821 63.7114Z" fill="#F7C6B5"/>
<path d="M49.7381 63.6531C48.2042 59.7718 49.6536 55.5671 52.9878 54.2668V55.6188H54.0992V68.3301H58.5059C55.2106 69.6303 51.272 67.5344 49.7381 63.6531Z" fill="#F8C7B6"/>
<path d="M49.9006 63.5886C48.4057 59.8108 49.8161 55.716 53.0463 54.4546V55.619H54.0862V68.1426H58.4539C55.2561 69.4105 51.3889 67.3858 49.9006 63.5886Z" fill="#F8C7B6"/>
<path d="M50.0565 63.5045C48.6006 59.8237 49.972 55.8454 53.1178 54.6099V55.5931H54.0862V67.9356H58.3824C55.2561 69.1906 51.5124 67.2047 50.0565 63.5045Z" fill="#F8C8B7"/>
<path d="M50.2126 63.4656C48.8022 59.8883 50.1346 56.02 53.1893 54.8232V55.6189H54.0863V67.7738H58.3109C55.2562 68.9706 51.6294 67.0429 50.2126 63.4656Z" fill="#F8C8B7"/>
<path d="M50.375 63.4009C48.9971 59.9272 50.297 56.1688 53.2673 54.9915V55.6383H54.0862V67.6057H58.2394C55.2561 68.7507 51.7464 66.8812 50.375 63.4009Z" fill="#F8C8B7"/>
<path d="M50.5309 63.3426C49.1985 59.9724 50.4529 56.3239 53.3386 55.1919V55.6188H54.0861V67.3856H58.1612C55.256 68.5306 51.8633 66.7388 50.5309 63.3426Z" fill="#F8C9B8"/>
<path d="M50.7064 63.278C49.4065 60.0112 50.6349 56.4728 53.4297 55.3796C54.1213 55.1203 54.8616 55.0155 55.5984 55.0725C56.3352 55.1295 57.0504 55.3469 57.6934 55.7095H54.0862V67.2175H58.0898C55.295 68.3107 52.0063 66.5512 50.7064 63.278Z" fill="#F8C9B8"/>
<path d="M50.8494 63.2198C49.595 60.05 50.7779 56.6215 53.4492 55.5607C54.1199 55.3097 54.8378 55.2086 55.5522 55.2645C56.2665 55.3204 56.9598 55.5319 57.5828 55.8841H54.0861V67.0364H58.0183C55.308 68.0908 52.0973 66.383 50.8494 63.2198Z" fill="#F8C9B8"/>
<path d="M51.0054 63.1551C49.7965 60.0888 50.9339 56.7703 53.5597 55.7483C54.2085 55.5069 54.9024 55.4097 55.5928 55.4633C56.2833 55.5169 56.9536 55.7202 57.5569 56.0588H54.0862V66.8488H57.9469C55.3211 67.8773 52.2143 66.2213 51.0054 63.1551Z" fill="#F8C9B9"/>
<path d="M51.1613 63.0968C49.9914 60.1276 51.0963 56.9256 53.6311 55.9294C54.259 55.6963 54.9305 55.6028 55.5985 55.6553C56.2666 55.7078 56.915 55.9051 57.4983 56.2334H54.0861V66.6612H57.8558C55.3405 67.6574 52.3312 66.0919 51.1613 63.0968Z" fill="#F8C9B9"/>
<path d="M51.3563 63.0322C50.2253 60.173 51.2913 57.0744 53.7351 56.117C54.3405 55.8914 54.9883 55.8006 55.6328 55.8509C56.2774 55.9012 56.903 56.0914 57.4658 56.4081H54.086V66.4801H57.7972C55.3534 67.4375 52.4547 65.8914 51.3563 63.0322Z" fill="#F8CAB9"/>
<path d="M51.4798 62.9675C50.3879 60.2118 51.4148 57.2232 53.7741 56.3046C54.358 56.085 54.9833 55.9961 55.6056 56.0442C56.2279 56.0923 56.8319 56.2762 57.3748 56.5828H54.0861V66.286H57.7258C55.3664 67.2176 52.5717 65.7297 51.4798 62.9675Z" fill="#F8CAB9"/>
<path d="M51.6359 62.9093C50.5895 60.2506 51.5774 57.3785 53.8522 56.4858C54.4149 56.2781 55.0162 56.1948 55.6144 56.2417C56.2126 56.2886 56.7935 56.4646 57.3165 56.7575H54.0667V66.092H57.6349C55.3796 66.9976 52.6888 65.568 51.6359 62.9093Z" fill="#F8CABA"/>
<path d="M51.7982 62.8575C50.7843 60.27 51.7398 57.5402 53.9236 56.6863C54.4646 56.4846 55.0435 56.4033 55.6195 56.448C56.1955 56.4927 56.7547 56.6623 57.2578 56.945H54.0861V65.9367H57.5763C55.3925 66.7776 52.8057 65.3998 51.7982 62.8575Z" fill="#F8CABA"/>
<path d="M51.9543 62.7864C50.9858 60.3348 51.9023 57.6761 53.9951 56.8545C54.5142 56.6613 55.0696 56.5837 55.6221 56.6273C56.1746 56.6709 56.7108 56.8346 57.1928 57.1068H54.0861V65.7362H57.5048C55.412 66.5578 52.9227 65.2381 51.9543 62.7864Z" fill="#F8CABA"/>
<path d="M52.1104 62.7218C51.1809 60.3736 52.0584 57.8313 54.0602 57.0421C54.558 56.8562 55.0907 56.7812 55.6208 56.8226C56.1509 56.8639 56.6654 57.0206 57.128 57.2815H54.0862V65.5551H57.4334C55.4251 66.3378 53.0398 65.0699 52.1104 62.7218Z" fill="#F8CABA"/>
<path d="M52.2728 62.6635C51.3824 60.4124 52.2208 57.9801 54.1447 57.2297H54.0862V65.3675H57.3359C55.4381 66.092 53.1567 64.9082 52.2728 62.6635Z" fill="#F8CABA"/>
<path d="M52.4288 62.5986C51.5839 60.451 52.3833 58.1287 54.2162 57.4236H54.0862V65.1862H57.2839C55.4511 65.9042 53.3063 64.7463 52.4288 62.5986Z" fill="#F8CBBA"/>
<path d="M52.5848 62.5341C51.7789 60.49 52.5393 58.2841 54.2877 57.5984H54.0862V64.9987H57.2059C55.4641 65.6844 53.3972 64.5783 52.5848 62.5341Z" fill="#F8CBBB"/>
<path d="M52.7473 62.4759C51.9803 60.5353 52.7018 58.4329 54.3591 57.7795H54.0862V64.7982H57.1409C55.4835 65.4451 53.5142 64.4166 52.7473 62.4759Z" fill="#F8CBBB"/>
<path d="M52.9033 62.4111C52.1753 60.574 52.8643 58.5816 54.4372 57.967H54.0862V64.6299H57.0695C55.4966 65.2445 53.6312 64.2547 52.9033 62.4111Z" fill="#F8CBBB"/>
<path d="M53.0591 62.3531C52.3767 60.6129 53.0202 58.737 54.5085 58.1548H54.0861V64.4425H56.9913C55.5095 65.0247 53.7481 64.0867 53.0591 62.3531Z" fill="#F8CBBB"/>
<path d="M53.2217 62.2881C52.5718 60.6515 53.1827 58.8855 54.5801 58.3357H54.0862V64.2611H56.9199C55.5225 64.798 53.8652 63.9248 53.2217 62.2881Z" fill="#F8CBBB"/>
<path d="M53.3777 62.2105C52.7733 60.6774 53.3452 59.0149 54.6776 58.5039H54.1122V64.0542H56.8744C55.5356 64.5846 53.9562 63.7566 53.3777 62.2105Z" fill="#F8CBBB"/>
<path d="M53.5336 62.1654C52.9681 60.7358 53.5011 59.1898 54.7295 58.7046H54.0795V63.8797H56.7703C55.5484 64.3648 54.099 63.595 53.5336 62.1654Z" fill="#F8CBBB"/>
<path d="M53.6963 62.1006C53.5551 61.8161 53.4716 61.5067 53.4508 61.19C53.4299 60.8734 53.472 60.5557 53.5746 60.2553C53.6772 59.9548 53.8384 59.6775 54.0489 59.4391C54.2593 59.2008 54.515 59.0061 54.8012 58.8662H54.0862V63.679H56.686C55.5681 64.1512 54.2227 63.4332 53.6963 62.1006Z" fill="#F8CBBB"/>
</g>
<path style="mix-blend-mode:screen" opacity="0.3" d="M48.6852 73.8545C46.5989 72.716 45.7474 69.611 45.143 66.7388C44.5385 63.8667 45.7019 63.9637 46.4429 62.8963C46.6565 62.4564 46.7673 61.9741 46.7668 61.4855C46.7663 60.9968 46.6546 60.5147 46.4401 60.0752C46.2255 59.6357 45.9138 59.2503 45.5281 58.9479C45.1425 58.6456 44.6931 58.4341 44.2135 58.3293C43.1086 58.4458 42.4847 59.5131 42.8357 61.4279C44.0901 68.4466 45.6694 72.7807 48.6852 73.8545Z" fill="url(#paint8_radial_271_2589)"/>
<g style="mix-blend-mode:multiply" opacity="0.3">
<path d="M51.7594 66.9717C49.4131 60.7487 46.0139 58.1094 44.1226 58.394C46.3519 59.1314 47.5478 62.3659 46.9173 63.9313C46.2349 65.6391 49.7381 69.6756 50.6285 71.8233C50.9226 72.5515 51.0038 73.3476 50.8625 74.1197C51.7564 74.033 52.6325 73.815 53.4623 73.4728C53.1237 71.2527 52.553 69.0738 51.7594 66.9717Z" fill="#804C39"/>
</g>
<g style="mix-blend-mode:multiply" opacity="0.4">
<path d="M53.0075 71.1636C52.688 69.7397 52.2711 68.3392 51.7596 66.9718C49.7382 61.6027 46.924 58.8987 44.9741 58.4395C47.1904 60.4836 47.8339 63.4593 47.3594 64.7077C46.82 66.1568 51.0641 69.4365 51.0511 72.2051C51.0102 72.8381 51.1193 73.4718 51.3696 74.0552C51.8579 73.9693 52.3383 73.8438 52.806 73.68C52.9224 72.8459 52.9897 72.0056 53.0075 71.1636Z" fill="#F18F6C"/>
</g>
<path d="M67.7806 71.9464L58.4669 65.7881C56.2571 61.454 52.3834 55.3539 51.207 54.0795C49.4976 52.2165 45.7474 54.5582 46.3519 57.081C49.0751 68.492 52.8514 73.9453 52.2924 73.1496C54.1772 76.7139 58.6619 76.7333 63.1855 77.4061C66.5458 77.9042 67.7806 71.9464 67.7806 71.9464Z" fill="url(#paint9_radial_271_2589)"/>
<path style="mix-blend-mode:screen" opacity="0.3" d="M49.3547 63.5045C49.1207 61.5638 50.6546 61.1045 51.3046 59.4032C51.9545 57.7019 51.1746 57.5855 49.2702 53.439C47.6193 53.646 45.91 55.3214 46.3324 57.0874C49.0557 68.4984 52.8319 73.9516 52.273 73.156C52.6869 73.9537 53.289 74.6396 54.0278 75.1548C52.8449 74.1263 49.5887 65.4451 49.3547 63.5045Z" fill="url(#paint10_radial_271_2589)"/>
<g style="mix-blend-mode:multiply" opacity="0.4">
<path d="M51.2069 54.0793C50.9833 53.8436 50.708 53.6626 50.4024 53.5504C50.0969 53.4382 49.7694 53.3978 49.4456 53.4324C51.0834 54.7262 52.0908 58.3099 52.0453 59.4873C51.9674 60.9492 51.0834 61.6608 51.9609 62.4888C53.8457 64.2613 55.6916 70.1479 56.2765 74.2297C56.5755 76.2674 57.5049 76.3903 58.8048 76.8172L59.2078 76.8819C59.7927 76.6491 61.3591 75.9957 61.3786 75.6787C61.3981 75.3618 59.0193 70.2579 58.5903 66.4995C58.5903 66.2731 58.5318 66.0466 58.4993 65.8526C56.257 61.4538 52.3833 55.3537 51.2069 54.0793Z" fill="#F18F6C"/>
</g>
<g style="mix-blend-mode:multiply" opacity="0.3">
<path d="M51.2069 54.0795C50.9238 53.7508 50.5402 53.5236 50.115 53.4326C52.2403 55.2115 52.9618 60.5483 53.1437 61.6868C53.4947 63.9509 54.1837 62.8836 56.3415 70.4521C57.5049 74.5339 57.5504 76.5716 58.5643 76.7333C59.5717 76.8951 61.2031 77.0244 61.2031 77.0244L55.0351 59.7203C53.8919 57.754 52.6127 55.8692 51.2069 54.0795Z" fill="#804C39"/>
</g>
<path d="M76.6524 73.8868C76.6524 73.8868 75.073 80.4462 70.8418 79.9805C66.8251 79.5341 62.8605 79.3336 60.2412 77.4576C59.257 76.7644 58.4799 75.8188 57.9923 74.7213C57.9079 74.5143 57.8234 74.3008 57.7454 74.0744L58.3303 73.4858L65.8827 65.9949L76.6524 73.8868Z" fill="url(#paint11_radial_271_2589)"/>
<g style="mix-blend-mode:multiply" opacity="0.1">
<path d="M67.6767 72.3863C64.4725 76.8174 61.0733 78.3247 59.0129 76.3323C61.4892 79.2497 66.1624 79.4567 70.842 79.9807C73.3183 80.2524 74.8912 78.1177 75.7686 76.2935C74.1047 73.8547 69.1066 70.4068 67.6767 72.3863Z" fill="#F18F6C"/>
</g>
<path d="M67.5142 71.0665C67.3062 73.2465 61.7687 76.5973 59.0649 75.5947C58.6065 75.4341 58.2214 75.115 57.9795 74.6955C57.8684 74.4918 57.7853 74.2743 57.7325 74.0486C56.1834 67.5388 54.2298 61.131 51.883 54.8621C51.233 52.6497 52.7799 51.1231 54.5673 50.625C56.0426 50.2045 57.687 50.4891 58.4214 51.6471C61.1371 56.2932 63.6144 61.0733 65.8439 65.969C66.9098 68.3302 67.6052 70.2449 67.5142 71.0665Z" fill="url(#paint12_radial_271_2589)"/>
<path opacity="0.4" d="M60.2413 77.4577C59.2571 76.7645 58.48 75.8189 57.9924 74.7214C57.8814 74.5177 57.7983 74.3002 57.7454 74.0745C56.1964 67.5647 54.2428 61.1569 51.8959 54.888C51.246 52.6756 52.7928 51.149 54.5802 50.6509C57.141 52.6368 57.9859 56.0329 57.6415 56.5699C57.297 57.1068 55.2301 58.3553 55.2561 59.7072C55.9647 64.3622 56.983 68.9652 58.3044 73.4858C58.5579 74.3139 58.8114 75.0384 59.0518 75.6141C59.2154 76.0976 59.4839 76.5393 59.8383 76.9079C60.0261 77.0457 60.1668 77.2376 60.2413 77.4577Z" fill="url(#paint13_radial_271_2589)"/>
<g style="mix-blend-mode:multiply" opacity="0.4">
<path d="M76.1454 75.4266C76.1522 74.8611 76.023 74.3021 75.7684 73.7965C75.5475 73.5054 75.1185 73.0137 74.5075 72.3151L65.8827 66.0015C63.6533 61.1058 61.176 56.3257 58.4603 51.6795C58.2323 51.3517 57.935 51.0776 57.5891 50.8764C57.2433 50.6753 56.8574 50.552 56.4585 50.5151C58.3628 52.7857 59.2728 57.0745 59.4418 58.5947C59.6627 60.5354 63.9914 65.2835 63.9914 67.3082C63.9914 69.333 61.6191 70.3744 63.8484 71.0084C65.9152 71.597 71.4593 78.1241 71.2318 80.0001C73.8706 80.0453 75.4045 77.2573 76.1454 75.4266Z" fill="#F18F6C"/>
</g>
<g style="mix-blend-mode:multiply" opacity="0.3">
<path d="M76.659 73.8869L65.8828 66.0014C63.6534 61.1057 61.1761 56.3256 58.4604 51.6794C58.167 51.2365 57.7388 50.8987 57.2385 50.7156C58.064 52.0611 57.3165 53.95 58.7334 55.3537C60.5533 57.1973 64.206 67.1981 64.414 69.1841C64.6219 71.17 67.0138 73.4276 69.4836 75.9246C71.3164 77.7941 72.8633 78.441 73.4222 79.3013C75.7361 77.6906 76.659 73.8869 76.659 73.8869Z" fill="#804C39"/>
</g>
<path d="M59.2858 54.8492C61.2812 58.1936 62.7891 62.366 64.1084 65.3158C66.5328 70.7366 68.3006 74.2169 71.1344 76.2546C74.4361 78.6222 80.3182 77.7747 82.073 75.9635C84.8873 73.059 87.8055 65.0376 84.9653 64.4878C82.125 63.9379 78.4658 64.9082 76.9709 64.9859C75.788 65.0441 74.1176 63.1099 71.9663 59.8108C69.815 56.5117 67.2087 51.7506 64.1215 49.92C59.6823 47.2742 57.518 51.8606 59.2858 54.8492Z" fill="url(#paint14_radial_271_2589)"/>
<path style="mix-blend-mode:screen" opacity="0.2" d="M80.6039 75.1872C75.0273 77.9429 70.7962 76.4098 67.319 69.307C63.4908 61.4797 63.2958 58.614 64.1667 58.0448C66.214 56.7122 68.4044 57.3979 73.266 64.2484C76.2687 68.5954 76.9187 67.9615 76.9187 67.9615C76.9187 67.9615 84.2566 72.3409 80.6039 75.1872Z" fill="url(#paint15_linear_271_2589)"/>
<path opacity="0.4" d="M68.6647 72.3603C65.8049 68.0521 62.8152 61.1563 62.7307 57.8054C62.7307 57.2297 64.0761 56.8933 64.1541 56.5505C64.596 54.4804 64.2321 52.0611 61.5218 49.0725C58.922 49.1889 57.9211 52.4816 59.2924 54.791C61.2878 58.1353 62.7957 62.3077 64.1151 65.2575C66.5394 70.6784 68.3072 74.1586 71.141 76.1963C73.9748 78.234 78.9404 77.8782 81.2672 76.5197C77.153 78.0593 72.0184 77.406 68.6647 72.3603Z" fill="url(#paint16_radial_271_2589)"/>
<g style="mix-blend-mode:multiply" opacity="0.2">
<path d="M83.7435 64.3454C81.1437 64.1966 78.2579 64.9212 76.971 64.9923C75.7881 65.0505 74.1178 63.1164 71.9664 59.8172C69.8151 56.5181 67.2088 51.7506 64.1216 49.9199C63.4991 49.5294 62.8019 49.2716 62.0742 49.1631C64.2979 50.2357 66.0106 52.1331 66.8448 54.4481C67.7938 57.5014 73.2403 62.8576 74.3712 64.3519C75.5021 65.8462 74.5467 68.1814 76.2626 67.8063C77.9785 67.4311 80.4677 66.1761 82.4696 67.3211C83.282 67.7545 83.6525 66.299 83.7435 64.3454Z" fill="#804C39"/>
</g>
<g style="mix-blend-mode:multiply" opacity="0.4">
<path d="M76.971 64.986C75.7881 65.0442 74.1177 63.11 71.9664 59.8109C69.815 56.5118 67.2088 51.7507 64.1215 49.9201C63.4798 49.5145 62.7565 49.254 62.0027 49.1567C65.4539 51.602 65.1094 53.6461 65.0119 54.0925C64.9145 54.5388 65.1549 53.2774 66.8448 54.4224C68.5346 55.5673 73.5068 62.3661 73.7212 64.5331C73.9357 66.7002 74.9106 65.5682 76.321 65.8269C77.2245 66.0016 79.1808 65.1347 80.4807 64.5331C79.0053 64.6884 77.7184 64.9471 76.971 64.986Z" fill="#F18F6C"/>
</g>
<g style="mix-blend-mode:multiply" opacity="0.2">
<path d="M74.488 53.2061C77.5298 56.6669 77.9848 58.5882 77.4453 61.0269C76.9059 63.4657 77.1073 64.1384 77.6013 65.264C78.0953 66.3896 76.5224 71.4935 79.5511 72.9296C80.3631 73.3667 81.2981 73.5226 82.2088 73.3727C83.1196 73.2228 83.9544 72.7756 84.5817 72.1016C84.6272 72.0045 86.6291 68.0197 85.8036 67.2305C84.9782 66.4413 79.9866 53.0703 74.488 53.2061Z" fill="#804C39"/>
</g>
<path d="M75.4567 36.0959C81.4947 42.7136 86.0638 48.0309 88.2801 52.0093C90.6784 56.311 89.697 58.5751 88.6116 62.5535C87.7667 65.6391 85.1409 69.0223 83.828 71.6098C82.4501 74.2879 76.9191 71.8944 78.154 66.1437C79.4994 59.8754 77.9525 57.456 77.3935 56.4404C76.6981 55.1466 73.1429 52.8826 71.362 47.4746C69.7761 42.6295 75.4567 36.0959 75.4567 36.0959Z" fill="url(#paint17_radial_271_2589)"/>
<path style="mix-blend-mode:screen" opacity="0.2" d="M86.6357 60.8069C87.0842 59.2026 88.3711 56.2787 86.9607 54.985C86.0573 54.1375 84.8939 54.0017 83.919 53.2901C82.6191 52.3457 83.1585 51.0454 83.2105 49.6934C83.2921 48.8005 83.1163 47.9029 82.7036 47.1059C82.1487 46.2364 81.5455 45.3985 80.8967 44.596C79.7333 43.0952 78.5959 41.6074 77.556 40.0161C76.8046 38.8606 75.8086 37.8826 74.6377 37.1504C73.1298 39.1816 70.1596 43.8198 71.388 47.5005C71.6843 48.4115 72.056 49.2965 72.4994 50.1463C72.5741 50.0762 72.6702 50.033 72.7724 50.0234C73.4678 49.9457 74.7222 51.1813 75.3722 51.4853C76.5876 52.0481 77.725 52.7791 78.9599 53.2901C79.5513 53.5553 80.5067 53.6977 80.7602 54.4286C81.0137 55.1596 80.6822 56.5116 80.7602 57.2943C80.8577 58.4328 81.6441 58.9697 82.3006 59.8819C84.0229 62.1718 82.2096 64.2224 81.2542 66.4348C80.6562 67.8126 79.8243 72.5737 82.7685 71.9786C82.8985 69.9021 84.3024 68.1749 84.9914 66.3248C85.6803 64.4747 86.1353 62.644 86.6357 60.8069Z" fill="url(#paint18_linear_271_2589)"/>
<g style="mix-blend-mode:multiply" opacity="0.2">
<path d="M83.0675 49.7841C82.2746 52.6627 87.9226 53.5425 88.4426 54.8945C88.9626 56.2465 87.4222 57.8249 87.3442 60.4836C87.2597 63.5757 84.6924 69.9992 84.2634 70.7949C85.6543 68.3561 87.8576 65.3287 88.6181 62.5471C89.7035 58.5688 90.6849 56.3047 88.2866 52.0029C86.0703 48.0246 81.5011 42.7072 75.4631 36.0896C82.2551 44.7449 83.854 46.899 83.0675 49.7841Z" fill="#F18F6C"/>
</g>
<g style="mix-blend-mode:multiply" opacity="0.4">
<path d="M80.994 63.0581C82.8919 63.5433 81.566 62.4112 79.8046 60.7099C78.0432 59.0086 78.0238 56.1364 79.4536 54.778C80.8835 53.4195 79.2652 53.4454 78.1538 54.3446C77.0423 55.2437 76.1259 53.8271 73.5001 51.2719L72.7527 50.625C74.5725 53.8077 76.8278 55.4119 77.3673 56.3887C77.9068 57.3655 79.4731 59.8301 78.1277 66.092C77.5233 68.9188 78.5502 70.9307 79.9086 71.9139C77.5298 69.3264 79.0962 62.5729 80.994 63.0581Z" fill="#F18F6C"/>
</g>
<g style="mix-blend-mode:multiply" opacity="0.2">
<path d="M77.3934 56.3887C77.9524 57.4108 79.4993 59.8301 78.1539 66.092C77.6274 68.5372 78.3293 70.3743 79.4083 71.474C79.2588 65.3545 81.0266 63.5238 81.9301 62.9287C83.1195 62.1525 79.4083 59.6943 80.2012 55.6125C80.9941 51.5306 76.503 54.8944 72.4018 49.7388L72.3303 49.797C74.2152 53.5683 76.8085 55.3602 77.3934 56.3887Z" fill="#F18F6C"/>
</g>
<g style="mix-blend-mode:multiply" opacity="0.4">
<path d="M59.1559 53.2125C59.6088 54.4795 60.2675 55.664 61.1058 56.7186C61.7557 57.0291 64.2515 55.1661 64.3555 54.778C64.4595 54.3899 62.5941 51.2007 61.9377 50.8191C61.2812 50.4374 58.6685 51.8605 59.1559 53.2125Z" fill="#F18F6C"/>
</g>
<path opacity="0.6" d="M59.3769 53.0898C59.7772 54.2146 60.3614 55.2659 61.1058 56.2013C61.6582 56.473 63.8941 54.8234 63.9786 54.4547C64.0631 54.086 62.4187 51.2785 61.8337 50.9421C61.2488 50.6058 58.922 51.8607 59.3769 53.0898Z" fill="white"/>
<g style="mix-blend-mode:multiply" opacity="0.4">
<path d="M52.4615 53.8852C52.7734 55.5348 53.5469 57.5013 53.7614 57.663C54.3203 58.0706 57.1216 56.6604 57.2841 56.2658C57.4466 55.8712 56.1597 52.4492 55.5747 51.964C54.9897 51.4788 52.195 52.4362 52.4615 53.8852Z" fill="#F18F6C"/>
</g>
<path opacity="0.6" d="M52.6565 53.8012C52.856 54.9764 53.2491 56.1108 53.8199 57.1585C54.3139 57.5208 56.8032 56.2658 56.9462 55.9165C57.0892 55.5672 55.9453 52.5269 55.4253 52.0999C54.9053 51.673 52.442 52.5075 52.6565 53.8012Z" fill="white"/>
<g style="mix-blend-mode:multiply" opacity="0.4">
<path d="M46.8069 56.8029C47.1075 57.9917 47.6015 59.1236 48.2692 60.1537C48.8087 60.4901 51.259 59.0087 51.3825 58.64C51.506 58.2713 50.0826 55.2374 49.5171 54.8363C48.9517 54.4353 46.4884 55.5026 46.8069 56.8029Z" fill="#F18F6C"/>
</g>
<path opacity="0.6" d="M47.0279 56.7058C47.2914 57.763 47.7308 58.7687 48.3278 59.6815C48.8088 59.9791 50.9861 58.6659 51.0901 58.336C51.1941 58.0061 49.9397 55.3215 49.4392 54.9657C48.9388 54.61 46.7159 55.5544 47.0279 56.7058Z" fill="white"/>
<g style="mix-blend-mode:multiply" opacity="0.4">
<path d="M43.0242 60.671C43.1527 61.5716 43.427 62.4455 43.8367 63.2586C44.2136 63.5432 46.1505 62.6117 46.274 62.3788C46.1308 61.3239 45.7629 60.3116 45.1951 59.4096C44.8051 59.0862 42.9072 59.6748 43.0242 60.671Z" fill="#F18F6C"/>
</g>
<path opacity="0.6" d="M43.1737 60.6129C43.2867 61.4186 43.5303 62.2007 43.8951 62.9287C44.2266 63.181 45.949 62.3853 46.053 62.146C45.9311 61.2106 45.6074 60.3124 45.104 59.5132C44.7596 59.2027 43.0372 59.7331 43.1737 60.6129Z" fill="white"/>
<g style="mix-blend-mode:multiply" opacity="0.2">
<path d="M83.6978 71.817C82.8009 71.3642 82.7814 70.8855 83.6978 68.4403C84.6143 65.9951 85.1082 65.7428 86.4796 67.1465C84.7313 70.0057 83.6978 71.817 83.6978 71.817Z" fill="#F18F6C"/>
</g>
<path opacity="0.6" d="M83.854 71.5905C83.0806 71.1959 83.0611 70.7884 83.854 68.6796C84.647 66.5707 85.0044 66.4284 86.2588 67.5669C84.712 70.0251 83.854 71.5905 83.854 71.5905Z" fill="white"/>
<path d="M42.0037 52.2617V52.3005C42.0037 52.3005 42.0102 52.2747 42.0037 52.2617Z" fill="url(#paint19_radial_271_2589)"/>
<path style="mix-blend-mode:screen" opacity="0.2" d="M62.2042 76.6492C57.817 77.0761 55.7047 62.0037 55.9387 59.662C56.2181 57.0033 58.454 58.4912 60.7678 62.5083C63.0816 66.5254 63.0816 67.5928 62.5421 69.6693C62.0027 71.7458 66.5718 72.535 65.9998 73.7641C65.4279 74.9931 63.9005 76.7721 62.2042 76.6492Z" fill="url(#paint20_linear_271_2589)"/>
<path style="mix-blend-mode:screen" opacity="0.2" d="M54.2619 74.9544C52.052 73.4277 49.7122 64.3326 49.8747 63.0194C50.0307 61.5445 51.5126 62.1008 53.6574 66.4867C54.7883 68.809 57.1411 74.7668 56.8161 75.4525C56.4912 76.1382 55.3603 75.7242 54.2619 74.9544Z" fill="url(#paint21_linear_271_2589)"/>
<path style="mix-blend-mode:screen" opacity="0.2" d="M48.1067 73.4665C46.6638 72.4638 45.2729 65.9303 45.3574 65.057C45.4614 64.0931 47.0603 64.8565 48.4642 67.7221C49.1986 69.2423 50.7325 72.8002 50.5245 73.2465C50.3165 73.6929 48.8022 73.9646 48.1067 73.4665Z" fill="url(#paint22_linear_271_2589)"/>
<mask id="mask1_271_2589" style="mask-type:luminance" maskUnits="userSpaceOnUse" x="36" y="58" width="12" height="17">
<path d="M36.5637 73.447C42.9267 76.0345 45.3705 71.4352 47.1774 61.4796C48.1198 56.2658 41.8933 57.2814 38.2406 66.9717C37.4577 69.0664 36.8957 71.2365 36.5637 73.447Z" fill="white"/>
</mask>
<g mask="url(#mask1_271_2589)">
<path d="M48.1198 56.2659H36.5637V76.0217H48.1198V56.2659Z" fill="#F18F6C"/>
<path d="M46.7486 66.1889C48.274 62.4469 48.4236 58.2891 47.171 54.448V55.6447H35.9139V76.6943H33.8081C35.6313 76.5263 37.4007 75.9892 39.0077 75.1159C42.5689 73.1467 45.3121 69.9832 46.7486 66.1889Z" fill="#F18F6C"/>
<path d="M46.5926 66.1307C48.1106 62.4205 48.2579 58.2949 47.0085 54.4868V55.5995H35.9139V76.455H33.8081C35.6098 76.2896 37.3589 75.7613 38.9492 74.9024C42.4556 72.9659 45.1624 69.8594 46.5926 66.1307Z" fill="#F19270"/>
<path d="M46.4301 66.0918C47.9272 62.438 48.0746 58.3743 46.8461 54.6226V55.6446H35.9139V76.3061H33.8081C35.589 76.1421 37.318 75.6206 38.8907 74.773C42.3539 72.8549 45.0244 69.78 46.4301 66.0918Z" fill="#F29473"/>
<path d="M46.2741 66.0078C47.7494 62.3986 47.8944 58.3863 46.6836 54.6809V55.6189H35.9139V76.0863H33.8081C35.5657 75.9217 37.2721 75.4069 38.8257 74.5726C42.2457 72.6813 44.8839 69.6477 46.2741 66.0078Z" fill="#F29776"/>
<path d="M46.1181 65.9431C47.5723 62.3832 47.7151 58.4261 46.5211 54.7715V55.6189H35.9139V75.8922H33.8081C35.5412 75.7311 37.2236 75.2228 38.7542 74.3979C42.1335 72.5318 44.7416 69.5373 46.1181 65.9431Z" fill="#F2997A"/>
<path d="M45.9556 65.8784C47.3885 62.3743 47.529 58.4786 46.3521 54.8813V55.6447H35.9139V75.698H33.8081C35.5187 75.5404 37.1793 75.0386 38.6892 74.2231C42.0272 72.385 44.602 69.4281 45.9556 65.8784Z" fill="#F29C7D"/>
<path d="M45.7997 65.8201C47.2172 62.3553 47.3553 58.5027 46.1896 54.946V55.5929H35.9139V75.4781H33.8081C35.4954 75.32 37.1334 74.825 38.6242 74.0226C41.9115 72.2142 44.4524 69.3096 45.7997 65.8201Z" fill="#F39E80"/>
<path d="M45.6437 65.7556C47.04 62.3377 47.1758 58.5383 46.0271 55.0303V55.6189H35.9139V75.3101H33.8081C35.4724 75.1524 37.088 74.6641 38.5592 73.874C41.8101 72.0857 44.3198 69.2097 45.6437 65.7556Z" fill="#F3A083"/>
<path d="M45.5071 65.6974C46.8851 62.3171 47.0118 58.5596 45.8646 55.095V55.5931H35.9139V75.1483H33.8406C35.4803 74.9942 37.0719 74.5123 38.5202 73.7317C41.733 71.9632 44.2095 69.1156 45.5071 65.6974Z" fill="#F3A285"/>
<path d="M45.325 65.6326C46.6834 62.3099 46.8169 58.6161 45.702 55.2048V55.6188H35.9138V74.9218H33.8469C35.4634 74.7671 37.0324 74.292 38.4616 73.5246C41.6153 71.7848 44.0472 68.9885 45.325 65.6326Z" fill="#F3A488"/>
<path d="M45.1691 65.5744C46.5058 62.2986 46.637 58.6581 45.5396 55.2954V55.6189H35.9138V74.7278H33.8535C35.4475 74.5766 36.9947 74.108 38.4032 73.3499C41.5083 71.6323 43.9045 68.8786 45.1691 65.5744Z" fill="#F4A68B"/>
<path d="M45.0066 65.5098C46.3317 62.283 46.4607 58.6924 45.3706 55.3796V55.619H35.9138V74.5015H33.8535C35.4275 74.3789 36.96 73.9387 38.3576 73.2077C41.4186 71.5048 43.7743 68.7774 45.0066 65.5098Z" fill="#F4A88D"/>
<path d="M44.8571 65.445C46.1576 62.2645 46.2842 58.7283 45.2145 55.4636V55.6189H35.9203V74.3332H33.8665C35.4153 74.1921 36.919 73.7387 38.2861 73.0006C41.3058 71.3355 43.6342 68.6582 44.8571 65.445Z" fill="#F4AA90"/>
<path d="M44.6946 65.3868C45.974 62.2532 46.0983 58.7702 45.0456 55.5542V55.6189H35.9138V74.1391H33.8665C35.3906 74.0037 36.8717 73.5636 38.2211 72.8454C41.1958 71.1975 43.4889 68.5555 44.6946 65.3868Z" fill="#F4AC92"/>
<path d="M44.5322 65.3221C45.8001 62.2311 45.9245 58.7926 44.8832 55.6188C44.4043 54.1874 43.6393 52.8671 42.6343 51.7375V55.5736H35.9139V73.8998H33.873C35.3757 73.7598 36.8347 73.3197 38.1627 72.606C41.0802 70.9988 43.3354 68.4198 44.5322 65.3221Z" fill="#F5AE94"/>
<path d="M44.3761 65.2639C45.6144 62.2294 45.7363 58.8571 44.7205 55.7418C44.2468 54.3402 43.4929 53.0485 42.5042 51.9446V55.6318H35.9137V73.7445H33.8794C35.361 73.6021 36.7983 73.162 38.1041 72.4508C40.9783 70.8631 43.1989 68.3186 44.3761 65.2639Z" fill="#F5AF96"/>
<path d="M44.2072 65.1992C45.4275 62.2078 45.5472 58.8836 44.5452 55.813C44.0768 54.4334 43.3341 53.1618 42.3614 52.074V55.6189H35.9009V73.557H33.873C35.3281 73.4209 36.7407 72.994 38.0262 72.302C40.8648 70.7354 43.0545 68.2191 44.2072 65.1992Z" fill="#F5B198"/>
<path d="M44.0578 65.1409C45.2625 62.1977 45.3799 58.9247 44.3892 55.9034C43.9315 54.5449 43.2019 53.2927 42.2444 52.2227V55.6188H35.9139V73.3628H33.8926C35.3246 73.2271 36.7147 72.807 37.9808 72.1272C40.7709 70.5846 42.9233 68.1101 44.0578 65.1409Z" fill="#F5B29A"/>
<path d="M43.9016 65.0764C45.0852 62.1801 45.2003 58.9603 44.2266 55.9877C43.7771 54.6518 43.0583 53.4213 42.1143 52.3716V55.606H35.9137V73.1559H33.8989C35.3083 73.0228 36.6764 72.6093 37.9221 71.9398C40.6661 70.4253 42.7839 67.9944 43.9016 65.0764Z" fill="#F5B49C"/>
<path d="M43.7457 65.0116C44.9077 62.1644 45.0205 59 44.0642 56.0781C43.6222 54.7608 42.917 53.5462 41.9909 52.5073V55.6124H35.9139V72.9682H33.9055C35.2924 72.8386 36.6387 72.4315 37.8637 71.7715C40.5625 70.2773 42.6454 67.8836 43.7457 65.0116Z" fill="#F5B59E"/>
<path d="M43.5572 64.9534C44.7062 62.153 44.819 59.0377 43.8757 56.1622C43.4396 54.8706 42.7454 53.6801 41.8349 52.6626V55.6189H35.8878V72.7807H33.886C35.2522 72.6532 36.5785 72.2527 37.7857 71.6033C40.4369 70.133 42.481 67.7778 43.5572 64.9534Z" fill="#F6B6A0"/>
<path d="M43.4273 64.8888C44.5519 62.137 44.6624 59.078 43.7393 56.2529C43.3117 54.9819 42.6284 53.811 41.731 52.8115V55.619H35.9139V72.5609H33.9121C35.2529 72.4321 36.5543 72.0385 37.7403 71.4029C40.3483 69.9667 42.3625 67.6596 43.4273 64.8888Z" fill="#F6B8A1"/>
<path d="M43.2713 64.8304C44.371 62.1216 44.4723 59.1128 43.5573 56.3368C43.1428 55.0899 42.4796 53.9392 41.6074 52.9536V55.6188H35.9204V72.3924H33.925C35.2491 72.2737 36.5355 71.8909 37.7077 71.2669C40.2644 69.8385 42.2341 67.5597 43.2713 64.8304Z" fill="#F6B9A3"/>
<path d="M43.1089 64.7981C44.1966 62.1391 44.3025 59.1826 43.4078 56.4533C42.9907 55.227 42.3273 54.0979 41.458 53.1348V55.6511H35.9009V72.2243H33.9121C35.206 72.1078 36.4623 71.7291 37.6038 71.1116C40.1307 69.7207 42.0811 67.4839 43.1089 64.7981Z" fill="#F6BAA4"/>
<path d="M42.9529 64.7076C45.1757 59.0862 43.0764 53.0055 38.2733 51.123V55.6512H35.914V72.0303H33.9316C35.2025 71.9142 36.4363 71.5423 37.5583 70.9371C40.0394 69.56 41.9506 67.3531 42.9529 64.7076Z" fill="#F6BBA6"/>
<path d="M42.7969 64.6429C44.9742 59.125 42.9204 53.1543 38.2018 51.3042V55.6189H35.914V71.791H33.9641C35.2123 71.6775 36.4242 71.3121 37.5258 70.7172C39.9456 69.372 41.8118 67.2214 42.7969 64.6429Z" fill="#F6BCA7"/>
<path d="M42.6344 64.5781C44.7727 59.1637 42.7579 53.303 38.1238 51.4917V55.6188H35.914V71.6098H33.9641C35.189 71.4958 36.3783 71.1372 37.4608 70.5553C39.8398 69.2328 41.6723 67.1156 42.6344 64.5781Z" fill="#F6BDA9"/>
<path d="M42.4784 64.5201C44.5778 59.2027 42.5954 53.4584 38.0523 51.6794V55.619H35.914V71.4158H33.9641C35.1641 71.3031 36.3289 70.9511 37.3893 70.3808C39.7257 69.0841 41.5278 67.0088 42.4784 64.5201Z" fill="#F6BEAA"/>
<path d="M42.3159 64.4554C44.3763 59.2803 42.4329 53.6072 37.9808 51.8606V55.619H35.914V71.2218H33.9641C35.1414 71.1116 36.2843 70.7661 37.3244 70.2062C39.6194 68.9374 41.3881 66.8998 42.3159 64.4554Z" fill="#F7BFAB"/>
<path d="M42.16 64.3971C44.1813 59.2867 42.2769 53.7559 37.9093 52.0481V55.6189H35.914V71.0276H33.9641C35.119 70.921 36.24 70.5821 37.2594 70.0314C39.5098 68.7878 41.2457 66.7919 42.16 64.3971Z" fill="#F7C0AC"/>
<path d="M42.004 64.3324C43.9538 59.3256 42.1145 53.9111 37.8313 52.2292V55.6189H35.914V70.8336H33.9641C35.1024 70.7291 36.2077 70.3969 37.2139 69.8568C39.4145 68.6344 41.1109 66.678 42.004 64.3324Z" fill="#F7C1AD"/>
<path d="M41.8415 64.2676C43.7913 59.3643 41.952 54.0598 37.7598 52.4167V55.6512H35.914V70.62H33.9641C35.0728 70.5141 36.149 70.1886 37.1294 69.6626C39.2915 68.4753 40.9609 66.5638 41.8415 64.2676Z" fill="#F7C1AE"/>
<path d="M41.6855 64.2096C43.5833 59.4032 41.796 54.2088 37.6883 52.6045V55.619H35.914V70.4455H33.9641C35.0509 70.3462 36.1059 70.027 37.0644 69.5075C39.1856 68.3409 40.8229 66.4638 41.6855 64.2096Z" fill="#F7C2AF"/>
<path d="M41.5294 64.1513C43.3883 59.4549 41.6334 54.3639 37.6298 52.792V55.6253H35.9269V70.2578H33.9771C35.0406 70.1581 36.073 69.8457 37.0123 69.3393C39.0862 68.195 40.6864 66.3572 41.5294 64.1513Z" fill="#F7C3B0"/>
<path d="M41.367 64.0866C43.1869 59.4873 41.471 54.5127 37.5388 52.9731V55.6189H35.914V70.0573H33.9641C35.0047 69.9587 36.0148 69.653 36.9344 69.1582C38.9682 68.0428 40.5388 66.2458 41.367 64.0866Z" fill="#F7C3B1"/>
<path d="M41.211 64.0219C42.9854 59.4938 41.315 54.6615 37.4673 53.1543V55.6189H35.9139V69.8503H33.9966C35.0121 69.7567 35.9981 69.4596 36.8953 68.9771C38.8765 67.8842 40.4053 66.1289 41.211 64.0219Z" fill="#F7C4B2"/>
<path d="M41.0549 63.9636C42.7902 59.5648 41.1524 54.8102 37.3957 53.3418V55.6188H35.9138V69.6626H34.0029C34.9958 69.5716 35.9598 69.2811 36.8367 68.8088C38.7723 67.7387 40.2662 66.0228 41.0549 63.9636Z" fill="#F7C5B2"/>
<path d="M40.8925 63.899C42.5888 59.6101 40.99 54.9655 37.3243 53.5488V55.6383H35.9139V69.488H34.0095C34.9799 69.4006 35.9222 69.1166 36.7783 68.6535C38.6719 67.6033 40.1297 65.9185 40.8925 63.899Z" fill="#F7C5B3"/>
<path d="M40.7366 63.8344C42.3939 59.6491 40.8276 55.1144 37.2464 53.7107V55.6513H35.9139V69.307H34.0161C34.9632 69.2189 35.8828 68.9417 36.7199 68.492C38.5724 67.4639 39.9964 65.8127 40.7366 63.8344Z" fill="#F7C6B4"/>
<path d="M40.5806 63.7761C42.1925 59.6878 40.6716 55.2631 37.1749 53.8982V55.6189H35.9139V69.0805H34.0161C34.9411 68.9977 35.8392 68.7269 36.6549 68.2849C38.4565 67.2894 39.8468 65.6925 40.5806 63.7761Z" fill="#F7C6B4"/>
<path d="M40.418 63.7114C41.9974 59.7266 40.509 55.4184 37.1033 54.0793V55.6189H35.9139V68.5113H31.3967C34.809 69.8503 38.8451 67.6962 40.418 63.7114Z" fill="#F7C6B5"/>
<path d="M40.2621 63.6531C41.796 59.7718 40.3466 55.5671 37.0124 54.2668V55.6188H35.8945V68.3301H31.4553C34.7896 69.6303 38.7282 67.5344 40.2621 63.6531Z" fill="#F8C7B6"/>
<path d="M40.106 63.5886C41.6008 59.8108 40.1905 55.716 36.9537 54.4546V55.619H35.9138V68.1426H31.5461C34.7764 69.4105 38.6111 67.3858 40.106 63.5886Z" fill="#F8C7B6"/>
<path d="M39.9435 63.5045C41.3994 59.8237 40.028 55.8454 36.8823 54.6099V55.5931H35.9138V67.9356H31.6177C34.7634 69.1906 38.4941 67.2047 39.9435 63.5045Z" fill="#F8C8B7"/>
<path d="M39.7876 63.4656C41.198 59.8883 39.8656 56.02 36.8108 54.8232V55.6189H35.9139V67.7738H31.6892C34.7505 68.9706 38.3577 67.0429 39.7876 63.4656Z" fill="#F8C8B7"/>
<path d="M39.6576 63.4009C41.029 59.9272 39.7356 56.1688 36.7653 54.9915V55.6383H35.9399V67.6057H31.7932C34.7375 68.7507 38.2537 66.8812 39.6576 63.4009Z" fill="#F8C8B7"/>
<path d="M39.469 63.3426C40.8014 59.9724 39.547 56.3239 36.6613 55.1919V55.6188H35.9138V67.3856H31.8582C34.7179 68.5306 38.1366 66.7388 39.469 63.3426Z" fill="#F8C9B8"/>
<path d="M39.3131 63.278C40.613 60.0112 39.3846 56.4728 36.5898 55.3796C35.8982 55.1203 35.1579 55.0155 34.4211 55.0725C33.6843 55.1295 32.9691 55.3469 32.3261 55.7095H35.9138V67.2175H31.9102C34.7049 68.3107 38.0197 66.5512 39.3131 63.278Z" fill="#F8C9B8"/>
<path d="M39.1571 63.2198C40.405 60.0501 39.2286 56.6216 36.5183 55.5607C35.8475 55.3102 35.1296 55.2093 34.4154 55.2652C33.7011 55.3211 33.0079 55.5324 32.3847 55.8842H35.9139V67.0364H31.9817C34.692 68.0909 37.9027 66.3831 39.1571 63.2198Z" fill="#F8C9B8"/>
<path d="M39.0077 63.155C40.2231 60.0888 39.0792 56.7703 36.4599 55.7482C35.8101 55.5067 35.1151 55.4094 34.4236 55.4631C33.7321 55.5167 33.0606 55.72 32.4562 56.0587H35.927V66.8487H32.0728C34.679 67.8772 37.7858 66.2212 39.0077 63.155Z" fill="#F8C9B9"/>
<path d="M38.8386 63.0968C40.0085 60.1276 38.9036 56.9255 36.3688 55.9293C35.7424 55.6942 35.0716 55.5995 34.4043 55.652C33.7369 55.7046 33.0895 55.9031 32.5081 56.2333H35.9138V66.6611H32.1311C34.6659 67.6573 37.6686 66.0918 38.8386 63.0968Z" fill="#F8C9B9"/>
<path d="M38.6826 63.0322C39.8135 60.173 38.7411 57.0744 36.2973 56.117C35.6918 55.8914 35.0441 55.8006 34.3995 55.8509C33.755 55.9012 33.1294 56.0914 32.5666 56.4081H35.9138V66.4801H32.2026C34.6464 67.4375 37.5517 65.8914 38.6826 63.0322Z" fill="#F8CAB9"/>
<path d="M38.5202 62.9675C39.6121 60.2118 38.5852 57.2232 36.2258 56.3046C35.642 56.085 35.0166 55.9961 34.3943 56.0442C33.772 56.0923 33.168 56.2762 32.6251 56.5828H35.9139V66.286H32.2742C34.6335 67.2176 37.4347 65.7297 38.5202 62.9675Z" fill="#F8CAB9"/>
<path d="M38.3578 62.9092C39.4042 60.2506 38.4163 57.3784 36.1479 56.4857C35.5842 56.2779 34.9818 56.1946 34.3825 56.2415C33.7832 56.2884 33.2014 56.4644 32.6772 56.7574H35.927V66.0919H32.3652C34.6206 66.9975 37.3113 65.5679 38.3578 62.9092Z" fill="#F8CABA"/>
<path d="M38.2081 62.8576C39.2155 60.2701 38.2601 57.5402 36.0763 56.6864C35.5363 56.4848 34.9585 56.4035 34.3836 56.4482C33.8086 56.4929 33.2505 56.6625 32.7486 56.9451H35.9138V65.9368H32.4236C34.6074 66.7777 37.1942 65.3999 38.2081 62.8576Z" fill="#F8CABA"/>
<path d="M38.0456 62.7864C39.014 60.3348 38.1041 57.6761 36.0048 56.8545C35.4857 56.6613 34.9303 56.5837 34.3778 56.6273C33.8253 56.6709 33.2891 56.8346 32.807 57.1068H35.9138V65.7362H32.5081C34.5944 66.5578 37.0577 65.2381 38.0456 62.7864Z" fill="#F8CABA"/>
<path d="M37.8898 62.7218C38.8192 60.3736 37.9418 57.8313 35.94 57.0421C35.4422 56.8562 34.9095 56.7812 34.3794 56.8226C33.8493 56.8639 33.3348 57.0206 32.8722 57.2815H35.9205V65.5551H32.5732C34.5816 66.3378 36.9604 65.0699 37.8898 62.7218Z" fill="#F8CABA"/>
<path d="M37.7078 62.6635C38.5917 60.4124 37.7533 57.9801 35.8359 57.2297H35.8879V65.3675H32.6382C34.562 66.092 36.8433 64.9082 37.7078 62.6635Z" fill="#F8CABA"/>
<path d="M37.5712 62.5986C38.4226 60.451 37.6232 58.1287 35.7838 57.4236H35.9138V65.1862H32.7161C34.5489 65.9042 36.7262 64.7463 37.5712 62.5986Z" fill="#F8CBBA"/>
<path d="M37.4152 62.5341C38.2212 60.49 37.4607 58.2841 35.7124 57.5984H35.9138V64.9987H32.7876C34.536 65.6844 36.6093 64.5783 37.4152 62.5341Z" fill="#F8CBBB"/>
<path d="M37.2593 62.4759C38.0262 60.5353 37.2983 58.4329 35.6409 57.7795H35.9139V64.7982H32.8591C34.523 65.4451 36.4923 64.4166 37.2593 62.4759Z" fill="#F8CBBB"/>
<path d="M37.0967 62.4111C37.8246 60.574 37.1422 58.5816 35.5693 57.967H35.9138V64.6299H32.937C34.5099 65.2445 36.3687 64.2547 37.0967 62.4111Z" fill="#F8CBBB"/>
<path d="M36.9407 62.3531C37.6232 60.6129 36.9797 58.737 35.4914 58.1548H35.9138V64.4425H33.0085C34.4904 65.0247 36.2518 64.0867 36.9407 62.3531Z" fill="#F8CBBB"/>
<path d="M36.7848 62.2881C37.4347 60.6515 36.8173 58.8855 35.4199 58.3357H35.9138V64.2611H33.0801C34.458 64.798 36.1348 63.9248 36.7848 62.2881Z" fill="#F8CBBB"/>
<path d="M36.6224 62.2105C37.2269 60.6774 36.6549 59.0149 35.3225 58.5039H35.888V64.0542H33.1582C34.4581 64.5846 36.018 63.7566 36.6224 62.2105Z" fill="#F8CBBB"/>
<path d="M36.4664 62.1654C37.0319 60.7358 36.4989 59.1898 35.277 58.7046H35.927V63.8797H33.2427C34.4581 64.3648 35.901 63.595 36.4664 62.1654Z" fill="#F8CBBB"/>
<path d="M36.3102 62.1006C36.5932 61.5249 36.6351 60.861 36.4267 60.2546C36.2183 59.6482 35.7767 59.1489 35.1988 58.8662H35.9138V63.679H33.314C33.9216 63.8561 34.5746 63.7902 35.1342 63.4955C35.6937 63.2007 36.1157 62.7003 36.3102 62.1006Z" fill="#F8CBBB"/>
</g>
<path style="mix-blend-mode:screen" opacity="0.3" d="M41.3213 73.8545C43.4011 72.716 44.2591 69.611 44.857 66.7388C45.455 63.8667 44.3046 63.9637 43.5571 62.8963C43.3434 62.4564 43.2327 61.9741 43.2332 61.4855C43.2336 60.9968 43.3453 60.5147 43.5599 60.0752C43.7744 59.6357 44.0862 59.2503 44.4718 58.9479C44.8575 58.6456 45.3069 58.4341 45.7864 58.3293C46.8913 58.4458 47.5153 59.5131 47.1708 61.4279C45.9099 68.4466 44.3305 72.7807 41.3213 73.8545Z" fill="url(#paint23_radial_271_2589)"/>
<g style="mix-blend-mode:multiply" opacity="0.3">
<path d="M38.2406 66.9717C40.5869 60.7487 43.9926 58.1094 45.8774 58.394C43.6481 59.1314 42.4522 62.3659 43.0827 63.9313C43.7651 65.6391 40.2619 69.6756 39.378 71.8233C39.0771 72.5498 38.9957 73.3479 39.144 74.1197C38.2499 74.0336 37.3737 73.8156 36.5442 73.4728C36.8807 71.2529 37.4493 69.074 38.2406 66.9717Z" fill="#804C39"/>
</g>
<g style="mix-blend-mode:multiply" opacity="0.4">
<path d="M36.9927 71.1636C37.3121 69.7397 37.7291 68.3392 38.2406 66.9718C40.2684 61.6027 43.0827 58.8987 45.026 58.4395C42.8097 60.4836 42.1728 63.4593 42.6407 64.7077C43.1802 66.1568 38.936 69.4365 38.9555 72.2051C38.9917 72.8385 38.8805 73.4716 38.6306 74.0552C38.1423 73.9693 37.6619 73.8438 37.1942 73.68C37.0777 72.8459 37.0105 72.0056 36.9927 71.1636Z" fill="#F18F6C"/>
</g>
<path d="M22.2192 71.9464L31.533 65.7881C33.7428 61.454 37.6165 55.3539 38.7929 54.0795C40.5088 52.2165 44.2525 54.5582 43.648 57.081C40.9247 68.492 37.1485 73.9453 37.7075 73.1496C35.8226 76.7139 31.338 76.7333 26.8144 77.4061C23.4541 77.9042 22.2192 71.9464 22.2192 71.9464Z" fill="url(#paint24_radial_271_2589)"/>
<path style="mix-blend-mode:screen" opacity="0.3" d="M40.6519 63.5045C40.8859 61.5638 39.352 61.1045 38.702 59.4032C38.0521 57.7019 38.832 57.5855 40.7364 53.439C42.3872 53.646 44.0966 55.3214 43.6741 57.0874C40.9509 68.4984 37.1747 73.9516 37.7336 73.156C37.3197 73.9537 36.7175 74.6396 35.9788 75.1548C37.1552 74.1263 40.4179 65.4451 40.6519 63.5045Z" fill="url(#paint25_radial_271_2589)"/>
<g style="mix-blend-mode:multiply" opacity="0.4">
<path d="M38.793 54.0794C39.0176 53.8432 39.2941 53.6619 39.6007 53.5497C39.9074 53.4375 40.236 53.3974 40.5609 53.4325C38.9165 54.7263 37.9091 58.31 37.9611 59.4873C38.0391 60.9493 38.923 61.6609 38.0455 62.4889C36.1672 64.2613 34.3214 70.148 33.7299 74.2298C33.4374 76.2675 32.508 76.3904 31.2016 76.8173L30.7986 76.882C30.2137 76.6491 28.6473 75.9958 28.6278 75.6788C28.6083 75.3619 30.9871 70.2579 31.4161 66.4995C31.4161 66.2731 31.4746 66.0467 31.5071 65.8527C33.7429 61.4539 37.6166 55.3538 38.793 54.0794Z" fill="#F18F6C"/>
</g>
<g style="mix-blend-mode:multiply" opacity="0.3">
<path d="M38.7931 54.0795C39.0783 53.7534 39.4609 53.5267 39.885 53.4326C37.7597 55.2115 37.0382 60.5483 36.8562 61.6868C36.5053 63.9509 35.8163 62.8836 33.6585 70.4521C32.4951 74.5339 32.4496 76.5716 31.4421 76.7333C30.4282 76.8951 28.7969 77.0244 28.7969 77.0244L34.9649 59.7203C36.1128 57.757 37.3918 55.8725 38.7931 54.0795Z" fill="#804C39"/>
</g>
<path d="M13.3477 73.8868C13.3477 73.8868 14.927 80.4462 19.1582 79.9805C23.1749 79.5341 27.1461 79.3336 29.7653 77.4576C30.7493 76.7659 31.5247 75.8198 32.0077 74.7213C32.0922 74.5143 32.1831 74.3008 32.2611 74.0744L31.6697 73.4858L24.1173 65.9949L13.3477 73.8868Z" fill="url(#paint26_radial_271_2589)"/>
<g style="mix-blend-mode:multiply" opacity="0.1">
<path d="M22.3234 72.3863C25.5276 76.8174 28.9268 78.3247 30.9872 76.3323C28.5109 79.2497 23.8378 79.4567 19.1581 79.9807C16.6818 80.2524 15.109 78.1177 14.238 76.2935C15.8954 73.8547 20.9 70.4068 22.3234 72.3863Z" fill="#F18F6C"/>
</g>
<path d="M22.4924 71.0665C22.7004 73.2465 28.2314 76.5973 30.9417 75.5947C31.4001 75.4341 31.7853 75.115 32.0271 74.6955C32.1376 74.4909 32.2227 74.2736 32.2806 74.0486C33.8259 67.5378 35.7796 61.1297 38.1301 54.8621C38.7801 52.6497 37.2267 51.1231 35.4459 50.625C33.9705 50.2045 32.3261 50.4891 31.5917 51.6471C28.8706 56.2913 26.3911 61.0716 24.1628 65.969C23.0904 68.3302 22.4079 70.2449 22.4924 71.0665Z" fill="url(#paint27_radial_271_2589)"/>
<path opacity="0.4" d="M29.7651 77.4577C30.7491 76.766 31.5245 75.8198 32.0075 74.7214C32.1179 74.5168 32.203 74.2995 32.2609 74.0745C33.8062 67.5637 35.7599 61.1556 38.1105 54.888C38.7604 52.6756 37.207 51.149 35.4262 50.6509C32.8654 52.6368 32.0139 56.0329 32.3584 56.5699C32.7029 57.1068 34.7762 58.3553 34.7437 59.7072C34.0352 64.3622 33.0169 68.9652 31.6955 73.4858C31.442 74.3139 31.1885 75.0384 30.948 75.6141C30.7836 76.0957 30.5177 76.5368 30.1681 76.9079C29.9764 77.0418 29.8347 77.2351 29.7651 77.4577Z" fill="url(#paint28_radial_271_2589)"/>
<g style="mix-blend-mode:multiply" opacity="0.4">
<path d="M13.8546 75.4266C13.851 74.8614 13.9801 74.3032 14.2315 73.7965C14.4525 73.5054 14.8815 73.0137 15.4924 72.3151L24.1172 66.0015C26.3456 61.1041 28.8251 56.3238 31.5461 51.6795C31.7722 51.3513 32.0682 51.0767 32.4131 50.8754C32.758 50.6742 33.1433 50.5511 33.5415 50.5151C31.6371 52.7857 30.7337 57.0745 30.5582 58.5947C30.3372 60.5354 26.0086 65.2835 26.0411 67.3082C26.0736 69.333 28.4069 70.3744 26.1841 71.0084C24.1107 71.597 18.5667 78.1241 18.7942 80.0001C16.1294 80.0453 14.5825 77.2573 13.8546 75.4266Z" fill="#F18F6C"/>
</g>
<g style="mix-blend-mode:multiply" opacity="0.3">
<path d="M13.3477 73.8869L24.1173 66.0014C26.3456 61.104 28.8252 56.3237 31.5462 51.6794C31.8365 51.2337 32.2658 50.895 32.7681 50.7156C31.9427 52.0611 32.6901 53.95 31.2732 55.3537C29.4469 57.1973 25.7942 67.1981 25.5862 69.1841C25.3782 71.17 22.9864 73.4276 20.5166 75.9246C18.6837 77.7941 17.1369 78.441 16.5779 79.3013C14.2641 77.6906 13.3477 73.8869 13.3477 73.8869Z" fill="#804C39"/>
</g>
<path d="M30.714 54.8492C28.7187 58.1936 27.2108 62.366 25.8914 65.3158C23.4671 70.7366 21.6993 74.2169 18.8655 76.2546C15.5638 78.6222 9.68174 77.7747 7.93338 75.9635C5.1126 73.059 2.20083 65.0376 5.0346 64.4878C7.86838 63.9379 11.5341 64.9082 13.029 64.9859C14.2119 65.0441 15.8887 63.1099 18.0336 59.8108C20.1784 56.5117 22.7912 51.7506 25.8784 49.92C30.3176 47.2742 32.5079 51.8606 30.714 54.8492Z" fill="url(#paint29_radial_271_2589)"/>
<path style="mix-blend-mode:screen" opacity="0.2" d="M9.4284 75.1872C15.0114 77.9429 19.2361 76.4098 22.7133 69.307C26.5415 61.4797 26.7365 58.614 25.8721 58.0448C23.8183 56.7122 21.6279 57.3979 16.7728 64.2484C13.7636 68.5954 13.1201 67.9615 13.1201 67.9615C13.1201 67.9615 5.74319 72.3409 9.4284 75.1872Z" fill="url(#paint30_linear_271_2589)"/>
<path opacity="0.4" d="M21.3355 72.3603C24.1953 68.0521 27.185 61.1563 27.2695 57.8054C27.2695 57.2297 25.9242 56.8933 25.8527 56.5505C25.4042 54.4804 25.7747 52.0611 28.4524 49.0725C31.0522 49.1889 32.0597 52.4816 30.6818 54.791C28.6864 58.1353 27.1785 62.3077 25.8591 65.2575C23.4348 70.6784 21.667 74.1586 18.8332 76.1963C15.9994 78.234 11.0338 77.8782 8.70703 76.5197C12.8537 78.0593 17.9818 77.406 21.3355 72.3603Z" fill="url(#paint31_radial_271_2589)"/>
<g style="mix-blend-mode:multiply" opacity="0.2">
<path d="M6.25659 64.3455C8.85638 64.1968 11.7422 64.9213 13.029 64.9924C14.212 65.0507 15.8888 63.1165 18.0337 59.8174C20.1785 56.5183 22.7913 51.7507 25.8785 49.9201C26.5107 49.524 27.2192 49.264 27.9583 49.1567C25.7224 50.2258 23.9976 52.126 23.1552 54.4482C22.2128 57.5015 16.7597 62.8577 15.6288 64.352C14.4979 65.8463 15.4534 68.1816 13.7375 67.8064C12.0216 67.4312 9.53233 66.1762 7.53049 67.3212C6.71806 67.7546 6.34758 66.2991 6.25659 64.3455Z" fill="#804C39"/>
</g>
<g style="mix-blend-mode:multiply" opacity="0.4">
<path d="M13.0095 64.986C14.1924 65.0442 15.8692 63.11 18.0141 59.8109C20.1589 56.5118 22.7912 51.7507 25.8784 49.9201C26.5221 49.5136 27.2477 49.2531 28.0038 49.1567C24.546 51.602 24.8905 53.6461 24.988 54.0925C25.0855 54.5388 24.845 53.2774 23.1551 54.4224C21.4653 55.5673 16.4932 62.3596 16.2592 64.5267C16.0252 66.6937 15.0698 65.5617 13.6594 65.8204C12.756 65.9951 10.7997 65.1283 9.49976 64.5267C10.9946 64.6884 12.2815 64.9471 13.0095 64.986Z" fill="#F18F6C"/>
</g>
<g style="mix-blend-mode:multiply" opacity="0.2">
<path d="M15.5119 53.2061C12.4701 56.6669 12.0152 58.5882 12.5546 61.0269C13.0941 63.4657 12.8926 64.1384 12.3986 65.264C11.9047 66.3896 13.4775 71.4935 10.4488 72.9296C9.63654 73.3656 8.70183 73.5208 7.79135 73.371C6.88087 73.2211 6.04615 72.7746 5.41819 72.1016C5.3727 72.0045 3.37735 68.0197 4.20278 67.2305C5.02822 66.4413 10.0198 53.0703 15.5119 53.2061Z" fill="#804C39"/>
</g>
<path d="M14.5434 36.0959C8.50543 42.7136 3.94281 48.0309 1.72649 52.0093C-0.671821 56.311 0.303098 58.5751 1.38851 62.5535C2.23344 65.6391 4.86573 69.0223 6.17213 71.6098C7.55002 74.2879 13.0811 71.8944 11.8462 66.1437C10.5008 59.8754 12.0477 57.456 12.6066 56.4404C13.3021 55.1466 16.8638 52.8826 18.6381 47.4746C20.2305 42.6295 14.5434 36.0959 14.5434 36.0959Z" fill="url(#paint32_radial_271_2589)"/>
<path style="mix-blend-mode:screen" opacity="0.2" d="M3.36446 60.807C2.9225 59.2027 1.6291 56.2788 3.03949 54.9851C3.94291 54.1377 5.10632 54.0018 6.08124 53.2902C7.38113 52.3458 6.84817 51.0456 6.78968 49.6936C6.71444 48.801 6.88997 47.9051 7.29665 47.106C7.85091 46.2284 8.4564 45.3838 9.11 44.5767C10.2669 43.076 11.4043 41.5881 12.4442 39.9968C13.1974 38.8428 14.193 37.8651 15.3625 37.1311C16.8704 39.1623 19.8471 43.8005 18.6122 47.4812C18.3331 48.3794 17.981 49.2534 17.5593 50.0946C17.4852 50.0237 17.3888 49.9803 17.2863 49.9717C16.5909 49.8941 15.3365 51.1296 14.6865 51.4337C13.4711 51.9965 12.3337 52.7274 11.1053 53.2385C10.5074 53.5037 9.55197 53.646 9.29849 54.377C9.04501 55.108 9.37648 56.46 9.29849 57.2427C9.20099 58.3812 8.41455 58.9181 7.7581 59.8302C6.04224 62.1202 7.8491 64.1708 8.80452 66.3831C9.40247 67.761 10.2409 72.5221 7.29665 71.9269C7.16666 69.8504 5.75626 68.1233 5.06732 66.2732C4.37838 64.4231 3.87142 62.6442 3.36446 60.807Z" fill="url(#paint33_linear_271_2589)"/>
<g style="mix-blend-mode:multiply" opacity="0.2">
<path d="M6.93256 49.7841C7.732 52.6627 2.07746 53.5425 1.564 54.8945C1.05054 56.2465 2.58442 57.8249 2.65592 60.4836C2.74041 63.5757 5.3077 69.9992 5.74317 70.7949C4.35228 68.3561 2.14895 65.3287 1.38851 62.5471C0.303098 58.5688 -0.671822 56.3047 1.72649 52.0029C3.94281 48.0246 8.50543 42.7072 14.5434 36.0896C7.74499 44.7449 6.13963 46.899 6.93256 49.7841Z" fill="#F18F6C"/>
</g>
<g style="mix-blend-mode:multiply" opacity="0.4">
<path d="M9.00578 63.0581C7.10794 63.5433 8.43384 62.4112 10.1952 60.7099C11.9566 59.0086 11.976 56.1364 10.5462 54.778C9.11627 53.4195 10.7346 53.4454 11.8461 54.3446C12.9575 55.2437 13.8739 53.8271 16.4997 51.2719L17.2471 50.625C15.4338 53.8077 13.172 55.4119 12.6325 56.3887C12.093 57.3655 10.5267 59.8301 11.8721 66.092C12.4765 68.9188 11.4561 70.9307 10.0912 71.9139C12.4765 69.3264 10.9036 62.5729 9.00578 63.0581Z" fill="#F18F6C"/>
</g>
<g style="mix-blend-mode:multiply" opacity="0.2">
<path d="M12.6065 56.3887C12.0475 57.4108 10.5007 59.8301 11.8461 66.092C12.3725 68.5372 11.6706 70.3743 10.5917 71.474C10.7412 65.3545 8.97979 63.5238 8.06986 62.9287C6.88046 62.1525 10.5982 59.6943 9.80523 55.6125C9.01229 51.5306 13.4969 54.8944 17.6046 49.7388L17.6826 49.797C15.7847 53.5683 13.1915 55.3602 12.6065 56.3887Z" fill="#F18F6C"/>
</g>
<g style="mix-blend-mode:multiply" opacity="0.4">
<path d="M30.8246 53.2125C30.2397 54.7909 29.1412 56.5957 28.8748 56.7186C28.2573 57.0291 25.729 55.1661 25.625 54.778C25.521 54.3899 27.3864 51.2007 28.0493 50.8191C28.7123 50.4374 31.3381 51.8605 30.8246 53.2125Z" fill="#F18F6C"/>
</g>
<path opacity="0.6" d="M30.6233 53.0898C30.2269 54.2137 29.6472 55.265 28.9074 56.2013C28.3549 56.473 26.1191 54.8234 26.0346 54.4547C25.9501 54.086 27.601 51.2785 28.1859 50.9421C28.7709 50.6058 31.0782 51.8607 30.6233 53.0898Z" fill="white"/>
<g style="mix-blend-mode:multiply" opacity="0.4">
<path d="M37.5385 53.8852C37.2265 55.5348 36.4531 57.5013 36.2386 57.663C35.6797 58.0706 32.8784 56.6604 32.7159 56.2658C32.5534 55.8712 33.8468 52.4492 34.4318 51.964C35.0167 51.4788 37.805 52.4362 37.5385 53.8852Z" fill="#F18F6C"/>
</g>
<path opacity="0.6" d="M37.3241 53.8012C37.1183 54.9748 36.7255 56.1082 36.1606 57.1585C35.6602 57.5208 33.1709 56.2658 33.0279 55.9165C32.8849 55.5672 34.0288 52.5269 34.5488 52.0999C35.0687 51.673 37.558 52.5075 37.3241 53.8012Z" fill="white"/>
<g style="mix-blend-mode:multiply" opacity="0.4">
<path d="M43.1673 56.8029C42.8726 57.9937 42.3782 59.1266 41.7049 60.1537C41.1654 60.4901 38.7151 59.0087 38.5981 58.64C38.4811 58.2713 39.898 55.2374 40.457 54.8363C41.016 54.4353 43.5117 55.5026 43.1673 56.8029Z" fill="#F18F6C"/>
</g>
<path opacity="0.6" d="M42.9721 56.7058C42.7086 57.763 42.2692 58.7687 41.6722 59.6815C41.1977 59.9791 39.0204 58.6659 38.9099 58.336C38.7994 58.0061 40.0603 55.3215 40.5673 54.9657C41.0742 54.61 43.284 55.5544 42.9721 56.7058Z" fill="white"/>
<g style="mix-blend-mode:multiply" opacity="0.4">
<path d="M46.9759 60.671C46.8475 61.5716 46.5731 62.4455 46.1635 63.2586C45.793 63.5432 43.8497 62.6117 43.7327 62.3788C43.8703 61.3236 44.2362 60.3106 44.8051 59.4096C45.1951 59.0862 47.1319 59.6748 46.9759 60.671Z" fill="#F18F6C"/>
</g>
<path opacity="0.6" d="M46.8068 60.6129C46.697 61.4193 46.4532 62.202 46.0853 62.9287C45.7538 63.181 44.0315 62.3853 43.9275 62.146C44.0549 61.2109 44.3805 60.3135 44.8829 59.5132C45.2469 59.2027 46.9627 59.7331 46.8068 60.6129Z" fill="white"/>
<g style="mix-blend-mode:multiply" opacity="0.2">
<path d="M6.30219 71.817C7.19912 71.3642 7.21861 70.8855 6.30219 68.4403C5.38576 65.9951 4.88531 65.7428 3.51392 67.1465C5.26877 70.0057 6.30219 71.817 6.30219 71.817Z" fill="#F18F6C"/>
</g>
<path opacity="0.6" d="M6.17214 71.5905C6.95208 71.1959 6.96508 70.7884 6.17214 68.6796C5.3792 66.5707 5.02173 66.4284 3.76733 67.5669C5.28821 70.0251 6.17214 71.5905 6.17214 71.5905Z" fill="white"/>
<path style="mix-blend-mode:screen" opacity="0.2" d="M27.8023 76.6492C32.1829 77.0761 34.3018 62.0037 34.0613 59.662C33.7883 57.0033 31.546 58.4912 29.2322 62.5083C26.9183 66.5254 26.9184 67.5928 27.4578 69.6693C27.9973 71.7458 23.4281 72.535 24.0001 73.7641C24.572 74.9931 26.0994 76.7721 27.8023 76.6492Z" fill="url(#paint34_linear_271_2589)"/>
<path style="mix-blend-mode:screen" opacity="0.2" d="M35.7577 74.9544C37.961 73.4277 40.2748 64.3326 40.1384 63.0194C39.9824 61.5445 38.5005 62.1008 36.3557 66.4867C35.2248 68.809 32.8784 74.7668 33.1969 75.4525C33.5154 76.1382 34.6398 75.7242 35.7577 74.9544Z" fill="url(#paint35_linear_271_2589)"/>
<path style="mix-blend-mode:screen" opacity="0.2" d="M41.9192 73.4665C43.3621 72.4638 44.7594 65.9303 44.6685 65.057C44.5645 64.0931 42.9656 64.8565 41.5682 67.7221C40.8273 69.2423 39.2934 72.8002 39.5014 73.2465C39.7094 73.6929 41.1977 73.9646 41.9192 73.4665Z" fill="url(#paint36_linear_271_2589)"/>
<path d="M55.2562 20.4675C51.1096 15.4218 55.8607 10.8418 56.6276 9.72272C57.3945 8.60362 52.2795 4.70291 49.8877 6.28778C47.4958 7.87264 41.3408 5.67971 41.3408 5.67971C36.7197 4.85817 35.2378 3.17627 35.2378 3.17627C35.2378 3.17627 35.7448 9.6451 37.5776 13.617C39.8525 18.5268 32.989 24.8598 32.989 24.8598" fill="url(#paint37_linear_271_2589)"/>
<path d="M54.8793 3.07912C55.5592 4.59438 55.8302 6.25994 55.6657 7.91133C55.2887 10.3048 49.8682 6.28766 49.8682 6.28766L54.0473 2.33521" fill="url(#paint38_linear_271_2589)"/>
<path style="mix-blend-mode:multiply" d="M51.246 8.67462L49.8941 8.20239C49.2442 8.73284 49.0882 9.91663 49.0947 11.4368C49.0947 13.0864 49.3027 15.1434 49.1792 17.1876C48.7892 23.527 51.9154 24.8984 51.9154 24.8984C50.1671 15.2275 53.8653 11.3656 55.2887 10.2983C54.2033 10.4083 53.1699 9.78726 52.2274 9.23741L51.246 8.67462Z" fill="url(#paint39_linear_271_2589)"/>
<path style="mix-blend-mode:multiply" d="M37.0122 12.2455C37.0122 12.2455 38.3121 15.48 40.9574 21.3342C41.7111 22.9801 42.0308 24.7901 41.8864 26.5931C41.742 28.3962 41.1382 30.1328 40.132 31.6391C40.132 31.6391 44.4411 32.7388 46.4365 28.8898C48.4318 25.0409 44.1226 13.0024 44.1226 13.0024L43.2192 9.99438L37.0122 12.2455Z" fill="url(#paint40_linear_271_2589)"/>
<path d="M35.9657 2.9239C35.6979 2.93756 35.4392 3.02489 35.2183 3.17618C34.5033 3.75191 35.2182 4.92277 36.0632 5.30443C36.9081 5.68609 37.9805 5.95131 38.299 6.78579C38.8385 8.26715 36.5376 9.37332 36.4401 10.9388C36.3621 12.1808 37.831 13.0864 39.0399 12.8794C40.2488 12.6724 41.2433 11.7215 42.0232 10.7447C42.3287 10.3695 42.7121 9.93611 43.1931 10.0008C43.5475 10.0977 43.8489 10.3303 44.0315 10.6477C44.727 11.6051 45.5134 12.6207 46.6313 12.9247C47.7492 13.2287 49.2636 12.336 49.0296 11.1846C48.8591 10.7156 48.6108 10.2783 48.2952 9.89083C48.1408 9.69134 48.0528 9.44888 48.0435 9.19724C48.0342 8.94561 48.104 8.69736 48.2432 8.48709C48.4328 8.30795 48.6781 8.19843 48.9386 8.17659C50.0566 8.02134 51.1355 8.60353 52.1039 9.18573C53.0723 9.76792 54.1187 10.3825 55.2431 10.3113C56.3676 10.2401 57.492 9.10163 57.0695 8.06015C56.7575 7.29036 55.8476 6.98633 55.0481 6.76639L52.5718 6.1195C52.4018 6.08827 52.244 6.00978 52.1169 5.89309C51.8569 5.59553 52.1169 5.1233 52.4419 4.89042C53.0918 4.43114 53.8847 4.30176 54.5477 3.90069C55.2106 3.49963 55.6981 2.55518 55.1976 1.96004C55.0558 1.80876 54.8829 1.68963 54.6907 1.61073C53.2088 0.963845 51.5449 1.77245 50.089 2.44521C48.6332 3.11797 46.7743 3.66135 45.5394 2.65221C44.844 2.09589 44.5255 1.19025 43.8496 0.60806C43.0306 -0.103511 41.9452 -0.304044 41.7047 0.685686C41.2693 2.55518 44.532 7.00573 40.2618 4.14651C39.0417 3.20295 37.5026 2.76494 35.9657 2.9239Z" fill="url(#paint41_linear_271_2589)"/>
<path d="M37.3371 18.8114C37.3371 18.8114 45.6824 23.3849 54.1772 18.8114C54.3915 18.7079 54.626 18.6524 54.8641 18.6486C55.1023 18.6449 55.3383 18.6932 55.5558 18.7899C55.7732 18.8867 55.9667 19.0298 56.1227 19.2089C56.2786 19.3881 56.3933 19.5991 56.4586 19.8271C57.1085 21.5866 56.4586 21.179 56.4586 21.179C56.4586 21.179 47.5218 26.6581 36.0242 21.2179C36.0242 21.2179 34.9453 19.0185 37.3371 18.8114Z" fill="url(#paint42_linear_271_2589)"/>
<path d="M37.3371 18.8114C37.3371 18.8114 45.6824 23.3849 54.1772 18.8114C54.3915 18.7079 54.626 18.6524 54.8641 18.6486C55.1023 18.6449 55.3383 18.6932 55.5558 18.7899C55.7732 18.8867 55.9667 19.0298 56.1227 19.2089C56.2786 19.3881 56.3933 19.5991 56.4586 19.8271C57.1085 21.5866 56.4586 21.179 56.4586 21.179C56.4586 21.179 47.5218 26.6581 36.0242 21.2179C36.0242 21.2179 34.9453 19.0185 37.3371 18.8114Z" fill="url(#paint43_linear_271_2589)"/>
<path d="M38.1951 16.5471C38.1951 16.5471 45.741 20.6807 53.4169 16.5471C53.6111 16.454 53.8232 16.4042 54.0387 16.401C54.2542 16.3979 54.4678 16.4416 54.6645 16.529C54.8613 16.6165 55.0365 16.7456 55.178 16.9074C55.3195 17.0692 55.4238 17.2597 55.4838 17.4657C56.0622 19.057 55.4838 18.6883 55.4838 18.6883C55.4838 18.6883 47.4049 23.6434 37.0057 18.7271C37.0057 18.7271 36.0373 16.7347 38.1951 16.5471Z" fill="url(#paint44_linear_271_2589)"/>
<defs>
<radialGradient id="paint0_radial_271_2589" cx="0" cy="0" r="1" gradientUnits="userSpaceOnUse" gradientTransform="translate(55.7751 56.417) rotate(6.22076) scale(31.4167 31.2721)">
<stop stop-color="#F8CBBB"/>
<stop offset="0.37" stop-color="#F8C9B9"/>
<stop offset="0.56" stop-color="#F7C3B1"/>
<stop offset="0.71" stop-color="#F6B9A4"/>
<stop offset="0.84" stop-color="#F4AB91"/>
<stop offset="0.95" stop-color="#F29878"/>
<stop offset="1" stop-color="#F18F6C"/>
</radialGradient>
<linearGradient id="paint1_linear_271_2589" x1="77.526" y1="80.2626" x2="54.4658" y2="28.7697" gradientUnits="userSpaceOnUse">
<stop stop-color="white"/>
<stop offset="0.27" stop-color="#FDFDFD"/>
<stop offset="0.41" stop-color="#F5F5F5"/>
<stop offset="0.51" stop-color="#E8E8E8"/>
<stop offset="0.61" stop-color="#D5D5D5"/>
<stop offset="0.69" stop-color="#BCBCBC"/>
<stop offset="0.76" stop-color="#9E9E9E"/>
<stop offset="0.83" stop-color="#7A7A7A"/>
<stop offset="0.9" stop-color="#505050"/>
<stop offset="0.96" stop-color="#222222"/>
<stop offset="1"/>
</linearGradient>
<radialGradient id="paint2_radial_271_2589" cx="0" cy="0" r="1" gradientUnits="userSpaceOnUse" gradientTransform="translate(23.2615 52.1853) rotate(173.689) scale(31.2939 31.1499)">
<stop stop-color="#F8CBBB"/>
<stop offset="0.37" stop-color="#F8C9B9"/>
<stop offset="0.56" stop-color="#F7C3B1"/>
<stop offset="0.71" stop-color="#F6B9A4"/>
<stop offset="0.84" stop-color="#F4AB91"/>
<stop offset="0.95" stop-color="#F29878"/>
<stop offset="1" stop-color="#F18F6C"/>
</radialGradient>
<linearGradient id="paint3_linear_271_2589" x1="1.63924" y1="75.971" x2="24.5223" y2="24.6444" gradientUnits="userSpaceOnUse">
<stop stop-color="white"/>
<stop offset="0.27" stop-color="#FDFDFD"/>
<stop offset="0.41" stop-color="#F5F5F5"/>
<stop offset="0.51" stop-color="#E8E8E8"/>
<stop offset="0.61" stop-color="#D5D5D5"/>
<stop offset="0.69" stop-color="#BCBCBC"/>
<stop offset="0.76" stop-color="#9E9E9E"/>
<stop offset="0.83" stop-color="#7A7A7A"/>
<stop offset="0.9" stop-color="#505050"/>
<stop offset="0.96" stop-color="#222222"/>
<stop offset="1"/>
</linearGradient>
<linearGradient id="paint4_linear_271_2589" x1="45.0261" y1="17.5434" x2="45.0261" y2="67.9032" gradientUnits="userSpaceOnUse">
<stop stop-color="#FEB969"/>
<stop offset="1" stop-color="#C78A4D"/>
</linearGradient>
<linearGradient id="paint5_linear_271_2589" x1="50.5052" y1="21.9488" x2="65.5366" y2="74.494" gradientUnits="userSpaceOnUse">
<stop offset="0.09" stop-color="white"/>
<stop offset="1" stop-color="#C78A4D"/>
</linearGradient>
<linearGradient id="paint6_linear_271_2589" x1="65.1419" y1="33.7932" x2="8.91951" y2="71.9146" gradientUnits="userSpaceOnUse">
<stop offset="0.3" stop-color="white"/>
<stop offset="1" stop-color="#C78A4D"/>
</linearGradient>
<linearGradient id="paint7_linear_271_2589" x1="50.2906" y1="43.9232" x2="-21.7816" y2="80.1301" gradientUnits="userSpaceOnUse">
<stop offset="0.09" stop-color="white"/>
<stop offset="1" stop-color="#C78A4D"/>
</linearGradient>
<radialGradient id="paint8_radial_271_2589" cx="0" cy="0" r="1" gradientUnits="userSpaceOnUse" gradientTransform="translate(42.4172 57.0108) rotate(6.22076) scale(17.0407 16.9622)">
<stop stop-color="#F8CBBB"/>
<stop offset="0.37" stop-color="#F8C9B9"/>
<stop offset="0.56" stop-color="#F7C3B1"/>
<stop offset="0.71" stop-color="#F6B9A4"/>
<stop offset="0.84" stop-color="#F4AB91"/>
<stop offset="0.95" stop-color="#F29878"/>
<stop offset="1" stop-color="#F18F6C"/>
</radialGradient>
<radialGradient id="paint9_radial_271_2589" cx="0" cy="0" r="1" gradientUnits="userSpaceOnUse" gradientTransform="translate(68.5944 57.5671) rotate(6.22076) scale(21.928 21.827)">
<stop stop-color="#F8CBBB"/>
<stop offset="0.37" stop-color="#F8C9B9"/>
<stop offset="0.56" stop-color="#F7C3B1"/>
<stop offset="0.71" stop-color="#F6B9A4"/>
<stop offset="0.84" stop-color="#F4AB91"/>
<stop offset="0.95" stop-color="#F29878"/>
<stop offset="1" stop-color="#F18F6C"/>
</radialGradient>
<radialGradient id="paint10_radial_271_2589" cx="0" cy="0" r="1" gradientUnits="userSpaceOnUse" gradientTransform="translate(45.9512 51.3961) rotate(6.22076) scale(23.7673 23.6578)">
<stop stop-color="#F8CBBB"/>
<stop offset="0.37" stop-color="#F8C9B9"/>
<stop offset="0.56" stop-color="#F7C3B1"/>
<stop offset="0.71" stop-color="#F6B9A4"/>
<stop offset="0.84" stop-color="#F4AB91"/>
<stop offset="0.95" stop-color="#F29878"/>
<stop offset="1" stop-color="#F18F6C"/>
</radialGradient>
<radialGradient id="paint11_radial_271_2589" cx="0" cy="0" r="1" gradientUnits="userSpaceOnUse" gradientTransform="translate(79.406 59.9688) rotate(6.22075) scale(26.0225 25.9026)">
<stop stop-color="#F8CBBB"/>
<stop offset="0.37" stop-color="#F8C9B9"/>
<stop offset="0.56" stop-color="#F7C3B1"/>
<stop offset="0.71" stop-color="#F6B9A4"/>
<stop offset="0.84" stop-color="#F4AB91"/>
<stop offset="0.95" stop-color="#F29878"/>
<stop offset="1" stop-color="#F18F6C"/>
</radialGradient>
<radialGradient id="paint12_radial_271_2589" cx="0" cy="0" r="1" gradientUnits="userSpaceOnUse" gradientTransform="translate(79.4315 59.7374) rotate(6.22076) scale(26.8218 26.6983)">
<stop stop-color="#F8CBBB"/>
<stop offset="0.37" stop-color="#F8C9B9"/>
<stop offset="0.56" stop-color="#F7C3B1"/>
<stop offset="0.71" stop-color="#F6B9A4"/>
<stop offset="0.84" stop-color="#F4AB91"/>
<stop offset="0.95" stop-color="#F29878"/>
<stop offset="1" stop-color="#F18F6C"/>
</radialGradient>
<radialGradient id="paint13_radial_271_2589" cx="0" cy="0" r="1" gradientUnits="userSpaceOnUse" gradientTransform="translate(56.1896 63.9393) rotate(6.22075) scale(10.0347 9.98843)">
<stop stop-color="#F8CBBB"/>
<stop offset="0.37" stop-color="#F8C9B9"/>
<stop offset="0.56" stop-color="#F7C3B1"/>
<stop offset="0.71" stop-color="#F6B9A4"/>
<stop offset="0.84" stop-color="#F4AB91"/>
<stop offset="0.95" stop-color="#F29878"/>
<stop offset="1" stop-color="#F18F6C"/>
</radialGradient>
<radialGradient id="paint14_radial_271_2589" cx="0" cy="0" r="1" gradientUnits="userSpaceOnUse" gradientTransform="translate(84.5004 52.1165) rotate(6.22076) scale(25.353 25.2363)">
<stop stop-color="#F8CBBB"/>
<stop offset="0.37" stop-color="#F8C9B9"/>
<stop offset="0.56" stop-color="#F7C3B1"/>
<stop offset="0.71" stop-color="#F6B9A4"/>
<stop offset="0.84" stop-color="#F4AB91"/>
<stop offset="0.95" stop-color="#F29878"/>
<stop offset="1" stop-color="#F18F6C"/>
</radialGradient>
<linearGradient id="paint15_linear_271_2589" x1="80.6334" y1="77.3346" x2="60.3901" y2="57.25" gradientUnits="userSpaceOnUse">
<stop stop-color="white"/>
<stop offset="0.27" stop-color="#FDFDFD"/>
<stop offset="0.41" stop-color="#F5F5F5"/>
<stop offset="0.51" stop-color="#E8E8E8"/>
<stop offset="0.61" stop-color="#D5D5D5"/>
<stop offset="0.69" stop-color="#BCBCBC"/>
<stop offset="0.76" stop-color="#9E9E9E"/>
<stop offset="0.83" stop-color="#7A7A7A"/>
<stop offset="0.9" stop-color="#505050"/>
<stop offset="0.96" stop-color="#222222"/>
<stop offset="1"/>
</linearGradient>
<radialGradient id="paint16_radial_271_2589" cx="0" cy="0" r="1" gradientUnits="userSpaceOnUse" gradientTransform="translate(60.1121 45.2868) rotate(6.22076) scale(42.5172 42.3214)">
<stop stop-color="#F8CBBB"/>
<stop offset="0.37" stop-color="#F8C9B9"/>
<stop offset="0.56" stop-color="#F7C3B1"/>
<stop offset="0.71" stop-color="#F6B9A4"/>
<stop offset="0.84" stop-color="#F4AB91"/>
<stop offset="0.95" stop-color="#F29878"/>
<stop offset="1" stop-color="#F18F6C"/>
</radialGradient>
<radialGradient id="paint17_radial_271_2589" cx="0" cy="0" r="1" gradientUnits="userSpaceOnUse" gradientTransform="translate(55.7752 56.4169) rotate(6.22076) scale(31.4167 31.2721)">
<stop stop-color="#F8CBBB"/>
<stop offset="0.37" stop-color="#F8C9B9"/>
<stop offset="0.56" stop-color="#F7C3B1"/>
<stop offset="0.71" stop-color="#F6B9A4"/>
<stop offset="0.84" stop-color="#F4AB91"/>
<stop offset="0.95" stop-color="#F29878"/>
<stop offset="1" stop-color="#F18F6C"/>
</radialGradient>
<linearGradient id="paint18_linear_271_2589" x1="71.0825" y1="54.5386" x2="87.6042" y2="54.5386" gradientUnits="userSpaceOnUse">
<stop stop-color="white"/>
<stop offset="0.27" stop-color="#FDFDFD"/>
<stop offset="0.41" stop-color="#F5F5F5"/>
<stop offset="0.51" stop-color="#E8E8E8"/>
<stop offset="0.61" stop-color="#D5D5D5"/>
<stop offset="0.69" stop-color="#BCBCBC"/>
<stop offset="0.76" stop-color="#9E9E9E"/>
<stop offset="0.83" stop-color="#7A7A7A"/>
<stop offset="0.9" stop-color="#505050"/>
<stop offset="0.96" stop-color="#222222"/>
<stop offset="1"/>
</linearGradient>
<radialGradient id="paint19_radial_271_2589" cx="0" cy="0" r="1" gradientUnits="userSpaceOnUse" gradientTransform="translate(42.0099 52.2746) rotate(6.22051) scale(0.0389947 0.0388136)">
<stop stop-color="#F8CBBB"/>
<stop offset="0.37" stop-color="#F8C9B9"/>
<stop offset="0.56" stop-color="#F7C3B1"/>
<stop offset="0.71" stop-color="#F6B9A4"/>
<stop offset="0.84" stop-color="#F4AB91"/>
<stop offset="0.95" stop-color="#F29878"/>
<stop offset="1" stop-color="#F18F6C"/>
</radialGradient>
<linearGradient id="paint20_linear_271_2589" x1="56.4137" y1="57.209" x2="64.4666" y2="79.3396" gradientUnits="userSpaceOnUse">
<stop stop-color="white"/>
<stop offset="0.27" stop-color="#FDFDFD"/>
<stop offset="0.41" stop-color="#F5F5F5"/>
<stop offset="0.51" stop-color="#E8E8E8"/>
<stop offset="0.61" stop-color="#D5D5D5"/>
<stop offset="0.69" stop-color="#BCBCBC"/>
<stop offset="0.76" stop-color="#9E9E9E"/>
<stop offset="0.83" stop-color="#7A7A7A"/>
<stop offset="0.9" stop-color="#505050"/>
<stop offset="0.96" stop-color="#222222"/>
<stop offset="1"/>
</linearGradient>
<linearGradient id="paint21_linear_271_2589" x1="50.2119" y1="61.4006" x2="56.369" y2="78.3193" gradientUnits="userSpaceOnUse">
<stop stop-color="white"/>
<stop offset="0.27" stop-color="#FDFDFD"/>
<stop offset="0.41" stop-color="#F5F5F5"/>
<stop offset="0.51" stop-color="#E8E8E8"/>
<stop offset="0.61" stop-color="#D5D5D5"/>
<stop offset="0.69" stop-color="#BCBCBC"/>
<stop offset="0.76" stop-color="#9E9E9E"/>
<stop offset="0.83" stop-color="#7A7A7A"/>
<stop offset="0.9" stop-color="#505050"/>
<stop offset="0.96" stop-color="#222222"/>
<stop offset="1"/>
</linearGradient>
<linearGradient id="paint22_linear_271_2589" x1="45.7185" y1="64.0279" x2="49.8396" y2="75.3544" gradientUnits="userSpaceOnUse">
<stop stop-color="white"/>
<stop offset="0.27" stop-color="#FDFDFD"/>
<stop offset="0.41" stop-color="#F5F5F5"/>
<stop offset="0.51" stop-color="#E8E8E8"/>
<stop offset="0.61" stop-color="#D5D5D5"/>
<stop offset="0.69" stop-color="#BCBCBC"/>
<stop offset="0.76" stop-color="#9E9E9E"/>
<stop offset="0.83" stop-color="#7A7A7A"/>
<stop offset="0.9" stop-color="#505050"/>
<stop offset="0.96" stop-color="#222222"/>
<stop offset="1"/>
</linearGradient>
<radialGradient id="paint23_radial_271_2589" cx="0" cy="0" r="1" gradientUnits="userSpaceOnUse" gradientTransform="translate(36.5743 52.7552) rotate(173.689) scale(16.9741 16.896)">
<stop stop-color="#F8CBBB"/>
<stop offset="0.37" stop-color="#F8C9B9"/>
<stop offset="0.56" stop-color="#F7C3B1"/>
<stop offset="0.71" stop-color="#F6B9A4"/>
<stop offset="0.84" stop-color="#F4AB91"/>
<stop offset="0.95" stop-color="#F29878"/>
<stop offset="1" stop-color="#F18F6C"/>
</radialGradient>
<radialGradient id="paint24_radial_271_2589" cx="0" cy="0" r="1" gradientUnits="userSpaceOnUse" gradientTransform="translate(10.5002 53.3503) rotate(173.689) scale(21.8423 21.7418)">
<stop stop-color="#F8CBBB"/>
<stop offset="0.37" stop-color="#F8C9B9"/>
<stop offset="0.56" stop-color="#F7C3B1"/>
<stop offset="0.71" stop-color="#F6B9A4"/>
<stop offset="0.84" stop-color="#F4AB91"/>
<stop offset="0.95" stop-color="#F29878"/>
<stop offset="1" stop-color="#F18F6C"/>
</radialGradient>
<radialGradient id="paint25_radial_271_2589" cx="0" cy="0" r="1" gradientUnits="userSpaceOnUse" gradientTransform="translate(33.0454 47.168) rotate(173.689) scale(23.6743 23.5654)">
<stop stop-color="#F8CBBB"/>
<stop offset="0.37" stop-color="#F8C9B9"/>
<stop offset="0.56" stop-color="#F7C3B1"/>
<stop offset="0.71" stop-color="#F6B9A4"/>
<stop offset="0.84" stop-color="#F4AB91"/>
<stop offset="0.95" stop-color="#F29878"/>
<stop offset="1" stop-color="#F18F6C"/>
</radialGradient>
<radialGradient id="paint26_radial_271_2589" cx="0" cy="0" r="1" gradientUnits="userSpaceOnUse" gradientTransform="translate(-0.265179 55.7594) rotate(173.689) scale(25.9207 25.8015)">
<stop stop-color="#F8CBBB"/>
<stop offset="0.37" stop-color="#F8C9B9"/>
<stop offset="0.56" stop-color="#F7C3B1"/>
<stop offset="0.71" stop-color="#F6B9A4"/>
<stop offset="0.84" stop-color="#F4AB91"/>
<stop offset="0.95" stop-color="#F29878"/>
<stop offset="1" stop-color="#F18F6C"/>
</radialGradient>
<radialGradient id="paint27_radial_271_2589" cx="0" cy="0" r="1" gradientUnits="userSpaceOnUse" gradientTransform="translate(-0.290934 55.5289) rotate(173.689) scale(26.717 26.5941)">
<stop stop-color="#F8CBBB"/>
<stop offset="0.37" stop-color="#F8C9B9"/>
<stop offset="0.56" stop-color="#F7C3B1"/>
<stop offset="0.71" stop-color="#F6B9A4"/>
<stop offset="0.84" stop-color="#F4AB91"/>
<stop offset="0.95" stop-color="#F29878"/>
<stop offset="1" stop-color="#F18F6C"/>
</radialGradient>
<radialGradient id="paint28_radial_271_2589" cx="0" cy="0" r="1" gradientUnits="userSpaceOnUse" gradientTransform="translate(22.8666 59.6781) rotate(173.689) scale(9.9954 9.94941)">
<stop stop-color="#F8CBBB"/>
<stop offset="0.37" stop-color="#F8C9B9"/>
<stop offset="0.56" stop-color="#F7C3B1"/>
<stop offset="0.71" stop-color="#F6B9A4"/>
<stop offset="0.84" stop-color="#F4AB91"/>
<stop offset="0.95" stop-color="#F29878"/>
<stop offset="1" stop-color="#F18F6C"/>
</radialGradient>
<radialGradient id="paint29_radial_271_2589" cx="0" cy="0" r="1" gradientUnits="userSpaceOnUse" gradientTransform="translate(-5.35864 47.9465) rotate(173.689) scale(25.2539 25.1377)">
<stop stop-color="#F8CBBB"/>
<stop offset="0.37" stop-color="#F8C9B9"/>
<stop offset="0.56" stop-color="#F7C3B1"/>
<stop offset="0.71" stop-color="#F6B9A4"/>
<stop offset="0.84" stop-color="#F4AB91"/>
<stop offset="0.95" stop-color="#F29878"/>
<stop offset="1" stop-color="#F18F6C"/>
</radialGradient>
<linearGradient id="paint30_linear_271_2589" x1="-1.46707" y1="73.06" x2="18.6718" y2="53.0216" gradientUnits="userSpaceOnUse">
<stop stop-color="white"/>
<stop offset="0.27" stop-color="#FDFDFD"/>
<stop offset="0.41" stop-color="#F5F5F5"/>
<stop offset="0.51" stop-color="#E8E8E8"/>
<stop offset="0.61" stop-color="#D5D5D5"/>
<stop offset="0.69" stop-color="#BCBCBC"/>
<stop offset="0.76" stop-color="#9E9E9E"/>
<stop offset="0.83" stop-color="#7A7A7A"/>
<stop offset="0.9" stop-color="#505050"/>
<stop offset="0.96" stop-color="#222222"/>
<stop offset="1"/>
</linearGradient>
<radialGradient id="paint31_radial_271_2589" cx="0" cy="0" r="1" gradientUnits="userSpaceOnUse" gradientTransform="translate(18.9303 41.1047) rotate(173.689) scale(42.351 42.1561)">
<stop stop-color="#F8CBBB"/>
<stop offset="0.37" stop-color="#F8C9B9"/>
<stop offset="0.56" stop-color="#F7C3B1"/>
<stop offset="0.71" stop-color="#F6B9A4"/>
<stop offset="0.84" stop-color="#F4AB91"/>
<stop offset="0.95" stop-color="#F29878"/>
<stop offset="1" stop-color="#F18F6C"/>
</radialGradient>
<radialGradient id="paint32_radial_271_2589" cx="0" cy="0" r="1" gradientUnits="userSpaceOnUse" gradientTransform="translate(23.2613 52.1852) rotate(173.689) scale(31.2939 31.1499)">
<stop stop-color="#F8CBBB"/>
<stop offset="0.37" stop-color="#F8C9B9"/>
<stop offset="0.56" stop-color="#F7C3B1"/>
<stop offset="0.71" stop-color="#F6B9A4"/>
<stop offset="0.84" stop-color="#F4AB91"/>
<stop offset="0.95" stop-color="#F29878"/>
<stop offset="1" stop-color="#F18F6C"/>
</radialGradient>
<linearGradient id="paint33_linear_271_2589" x1="18.9242" y1="54.5387" x2="2.40254" y2="54.5387" gradientUnits="userSpaceOnUse">
<stop stop-color="white"/>
<stop offset="0.27" stop-color="#FDFDFD"/>
<stop offset="0.41" stop-color="#F5F5F5"/>
<stop offset="0.51" stop-color="#E8E8E8"/>
<stop offset="0.61" stop-color="#D5D5D5"/>
<stop offset="0.69" stop-color="#BCBCBC"/>
<stop offset="0.76" stop-color="#9E9E9E"/>
<stop offset="0.83" stop-color="#7A7A7A"/>
<stop offset="0.9" stop-color="#505050"/>
<stop offset="0.96" stop-color="#222222"/>
<stop offset="1"/>
</linearGradient>
<linearGradient id="paint34_linear_271_2589" x1="22.6264" y1="52.9752" x2="14.6395" y2="75.0318" gradientUnits="userSpaceOnUse">
<stop stop-color="white"/>
<stop offset="0.27" stop-color="#FDFDFD"/>
<stop offset="0.41" stop-color="#F5F5F5"/>
<stop offset="0.51" stop-color="#E8E8E8"/>
<stop offset="0.61" stop-color="#D5D5D5"/>
<stop offset="0.69" stop-color="#BCBCBC"/>
<stop offset="0.76" stop-color="#9E9E9E"/>
<stop offset="0.83" stop-color="#7A7A7A"/>
<stop offset="0.9" stop-color="#505050"/>
<stop offset="0.96" stop-color="#222222"/>
<stop offset="1"/>
</linearGradient>
<linearGradient id="paint35_linear_271_2589" x1="28.8171" y1="57.1401" x2="22.7105" y2="74.0022" gradientUnits="userSpaceOnUse">
<stop stop-color="white"/>
<stop offset="0.27" stop-color="#FDFDFD"/>
<stop offset="0.41" stop-color="#F5F5F5"/>
<stop offset="0.51" stop-color="#E8E8E8"/>
<stop offset="0.61" stop-color="#D5D5D5"/>
<stop offset="0.69" stop-color="#BCBCBC"/>
<stop offset="0.76" stop-color="#9E9E9E"/>
<stop offset="0.83" stop-color="#7A7A7A"/>
<stop offset="0.9" stop-color="#505050"/>
<stop offset="0.96" stop-color="#222222"/>
<stop offset="1"/>
</linearGradient>
<linearGradient id="paint36_linear_271_2589" x1="33.2969" y1="59.75" x2="29.2096" y2="71.0387" gradientUnits="userSpaceOnUse">
<stop stop-color="white"/>
<stop offset="0.27" stop-color="#FDFDFD"/>
<stop offset="0.41" stop-color="#F5F5F5"/>
<stop offset="0.51" stop-color="#E8E8E8"/>
<stop offset="0.61" stop-color="#D5D5D5"/>
<stop offset="0.69" stop-color="#BCBCBC"/>
<stop offset="0.76" stop-color="#9E9E9E"/>
<stop offset="0.83" stop-color="#7A7A7A"/>
<stop offset="0.9" stop-color="#505050"/>
<stop offset="0.96" stop-color="#222222"/>
<stop offset="1"/>
</linearGradient>
<linearGradient id="paint37_linear_271_2589" x1="44.8116" y1="18.0416" x2="43.5883" y2="79.6963" gradientUnits="userSpaceOnUse">
<stop stop-color="#FEB969"/>
<stop offset="1" stop-color="#C78A4D"/>
</linearGradient>
<linearGradient id="paint38_linear_271_2589" x1="52.8059" y1="6.57876" x2="52.4518" y2="24.5234" gradientUnits="userSpaceOnUse">
<stop stop-color="#FEB969"/>
<stop offset="1" stop-color="#C78A4D"/>
</linearGradient>
<linearGradient id="paint39_linear_271_2589" x1="51.5515" y1="21.0689" x2="52.6332" y2="3.08493" gradientUnits="userSpaceOnUse">
<stop stop-color="white"/>
<stop offset="1" stop-color="#C78A4D"/>
</linearGradient>
<linearGradient id="paint40_linear_271_2589" x1="47.9638" y1="36.8853" x2="36.0124" y2="6.06193" gradientUnits="userSpaceOnUse">
<stop stop-color="white"/>
<stop offset="0.19" stop-color="#FEFDFC"/>
<stop offset="0.34" stop-color="#FBF6F2"/>
<stop offset="0.48" stop-color="#F6EBE1"/>
<stop offset="0.61" stop-color="#EEDCC9"/>
<stop offset="0.73" stop-color="#E4C7AA"/>
<stop offset="0.86" stop-color="#D8AE84"/>
<stop offset="0.97" stop-color="#CB9259"/>
<stop offset="1" stop-color="#C78A4D"/>
</linearGradient>
<linearGradient id="paint41_linear_271_2589" x1="46.0659" y1="-0.019416" x2="46.0659" y2="12.1484" gradientUnits="userSpaceOnUse">
<stop stop-color="#FEB969"/>
<stop offset="1" stop-color="#C78A4D"/>
</linearGradient>
<linearGradient id="paint42_linear_271_2589" x1="46.2609" y1="27.4085" x2="46.2609" y2="20.4157" gradientUnits="userSpaceOnUse">
<stop offset="0.5" stop-color="white"/>
<stop offset="1" stop-color="#FFB400"/>
</linearGradient>
<linearGradient id="paint43_linear_271_2589" x1="46.2609" y1="27.4085" x2="46.2609" y2="20.4157" gradientUnits="userSpaceOnUse">
<stop offset="0.5" stop-color="white"/>
<stop offset="1" stop-color="#FFB400"/>
</linearGradient>
<linearGradient id="paint44_linear_271_2589" x1="46.261" y1="24.3162" x2="46.261" y2="17.9962" gradientUnits="userSpaceOnUse">
<stop offset="0.5" stop-color="white"/>
<stop offset="1" stop-color="#FFB400"/>
</linearGradient>
</defs>
</svg>
