<svg width="143" height="92" viewBox="0 0 143 92" fill="none" xmlns="http://www.w3.org/2000/svg">
<g clip-path="url(#clip0_886_55503)">
<path d="M53.1137 14.8766L42.4062 19.6197H68.2309L57.5235 14.8766C56.1191 14.2547 54.5176 14.2547 53.1137 14.8766Z" fill="#78B3CF"/>
<path d="M55.4597 8.4273V14.9409H55.1768V8.4043C55.2711 8.4135 55.3654 8.4181 55.4597 8.4273Z" fill="#78B3CF"/>
<path d="M117.073 25.8933H88.0996V26.7935H117.073V25.8933Z" fill="#C9856F"/>
<path d="M94.7168 24.0432H103.371C103.889 24.0432 104.309 24.463 104.309 24.9809C104.309 25.4987 103.889 25.9186 103.371 25.9186H94.7168V24.0432Z" fill="#78B3CF"/>
<path d="M94.7168 24.2239H98.7561C99.174 24.2239 99.5128 24.5627 99.5128 24.9806C99.5128 25.3985 99.174 25.7373 98.7561 25.7373H94.7168V24.2239Z" fill="white"/>
<path d="M93.3672 22.1697H102.022C102.54 22.1697 102.959 22.5894 102.959 23.1074C102.959 23.6251 102.54 24.0451 102.022 24.0451H93.3672V22.1697Z" fill="#4F947A"/>
<path d="M93.3672 22.3503H97.4065C97.8244 22.3503 98.1631 22.6891 98.1631 23.107C98.1631 23.525 97.8244 23.8637 97.4065 23.8637H93.3672V22.3503Z" fill="white"/>
<path d="M95.417 20.2959H104.071C104.589 20.2959 105.009 20.7156 105.009 21.2336C105.009 21.7516 104.589 22.1713 104.071 22.1713H95.417V20.2959Z" fill="#E3967F"/>
<path d="M95.417 20.4768H99.4562C99.8742 20.4768 100.213 20.8156 100.213 21.2335C100.213 21.6514 99.8742 21.9902 99.4562 21.9902H95.417V20.4768Z" fill="white"/>
<path d="M108.102 13.3047C107.826 13.8231 107.891 14.5418 108.217 14.632C108.395 14.6814 108.838 14.5032 109.214 14.0517C109.721 13.4417 110.197 12.3706 109.923 12.1724C109.481 11.8524 108.416 12.7145 108.102 13.3047Z" fill="#88D493"/>
<path d="M109.214 12.6849C108.894 13.0462 108.696 13.4521 108.531 13.8859C108.369 14.3176 108.261 14.7682 108.183 15.2229C108.107 15.6783 108.069 16.1397 108.05 16.6013C108.036 17.0629 108.045 17.5257 108.049 17.9907C108.048 18.9192 108.011 19.8477 107.945 20.7737C107.875 21.7006 107.785 22.6215 107.644 23.5457C107.639 23.577 107.61 23.5986 107.578 23.5938C107.547 23.5889 107.525 23.5597 107.53 23.5282L107.531 23.5227C107.674 22.614 107.77 21.6877 107.843 20.7659C107.914 19.8425 107.955 18.9165 107.96 17.9903C107.959 17.528 107.952 17.0631 107.968 16.5978C107.988 16.1332 108.028 15.6686 108.107 15.2096C108.187 14.7512 108.297 14.2965 108.463 13.8599C108.542 13.6405 108.643 13.4291 108.753 13.2231C108.866 13.0246 109.005 12.8118 109.151 12.66L109.169 12.6423C109.181 12.6299 109.2 12.6297 109.213 12.6416C109.225 12.6536 109.225 12.6724 109.214 12.6849Z" fill="#0C1729"/>
<path d="M110.302 23.0466H105.324V23.2488H110.302V23.0466Z" fill="#A61C35"/>
<path d="M105.155 13.4646C104.891 13.2702 104.605 13.1106 104.301 12.9988C103.661 12.7633 102.473 12.5147 101.94 13.1145C101.294 13.8427 102.087 14.8064 102.633 15.3161C103.224 15.8671 103.923 16.3021 104.678 16.5896C105.21 16.7922 106.315 17.2651 106.803 16.7779C107.211 16.3724 106.766 15.555 106.56 15.1562C106.223 14.5074 105.746 13.8995 105.155 13.4646Z" fill="#348F6E"/>
<path d="M114.35 21.4901C115.587 24.3575 115.651 29.3373 114.867 29.5164C113.894 29.7386 113.349 28.38 111.542 22.2551C110.239 17.8377 109.328 17.1272 109.328 17.1272C110.807 16.7661 113.024 18.3002 114.35 21.4901Z" fill="#348F6E"/>
<path d="M110.975 12.4318C112.806 11.3554 114.589 11.6277 114.833 12.5693C115.076 13.5109 114.007 14.6396 111.749 15.3882C110.238 15.8889 109.118 16.6797 108.901 16.3105C108.456 15.5527 109.604 13.2382 110.975 12.4318Z" fill="#88D493"/>
<path d="M114.866 29.5739C114.839 29.5739 114.815 29.5544 114.81 29.5263C113.938 24.5362 111.258 16.9713 109.482 17.1553C108.753 17.2291 108.405 18.7807 108.068 20.281L107.984 20.6543C107.977 20.6853 107.946 20.7051 107.915 20.6975C107.884 20.6904 107.864 20.6598 107.872 20.6288L107.956 20.2557C108.302 18.7156 108.66 17.1231 109.47 17.0408C111.463 16.8397 114.136 24.996 114.923 29.5063C114.928 29.5376 114.908 29.5675 114.876 29.5728C114.873 29.5737 114.869 29.5739 114.866 29.5739Z" fill="#0C1729"/>
<path d="M107.971 20.5096C107.969 20.5096 107.968 20.5096 107.967 20.5094C107.935 20.5073 107.911 20.48 107.913 20.4482C108.091 17.8122 108.682 15.9356 109.72 14.7109C111.42 12.7048 113.837 11.8996 114.862 12.5201C114.889 12.5365 114.898 12.5719 114.882 12.599C114.865 12.6264 114.83 12.6351 114.802 12.6183C113.838 12.0346 111.445 12.8532 109.808 14.7852C108.786 15.9906 108.204 17.8455 108.028 20.4558C108.026 20.4864 108.001 20.5096 107.971 20.5096Z" fill="#0C1729"/>
<path d="M108.056 20.4545C108.029 20.4545 108.005 20.4354 107.999 20.4078C107.564 18.1161 106.442 15.941 105.56 14.9768C103.847 13.1058 102.708 12.9864 102.299 13.0225C102.119 13.0381 102.024 13.0874 101.999 13.1108C102 13.1311 101.99 13.1515 101.972 13.1633C101.945 13.1803 101.91 13.1722 101.893 13.1453C101.886 13.1343 101.855 13.0761 101.935 13.0147C102.182 12.8265 103.533 12.5931 105.644 14.8991C106.538 15.8752 107.673 18.0735 108.112 20.3862C108.118 20.4175 108.098 20.4476 108.067 20.4533C108.063 20.4543 108.059 20.4545 108.056 20.4545Z" fill="#0C1729"/>
<path d="M110.443 22.1863C110.428 22.3186 110.411 22.4506 110.392 22.5828C110.39 22.6111 110.385 22.6394 110.381 22.6677C110.362 22.7942 110.341 22.9207 110.32 23.0472C110.158 24.0217 109.922 24.9905 109.678 25.8932H105.95C105.448 24.0236 104.968 21.8689 105.118 19.9673H110.509C110.568 20.6812 110.534 21.431 110.443 22.1863Z" fill="#FAC66C"/>
<path d="M102.941 19.8068C101.776 21.2756 101.157 23.9548 101.389 24.3778C101.729 24.9944 102.897 24.5616 105.131 21.3731C107.005 18.6977 106.531 18.0618 106.531 18.0618C105.731 17.6216 104.207 18.165 102.941 19.8068Z" fill="#88D493"/>
<path d="M101.699 24.4859C101.696 24.4859 101.693 24.4857 101.69 24.485C101.658 24.4797 101.637 24.45 101.642 24.4188C101.988 22.3561 105.222 18.0128 106.448 17.9643C107.141 17.9399 107.375 18.6126 107.573 19.954C107.577 19.9855 107.555 20.0147 107.524 20.0193C107.493 20.023 107.463 20.0021 107.459 19.9708C107.271 18.6968 107.063 18.0599 106.453 18.0793C105.361 18.1225 102.125 22.2367 101.756 24.4378C101.751 24.4659 101.727 24.4859 101.699 24.4859Z" fill="#0C1729"/>
<path d="M110.373 21.5581H105.131V21.7603H110.373V21.5581Z" fill="white"/>
<path d="M110.443 22.1863C110.018 21.4234 109.676 20.6113 109.476 19.9673H110.509C110.567 20.6812 110.533 21.431 110.443 22.1863Z" fill="#331338"/>
<path d="M95.9395 53.8303H95.376V85.6577H95.9395V53.8303Z" fill="#193847"/>
<path d="M97.9205 64.8183L93.3709 85.6575H92.4697L97.055 64.6631L97.9205 64.8183Z" fill="#193847"/>
<path d="M102.712 64.8183L100.28 76.3678V76.3703L99.8326 78.493V78.4955L98.3242 85.6575H97.459L99.4069 76.3963V76.3938L99.8547 74.2686V74.266L101.877 64.6631L102.712 64.8183Z" fill="#193847"/>
<path d="M106.972 48.0992L111.842 48.0928C112.558 48.0919 113.122 48.6664 113.066 49.3389L111.802 64.4455L105.658 63.9895L106.972 48.0992Z" fill="#2A5A70"/>
<path d="M103.754 47.9487L111.937 48.1014L110.554 64.3406L102.431 63.7288L103.754 47.9487Z" fill="#6ABADB"/>
<path d="M108.881 85.6574H108.005L106.565 78.4954L106.139 76.3937L103.81 64.8157L104.656 64.6655L106.587 74.266L107.013 76.3702L108.881 85.6574Z" fill="#193847"/>
<path d="M115.233 85.6574H114.365L110.159 64.8132L111.003 64.6655L115.233 85.6574Z" fill="#193847"/>
<path d="M111.804 64.3009C111.804 64.6142 111.67 64.8961 111.453 65.1006C111.236 65.3051 110.933 65.432 110.604 65.432H97.0483C96.3861 65.432 95.8477 64.9247 95.8477 64.3009C95.8477 63.9876 95.9822 63.7029 96.1993 63.4984C96.4165 63.294 96.7187 63.1672 97.0483 63.1672H110.604C111.266 63.167 111.804 63.6744 111.804 64.3009Z" fill="#2A5A70"/>
<path d="M105.748 64.3006C105.748 64.6132 105.613 64.8968 105.397 65.1003C105.179 65.3039 104.878 65.4325 104.544 65.4325H97.0473C96.3856 65.4325 95.8477 64.9235 95.8477 64.3006C95.8477 63.9881 95.9834 63.7019 96.1991 63.4984C96.4171 63.2948 96.7177 63.1663 97.0473 63.1663H104.544C105.21 63.1663 105.748 63.6753 105.748 64.3006Z" fill="#6ABADB"/>
<path d="M79.3581 36.7535C78.4417 36.6392 77.516 36.6114 76.5928 36.6709C76.5988 35.8542 76.605 35.0377 76.6109 34.221C77.5204 34.1117 78.4388 34.0887 79.3542 34.152C79.3553 35.0193 79.3567 35.8864 79.3581 36.7535Z" fill="white"/>
<path d="M77.7667 34.6611C77.8839 34.6611 77.9788 34.4679 77.9788 34.2296C77.9788 33.9913 77.8839 33.7981 77.7667 33.7981C77.6496 33.7981 77.5547 33.9913 77.5547 34.2296C77.5547 34.4679 77.6496 34.6611 77.7667 34.6611Z" fill="#8AA4BD"/>
<path d="M83.484 41.39C82.5677 41.2757 81.642 41.2478 80.7188 41.3074C80.725 40.4907 80.7309 39.6742 80.7369 38.8575C81.6463 38.7482 82.5647 38.7252 83.4801 38.7884C83.4813 39.6555 83.4827 40.5229 83.484 41.39Z" fill="#C1E4FF"/>
<path d="M82.1048 38.8661C82.1048 39.1043 82.0098 39.2975 81.8927 39.2975C81.7757 39.2975 81.6807 39.1043 81.6807 38.8661C81.6807 38.6278 81.7757 38.4346 81.8927 38.4346C82.0098 38.4346 82.1048 38.6278 82.1048 38.8661Z" fill="#8AA4BD"/>
<path d="M96.697 53.8304H32.7961C32.2319 53.8304 31.7744 53.373 31.7744 52.8088C31.7744 52.2446 32.2319 51.7871 32.7961 51.7871H96.697C97.2612 51.7871 97.7186 52.2446 97.7186 52.8088C97.7186 53.373 97.2612 53.8304 96.697 53.8304Z" fill="#6ABADB"/>
<path d="M96.6971 53.8304H70.5353C69.9711 53.8304 69.5137 53.373 69.5137 52.8088C69.5137 52.2446 69.9711 51.7871 70.5353 51.7871H96.6971C97.2613 51.7871 97.7188 52.2446 97.7188 52.8088C97.7188 53.373 97.2613 53.8304 96.6971 53.8304Z" fill="#2A5A70"/>
<path d="M69.0922 46.077H50.004C49.2641 46.077 48.6641 45.4772 48.6641 44.7371V31.591C48.6641 30.851 49.2639 30.251 50.004 30.251H69.0922C69.7424 30.251 70.2696 30.7781 70.2696 31.4283V44.8994C70.2696 45.5499 69.7424 46.077 69.0922 46.077Z" fill="#3C87C4"/>
<path d="M69.5058 46.0771H50.5722C50.1504 46.0771 49.8086 45.7353 49.8086 45.3135V31.0148C49.8086 30.593 50.1504 30.2512 50.5722 30.2512H69.5058C69.9276 30.2512 70.2694 30.593 70.2694 31.0148V45.3135C70.2694 45.7351 69.9274 46.0771 69.5058 46.0771Z" fill="#10446E"/>
<path d="M69.3063 30.9963H50.7725V45.3315H69.3063V30.9963Z" fill="#87B5CC"/>
<path d="M59.8307 38.3721H52.7624C52.5117 38.3721 52.3086 38.169 52.3086 37.9183V32.7582C52.3086 32.5075 52.5117 32.3044 52.7624 32.3044H59.8307C60.0814 32.3044 60.2845 32.5075 60.2845 32.7582V37.9183C60.2845 38.169 60.0814 38.3721 59.8307 38.3721Z" fill="white"/>
<path d="M60.197 38.8521H53.1286C52.8779 38.8521 52.6748 38.649 52.6748 38.3983V33.2382C52.6748 32.9875 52.8779 32.7844 53.1286 32.7844H60.197C60.4477 32.7844 60.6507 32.9875 60.6507 33.2382V38.3983C60.6507 38.649 60.4477 38.8521 60.197 38.8521Z" fill="white"/>
<path d="M60.7048 39.3508H53.6364C53.3857 39.3508 53.1826 39.1477 53.1826 38.897V33.737C53.1826 33.4863 53.3859 33.2832 53.6364 33.2832H60.7048C60.9555 33.2832 61.1586 33.4863 61.1586 33.737V38.897C61.1586 39.1477 60.9552 39.3508 60.7048 39.3508Z" fill="white"/>
<path d="M67.3122 43.3792H60.2438C59.9931 43.3792 59.79 43.1761 59.79 42.9254V37.7653C59.79 37.5146 59.9931 37.3115 60.2438 37.3115H67.3122C67.5629 37.3115 67.766 37.5146 67.766 37.7653V42.9254C67.766 43.1761 67.5629 43.3792 67.3122 43.3792Z" fill="white"/>
<path d="M66.9245 43.9619H59.8561C59.6054 43.9619 59.4023 43.7588 59.4023 43.5081V38.3481C59.4023 38.0974 59.6054 37.8943 59.8561 37.8943H66.9245C67.1752 37.8943 67.3783 38.0974 67.3783 38.3481V43.5081C67.3783 43.7588 67.1752 43.9619 66.9245 43.9619Z" fill="white"/>
<path d="M66.5378 44.6416H59.4694C59.2187 44.6416 59.0156 44.4385 59.0156 44.1878V39.0278C59.0156 38.7771 59.2187 38.574 59.4694 38.574H66.5378C66.7885 38.574 66.9916 38.7771 66.9916 39.0278V44.1878C66.9916 44.4383 66.7885 44.6416 66.5378 44.6416Z" fill="white"/>
<path d="M64.665 38.2857H59.8115C59.5857 38.2857 59.4023 38.1026 59.4023 37.8765V35.3594C59.4023 35.1335 59.5854 34.9502 59.8115 34.9502H64.665C64.8908 34.9502 65.0741 35.1333 65.0741 35.3594V37.8765C65.0739 38.1026 64.8908 38.2857 64.665 38.2857Z" fill="#C1E4FF"/>
<path d="M65.2558 37.9192H60.4023C60.1765 37.9192 59.9932 37.7361 59.9932 37.51V34.9929C59.9932 34.7671 60.1762 34.5837 60.4023 34.5837H65.2558C65.4817 34.5837 65.665 34.7668 65.665 34.9929V37.51C65.665 37.7361 65.4817 37.9192 65.2558 37.9192Z" fill="#C1E4FF"/>
<path d="M65.8456 37.5527H60.9922C60.7663 37.5527 60.583 37.3697 60.583 37.1436V34.6265C60.583 34.4006 60.7661 34.2173 60.9922 34.2173H65.8456C66.0715 34.2173 66.2548 34.4004 66.2548 34.6265V37.1438C66.2546 37.3697 66.0715 37.5527 65.8456 37.5527Z" fill="#C1E4FF"/>
<path d="M56.8236 43.1483H52.3551C52.1633 43.1483 52.0078 42.9928 52.0078 42.801V40.8558C52.0078 40.664 52.1633 40.5085 52.3551 40.5085H56.8236C57.0154 40.5085 57.1709 40.664 57.1709 40.8558V42.801C57.1709 42.9928 57.0154 43.1483 56.8236 43.1483Z" fill="#C1E4FF"/>
<path d="M57.4903 43.7039H53.0219C52.8301 43.7039 52.6748 43.5484 52.6748 43.3566V41.4115C52.6748 41.2197 52.8303 41.0642 53.0219 41.0642H57.4903C57.6821 41.0642 57.8376 41.2197 57.8376 41.4115V43.3566C57.8376 43.5484 57.6821 43.7039 57.4903 43.7039Z" fill="#C1E4FF"/>
<path d="M57.9798 44.0345H53.5114C53.3195 44.0345 53.1641 43.879 53.1641 43.6872V41.7421C53.1641 41.5503 53.3195 41.3948 53.5114 41.3948H57.9798C58.1716 41.3948 58.3271 41.5503 58.3271 41.7421V43.6872C58.3269 43.879 58.1716 44.0345 57.9798 44.0345Z" fill="#C1E4FF"/>
<path d="M60.0877 42.7146C62.4861 42.7146 64.4304 40.7703 64.4304 38.3719C64.4304 35.9736 62.4861 34.0293 60.0877 34.0293C57.6894 34.0293 55.7451 35.9736 55.7451 38.3719C55.7451 40.7703 57.6894 42.7146 60.0877 42.7146Z" fill="#F58A69"/>
<path d="M59.5449 40.349C59.5449 39.9943 59.7982 39.7625 60.088 39.7625C60.3991 39.7625 60.631 39.9941 60.631 40.349C60.631 40.682 60.421 40.9281 60.0951 40.9281C59.7839 40.9281 59.5449 40.682 59.5449 40.349ZM59.6825 39.2848L59.5737 35.9907H60.6091L60.4932 39.2848H59.6825Z" fill="white"/>
<path d="M60.2471 46.0767H56.6621V51.7864H60.2471V46.0767Z" fill="#3C87C4"/>
<path d="M61.2973 46.0771H57.7139V51.7871H61.2973V46.0771Z" fill="#10446E"/>
<path d="M57.6794 46.0767L56.6621 46.7004V46.0767H57.6794Z" fill="#0C1729"/>
<path d="M109.77 74.7288V85.6724H122.626V82.701L122.227 81.5749V79.864L122.372 79.5118L122.059 78.0392L122.238 77.7052L122.137 77.1539L122.626 76.5405L121.705 75.6812C121.705 75.6812 122.259 75.0625 122.561 74.7288H109.77Z" fill="#FAD18A"/>
<path d="M121.73 75.7037H111.333C111.301 75.7037 111.274 75.6775 111.274 75.6451C111.274 75.6126 111.301 75.5864 111.333 75.5864H121.73C121.763 75.5864 121.789 75.6126 121.789 75.6451C121.789 75.6775 121.763 75.7037 121.73 75.7037Z" fill="#C9856F"/>
<path d="M122.148 77.2145H114.418C114.386 77.2145 114.359 77.1882 114.359 77.1558C114.359 77.1234 114.386 77.0972 114.418 77.0972H122.148C122.18 77.0972 122.206 77.1234 122.206 77.1558C122.206 77.1882 122.18 77.2145 122.148 77.2145Z" fill="#C9856F"/>
<path d="M122.148 78.0865H111.75C111.718 78.0865 111.691 78.0603 111.691 78.0279C111.691 77.9955 111.718 77.9692 111.75 77.9692H122.148C122.18 77.9692 122.206 77.9955 122.206 78.0279C122.206 78.0603 122.18 78.0865 122.148 78.0865Z" fill="#C9856F"/>
<path d="M122.413 79.5543H114.992C114.96 79.5543 114.934 79.5281 114.934 79.4957C114.934 79.4632 114.96 79.437 114.992 79.437H122.413C122.445 79.437 122.471 79.4632 122.471 79.4957C122.471 79.5279 122.445 79.5543 122.413 79.5543Z" fill="#C9856F"/>
<path d="M122.26 81.639H111.862C111.83 81.639 111.804 81.6128 111.804 81.5804C111.804 81.5479 111.83 81.5217 111.862 81.5217H122.26C122.292 81.5217 122.319 81.5479 122.319 81.5804C122.319 81.6128 122.292 81.639 122.26 81.639Z" fill="#C9856F"/>
<path d="M122.647 82.8092H114.184C114.151 82.8092 114.125 82.783 114.125 82.7505C114.125 82.7181 114.151 82.6919 114.184 82.6919H122.647C122.679 82.6919 122.705 82.7181 122.705 82.7505C122.705 82.783 122.679 82.8092 122.647 82.8092Z" fill="#C9856F"/>
<path d="M79.4244 50.5591H78.1279V51.04H79.4244V50.5591Z" fill="#3C87C4"/>
<path d="M77.3541 50.5591H76.0576V51.04H77.3541V50.5591Z" fill="#3C87C4"/>
<path d="M75.2828 50.5591H73.9863V51.04H75.2828V50.5591Z" fill="#3C87C4"/>
<path d="M73.2125 50.5591H71.916V51.04H73.2125V50.5591Z" fill="#3C87C4"/>
<path d="M71.1422 50.5591H69.8457V51.04H71.1422V50.5591Z" fill="#3C87C4"/>
<path d="M69.0709 50.5591H67.7744V51.04H69.0709V50.5591Z" fill="#3C87C4"/>
<path d="M67.0006 50.5591H65.7041V51.04H67.0006V50.5591Z" fill="#3C87C4"/>
<path d="M64.9293 50.5591H63.6328V51.04H64.9293V50.5591Z" fill="#3C87C4"/>
<path d="M62.859 50.5591H61.5625V51.04H62.859V50.5591Z" fill="#3C87C4"/>
<path d="M79.8121 50.5591H78.5156V51.04H79.8121V50.5591Z" fill="#10446E"/>
<path d="M77.7418 50.5591H76.4453V51.04H77.7418V50.5591Z" fill="#10446E"/>
<path d="M75.6715 50.5591H74.375V51.04H75.6715V50.5591Z" fill="#10446E"/>
<path d="M73.6002 50.5591H72.3037V51.04H73.6002V50.5591Z" fill="#10446E"/>
<path d="M71.5299 50.5591H70.2334V51.04H71.5299V50.5591Z" fill="#10446E"/>
<path d="M69.4586 50.5591H68.1621V51.04H69.4586V50.5591Z" fill="#10446E"/>
<path d="M67.3883 50.5591H66.0918V51.04H67.3883V50.5591Z" fill="#10446E"/>
<path d="M65.317 50.5591H64.0205V51.04H65.317V50.5591Z" fill="#10446E"/>
<path d="M63.2467 50.5591H61.9502V51.04H63.2467V50.5591Z" fill="#10446E"/>
<path d="M81.0276 51.7869H60.3818C60.3818 51.2429 60.8227 50.8022 61.3665 50.8022H80.0429C80.5866 50.8022 81.0276 51.2432 81.0276 51.7869Z" fill="#10446E"/>
<path d="M64.6854 51.7869H60.3818C60.3818 51.2429 60.8227 50.8022 61.3665 50.8022H64.6854V51.7869Z" fill="#3C87C4"/>
<path d="M37.1709 39.0098L37.2314 39.5188C36.5649 39.7005 36.0752 40.2847 36.0752 40.9753C36.0752 41.7872 36.7491 42.4515 37.5973 42.4901C37.7839 43.2075 38.4311 43.7213 39.1896 43.7213H39.8732C40.7118 43.7213 41.4146 43.0959 41.5115 42.2647L41.8944 39.0098H37.1709ZM36.851 40.9753C36.851 40.6821 37.0449 40.4275 37.3236 40.3088L37.486 41.695C37.1226 41.6175 36.851 41.3243 36.851 40.9753Z" fill="#FAC66C"/>
<path d="M40.7656 42.2831C40.7337 42.2831 40.7074 42.2573 40.707 42.2254C40.7067 42.2053 40.6785 40.2099 40.7058 39.6374C40.7304 39.1208 40.3355 39.0691 40.3185 39.067C40.2863 39.0633 40.2633 39.0341 40.267 39.0019C40.2707 38.9697 40.301 38.9465 40.3321 38.9504C40.3374 38.9511 40.8528 39.018 40.8231 39.6429C40.796 40.2119 40.824 42.2035 40.8243 42.2237C40.8247 42.2562 40.799 42.2826 40.7665 42.2831C40.7661 42.2831 40.7656 42.2831 40.7656 42.2831Z" fill="white"/>
<path d="M41.1002 43.2561H40.4316C40.333 43.2561 40.2529 43.176 40.2529 43.0774V42.2988C40.2529 42.2002 40.333 42.1201 40.4316 42.1201H41.1002C41.1989 42.1201 41.279 42.2002 41.279 42.2988V43.0774C41.2787 43.176 41.1989 43.2561 41.1002 43.2561Z" fill="white"/>
<path d="M35.2672 53.8462H34.7881V85.6543H35.2672V53.8462Z" fill="#193847"/>
<path d="M57.5826 53.8462H57.1035V85.6736H57.5826V53.8462Z" fill="#193847"/>
<path d="M35.051 44.0771L35.6734 45.1268L35.0538 46.1282C35.0538 46.1282 35.4774 47.2101 35.4774 47.2846C35.4774 47.3589 35.6734 48.5347 35.6734 48.5347L35.0538 49.578L35.368 50.0591L35.051 50.4628V51.2057C35.3622 51.3543 35.6734 51.5028 35.6734 51.5028C35.6734 51.5028 35.4227 51.6418 35.1575 51.771H46.4818V43.738H35.0508V44.0771H35.051Z" fill="white"/>
<path d="M43.6288 51.5279H35.5538C35.5213 51.5279 35.4951 51.5017 35.4951 51.4693C35.4951 51.4369 35.5213 51.4106 35.5538 51.4106H43.6288C43.6613 51.4106 43.6875 51.4369 43.6875 51.4693C43.6875 51.5017 43.6613 51.5279 43.6288 51.5279Z" fill="#799CAB"/>
<path d="M43.7929 48.6449H35.7178C35.6854 48.6449 35.6592 48.6187 35.6592 48.5862C35.6592 48.5538 35.6854 48.5276 35.7178 48.5276H43.7929C43.8253 48.5276 43.8516 48.5538 43.8516 48.5862C43.8513 48.6187 43.8251 48.6449 43.7929 48.6449Z" fill="#799CAB"/>
<path d="M43.2294 46.2242H35.1544C35.1219 46.2242 35.0957 46.198 35.0957 46.1656C35.0957 46.1332 35.1219 46.1069 35.1544 46.1069H43.2294C43.2619 46.1069 43.2881 46.1332 43.2881 46.1656C43.2881 46.1978 43.2619 46.2242 43.2294 46.2242Z" fill="#799CAB"/>
<path d="M45.5273 45.1361H35.6729C35.6405 45.1361 35.6143 45.1099 35.6143 45.0774C35.6143 45.045 35.6405 45.0188 35.6729 45.0188H45.5273C45.5597 45.0188 45.5859 45.045 45.5859 45.0774C45.5859 45.1099 45.5597 45.1361 45.5273 45.1361Z" fill="#799CAB"/>
<path d="M44.9167 44.1842H35.0626C35.0301 44.1842 35.0039 44.158 35.0039 44.1255C35.0039 44.0931 35.0301 44.0669 35.0626 44.0669H44.9167C44.9491 44.0669 44.9753 44.0931 44.9753 44.1255C44.9753 44.158 44.9489 44.1842 44.9167 44.1842Z" fill="#799CAB"/>
<path d="M45.2829 50.0865H35.251C35.2186 50.0865 35.1924 50.0603 35.1924 50.0279C35.1924 49.9955 35.2186 49.9692 35.251 49.9692H45.2829C45.3154 49.9692 45.3416 49.9955 45.3416 50.0279C45.3414 50.0601 45.3151 50.0865 45.2829 50.0865Z" fill="#799CAB"/>
<path d="M102.159 63.1662C102.112 63.1662 101.078 63.1964 99.7834 64.2535C98.911 64.966 98.995 65.4322 98.995 65.4322H97.0473C96.3856 65.4322 95.8477 64.9232 95.8477 64.3004C95.8477 63.9878 95.9834 63.7017 96.1991 63.4981C96.4171 63.2946 96.7177 63.166 97.0473 63.166L102.159 63.1662Z" fill="#0C1729"/>
<path d="M78.0113 80.0497L74.7705 78.8538L73.2404 82.9999L76.4812 84.1958L78.0113 80.0497Z" fill="#FFAD7D"/>
<path d="M78.2569 85.6757H68.584V85.422C68.584 85.2718 68.6028 85.1244 68.6403 84.9845C68.8232 84.2598 69.4495 83.6956 70.2453 83.5919C70.2453 83.5919 72.5922 83.2476 73.2456 82.6523C73.2456 82.6523 73.4312 82.0569 74.2188 82.9835C74.6758 83.5194 75.2968 83.527 75.6974 83.4987C77.0068 83.3824 77.2324 82.0336 77.2702 82.0208C77.2702 82.0208 77.6708 82.6756 77.9314 83.5919C78.0632 84.0551 78.1437 84.5781 78.1922 84.9845C78.2408 85.3884 78.2569 85.6757 78.2569 85.6757Z" fill="#3C87C4"/>
<path d="M78.2569 85.6755H68.584V85.4218C68.584 85.2716 68.6028 85.1242 68.6403 84.9844H78.1922C78.2408 85.3883 78.2569 85.6755 78.2569 85.6755Z" fill="#10446E"/>
<path d="M101.227 57.5301L102.669 53.5147L102.263 52.4917L95.7925 52.8192C95.7925 52.8192 96.0763 54.1992 90.9041 56.0854C89.2009 56.7067 82.5038 59.7068 82.5038 59.7068C80.8353 60.3694 79.865 61.1788 79.4678 62.8242L81.7206 65.6645L97.6417 63.3397C100.381 62.9358 102.094 60.1597 101.227 57.5301Z" fill="#25664E"/>
<path d="M79.1607 82.053C79.1612 82.0521 79.161 82.0512 79.1612 82.0502L79.1693 82.0537C79.1693 82.0537 79.9119 80.0301 80.6484 77.7925C82.113 73.3422 85.7746 69.5681 86.1477 64.9203C86.3131 62.8593 79.5734 62.5398 79.5734 62.5398L73.2456 79.5023L73.2518 79.5051C73.1094 79.8744 74.2965 80.7358 75.918 81.4371C77.5491 82.1427 79.0011 82.4185 79.1607 82.053Z" fill="#25664E"/>
<path d="M105.27 57.5452C104.916 55.6036 103.698 52.4915 103.698 52.4915L95.7918 52.819L95.6083 54.9975C95.5738 55.4079 95.5908 55.7259 95.2212 55.9076C95.1273 55.9536 94.7667 56.0431 94.6634 56.0852C92.9453 56.7853 86.2631 59.7066 86.2631 59.7066C84.5947 60.3692 83.8939 61.6892 84.4574 63.229L85.4798 65.6645L101.401 63.3396C104.14 62.9358 105.767 60.2691 105.27 57.5452Z" fill="#2B785C"/>
<path d="M101.957 55.7438C101.955 55.7438 101.954 55.7438 101.952 55.7435L99.0477 55.4825C99.0311 55.4809 99.016 55.4726 99.0061 55.4592C98.9959 55.4461 98.9923 55.4293 98.995 55.4132L99.326 53.6604C99.332 53.6284 99.3633 53.6077 99.3945 53.6135C99.4265 53.6195 99.4472 53.6503 99.4415 53.682L99.1222 55.3716L101.898 55.6209V53.4849C101.898 53.4525 101.925 53.4263 101.957 53.4263C101.989 53.4263 102.016 53.4525 102.016 53.4849V55.6851C102.016 55.7014 102.009 55.7173 101.997 55.7283C101.986 55.7385 101.972 55.7438 101.957 55.7438Z" fill="#0C1729"/>
<path d="M105.538 52.4872C105.538 52.4872 105.24 53.9031 100.998 54.1593C96.7556 54.4156 95.8678 53.1214 95.8678 53.1214C95.4407 52.7977 95.345 52.3603 95.3087 51.8014C95.2776 51.3147 95.288 50.7349 95.1613 50.0568C95.1534 49.9973 95.1406 49.9377 95.1277 49.8756C94.9464 49.0188 95.0863 46.6609 95.1277 46.3734C95.1716 46.0836 99.1216 40.7202 99.1216 40.7202C103.457 42.1467 105.538 52.4872 105.538 52.4872Z" fill="#E06A38"/>
<path d="M84.5 51.788L87.7766 51.8269C89.1002 51.8142 90.2827 51.5364 91.0709 50.5285C91.0709 50.5285 93.7989 45.512 97.0557 46.1295C97.9424 46.2977 98.4918 43.7642 97.3379 42.1427C97.2917 42.0779 97.2432 42.0139 97.1928 41.9514C95.5766 39.946 92.4437 40.1599 90.9961 42.2902L84.5 51.788Z" fill="#E06A38"/>
<path d="M85.3355 49.7013C85.4838 50.3095 83.5405 50.6952 84.0334 51.8017H85.8746C85.8746 51.8017 87.2937 51.3769 88.4365 49.2036L85.3355 49.7013Z" fill="#0C1729"/>
<path d="M95.4336 55.6867C95.4274 55.6867 95.421 55.6857 95.4148 55.6834C95.3842 55.6731 95.3676 55.64 95.3782 55.6092C95.7076 54.6346 95.6974 52.9694 95.6972 52.9524C95.697 52.92 95.723 52.8935 95.7554 52.8933H95.7559C95.7881 52.8933 95.8143 52.9191 95.8145 52.9515C95.8152 53.0205 95.8251 54.653 95.4893 55.6469C95.4812 55.6713 95.4582 55.6867 95.4336 55.6867Z" fill="#0C1729"/>
<path d="M85.834 51.3881C86.4927 51.6602 88.1041 50.7386 88.8891 47.9705L90.9793 39.7108L89.2377 39.4304C88.6308 41.9542 85.8475 47.2826 85.8475 47.2826C84.5975 49.6636 85.0975 51.2004 85.834 51.3881Z" fill="#FFAD7D"/>
<path d="M91.2348 39.4235C91.2038 39.6073 91.0978 39.7678 90.9397 39.8688C90.8829 39.9102 90.8155 39.9387 90.7431 39.9594L88.9468 40.4072C88.9468 40.4072 89.1227 40.0655 88.864 38.6056C88.864 38.6031 88.864 38.6031 88.864 38.6006C88.8277 38.3961 88.7812 38.1682 88.7269 37.9173C88.6699 37.6636 88.9185 37.5005 89.2601 37.397C89.2651 37.397 89.2704 37.3945 89.2755 37.3919C89.304 37.3841 89.3325 37.3763 89.3608 37.3687C89.5239 37.3273 89.6998 37.2963 89.8707 37.273C89.9146 37.2677 89.956 37.2627 90.0002 37.2574C90.2486 37.2289 90.4765 37.2185 90.6136 37.216C90.6989 37.2107 90.7507 37.2107 90.7507 37.2107L91.0718 38.5024V38.5074C91.0718 38.5074 91.0718 38.51 91.0743 38.5127L91.1831 38.9527C91.1831 38.9578 91.1856 38.9605 91.1856 38.9631L91.227 39.134C91.2502 39.2322 91.2528 39.3304 91.2348 39.4235Z" fill="#FFAD7D"/>
<path d="M91.1382 35.598C91.1228 35.9522 91.0435 36.2678 90.9181 36.5829L90.7125 37.0162L90.5048 37.4318C90.4643 37.5178 90.4443 37.6137 90.454 37.7083C90.457 37.7556 90.4666 37.8025 90.483 37.8476L90.5635 38.0574C90.6752 38.3474 90.7753 38.6427 90.8641 38.9422C90.905 39.08 90.8263 39.2249 90.6886 39.2656C90.5683 39.3012 90.4425 39.2458 90.3854 39.1393C90.2375 38.864 90.1005 38.5841 89.9756 38.2994C89.942 38.2251 89.9153 38.1655 89.8794 38.0774C89.8401 37.9774 89.8139 37.8715 89.8047 37.7639C89.787 37.5489 89.8295 37.3278 89.9312 37.1374L90.1623 36.7301L90.3953 36.3402C90.5296 36.0909 90.6504 35.8112 90.7291 35.5502L90.7353 35.5297C90.7682 35.4209 90.8829 35.3593 90.9919 35.3922C91.0839 35.4198 91.1421 35.5062 91.1382 35.598Z" fill="#FFAD7D"/>
<path d="M90.8705 35.4404C90.764 35.7581 90.641 36.0637 90.4974 36.3671C90.359 36.6808 90.1782 36.966 90.0059 37.2473L89.9747 37.2979C89.9689 37.3089 89.962 37.3195 89.9569 37.331C89.9457 37.3533 89.936 37.3763 89.9266 37.3993C89.91 37.4463 89.899 37.4952 89.8962 37.5449C89.8889 37.6516 89.9089 37.7172 89.9666 37.8989C90.0581 38.2124 90.1499 38.5259 90.2187 38.8472C90.2488 38.9877 90.1591 39.1262 90.0184 39.1563C89.8969 39.1823 89.7773 39.1188 89.7274 39.0107C89.5899 38.7124 89.4758 38.4063 89.3612 38.1004C89.3123 37.976 89.2214 37.7243 89.2465 37.501C89.2543 37.3878 89.2798 37.2761 89.3196 37.17C89.3408 37.1174 89.3631 37.0651 89.393 37.0168C89.4068 36.992 89.4229 36.9688 89.4385 36.9453L89.4749 36.8938C89.6623 36.6307 89.8392 36.3683 90.0046 36.1038L90.4945 35.2723L90.4961 35.2695C90.554 35.1711 90.6808 35.1384 90.7792 35.1964C90.8652 35.247 90.9009 35.3498 90.8705 35.4404Z" fill="#FFAD7D"/>
<path d="M95.3086 51.8016C95.2775 51.3149 95.2879 50.7351 95.1611 50.0571L95.2285 49.9975L95.6154 49.8765L95.9457 49.7863C96.0181 49.7371 96.6124 49.2808 96.8222 49.7047C97.0515 50.1686 96.1784 52.4746 95.3086 51.8016Z" fill="#0C1729"/>
<path d="M91.2342 39.4235C91.2031 39.6073 91.0971 39.7678 90.9391 39.8688C91.0888 39.3042 90.7809 39.1123 90.3841 38.9615C89.9522 38.7972 89.8004 37.6898 89.9996 37.2572C89.9996 37.2546 90.0021 37.2519 90.0048 37.2468C90.1704 36.8947 90.4812 36.3615 90.5561 36.2348C90.5612 36.2219 90.5665 36.2141 90.569 36.2088C90.5716 36.2063 90.5716 36.2063 90.5716 36.2063L90.7372 36.9646L91.0711 38.5022V38.5072C91.0711 38.5072 91.0711 38.5097 91.0736 38.5125C91.084 38.5488 91.1383 38.7326 91.1824 38.9525C91.1824 38.9576 91.185 38.9603 91.185 38.9628C91.2135 39.113 91.2367 39.2761 91.2342 39.4235Z" fill="#0C1729"/>
<path d="M89.9268 37.4578C89.9187 37.4578 89.9107 37.4562 89.9029 37.4528C89.8734 37.4394 89.8601 37.4051 89.8732 37.3757C89.8783 37.3642 89.8964 37.3336 89.9247 37.2872C90.0607 37.0622 90.4744 36.378 90.6258 35.6785C90.6322 35.6468 90.6644 35.6268 90.6955 35.6337C90.7272 35.6406 90.7474 35.6716 90.7403 35.7034C90.5848 36.4219 90.1635 37.1188 90.0252 37.3479C90.0013 37.3874 89.9852 37.4132 89.9808 37.4233C89.9707 37.4449 89.9491 37.4578 89.9268 37.4578Z" fill="#C74B4B"/>
<path d="M103.382 48.5971C103.379 48.5971 103.376 48.5968 103.372 48.5961C103.34 48.5909 103.319 48.5605 103.324 48.5285C103.561 47.1382 103.309 45.6588 102.575 44.1321C102.556 44.0937 102.542 44.0633 102.533 44.0419C102.519 44.0125 102.532 43.9777 102.562 43.9644C102.592 43.9511 102.626 43.9644 102.64 43.9939C102.649 44.0146 102.663 44.0438 102.681 44.0813C103.425 45.6303 103.681 47.1334 103.44 48.5481C103.435 48.5768 103.41 48.5971 103.382 48.5971Z" fill="#0C1729"/>
<path d="M90.2439 35.4934C90.1508 35.8312 90.0135 36.1185 89.8421 36.4058L89.3515 37.2057L89.2867 37.3037C89.2701 37.329 89.2269 37.3925 89.251 37.3559C89.2598 37.3398 89.2646 37.32 89.2634 37.3039C89.2634 37.3021 89.2618 37.2913 89.2628 37.2973L89.2674 37.3258L89.2766 37.3831C89.3019 37.5355 89.3244 37.6885 89.3456 37.8419C89.3844 38.1489 89.4221 38.456 89.4396 38.7667C89.4477 38.9102 89.3377 39.0333 89.1942 39.0411C89.07 39.048 88.9612 38.9666 88.929 38.8514C88.8451 38.5519 88.7816 38.249 88.7193 37.9459C88.6896 37.7941 88.6615 37.642 88.6362 37.4895L88.6263 37.4325L88.6215 37.404C88.6192 37.3909 88.6151 37.361 88.6142 37.3398C88.6086 37.2464 88.6293 37.1485 88.6733 37.0634C88.734 36.9585 88.7411 36.9628 88.7678 36.924L88.8377 36.8331L89.4247 36.1229C89.5967 35.8968 89.7513 35.6316 89.8488 35.3807L89.855 35.3648C89.8962 35.259 90.073 35.0483 90.1788 35.0895C90.2771 35.1274 90.2713 35.3931 90.2439 35.4934Z" fill="#FFAD7D"/>
<path d="M93.0355 49.9223L89.4482 47.6204L91.3917 44.5916L97.2029 48.3205L96.6866 49.1253C95.8986 50.3537 94.264 50.7105 93.0355 49.9223Z" fill="#E06A38"/>
<path d="M92.4952 32.4828C92.4952 32.4828 91.9519 32.8614 91.0506 32.5437C90.0873 32.2043 89.7007 32.4517 89.8261 32.8177C89.9296 33.1197 90.5462 33.2636 90.5462 33.2636C90.5462 33.2636 89.3 33.0707 89.0776 33.9311C88.8552 34.7915 90.3684 35.5186 91.4809 35.4296C92.5934 35.3403 92.4952 32.4828 92.4952 32.4828Z" fill="#5C2111"/>
<path d="M93.1758 34.4481C92.8193 33.6622 92.6873 33.1516 92.1369 33.1516C91.2077 33.1516 90.5947 34.5923 90.5947 36.3792C90.5947 38.1661 90.85 39.6059 91.5966 39.6059C91.5966 39.6059 93.1135 39.6818 94.596 38.3848V35.111L93.1758 34.4481Z" fill="#FFAD7D"/>
<path d="M91.6331 35.2873C91.7794 35.2563 91.9243 35.2496 92.0704 35.2563C92.2166 35.2655 92.3627 35.2795 92.5191 35.3409C92.6716 35.4 92.8048 35.4959 92.9099 35.6111C93.0154 35.7271 93.0939 35.8584 93.1394 36.009C93.1491 36.0406 93.1311 36.0737 93.0996 36.0833C93.0782 36.0898 93.0559 36.0836 93.041 36.0691L93.0357 36.064C92.8399 35.8745 92.6343 35.7087 92.4092 35.6277C92.3011 35.5863 92.1644 35.5594 92.032 35.5251C91.8979 35.4922 91.761 35.4564 91.6253 35.4044L91.6242 35.4039C91.5927 35.392 91.577 35.3568 91.589 35.3253C91.5966 35.3052 91.6138 35.2914 91.6331 35.2873Z" fill="#5C2111"/>
<path d="M96.5881 40.478L96.5327 40.412C96.5164 40.3616 96.48 40.3158 96.4172 40.2747L94.0841 37.4993L92.2871 39.0099L93.205 40.1017C93.4863 40.4364 93.5526 40.9005 93.3821 41.303C92.8893 42.4666 92.7004 43.3868 93.2513 43.5285C93.5958 43.617 94.2663 42.9636 94.994 42.1811C95.7585 41.3594 96.4685 40.8515 96.5357 40.5219L96.5881 40.478Z" fill="#FFAD7D"/>
<path d="M87.3311 51.8269H91.1631C92.4407 51.8954 93.7975 51.7188 94.4111 50.5285C94.4111 50.5285 97.1394 45.512 100.396 46.1295C101.283 46.2977 101.832 43.7642 100.678 42.1427C100.632 42.0779 100.583 42.0139 100.533 41.9514C98.9168 39.946 95.784 40.1599 94.3366 42.2902L87.3311 51.8269Z" fill="#E06A38"/>
<path d="M103.179 40.4096C102.428 39.1667 101.121 38.3334 99.8771 37.9265C98.0332 37.2577 97.9485 35.6293 97.4998 34.6416L97.3236 34.2154C96.9087 33.211 96.0614 32.501 95.0735 32.2273C95.0508 32.0516 94.9091 31.8326 94.3281 31.869C93.7264 31.9065 93.1169 32.159 92.7399 32.3444C92.1792 32.4863 91.5874 32.6938 91.3556 33.1519C91.0481 33.7596 91.4108 34.2888 92.1631 34.8873C93.5569 35.9961 93.8235 37.0557 93.7013 38.0012C93.585 38.9026 93.6344 40.6212 95.1968 41.7049C96.5692 42.8697 98.6505 42.9322 99.061 42.3595C99.1135 42.2919 99.1399 42.2231 99.1459 42.153C99.4532 42.1764 99.6981 42.0973 99.7669 41.9221C99.7904 41.862 99.7885 41.7958 99.7699 41.7275C99.8715 41.6401 100.115 41.6088 100.677 42.1426C101.836 43.5224 102.137 44.7773 103.069 44.6604C103.845 44.5634 104.667 42.7873 103.179 40.4096Z" fill="#7A3B2B"/>
<path d="M94.2183 37.5686C93.9085 37.8784 93.4959 37.9679 93.2967 37.7685C93.0973 37.5691 93.1867 37.1565 93.4965 36.8469C93.8064 36.5371 94.219 36.4476 94.4184 36.647C94.6176 36.8462 94.5281 37.2588 94.2183 37.5686Z" fill="#FFAD7D"/>
<path d="M92.2873 45.2249C92.2659 45.2249 92.2452 45.2131 92.2348 45.1927C92.2203 45.1637 92.2316 45.1285 92.2606 45.1138C92.2985 45.0944 92.391 45.0064 92.4982 44.9045C93.072 44.358 94.4141 43.0767 96.3304 43.2754C96.3626 43.2786 96.3861 43.3076 96.3829 43.3395C96.3797 43.372 96.3518 43.3954 96.3185 43.392C94.4578 43.2015 93.1413 44.4541 92.5791 44.9893C92.4469 45.1154 92.3668 45.1913 92.3137 45.2184C92.3052 45.2228 92.2962 45.2249 92.2873 45.2249Z" fill="#0C1729"/>
<path d="M94.9507 32.447C94.941 32.447 94.9309 32.4444 94.921 32.4394C94.8923 32.4247 94.8838 32.3849 94.8982 32.3561C94.9049 32.343 94.9141 32.3347 94.9383 32.3127C95.2308 32.0456 95.3327 31.7648 95.2405 31.4778C95.2131 31.392 95.1676 31.3356 95.1011 31.3055C94.9562 31.2399 94.7614 31.3225 94.7598 31.3234C94.7306 31.3363 94.6958 31.323 94.6827 31.2931C94.6696 31.2634 94.6832 31.2289 94.7129 31.216C94.723 31.2119 94.9567 31.1114 95.1492 31.1985C95.2465 31.2425 95.315 31.3243 95.3527 31.4423C95.4599 31.7768 95.3472 32.099 95.0176 32.3998C95.008 32.4088 95.0008 32.415 94.9971 32.4191C94.9873 32.4373 94.9698 32.447 94.9507 32.447Z" fill="#7A3B2B"/>
<path d="M94.9502 32.5417C94.9373 32.5417 94.9246 32.5376 94.9138 32.529C94.8885 32.509 94.8842 32.472 94.9042 32.4467C94.9115 32.4373 95.6519 31.5262 96.7699 32.3503C96.7959 32.3694 96.8017 32.4062 96.7823 32.4322C96.763 32.4582 96.7267 32.4637 96.7002 32.4446C95.6744 31.6893 95.0233 32.4853 94.9962 32.5196C94.9844 32.5341 94.9674 32.5417 94.9502 32.5417Z" fill="#7A3B2B"/>
<path d="M88.6323 49.7262C88.7807 50.3344 86.8374 50.7201 87.3303 51.8266H89.1715C89.1715 51.8266 90.5906 51.4018 91.7334 49.2285L88.6323 49.7262Z" fill="#0C1729"/>
<path d="M89.1239 51.5649C89.7826 51.837 91.4248 50.5292 92.1602 48.1461L94.8845 40.1748L93.0703 39.6069C92.4633 42.1307 89.1375 47.4591 89.1375 47.4591C87.8874 49.8403 88.3877 51.3772 89.1239 51.5649Z" fill="#FFAD7D"/>
<path d="M94.814 40.4073L93.2919 39.8914C92.9397 39.7721 92.747 39.394 92.8571 39.0391L93.4443 37.1462C93.4443 37.1462 95.1254 36.9755 95.3002 37.4997C95.6036 38.4105 94.814 40.4073 94.814 40.4073Z" fill="#FFAD7D"/>
<path d="M97.6648 78.8474L94.4453 80.0996L96.0474 84.2187L99.2669 82.9665L97.6648 78.8474Z" fill="#FFAD7D"/>
<path d="M92.8145 35.7092C92.995 35.8127 93.1381 35.9406 93.2781 36.0834C93.412 36.2292 93.5318 36.3916 93.6282 36.5703C93.7285 36.7467 93.8014 36.9429 93.8458 37.1465C93.8964 37.3493 93.8996 37.5641 93.8787 37.7721C93.8642 37.914 93.7377 38.0172 93.5958 38.003C93.469 37.9901 93.3729 37.8875 93.3642 37.7647L93.3623 37.7376C93.3508 37.5784 93.3444 37.422 93.3055 37.2663C93.2666 37.112 93.2216 36.9565 93.1535 36.8051C93.0856 36.6545 93.0097 36.5036 92.9205 36.3564C92.8368 36.2076 92.7337 36.0593 92.639 35.9183L92.6309 35.9065C92.5884 35.8431 92.6052 35.7573 92.6686 35.7145C92.7135 35.6841 92.7701 35.6839 92.8145 35.7092Z" fill="#FFAD7D"/>
<path d="M93.084 35.3263C93.3 35.4388 93.4761 35.5823 93.6479 35.7443C93.8133 35.9096 93.9621 36.0962 94.0829 36.3034C94.208 36.5076 94.2991 36.7379 94.3552 36.9764C94.4194 37.2144 94.4224 37.4665 94.4005 37.7101C94.3876 37.852 94.2623 37.9569 94.1201 37.944C93.9909 37.9322 93.8924 37.8274 93.8855 37.7016L93.8839 37.6737C93.8731 37.4808 93.8671 37.2905 93.8165 37.104C93.7678 36.9186 93.7075 36.7333 93.6171 36.5562C93.5279 36.3795 93.4253 36.2047 93.3062 36.0375C93.1921 35.8682 93.0552 35.7024 92.9239 35.5478L92.9156 35.5379C92.8664 35.48 92.8733 35.393 92.9313 35.3438C92.9752 35.3061 93.0359 35.3013 93.084 35.3263Z" fill="#FFAD7D"/>
<path d="M93.6727 35.1175C93.8797 35.2767 94.0423 35.4609 94.1974 35.6617C94.3457 35.865 94.474 36.0863 94.5727 36.3237C94.6762 36.5587 94.7425 36.814 94.7747 37.0742C94.8138 37.3345 94.7928 37.6029 94.7452 37.8614C94.7195 38.0017 94.5847 38.0944 94.4444 38.0687C94.3156 38.045 94.2268 37.9295 94.2332 37.8021L94.2344 37.7773C94.2447 37.5645 94.2572 37.3541 94.2252 37.142C94.1939 36.9316 94.1514 36.7197 94.0778 36.5127C94.0051 36.3062 93.9191 36.1006 93.8156 35.9002C93.7173 35.6988 93.5966 35.4977 93.4784 35.3094L93.4722 35.2995C93.4319 35.2351 93.4512 35.1502 93.5156 35.11C93.5658 35.0787 93.6286 35.0837 93.6727 35.1175Z" fill="#FFAD7D"/>
<path d="M94.5945 35.4131C94.7836 35.5746 94.9228 35.7846 95.0322 36.0019C95.1369 36.222 95.2114 36.4529 95.2597 36.6862C95.3098 36.9192 95.3397 37.1544 95.3476 37.3897C95.3515 37.5073 95.3554 37.625 95.3501 37.7428L95.3386 37.9203L95.3296 38.0107L95.323 38.0581L95.3188 38.085L95.3156 38.1046L95.3126 38.1195L95.311 38.1269L95.3069 38.143C95.2947 38.1616 95.3128 38.1807 95.2247 38.2709C95.0718 38.4286 94.7843 38.2253 94.8291 38.1973C94.8068 38.1531 94.8075 38.1421 94.8038 38.1306C94.773 37.991 94.8613 37.8527 95.001 37.8221C95.1406 37.7913 95.2786 37.8796 95.3094 38.0192C95.3059 38.0073 95.3069 37.9958 95.2848 37.9514C95.3299 37.9229 95.0426 37.7191 94.8899 37.8766C94.802 37.9666 94.8204 37.9852 94.8085 38.0034L94.8048 38.0183L94.8041 38.0206L94.8029 38.0252C94.802 38.0307 94.8025 38.0257 94.8022 38.0238L94.8025 38.0089L94.8027 37.9723L94.8038 37.8946L94.8027 37.7354C94.8004 37.6287 94.8006 37.5218 94.7947 37.4148C94.7827 37.2014 94.7661 36.9888 94.7381 36.7795C94.6776 36.3612 94.5828 35.9566 94.3853 35.5891L94.3827 35.5845C94.3466 35.5171 94.3717 35.4334 94.4391 35.397C94.4908 35.3687 94.5525 35.3772 94.5945 35.4131Z" fill="#FFAD7D"/>
<path d="M96.067 36.6531C96.0442 36.7179 95.9939 36.8665 95.9637 36.9965L95.8563 37.4091C95.788 37.6894 95.7013 37.968 95.6171 38.2493C95.5304 38.5299 95.4281 38.807 95.314 39.0807C95.1962 39.3528 95.067 39.6219 94.9136 39.8788C94.8117 40.0492 94.5909 40.1049 94.4204 40.003C94.2617 39.9083 94.2026 39.7107 94.2769 39.5462L94.2783 39.543L94.6224 38.7808L94.9602 38.0064C95.0759 37.7469 95.1767 37.4801 95.296 37.2156C95.3549 37.0832 95.4124 36.9486 95.4782 36.8136C95.5123 36.746 95.5465 36.6784 95.5865 36.6082C95.6256 36.5388 95.67 36.4649 95.7475 36.3801C95.8234 36.2968 95.9525 36.2908 96.0357 36.3667C96.0981 36.4235 96.1172 36.51 96.0909 36.5848L96.067 36.6531Z" fill="#FFAD7D"/>
<path d="M98.4891 79.5072C98.4888 79.5063 98.4879 79.5059 98.4874 79.505L98.4957 79.502C98.4957 79.502 95.3321 67.5611 92.9732 62.9652C92.0189 61.1059 85.167 64.9202 85.167 64.9202C85.167 64.9202 88.9142 72.5981 90.1115 75.1448C91.8329 78.8064 92.3471 81.7445 92.3471 81.7445L92.3536 81.7422C92.5065 82.1115 93.9831 81.919 95.6681 81.3072C97.3637 80.6918 98.6266 79.8861 98.4891 79.5072Z" fill="#2B785C"/>
<path d="M99.8483 85.6757H90.5352V85.422C90.5352 85.2718 90.5533 85.1244 90.5894 84.9845C90.7654 84.2598 91.3684 83.6956 92.1348 83.5919C92.1348 83.5919 94.3946 83.2476 95.0234 82.6523C95.0234 82.6523 95.2019 82.0569 95.9604 82.9835C96.4004 83.5194 96.9984 83.527 97.3841 83.4987C98.6447 83.3824 98.8621 82.0336 98.8982 82.0208C98.8982 82.0208 99.2839 82.6756 99.5348 83.5919C99.6616 84.0551 99.7393 84.5781 99.7857 84.9845C99.8327 85.3884 99.8483 85.6757 99.8483 85.6757Z" fill="#3C87C4"/>
<path d="M99.8483 85.6755H90.5352V85.4218C90.5352 85.2716 90.5533 85.1242 90.5894 84.9844H99.786C99.8327 85.3883 99.8483 85.6755 99.8483 85.6755Z" fill="#10446E"/>
<path d="M94.4103 50.5871C94.4029 50.5871 94.3956 50.5858 94.3882 50.5828C94.3581 50.5706 94.3438 50.5363 94.3558 50.5064C94.3622 50.4905 95.0175 48.9061 96.4016 47.7844C97.4497 46.9354 98.5756 46.6035 99.0218 46.4987C99.0287 46.4941 99.0365 46.4913 99.0453 46.4902C99.0639 46.4874 99.1209 46.4803 99.1308 46.5357C99.1409 46.5911 99.089 46.6033 99.0581 46.6105C98.6269 46.7107 97.5123 47.0355 96.4752 47.8755C95.1143 48.9783 94.4706 50.5349 94.4643 50.5503C94.4556 50.5736 94.4335 50.5871 94.4103 50.5871Z" fill="#0C1729"/>
<path d="M105.538 52.5459C105.506 52.5459 105.48 52.5206 105.48 52.4884C105.474 52.1961 105.246 51.949 104.984 51.6629C104.636 51.2843 104.241 50.8549 104.241 50.1861C104.241 50.1537 104.267 50.1274 104.3 50.1274C104.332 50.1274 104.359 50.1537 104.359 50.1861C104.359 50.8094 104.736 51.2206 105.07 51.5836C105.337 51.8745 105.59 52.1494 105.597 52.4861C105.598 52.5185 105.572 52.5452 105.539 52.5459C105.539 52.5459 105.539 52.5459 105.538 52.5459Z" fill="#0C1729"/>
<path d="M99.4838 47.7816C99.4654 47.7816 99.4475 47.7731 99.436 47.757C99.0065 47.1489 97.7036 47.1931 97.446 47.2089C97.4142 47.2092 97.386 47.1859 97.3839 47.1537C97.382 47.1213 97.4069 47.0937 97.4391 47.0916C97.7066 47.0765 99.0668 47.0307 99.5316 47.6892C99.5503 47.7156 99.544 47.7522 99.5178 47.7708C99.5072 47.7782 99.4955 47.7816 99.4838 47.7816Z" fill="#0C1729"/>
<path d="M92.9371 40.1162C92.9311 40.1162 92.9249 40.1152 92.9189 40.1134C92.8881 40.1033 92.8713 40.0702 92.8814 40.0396C92.9672 39.7746 92.921 39.6631 92.8368 39.4609C92.8161 39.4117 92.794 39.3581 92.7715 39.2971C92.7223 39.1633 92.8205 38.9135 92.9447 38.5975C93.065 38.2916 93.2011 37.9452 93.1899 37.7097C93.191 37.6936 93.2619 37.0282 92.9863 36.6636C92.6984 36.2825 92.4497 35.9534 92.6181 35.6838C92.6349 35.6565 92.6712 35.6479 92.6988 35.6652C92.7264 35.6824 92.7347 35.7186 92.7174 35.7462C92.5978 35.9375 92.7775 36.1926 93.0797 36.593C93.3835 36.9953 93.3099 37.6844 93.3065 37.7133C93.3191 37.9647 93.1779 38.3238 93.0535 38.6405C92.9523 38.8983 92.8474 39.1649 92.8812 39.2569C92.9031 39.3162 92.9247 39.3682 92.9447 39.4163C93.0302 39.6217 93.0921 39.77 92.9925 40.0761C92.9849 40.1005 92.9617 40.1162 92.9371 40.1162Z" fill="#C74B4B"/>
<path d="M93.8572 37.5582C93.8556 37.5582 93.8537 37.5582 93.8521 37.5579C93.8197 37.5552 93.7958 37.5266 93.7987 37.4944C93.8896 36.441 92.6531 35.7727 92.6407 35.766C92.6119 35.7508 92.6011 35.7154 92.6161 35.6866C92.6313 35.6581 92.6669 35.6471 92.6954 35.6625C92.7493 35.691 94.0131 36.3746 93.9156 37.5046C93.9128 37.5352 93.8873 37.5582 93.8572 37.5582Z" fill="#C74B4B"/>
<path d="M94.3663 37.3151C94.365 37.3151 94.3633 37.3151 94.3617 37.3148C94.3293 37.3123 94.3054 37.284 94.3079 37.2518C94.3999 36.0613 93.2846 35.4951 93.1572 35.4346L93.2051 35.3274C93.3426 35.3927 94.523 35.9926 94.4248 37.2608C94.4225 37.2918 94.3967 37.3151 94.3663 37.3151Z" fill="#C74B4B"/>
<path d="M89.8456 39.1001C89.8401 39.1001 89.8341 39.0994 89.8286 39.0975C89.7976 39.0881 89.7801 39.0552 89.7895 39.0244C89.8153 38.9404 89.7056 38.6723 89.5993 38.4128C89.3999 37.9248 89.1733 37.3716 89.387 37.1207C90.0823 36.3046 90.2003 35.3823 90.2015 35.3731C90.2054 35.3412 90.2357 35.3173 90.2665 35.3219C90.2987 35.3258 90.3215 35.355 90.3178 35.3869C90.3132 35.4258 90.1957 36.3525 89.4765 37.1968C89.3093 37.3932 89.5395 37.9567 89.7081 38.3684C89.8516 38.7194 89.9379 38.9407 89.902 39.0587C89.8939 39.0837 89.8707 39.1001 89.8456 39.1001Z" fill="#C74B4B"/>
<path d="M94.4376 41.5384C94.4319 41.5384 94.4257 41.5374 94.4199 41.5356C94.3889 41.5257 94.3718 41.4928 94.3817 41.462C94.3905 41.4349 95.2428 38.7365 95.2371 37.2157C95.2313 35.7502 94.4277 35.4546 94.4194 35.4519C94.3888 35.4413 94.3728 35.4079 94.3831 35.3773C94.3939 35.3465 94.4266 35.3304 94.4574 35.3408C94.4937 35.3532 95.3482 35.6602 95.3544 37.2153C95.3604 38.7547 94.5022 41.4705 94.4937 41.4976C94.4854 41.5225 94.4627 41.5384 94.4376 41.5384Z" fill="#C74B4B"/>
<path d="M95.0364 68.1295C95.0118 68.1295 94.9886 68.1138 94.9805 68.0887C93.2024 62.552 91.628 62.0193 91.6122 62.0147C91.5811 62.0052 91.5634 61.9726 91.5728 61.9418C91.5823 61.9107 91.6152 61.893 91.6458 61.9024C91.7122 61.9224 93.2951 62.4577 95.0921 68.0529C95.102 68.0837 95.0849 68.1168 95.0541 68.1267C95.0484 68.1285 95.0422 68.1295 95.0364 68.1295Z" fill="#0C1729"/>
<path d="M93.5313 84.2109C93.506 84.2109 93.483 84.1946 93.4755 84.1695C93.2383 83.4059 92.7199 83.5435 92.6976 83.5499C92.6668 83.5591 92.6343 83.5407 92.6254 83.5097C92.6164 83.4786 92.6341 83.4464 92.6652 83.4372C92.6714 83.4358 93.2919 83.2642 93.5721 84.0879C93.9249 84.0407 96.1067 83.7318 96.54 83.2622C96.5621 83.2385 96.5991 83.2371 96.6228 83.2587C96.6467 83.2808 96.6481 83.3178 96.6262 83.3415C96.1278 83.8818 93.644 84.1971 93.5385 84.2102C93.5359 84.2107 93.5339 84.2109 93.5313 84.2109Z" fill="#0C1729"/>
<path d="M95.8551 83.7858C95.8349 83.7858 95.8151 83.7752 95.8043 83.7563C95.2948 82.8695 94.8673 82.8336 94.8629 82.8334C94.8307 82.8313 94.8061 82.8039 94.8077 82.7717C94.8093 82.7398 94.8348 82.7163 94.8682 82.7161C94.888 82.7168 95.359 82.7453 95.9059 83.6979C95.922 83.726 95.9124 83.7619 95.8843 83.778C95.8751 83.7833 95.865 83.7858 95.8551 83.7858Z" fill="#0C1729"/>
<path d="M95.0727 83.9417C95.0525 83.9417 95.0327 83.9311 95.0217 83.9123C94.7298 83.4031 94.463 83.2152 94.2634 83.108C94.2348 83.0928 94.224 83.0571 94.2394 83.0286C94.2544 82.9999 94.2905 82.9893 94.3188 83.0045C94.5325 83.1188 94.817 83.3187 95.1238 83.8536C95.1397 83.8817 95.13 83.9176 95.1019 83.9339C95.0927 83.9392 95.0826 83.9417 95.0727 83.9417Z" fill="#0C1729"/>
<path d="M94.2111 84.0675C94.1906 84.0675 94.1709 84.0569 94.16 84.0378C93.9744 83.7117 93.7803 83.4702 93.5827 83.3205C93.557 83.3009 93.5519 83.2641 93.5715 83.2384C93.591 83.2126 93.6281 83.2073 93.6536 83.2271C93.8638 83.3865 94.0685 83.6399 94.2619 83.9799C94.2778 84.0079 94.2679 84.0438 94.2399 84.0599C94.2309 84.065 94.221 84.0675 94.2111 84.0675Z" fill="#0C1729"/>
<path d="M71.1456 84.2425C71.1203 84.2425 71.0973 84.2262 71.0895 84.2011C70.8524 83.4373 70.3339 83.5744 70.3121 83.5813C70.281 83.5907 70.2486 83.5723 70.2396 83.541C70.2307 83.5099 70.2484 83.4778 70.2794 83.4686C70.2859 83.4669 70.9064 83.2958 71.1863 84.1194C71.5391 84.0723 73.7209 83.7634 74.1545 83.2938C74.1768 83.2698 74.2138 83.2687 74.2373 83.2903C74.261 83.3124 74.2626 83.3494 74.2407 83.3731C73.7423 83.9134 71.2585 84.2287 71.153 84.2418C71.1504 84.2423 71.1481 84.2425 71.1456 84.2425Z" fill="#0C1729"/>
<path d="M73.4703 83.8173C73.45 83.8173 73.4303 83.8068 73.4194 83.7879C72.9203 82.9192 72.5544 83.0379 72.5505 83.039C72.5201 83.051 72.4868 83.0344 72.4755 83.0045C72.4643 82.9746 72.4785 82.9415 72.5082 82.9295C72.5268 82.9226 72.965 82.7605 73.5211 83.7293C73.5372 83.7573 73.5275 83.7932 73.4995 83.8093C73.4903 83.8148 73.4802 83.8173 73.4703 83.8173Z" fill="#0C1729"/>
<path d="M72.6872 84.0236C72.667 84.0236 72.6472 84.013 72.6362 83.9941C72.359 83.5107 72.1106 83.3823 71.9289 83.2887L71.8776 83.2621C71.8491 83.2469 71.8383 83.2112 71.8537 83.1827C71.8689 83.154 71.9045 83.1431 71.9331 83.1588L71.9827 83.1845C72.1663 83.2793 72.4437 83.4226 72.7381 83.936C72.7539 83.964 72.7443 83.9999 72.7162 84.0162C72.7072 84.0213 72.6971 84.0236 72.6872 84.0236Z" fill="#0C1729"/>
<path d="M71.8256 84.0987C71.8054 84.0987 71.7854 84.0881 71.7746 84.069C71.5613 83.6944 71.401 83.5729 71.2462 83.4554L71.2331 83.4455C71.2074 83.426 71.2023 83.3892 71.2219 83.3634C71.2416 83.3377 71.2784 83.3328 71.304 83.3521L71.3171 83.362C71.4739 83.4809 71.6515 83.6155 71.8767 84.0111C71.8928 84.0391 71.8829 84.075 71.8546 84.0911C71.8456 84.0964 71.8355 84.0987 71.8256 84.0987Z" fill="#0C1729"/>
<path d="M93.7939 56.5072C93.7691 56.5072 93.7459 56.4913 93.738 56.466C93.7284 56.435 93.7456 56.4023 93.7764 56.3926C93.7994 56.3855 96.0698 55.6698 96.8164 54.8654C96.8384 54.842 96.8755 54.8406 96.8992 54.8625C96.9228 54.8845 96.924 54.9216 96.9021 54.9453C96.1344 55.7721 93.9062 56.4748 93.8114 56.5042C93.8054 56.5063 93.7997 56.5072 93.7939 56.5072Z" fill="#0C1729"/>
<path d="M89.4916 51.2084C89.4606 51.2084 89.4348 51.1845 89.433 51.1532C89.4263 51.0329 89.3835 50.9405 89.3065 50.8781C89.1377 50.741 88.8573 50.782 88.8545 50.7827C88.8221 50.7868 88.7927 50.7657 88.7878 50.7335C88.7828 50.7015 88.8049 50.6716 88.8371 50.6668C88.8509 50.6649 89.1715 50.618 89.3803 50.7873C89.484 50.8712 89.5411 50.9922 89.5501 51.1468C89.5519 51.1792 89.5271 51.2068 89.4949 51.2086C89.4939 51.2084 89.4928 51.2084 89.4916 51.2084Z" fill="#C74B4B"/>
<path d="M85.586 50.9925C85.5752 50.9925 85.5644 50.9895 85.5547 50.9836C85.5274 50.9663 85.5191 50.9302 85.5364 50.9026C85.5442 50.8899 85.7344 50.5928 86.0414 50.53C86.205 50.4964 86.3689 50.5353 86.5288 50.6459C86.5555 50.6643 86.5624 50.7009 86.5437 50.7276C86.5251 50.7545 86.4885 50.7609 86.4623 50.7425C86.3294 50.651 86.1964 50.6192 86.0649 50.6448C85.8064 50.6977 85.6371 50.9624 85.6355 50.9652C85.6244 50.9829 85.6053 50.9925 85.586 50.9925Z" fill="#C74B4B"/>
<path d="M92.6095 36.3537C92.463 36.3537 92.3774 36.2997 92.3063 36.2548L92.2868 36.2424C92.1525 36.1601 92.0393 36.1083 91.9558 36.0724C91.908 36.052 91.8673 36.0366 91.8346 36.0241C91.7513 35.9924 91.7097 35.9765 91.6996 35.9301C91.6927 35.8983 91.7129 35.8673 91.7444 35.8604C91.7688 35.8553 91.7932 35.8661 91.8063 35.8859C91.819 35.8928 91.8491 35.9043 91.8762 35.9144C91.9103 35.9273 91.9524 35.9434 92.0023 35.9646C92.0894 36.0021 92.2077 36.0561 92.3484 36.1426L92.3694 36.1557C92.4466 36.2045 92.5262 36.2555 92.6948 36.2298C92.7282 36.2263 92.7564 36.2475 92.7613 36.2792C92.7659 36.3112 92.744 36.3411 92.7118 36.3459C92.6743 36.3512 92.6405 36.3537 92.6095 36.3537Z" fill="#0C1729"/>
<path d="M92.1496 36.5305C92.0454 36.5363 91.9513 36.4024 91.9417 36.2334C91.9359 36.1512 91.9506 36.074 91.9794 36.0183C92.0675 36.0563 92.1829 36.1096 92.3179 36.1924L92.3198 36.2097C92.3317 36.3796 92.2538 36.5248 92.1496 36.5305Z" fill="#0C1729"/>
<path d="M90.1951 36.3461C90.1583 36.3461 90.1238 36.341 90.0946 36.3286C90.0647 36.3162 90.0507 36.2817 90.0631 36.252C90.0758 36.2221 90.1105 36.2078 90.1399 36.2207C90.2195 36.2534 90.432 36.186 90.544 36.1244C90.7085 36.034 90.8863 35.976 91.0544 35.924C91.0868 35.9144 91.1181 35.9321 91.1278 35.9627C91.1372 35.9937 91.12 36.0264 91.0889 36.036C90.9268 36.0859 90.7554 36.1421 90.6006 36.2272C90.5457 36.2573 90.3485 36.3461 90.1951 36.3461Z" fill="#0C1729"/>
<path d="M90.7067 36.5436C90.8098 36.5606 90.9179 36.4378 90.9457 36.2708C90.9602 36.1898 90.954 36.1114 90.9317 36.053C90.8399 36.081 90.7194 36.1217 90.5761 36.1894L90.5722 36.2064C90.5418 36.3738 90.6037 36.5265 90.7067 36.5436Z" fill="#0C1729"/>
<path d="M91.0721 35.2894C91.0831 35.2929 91.0891 35.2837 91.119 35.3117C91.1349 35.3163 91.1383 35.3835 91.1296 35.3856C91.1234 35.4017 91.1121 35.4141 91.1112 35.4159L91.0801 35.45L91.0401 35.4898C91.0146 35.5125 90.99 35.5319 90.9651 35.5491C90.9154 35.5834 90.866 35.6101 90.8165 35.6328C90.7156 35.68 90.6277 35.7094 90.5116 35.7492L90.4998 35.7531C90.466 35.7646 90.4292 35.7467 90.4175 35.7129C90.414 35.703 90.4133 35.6926 90.4147 35.683C90.4255 35.6048 90.4653 35.5348 90.5146 35.4826C90.5631 35.4284 90.6213 35.389 90.6804 35.3577C90.7399 35.3267 90.8025 35.3062 90.866 35.2963C90.8977 35.2913 90.9299 35.2892 90.961 35.2899C90.9768 35.2908 90.992 35.2917 91.0049 35.2943C91.01 35.297 91.0194 35.2952 91.0132 35.3053C91.0155 35.3051 91.0065 35.314 91.0022 35.3272C91.0017 35.3306 90.9976 35.34 90.9982 35.358C90.9987 35.3732 91.0102 35.3893 91.012 35.3906C91.0367 35.4127 91.0348 35.4019 91.039 35.4024C91.0079 35.3932 90.99 35.3607 90.9992 35.3297C91.0084 35.2982 91.0408 35.2805 91.0721 35.2894Z" fill="#5C2111"/>
<path d="M91.4708 38.3251C91.4383 38.3251 91.4121 38.2989 91.4121 38.2665C91.4121 38.2478 91.4158 37.8129 91.7261 37.729C92.0425 37.6429 92.2652 37.8518 92.3381 37.9741C92.3546 38.002 92.3457 38.0376 92.3178 38.0544C92.2905 38.0707 92.2544 38.0622 92.2373 38.0344C92.2307 38.0229 92.0653 37.7586 91.7564 37.8419C91.5354 37.9017 91.5292 38.2626 91.5292 38.2662C91.5294 38.2989 91.5032 38.3251 91.4708 38.3251Z" fill="#DE4949"/>
<path d="M91.269 37.4815C91.1657 37.4815 91.0742 37.4709 91.0468 37.4394C91.03 37.4198 91.0272 37.381 91.041 37.3591C91.0597 37.2896 91.0937 36.3837 91.11 35.831C91.111 35.7992 91.137 35.7742 91.1687 35.7742C91.1692 35.7742 91.1698 35.7742 91.1705 35.7742C91.203 35.7751 91.2283 35.8022 91.2273 35.8344C91.1961 36.9023 91.1712 37.2448 91.1553 37.36C91.2593 37.3724 91.5457 37.3566 91.5919 37.3368C91.6216 37.3239 91.6561 37.3375 91.6689 37.3672C91.682 37.3966 91.6689 37.4309 91.6395 37.4437C91.6096 37.4569 91.4256 37.4815 91.269 37.4815Z" fill="#C74B4B"/>
<path d="M102.911 44.7495C102.854 44.7495 102.786 44.7412 102.708 44.7169C102.39 44.6182 101.884 44.2484 101.279 43.0468C100.284 41.0698 98.015 41.0389 97.992 41.0389C97.9596 41.0387 97.9334 41.0125 97.9336 40.9801C97.9336 40.9476 97.9598 40.9216 97.9922 40.9216H97.9925C98.0162 40.9216 100.356 40.9534 101.384 42.9942C101.966 44.1499 102.439 44.5066 102.734 44.6021C102.928 44.6653 103.036 44.6111 103.041 44.609C103.069 44.5943 103.105 44.6049 103.12 44.6334C103.135 44.6617 103.125 44.6966 103.097 44.7123C103.093 44.7143 103.027 44.7495 102.911 44.7495Z" fill="#0C1729"/>
<path d="M99.0614 42.4181C99.0535 42.4181 99.0457 42.4165 99.0379 42.4133C99.008 42.4004 98.9947 42.3657 99.0075 42.336C99.0662 42.2015 99.0581 42.0931 98.9825 42.0053C98.7805 41.7707 98.1878 41.7525 98.1147 41.7723C98.0871 41.7886 98.0556 41.778 98.0386 41.7504C98.022 41.7226 98.0351 41.6846 98.0627 41.6679C98.1368 41.6235 98.7557 41.6462 99.0246 41.882C99.1265 41.9712 99.2249 42.1306 99.1147 42.3829C99.1055 42.405 99.0841 42.4181 99.0614 42.4181Z" fill="#0C1729"/>
<path d="M98.3836 39.4889C97.8355 39.4889 97.4116 38.8681 97.3937 38.8417C97.3757 38.8148 97.3829 38.7784 97.4096 38.7602C97.4365 38.7421 97.4728 38.7494 97.491 38.7761C97.4949 38.7821 97.8981 39.3716 98.3834 39.3716C98.488 39.3716 98.5644 39.3435 98.6097 39.2886C98.6856 39.197 98.6594 39.054 98.6591 39.0526C98.6543 39.028 98.6658 39.0029 98.6874 38.9905C98.7093 38.9778 98.7367 38.9804 98.7553 38.9971C98.7592 39.0006 99.1435 39.3318 99.4936 39.28C99.644 39.258 99.7703 39.1671 99.8689 39.01C99.886 38.9822 99.9225 38.9741 99.9499 38.9914C99.9773 39.0086 99.9856 39.0448 99.9683 39.0721C99.8505 39.26 99.6964 39.3688 99.5101 39.396C99.2208 39.4392 98.9276 39.2683 98.7785 39.163C98.7723 39.2253 98.7523 39.2996 98.701 39.3622C98.6322 39.4463 98.5255 39.4889 98.3836 39.4889Z" fill="#0C1729"/>
<path d="M92.1305 34.0958C92.1086 34.0958 92.0879 34.0837 92.0778 34.063C91.9732 33.8479 91.9833 33.6 92.104 33.416C92.1986 33.272 92.3481 33.1933 92.5003 33.197C92.6818 33.2051 92.8072 33.3173 92.8867 33.4254C92.9017 33.2271 92.953 32.9452 93.1135 32.7796C93.2046 32.6859 93.3256 32.6411 93.4532 32.6434C93.5487 32.6457 93.6287 32.6832 93.6913 32.7547C93.8895 32.9815 93.8364 33.4882 93.8341 33.5096C93.8304 33.5415 93.8008 33.565 93.7695 33.5616C93.737 33.5581 93.714 33.5291 93.7173 33.4969C93.7179 33.4923 93.7674 33.0199 93.6027 32.8318C93.562 32.7855 93.5126 32.7621 93.4505 32.7607C93.344 32.7561 93.2655 32.7913 93.1977 32.8614C92.9718 33.094 92.9987 33.6379 92.9992 33.6432C93.0008 33.6722 92.9806 33.6982 92.9521 33.7039C92.9242 33.7099 92.895 33.6936 92.8854 33.666C92.884 33.6625 92.7628 33.3263 92.495 33.3145C92.3876 33.306 92.2738 33.3716 92.2025 33.4806C92.104 33.6303 92.0969 33.8341 92.1836 34.0119C92.1979 34.0409 92.1857 34.0761 92.1565 34.0903C92.148 34.0938 92.1392 34.0958 92.1305 34.0958Z" fill="#0C1729"/>
<path d="M104.226 42.3958C104.508 42.6088 104.643 42.9055 104.527 43.0584C104.412 43.2114 104.09 43.1628 103.808 42.9498C103.526 42.7369 103.391 42.4402 103.506 42.2872C103.622 42.1343 103.944 42.1828 104.226 42.3958Z" fill="#7A3B2B"/>
<path d="M96.4129 33.4732C96.5895 33.1671 96.8674 32.9969 97.0334 33.0926C97.1995 33.1885 97.1907 33.5141 97.0141 33.8203C96.8375 34.1264 96.5596 34.2966 96.3936 34.2009C96.2275 34.105 96.236 33.7793 96.4129 33.4732Z" fill="#7A3B2B"/>
<path d="M92.9777 32.0288C93.1383 31.8243 93.3584 31.7291 93.4695 31.8163C93.5806 31.9034 93.5403 32.1399 93.3795 32.3443C93.219 32.5488 92.9989 32.644 92.8878 32.5569C92.7769 32.4699 92.8172 32.2335 92.9777 32.0288Z" fill="#7A3B2B"/>
<path d="M72.2828 53.8484H71.752V85.6758H72.2828V53.8484Z" fill="#193847"/>
<path d="M43.6677 74.2693H24.9521V85.6543H43.6677V74.2693Z" fill="#C9856F"/>
<path d="M43.1089 65.3848H29.6826V73.1868H43.1089V65.3848Z" fill="#64A0BA"/>
<path d="M44.4636 73.1868H24.1562V75.3522H44.4636V73.1868Z" fill="#FFC9B8"/>
<path d="M43.6795 64.4817H29.1113V66.2874H43.6795V64.4817Z" fill="#A1D6F0"/>
<path d="M37.4973 68.1641H35.2941C35.0146 68.1641 34.7881 67.9375 34.7881 67.6581C34.7881 67.3786 35.0146 67.1521 35.2941 67.1521H37.4973C37.7767 67.1521 38.0033 67.3786 38.0033 67.6581C38.0033 67.9378 37.7767 68.1641 37.4973 68.1641Z" fill="#0C1729"/>
<path d="M35.9984 78.4149H32.6213C32.193 78.4149 31.8457 78.0676 31.8457 77.6393C31.8457 77.2111 32.193 76.8638 32.6213 76.8638H35.9984C36.4266 76.8638 36.7739 77.2111 36.7739 77.6393C36.7739 78.0676 36.4266 78.4149 35.9984 78.4149Z" fill="#0C1729"/>
<path d="M29.6826 66.2874C29.8864 66.2874 43.1089 66.9751 43.1089 66.9751V66.2874H29.6826Z" fill="#0C1729"/>
<path d="M24.9521 75.3523C25.236 75.3523 43.6677 76.04 43.6677 76.04V75.3523H24.9521Z" fill="#0C1729"/>
</g>
<defs>
<clipPath id="clip0_886_55503">
<rect width="142.6" height="92" fill="white" transform="translate(0.400391)"/>
</clipPath>
</defs>
</svg>
