<svg width="103" height="92" viewBox="0 0 103 92" fill="none" xmlns="http://www.w3.org/2000/svg">
<path fill-rule="evenodd" clip-rule="evenodd" d="M29.5203 43.0643C29.5203 43.0643 25.8349 5.96919 48.5342 0.00328755C71.2334 5.96919 67.548 43.0643 67.548 43.0643H29.5203Z" fill="#BDA675"/>
<path fill-rule="evenodd" clip-rule="evenodd" d="M32.94 39.9336C32.94 39.9336 30.7468 8.89562 48.3297 3.34135C66.1174 8.33229 64.2097 39.9336 64.2097 39.9336H32.94Z" fill="#E2D4B1"/>
<path fill-rule="evenodd" clip-rule="evenodd" d="M33.8354 24.8411C36.1031 26.2236 38.7907 28.1713 41.9008 30.9112C48.5898 36.8041 57.2716 36.3733 64.1422 32.9689C64.3825 37.0876 64.2107 39.9336 64.2107 39.9336H32.9409C32.9409 39.9336 32.4402 32.848 33.8354 24.8411Z" fill="#E9DEC1"/>
<path d="M85.5535 59.4556H62.3691V65.5778H85.5535V59.4556Z" fill="#BDA675"/>
<path d="M85.5535 65.5779H62.3691V67.9843H85.5535V65.5779Z" fill="#A38A54"/>
<path d="M85.5534 65.5779H82.9482V91.5386H85.5534V65.5779Z" fill="#A38A54"/>
<path d="M64.9743 65.5779H62.3691V91.5386H64.9743V65.5779Z" fill="#8A723F"/>
<path fill-rule="evenodd" clip-rule="evenodd" d="M72.988 31.4463C72.988 31.4463 65.0946 42.6315 63.6045 45.6194C61.4918 49.856 67.0693 52.8763 69.4301 47.9128C71.791 42.9493 72.988 31.4463 72.988 31.4463Z" fill="#A5743F"/>
<path fill-rule="evenodd" clip-rule="evenodd" d="M63.1396 47.2978C63.1655 46.7739 63.3105 46.2084 63.6042 45.6196C65.0942 42.6317 72.9877 31.4465 72.9877 31.4465C72.9877 31.4465 72.7787 33.4555 72.3628 36.1572C71.3776 38.1072 70.4267 40.2963 70.1165 41.9856C69.3933 45.9232 68.5202 45.6096 68.5202 45.6096C68.5202 45.6096 68.0997 43.9532 67.0046 44.4653C66.1147 44.8815 64.2343 45.2711 63.1396 47.2978Z" fill="#B4824C"/>
<path fill-rule="evenodd" clip-rule="evenodd" d="M72.9391 31.8921L72.3059 32.4188C71.6701 33.3273 70.6531 34.7873 69.5289 36.4272C69.1036 37.0477 68.5629 38.3367 68.5061 40.5918C68.3843 45.4296 68.1887 49.1802 65.6445 50.4567C66.9451 50.6451 68.4598 49.9541 69.4305 47.9131C71.5145 43.5318 72.6916 34.0551 72.9391 31.8921Z" fill="#8F673C"/>
<path fill-rule="evenodd" clip-rule="evenodd" d="M72.9394 31.892C72.9259 32.009 72.9122 32.1261 72.8984 32.2431L72.8822 32.3795L72.8817 32.3829L72.8651 32.5206L72.8623 32.5441L72.8468 32.6704L72.842 32.709L72.8272 32.8288L72.8208 32.8795L72.8063 32.9953L72.7986 33.0564L72.7842 33.1699L72.7752 33.24L72.7609 33.3521L72.7464 33.4634L72.7435 33.4858L72.7214 33.6546L72.7182 33.6782L72.6949 33.8534L72.6908 33.8838L72.6834 33.9391L72.6771 33.9862L72.6689 34.0466L72.663 34.09L72.6542 34.155L72.6487 34.195L72.6391 34.2648L72.6342 34.301L72.6239 34.3757L72.6194 34.4077L72.6083 34.4881L72.6046 34.5149L72.5925 34.6018L72.5897 34.6216L72.5763 34.7168L72.5749 34.7264C72.5119 35.1729 72.4416 35.6521 72.3642 36.1555L72.364 36.157C71.3788 38.107 70.4278 40.2962 70.1176 41.9854C69.3945 45.9231 68.5213 45.6094 68.5213 45.6094C68.5213 45.6094 68.4461 45.313 68.2764 45.0098C68.4172 43.6912 68.4659 42.2016 68.5064 40.5916C68.5632 38.3365 69.1039 37.0475 69.5292 36.427L69.7343 36.1281L69.7446 36.1131L69.9373 35.8326L69.9535 35.8093L70.1382 35.5409L70.1566 35.5142L70.3372 35.2522L70.3543 35.2272L70.535 34.9656L70.547 34.9483L70.734 34.6779L70.7342 34.6775C71.3624 33.7696 71.9087 32.9864 72.3061 32.4186L72.9393 31.8918H72.9394V31.892Z" fill="#A5743F"/>
<path fill-rule="evenodd" clip-rule="evenodd" d="M59.6266 79.6477L59.8384 87.8063C59.8384 87.8063 58.7178 89.26 57.6935 89.7781C56.6692 90.2963 55.7898 90.6985 55.7898 90.6985C55.7898 90.6985 55.0134 90.5741 54.8035 91.1264C54.6049 91.6491 55.1178 91.9756 55.1178 91.9756L62.3723 91.8922C62.3723 91.8922 64.5717 91.1388 64.0176 88.3415C63.5681 86.0716 65.3244 79.6477 65.3244 79.6477H59.6266Z" fill="#C2915A"/>
<path fill-rule="evenodd" clip-rule="evenodd" d="M70.2512 78.3586L70.9773 87.3702C70.9773 87.3702 69.8272 88.976 68.7271 89.5483C67.627 90.1207 66.6799 90.5649 66.6799 90.5649C66.6799 90.5649 65.8148 90.4275 65.6162 91.0375C65.4284 91.6149 66.0146 91.9756 66.0146 91.9756L74.0227 91.8835C74.0227 91.8835 76.4064 91.0513 75.6257 87.9614C74.9921 85.4542 76.5446 78.3587 76.5446 78.3587L70.2512 78.3586Z" fill="#DDA76C"/>
<path fill-rule="evenodd" clip-rule="evenodd" d="M80.6451 29.5481C80.6451 29.5481 78.6477 31.4948 75.2746 31.7898C73.6504 31.9318 73.4917 30.8945 73.4917 30.8945C73.4917 30.8945 71.883 32.4219 71.1765 33.3072C70.4699 34.1925 68.8505 37.6227 68.7855 40.9848C68.7383 43.4272 68.883 46.8402 67.0212 50.4297C64.7509 54.8068 59.4722 54.7553 58.1563 61.8005C57.5357 65.1231 57.6706 81.3944 57.6706 81.3944L76.2786 81.8903C76.2786 81.8903 79.279 65.609 80.8078 64.9843C85.9156 62.8968 87.115 59.6497 87.2147 53.6281C87.3063 48.1001 87.4307 45.2621 87.2439 42.9632C86.8538 38.1621 85.8317 35.5202 84.471 33.5985C83.1103 31.6769 81.4013 30.5083 80.6451 29.5481Z" fill="#835C31"/>
<path fill-rule="evenodd" clip-rule="evenodd" d="M68.5381 45.6134C68.7896 43.8738 68.7601 42.2907 68.7852 40.985C68.8503 37.6229 70.4697 34.1927 71.1763 33.3075C71.8828 32.4221 73.4915 30.8948 73.4915 30.8948C73.4915 30.8948 73.6176 31.719 74.7954 31.7974C73.8808 33.2965 70.7335 38.6284 70.1169 41.9856C69.4538 45.5964 68.6646 45.6323 68.5381 45.6134Z" fill="#926A3E"/>
<path fill-rule="evenodd" clip-rule="evenodd" d="M60.4093 83.4309L55.9814 83.2392C55.9814 83.2392 57.5356 65.1232 58.1562 61.8005C59.4721 54.7553 64.7507 54.8068 67.021 50.4297C68.8828 46.8402 68.7382 43.4272 68.7853 40.9848C68.8504 37.6227 70.4698 34.1925 71.1764 33.3072C71.8829 32.4219 73.4916 30.8945 73.4916 30.8945C73.4916 30.8945 73.5399 31.2104 73.8562 31.4697C73.0261 32.6752 71.413 34.0535 70.6609 38.5889C69.4541 45.8665 71.198 52.2034 68.631 54.3114C66.0641 56.4195 63.5833 56.0672 62.7612 62.238C62.1653 66.7113 60.953 78.1332 60.4093 83.4309Z" fill="#A5743F"/>
<path fill-rule="evenodd" clip-rule="evenodd" d="M68.5381 45.6134C68.7896 43.8738 68.7601 42.2907 68.7852 40.985C68.8503 37.6229 70.4697 34.1927 71.1763 33.3075C71.8828 32.4221 73.4915 30.8948 73.4915 30.8948C73.4915 30.8948 73.5399 31.2107 73.8562 31.4699C73.026 32.6754 71.4129 34.0537 70.6608 38.5891C70.5266 39.3984 70.4289 40.1961 70.3577 40.9782C70.2573 41.3282 70.1756 41.6658 70.1169 41.9856C69.4538 45.5964 68.6646 45.6323 68.5381 45.6134Z" fill="#B4824C"/>
<path fill-rule="evenodd" clip-rule="evenodd" d="M77.581 31.2998C76.9898 33.6119 76.374 37.9185 77.2374 44.5538C78.6279 55.2419 76.872 54.877 75.0722 56.4977C73.2725 58.1185 72.6422 58.6195 71.4409 63.7058C70.4637 67.8435 68.8818 79.7661 68.248 83.6644L78.929 83.3557C78.929 83.3557 79.2783 65.6091 80.8071 64.9844C85.9149 62.8969 87.1143 59.6497 87.214 53.6281C87.3056 48.1001 87.43 45.2621 87.2432 42.9632C86.8531 38.1621 85.831 35.5203 84.4703 33.5986C83.1096 31.6769 81.4006 30.5083 80.6444 29.5481C80.6444 29.5481 79.5379 30.6266 77.581 31.2998Z" fill="#A5743F"/>
<path fill-rule="evenodd" clip-rule="evenodd" d="M83.6812 32.8123C83.6812 32.8123 86.4383 35.5757 87.7738 39.6595C89.1093 43.7433 91.0476 49.3796 88.8511 50.7775C86.6547 52.1754 83.7787 49.1429 82.5758 43.6758C81.3728 38.2087 80.3492 33.5215 83.6812 32.8123Z" fill="#A5743F"/>
<path fill-rule="evenodd" clip-rule="evenodd" d="M96.8916 38.6009C96.8916 38.6009 98.8493 38.1978 99.4197 38.0439C100.371 37.7873 99.9125 37.1909 99.9125 37.1909L96.5039 37.629L96.8916 38.6009Z" fill="#C2915A"/>
<path fill-rule="evenodd" clip-rule="evenodd" d="M93.905 39.8622C93.905 39.8622 94.4225 37.9554 95.1683 37.8152L95.9142 37.675C95.9142 37.675 96.6447 37.5093 97.1999 37.7036C97.7552 37.8979 99.3378 38.9022 99.3378 38.9022C99.3378 38.9022 100.797 38.2039 101.815 37.9302C102.834 37.6566 103 38.2923 103 38.2923C103 38.2923 102.233 39.0969 100.815 40.1645C99.3979 41.2321 96.2188 40.1616 96.2188 40.1616C96.2188 40.1616 94.8699 43.1037 92.8863 45.4616C90.9028 47.8195 90.3965 43.6722 90.3965 43.6722L93.905 39.8622Z" fill="#DDA76C"/>
<path fill-rule="evenodd" clip-rule="evenodd" d="M86.6154 50.4629C86.6154 50.4629 87.9089 52.4082 91.4746 49.1805C95.0404 45.953 96.5098 44.0842 96.5098 44.0842C96.5098 44.0842 95.2765 40.4751 94.2837 38.4399C94.2837 38.4399 88.347 45.1775 85.2879 45.8805C85.2879 45.8805 85.2099 49.1964 86.6154 50.4629Z" fill="#A5743F"/>
<path fill-rule="evenodd" clip-rule="evenodd" d="M87.2555 51.3956L87.2588 51.226L87.2623 51.0473C86.4681 50.9483 84.9416 50.3667 83.4427 47.6239C81.6305 44.308 80.1971 39.338 80.1971 39.338C80.1709 39.247 80.0756 39.1943 79.9845 39.2206C79.8935 39.2469 79.8408 39.3422 79.8671 39.4332C79.8671 39.4332 81.3138 44.4447 83.1413 47.7886C84.7285 50.6929 86.3744 51.3011 87.2555 51.3956Z" fill="#8F673C"/>
<path fill-rule="evenodd" clip-rule="evenodd" d="M88.9099 43.2473C88.942 43.3574 88.9736 43.4675 89.0048 43.5776C88.4629 43.7756 87.4523 44.3159 87.0784 45.661C87.0531 45.7523 86.9583 45.8058 86.867 45.7804C86.7757 45.7551 86.7221 45.6603 86.7475 45.569C87.1664 44.0621 88.305 43.4641 88.9099 43.2473Z" fill="#8F673C"/>
<path fill-rule="evenodd" clip-rule="evenodd" d="M63.5486 45.9087C63.5486 45.9087 61.1741 49.4318 63.6699 51.6789C65.4282 53.2622 74.1843 52.5333 74.1843 52.5333C74.1843 52.5333 73.1191 50.3269 69.8203 48.703C66.7136 47.1735 63.5486 45.9087 63.5486 45.9087Z" fill="#A5743F"/>
<path fill-rule="evenodd" clip-rule="evenodd" d="M62.5293 48.9815C62.5747 47.3527 63.5479 45.9087 63.5479 45.9087C63.5479 45.9087 63.723 45.9787 64.0313 46.1056C63.3899 46.7345 62.8283 47.6359 62.5294 48.9813L62.5293 48.9815Z" fill="#B4824C"/>
<path fill-rule="evenodd" clip-rule="evenodd" d="M65.0567 47.0033C65.0567 47.0033 67.7813 47.5906 69.9932 48.8707C70.415 49.1148 70.5454 49.0151 70.2235 48.777C67.9503 47.0953 65.1502 46.6728 65.1502 46.6728C65.0589 46.647 64.964 46.7001 64.9381 46.7913C64.9124 46.8825 64.9655 46.9775 65.0567 47.0033Z" fill="#8F673C"/>
<path fill-rule="evenodd" clip-rule="evenodd" d="M74.8926 50.6052L77.0518 49.959C77.0518 49.959 77.3888 50.381 77.033 50.8221C76.677 51.2631 75.325 51.525 75.325 51.525L74.8926 50.6052Z" fill="#C2915A"/>
<path fill-rule="evenodd" clip-rule="evenodd" d="M70.7725 52.6617C70.7725 52.6617 70.957 51.2203 72.7662 50.8403C72.7662 50.8403 74.4203 50.4204 75.1357 50.5591C75.851 50.6979 78.0938 52.6176 78.0938 52.6176L70.7725 52.6617Z" fill="#DDA76C"/>
<path fill-rule="evenodd" clip-rule="evenodd" d="M76.4257 52.6273L76.8359 52.6249L75.0987 51.4715C75.0461 51.4365 74.9749 51.4509 74.94 51.5036C74.9051 51.5562 74.9194 51.6273 74.972 51.6623L76.4257 52.6273Z" fill="#C2915A"/>
<path fill-rule="evenodd" clip-rule="evenodd" d="M71.2981 20.1459C71.2981 20.1459 70.4062 19.789 70.1302 18.9138C69.8542 18.0385 70.1413 16.8364 70.6206 16.3301C71.1 15.8238 72.2682 14.484 74.4002 14.3835C76.5321 14.283 78.5764 14.5145 80.2651 15.7205C81.9539 16.9265 81.69 20.7849 80.5321 22.1179C80.5321 22.1179 79.9048 22.4389 80.0443 23.6498C80.1535 24.5969 80.283 25.743 80.3324 26.1282C80.4346 26.926 80.2261 27.5948 79.8772 28.2297C79.5283 28.8646 78.5999 30.5992 75.1458 30.7615C71.6917 30.9239 71.2698 28.9382 71.2676 28.0292C71.2654 27.1202 71.9349 24.9136 71.9349 24.9136L71.2981 20.1459Z" fill="#E6CCB0"/>
<path fill-rule="evenodd" clip-rule="evenodd" d="M73.111 30.5403C71.5098 30.0135 71.2693 28.715 71.2676 28.0292C71.2654 27.1201 71.9349 24.9135 71.9349 24.9135L71.2981 20.1459C71.2981 20.1459 70.4062 19.789 70.1302 18.9138C69.8542 18.0385 70.1413 16.8364 70.6206 16.3301C71.1 15.8238 72.2682 14.484 74.4002 14.3835C74.7622 14.3664 75.1216 14.3589 75.4773 14.3642C74.0266 14.798 72.493 15.7228 72.6314 17.6938C72.8895 21.3663 71.869 23.8237 72.973 26.3577C72.973 26.3577 72.0291 29.2296 73.111 30.5403Z" fill="#EDD8C1"/>
<path fill-rule="evenodd" clip-rule="evenodd" d="M70.9854 19.1187C70.9854 19.1187 71.1457 20.2369 71.2717 21.5505C71.3485 22.3505 71.3527 23.1746 71.4738 24.0029C71.7939 26.1912 73.2233 26.6059 73.8843 26.6267C74.8078 26.6559 78.0695 25.2196 78.7176 23.4579C78.7176 23.4579 78.8897 23.025 79.1454 23.0791C79.4884 23.1515 80.5877 22.7336 80.734 21.9847C80.8807 21.2336 80.5238 20.5159 80.3446 20.6104C79.7277 20.9357 78.5509 22.5348 78.4257 21.4935C78.2206 19.7872 78.4302 18.0765 77.1683 17.4776C76.1134 16.9769 75.6223 17.6416 74.2908 17.6733C73.2173 17.6988 72.87 17.4944 72.1291 17.6886C71.0231 17.9785 70.9854 19.1187 70.9854 19.1187Z" fill="#DDA76C"/>
<path fill-rule="evenodd" clip-rule="evenodd" d="M72.6266 17.6079C72.6279 17.636 72.6296 17.6648 72.6316 17.6938C72.8897 21.3663 71.8692 23.8237 72.9732 26.3577C72.9732 26.3577 72.9698 26.3684 72.9635 26.3887C72.3408 26.0803 71.6791 25.4064 71.4738 24.0028C71.3527 23.1745 71.3485 22.3504 71.2717 21.5504C71.1457 20.2369 70.9854 19.1186 70.9854 19.1186C70.9854 19.1186 71.0231 17.9784 72.129 17.6885C72.3135 17.6402 72.4736 17.6166 72.6266 17.6079Z" fill="#E7B57E"/>
<path fill-rule="evenodd" clip-rule="evenodd" d="M72.1062 26.4895C72.1062 26.4895 72.0511 24.8277 72.9036 24.7704C73.756 24.713 74.846 24.5044 75.3017 25.055C75.6825 25.5148 76.014 26.4284 76.014 26.4284L76.6455 26.0601C76.6455 26.0601 75.9053 24.8195 75.5332 24.4266C75.1612 24.0336 74.8156 23.8757 74.544 23.8505C74.2724 23.8254 72.9175 23.7991 72.4898 24.1144C72.2188 24.314 71.9117 24.9578 71.6865 26.0883L72.1062 26.4895Z" fill="#E6CCB0"/>
<path fill-rule="evenodd" clip-rule="evenodd" d="M72.4653 24.1335C72.4811 24.3968 72.5085 24.657 72.5511 24.9155C72.0677 25.3313 72.1061 26.4897 72.1061 26.4897L71.6865 26.0883C71.905 24.9917 72.2005 24.3531 72.4653 24.1335Z" fill="#EDD8C1"/>
<path fill-rule="evenodd" clip-rule="evenodd" d="M45.1855 51.6223V48.3061H62.2495C62.4928 48.2952 62.7433 48.2944 62.9999 48.3061H63.6151V48.3546C65.6226 48.5827 66.4367 49.3959 66.4367 49.3959V51.6222L45.1855 51.6223Z" fill="#E7D3A8"/>
<path fill-rule="evenodd" clip-rule="evenodd" d="M45.1855 49.3969V48.3066H62.2495C62.4928 48.2956 62.7433 48.2949 62.9999 48.3066H63.6151C65.6226 48.5348 66.4367 49.3964 66.4367 49.3964V49.3969H45.1855Z" fill="#F2E5CA"/>
<path fill-rule="evenodd" clip-rule="evenodd" d="M41.2637 51.6222V49.2525C41.2637 49.2525 43.507 47.952 46.3707 48.485C48.5428 48.8892 49.2805 49.4025 49.2805 49.4025C49.2805 49.4025 51.296 48.1849 53.9572 48.3061C56.4151 48.418 57.3941 49.3959 57.3941 49.3959V51.6223H41.2637V51.6222Z" fill="#D7C399"/>
<path fill-rule="evenodd" clip-rule="evenodd" d="M49.4214 49.3242V51.6227H49.1865V49.3465C49.2509 49.3825 49.2804 49.4029 49.2804 49.4029C49.2804 49.4029 49.3291 49.3735 49.4214 49.3242Z" fill="#C4AF85"/>
<path d="M67.3419 51.5093H40.459V52.6635H67.3419V51.5093Z" fill="#A38A54"/>
<path d="M67.3418 51.5093H58.1465V52.6635H67.3418V51.5093Z" fill="#BDA675"/>
<path d="M35.8375 52.4937H32.8711V91.976H35.8375V52.4937Z" fill="#8A723F"/>
<path d="M68.017 52.4937H66.0059V91.976H68.017V52.4937Z" fill="#8A723F"/>
<path d="M94.5387 52.4937H33.5381V56.1693H94.5387V52.4937Z" fill="#8A723F"/>
<path d="M94.5387 52.4937H91.5723V91.976H94.5387V52.4937Z" fill="#A38A54"/>
<path d="M70.2601 52.4937H68.0176V91.976H70.2601V52.4937Z" fill="#A38A54"/>
<path d="M94.5392 52.4937H68.0176V56.1693H94.5392V52.4937Z" fill="#A38A54"/>
<path d="M24.7205 59.4556H1.53613V65.5778H24.7205V59.4556Z" fill="#BDA675"/>
<path d="M24.7205 65.5779H1.53613V67.9843H24.7205V65.5779Z" fill="#A38A54"/>
<path d="M4.14132 65.5779H1.53613V91.5386H4.14132V65.5779Z" fill="#A38A54"/>
<path d="M24.7204 65.5779H22.1152V91.5386H24.7204V65.5779Z" fill="#8A723F"/>
<path fill-rule="evenodd" clip-rule="evenodd" d="M13.5757 79.33C13.5757 79.33 13.7264 85.1343 13.7896 86.3911C13.8528 87.6479 13.5584 88.6462 13.2548 89.6094C12.9512 90.5726 13.3871 91.3603 14.2277 91.7063C15.0684 92.0523 22.6957 91.9967 22.6957 91.9967C22.6957 91.9967 23.6448 91.0876 22.6112 90.5864C21.5777 90.0851 21.2915 90.7597 19.6123 89.3138C17.9331 87.8679 17.1468 86.9067 17.1468 86.9067L17.7767 78.6884C17.7767 78.6884 14.3758 76.8925 13.5757 79.33Z" fill="#DDA76C"/>
<path fill-rule="evenodd" clip-rule="evenodd" d="M24.2583 79.33C24.2583 79.33 24.409 85.1343 24.4722 86.3911C24.5354 87.6479 24.241 88.6462 23.9374 89.6094C23.6338 90.5726 24.0697 91.3603 24.9103 91.7063C25.751 92.0523 33.3783 91.9967 33.3783 91.9967C33.3783 91.9967 34.3273 91.0876 33.2938 90.5864C32.2603 90.0851 31.9741 90.7597 30.2949 89.3138C28.6158 87.8679 27.8294 86.9067 27.8294 86.9067L28.4593 78.6884C28.4593 78.6884 25.0584 76.8925 24.2583 79.33Z" fill="#DDA76C"/>
<path fill-rule="evenodd" clip-rule="evenodd" d="M21.3242 58.7992C20.2026 57.9996 17.2349 52.1104 15.6887 47.9037C12.5193 39.2812 16.5979 36.013 17.9758 38.6074C19.0025 40.5404 20.0877 44.8442 20.4293 45.4894C20.4293 45.4894 24.5073 61.068 21.3242 58.7992Z" fill="#D1C099"/>
<path fill-rule="evenodd" clip-rule="evenodd" d="M14.9914 39.3438C16.2633 38.0923 17.4966 37.705 17.9757 38.6071L17.9923 38.6386L17.9962 38.646L18.0126 38.6775L18.0146 38.6813L18.0271 38.7056L18.0442 38.7393L18.0491 38.749L18.0709 38.7925L18.0763 38.8035L18.093 38.8373L18.1003 38.8522L18.1161 38.8847L18.1226 38.8982L18.1445 38.944L18.1462 38.9476L18.1664 38.9906L18.1734 39.0055L18.1889 39.0388L18.1961 39.0546L18.2134 39.0925L18.2181 39.1027L18.2398 39.1507L18.2459 39.1644L18.2619 39.2001L18.2695 39.2173L18.2849 39.2521L18.2918 39.2679L18.3132 39.3171L18.3174 39.3267L18.3351 39.3677L18.343 39.3863L18.3572 39.4197L18.3654 39.4392L18.3811 39.4764L18.3873 39.4912L18.408 39.5409L18.4165 39.5615L18.4296 39.5933L18.4392 39.6168L18.4515 39.6469L18.4611 39.6705L18.4775 39.711L18.4809 39.7196L18.491 39.7447L18.5019 39.7719L18.5135 39.8012L18.5228 39.8247L18.5352 39.8559L18.5426 39.8749L18.5553 39.9072L18.5738 39.9548C18.6906 42.009 19.1127 48.9262 19.417 54.3869C19.4366 54.7404 19.6921 54.8907 19.6921 54.8907L22.5184 56.5409L22.5208 56.5844L22.523 56.6267L22.523 56.6281L22.5252 56.6707C22.5258 56.6849 22.5265 56.6992 22.5272 56.7135L22.5288 56.7512L22.5291 56.7587L22.5307 56.798C22.5312 56.812 22.5317 56.826 22.5322 56.8399L22.5334 56.8755L22.5338 56.8866L22.5349 56.9227C22.5352 56.9364 22.5356 56.9501 22.536 56.9637L22.5368 56.9985L22.5371 57.0117L22.5377 57.0447L22.5383 57.0795L22.5384 57.0854L22.5388 57.1193L22.5389 57.1343C22.5436 57.618 22.5138 58.0308 22.4405 58.3461L22.4404 58.3467L22.4344 58.372C22.4323 58.3803 22.4302 58.3887 22.4281 58.397L22.4218 58.421L22.4214 58.4225L22.4149 58.4459C22.4126 58.4537 22.4104 58.4617 22.408 58.4696L22.4011 58.4925L22.4007 58.4938L22.3941 58.5147L22.3934 58.5166L22.3862 58.5383L22.3785 58.5602L22.3785 58.5603L22.3711 58.5804L22.3701 58.583L22.3628 58.6021L22.3624 58.6031L22.3593 58.611L22.3571 58.6164L22.3543 58.6233L22.3522 58.6284L22.3496 58.6344L22.3465 58.6417L22.344 58.6476L22.3415 58.6533L22.3392 58.6585L22.3364 58.6646L22.3333 58.6714L22.3302 58.678L22.3282 58.6822L22.3255 58.6877L22.3226 58.6937L22.3196 58.7L22.315 58.709L22.3145 58.71L22.3116 58.7157L22.3084 58.7218L22.3054 58.7275L22.3001 58.7371L22.2971 58.7426L22.2936 58.7487L22.2907 58.7539L22.2851 58.7632L22.2821 58.7683L22.2782 58.7747L22.2757 58.7787L22.2743 58.7809L22.2696 58.7882L22.2665 58.793L22.262 58.7999L22.2602 58.8025L22.258 58.8055L22.2535 58.8121L22.2505 58.8164L22.2442 58.825L22.2415 58.8285L22.2369 58.8347L22.2339 58.8386L22.2273 58.8468L22.2245 58.8503L22.2196 58.8562L22.2168 58.8596L22.21 58.8674L22.2071 58.8707L22.2018 58.8766L22.1993 58.8793L22.1921 58.8869L22.1891 58.8899L22.1832 58.8959L22.1813 58.8978L22.1802 58.8988L22.1737 58.9051L22.1707 58.9079L22.1634 58.9145L22.163 58.9149L22.1609 58.9167L22.1546 58.9222L22.1516 58.9247L22.1438 58.9311L22.1414 58.9331L22.135 58.9381L22.1322 58.9402L22.124 58.9461L22.1213 58.9481L22.1147 58.9527L22.1122 58.9545L22.1037 58.96L22.1009 58.9618L22.0917 58.9674L22.0829 58.9724L22.08 58.9741L22.0717 58.9785L22.0709 58.979L22.0698 58.9796L22.0615 58.9837L22.0573 58.9857L22.0562 58.9862L22.0496 58.9892L22.0424 58.9923L22.0421 58.9924L22.0357 58.9951L22.0344 58.9956L22.0284 58.998L22.0274 58.9983L22.0203 59.0009L22.0133 59.0034L22.0121 59.0038L22.0061 59.0057L22.0047 59.0061L21.9977 59.0082L21.9904 59.0104L21.9895 59.0106L21.9832 59.0122L21.9816 59.0126L21.9755 59.0141L21.9743 59.0143L21.9668 59.016L21.9596 59.0175L21.958 59.0178L21.952 59.0189L21.9504 59.0191L21.943 59.0204L21.9354 59.0214L21.9339 59.0216L21.926 59.0225L21.9196 59.0232L21.9184 59.0234L21.9107 59.024L21.9099 59.024L21.9037 59.0245L21.8927 59.025L21.8901 59.0251L21.8805 59.0253H21.8781L21.8667 59.0252L21.8639 59.0251L21.8536 59.0248L21.8518 59.0247L21.8401 59.024L21.8371 59.0238L21.8256 59.0228L21.8249 59.0227L21.8128 59.0214L21.8098 59.021L21.7976 59.0193L21.7961 59.0191L21.7849 59.0173L21.7818 59.0168L21.7695 59.0145L21.7672 59.0141L21.7562 59.0117L21.7534 59.0112L21.7408 59.0083L21.738 59.0076L21.7267 59.0047L21.7244 59.0041L21.7115 59.0005L21.7084 58.9996L21.6962 58.996L21.6948 58.9956L21.6815 58.9913L21.6783 58.9902L21.6647 58.9856L21.6642 58.9854L21.6509 58.9807L21.6477 58.9794L21.634 58.9742L21.6321 58.9734L21.6196 58.9683L21.6165 58.9671L21.6026 58.9612L21.6 58.96L21.5875 58.9545L21.5847 58.9532L21.5706 58.9467L21.5674 58.9452L21.5545 58.9389L21.5524 58.9379L21.5379 58.9305L21.5345 58.9288L21.5202 58.9214L21.5194 58.921L21.5045 58.913L21.5009 58.911L21.4859 58.9027L21.4846 58.902L21.4703 58.8938L21.4668 58.8918L21.4516 58.8828L21.4492 58.8813L21.4354 58.873L21.4321 58.8709L21.4167 58.8613L21.4136 58.8593L21.3996 58.8504L21.3969 58.8485L21.3811 58.8382L21.3776 58.8358L21.3628 58.8259L21.361 58.8246L21.3448 58.8135L21.341 58.8107L21.3244 58.7991L21.3127 58.7906L21.3094 58.7882L21.2994 58.7806L21.2972 58.779L21.2853 58.7697L21.2823 58.7673L21.2725 58.7595L21.2695 58.7571L21.2572 58.747L21.2549 58.745L21.2444 58.7362L21.241 58.7333L21.2283 58.7223L21.2156 58.7109L21.2121 58.7077L21.2012 58.6978L21.1989 58.6957L21.186 58.6836L21.1827 58.6805L21.1721 58.6704L21.1689 58.6673L21.1556 58.6545L21.1531 58.652L21.1419 58.6409L21.1381 58.6371L21.1246 58.6235L21.1108 58.6094L21.107 58.6054L21.0954 58.5933L21.0928 58.5906L21.0797 58.5766L21.0599 58.5553L21.0555 58.5505L21.0392 58.5326L21.0337 58.5264L21.0132 58.5035L20.9924 58.4797L20.9868 58.4732L20.9697 58.4534L20.9653 58.4482L20.9441 58.4232L20.9397 58.4178L20.9222 58.3967L20.9165 58.3897L20.8947 58.3631L20.8725 58.3357L20.8668 58.3285L20.8484 58.3054L20.844 58.2998L20.8215 58.2711L20.8172 58.2655L20.7982 58.2409L20.7925 58.2335L20.7694 58.2033L20.746 58.1722L20.7404 58.1647L20.7206 58.138L20.7164 58.1324L20.6924 58.0998L20.6885 58.0945L20.6679 58.0661L20.6624 58.0586L20.638 58.0248L20.6132 57.99L20.608 57.9826L20.5863 57.9519L20.5827 57.9468L20.5572 57.9103L20.554 57.9057L20.5314 57.8731L20.5264 57.8659L20.5007 57.8283L20.4745 57.7899L20.4699 57.7831L20.4461 57.7478L20.4434 57.7438L20.4162 57.7032L20.414 57.7L20.3891 57.6625L20.385 57.6562L20.3578 57.6149L20.3302 57.5726L20.3266 57.5671L20.3003 57.5264L20.2989 57.5244L20.2711 57.4813L20.2357 57.426L20.2226 57.4055L20.1968 57.3646L20.1836 57.3436L20.148 57.2868L20.1356 57.267L20.1093 57.2247L20.0945 57.2007L20.0644 57.1519L20.0573 57.1404L20.049 57.1268L20.0199 57.0792L20.004 57.0529L19.9787 57.0112L19.9644 56.9876L19.9287 56.9282L19.9121 56.9005L19.8886 56.861L19.8716 56.8325L19.836 56.7724L19.8192 56.7439L19.796 56.7044L19.7775 56.6726L19.7523 56.6294L19.7398 56.6079L19.726 56.584L19.702 56.5426L19.6821 56.5081L19.6606 56.4708L19.6417 56.4378L19.6367 56.4289C18.3229 54.1333 16.7013 50.6579 15.689 47.9038C14.1981 43.8482 14.3107 40.9774 14.9914 39.3438Z" fill="#B9A881"/>
<path fill-rule="evenodd" clip-rule="evenodd" d="M13.9332 33.4969C13.9332 33.4969 17.6622 36.5884 18.1998 39.0398C18.5528 40.6496 18.6478 47.4467 19.2013 54.7359C19.2614 55.5281 28.6759 58.331 29.514 64.4104C30.6804 72.8716 30.1635 83.6956 30.1635 83.6956L12.2965 85.3856C12.2965 85.3856 10.5925 73.4562 9.87766 69.1802C9.4031 66.3413 3.93251 64.4273 2.21554 62.1387C-0.162939 58.9684 0.920547 54.7485 1.31767 50.1636C1.90724 43.3578 3.19795 37.607 3.54989 36.7685C4.38049 34.7893 8.7851 33.2043 8.7851 33.2043C8.7851 33.2043 11.2802 34.6955 13.9332 33.4969Z" fill="#AE9E7A"/>
<path fill-rule="evenodd" clip-rule="evenodd" d="M14.8223 34.2959C15.9607 35.3753 17.8313 37.3582 18.2 39.0397C18.5531 40.6496 18.6481 47.4466 19.2015 54.7359C19.2616 55.5281 28.6762 58.331 29.5142 64.4104C30.6806 72.8715 31.6395 84.922 31.6395 84.922L26.3074 85.4991C25.9217 81.5217 25.5752 71.6304 24.7868 66.1853C23.7099 58.7469 19.2137 57.4783 17.6021 56.3623C15.9906 55.2464 16.5438 49.3719 16.1613 42.8231C15.8848 38.0903 15.1877 35.4155 14.8223 34.2959Z" fill="#D1C099"/>
<path fill-rule="evenodd" clip-rule="evenodd" d="M7.84944 33.5835C8.89641 35.1413 10.3121 38.8938 10.9868 47.9331C12.1298 63.2462 16.3373 52.123 18.84 68.9792C20.2034 78.1607 20.2244 84.0424 20.2723 86.2038L11.2659 87.2474C11.2659 87.2474 10.5925 73.4561 9.87766 69.1802C9.4031 66.3412 3.93251 64.4272 2.21554 62.1386C-0.162938 58.9684 0.920546 54.7485 1.31767 50.1635C1.90723 43.3577 3.19795 37.6069 3.54989 36.7684C4.13679 35.37 6.50822 34.1683 7.84944 33.5835Z" fill="#D1C099"/>
<path fill-rule="evenodd" clip-rule="evenodd" d="M7.49016 46.9569C7.49016 46.9569 13.1888 47.8171 15.372 48.6518C15.372 48.6518 16.1263 48.8797 16.0981 49.5231C16.07 50.1665 14.9174 59.1758 14.9174 59.1758C14.9174 59.1758 14.9657 59.9233 14.1952 60.2614C13.4248 60.5996 10.9276 60.0098 10.9276 60.0098L5.82115 58.8454C5.82115 58.8454 5.16646 58.7233 5.2101 58.304C5.25367 57.8848 5.45893 57.0059 5.45893 57.0059C5.45893 57.0059 5.24113 56.8773 5.36855 56.4895C5.49592 56.1018 7.08662 47.4073 7.08662 47.4073C7.08662 47.4073 7.1043 46.9191 7.49016 46.9569Z" fill="#8E6234"/>
<path fill-rule="evenodd" clip-rule="evenodd" d="M8.56574 48.1094C8.56574 48.1094 13.9557 48.9218 14.8395 49.4382C14.8395 49.4382 15.1096 49.6865 15.0688 50.2325C15.0202 50.8851 14.1004 57.3874 14.1004 57.3874C14.1004 57.3874 13.9811 57.7511 13.4751 57.7831C13.1105 57.8061 7.1224 56.4202 7.1224 56.4202C7.1224 56.4202 6.48077 56.3225 6.53665 55.816C6.59248 55.3095 7.88926 48.7159 7.88926 48.7159C7.88926 48.7159 7.96976 48.0888 8.56574 48.1094ZM8.79793 48.5292C8.79793 48.5292 13.6711 49.2638 14.4702 49.7307C14.4702 49.7307 14.7144 49.9552 14.6776 50.4488C14.6336 51.0388 13.8348 57.0108 13.8348 57.0108C13.8348 57.0108 13.7269 57.3397 13.2695 57.3685C12.9398 57.3894 7.5078 56.1259 7.5078 56.1259C7.5078 56.1259 6.92765 56.0375 6.97816 55.5796C7.02861 55.1217 8.1863 49.0776 8.1863 49.0776C8.1863 49.0776 8.25905 48.5106 8.79793 48.5292Z" fill="#9C6C3A"/>
<path fill-rule="evenodd" clip-rule="evenodd" d="M5.44183 56.9929C5.65646 57.0414 5.98464 57.0371 5.98464 57.0371C5.98464 57.0371 12.3454 58.3668 13.8391 58.7563C14.4519 58.9161 14.7723 60.0079 14.1952 60.2611C13.4248 60.5992 10.9276 60.0095 10.9276 60.0095L5.82116 58.8451C5.82116 58.8451 5.16646 58.723 5.2101 58.3037C5.25367 57.8844 5.45893 57.0055 5.45893 57.0055C5.45893 57.0055 5.45223 57.0015 5.44183 56.9929Z" fill="#705234"/>
<path fill-rule="evenodd" clip-rule="evenodd" d="M0.437476 46.5352C0.437476 46.5352 0.153559 47.4955 0.01475 48.7367C-0.0833178 49.6135 0.339755 51.4913 2.7766 52.4334C5.21339 53.3756 13.0014 55.4111 13.0014 55.4111C13.0014 55.4111 13.3187 56.1185 14.1862 56.6899C14.6822 57.0167 15.1977 57.4006 15.1977 57.4006C15.1977 57.4006 15.6481 57.7201 16.0612 57.5041C16.4743 57.2882 16.836 57.0733 16.914 56.6285C16.9921 56.1837 17.1692 55.0336 17.2489 54.5782C17.2941 54.3201 17.0909 54.0237 16.7332 53.7826C16.3756 53.5414 15.7819 53.2392 15.7819 53.2392C15.7819 53.2392 16.4838 52.9197 16.633 52.7458C16.9637 52.3603 16.7655 52.068 16.6364 51.9939C16.5073 51.9199 16.1535 52.0702 15.7161 52.2558C15.2786 52.4413 14.5946 52.5391 14.2717 52.6933C13.9488 52.8476 13.7033 53.1685 13.7033 53.1685C13.7033 53.1685 6.66817 49.085 5.0265 48.5207C5.0265 48.5207 2.63837 46.6911 0.437476 46.5352Z" fill="#DDA76C"/>
<path fill-rule="evenodd" clip-rule="evenodd" d="M1.91348 40.6863C0.632533 44.7261 0.139304 47.6249 0.014884 48.7368C-0.0831839 49.6136 0.0767764 52.1637 2.51356 53.1059C4.47793 53.8654 9.87316 56.1101 11.9092 56.6515C12.9152 55.5645 13.6424 53.1616 13.4116 52.3266C11.6305 51.3049 6.78133 49.224 5.23773 48.6005L6.94355 41.6598C6.94355 41.6598 7.72861 38.3804 6.61334 36.9584C5.49807 35.5364 4.31981 35.8285 4.31981 35.8285C4.31981 35.8285 3.19449 36.6465 1.91348 40.6863Z" fill="#D1C099"/>
<path fill-rule="evenodd" clip-rule="evenodd" d="M5.93631 57.0347L13.7174 58.733C13.7174 58.733 14.4847 58.937 14.382 59.4557C14.2792 59.9743 13.7305 60.1307 13.0769 60.0801C12.4233 60.0295 5.67383 58.424 5.67383 58.424L5.93631 57.0347Z" fill="white"/>
<path fill-rule="evenodd" clip-rule="evenodd" d="M6.83819 41.6272L5.15798 48.4793C5.14128 48.5473 5.18294 48.6161 5.25102 48.6328C5.31904 48.6494 5.38781 48.6078 5.40451 48.5397L7.08478 41.6877C7.10148 41.6196 7.05976 41.5509 6.99174 41.5342C6.92366 41.5175 6.85489 41.5592 6.83819 41.6272Z" fill="#B9A881"/>
<path fill-rule="evenodd" clip-rule="evenodd" d="M1.16885 52.3208C1.16885 52.3208 7.43034 55.5058 11.8322 56.7128C11.8939 56.7297 11.9577 56.6934 11.9746 56.6317C11.9916 56.57 11.9552 56.5062 11.8935 56.4893C7.50957 55.2871 1.27397 52.1142 1.27397 52.1142C1.21693 52.0852 1.14712 52.1079 1.11811 52.1649C1.08904 52.222 1.11181 52.2918 1.16885 52.3208Z" fill="#B9A881"/>
<path fill-rule="evenodd" clip-rule="evenodd" d="M5.2383 48.643L13.343 52.3818C13.401 52.4086 13.47 52.3832 13.4967 52.3251C13.5236 52.267 13.4981 52.1981 13.44 52.1713L5.33533 48.4326C5.27719 48.4057 5.20831 48.4312 5.18155 48.4893C5.1548 48.5473 5.18017 48.6162 5.2383 48.643Z" fill="#B9A881"/>
<path fill-rule="evenodd" clip-rule="evenodd" d="M10.1497 31.9745C10.1497 31.9745 7.21599 29.3033 6.78228 28.1882C5.78704 25.6289 5.78681 23.6822 7.21957 22.1478C8.65239 20.6134 11.4839 19.841 14.1541 20.7035C14.1541 20.7035 17.1663 24.4433 15.2526 26.5989C14.7777 27.134 10.1497 31.9745 10.1497 31.9745Z" fill="#835C31"/>
<path fill-rule="evenodd" clip-rule="evenodd" d="M15.8605 23.1333C15.8605 23.1333 16.4197 24.1855 16.4745 25.6079C16.5671 28.01 16.2419 29.6299 15.776 30.7214C14.8913 32.7945 13.4993 32.9615 13.4993 32.9615C13.4993 32.9615 10.1711 32.3404 9.884 31.8001C9.59696 31.2599 9.30282 30.2735 9.30282 30.2735C9.30282 30.2735 8.14143 30.5772 7.46183 29.5568C6.67839 28.3806 7.75355 27.2725 8.06972 27.9177C8.69869 29.2012 9.53351 29.3603 9.3728 28.1316C9.2122 26.9028 8.97498 25.945 9.03884 25.1261C9.22538 22.7342 11.3599 23.5968 12.5353 23.7424C13.0367 23.8045 15.0405 23.5943 15.8605 23.1333Z" fill="#DDA76C"/>
<path fill-rule="evenodd" clip-rule="evenodd" d="M6.47568 27.2818C6.47568 27.2818 11.7956 23.326 16.3171 24.1906C16.3171 24.1906 15.7428 21.3257 14.847 19.8987C14.5205 19.3786 12.4628 19.1724 10.4523 19.747C8.4731 20.3128 6.54265 21.6496 5.99245 22.383C5.62832 22.8683 5.81307 25.4471 6.47568 27.2818Z" fill="#D1C099"/>
</svg>
