<svg width="95" height="92" viewBox="0 0 95 92" fill="none" xmlns="http://www.w3.org/2000/svg">
<path d="M59.2362 27.6902H61.0459V56.0942H59.2362V27.6902Z" fill="#D3BD96"/>
<path d="M62.3838 23.8999V26.512L57.8979 31.4805V29.1237L62.3838 23.8999Z" fill="#E9D1A6"/>
<path d="M18.7999 29.1243H57.9012L59.5647 27.1848L60.4871 26.1099L60.6906 25.8774L60.9084 25.616L61.9471 24.4102L62.3828 23.9016H29.0421L23.3618 26.8L20.9791 28.0131L18.7999 29.1243Z" fill="#E9DABE"/>
<path d="M18.8002 29.1238H57.8975V31.4803H18.8002V29.1238Z" fill="#E9D1A6"/>
<path d="M30.3202 31.4805H32.1299V54.916H30.3202V31.4805Z" fill="#D3BD96"/>
<path d="M20.3124 31.4805H22.1221V69.8968H20.3124V31.4805Z" fill="#D3BD96"/>
<path d="M59.2348 27.6901C59.2348 27.6901 57.7578 26.1294 54.9547 26.1294C52.1515 26.1294 48.7324 26.3139 48.4797 25.578C48.2268 24.842 57.4142 24.8018 57.4142 24.8018L60.1396 26.4566L59.2348 27.6901Z" fill="#D3BD96"/>
<path d="M77.7011 48.6428V60.461C77.7011 61.0568 78.1877 61.5362 78.7835 61.5362C79.3792 61.5362 79.8584 61.0568 79.8584 60.461V48.6428H77.7011Z" fill="#C9A360"/>
<path d="M75.4492 33.948C75.4492 33.9843 75.4492 34.0208 75.4564 34.0571C75.5946 35.735 75.7906 36.919 75.8631 37.2969C75.8778 37.3841 75.885 37.4275 75.885 37.4275L79.6405 39.4251H79.6477L84.5506 42.0329L90.616 45.258L90.6232 45.2652L91.0083 45.4686C91.0083 45.4686 88.9162 40.7979 88.1389 36.0475C87.0855 29.5974 88.6184 28.8272 91.7272 19.3555C92.8821 15.8544 93.928 11.5469 93.8483 8.93194C92.4464 8.1402 89.352 8.24928 85.7274 8.61248C82.357 8.95381 79.2191 10.1888 78.3837 13.3776C78.3474 13.472 78.3255 13.5664 78.3036 13.6608C78.0786 14.7066 77.8242 15.7747 77.5628 16.8424C76.9527 19.3773 76.2988 21.8979 75.885 24.1424C75.1948 27.8536 75.253 31.4422 75.4492 33.948Z" fill="#E9DABE"/>
<path d="M88.14 36.0494C87.1848 29.5782 88.3449 29.0588 91.73 19.3579C92.3215 17.6631 92.5644 15.4792 92.6732 14.2C93.2439 7.48244 94.6748 7.20759 94.6748 13.0042C94.6748 18.2669 92.0737 24.1342 90.8033 26.9359C89.533 29.7377 89.6901 34.1551 90.1984 37.6838C90.6295 40.6775 92.4233 45.099 92.4867 46.5604C92.5442 47.8843 91.2716 47.5556 89.9566 47.6635C89.6726 47.6869 90.0979 46.8799 90.3371 46.4516C90.7225 45.7621 90.7702 44.9341 90.4505 44.2117L89.6357 42.3709C89.1099 40.8542 88.5409 38.7665 88.14 36.0494Z" fill="#D3BD96"/>
<path d="M91.0299 45.4822C91.9365 46.0828 91.984 47.5589 90.9016 47.664C85.1588 48.2206 67.3849 49.8558 66.3808 49.9439C65.4687 50.0239 65.7059 48.3365 65.8751 47.5111C65.9289 47.2484 66.1433 47.0553 66.4107 47.032C69.6718 46.7479 90.2347 44.9779 91.0049 45.4663C91.0132 45.4712 91.0216 45.4767 91.0299 45.4822Z" fill="#D3BD96"/>
<path d="M65.7729 49.4126C65.6785 49.0131 65.7219 48.4611 65.7872 47.9888C65.8673 47.4512 66.2958 47.0446 66.8406 46.9936C70.843 46.6448 87.6151 45.2214 90.5789 45.3955C90.6517 45.4027 90.6804 45.3011 90.6223 45.2648L90.6151 45.2576L84.5497 42.0326L79.6468 39.4248H79.6396L63.4048 44.2334L60.7827 45.0107L65.7729 49.4126Z" fill="#E9D1A6"/>
<path d="M65.3092 46.5967L61.4886 43.8937L58.644 43.2974C58.644 43.2974 65.6519 50.2227 65.9774 49.8062C66.1717 49.5576 66.134 48.6314 66.0721 47.9246C66.0255 47.3907 65.7466 46.9061 65.3092 46.5967Z" fill="#D3BD96"/>
<path d="M66.1523 62.0734C66.1523 62.8456 65.5264 63.4716 64.7542 63.4716C63.982 63.4716 63.3561 62.8456 63.3561 62.0734C63.3561 61.3013 63.982 60.6753 64.7542 60.6753C65.5264 60.6753 66.1523 61.3013 66.1523 62.0734Z" fill="#B08F54"/>
<path d="M84.5527 58.7014C84.5527 59.4735 83.9268 60.0995 83.1546 60.0995C82.3824 60.0995 81.7565 59.4735 81.7565 58.7014C81.7565 57.9292 82.3824 57.3032 83.1546 57.3032C83.9268 57.3029 84.5527 57.9292 84.5527 58.7014Z" fill="#B08F54"/>
<path d="M92.3561 60.359C90.8661 59.7345 83.3361 59.3057 79.8189 59.1362C80.6757 58.3355 81.5011 57.6031 81.9866 57.2347C82.0741 57.4698 82.1334 57.8399 82.3801 58.006C82.6005 58.1545 83.265 57.8776 83.265 57.8776C83.4961 57.7349 83.6153 57.6287 83.5649 57.4209C83.1678 55.7781 82.5568 55.642 82.3461 55.5951C81.9674 55.5113 81.5279 55.425 77.8584 58.9969C75.6669 58.5479 68.5611 57.1147 67.3589 57.2217C65.9772 57.332 64.9161 59.5244 64.4079 60.8178C64.3273 61.0227 64.4732 61.2423 64.6931 61.2547L65.3507 61.2909C65.5228 61.3004 65.6785 61.1951 65.743 61.0354C66.2872 59.6859 67.1017 58.718 67.4749 58.6696C68.0934 58.6273 71.5772 59.247 74.8069 59.8724C71.745 60.6805 67.4508 61.9002 66.4437 62.6295C64.8056 63.8155 64.2737 66.8391 64.2185 67.1799L65.6529 67.4127C65.7677 66.7021 66.3168 64.5149 67.2956 63.8063C68.2307 63.1291 74.1314 61.5114 77.8887 60.5827C79.1895 61.7646 81.8983 64.3756 82.53 65.6744C83.3387 67.3364 83.3027 70.7831 83.3025 70.8179L84.7553 70.8375C84.7573 70.6821 84.7961 67.0115 83.8366 65.0389C83.2319 63.7959 81.3825 61.8933 80.0362 60.6014C84.673 60.831 90.7438 61.259 91.7937 61.6993C92.8678 62.1497 93.0661 64.5031 93.0508 65.2919L94.5036 65.3224C94.5128 64.9103 94.5281 61.2705 92.3561 60.359Z" fill="#C9A360"/>
<path d="M66.1523 68.0051C66.1523 68.7772 65.5264 69.4032 64.7542 69.4032C63.982 69.4032 63.3561 68.7772 63.3561 68.0051C63.3561 67.2329 63.982 66.6069 64.7542 66.6069C65.5264 66.6069 66.1523 67.2329 66.1523 68.0051Z" fill="#B08F54"/>
<path d="M85.3936 71.9094C85.3936 72.6815 84.7676 73.3075 83.9954 73.3075C83.2233 73.3075 82.5973 72.6815 82.5973 71.9094C82.5973 71.1372 83.2233 70.5112 83.9954 70.5112C84.7676 70.5109 85.3936 71.1372 85.3936 71.9094Z" fill="#B08F54"/>
<path d="M95 66.3727C95 67.1449 94.374 67.7709 93.6019 67.7709C92.8297 67.7709 92.2037 67.1449 92.2037 66.3727C92.2037 65.6006 92.8297 64.9746 93.6019 64.9746C94.374 64.9746 95 65.6006 95 66.3727Z" fill="#B08F54"/>
<path d="M77.7011 48.9018V53.5242H79.8584V48.6428L77.7011 48.9018Z" fill="#C9B48F"/>
<path opacity="0.5" d="M63.0564 45.0035C63.0564 45.0035 67.9593 45.3667 72.2087 45.0035C76.4509 44.6475 84.5498 42.0326 84.5498 42.0326C84.5498 42.0326 86.5474 35.6187 85.3925 27.6866C84.7533 23.292 80.3877 18.3962 77.5621 16.8418C76.9519 19.3767 76.298 21.8973 75.8842 24.1418C75.194 27.8536 75.2522 31.4419 75.4485 33.948C75.4485 33.9843 75.4485 34.0208 75.4557 34.0571C75.6444 35.7206 75.8117 36.9118 75.8623 37.2968C75.877 37.384 75.8842 37.4275 75.8842 37.4275L79.6397 39.4251L63.4049 44.2337L63.0564 45.0035Z" fill="#E3BB7D"/>
<path d="M55.292 51.6762L55.138 61.9458L52.6129 61.8922L52.7789 51.0071L55.292 51.6762Z" fill="#FF8464"/>
<path d="M44.909 63.2883C44.9211 63.3142 44.941 63.3404 44.9637 63.3614C45.9129 64.2829 48.4101 64.6928 51.8136 64.3909C53.2656 64.7279 54.66 64.2991 55.0594 63.9514C55.4669 63.604 55.6353 63.2425 55.6909 62.9052C55.7878 62.3889 55.6275 61.8991 55.599 61.487C55.5829 61.2933 55.6048 61.0348 55.4707 60.9042C55.4707 60.9042 54.7158 61.7699 53.8256 61.0417C52.877 60.2598 53.4331 59.1256 53.1473 59.3403C51.9411 60.2325 51.261 60.9937 47.5971 61.3862C46.6891 61.4835 45.3617 61.9023 44.9997 62.5481C44.9318 62.6698 44.8854 62.7898 44.8636 62.9004C44.8339 63.0491 44.848 63.1841 44.909 63.2883Z" fill="#223C5C"/>
<path d="M62.6765 54.8384L66.0303 64.5461L63.6378 65.356L60.0858 55.0655L62.6765 54.8384Z" fill="#FF8464"/>
<path d="M50.9425 19.8484C50.9425 22.6812 51.3491 24.8676 53.1651 24.846C53.3758 24.846 54.8649 24.5047 56.6881 24.0324C59.579 23.2842 63.2983 22.1945 64.0391 21.5553C62.9713 19.5143 62.1143 17.3713 61.8092 15.3449C61.7801 15.1705 61.7729 15.018 61.7583 14.8511C61.5113 15.2361 61.5404 15.098 61.0756 15.4759C60.8721 15.6431 60.6689 15.7956 60.4655 15.9481V15.9553C58.7513 17.2556 57.095 18.2362 54.9449 20.0231C55.0102 16.4858 54.7777 14.0596 54.4654 13.8052C54.1532 13.5801 52.0465 13.5364 51.4363 13.6889C50.8262 13.754 50.9425 16.6521 50.9425 19.8484Z" fill="#895B9E"/>
<path d="M56.6881 24.0325C59.579 23.2842 63.2983 22.1946 64.0391 21.5554C62.9713 19.5143 62.1143 17.3713 61.8092 15.3449C61.7801 15.1705 61.7729 15.018 61.7583 14.8511C61.5113 15.2361 61.5404 15.098 61.0756 15.4759C60.8721 15.6431 60.6689 15.7956 60.4655 15.9482V15.9554C59.7025 20.7564 57.1676 21.6498 56.6881 24.0325Z" fill="#7A518C"/>
<path d="M49.3456 24.2427C49.3456 24.2499 49.3456 24.2499 49.3456 24.2499C49.491 24.1408 49.6654 24.0174 49.8323 23.9014C50.3915 23.5163 51.0016 23.124 51.1107 23.0806C51.1398 23.0734 51.1832 23.0587 51.2561 23.0443C51.7718 22.928 53.3481 22.6739 53.7913 22.703C54.0163 22.7249 55.4038 23.059 56.871 23.4294C57.227 23.5238 57.5828 23.611 57.9316 23.7054C58.2004 23.7707 58.4545 23.836 58.7014 23.9017C58.9049 23.9526 59.1009 24.0033 59.2825 24.047C60.0742 24.2505 60.619 24.3958 60.619 24.3958L60.9097 25.6161L60.9897 25.9358L61.0479 26.1974L60.4887 26.1102L59.2465 25.914L58.8761 25.8558C58.8761 25.8558 58.6654 25.8486 58.346 25.8411C57.7793 25.8193 56.8497 25.7686 56.1305 25.6449C55.019 25.4561 53.8425 24.9185 53.639 24.9041C53.6028 24.9041 53.559 24.8969 53.5009 24.8822C53.4937 24.8894 53.4937 24.8894 53.4865 24.8822C53.3993 24.875 53.283 24.8603 53.1668 24.8459H53.1377C53.0433 24.8313 52.9342 24.8241 52.8326 24.8241C52.8254 24.8241 52.8254 24.8241 52.8179 24.8241C52.7235 24.8241 52.6363 24.8241 52.5491 24.8387C52.411 24.8606 52.1713 24.9041 51.9099 24.9622C51.4305 25.0638 50.8494 25.1947 50.5806 25.1876C50.5225 25.1804 50.4718 25.1804 50.4281 25.1585C50.3699 25.1438 50.319 25.1222 50.2827 25.0857C50.2027 25.0347 50.1664 24.955 50.1521 24.9113C50.1449 24.8822 50.1374 24.8603 50.1374 24.8603C50.1374 24.8603 50.1302 24.9838 49.6216 25.0419C49.5272 25.0491 49.4472 25.0419 49.3747 25.0419H49.3675C49.0768 24.9913 49.019 24.8022 49.019 24.8022C49.019 24.8022 49.0118 24.8022 48.9899 24.8022C48.939 24.795 48.8155 24.7731 48.8446 24.664C48.859 24.6206 49.0625 24.4534 49.3456 24.2427ZM51.0019 24.5915C51.1473 24.5481 51.2998 24.4899 51.4377 24.4318C51.6049 24.3593 51.7574 24.2939 51.8371 24.2574C51.859 24.2427 51.8806 24.2355 51.8881 24.2283C51.8734 24.2283 51.8518 24.2283 51.8227 24.2355C51.6774 24.2427 51.3505 24.2793 51.2561 24.3299C51.1473 24.388 50.7041 24.5768 50.5443 24.6569C50.5225 24.664 50.5009 24.6787 50.4862 24.6859C50.5225 24.6859 50.6387 24.6859 51.0019 24.5915Z" fill="#FF8464"/>
<path d="M48.8484 24.6641C48.813 24.7751 48.9385 24.7982 48.9921 24.8025C49.0119 24.8039 49.0185 24.8045 49.0185 24.8045C49.0185 24.8045 51.1632 23.3209 51.6479 23.291C52.1325 23.2613 53.4316 23.274 53.6173 23.2144C53.775 23.1663 54.0985 23.2314 54.2041 23.2527C54.1068 23.2118 53.7618 23.078 53.5088 23.0584C53.2089 23.0354 52.5501 23.1522 51.8663 23.1534C51.19 23.1482 50.92 23.4357 50.4178 23.6922C50.1945 23.809 49.7553 24.03 49.3498 24.2467C49.3498 24.2467 49.3492 24.2534 49.3432 24.2462C49.0657 24.4528 48.8588 24.6177 48.8484 24.6641Z" fill="#D37856"/>
<path d="M49.3751 25.0396C49.4485 25.0454 49.5285 25.0514 49.6232 25.0385C50.13 24.9835 50.1392 24.8638 50.1392 24.8638C50.1392 24.8638 50.1444 24.8842 50.149 24.9116C50.2638 24.8131 50.3841 24.7285 50.4883 24.683C50.5021 24.6773 50.5231 24.6655 50.5436 24.6606C50.7039 24.5791 51.1476 24.3855 51.2521 24.3331C51.371 24.2683 51.8231 24.2295 51.8902 24.228C51.8481 24.2516 51.6605 24.3377 51.4386 24.4347C52.3178 24.241 53.4736 24.0283 53.4736 24.0283C53.4736 24.0283 51.8349 23.9022 51.0979 24.1607C50.4641 24.386 49.7394 24.9202 49.3751 25.0396Z" fill="#D37856"/>
<path d="M50.4314 25.1609C50.4702 25.1773 50.5235 25.1813 50.5836 25.1859C50.9984 25.1977 52.1475 24.8906 52.5467 24.8408C52.9459 24.7911 53.4409 24.8895 53.6409 24.9047C53.8407 24.92 55.0195 25.453 56.1304 25.6455C57.2479 25.8386 58.8751 25.8565 58.8751 25.8565L61.0469 26.1975L60.9864 25.9382L59.1773 25.5848C59.1773 25.5848 57.163 25.5506 56.1186 25.4504C55.0808 25.3505 54.2537 24.7775 53.5031 24.6932C52.7588 24.6092 51.9012 24.7844 51.447 24.9373C51.1923 25.025 50.7569 25.1122 50.4314 25.1609Z" fill="#D37856"/>
<path d="M55.2933 60.3593C56.8365 59.8111 56.0269 44.2699 56.0269 44.2699L69.4795 30.9626C69.4795 30.9626 54.3271 34.3403 51.1893 36.7445C48.0586 39.1488 50.4721 59.7886 52.2642 60.5988C53.304 61.0026 53.6871 60.8863 55.2933 60.3593Z" fill="#2F5380"/>
<path d="M54.197 12.7877C54.0445 13.6595 54.8944 13.0637 55.2938 13.2891C55.7005 13.5141 56.5722 15.1632 57.4802 15.4683C58.0976 15.6718 59.0346 15.0254 59.7176 14.5459C60.0445 14.3208 60.3059 14.1392 60.4584 14.0883C60.4584 14.0883 60.4584 14.0883 60.4656 14.0883C60.589 14.0592 60.8432 14.2699 61.1557 14.5968C61.4755 14.931 61.8459 15.3886 62.2091 15.8534C62.9136 16.7542 63.5528 17.6694 63.5528 17.6694L66.335 16.2966L63.5528 9.59949C63.1677 9.53416 62.6376 9.44695 62.18 9.34536C61.7587 9.25096 61.3955 9.15657 61.2429 9.07656C61.2211 9.06217 61.2067 9.05469 61.192 9.0403C61.0613 8.9387 61.0904 8.3939 61.0685 7.79815C61.0613 7.56561 61.0541 7.44215 61.0541 7.44215C61.0032 6.79575 60.8653 6.2 60.3859 6.14187C59.3763 6.0184 59.7395 8.27734 59.0131 8.27734C58.2866 8.27734 56.2237 4.87785 55.2576 5.16105C54.2914 5.44424 52.6789 5.45172 52.6789 6.36693C52.6789 6.70826 52.7514 7.62346 52.4901 7.74692C52.7713 8.60658 53.2781 9.10476 53.6231 9.94945C54.0451 10.9815 54.277 12.3163 54.197 12.7877Z" fill="#FF8464"/>
<path d="M51.5658 4.84141C51.8553 4.08737 53.0744 2.5088 53.7979 1.45459C54.3091 0.71005 54.3338 0.294755 54.6622 0.319506C55.3492 0.371022 56.1147 0.836969 56.7873 0.708035C57.4492 0.581115 58.3492 -0.0480134 58.9798 0.00292712C59.6797 0.0596236 60.1189 1.15441 60.6778 1.45487C61.2194 1.74613 62.6417 1.64684 62.9517 2.19049C63.2165 2.65529 63.0089 3.71266 63.038 4.37805C63.0582 4.83911 63.978 5.27023 64.2281 5.70193C64.9953 7.02581 63.6056 7.51938 64.1377 8.335C64.8799 9.47239 63.5529 9.59902 63.5529 9.59902C62.7707 9.46692 61.3904 9.21394 61.1895 9.04184C60.9074 8.80009 61.3912 6.25997 60.3834 6.1391C59.3755 6.01822 59.7384 8.27572 59.0126 8.27572C58.287 8.27572 56.187 7.08768 55.2473 6.72304C54.1695 6.30458 53.9059 6.54201 52.9812 7.35562C52.4582 7.81581 52.8352 8.20003 52.5728 8.31975C52.5546 8.26392 50.9291 6.49827 51.5658 4.84141Z" fill="#453035"/>
<path d="M59.7172 14.5458C60.0441 14.3207 60.3054 14.1391 60.458 14.0882C60.458 14.0882 60.458 14.0882 60.4652 14.0882C60.5886 14.0591 60.8428 14.2698 61.1553 14.5967C61.475 14.9309 61.8454 15.3885 62.2086 15.8533C62.7825 14.3786 62.0633 10.834 62.1796 9.34498C61.7582 9.25058 61.395 9.15618 61.2425 9.07617C61.3441 9.82445 61.395 10.805 61.0753 11.9962C60.8212 12.9479 60.3489 13.9138 59.7172 14.5458Z" fill="#ED7B5D"/>
<path d="M55.7095 9.94922C55.5135 10.151 55.3497 10.2494 55.1592 10.3444C54.971 10.4431 54.76 10.5133 54.5105 10.65C54.636 10.7202 54.7701 10.7456 54.9079 10.749C55.0464 10.751 55.1859 10.7208 55.316 10.6563C55.569 10.5314 55.7846 10.2373 55.7095 9.94922Z" fill="#1D1500"/>
<path d="M62.5645 62.8864C64.1845 63.068 65.3539 62.7558 65.9931 62.5014C67.7728 60.6781 58.2426 45.0463 59.9424 45.1263C60.7994 45.1626 65.7752 44.9085 73.7363 43.4122C77.7169 42.6567 80.0777 40.7463 81.4505 39.0175C82.7289 37.3978 83.1574 36.0537 83.2012 35.8721C82.758 36.7073 80.0705 36.0756 77.2811 34.9641C74.2739 33.7729 71.1432 32.0223 70.5403 30.9401C70.5403 30.9401 70.3152 30.686 69.9374 30.2356C66.9158 30.7223 52.9981 37.71 52.0466 41.0004C50.761 45.4098 59.7317 59.5523 62.5645 62.8864Z" fill="#365F92"/>
<path d="M56.0821 14.2001C56.2764 13.9468 56.4738 13.8274 56.7081 13.7226C56.9384 13.6104 57.1997 13.543 57.4912 13.4049C57.3444 13.3349 57.1902 13.3105 57.0322 13.3062C56.8739 13.3056 56.7142 13.3367 56.5628 13.4052C56.2666 13.5309 55.9975 13.87 56.0821 14.2001Z" fill="#CC6A50"/>
<path d="M61.8084 15.3455C62.1935 17.8879 63.4429 20.6336 64.8882 23.096C65.5493 24.2362 66.2466 25.3114 66.9221 26.2848C68.0989 27.9773 69.1885 29.3501 69.8639 30.1491C70.2853 30.6576 70.5394 30.9408 70.5394 30.9408C70.721 31.2677 71.077 31.6235 71.5562 31.9867C71.745 32.132 71.9557 32.2845 72.181 32.4299C72.181 32.4299 72.181 32.4299 72.1882 32.4299C75.0138 34.304 80.7088 36.367 80.7451 36.367C81.2464 36.447 82.8782 36.6749 83.8611 35.1467C85.296 32.916 84.4203 27.9514 84.0942 26.5119C81.5132 15.1113 75.9434 11.5682 70.5391 9.59991C67.9153 8.64585 65.2635 8.57937 63.5531 9.60106C63.5519 11.5391 63.6763 12.8831 63.3459 14.1978C63.1194 15.1003 62.5311 16.2314 61.8084 15.3455Z" fill="#895B9E"/>
<path d="M69.8638 28.2787C70.2851 28.7872 70.5392 30.9408 70.5392 30.9408C70.7208 31.2678 74.0421 32.9494 74.4053 28.2787C74.7757 23.6008 72.7835 14.1975 72.7835 14.1975C72.7835 14.1975 70.423 28.1843 69.8638 28.2787Z" fill="#7A518C"/>
<path d="M66.025 22.904C66.5437 21.9416 65.7629 17.9763 65.5648 17.1057C66.2668 19.9823 69.4924 26.8797 68.952 27.3427C68.7948 27.4774 67.561 27.1847 66.4058 25.5109C65.8955 24.7468 65.5838 24.2912 65.09 23.439C65.5171 23.4192 65.7919 23.3366 66.025 22.904Z" fill="#7A518C"/>
<path d="M65.5201 16.9143L65.5213 16.9146C65.5331 16.9652 65.542 17.0104 65.5547 17.0625C65.534 16.9733 65.5201 16.9143 65.5201 16.9143Z" fill="#5E3D5E"/>
<path d="M59.5108 23.8997C59.8889 23.7388 64.0384 24.9619 68.0417 26.2711C67.3435 23.653 65.3341 17.4907 65.2863 15.506C65.2388 13.5216 70.444 11.3602 72.7858 14.2C72.7858 14.2 73.2676 19.2986 73.2676 25.0189C73.2676 26.5227 72.8531 28.8901 72.1575 29.8384C70.5611 32.015 58.338 26.946 58.4088 26.5117C58.4948 26.2285 58.1362 25.5585 58.4954 24.9965C58.7069 24.6661 59.1248 24.0784 59.5108 23.8997Z" fill="#895B9E"/>
<path d="M66.444 62.6292C64.8059 63.8152 64.274 66.8388 64.2187 67.1795L65.6531 67.4124C65.768 66.7018 66.3171 64.5145 67.2959 63.806L66.444 62.6292Z" fill="#BAC5D9"/>
<path d="M66.1533 68.0051C66.1533 68.7772 65.5274 69.4032 64.7552 69.4032C63.983 69.4032 63.3571 68.7772 63.3571 68.0051C63.3571 67.2329 63.983 66.6069 64.7552 66.6069C65.5274 66.6069 66.1533 67.2329 66.1533 68.0051Z" fill="#577087"/>
<path d="M60.4437 45.0539C60.5528 45.0393 60.6835 45.0177 60.8216 44.9958C60.8941 44.9886 60.9669 44.9739 61.0467 44.9667C61.4824 44.9014 62.0347 44.8142 62.6592 44.7198C62.8408 44.6907 63.0296 44.6545 63.2259 44.6254C65.6592 44.2331 68.9934 43.6377 71.5649 42.9982C73.8313 42.4315 75.7995 41.2984 77.187 40.1507C77.7318 39.7003 78.1822 39.2499 78.5308 38.836C79.0974 38.1606 79.3878 37.5648 79.3369 37.1944C79.3078 36.991 78.9956 36.5405 77.7897 36.4246C77.0342 36.3518 76.3225 36.1339 75.6686 35.8216C75.6539 35.8144 75.6467 35.8144 75.6395 35.8072C73.0174 34.5651 71.2814 31.8992 71.0198 31.5288C71.0851 31.5941 71.1504 31.6523 71.2232 31.7176C71.2742 31.7614 71.3248 31.8048 71.383 31.8483C71.4339 31.8917 71.4993 31.9427 71.5574 31.9861C71.7462 32.1315 71.9569 32.284 72.1822 32.4293C72.1822 32.4293 72.1822 32.4293 72.1894 32.4293C72.8067 32.8435 73.5622 33.2573 74.3686 33.6643C74.4777 33.7224 74.5937 33.7806 74.7099 33.8312C74.9641 33.9619 75.2185 34.0781 75.4726 34.1944V34.2016C75.6108 34.2597 75.7486 34.3251 75.8793 34.3832C76.0827 34.4776 76.2859 34.5648 76.4822 34.652C76.5041 34.6664 76.5257 34.6739 76.5475 34.6811C76.7582 34.7755 76.9689 34.8699 77.1795 34.9571C77.1867 34.9571 77.1939 34.9643 77.2014 34.9643H77.2814C77.7537 35.1531 78.2329 35.3347 78.6905 35.4872C78.9156 35.5672 79.1481 35.6397 79.366 35.7051C79.6129 35.7851 79.8526 35.8504 80.0852 35.9085C80.2524 35.9595 80.4121 36.0029 80.5718 36.032C80.7969 36.0829 81.0222 36.1336 81.2254 36.1701C81.3852 36.192 81.5377 36.2136 81.683 36.2283C81.9953 36.2573 82.2713 36.2645 82.5038 36.2355C82.7364 36.1483 82.9686 36.032 83.1865 35.8651L83.2012 35.8723C83.1793 35.9667 83.0558 36.3518 82.787 36.9109C82.7436 37.0053 82.6926 37.1072 82.6345 37.2088C82.3585 37.7246 81.9734 38.3494 81.4505 39.0176C81.2036 39.3227 80.9348 39.635 80.6225 39.94C79.1916 41.3856 77.0123 42.7875 73.7363 43.412C69.0947 44.2838 65.4701 44.7342 63.0875 44.9446C63.0512 44.9518 63.0221 44.9518 62.9931 44.9518C62.2013 45.0243 61.5474 45.068 61.0464 45.0971C60.9954 45.0971 60.9448 45.1043 60.8938 45.1043C60.7557 45.1115 60.625 45.1187 60.5088 45.1187C60.2472 45.1334 60.0584 45.1334 59.9421 45.1259C59.9424 45.1265 60.124 45.1046 60.4437 45.0539Z" fill="#2F5380"/>
<path d="M61.1913 9.03975C61.2056 9.05443 61.2203 9.06162 61.2422 9.07601C61.1697 8.53121 61.075 8.10267 61.0678 7.79761C61.0897 8.39335 61.0606 8.93816 61.1913 9.03975Z" fill="#E5805D"/>
<path d="M53.9764 13.6726L53.9862 11.3187C54.0233 10.1669 53.6587 9.0439 52.978 8.11431C52.5722 7.5603 52.1751 6.92915 52.0389 6.42953C51.7261 5.28064 53.2319 3.47642 53.1067 3.17337C52.9815 2.87003 54.1206 2.02275 54.0665 1.77294C54.0124 1.52313 53.7977 1.45435 53.7977 1.45435L52.6681 2.83895C52.6681 2.83895 52.6689 2.74714 52.4545 3.01911C52.2401 3.29108 51.0233 5.53217 50.9433 6.30405C50.8633 7.07564 51.9972 9.37919 52.1051 9.87852C52.2131 10.3781 51.689 13.6611 51.689 13.6611L53.9764 13.6726Z" fill="#D37856"/>
<path d="M54.0678 9.86085C54.1073 9.86085 54.1479 9.85193 54.1858 9.83265L55.329 9.25417C55.4579 9.18913 55.5097 9.03141 55.4444 8.90219C55.3793 8.77354 55.2213 8.71973 55.0924 8.78678L53.9493 9.36526C53.8203 9.4303 53.7685 9.58802 53.8339 9.71724C53.8799 9.80818 53.972 9.86085 54.0678 9.86085Z" fill="#1D1500"/>
<path d="M44.9088 63.2883C44.9209 63.3142 44.9408 63.3404 44.9635 63.3614C45.9127 64.2829 48.4099 64.6928 51.8134 64.3909C53.2654 64.7279 55.2356 64.571 55.6351 64.2234C56.0426 63.876 55.6351 63.2426 55.6907 62.9053C54.7317 63.2564 53.2363 63.4362 52.385 63.3217C51.2358 63.1505 51.2988 63.4642 48.4295 63.3395C46.4604 63.2624 45.7984 62.9945 44.9995 62.5481C44.9316 62.6698 44.8852 62.7898 44.8634 62.9004C44.8308 63.0517 44.8423 63.1864 44.9088 63.2883Z" fill="#2F5380"/>
<path d="M56.819 69.438C56.8403 69.457 56.869 69.4731 56.8984 69.4829C58.1371 69.9474 60.7382 69.6637 63.7362 68.0243C65.2014 67.7518 66.0104 66.1203 66.2372 65.6417C66.4715 65.1602 66.4812 64.7616 66.3969 64.4303C66.2789 63.9183 65.9361 63.5335 65.745 63.1675C65.6527 62.9965 65.5692 62.751 65.3939 62.6848C65.3939 62.6848 65.0489 63.7805 63.9414 63.4694C62.7591 63.1326 62.701 63.044 62.5251 63.3554C61.7769 64.6559 62.0183 65.4727 58.8177 67.2994C58.0245 67.7518 56.6785 67.9864 56.6054 68.7234C56.5919 68.8621 56.5976 68.9908 56.6218 69.1007C56.6543 69.2492 56.7214 69.3669 56.819 69.438Z" fill="#223C5C"/>
<path d="M56.8186 69.4379C56.8399 69.4569 56.8687 69.473 56.898 69.4828C58.1367 69.9473 60.7378 69.6635 63.7358 68.0242C66.6515 67.2857 66.859 66.0821 66.8734 65.6602C66.8918 65.1252 66.4809 64.7614 66.3965 64.4302C66.2368 65.6415 66.0135 66.0758 63.8314 66.8157C62.7311 67.1887 63.0848 67.8412 60.3625 68.7558C59.3242 69.1049 57.682 69.2842 56.6053 68.7233C56.5918 68.862 56.5975 68.9906 56.6217 69.1006C56.6525 69.2525 56.717 69.3714 56.8186 69.4379Z" fill="#2F5380"/>
<path d="M66.444 62.6294C64.8059 63.8154 64.274 66.839 64.2187 67.1798L65.6531 67.4126C65.768 66.7021 66.3171 64.5148 67.2959 63.8062L66.444 62.6294Z" fill="#C9A360"/>
<path d="M66.1533 68.0053C66.1533 68.7775 65.5274 69.4034 64.7552 69.4034C63.983 69.4034 63.3571 68.7775 63.3571 68.0053C63.3571 67.2331 63.983 66.6072 64.7552 66.6072C65.5274 66.6072 66.1533 67.2331 66.1533 68.0053Z" fill="#B08F54"/>
<path d="M53.7118 31.4805H55.5215V69.8968H53.7118V31.4805Z" fill="#D3BD96"/>
<path d="M47.2646 24.417L44.5855 26.7487H29.2323L34.0446 24.417H47.2646Z" fill="#D3BD96"/>
<path d="M47.4639 24.1208L44.7845 26.4526L32.0839 26.5882C31.08 26.5988 30.1124 26.2143 29.3895 25.5178C30.4402 25.738 31.5353 25.5794 32.4805 25.0706L34.2435 24.1211H47.4639V24.1208Z" fill="#F0ECE4"/>
<path d="M36.7267 28.1128L37.0562 28.0872L37.0585 28.1166C37.0551 28.072 37.0884 28.0331 37.1331 28.0297L37.8621 27.9733L37.9118 27.9695L38.067 27.9574C38.111 27.954 38.1487 27.9868 38.153 28.0302L38.1504 27.9989L50.4754 27.0471C50.4754 27.0471 51.0487 27.0811 51.4776 27.1263C51.7256 27.1519 51.9182 27.1818 51.9199 27.204C51.9225 27.2374 51.7369 27.2964 51.4957 27.36C51.0789 27.4705 50.5169 27.581 50.5169 27.581L38.1919 28.5327L38.1893 28.4996C38.1916 28.5434 38.1594 28.5814 38.1153 28.5848L37.3829 28.6415L37.3331 28.6453L37.1814 28.6571C37.1368 28.6605 37.0979 28.6271 37.0945 28.5825L37.0968 28.6119L36.7673 28.6375C36.7114 28.6418 36.6625 28.6001 36.6582 28.544L36.6334 28.2219C36.6288 28.1661 36.6706 28.1172 36.7267 28.1128Z" fill="#D3BD96"/>
<path d="M50.4744 26.8894L50.5156 27.4233L38.1909 28.3752L38.1496 27.8412L50.4744 26.8894Z" fill="#FFB900"/>
<path d="M37.1322 28.4987L38.1636 28.419C38.1812 28.4176 38.1944 28.4023 38.1933 28.3845L38.1498 27.821C38.1484 27.8034 38.1331 27.7902 38.1153 27.7913L37.0838 27.8711C37.066 27.8725 37.053 27.8877 37.0542 27.9056L37.0976 28.4691C37.0991 28.4869 37.1146 28.5002 37.1322 28.4987Z" fill="#F5EEE3"/>
<path d="M36.7052 28.4799L37.0957 28.4497L37.0551 27.925L36.6646 27.9553C36.6424 27.957 36.6257 27.9763 36.6274 27.9984L36.6617 28.4428C36.6637 28.465 36.683 28.4817 36.7052 28.4799Z" fill="#D95E5B"/>
<path d="M37.9862 27.7961L38.0361 27.7922L38.0846 28.4198L38.0347 28.4236L37.9862 27.7961Z" fill="#BFBFB7"/>
<path d="M37.8622 27.8056L37.9121 27.8018L37.9606 28.4293L37.9106 28.4331L37.8622 27.8056Z" fill="#BFBFB7"/>
<path d="M37.2841 27.85L37.334 27.8462L37.3824 28.4737L37.3325 28.4776L37.2841 27.85Z" fill="#BFBFB7"/>
<path d="M37.1679 27.8591L37.2178 27.8552L37.2662 28.4828L37.2163 28.4866L37.1679 27.8591Z" fill="#BFBFB7"/>
<path d="M50.495 27.1562L50.5156 27.4231L38.1909 28.375L38.1703 28.1081L50.495 27.1562Z" fill="#D49C00"/>
<path d="M50.5166 27.4189L50.4754 26.885C50.4754 26.885 51.915 27.0154 51.917 27.0421C51.919 27.0689 50.5166 27.4189 50.5166 27.4189Z" fill="#D49C00"/>
<path d="M50.4757 26.885L50.5169 27.4189C50.5169 27.4189 51.0789 27.3084 51.4957 27.1978C51.7369 27.1345 51.9225 27.0752 51.9199 27.0421C51.9182 27.02 51.7256 26.9901 51.4776 26.9644C51.049 26.919 50.4757 26.885 50.4757 26.885Z" fill="#EAC49E"/>
<path d="M51.4776 26.9641L51.4957 27.1978C51.7369 27.1345 51.9225 27.0752 51.9199 27.0421C51.9182 27.0197 51.7256 26.9897 51.4776 26.9641Z" fill="#575753"/>
<path d="M20.9777 28.0129L21.2974 28.3761L22.6121 28.594L24.2681 28.9209L24.8348 28.8047L25.0601 29.0369L27.1156 28.8047L27.566 27.4172L27.8639 27.4025L28.4668 25.7465L28.0964 25.3542L23.3604 26.7999L20.9777 28.0129Z" fill="#D3BD96"/>
<path d="M21.1414 27.1727L21.6548 28.1342L22.5349 28.3112L23.0112 27.9731L23.5071 28.5064L24.2712 28.6601L24.6416 28.0229L25.3194 28.0836L25.6892 28.8065L26.8905 28.6045L27.043 27.1111L27.5688 27.0018L28.7793 25.5386L28.0083 24.7943L27.2966 24.6191L25.9934 24.7454L25.8711 24.2846L26.2101 23.8999L25.6627 23.5007L24.4796 23.0955L22.5349 24.6499L22.6083 25.9214L21.1414 27.1727Z" fill="#F0ECE4"/>
<path d="M25.8709 24.2847L25.714 23.8579L24.2819 25.897L24.7836 26.9489L25.6979 26.0671L25.9932 24.7455L25.8709 24.2847Z" fill="#E6E2D9"/>
<path d="M26.4131 25.6036L25.9935 24.7454L25.6982 26.0669L24.7839 26.9488L24.6713 27.2763L25.8668 26.3501L26.4131 25.6036Z" fill="#E1DDD4"/>
<path d="M28.0083 24.7944L27.7274 25.305L26.413 25.6037L25.8668 26.3503L27.0306 25.8435L28.1988 26.2403L28.7793 25.5387L28.0083 24.7944Z" fill="#FFF7F0"/>
<path d="M26.2949 24.7163V25.1466L26.6523 25.5492L26.4132 25.6036L25.9936 24.7454L26.2949 24.7163Z" fill="#D6D3CB"/>
<path d="M27.5693 27.0018L26.7002 26.2241L26.4135 26.5326L25.8034 26.6092L27.0435 27.1111L27.5693 27.0018Z" fill="#E6E2D9"/>
<path d="M25.8028 26.6091L27.0116 27.4181L27.043 27.111L25.8028 26.6091Z" fill="#E1DDD4"/>
<path d="M25.8669 28.2063L26.8906 28.6046L25.6894 28.8066L25.8669 28.2063Z" fill="#E6E2D9"/>
<path d="M25.3198 28.0835L25.6896 28.8064L25.8672 28.2061L25.3198 28.0835Z" fill="#D6D3CB"/>
<path d="M26.1172 27.7331L27.0117 27.4182L26.9297 28.2223L26.1172 28.0612L25.8669 28.2062L26.1172 27.7331Z" fill="#E1DDD4"/>
<path d="M24.96 23.2601L24.671 24.2349L23.224 24.5532L22.5614 25.1106L22.5347 24.6499L24.4793 23.0955L24.96 23.2601Z" fill="#E6E2D8"/>
<path d="M24.4795 23.0955L24.2821 24.099H23.2241L24.4795 23.0955Z" fill="#F2EEE4"/>
<path d="M24.6719 24.2349L23.2248 24.5532L22.5623 25.1106L22.5908 25.6036L23.3762 25.4033L23.4159 25.8463L23.7938 25.0407L24.6719 24.2349Z" fill="#D6D3CB"/>
<path d="M25.7139 23.8578L24.9598 23.26L25.0562 24.7943L25.7139 23.8578Z" fill="#F5F1E7"/>
<path d="M25.0566 24.7944L23.4153 25.8463L23.2242 26.9489L24.2186 26.6093L24.0899 25.8348L25.0566 24.7944Z" fill="#F5F2EB"/>
<path d="M24.2823 25.897L24.9961 24.8845L24.0901 25.8348L24.2187 26.6093H24.6219L24.2823 25.897Z" fill="#D6D3CB"/>
<path d="M22.6084 25.9214L22.535 26.2952L21.9657 26.4696L22.6084 25.9214Z" fill="#D6D3CB"/>
<path d="M21.1414 27.1728L21.5739 27.4183L21.9656 27.2957L22.2871 27.4183L21.9656 27.0137L21.6329 27.216L21.1414 27.1728Z" fill="#D6D3CB"/>
<path d="M21.802 26.6091L22.5615 27.2158L22.287 27.4181L21.9655 27.0135L21.6328 27.2158L21.1412 27.1726L21.802 26.6091Z" fill="#F5F1E7"/>
<path d="M23.2242 26.9487L24.1943 27.1735L23.7094 27.8585V27.2762L23.2242 26.9487Z" fill="#D6D3CB"/>
<path d="M22.5354 26.82L23.543 27.3035L23.617 28.3764L23.71 27.8586V27.2764L22.8607 26.6677L22.5354 26.82Z" fill="#FFF6ED"/>
<path d="M21.6546 28.1342L22.9951 27.71L23.5068 28.5063L23.011 27.973L22.5346 28.3112L21.6546 28.1342Z" fill="#D6D3CB"/>
<path d="M22.1081 27.9906L23.1053 27.5217L23.2754 28.1463L22.9951 27.71L22.1081 27.9906Z" fill="#F5F1E7"/>
<path d="M24.2712 28.6601L24.4413 27.9441L25.3193 28.0837L24.6416 28.0229L24.2712 28.6601Z" fill="#D6D3CB"/>
<path d="M25.8672 27.5218L24.3893 27.4038L23.804 28.302L24.5894 27.6608L25.8672 27.5218Z" fill="#D6D3CB"/>
<path d="M24.712 25.9214L25.7139 23.8579L24.2818 25.897L24.7834 26.9489L24.712 25.9214Z" fill="#F0ECE4"/>
<path d="M25.929 24.5037L25.5419 26.044L24.7836 26.9488L25.6979 26.067L25.9932 24.7454L25.929 24.5037Z" fill="#F0ECE4"/>
<path d="M28.7035 64.3218L39.7109 65.479L35.4066 70.0585L23.0186 68.1602L28.7035 64.3218Z" fill="#E0D5BD"/>
<path d="M31.3506 67.3157L42.2881 69.0123L37.7639 73.3747L25.4841 70.8703L31.3506 67.3157Z" fill="#EDE3CF"/>
<path d="M28.5375 67.7886L36.5855 63.1921L44.6338 64.9359L36.144 70.641L28.5375 67.7886Z" fill="#F5EDDC"/>
<path d="M13.2407 74.8411L17.0469 69.0713L16.7643 67.611L16.294 67.708L16.8126 67.2561L16.5467 66.4854L16.4157 66.311L16.5193 65.4842L15.7374 65.854L16.6345 65.2329L16.7525 63.6276L16.1386 64.0644L16.6227 63.486L16.6817 62.27L16.3156 62.506L16.7761 61.8498L17.0469 59.3555L11.1297 65.2896L13.2407 74.8411Z" fill="#D3CAB8"/>
<path d="M12.7325 69.3437L13.7481 66.997L12.8594 65.5736L13.6212 64.4313L2.13228 63.8462L2.62385 64.9908L1.24442 66.5999L2.77235 66.8641L1.59151 67.0552L0.901941 68.5943L1.80044 69.0709L1.27838 70.2333V71.0351L1.14225 73.4486L0.63256 73.8095L0.482038 74.841H13.2405L14.1289 73.1907L12.7325 69.3437Z" fill="#DED5C2"/>
<path d="M6.00805 59.2686L2.13254 63.8463L13.6215 64.4314L17.0469 59.3555L6.00805 59.2686Z" fill="#EDE3CF"/>
<path d="M10.6414 65.27L12.8595 65.574L14.5986 64.4314L13.0344 65.854L10.6414 65.27Z" fill="#BFB7A6"/>
<path d="M13.7482 66.997L14.5986 65.9736L13.5484 66.6773L11.7724 66.4853L13.7482 66.997Z" fill="#BFB7A6"/>
<path d="M12.7326 69.3439L13.8662 68.8635L12.7326 69.1035H9.58951L12.7326 69.3439Z" fill="#BFB7A6"/>
<path d="M13.3777 71.1213L15.5762 68.5981L13.5144 71.4977L7.14682 71.2816L13.3777 71.1213Z" fill="#BFB7A6"/>
<path d="M14.0884 72.9036L15.0166 71.3406L14.1293 73.1908H12.3035L14.0884 72.9036Z" fill="#BFB7A6"/>
<path d="M3.27997 65.7446L9.12402 65.9737L1.61792 66.1199L3.27997 65.7446Z" fill="#D3CAB8"/>
<path d="M3.42014 67.3303L11.5059 67.6262L5.93464 67.9712L3.42014 67.3303Z" fill="#D3CAB8"/>
<path d="M1.47201 69.9188L9.12402 69.8201L4.87409 70.2391L1.47201 69.9188Z" fill="#D3CAB8"/>
<path d="M2.13189 72.2656L10.4697 72.5566L5.68707 72.8032L2.13189 72.2656Z" fill="#D3CAB8"/>
<path d="M63.8915 83.1841L67.7676 79.3445V76.9362L67.2556 76.866L67.5301 76.7552V74.1866L66.8627 74.2796L67.7267 73.8614L67.7411 71.0289L66.8973 71.3912L67.5301 70.7946L67.6389 68.1943L63.8944 71.7823L62.8186 74.8828L63.8915 83.1841Z" fill="#D3CAB8"/>
<path d="M63.5139 77.2705L64.1326 75.569L63.6169 73.3513L63.8949 71.7825H53.3707L52.5136 73.6347L53.8994 73.8428H52.783L53.0814 75.2743L54.1566 75.3673L53.0644 75.4272L52.3248 77.3327L53.828 77.4835L52.5182 77.6432L52.6491 81.1558H53.687L52.2534 81.5216L52.5188 83.1842H63.892L64.6826 80.6401L63.5139 77.2705Z" fill="#DED5C2"/>
<path d="M58.3499 68.1943L53.3699 71.7823H63.8941L67.6387 68.1943H58.3499Z" fill="#F5EAD6"/>
<path d="M62.8188 75.4103L64.1323 75.5689L65.4375 74.8828L64.0753 75.3971L62.8188 75.4103Z" fill="#D3CAB8"/>
<path d="M62.8188 78.3851H63.9001L65.4375 77.4834L63.8733 78.2176L62.8188 78.3851Z" fill="#D3CAB8"/>
<path d="M62.995 80.64H64.6823L65.8252 79.8152L64.6009 80.4052L62.995 80.64Z" fill="#D3CAB8"/>
<path d="M62.4607 72.7545L63.6427 73.2003L64.9404 72.4124L63.7124 72.8063L62.4607 72.7545Z" fill="#D3CAB8"/>
<path d="M55.5574 73.6947H61.251L58.7261 73.5247L55.5574 73.6947Z" fill="#D3CAB8"/>
<path d="M55.1574 76.162L61.6058 75.5688L62.3438 75.789L55.1574 76.162Z" fill="#D3CAB8"/>
<path d="M54.6465 77.9536L58.893 77.3325L61.8145 77.7185L54.6465 77.9536Z" fill="#D3CAB8"/>
<path d="M53.3702 79.3985L60.0409 78.9812L60.8965 79.1899L53.3702 79.3985Z" fill="#D3CAB8"/>
<path d="M54.6467 80.4628L63.7012 80.1707L57.7872 80.6401L54.6467 80.4628Z" fill="#D3CAB8"/>
<path d="M54.1348 82.4453L60.625 81.6521L62.3438 82.2363L54.1348 82.4453Z" fill="#D3CAB8"/>
<path d="M64.9409 73.8614L66.8629 72.4124L67.0186 72.6348L64.9409 73.8614Z" fill="#BFB7A6"/>
<path d="M65.6184 76.076L66.8623 75.1052L65.4368 76.3836L65.6184 76.076Z" fill="#BFB7A6"/>
<path d="M65.1182 78.3851L66.7469 77.092H67.0186L65.1182 78.3851Z" fill="#BFB7A6"/>
<path d="M65.4375 80.9201L67.2559 79.3447L67.1563 79.0603L65.4375 80.9201Z" fill="#BFB7A6"/>
<path d="M63.5133 77.2705L62.0308 77.1433L63.6448 76.9085L65.2588 76.0762L63.5133 77.2705Z" fill="#D3CAB8"/>
<path d="M76.2553 87.7982L80.0557 84.0341V81.6733L79.5537 81.6042L79.8228 81.4954V78.9775L79.1684 79.0684L80.0154 78.6586L80.0295 75.8819L79.2021 76.2367L79.8225 75.6519L79.7569 72.6692L76.2584 76.6204L75.2037 79.6598L76.2553 87.7982Z" fill="#D3CAB8"/>
<path d="M76.6025 80.914L75.9475 79.5743L76.6025 77.9483L76.2589 76.6204H65.941L65.3933 77.8044L66.5155 78.1716L65.3234 78.4119L64.9159 82.0615L66.3894 82.2094L65.1251 82.8952L65.2336 85.8095L64.8459 86.1684L65.1061 87.7982H76.2557L76.6025 85.1968L76.0692 83.4116L76.6025 80.914Z" fill="#DED5C2"/>
<path d="M70.6503 72.6692L65.9405 76.6204H76.2583L79.7568 72.6692H70.6503Z" fill="#F5EAD6"/>
<path d="M68.0851 78.4953H73.667L71.1916 78.3284L68.0851 78.4953Z" fill="#D3CAB8"/>
<path d="M67.693 80.9141L74.0148 80.3328L74.7383 80.5486L67.693 80.9141Z" fill="#D3CAB8"/>
<path d="M67.1925 82.6705L71.3555 82.0615L74.2197 82.44L67.1925 82.6705Z" fill="#D3CAB8"/>
<path d="M65.9407 84.0867L72.4804 83.6777L73.3193 83.8824L65.9407 84.0867Z" fill="#D3CAB8"/>
<path d="M67.1915 85.1304L76.0684 84.844L70.2704 85.3042L67.1915 85.1304Z" fill="#D3CAB8"/>
<path d="M66.6903 87.0737L73.0529 86.2964L74.7383 86.8691L66.6903 87.0737Z" fill="#D3CAB8"/>
<path d="M77.2845 78.6587L79.1688 77.2378L79.3213 77.4562L77.2845 78.6587Z" fill="#BFB7A6"/>
<path d="M77.9495 80.8297L79.1689 79.8779L77.7714 81.1313L77.9495 80.8297Z" fill="#BFB7A6"/>
<path d="M77.4584 83.0934L79.0551 81.8259H79.3213L77.4584 83.0934Z" fill="#BFB7A6"/>
<path d="M77.7708 85.5788L79.5537 84.0342L79.4559 83.7556L77.7708 85.5788Z" fill="#BFB7A6"/>
<path d="M75.6325 78.412L76.4812 78.2482L77.2197 77.7739L76.6021 77.9483L75.6325 78.412Z" fill="#D3CAB8"/>
<path d="M74.8236 80.98L76.6014 80.9141L77.3672 80.3328L76.4693 80.6439L74.8236 80.98Z" fill="#D3CAB8"/>
<path d="M75.9467 79.5743L77.0273 78.9285L76.0543 79.3072L74.5905 79.2856L75.9467 79.5743Z" fill="#D3CAB8"/>
<path d="M75.097 83.3557L76.0681 83.4115L77.3672 82.4595L76.136 83.0932L75.097 83.3557Z" fill="#D3CAB8"/>
<path d="M75.6321 84.4269L76.2324 84.0867L77.0273 83.5471L76.4258 84.4269H75.6321Z" fill="#D3CAB8"/>
<path d="M75.4285 87.0737L76.3301 87.2381L77.2842 86.1177L76.3301 86.9126L75.4285 87.0737Z" fill="#D3CAB8"/>
<path d="M48.6834 71.9964C48.6834 71.9964 53.0899 71.9141 54.5588 69.4111C56.028 66.9081 55.3784 65.027 55.3784 65.027L51.0258 64.1406C51.0258 64.1406 51.0258 65.8976 49.4478 67.7727C48.1768 69.283 44.2466 69.4946 44.2466 69.4946L48.6834 71.9964Z" fill="#EDE3CF"/>
<path d="M28.073 59.0264H28.5801V68.7514H28.073V59.0264Z" fill="#D3B581"/>
<path d="M24.5447 59.2946L25.3809 68.8032L24.8757 68.8476L24.0396 59.339L24.5447 59.2946Z" fill="#D3B581"/>
<path d="M31.8842 59.4469L32.3896 59.4875L31.6257 68.995L31.1202 68.9544L31.8842 59.4469Z" fill="#D3B581"/>
<path d="M22.8288 59.6116L23.627 69.0803L23.1219 69.1229L22.3237 59.6542L22.8288 59.6116Z" fill="#D3B581"/>
<path d="M26.7302 59.0143L27.125 68.2529L26.6184 68.2746L26.2235 59.0359L26.7302 59.0143Z" fill="#D3B581"/>
<path d="M30.1061 59.1914L30.6133 59.2073L30.3295 68.2678L29.8224 68.252L30.1061 59.1914Z" fill="#D3B581"/>
<path d="M33.7209 59.4481L34.2256 59.4976L33.2843 69.096L32.7796 69.0465L33.7209 59.4481Z" fill="#D3B581"/>
<path d="M25.0508 62.7949L26.299 60.9962L27.8212 61.3312L28.8112 60.4597L30.7412 62.4824L29.1315 69.7821L24.6499 68.1952L25.9689 64.2417L25.0508 62.7949Z" fill="#F0ECE7"/>
<path d="M21.2234 63.9936L22.4716 62.1949L23.9941 62.5299L24.9838 61.6584L26.9141 63.6808L25.8429 69.018L22.0851 68.0902L22.1415 65.4404L21.2234 63.9936Z" fill="#E3DED7"/>
<path d="M27.2412 68.0291L28.4434 69.859L27.5636 71.146L28.0022 72.3899L25.4051 73.4245L20.8547 70.4369L23.1194 67.2979L25.5562 68.3403L27.2412 68.0291Z" fill="#E3D5C3"/>
<path d="M34.5039 64.8116L35.7061 66.6417L34.8263 67.9285L35.2649 69.1723L32.6678 70.207L28.1174 67.2193L30.3821 64.0806L32.8189 65.1227L34.5039 64.8116Z" fill="#E3D5C3"/>
<path d="M28.7822 61.8339L30.4468 60.4116L31.8338 61.1225L33.0129 60.5313L34.3652 62.9782L31.9725 67.8676L28.5741 66.0148L29.3023 63.4666L28.7822 61.8339Z" fill="#EBE6DF"/>
<path d="M29.088 67.3639L31.1711 66.6904L32.1787 67.8799L33.4942 67.7872L33.8027 70.5659L28.0962 75.3943L25.4948 71.4149L28.9409 69.0711L29.088 67.3639Z" fill="#FFF1E5"/>
<path d="M35.8691 60.74H35.362C35.362 60.1523 32.5517 59.2981 28.1483 59.2981C23.745 59.2981 20.9347 60.1523 20.9347 60.74H20.4276C20.4276 59.4604 24.3117 58.791 28.1483 58.791C31.9853 58.791 35.8691 59.4604 35.8691 60.74Z" fill="#C9A360"/>
<path d="M34.8184 64.7829L35.0314 65.0039L34.7396 65.5559L34.5819 65.8478L34.1323 66.6919H31.7816L32.1836 65.9661L32.2547 65.8322L31.7577 65.3746L31.0558 64.7199L30.89 64.5699L30.7403 64.4281L30.89 64.1912L31.1268 63.8205L31.6239 63.0317H33.0752L33.4776 62.6768L33.6036 62.5743L34.2031 62.0537L35.0078 62.4638L35.0867 62.5033L35.4102 62.669L35.0236 63.1658L34.8501 63.3868L34.2348 64.1834L34.6766 64.641L34.8184 64.7829Z" fill="#F0ECE4"/>
<path d="M32.4605 65.1301H32.4999L32.3422 65.9267L32.1842 65.9661L32.2553 65.8323L31.7583 65.3747L31.8846 64.5936L32.626 64.4834L32.4605 65.1301Z" fill="#DEDAD3"/>
<path d="M32.9893 63.0317L32.7527 63.9705L31.9955 63.8994L32.1374 63.0317H32.9893Z" fill="#DEDAD3"/>
<path d="M32.752 63.9705L32.6256 64.4834L31.8842 64.5936L31.9947 63.8994L32.752 63.9705Z" fill="#DEDAD3"/>
<path d="M34.1953 65.5164L34.1795 65.54L32.7989 65.8321L32.8936 65.1299H33.7377L34.1953 65.5164Z" fill="#DEDAD3"/>
<path d="M32.4993 65.1299H32.8936L32.7989 65.8321L32.3416 65.9265L32.4993 65.1299Z" fill="#DEDAD3"/>
<path d="M34.8184 64.7828L34.4949 65.1615L34.1953 65.5164L33.7377 65.1298H33.7852L34.2977 64.8458L34.6765 64.6409L34.8184 64.7828Z" fill="#DEDAD3"/>
<path d="M34.3291 63.6313L33.9109 64.2227L33.8162 64.065L33.3586 64.0256L33.6191 63.4022L33.4772 62.6767L33.6033 62.5742L34.3291 63.6313Z" fill="#DEDAD3"/>
<path d="M33.9111 64.2228L33.4535 64.8853L33.28 65.1299H32.9015L33.1223 64.6093L33.3588 64.0256L33.8164 64.0651L33.9111 64.2228Z" fill="#DEDAD3"/>
<path d="M34.2979 64.846L33.7853 65.13H33.7378L33.4537 64.8854L33.9113 64.2229L34.2979 64.846Z" fill="#DEDAD3"/>
<path d="M32.7998 65.8323L32.6896 66.6919H32.2003L32.3425 65.9267L32.7998 65.8323Z" fill="#DEDAD3"/>
<path d="M31.9951 63.8994L31.8846 64.5936L31.0563 64.7199L30.8905 64.57V64.1912L31.1274 63.8206L31.9951 63.8994Z" fill="#DEDAD3"/>
<path d="M34.7402 65.556L34.5825 65.8478L34.196 65.5165L33.7384 65.13H33.7859L34.2985 64.8459L34.4956 65.1617L34.7402 65.556Z" fill="#E6E1DA"/>
<path d="M34.9056 62.811L35.0239 63.1658L34.8503 63.3868L34.4638 63.1422L34.6374 62.6768L35.0081 62.4639L35.0869 62.5033L34.9056 62.811Z" fill="#DEDAD3"/>
<path d="M31.168 64.2823L30.2686 65.4182L29.2037 65.6861V64.8501L27.7996 64.9764L27.4761 65L27.0818 65.0395L26.6953 65.0708L26.8294 64.0218L25.5829 63.1699L26.5453 62.0417L26.9083 62.0734L27.0501 62.0892L28.1072 62.1917L29.5269 61.0874L30.5682 62.3575L30.4105 63.1699L31.168 64.2823Z" fill="#DEDAD3"/>
<path d="M29.2039 65.3154V64.8501L27.7997 64.9764L27.7128 64.7237L29.7953 64.2664L29.7245 62.8464L28.3756 62.5074L28.6674 62.2705L30.0477 62.6176L30.166 64.3847L29.2039 65.3154Z" fill="#CAC6C0"/>
<path d="M29.3223 63.2881L27.4763 63.154V64.9999L27.082 65.0393V65.0077L27.2556 62.72L29.2512 63.0593L29.3223 63.2881Z" fill="#CAC6C0"/>
<path d="M26.8846 62.7835L27.082 63.1936H26.4667V62.7202L26.9085 62.0735L27.0504 62.0893L27.082 62.4047H26.8846V62.7835Z" fill="#CAC6C0"/>
<path d="M28.0967 64.6397L29.7562 63.4709L29.7959 64.2664L28.0967 64.6397Z" fill="#B5B2AC"/>
<path d="M21.9452 64.1934L23.0135 62.683L23.9408 62.959L24.4879 62.4807L25.8708 63.4535L25.511 64.4412L27.2842 65.3532L26.5601 66.501L25.7341 66.3905L23.8191 68.2994L22.5729 67.1008L22.9986 65.9804L21.4787 65.3901L22.1323 64.7756L21.9452 64.1934Z" fill="#CAC6C0"/>
<path d="M25.4555 62.7314L24.9398 65.7105L23.2375 67.1869L25.5914 66.1229L26.0078 64.6968L25.5108 64.4413L25.8705 63.4535L25.4555 62.7314Z" fill="#D9D5CE"/>
<path d="M22.9544 64.3713L23.3496 66.297L23.9914 66.0624L24.3057 65.2108L23.7816 65.7539L23.5099 64.5935L24.1644 64.643L22.9544 64.3713Z" fill="#D9D5CE"/>
<path d="M22.9551 63.6045L24.4533 64.0903L24.6231 65.1526L24.8036 64.2486L25.0635 63.8304L24.1707 63.7628L22.9551 63.6045Z" fill="#B5B2AC"/>
<path d="M34.4316 71.1973L33.7674 77.0433C33.7674 77.7482 31.2526 78.316 28.1493 78.316C25.0462 78.316 22.5311 77.7482 22.5311 77.0433L21.8669 71.1973C22.7746 71.7602 25.2436 72.1605 28.149 72.1605C31.0549 72.1605 33.5239 71.7599 34.4316 71.1973Z" fill="#C9A360"/>
<path d="M34.9675 61.9819C33.2965 62.7178 30.1845 62.9423 28.1498 62.9423C26.115 62.9423 23.0031 62.7175 21.3324 61.9819L22.27 70.2576L22.3408 70.8746C23.1985 71.2678 25.266 71.6531 28.1498 71.6531C31.0335 71.6531 33.1011 71.2675 33.9587 70.8746L34.0298 70.2567L34.9675 61.9819ZM35.6084 60.8281L34.5335 70.3149L34.4322 71.1972C33.5244 71.7602 31.0554 72.1605 28.1498 72.1605C25.2445 72.1605 22.7751 71.7599 21.8677 71.1972L21.7664 70.3149L20.6915 60.8281C20.8892 61.7206 24.1546 62.4355 28.1501 62.4355C32.1453 62.4355 35.4107 61.7206 35.6084 60.8281Z" fill="#C9A360"/>
<path d="M28.1493 62.689C24.3127 62.689 20.4285 62.0195 20.4285 60.74H20.9356C20.9356 61.3277 23.746 62.1819 28.1493 62.1819C32.5527 62.1819 35.363 61.3277 35.363 60.74H35.8701C35.8701 62.0195 31.9863 62.689 28.1493 62.689Z" fill="#C9A360"/>
<path d="M27.8962 62.4353H28.4033V72.1603H27.8962V62.4353Z" fill="#C9A360"/>
<path d="M24.368 62.1345L25.2041 71.6431L24.6989 71.6875L23.8628 62.1789L24.368 62.1345Z" fill="#C9A360"/>
<path d="M31.932 62.144L32.4375 62.1846L31.6735 71.692L31.168 71.6514L31.932 62.144Z" fill="#C9A360"/>
<path d="M28.1502 66.3871C25.1999 66.3871 22.6529 65.9945 21.6611 65.3859C21.3325 65.1858 21.1656 64.9527 21.1656 64.6931H21.6727C21.6727 64.742 21.7389 64.8396 21.9256 64.9536C22.8299 65.5076 25.3312 65.88 28.1502 65.88C30.9692 65.88 33.4704 65.5076 34.3744 64.9536C34.5615 64.8396 34.6277 64.742 34.6277 64.6931H35.1348C35.1348 64.9527 34.9678 65.1858 34.6389 65.3864C33.6471 65.9946 31.1001 66.3871 28.1502 66.3871Z" fill="#C9A360"/>
<path d="M28.15 69.782C25.3626 69.782 22.9549 69.3878 22.0155 68.7779C21.6281 68.5278 21.5467 68.2648 21.5467 68.0886H22.0538C22.0538 68.1422 22.1162 68.2397 22.2912 68.3525C23.1411 68.9045 25.4953 69.2749 28.15 69.2749C30.8043 69.2749 33.1585 68.9045 34.0078 68.3531C34.1834 68.2397 34.2458 68.1422 34.2458 68.0886H34.7529C34.7529 68.2648 34.6715 68.5278 34.2838 68.7785C33.3447 69.3878 30.937 69.782 28.15 69.782Z" fill="#C9A360"/>
<path d="M22.9303 61.9964L23.7285 71.4651L23.2235 71.5077L22.4253 62.0389L22.9303 61.9964Z" fill="#C9A360"/>
<path d="M26.5544 62.4232L26.9492 71.6619L26.4426 71.6835L26.0477 62.4448L26.5544 62.4232Z" fill="#C9A360"/>
<path d="M29.9294 62.6003L30.4365 62.6162L30.1528 71.6768L29.6456 71.6609L29.9294 62.6003Z" fill="#C9A360"/>
<path d="M33.6086 61.868L34.1133 61.9175L33.172 71.5159L32.6673 71.4664L33.6086 61.868Z" fill="#C9A360"/>
<path d="M38.2866 91.9998L42.0928 86.23L41.8104 84.7697L41.3402 84.8667L41.8585 84.4148L41.5926 83.6441L40.7208 83.8769L41.832 83.091L41.6804 82.3916L42.0928 80.3281L40.6227 81.3138L41.7664 79.6923L42.0928 76.5142L36.1756 82.4483L38.2866 91.9998Z" fill="#D3CAB8"/>
<path d="M37.7791 86.5024L38.7947 84.156L37.9063 82.7325L38.6678 81.59L27.1789 81.0049L26.291 83.7585L26.6381 84.2138L25.9485 85.753L28.3139 86.0221L25.7332 86.2296L25.2112 87.392V88.1938L27.3622 88.3046L25.585 88.6215L26.1888 90.6073L25.6791 90.9685L25.5286 91.9997H38.2871L39.1758 90.3494L37.7791 86.5024Z" fill="#DED5C2"/>
<path d="M31.0539 76.4272L27.1784 81.005L38.6674 81.5901L42.0928 76.5142L31.0539 76.4272Z" fill="#EDE3CF"/>
<path d="M35.687 82.4287L37.9054 82.7326L39.6445 81.5901L38.0803 83.013L35.687 82.4287Z" fill="#D3CAB8"/>
<path d="M38.7938 84.156L39.6445 83.1323L38.5941 83.836L36.8181 83.644L38.7938 84.156Z" fill="#D3CAB8"/>
<path d="M37.7785 86.5026L38.9121 86.0222L37.7785 86.2622H34.6354L37.7785 86.5026Z" fill="#D3CAB8"/>
<path d="M38.4243 88.28L40.623 85.7568L38.561 88.6564L32.1934 88.4403L38.4243 88.28Z" fill="#D3CAB8"/>
<path d="M39.1343 90.0623L40.0625 88.4993L39.1755 90.3495H37.3497L39.1343 90.0623Z" fill="#D3CAB8"/>
<path d="M28.3271 82.9033L34.1709 83.1324L26.6651 83.2786L28.3271 82.9033Z" fill="#D3CAB8"/>
<path d="M27.9387 87.2068L36.0244 87.5026L30.4532 87.8477L27.9387 87.2068Z" fill="#D3CAB8"/>
<path d="M29.278 85.2052L36.9297 85.1064L32.68 85.5255L29.278 85.2052Z" fill="#D3CAB8"/>
<path d="M27.6869 90.0808L36.0244 90.3718L31.2421 90.6184L27.6869 90.0808Z" fill="#D3CAB8"/>
<path d="M39.1757 86.0395L41.2959 83.9331L39.4514 86.2798L39.1757 86.0395Z" fill="#BFB7A6"/>
<path d="M41.1919 78.7234L39.645 81.1072L41.3203 79.023L41.1919 78.7234Z" fill="#BFB7A6"/>
<path d="M41.3203 81.7498L39.9251 83.3062L41.0129 82.4842L41.3203 81.7498Z" fill="#BFB7A6"/>
<path d="M41.6855 86.0222L41.495 86.211L39.8425 87.8477L40.764 87.2068L41.6855 86.0222Z" fill="#BFB7A6"/>
<path d="M41.2563 83.1941C41.2563 83.1941 41.1982 84.6432 42.9391 85.5788C44.6797 86.5144 47.7548 86.0099 47.7548 86.0099L49.5449 89.4736C49.5449 89.4736 44.5784 90.0175 41.8944 89.2773C39.2103 88.5368 38.6923 86.6854 38.6923 86.6854L41.2563 83.1941Z" fill="#EDE3CF"/>
<path d="M21.9036 70.8167C21.9036 70.8167 22.1183 74.3353 20.4404 75.576C18.7626 76.8167 16.5626 76.5611 16.5626 76.5611L13.0204 79.1286C13.0204 79.1286 17.7933 79.7252 20.1423 79.1286C22.4913 78.532 23.5078 75.3999 23.5078 75.3999L21.9036 70.8167Z" fill="#EDE3CF"/>
</svg>
