<svg width="18" height="18" viewBox="0 0 18 18" fill="none" xmlns="http://www.w3.org/2000/svg">
<path fill-rule="evenodd" clip-rule="evenodd" d="M13.798 9.59906C12.9667 9.59906 12.1541 9.84564 11.463 10.3076C10.7719 10.7695 10.2334 11.4261 9.9155 12.1942C9.59764 12.9623 9.51476 13.8074 9.67734 14.6227C9.83993 15.4379 10.2407 16.1866 10.8289 16.774C11.4171 17.3614 12.1663 17.7611 12.9817 17.9226C13.7972 18.0841 14.6422 18.0001 15.4099 17.6812C16.1775 17.3623 16.8334 16.8229 17.2944 16.1312C17.7554 15.4394 18.0009 14.6265 17.9998 13.7952C17.9968 12.6823 17.553 11.6158 16.7655 10.8294C15.978 10.0429 14.911 9.60054 13.798 9.59906ZM13.798 16.7989C13.205 16.7989 12.6254 16.6231 12.1324 16.2937C11.6393 15.9642 11.2551 15.496 11.0281 14.9482C10.8012 14.4003 10.7418 13.7975 10.8575 13.216C10.9732 12.6344 11.2587 12.1002 11.678 11.6809C12.0973 11.2616 12.6315 10.9761 13.2131 10.8604C13.7947 10.7447 14.3975 10.8041 14.9453 11.031C15.4931 11.2579 15.9614 11.6422 16.2908 12.1352C16.6202 12.6283 16.7961 13.2079 16.7961 13.8009C16.7946 14.5955 16.4782 15.3573 15.9163 15.9192C15.3544 16.4811 14.5927 16.7975 13.798 16.7989Z" fill="#A3A3A5"/>
<path fill-rule="evenodd" clip-rule="evenodd" d="M17.1222 0.874818C16.8444 0.595458 16.5139 0.374039 16.1499 0.223408C15.7859 0.072777 15.3956 -0.00406734 15.0016 -0.00266674H2.99807C2.20339 -0.00117996 1.44168 0.315165 0.879758 0.877091C0.317832 1.43902 0.00148678 2.20072 0 2.99541V14.999C0 15.7941 0.315868 16.5567 0.878115 17.1189C1.44036 17.6812 2.20293 17.997 2.99807 17.997H8.99985V16.7989H2.99807C2.52069 16.7989 2.06286 16.6093 1.7253 16.2717C1.38774 15.9342 1.1981 15.4763 1.1981 14.999V5.99911H16.8016V8.99718H17.9997V2.99541C18.0011 2.60145 17.9242 2.21114 17.7736 1.84711C17.623 1.48309 17.4016 1.1526 17.1222 0.874818ZM1.20373 4.81225V2.99541C1.20373 2.51803 1.39337 2.0602 1.73093 1.72264C2.06849 1.38508 2.52632 1.19544 3.0037 1.19544H15.0016C15.479 1.19544 15.9368 1.38508 16.2744 1.72264C16.6119 2.0602 16.8016 2.51803 16.8016 2.99541V4.79538L1.20373 4.81225Z" fill="#A3A3A5"/>
<path fill-rule="evenodd" clip-rule="evenodd" d="M14.4003 11.9952H13.2021V13.7952C13.2026 13.9533 13.2653 14.1048 13.3765 14.2171L14.5746 15.4152L15.424 14.5658L14.4003 13.5477V11.9952Z" fill="#A3A3A5"/>
<path d="M7.20001 3.59728C7.53241 3.59728 7.80187 3.32782 7.80187 2.99542C7.80187 2.66302 7.53241 2.39355 7.20001 2.39355C6.86761 2.39355 6.59814 2.66302 6.59814 2.99542C6.59814 3.32782 6.86761 3.59728 7.20001 3.59728Z" fill="#A3A3A5"/>
<path d="M10.8001 3.59728C11.1325 3.59728 11.402 3.32782 11.402 2.99542C11.402 2.66302 11.1325 2.39355 10.8001 2.39355C10.4677 2.39355 10.1982 2.66302 10.1982 2.99542C10.1982 3.32782 10.4677 3.59728 10.8001 3.59728Z" fill="#A3A3A5"/>
</svg>
