<svg width="123" height="92" viewBox="0 0 123 92" fill="none" xmlns="http://www.w3.org/2000/svg">
<g clip-path="url(#clip0_886_55097)">
<path d="M122.952 0H0.310547V91.9808H122.952V0Z" fill="#8F2682"/>
<path d="M125 -5H91.7773C91.7107 -4.44386 91.6591 -3.8825 91.6355 -3.3134H91.6179C83.544 -3.3134 77 3.16532 77 11.1568C77 15.2381 78.7096 18.9225 81.4567 21.5533C80.1697 23.7224 79.4302 26.2464 79.4302 28.9445C79.4302 37.0219 86.0454 43.5705 94.2062 43.5705C94.7014 43.5705 95.1887 43.5388 95.6715 43.4916C96.1771 43.5433 96.6912 43.5705 97.2113 43.5705C97.5595 43.5705 97.9044 43.5563 98.2468 43.533C99.9858 46.1127 102.95 47.8161 106.32 47.8161C106.835 47.8161 107.34 47.7754 107.832 47.6984C108.32 47.7734 108.818 47.8161 109.326 47.8161C109.748 47.8161 110.163 47.7864 110.57 47.734C110.982 47.7871 111.403 47.8161 111.83 47.8161C112.345 47.8161 112.85 47.7754 113.343 47.6984C113.375 47.7029 113.405 47.7093 113.436 47.7139V95.1634C113.436 96.1774 114.267 97 115.294 97C115.913 97 116.458 96.6961 116.795 96.2337C117.132 96.6961 117.677 97 118.299 97C118.783 97 119.22 96.8118 119.55 96.5111C119.88 96.8118 120.318 97 120.803 97C121.423 97 121.968 96.6961 122.305 96.2337C122.642 96.6961 123.188 97 123.808 97C124.263 97 124.678 96.8377 125 96.5693V-5Z" fill="#D5607D" fill-opacity="0.2"/>
<path d="M0 -1H33.2227C33.2893 -0.492927 33.3409 0.018899 33.3645 0.537784H33.3821C41.456 0.537784 48 6.44485 48 13.7312C48 17.4524 46.2904 20.8117 43.5433 23.2103C44.8303 25.188 45.5698 27.4894 45.5698 29.9494C45.5698 37.3141 38.9546 43.2848 30.7938 43.2848C30.2986 43.2848 29.8113 43.256 29.3285 43.2129C28.8229 43.2601 28.3088 43.2848 27.7887 43.2848C27.4405 43.2848 27.0956 43.2719 26.7532 43.2507C25.0142 45.6028 22.0496 47.1559 18.68 47.1559C18.1652 47.1559 17.6602 47.1188 17.1676 47.0485C16.6803 47.1169 16.1825 47.1559 15.6743 47.1559C15.2522 47.1559 14.8374 47.1287 14.4297 47.081C14.0175 47.1294 13.5974 47.1559 13.1702 47.1559C12.6547 47.1559 12.1498 47.1188 11.6566 47.0485C11.6252 47.0526 11.5952 47.0585 11.5638 47.0627V90.3254C11.5638 91.25 10.7328 92 9.7065 92C9.08717 92 8.54171 91.7229 8.20525 91.3013C7.86817 91.7229 7.32264 92 6.70138 92C6.21733 92 5.78028 91.8284 5.45033 91.5542C5.11975 91.8284 4.68207 92 4.19732 92C3.57737 92 3.03183 91.7229 2.69538 91.3013C2.3583 91.7229 1.81215 92 1.19158 92C0.737495 92 0.322056 91.852 0 91.6073V-1Z" fill="#D5607D" fill-opacity="0.2"/>
<path d="M83.6036 87.5845C91.1166 87.5845 97.2072 85.8866 97.2072 83.7922C97.2072 81.6978 91.1166 80 83.6036 80C76.0905 80 70 81.6978 70 83.7922C70 85.8866 76.0905 87.5845 83.6036 87.5845Z" fill="#D5607D" fill-opacity="0.3"/>
<path opacity="0.3" d="M16.3772 10.6178C16.3772 13.2272 14.2617 15.3426 11.6522 15.3426C9.04303 15.3426 6.92773 13.2273 6.92773 10.6178C6.92773 8.00861 9.04303 5.89331 11.6522 5.89331C14.2616 5.89331 16.3772 8.00861 16.3772 10.6178Z" fill="white"/>
<path opacity="0.3" d="M14.8202 10.6178C14.8202 12.3671 13.4022 13.7849 11.653 13.7849C9.90429 13.7849 8.48633 12.3672 8.48633 10.6178C8.48633 8.86889 9.90429 7.45093 11.653 7.45093C13.4022 7.45093 14.8202 8.86884 14.8202 10.6178Z" fill="white"/>
<path d="M13.3829 10.6178C13.3829 11.5731 12.6085 12.3475 11.6531 12.3475C10.6978 12.3475 9.92383 11.5731 9.92383 10.6178C9.92383 9.6628 10.6979 8.88818 11.6531 8.88818C12.6085 8.88818 13.3829 9.6628 13.3829 10.6178Z" fill="white"/>
<path d="M71.3579 76.0739C71.3579 76.0739 65.3966 73.5049 64.2697 75.8773C63.1427 78.2498 64.4476 79.9996 65.6041 80.326C66.7612 80.6524 76.133 81.542 76.3999 78.8431C76.6664 76.1443 72.8408 75.4987 71.3579 76.0739Z" fill="#DADADA"/>
<path d="M65.2477 75.0496C64.8139 75.2026 64.4677 75.4633 64.2712 75.8774C63.4734 77.5564 63.8957 78.9209 64.6198 79.6921C64.539 78.1155 64.6954 76.5378 65.2477 75.0496Z" fill="#F6F6F6"/>
<path d="M66.2794 77.9146C66.3214 76.8754 66.435 75.863 66.7149 74.8815C66.3898 74.8673 66.0753 74.8762 65.7853 74.9192C65.102 76.5583 64.9622 78.3369 65.1012 80.0921C65.2679 80.1977 65.439 80.2783 65.6071 80.3261C65.7326 80.3613 65.9587 80.4034 66.2545 80.4468C66.1489 79.5929 66.2519 78.603 66.2794 77.9146Z" fill="#F6F6F6"/>
<path d="M68.3574 75.1155C67.964 75.0286 67.5609 74.9566 67.1667 74.915C66.8385 76.0045 66.7322 77.1491 66.7228 78.2932C66.7179 78.8838 66.6171 79.7756 66.7197 80.5088C67.1117 80.5557 67.5804 80.6008 68.0947 80.6382C67.7281 78.8848 67.9414 76.8982 68.3574 75.1155Z" fill="#F6F6F6"/>
<path d="M69.6986 76.9056C69.7377 76.4988 69.7599 75.9939 69.8685 75.529C69.5421 75.4245 69.1806 75.317 68.8015 75.2212C68.393 76.9796 68.1816 78.9626 68.5718 80.6704C69.0023 80.6958 69.4584 80.7139 69.9233 80.7233C69.6532 79.4692 69.582 78.1198 69.6986 76.9056Z" fill="#F6F6F6"/>
<path d="M71.758 75.9635C71.6135 75.9931 71.4764 76.0283 71.3581 76.0739C71.3581 76.0739 70.9151 75.8842 70.2494 75.6558C69.9993 76.5675 70.1022 77.8694 70.1341 78.4565C70.1749 79.2131 70.2533 79.9811 70.4081 80.7297C71.0316 80.7323 71.6627 80.7142 72.272 80.6703C71.7389 79.186 71.6064 77.5316 71.758 75.9635Z" fill="#F6F6F6"/>
<path d="M72.2198 75.8997C72.0517 77.474 72.187 79.1466 72.7465 80.6304C74.6911 80.4389 76.2947 79.9369 76.4029 78.8432C76.6274 76.5721 73.9564 75.7587 72.2198 75.8997Z" fill="#F6F6F6"/>
<path d="M74.8242 69.7272C74.8242 69.7272 84.4377 62.6512 85.3065 62.5377C86.1748 62.424 82.7974 71.4868 82.7974 71.4868L74.8242 69.7272Z" fill="#1C381E"/>
<path d="M60.0645 64.0509L60.405 63.2563C60.405 63.2563 67.1029 63.2563 80.1852 71.43L77.4336 74.8357L60.0645 64.0509Z" fill="#1C381E"/>
<path d="M93.5981 73.0103C93.5981 73.0103 93.442 79.0363 91.8527 81.0796C90.2633 83.1232 82.9978 83.4069 77.0378 81.0796C77.0378 81.0796 74.9004 77.0497 77.2746 72.7925C79.6488 68.5354 93.5981 73.0103 93.5981 73.0103Z" fill="#366C2D"/>
<path d="M72.6409 63.6265C72.6409 63.6265 77.4896 64.2964 78.8781 64.115C80.4611 63.9079 83.0066 63.9554 83.0066 63.9554L79.3756 67.9375C79.3756 67.9375 76.9463 68.6414 72.4453 68.6951L72.6409 63.6265Z" fill="#E6846E"/>
<path d="M75.1742 51.9798C75.1742 51.9798 72.1492 56.6027 70.2431 66.086C69.8018 68.2806 72.443 68.6949 72.443 68.6949C72.443 68.6949 74.2045 69.0536 78.9227 58.9039C83.6414 48.7542 75.1742 51.9798 75.1742 51.9798Z" fill="#F4A391"/>
<path d="M73.1631 57.5806L73.0566 57.9445C73.0566 57.9445 74.7098 63.2567 78.0078 60.819L78.7781 59.1321L73.1631 57.5806Z" fill="#E6846E"/>
<path d="M77.3183 45.7646L77.0038 45.7175C77.0038 45.7175 74.5454 51.2211 73.1157 55.7072C71.9494 59.367 77.7297 61.3892 78.6384 60.0073C80.3931 57.3392 81.9039 53.3907 81.9039 53.3907L77.3183 45.7646Z" fill="white"/>
<path d="M82.1947 41.5554C82.1947 41.5554 83.3668 43.9287 82.1747 45.0232C82.0026 45.181 89.7308 44.9461 89.6531 44.8671C88.8717 44.0583 88.941 43.4366 88.9362 40.3927C88.9363 40.2286 82.1947 41.5554 82.1947 41.5554Z" fill="#E6846E"/>
<path d="M83.1189 42.2341C83.1189 42.2341 81.5727 41.0173 79.0684 40.8186C79.0684 40.8186 83.384 40.4124 83.8683 38.9189C84.3513 37.4254 84.5211 36.8391 84.5211 36.8391C84.5211 36.8391 86.0526 37.3881 86.1095 37.3881C86.1663 37.3881 86.9413 43.0971 86.9413 43.0971L83.1189 42.2341Z" fill="#E6846E"/>
<path d="M89.0966 43.942C89.0966 43.942 92.9835 45.4195 93.8682 46.0368C96.9076 48.1579 96.3463 55.9782 96.2833 56.8991C95.4508 69.0839 93.6013 73.1875 93.6013 73.1875C93.6013 73.1875 89.2448 78.3551 77.2778 72.7925C77.2778 72.7925 80.852 59.6144 77.2778 57.8073C77.2538 57.7956 77.002 45.7176 77.002 45.7176C77.002 45.7176 83.9827 43.8063 84.0032 43.8054C84.0236 43.8037 89.0966 43.942 89.0966 43.942Z" fill="white"/>
<path d="M80.1167 28.6342C80.1167 28.6342 78.8573 25.8122 83.0058 28.9748C87.1546 32.1357 85.1122 40.6535 81.9224 40.7901C79.6116 40.8894 79.0688 40.8185 79.0688 40.8185C79.0688 40.8185 78.8662 35.9823 80.1167 28.6342Z" fill="#F4A391"/>
<path d="M84.1245 32.3397C84.1245 32.3397 82.839 33.811 82.8017 34.6065C82.7636 35.4021 83.8687 36.3475 83.8687 36.3475L85.1857 38.0132C85.1857 38.0132 85.0847 41.6424 85.3609 42.4068C85.8074 43.6414 86.7339 44.2294 88.7374 43.8045C88.7374 43.8045 90.704 43.2608 90.7418 42.6772C90.7418 42.6772 90.1156 42.8069 89.6535 42.6772L90.7418 41.6406L89.3124 42.2339C89.3124 42.2339 89.3693 40.9603 89.8283 39.7124C90.2881 38.4645 95.8841 27.1218 84.1632 27.1218L84.1245 32.3397Z" fill="#7D1643"/>
<path d="M83.7359 35.3835C83.7359 35.3835 84.8374 33.2274 85.7602 34.7342C86.5767 36.0672 84.7177 39.0286 83.9346 38.085C83.1492 37.1422 83.7359 35.3835 83.7359 35.3835Z" fill="#F4A391"/>
<path d="M84.3891 33.0482C84.3891 33.0482 84.8836 33.0951 81.3018 32.4531C80.0982 32.2366 78.0305 32.79 77.3593 29.8438C76.7725 27.2657 79.6855 26 79.6855 26C79.6855 26 78.7502 27.0218 79.1157 27.7622C79.1157 27.7622 79.9661 26.5356 80.5023 26.4338C80.5023 26.4338 80.3718 27.1963 80.7151 27.426C80.7151 27.426 85.7877 26.0142 88.7881 27.6603C91.7881 29.3064 86.9882 30.2909 86.9882 30.2909L84.3891 33.0482Z" fill="#7D1643"/>
<path d="M79.5962 26.0408C79.2535 26.3201 77.6203 27.8075 78.0775 30.4025C78.0775 30.4025 78.5267 31.8251 79.5595 32.2766C79.5595 32.2766 79.5542 32.2774 79.5444 32.2793C78.6384 32.102 77.7528 31.5866 77.3557 29.8438C76.8265 27.5192 79.1347 26.2651 79.5962 26.0408Z" fill="#A3195B"/>
<path d="M80.4593 26.446C80.3214 26.6226 79.3715 27.8519 79.4234 28.2332L79.0913 27.7498C79.0913 27.7498 78.6327 27.1848 79.6326 26.0222C79.6606 26.0088 79.6806 26 79.6806 26C79.6806 26 78.7453 27.0218 79.1108 27.7622C79.1108 27.7622 79.9222 26.5941 80.4593 26.446Z" fill="#A3195B"/>
<path d="M84.7422 32.2794C84.7422 32.2794 86.4229 34.6695 86.3852 35.7852C86.3852 35.7852 86.8007 34.8019 86.2717 33.7622C85.7418 32.7219 84.8961 32.2723 84.7422 32.2794Z" fill="#A3195B"/>
<path d="M85.5361 38.4131C85.5361 38.4131 86.1521 43.5934 87.4036 43.7248C87.4036 43.7248 86.2323 43.9855 85.3356 42.3243C85.3356 42.3243 85.0638 39.433 85.5361 38.4131Z" fill="#A3195B"/>
<path d="M79.3838 34.4246L78.125 36.7517V36.9787L79.1657 37.6031L79.3838 34.4246Z" fill="#F4A391"/>
<path d="M79.6572 32.8921L79.5938 33.5547C79.5938 33.5547 80.9065 33.4695 81.663 34.6708L81.8993 34.5949C81.8993 34.5949 81.6062 32.5139 79.6572 32.8921Z" fill="#7D1643"/>
<path d="M79.5254 34.7751L79.594 34.9737C79.594 34.9737 80.0389 34.8415 80.7471 35.4659H80.8495C80.8495 35.4659 80.3201 34.6707 79.5254 34.7751Z" fill="#7D1643"/>
<path d="M77.2737 72.7923C77.2737 72.7923 66.6119 65.224 60.4057 63.2563C60.4057 63.2563 57.0027 63.691 57 67.7215C56.9987 70.3706 77.7229 85.7154 87.3148 82.664L77.2737 72.7923Z" fill="#366C2D"/>
<path opacity="0.3" d="M95.2701 56.7733C81.2499 53.0838 81.5337 74.4444 81.5337 74.4444C80.0659 75.7436 80.8815 80.7627 81.3204 82.7206C83.5506 83.1665 85.6081 83.2065 87.3132 82.6642L87.3119 82.6624C89.4875 82.4921 91.1779 81.944 91.8503 81.0797C93.2754 79.2474 93.5481 74.2157 93.589 73.1953C93.5911 73.1926 93.5956 73.1876 93.5956 73.1876C93.5956 73.1876 95.4262 69.1221 96.2647 57.0797C95.9481 56.9698 95.6199 56.8652 95.2701 56.7733Z" fill="#00B1EB"/>
<path opacity="0.5" d="M93.8652 46.0368C92.9806 45.4195 89.0959 43.9429 89.0937 43.942C89.0728 43.8692 89.0542 43.793 89.0387 43.7115C89.5922 43.5323 90.71 43.1158 90.7384 42.6772C90.7384 42.6772 90.1122 42.8069 89.6502 42.6772L90.7384 41.6406L89.3091 42.2339C89.3091 42.2339 89.3659 40.9603 89.825 39.7123C90.1793 38.7519 93.5704 31.8093 89.7634 28.6648C89.7337 28.3653 89.4557 28.03 88.782 27.6602C85.7815 26.0141 80.709 27.426 80.709 27.426C80.681 27.4071 80.6607 27.38 80.6385 27.3551C80.5254 27.439 80.458 27.4891 80.458 27.4891C80.458 27.4891 79.7967 28.4807 80.3547 29.5245C80.3547 29.5245 79.3382 29.8047 79.0654 29.5245C78.7932 29.244 78.9848 29.5245 78.9848 29.5245C78.9848 29.5245 79.0668 31.5676 80.7462 32.8465C80.7462 32.8465 81.0078 33.6926 80.3547 34.9874C80.3523 34.9919 80.3505 34.995 80.3484 34.9994C80.6986 35.2465 81.5324 35.8997 81.8991 36.7555C82.3692 37.8526 80.1768 40.4274 79.7214 40.8428C79.7214 40.8428 84.1847 40.8739 85.2539 43.8383L86.68 43.8764V44.0804C86.68 44.0804 79.3104 46.5672 78.9192 46.7983C78.5281 47.0294 74.4856 55.7193 74.7663 59.548C74.7663 59.548 72.8977 64.9723 70.7933 67.9207C70.7933 67.9207 65.135 65.0961 62.8631 65.7878C60.5922 66.4791 59.1763 69.4884 61.7208 72.6806C61.7297 72.6874 61.7377 72.6945 61.7466 72.7017L64.6068 74.7947C64.7629 74.902 64.9164 75.0093 65.0751 75.1176C65.0698 75.1197 65.0658 75.1238 65.0605 75.1264L65.1895 75.2211C65.1895 75.2211 63.9828 78.4222 65.8821 80.0566C66.0271 80.1817 66.2139 80.3218 66.428 80.4709C66.5206 80.4833 66.6151 80.4961 66.7203 80.5091C66.7345 80.5108 66.751 80.512 66.7651 80.5139C68.4817 80.7165 71.5725 80.8869 73.7943 80.4887C73.7952 80.488 73.7961 80.488 73.7964 80.4878C73.9924 80.4525 74.1832 80.4141 74.3638 80.3697C79.1343 82.5187 83.9223 83.7436 87.3159 82.6642L87.3146 82.6624C89.4902 82.4921 91.1806 81.944 91.853 81.0797C93.2782 79.2474 93.5508 74.2157 93.5917 73.1953C93.5938 73.1926 93.5983 73.1876 93.5983 73.1876C93.5983 73.1876 95.4478 69.084 96.2803 56.8992C96.3433 55.9782 96.9047 48.1579 93.8652 46.0368ZM85.7651 36.4525C85.5382 36.7647 85.5382 36.2334 85.5382 36.2334C84.5731 36.2982 83.7786 35.785 83.7786 35.785C83.665 34.8619 84.7719 34.2517 84.7719 34.2517C86.1625 34.0942 85.9922 36.1404 85.7651 36.4525ZM75.9241 68.9225C75.7042 68.801 75.486 68.682 75.2701 68.566C75.7521 68.5269 76.1968 68.4817 76.5964 68.4338C76.352 68.6112 76.1272 68.7748 75.9241 68.9225ZM78.8007 64.123L78.7533 64.7203H75.9183L76.3117 64.042C76.8199 63.1497 77.3836 62.0862 78.0079 60.8198C78.0079 60.8189 78.0083 60.8189 78.0088 60.8189L78.0177 60.7995C78.0963 60.6406 78.1764 60.4743 78.2563 60.3088C78.4182 60.238 78.5468 60.1387 78.6328 60.0088C78.8866 61.1585 78.908 62.6104 78.8007 64.123Z" fill="#009FE3"/>
</g>
<defs>
<clipPath id="clip0_886_55097">
<rect width="122.75" height="92" fill="white" transform="translate(0.25)"/>
</clipPath>
</defs>
</svg>
