<svg width="161" height="92" viewBox="0 0 161 92" fill="none" xmlns="http://www.w3.org/2000/svg">
<path d="M82.7041 92C125.946 92 161 89.9341 161 87.3855C161 84.837 125.946 82.771 82.7041 82.771C39.4625 82.771 4.4082 84.837 4.4082 87.3855C4.4082 89.9341 39.4625 92 82.7041 92Z" fill="#A5C8DB"/>
<path d="M37.9905 66.7468H20.2497C16.8903 66.7468 14.167 71.1071 14.167 76.4859C14.167 81.8644 16.8903 86.2249 20.2497 86.2249H37.9905C41.3499 86.2249 44.0732 81.8647 44.0732 76.4859C44.073 71.1073 41.3497 66.7468 37.9905 66.7468Z" fill="#A5C8DB"/>
<path d="M37.23 66.7468H19.4889C16.1295 66.7468 13.4062 71.1071 13.4062 76.4859C13.4062 81.8644 16.1295 86.2249 19.4889 86.2249H37.23C40.5894 86.2249 43.3127 81.8647 43.3127 76.4859C43.3125 71.1073 40.5892 66.7468 37.23 66.7468Z" fill="#CFECFF"/>
<path d="M26.0776 76.4861C26.0776 81.8642 23.3556 86.2258 19.9949 86.2258H18.9811C15.6231 86.2258 12.8984 81.864 12.8984 76.4861C12.8984 71.108 15.6229 66.7463 18.9811 66.7463H19.9949C23.3556 66.7461 26.0776 71.108 26.0776 76.4861Z" fill="#A5C8DB"/>
<path d="M25.0638 76.4861C25.0638 77.2363 25.0106 77.9662 24.9091 78.6683C24.5619 81.1013 23.6471 83.1871 22.3975 84.5481C22.3721 84.5734 22.3594 84.5861 22.3594 84.5861C21.3939 85.6227 20.233 86.2258 18.9811 86.2258C15.6231 86.2258 12.8984 81.864 12.8984 76.4861C12.8984 71.108 15.6229 66.7463 18.9811 66.7463C22.3419 66.7461 25.0638 71.108 25.0638 76.4861Z" fill="#79A1B2"/>
<path d="M20.0905 80.6158C20.0905 80.6158 19.6061 79.4443 19.2635 79.4005C18.9209 79.3567 18.6855 79.6574 18.3856 79.8914C18.0854 80.1254 17.601 81.2438 17.601 81.2438C17.601 81.2438 16.8582 81.2124 16.7888 81.3469C16.7194 81.4813 14.9413 81.7263 14.9413 81.7263L13.7408 83.0707L13.2731 83.4241L12.07 83.5915C12.07 83.5915 11.6357 83.6489 11.5019 83.5915C11.3682 83.5341 11.0007 83.9948 11.0007 84.0987C11.0007 84.2027 10.5998 84.9391 10.5998 84.9721C10.5998 85.0048 9.80069 85.1791 9.77394 85.1823C9.7472 85.1856 8.42175 84.7318 8.42175 84.7318L6.90678 85.4067C6.90678 85.4067 6.18815 85.7945 5.88728 85.7841C5.5864 85.7737 4.55053 85.8634 4.45024 85.9021C4.34995 85.9409 3.54785 86.2016 3.54785 86.2016H11.5688L18.2113 84.5864L18.6945 83.4244L18.9816 81.82L20.0905 80.6158Z" fill="#F24052"/>
<path d="M38.3511 67.7892H23.4649C23.2987 67.7892 23.1641 67.6546 23.1641 67.4884C23.1641 67.3224 23.2987 67.1875 23.4649 67.1875H38.3511C38.5173 67.1875 38.6519 67.3221 38.6519 67.4884C38.6519 67.6546 38.5171 67.7892 38.3511 67.7892Z" fill="#A5C8DB"/>
<path d="M39.9722 69.193H25.086C24.9198 69.193 24.7852 69.0584 24.7852 68.8922C24.7852 68.726 24.9198 68.5913 25.086 68.5913H39.9722C40.1384 68.5913 40.273 68.726 40.273 68.8922C40.273 69.0582 40.1382 69.193 39.9722 69.193Z" fill="#A5C8DB"/>
<path d="M41.2712 71.1982H26.3849C26.2189 71.1982 26.084 71.0635 26.084 70.8973C26.084 70.7313 26.2186 70.5964 26.3849 70.5964H41.2712C41.4375 70.5964 41.5721 70.7311 41.5721 70.8973C41.5721 71.0635 41.4375 71.1982 41.2712 71.1982Z" fill="#A5C8DB"/>
<path d="M41.9402 73.872H27.0538C26.8878 73.872 26.7529 73.7374 26.7529 73.5711C26.7529 73.4049 26.8876 73.2703 27.0538 73.2703H41.9402C42.1062 73.2703 42.241 73.4049 42.241 73.5711C42.241 73.7374 42.1064 73.872 41.9402 73.872Z" fill="#A5C8DB"/>
<path d="M38.3511 85.1821H23.4649C23.2987 85.1821 23.1641 85.3168 23.1641 85.483C23.1641 85.649 23.2987 85.7839 23.4649 85.7839H38.3511C38.5173 85.7839 38.6519 85.6492 38.6519 85.483C38.6519 85.3168 38.5171 85.1821 38.3511 85.1821Z" fill="#A5C8DB"/>
<path d="M39.9722 83.7783H25.086C24.9198 83.7783 24.7852 83.913 24.7852 84.0792C24.7852 84.2454 24.9198 84.3801 25.086 84.3801H39.9722C40.1384 84.3801 40.273 84.2454 40.273 84.0792C40.273 83.913 40.1382 83.7783 39.9722 83.7783Z" fill="#A5C8DB"/>
<path d="M41.2992 81.7732H26.3586C26.2074 81.7732 26.085 81.8956 26.085 82.0469V82.1013C26.085 82.2523 26.2074 82.3749 26.3586 82.3749H41.2992C41.4504 82.3749 41.5728 82.2525 41.5728 82.1013V82.0469C41.5728 81.8956 41.4502 81.7732 41.2992 81.7732Z" fill="#A5C8DB"/>
<path d="M41.9402 79.0996H27.0538C26.8878 79.0996 26.7529 79.2343 26.7529 79.4005C26.7529 79.5667 26.8876 79.7014 27.0538 79.7014H41.9402C42.1062 79.7014 42.241 79.5667 42.241 79.4005C42.241 79.2343 42.1064 79.0996 41.9402 79.0996Z" fill="#A5C8DB"/>
<path d="M42.1929 76.7866H27.3067C27.1405 76.7866 27.0059 76.6519 27.0059 76.4857C27.0059 76.3195 27.1405 76.1848 27.3067 76.1848H42.1929C42.3591 76.1848 42.4937 76.3195 42.4937 76.4857C42.4937 76.6517 42.3591 76.7866 42.1929 76.7866Z" fill="#A5C8DB"/>
<path d="M24.1006 68.1941H25.6448C26.4822 68.1941 27.2504 68.6591 27.6387 69.401L27.9564 70.0079C28.4043 70.8637 27.9411 71.9138 27.0072 72.1598L26.0769 72.4051" stroke="#79A1B2" stroke-width="2.1986" stroke-miterlimit="10" stroke-linecap="round" stroke-linejoin="round"/>
<path d="M26.5079 72.4051C26.5079 72.622 26.332 72.7977 26.1153 72.7977C25.8983 72.7977 25.7227 72.6218 25.7227 72.4051C25.7227 72.1881 25.8986 72.0125 26.1153 72.0125C26.332 72.0122 26.5079 72.1881 26.5079 72.4051Z" fill="#79A1B2"/>
<path d="M24.3692 68.1939C24.3692 68.4109 24.1933 68.5865 23.9766 68.5865C23.7597 68.5865 23.584 68.4106 23.584 68.1939C23.584 67.977 23.7599 67.8013 23.9766 67.8013C24.1936 67.8013 24.3692 67.977 24.3692 68.1939Z" fill="#79A1B2"/>
<path d="M24.9095 78.668C24.5623 81.101 23.6474 83.1868 22.3978 84.5478C22.3725 84.5731 22.3598 84.5858 22.3598 84.5858L18.3857 82.325L18.738 80.9818C18.738 80.9818 18.9534 80.627 19.245 80.6676C19.5339 80.7082 20.6592 80.3914 20.6592 80.3914C20.6592 80.3914 21.3613 79.4562 21.4602 79.4005C21.5616 79.3447 23.1658 78.4197 23.1658 78.4197L24.9095 78.668Z" fill="#FFB878"/>
<path d="M23.2144 81.6196C23.2144 81.6196 23.5085 82.5142 23.2683 82.7692C23.0281 83.0244 22.0231 82.7908 21.6457 83.1088C21.2683 83.4267 20.9907 83.8945 20.9907 83.8945C20.9907 83.8945 20.9157 83.3967 20.5803 83.0756C20.2448 82.7544 19.5499 82.5571 19.3849 82.421C19.2198 82.2848 19.2456 81.7559 19.2456 81.7559C19.2456 81.7559 20.0832 81.8424 20.3905 81.5164C20.6979 81.1901 21.4458 81.102 21.3141 80.7539C21.3141 80.7539 21.9053 80.7507 22.1407 80.9826C22.3761 81.2146 23.2144 81.6196 23.2144 81.6196Z" fill="#0C476B"/>
<path d="M19.8395 82.3748L18.7367 80.9816L17.0823 80.7769L16.5811 81.7479L16.7816 82.3748L17.6003 84.4251L19.8395 82.3748Z" fill="#0A4360"/>
<path d="M20.3917 81.7733C20.0908 81.5289 18.5869 83.1414 18.5869 83.1414L16.9827 83.6006L15.8108 83.1411C15.8108 83.1411 14.7353 83.4561 14.7143 83.4243C14.6933 83.3924 14.1667 84.0663 14.1667 84.0663L13.4064 85.1825L11.9693 85.4833L9.76362 85.7316L7.6582 86.2259H19.2887C19.2887 86.2259 22.45 85.9735 23.5837 82.8504C23.5837 82.8504 20.6925 82.0176 20.3917 81.7733Z" fill="#093951"/>
<path d="M20.3915 84.261C20.3915 84.261 18.7122 82.7069 18.311 82.6068C17.9099 82.5065 16.1053 82.9326 16.005 82.9577C15.9047 82.9828 15.5038 84.2361 15.5287 84.261C15.5538 84.2862 14.9521 84.8376 14.7766 84.9628C14.6012 85.0883 14.1666 85.483 14.1666 85.483L12.8983 85.7838L12.3701 86.2258L18.4108 86.2249C18.4108 86.2249 18.8118 85.1134 19.2632 85.0382C19.7144 84.9631 20.7922 84.8376 20.7922 84.8376L21.0428 84.5619L22.831 84.2366C22.831 84.2366 21.0929 84.048 20.9677 84.0794C20.8427 84.1107 20.3915 84.261 20.3915 84.261Z" fill="#0D527C"/>
<path d="M15.1918 81.7263C15.1918 81.7263 15.323 82.2527 15.7212 82.2527C16.1193 82.2527 16.9251 82.6893 17.5499 82.471C18.1747 82.2527 18.8968 82.3601 19.2639 82.6045C19.2639 82.6045 18.5916 82.5033 18.308 82.8041C18.0244 83.105 16.3757 82.9296 16.3757 82.9296C16.3757 82.9296 16.696 83.1334 16.6457 83.6078C16.5957 84.0826 17.0635 84.8095 16.98 85.2605C16.8965 85.7116 16.6457 85.8306 16.6457 85.8306C16.6457 85.8306 16.4594 85.3856 16.1641 85.2353C15.8687 85.085 15.7242 84.4872 15.7212 83.9339C15.7182 83.3805 15.3788 83.3303 15.3788 83.3303C15.3788 83.3303 15.4521 83.8315 15.0837 84.2578C14.7155 84.6838 14.6177 84.8593 14.5163 85.2605C14.4149 85.6616 13.9489 85.8306 13.9489 85.8306C13.9489 85.8306 14.0312 85.5692 13.9489 85.2605C13.8666 84.9517 13.8382 84.4081 14.2645 83.982C14.6906 83.556 14.7863 82.6167 15.0839 82.3527C15.0839 82.3527 14.9412 81.9516 14.9412 81.7261L15.1918 81.7263Z" fill="#FFB878"/>
<path d="M22.3443 80.9835C22.3443 80.9835 22.5302 80.747 22.4755 80.248L22.2888 80.2716C22.2888 80.2716 22.4094 80.586 22.2383 80.9565L22.3443 80.9835Z" fill="#0C476B"/>
<path d="M22.9516 81.2441C22.9516 81.2441 22.5986 81.2372 22.4041 81.9093C22.2097 82.5813 22.5703 83.0704 22.5703 83.0704C22.5703 83.0704 21.5727 83.0872 20.9707 82.5235C20.9707 82.5235 21.2949 82.5973 21.581 81.984C21.8669 81.3707 21.5932 80.9583 21.5932 80.9583L22.9516 81.2441Z" fill="#CFECFF"/>
<path d="M23.1666 81.4209C23.1666 81.4209 23.093 80.6596 22.3809 80.8383C22.3809 80.8383 21.6657 80.2841 21.25 81.1751C21.25 81.1751 21.6021 81.0313 21.698 81.1505C21.7939 81.2694 21.7445 81.5881 21.7445 81.5881C21.7445 81.5881 21.8257 81.4285 22.2322 81.4248C22.6386 81.4211 22.6306 81.8198 22.6306 81.8198C22.6306 81.8198 22.8503 81.2694 23.1666 81.4209Z" fill="#F24052"/>
<path d="M20.8672 82.429C20.8672 82.429 20.8702 83.1937 21.5957 83.0817C21.5957 83.0817 22.2567 83.6996 22.7529 82.8504C22.7529 82.8504 22.3893 82.9611 22.3047 82.8338C22.2201 82.7066 22.2987 82.3937 22.2987 82.3937C22.2987 82.3937 22.2032 82.5452 21.7982 82.5113C21.3931 82.4774 21.438 82.0813 21.438 82.0813C21.438 82.0813 21.1683 82.6093 20.8672 82.429Z" fill="#F24052"/>
<path d="M7.42058 85.2882C7.42058 85.2882 7.12409 85.2371 6.71094 85.522L6.82022 85.6753C6.82022 85.6753 7.03971 85.4199 7.44709 85.3945L7.42058 85.2882Z" fill="#0C476B"/>
<path d="M7.36133 84.6298C7.36133 84.6298 7.52272 84.9438 8.20654 84.7961C8.89036 84.6483 9.14973 84.0986 9.14973 84.0986C9.14973 84.0986 9.63804 84.9687 9.42755 85.7662C9.42755 85.7662 9.33855 85.4458 8.66303 85.4852C7.98751 85.5246 7.75442 85.9613 7.75442 85.9613L7.36133 84.6298Z" fill="#CFECFF"/>
<path d="M7.41476 84.3564C7.41476 84.3564 6.77959 84.7825 7.27482 85.3245C7.27482 85.3245 7.12634 86.2172 8.10827 86.1601C8.10827 86.1601 7.81477 85.9184 7.87379 85.7776C7.93305 85.6367 8.23692 85.529 8.23692 85.529C8.23692 85.529 8.05801 85.5334 7.86181 85.1774C7.66561 84.8215 8.02043 84.6393 8.02043 84.6393C8.02043 84.6393 7.43136 84.7069 7.41476 84.3564Z" fill="#0D527C"/>
<path d="M9.39318 85.9019C9.39318 85.9019 10.0648 85.5362 9.62189 84.9508C9.62189 84.9508 9.85198 84.0757 8.86913 84.042C8.86913 84.042 9.13911 84.3094 9.06718 84.4443C8.99525 84.5792 8.68262 84.6585 8.68262 84.6585C8.68262 84.6585 8.8613 84.6707 9.02384 85.0433C9.18638 85.4159 8.81634 85.5643 8.81634 85.5643C8.81634 85.5643 9.40909 85.5514 9.39318 85.9019Z" fill="#0D527C"/>
<path d="M16.5809 80.0813C16.4675 80.1253 16.3481 80.1673 16.2227 80.2072" stroke="#093951" stroke-width="1.0993" stroke-linecap="round" stroke-linejoin="round"/>
<path d="M14.5211 80.5676C11.159 80.9941 6.45429 80.1574 6.69014 76.4195C6.96266 72.1107 18.0643 68.2461 15.0387 63.3702C13.9175 61.5633 10.3403 62.2453 8.54794 62.1996C6.1246 62.1381 3.51266 61.8697 1.70766 60.0631C-0.250664 58.1029 -0.0237995 54.9238 1.99331 53.0981C4.40674 50.9136 7.91646 49.7673 11.1456 49.0579" stroke="#093951" stroke-width="1.0993" stroke-linecap="round" stroke-linejoin="round" stroke-dasharray="3.24 7.55"/>
<path d="M11.998 48.8792C12.1228 48.8541 12.247 48.8296 12.3704 48.8057" stroke="#093951" stroke-width="1.0993" stroke-linecap="round" stroke-linejoin="round"/>
<path d="M14.8759 48.8876C14.8759 48.8876 14.7138 47.4932 14.0265 47.7302C13.3393 47.967 14.8759 48.8876 14.8759 48.8876Z" fill="#093951"/>
<path d="M14.8753 48.8877C14.8753 48.8877 13.409 49.3373 13.7882 49.7693C14.1675 50.2014 14.6394 49.5494 14.8753 48.8877Z" fill="#093951"/>
<path d="M13.5433 48.7746C13.5696 48.0161 15.0781 48.3787 14.9679 48.9129C14.8713 49.3819 13.5189 49.4798 13.5433 48.7746Z" fill="#093951"/>
<path d="M48.615 43.71C48.615 43.71 46.0833 42.581 44.5084 43.71C42.9335 44.839 42.666 29.3406 42.666 29.3406L46.2389 28.8804C46.2389 28.8804 50.5532 35.6964 48.615 43.71Z" fill="#0A4360"/>
<path d="M45.0728 43.2836C45.0728 43.2836 49.1045 42.8591 49.2712 43.7101C49.8185 46.5044 49.2839 46.7774 48.8159 47.5795C48.3481 48.3816 48.0138 46.0422 48.0138 46.0422C48.0138 46.0422 45.4069 45.1707 44.7385 45.4727C44.0702 45.775 45.0728 43.2836 45.0728 43.2836Z" fill="#A5C8DB"/>
<path d="M41.5911 23.4102L41.0795 26.7922L35.7505 26.4577L35.4766 23.9114C35.4766 23.9114 36.0126 22.5687 38.2538 22.4271C40.4955 22.2856 41.5911 23.4102 41.5911 23.4102Z" fill="#A5C8DB"/>
<path d="M47.6365 87.5758C47.6365 87.8515 47.6083 88.0457 47.6083 88.0457H39.6367C39.6367 87.8882 39.6395 87.7305 39.648 87.5758C39.7382 85.4907 40.3964 83.6815 40.3964 83.6815L42.3886 82.8262C42.5601 83.8533 43.0019 84.5087 43.5564 84.9367C43.7025 85.0519 43.8547 85.1476 44.0122 85.2292C44.0852 85.2686 44.1586 85.3053 44.2344 85.339C44.4004 85.4148 44.5722 85.4768 44.7437 85.5276C45.4471 85.7415 46.1591 85.7865 46.6571 85.8623C47.5071 85.9944 47.6365 86.9766 47.6365 87.5758Z" fill="#0D527C"/>
<path d="M47.6365 87.5757C47.6365 87.8514 47.6083 88.0456 47.6083 88.0456H39.6367C39.6367 87.8881 39.6395 87.7304 39.648 87.5757H47.6365Z" fill="#ADBEC4"/>
<path d="M44.0121 85.2291L42.9064 85.5837L42.6729 85.1786L43.5563 84.9365C43.7025 85.0518 43.8544 85.1475 44.0121 85.2291Z" fill="#ADBEC4"/>
<path d="M44.7442 85.5272L43.9986 86.0224L43.54 85.8424L44.2349 85.3386C44.4009 85.4147 44.5725 85.4765 44.7442 85.5272Z" fill="#ADBEC4"/>
<path d="M35.0083 87.5759C34.9887 87.8462 34.9181 88.0458 34.9181 88.0458H29.6085C29.5409 87.8911 29.493 87.7364 29.4593 87.5759C28.936 85.035 33.2254 81.9258 33.2254 81.9258L33.5846 83.42C33.5846 83.42 33.4553 85.8118 34.4033 86.3097C34.9718 86.6081 35.0449 87.1709 35.0083 87.5759Z" fill="#0D527C"/>
<path d="M29.459 87.5759H35.0079C34.9883 87.8461 34.9178 88.0458 34.9178 88.0458H29.6082C29.5406 87.8911 29.4929 87.7364 29.459 87.5759Z" fill="#ADBEC4"/>
<path d="M34.1603 86.1193C34.1603 86.1193 31.9233 85.6093 30.9033 86.2696V85.9003C30.9033 85.9003 32.7851 84.9859 34.1603 86.1193Z" fill="#ADBEC4"/>
<path d="M33.7172 85.5516C33.7172 85.5516 32.2889 84.8987 30.9033 85.5516L31.0617 85.179C31.0617 85.179 32.7164 84.5535 33.7172 85.5516Z" fill="#ADBEC4"/>
<path d="M32.2271 46.5044C32.2271 51.5556 30.6042 69.7792 30.4299 71.0788C30.0961 73.5697 30.2821 77.8783 29.8231 80.5184C29.3281 83.366 29.459 85.9108 29.459 85.9108C29.459 85.9108 32.2109 83.6864 33.7697 85.339L34.4139 83.0851L33.9368 81.3106L34.8395 78.7021C34.2006 77.5615 38.8232 53.1828 38.8232 53.1828L39.2917 53.104L39.104 81.3103V82.9171C39.104 82.9171 39.6253 84.9632 39.6366 86.2695L44.317 84.9365L43.6782 83.0849L44.1031 80.6948L43.9472 77.5009C43.9472 77.5009 45.4523 50.0312 45.7836 47.0059L32.2271 46.5044Z" fill="#093951"/>
<path d="M32.0101 47.7663C32.0101 47.7663 33.3003 48.8829 39.6064 48.7621C44.4757 48.6689 45.7659 47.4885 45.7659 47.4885C45.7659 47.4885 46.9029 27.4301 45.6515 25.8031C44.7415 24.6213 42.9531 24.1145 40.6208 23.9914C39.741 23.946 38.7847 23.9543 37.768 24.0018C37.015 24.0366 36.3003 24.1586 35.6356 24.3435C33.0255 25.072 31.1965 26.7839 30.9187 28.1271C30.5701 29.8124 32.0101 47.7663 32.0101 47.7663Z" fill="#FFB878"/>
<path d="M41.917 23.6135C41.917 23.6135 49.351 23.1088 53.9632 23.6135C58.5752 24.1181 63.0537 24.6166 63.388 26.3727C63.7223 28.1286 63.4548 29.6763 62.6527 29.7381C61.8506 29.7999 50.6211 30.1598 49.2175 30.9155C47.8139 31.6713 47.0786 31.7372 47.0786 31.7372C47.0786 31.7372 47.8514 26.1834 41.917 23.6135Z" fill="#CFECFF"/>
<path d="M34.1774 46.577C34.1774 46.577 34.2443 48.9248 33.4422 49.1212C32.6401 49.3176 28.2162 48.2481 28.423 47.3123C28.6296 46.3764 28.6965 43.4929 28.6965 43.4929L34.1774 46.577Z" fill="#A5C8DB"/>
<path d="M40.6211 23.9915C40.6211 23.9915 44.872 27.4671 46.2249 34.8146C47.4259 41.3377 48.0138 46.0421 48.0138 46.0421C48.0138 46.0421 49.0833 45.2843 50.2195 40.4496C51.3559 35.6149 48.6653 25.2501 44.496 23.4809C44.496 23.4809 42.9206 23.13 40.6211 23.9915Z" fill="#0D527C"/>
<path d="M35.751 23.9114C35.751 23.9114 37.301 28.0618 36.7416 33.075C36.1823 38.0881 34.1772 46.5771 34.1772 46.5771C34.1772 46.5771 29.2316 45.8418 28.2287 44.6386C27.2258 43.4356 28.3195 27.3644 29.4437 26.4765C30.5674 25.5887 33.8491 24.1057 35.751 23.9114Z" fill="#0D527C"/>
<path d="M43.0241 26.8087C43.0241 26.8087 43.7402 23.5945 40.4961 22.2857C37.2522 20.9766 34.851 22.7986 34.3804 24.1937C33.9098 25.5888 36.6022 27.4674 36.6022 27.4674C36.6022 27.4674 35.9212 24.1976 36.4865 23.3893C37.0516 22.581 39.5264 23.109 40.1592 23.6137C40.7921 24.1181 41.7108 26.1571 43.0241 26.8087Z" fill="#CFECFF"/>
<path d="M40.4961 22.2854L39.6679 25.5489C39.6679 25.5489 38.73 25.9908 36.7422 24.6525C36.7422 24.6525 37.7977 22.1694 36.8632 20.4043C36.8632 20.4043 37.0995 20.4184 37.4733 20.4629C37.4733 20.4629 37.8488 22.4039 40.4961 22.2854Z" fill="#EF6E4B"/>
<path d="M36.7415 18.7184C36.7028 22.5806 40.4168 23.1365 41.3789 21.7096C41.6873 21.2527 41.9742 20.4192 42.1468 19.5097C42.1867 19.3033 42.2204 19.0944 42.2467 18.8844C42.4258 17.4601 42.2866 16.0182 41.4909 15.6366C38.7229 14.3072 36.7802 14.8564 36.7415 18.7184Z" fill="#FF8B66"/>
<path d="M39.4356 18.0758C39.4158 18.2895 39.4958 18.4719 39.6148 18.483C39.7335 18.494 39.846 18.3297 39.8658 18.1159C39.8857 17.9022 39.8057 17.7198 39.6869 17.7088C39.568 17.6977 39.4557 17.8621 39.4356 18.0758Z" fill="#1A4850"/>
<path d="M41.3761 18.4201C41.3561 18.6338 41.4363 18.8161 41.555 18.8272C41.6738 18.8383 41.7863 18.6739 41.8061 18.4602C41.8262 18.2465 41.7459 18.0641 41.6272 18.053C41.5085 18.042 41.3962 18.2063 41.3761 18.4201Z" fill="#1A4850"/>
<path d="M38.5438 18.6663C38.4754 18.8289 38.5849 19.0301 38.7882 19.1157C38.9916 19.2012 39.2118 19.1387 39.2802 18.9762C39.3487 18.8137 39.2392 18.6124 39.0358 18.5268C38.8325 18.4413 38.6123 18.5038 38.5438 18.6663Z" fill="#DB614D"/>
<path d="M41.7192 19.2659C41.748 19.4335 41.9378 19.5395 42.1471 19.5096C42.187 19.3032 42.2207 19.0943 42.247 18.8843C42.1856 18.8698 42.1204 18.8686 42.0538 18.8799C41.8366 18.9196 41.6869 19.093 41.7192 19.2659Z" fill="#DB614D"/>
<path d="M39.4457 16.8782C39.4665 16.89 39.4912 16.8962 39.5168 16.8944C39.8448 16.8727 40.1353 17.153 40.1386 17.1558C40.1874 17.2042 40.2691 17.204 40.3177 17.154C40.3666 17.1039 40.3659 17.0237 40.3159 16.9748C40.3011 16.9598 39.941 16.6122 39.5002 16.6417C39.4303 16.6463 39.3775 16.7067 39.3821 16.7763C39.3849 16.8206 39.41 16.8579 39.4457 16.8782Z" fill="#0E3944"/>
<path d="M42.27 17.3604C42.3205 17.3147 42.3262 17.237 42.2822 17.1845C42.0934 16.9604 41.7464 17.1118 41.5714 17.2368C41.5154 17.2748 41.5013 17.356 41.5417 17.4132C41.582 17.4701 41.6611 17.4837 41.7183 17.4431C41.8165 17.3735 42.0261 17.2741 42.0881 17.3479C42.1333 17.4014 42.213 17.4083 42.2668 17.3631C42.2679 17.3622 42.2691 17.3611 42.27 17.3604Z" fill="#0E3944"/>
<path d="M41.0653 17.7837C41.0653 17.7837 41.0452 18.7688 41.5863 19.556C41.5863 19.556 41.608 19.9721 40.8594 19.8167" stroke="#DB614D" stroke-width="0.8245" stroke-miterlimit="10"/>
<path d="M42.0914 16.3642C42.0914 16.3642 42.9802 16.2284 43.3179 15.616C43.3179 15.616 42.9783 15.6794 42.7046 15.616C42.7046 15.616 43.1279 15.3202 42.9799 14.6023C42.9799 14.6023 42.0946 14.7291 41.7663 14.6023L42.2465 14.2433C42.2465 14.2433 41.5551 14.2855 40.6202 14.0743C39.6853 13.8631 37.7254 13.7785 36.5615 14.6445C35.3977 15.5104 34.6314 19.5428 37.1688 21.286L37.0146 20.4046C37.0146 20.4046 36.5805 19.6078 36.7495 19.0587C36.9184 18.5095 37.2207 18.9531 37.2207 18.9531C37.2207 18.9531 38.1012 17.5303 38.1012 16.5943C38.1012 15.6582 38.1012 15.6582 38.1012 15.6582C38.1012 15.6582 40.886 15.0214 42.0914 16.3642Z" fill="#0E3944"/>
<path d="M37.1442 18.7442C37.1442 18.7442 36.5865 17.955 35.9668 18.3504C35.3471 18.7458 36.1962 20.1807 36.8258 20.1879C37.4555 20.195 37.1442 18.7442 37.1442 18.7442Z" fill="#FF8B66"/>
<path d="M40.8274 20.4045C40.2626 20.4045 39.9751 21.1107 40.4263 21.2859C40.8777 21.4612 41.4013 20.4045 40.8274 20.4045Z" fill="#1A4850"/>
<path d="M64.3646 26.5244C64.0338 26.224 63.1614 26.0732 63.1614 26.0732C63.1614 26.0732 61.7827 27.2011 62.7853 29.491C62.7853 29.491 63.5409 29.6095 64.0638 29.4836C64.5867 29.3575 64.9687 27.0732 64.3646 26.5244Z" fill="#0D527C"/>
<path d="M63.7695 28.1692C63.7695 28.1692 63.8892 29.7252 64.214 30.0978C64.9661 30.9596 64.5772 32.2745 64.7773 32.2415C65.6797 32.0893 65.3984 30.2703 65.3984 30.2703L65.9692 29.9078C65.9692 29.9078 66.0403 30.1536 66.3241 30.2703C66.4559 30.3235 66.6332 30.3489 66.8716 30.3083C67.2011 30.255 68.2757 29.9078 67.8981 29.188C67.8981 29.188 68.1083 28.557 68.0401 28.3846C67.9741 28.2121 67.9057 28.0399 67.9437 27.822C67.9817 27.6016 67.9096 27.1317 67.5227 26.7921C67.0464 26.3739 64.7478 26.3174 64.3143 26.6748C63.8834 27.0321 63.7695 28.1692 63.7695 28.1692Z" fill="#FF8B66"/>
<path d="M65.3982 30.2703L65.9691 29.9079C65.9691 29.9079 66.0401 30.1537 66.3239 30.2703C66.8309 30.1816 67.1477 29.7331 67.1477 29.7331C66.3188 30.0271 66.1187 29.4823 65.7182 29.7331C65.3178 29.984 65.3982 30.2703 65.3982 30.2703Z" fill="#EF6E4B"/>
<path d="M29.4434 26.4766C29.4434 26.4766 31.3614 28.3429 30.8641 32.0124C30.3668 35.6819 28.4154 37.1014 28.4154 37.1014L30.0996 38.9098C30.0996 38.9098 28.856 40.5166 29.03 43.1778C29.03 43.1778 22.9285 43.0344 21.7683 40.695C20.6082 38.3554 24.3883 29.0405 29.4434 26.4766Z" fill="#CFECFF"/>
<path d="M30.8644 38.498C30.8644 38.498 29.6321 38.3207 28.83 41.2019C28.0279 44.0831 29.4438 43.9134 29.4438 43.9134C29.4438 43.9134 29.0703 41.0013 31.3564 38.9097L30.8644 38.498Z" fill="#0A4360"/>
<path d="M48.9707 37.1014L50.2192 40.4497C50.2192 40.4497 50.9758 38.4824 49.5948 36.4805L48.9707 37.1014Z" fill="#0A4360"/>
<path d="M91.8096 52.0186V54.6436C91.8096 54.6436 91.2775 55.5818 90.9582 55.8045C90.6389 56.0272 90.3551 56.169 90.3551 56.169C90.3551 56.169 90.2841 55.979 90.4969 55.7724C90.7097 55.5658 91.0529 55.2502 91.0765 55.0533C91.1 54.8564 90.887 54.2 90.887 54.2L90.3435 55.0533C90.3435 55.0533 90.4355 55.3498 90.0938 55.4932C89.7519 55.6369 89.7697 55.4932 89.7697 55.4932C89.7697 55.4932 90.0099 54.7854 90.0938 54.2C90.1775 53.6147 90.6437 52.197 90.6437 52.197L91.8096 52.0186Z" fill="#FF8B66"/>
<path d="M89.7695 34.6717L89.8555 36.9367L90.5147 54.2012C90.5147 54.2012 90.5954 54.1205 90.7217 53.9886C91.1897 53.4989 92.2819 52.3074 92.325 51.8043C92.3762 51.1669 92.8038 49.9966 92.325 47.9228C92.0829 46.8682 92.0156 42.3814 91.8998 38.0666C91.7869 33.889 91.6255 29.8783 91.2059 29.2998L89.7695 34.6717Z" fill="#74ABC1"/>
<path d="M80.1267 89.4234C80.1071 89.692 80.0373 89.8905 80.0373 89.8905H74.7595C74.6924 89.7367 74.6449 89.5829 74.6112 89.4234C74.0911 86.8979 77.5983 83.8071 77.5983 83.8071L78.7116 85.2924C78.7116 85.2924 78.583 87.6698 79.5255 88.1648C80.0905 88.4613 80.1632 89.0206 80.1267 89.4234Z" fill="#093951"/>
<path d="M74.6113 89.4233H80.1269C80.1073 89.6919 80.0374 89.8904 80.0374 89.8904H74.7596C74.6925 89.7367 74.645 89.5827 74.6113 89.4233Z" fill="#0D527C"/>
<path d="M79.2843 87.9755C79.2843 87.9755 77.0606 87.4686 76.0469 88.1249V87.7579C76.0469 87.7579 77.9171 86.8488 79.2843 87.9755Z" fill="#0D527C"/>
<path d="M78.8437 87.4113C78.8437 87.4113 77.424 86.7623 76.0469 87.4113L76.2041 87.041C76.2041 87.041 77.8489 86.4192 78.8437 87.4113Z" fill="#0D527C"/>
<path d="M90.8853 89.4234C90.8657 89.692 90.7958 89.8905 90.7958 89.8905H85.5182C85.4512 89.7367 85.4037 89.5829 85.37 89.4234C84.8499 86.8979 88.3571 83.8071 88.3571 83.8071L89.4702 85.2924C89.4702 85.2924 89.3415 87.6698 90.284 88.1648C90.8491 88.4613 90.9217 89.0206 90.8853 89.4234Z" fill="#093951"/>
<path d="M85.3701 89.4233H90.8856C90.866 89.6919 90.7962 89.8904 90.7962 89.8904H85.5184C85.451 89.7367 85.4035 89.5827 85.3701 89.4233Z" fill="#0D527C"/>
<path d="M90.0431 87.9755C90.0431 87.9755 87.8194 87.4686 86.8057 88.1249V87.7579C86.8057 87.7579 88.6761 86.8488 90.0431 87.9755Z" fill="#0D527C"/>
<path d="M89.6025 87.4113C89.6025 87.4113 88.1828 86.7623 86.8057 87.4113L86.9629 87.041C86.9629 87.041 88.6079 86.4192 89.6025 87.4113Z" fill="#0D527C"/>
<path d="M75.8975 48.5762C75.3114 53.5997 75.2088 58.7159 75.1842 60.0137C75.1595 61.3115 74.8113 75.8094 74.3461 81.4176C74.1077 84.2905 74.6239 87.7679 74.6239 87.7679C74.6239 87.7679 77.6174 85.5558 78.9749 87.1994L79.6248 84.9577L79.1045 83.1928C79.1045 83.1928 80.0507 81.733 79.5481 80.5986C79.0455 79.4643 81.6793 55.2184 81.6793 55.2184L82.9105 55.14L84.5501 82.9833L84.596 85.3259L85.3709 87.8795C87.8233 85.4857 89.7072 86.9898 89.7072 86.9898L90.094 84.9577L89.2431 83.8047L89.8079 78.8995C89.8079 78.8995 88.6346 52.0838 89.315 49.0749L75.8975 48.5762Z" fill="#8B383E"/>
<path d="M91.2062 29.2995C91.2062 29.2995 88.2756 25.8673 84.018 26.0453C78.7425 26.2657 76.9029 28.778 76.1472 29.4872C75.3914 30.1964 75.0898 52.5439 75.0898 52.5439C75.0898 52.5439 82.7633 53.1851 89.3973 51.6577C89.3973 51.6577 89.0759 44.1045 89.5983 38.5634C90.1484 32.7267 91.2062 29.2995 91.2062 29.2995Z" fill="#CFECFF"/>
<path d="M74.2832 58.1016L78.7433 58.6773C78.7433 58.6773 78.972 46.3759 79.1709 38.9138C79.2085 37.3913 79.2489 36.0704 79.2839 35.0968C79.3215 34.0369 79.3807 33.0847 79.4723 32.2292C79.475 32.2183 79.475 32.2077 79.4776 32.1969C79.4776 32.1888 79.4803 32.1807 79.4803 32.1727C79.4803 32.1618 79.4803 32.1512 79.4831 32.1376C79.4992 32.0085 79.5126 31.8822 79.5287 31.7584C79.5341 31.7261 79.5396 31.691 79.5449 31.6562C80.0048 28.2535 81.132 26.5506 84.0183 26.0448C87.7521 25.3912 88.1072 28.482 88.1072 28.482C88.0883 28.8935 88.0883 29.9264 88.1019 31.3738V31.3846C88.1208 33.4721 88.1664 36.4204 88.2282 39.6267C88.3896 48.4686 88.6425 59.2555 88.6425 59.2555C88.6425 59.2555 91.2061 57.6576 90.8941 56.5226C90.851 56.3612 90.7892 55.4062 90.7219 53.9886C90.4637 48.5037 90.095 36.1082 90.095 36.1082C90.095 36.1082 90.122 36.0437 90.1649 35.9226C90.4607 35.1049 91.5959 31.7611 91.2058 29.2998C91.1869 29.1787 91.1304 29.0362 91.0364 28.8801C90.2993 27.6077 87.3295 25.429 84.8064 25.5069C83.5959 25.5445 81.6913 25.9482 79.8891 26.5237C77.5031 27.2822 75.2891 28.3476 75.0954 29.2702C75.0927 29.2811 75.0927 29.2891 75.0901 29.2998C74.9961 29.8754 74.867 33.6441 74.7404 38.2789C74.7404 38.2789 74.7404 38.2789 74.7404 38.2816C74.6032 43.2743 74.4688 49.273 74.3826 53.3538C74.321 56.1917 74.2832 58.1016 74.2832 58.1016Z" fill="#6097B2"/>
<path d="M86.5453 27.2976C87.1023 27.5353 85.9721 29.5378 84.7186 29.8837C83.4648 30.2295 80.0596 28.5077 80.0596 27.7059C80.0596 26.904 84.0387 26.2278 86.5453 27.2976Z" fill="#FF8B66"/>
<path d="M79.4721 32.2294C79.4749 32.2321 79.4749 32.2321 79.4749 32.2321C79.4749 32.2321 79.4749 32.2213 79.4777 32.1971C79.4777 32.189 79.4804 32.181 79.4804 32.1729C79.4804 32.162 79.4804 32.1514 79.4832 32.1378C79.4913 32.0571 79.5046 31.928 79.5289 31.7586C79.5342 31.7263 79.5397 31.6913 79.545 31.6564C79.7843 30.1742 80.804 26.3733 84.933 26.9031C87.2517 27.1989 87.927 29.5824 88.1018 31.3738V31.3846C88.2039 32.4203 88.1368 33.2595 88.1287 33.3805C88.1582 33.1412 88.5564 30.1982 90.0951 30.0961C90.5039 30.0691 90.8536 29.5796 91.0367 28.8801C91.572 26.8303 90.6627 22.9809 85.5062 23.6777C82.4424 24.092 80.7665 25.2192 79.8894 26.5236C78.2239 28.9986 79.4265 32.1139 79.4721 32.2294Z" fill="#74ABC1"/>
<path d="M85.5053 25.4756C85.5053 25.4756 85.6863 26.7349 86.2198 27.4676C86.2198 27.4676 84.7186 30.2029 82.1816 27.4095C82.1816 27.4095 82.7419 26.3736 82.3958 25.6165L85.5053 25.4756Z" fill="#EF6E4B"/>
<path d="M75.5268 53.7441C75.5268 53.7441 75.9095 54.3274 76.0019 54.6076C76.1131 54.9439 76.0487 55.7696 76.0487 55.7696C76.0487 55.7696 76.0174 55.847 75.9019 55.7719C75.7225 55.6554 75.8834 55.2123 75.6058 55.079C75.3283 54.946 75.5268 53.7441 75.5268 53.7441Z" fill="#EF6E4B"/>
<path d="M73.5441 52.7634C73.5441 52.7634 75.0307 52.5845 75.3625 52.9976C75.3625 52.9976 75.6163 54.2152 75.7519 54.606C75.9009 55.035 75.8204 56.532 75.5914 56.793C74.9849 57.484 74.953 57.4436 74.8066 57.2866C74.6605 57.1296 75.1725 56.7504 75.2108 56.5332C75.2297 56.426 75.0812 55.9204 75.0812 55.9204C75.0858 56.1419 74.9784 56.4937 74.7442 56.6328C74.4537 56.8055 74.21 56.9867 74.0599 56.894C73.7887 56.7266 74.474 56.3356 74.423 56.1458C74.4046 56.0776 74.3446 55.6389 74.3446 55.6389C74.272 55.765 74.2658 55.9877 74.1752 56.0914C74.0592 56.2242 73.5241 56.5929 73.4263 56.4619C73.2737 56.2579 73.7689 55.942 73.7724 55.7426C73.7738 55.6633 73.7034 55.3191 73.7034 55.3191C73.7034 55.3191 73.5702 55.5964 73.4798 55.6716C73.3751 55.7587 72.896 55.9863 72.8668 55.877C72.79 55.5914 73.2654 55.4733 73.3136 55.0645C73.3537 54.7252 73.196 53.9383 73.3993 53.5985C73.6032 53.2582 73.5441 52.7634 73.5441 52.7634Z" fill="#FF8B66"/>
<path d="M72.6772 51.2207C72.5723 52.2322 72.9435 52.6787 72.9435 52.6787C72.9435 52.6787 73.6375 53.1117 74.3826 53.354C74.8398 53.5046 75.3134 53.58 75.6576 53.4428C76.5613 53.0824 75.3913 52.5496 75.6576 51.5921C75.9239 50.6344 76.4027 42.7071 76.669 40.9505C76.7174 40.6249 76.7578 40.2591 76.7953 39.8717C76.7981 39.8475 76.7981 39.8341 76.7981 39.8341C76.7981 39.8341 76.7981 39.8261 76.8009 39.8127C76.9489 38.134 77.0079 36.0708 77.3067 35.046C77.6807 33.7683 75.2165 29.1199 75.2165 29.1199C75.1762 29.1655 75.1358 29.2167 75.0955 29.2704C74.0813 30.6639 73.8581 34.1017 73.7504 36.9665C73.6967 38.4757 73.6725 39.8261 73.5837 40.633C73.3174 43.0271 73.1561 47.3149 72.6772 48.5765C72.1983 49.8381 72.7846 50.2093 72.6772 51.2207Z" fill="#74ABC1"/>
<path opacity="0.5" d="M73.75 36.9666C73.9706 37.7145 73.9195 38.8684 74.2826 39.0351C74.6646 39.2098 74.6429 38.672 74.7398 38.2819C74.7398 38.2791 74.7398 38.2791 74.7398 38.2791C74.7935 38.0665 74.8797 37.8998 75.0895 37.9187C75.6813 37.9725 75.1379 42.5483 75.8266 42.602C76.4696 42.6504 76.7573 40.2051 76.7949 39.8715C76.7977 39.8473 76.7977 39.834 76.7977 39.834C76.7977 39.834 76.7977 39.8259 76.8004 39.8125C76.8113 39.721 76.8678 39.3553 77.1043 39.3579C77.3759 39.3606 77.5832 40.8993 77.6908 41.3189C77.7985 41.7386 78.2234 41.962 78.3419 40.0493C78.4307 38.6667 78.8261 38.6129 79.1705 38.914C79.3024 39.0298 79.426 39.1937 79.5228 39.3579C79.8726 39.9497 79.66 38.3976 80.3782 38.3008C81.0938 38.2039 80.6175 40.7917 81.2658 41.5368C81.9169 42.282 82.0541 39.6753 82.7856 38.7688C83.5146 37.865 83.703 39.834 84.4615 39.783C85.2175 39.7346 85.4596 36.7999 86.6833 36.9613C87.9074 37.1199 87.3748 39.8879 87.9934 39.7805C88.0983 39.7616 88.1736 39.7078 88.2274 39.6271C88.499 39.229 88.2758 38.1719 88.6417 37.5667C89.0802 36.8404 88.9697 38.5027 89.3977 39.143C89.6773 39.5626 89.7257 38.0294 89.8548 36.9371C89.9222 36.3641 90.0109 35.9148 90.1642 35.9228C90.6108 35.9498 90.514 37.3862 90.6915 38.013C90.869 38.6397 90.9389 37.4401 91.2859 37.3002C91.4445 37.2384 91.676 37.6633 91.8992 38.0668C91.7862 33.8891 91.6248 29.8784 91.2052 29.3C91.1863 29.1789 91.1298 29.0364 91.0357 28.8804C91.5711 26.8305 90.6618 22.9812 85.5052 23.6779C82.4414 24.0922 80.7655 25.2194 79.8885 26.5239C77.5025 27.2824 75.2885 28.3478 75.0948 29.2705C74.0808 30.6639 73.8577 34.1017 73.75 36.9666Z" fill="url(#paint0_linear_886_54844)"/>
<path d="M88.1726 20.9488C88.1726 20.9488 88.905 20.9296 88.538 22.0128C88.1709 23.0959 88.013 23.5388 88.1726 24.0864C88.3321 24.6339 87.4454 24.8942 87.4454 24.8942L82.3119 25.9601C82.3119 25.9601 82.1982 25.5372 81.8688 25.4757C81.5393 25.4141 81.0219 25.024 81.149 24.4458C81.2762 23.8676 80.9717 22.9666 80.9717 22.9666L88.1726 20.9488Z" fill="#0C476B"/>
<path d="M82.2364 23.7232C82.2364 23.7232 81.3808 22.8692 81.2754 23.8675C81.1535 25.024 82.2039 25.4899 82.4091 25.122C82.6143 24.754 82.2364 23.7232 82.2364 23.7232Z" fill="#FF8B66"/>
<path d="M84.8384 27.7057C82.9398 27.7057 81.8682 26.4655 81.8682 22.7458C81.8682 20.8271 82.8443 19.6504 84.971 19.6504C87.0976 19.6504 87.9933 20.8271 87.9933 22.7458C87.9933 26.7429 86.7997 27.7057 84.8384 27.7057Z" fill="#FF8B66"/>
<path d="M87.634 25.4178C87.6674 25.6087 87.5007 25.797 87.2621 25.8388C87.0234 25.8805 86.803 25.7595 86.7698 25.5686C86.7366 25.3777 86.9031 25.1893 87.1417 25.1476C87.3803 25.1061 87.6008 25.2269 87.634 25.4178Z" fill="#DB614D"/>
<path d="M84.2796 25.2738C84.2669 25.467 84.0608 25.6111 83.8189 25.5952C83.5773 25.5795 83.3915 25.4101 83.4039 25.2166C83.4166 25.0234 83.6227 24.8793 83.8646 24.8952C84.1064 24.9109 84.292 25.0804 84.2796 25.2738Z" fill="#DB614D"/>
<path d="M85.1467 23.2379C85.1864 23.2391 85.2255 23.2515 85.256 23.275C85.3187 23.3237 85.3187 23.4014 85.2567 23.4484C84.7015 23.8664 83.8035 23.8224 83.7684 23.82C83.6801 23.815 83.6126 23.7566 83.6174 23.6891C83.6223 23.6213 83.7014 23.5717 83.7862 23.5754C83.792 23.5766 84.5795 23.6121 85.0296 23.2723C85.0621 23.248 85.1045 23.2365 85.1467 23.2379Z" fill="#0C476B"/>
<path d="M86.655 23.2384C86.6191 23.2395 86.5833 23.2518 86.5561 23.2753C86.4994 23.3239 86.4996 23.4014 86.5561 23.4487C87.0613 23.8683 87.876 23.8268 87.9079 23.8245C87.9879 23.8196 88.0492 23.7615 88.0446 23.694C88.04 23.6262 87.968 23.5764 87.8913 23.5798C87.886 23.581 87.1712 23.6142 86.762 23.2732C86.7318 23.2485 86.6935 23.237 86.655 23.2384Z" fill="#0C476B"/>
<path d="M86.0346 26.0319L85.8926 25.8887L86.2681 25.5157C85.9041 25.0009 85.9059 23.8094 85.9062 23.7561L86.1079 23.7573C86.1079 23.7702 86.1061 25.052 86.4775 25.4548L86.5434 25.5263L86.0346 26.0319Z" fill="#DB614D"/>
<path d="M83.8418 21.4944C83.8418 21.4944 83.7934 22.2748 84.2801 22.5941C84.7668 22.9135 84.4602 23.2378 84.4602 23.2378C84.4602 23.2378 84.7758 23.3614 84.931 22.8846C85.0861 22.4081 84.8466 21.929 85.1659 21.6364C85.1659 21.6364 85.2293 22.4346 85.5034 22.5411C85.7778 22.6476 86.087 22.8726 85.8924 23.2524C85.6978 23.6319 86.2179 23.6784 86.2179 23.6784C86.2179 23.6784 85.9399 23.5092 86.2179 23.2378C86.496 22.9667 86.5225 22.5144 86.3894 22.2218C86.2564 21.9292 86.765 21.6364 86.765 21.6364C86.765 21.6364 86.5022 21.9758 86.765 22.3781C87.0281 22.7804 87.2204 23.1625 86.765 23.5302C86.765 23.5302 87.4537 23.3879 87.5069 22.8846C87.5602 22.3813 87.5558 22.009 87.6379 21.9557C87.6379 21.9557 87.735 22.4991 87.9934 22.7463C88.2519 22.9935 88.1991 23.5302 88.1991 23.5302C88.1991 23.5302 88.9703 23.0997 88.8637 22.6741C88.7575 22.2485 88.2784 21.9825 88.5977 21.3706C88.917 20.7587 88.4647 20.0138 87.773 19.934C87.773 19.934 87.6665 18.2579 85.751 18.5507C83.8356 18.8433 83.7291 18.4709 83.0109 18.6572C82.2925 18.8435 82.3458 19.5352 82.3458 19.5352C82.3458 19.5352 81.7339 19.3756 81.4146 19.9875C81.0952 20.5994 81.3348 21.2643 80.9622 21.6369C80.5896 22.0095 80.4036 22.6479 80.7227 23.1002C81.042 23.5525 80.8024 24.3148 80.8024 24.3148C80.8024 24.3148 81.2499 24.1474 81.2656 23.5306C81.2656 23.5306 81.2841 24.3588 81.8681 24.3148C82.4521 24.2707 82.4094 25.1226 82.4094 25.1226C82.4094 25.1226 82.8246 24.8909 82.6916 24.3148C82.5586 23.7386 82.9842 23.0469 82.9842 23.0469C82.9842 23.0469 83.14 23.3552 82.9044 23.6789C82.9044 23.6789 83.7708 23.393 83.6168 22.6213C83.4633 21.8492 83.8418 21.4944 83.8418 21.4944Z" fill="#1A4850"/>
<path d="M84.8373 24.3501C84.8373 24.3501 84.4117 24.7137 84.1279 24.4389" stroke="#0C476B" stroke-width="0.5834" stroke-miterlimit="10" stroke-linecap="round" stroke-linejoin="round"/>
<path d="M86.6826 24.314C86.6826 24.314 87.0195 24.7541 87.3565 24.4456" stroke="#0C476B" stroke-width="0.5834" stroke-miterlimit="10" stroke-linecap="round" stroke-linejoin="round"/>
<path d="M86.2185 26.9783C86.2185 26.9783 85.9818 26.6555 85.3035 26.762C84.6254 26.8686 84.4834 27.0636 84.4834 27.0636" stroke="#0C476B" stroke-width="0.5834" stroke-miterlimit="10" stroke-linecap="round" stroke-linejoin="round"/>
<path d="M82.5865 17.7256C82.5865 17.7256 82.7257 18.2842 83.1483 18.2842C83.571 18.2842 84.4261 18.7476 85.0894 18.5159C85.7527 18.2842 86.519 18.3981 86.9084 18.6577C86.9084 18.6577 86.1949 18.5503 85.894 18.8696C85.5929 19.1889 83.8432 19.0026 83.8432 19.0026C83.8432 19.0026 84.1831 19.2189 84.1298 19.7226C84.0766 20.2264 84.5732 20.9978 84.4846 21.4769C84.3959 21.9558 84.1298 22.0821 84.1298 22.0821C84.1298 22.0821 83.932 21.6099 83.6184 21.4504C83.3051 21.2909 83.1516 20.6564 83.1483 20.0689C83.1451 19.4815 82.785 19.4284 82.785 19.4284C82.785 19.4284 82.8627 19.9606 82.4719 20.4129C82.0811 20.8653 81.9774 21.0515 81.8697 21.4771C81.7618 21.9027 81.2673 22.0823 81.2673 22.0823C81.2673 22.0823 81.3546 21.8048 81.2673 21.4771C81.1801 21.1495 81.1499 20.5725 81.6023 20.1203C82.0546 19.668 82.156 18.6711 82.4719 18.3912C82.4719 18.3912 82.3204 17.9656 82.3204 17.726H82.5865V17.7256Z" fill="#FFB878"/>
<path d="M79.5061 25.9281C79.5061 25.9281 79.7032 25.6768 79.6453 25.1475L79.447 25.1724C79.447 25.1724 79.575 25.5062 79.3936 25.8993L79.5061 25.9281Z" fill="#0C476B"/>
<path d="M80.1503 26.2048C80.1503 26.2048 79.7756 26.1974 79.5693 26.9107C79.3629 27.624 79.7456 28.1433 79.7456 28.1433C79.7456 28.1433 78.6867 28.161 78.0479 27.5627C78.0479 27.5627 78.3921 27.6411 78.6955 26.99C78.9989 26.3389 78.7086 25.9011 78.7086 25.9011L80.1503 26.2048Z" fill="#CFECFF"/>
<path d="M80.3789 26.3922C80.3789 26.3922 80.301 25.5843 79.545 25.7738C79.545 25.7738 78.7858 25.1855 78.3447 26.1314C78.3447 26.1314 78.7182 25.9788 78.8201 26.1051C78.922 26.2315 78.8695 26.5695 78.8695 26.5695C78.8695 26.5695 78.9557 26.4 79.3871 26.3961C79.8184 26.3922 79.8099 26.8152 79.8099 26.8152C79.8099 26.8152 80.0432 26.2313 80.3789 26.3922Z" fill="#F24052"/>
<path d="M77.9385 27.4621C77.9385 27.4621 77.9415 28.2737 78.7117 28.1547C78.7117 28.1547 79.4133 28.8106 79.9399 27.9094C79.9399 27.9094 79.554 28.027 79.4643 27.8917C79.3746 27.7566 79.458 27.4246 79.458 27.4246C79.458 27.4246 79.3566 27.5852 78.9266 27.5495C78.4966 27.5135 78.5444 27.093 78.5444 27.093C78.5444 27.093 78.2578 27.6533 77.9385 27.4621Z" fill="#F24052"/>
<path d="M75.8116 28.1433C75.8116 28.1433 76.8048 28.0322 77.0176 28.3372C77.2304 28.6422 76.7693 29.6354 77.0176 30.0965C77.2659 30.5576 77.6915 30.948 77.6915 30.948C77.6915 30.948 77.158 30.9175 76.7515 31.1963C76.3451 31.475 75.9889 32.154 75.8116 32.296C75.6343 32.4378 75.0904 32.296 75.0904 32.296C75.0904 32.296 75.3624 31.4446 75.0904 31.0545C74.8183 30.6642 74.8894 29.8681 74.499 29.9291C74.499 29.9291 74.6242 29.3143 74.9163 29.1201C75.2087 28.926 75.8116 28.1433 75.8116 28.1433Z" fill="#0C476B"/>
<path d="M89.8135 30.1926C89.7187 30.2468 89.623 30.2998 89.5264 30.3508C89.6873 30.8008 89.8404 31.3906 89.7821 31.9056C89.6696 32.8989 89.2207 33.5728 89.2207 34.3887C89.2207 35.2046 89.8946 35.9495 89.8238 36.3751C89.7528 36.8007 89.8709 37.3008 89.8709 37.3008L90.1286 37.2268C90.1286 37.2268 90.0947 36.1091 90.1646 35.9216C90.2344 35.7342 90.1784 35.2399 89.7706 34.6723C89.3627 34.1046 89.9303 33.4307 90.2139 32.6148C90.42 32.0221 90.3984 30.9184 90.0057 30.0847C89.9414 30.1207 89.8766 30.1564 89.8135 30.1926Z" fill="#F24052"/>
<path d="M91.0378 28.897C90.9145 29.2546 90.7554 29.6214 90.4287 29.836C90.3393 29.8948 90.2457 29.949 90.1514 30.0025C90.4751 30.2542 90.8114 30.4341 90.9555 30.2411C91.2714 29.818 91.9875 30.2411 91.9875 30.2411C91.682 29.6154 91.3346 29.1852 91.0378 28.897Z" fill="#FFB878"/>
<path d="M74.3471 1.43384C74.3471 1.43384 73.5858 2.71479 74.3182 2.95733C75.0509 3.20011 74.3471 1.43384 74.3471 1.43384Z" fill="#093951"/>
<path d="M74.3477 1.43387C74.3477 1.43387 75.8744 1.99896 75.8327 1.39007C75.7909 0.781178 74.9729 1.02741 74.3477 1.43387Z" fill="#093951"/>
<path d="M75.3983 2.38769C74.8878 3.01064 73.8485 1.73338 74.2854 1.35366C74.669 1.02005 75.873 1.80831 75.3983 2.38769Z" fill="#093951"/>
<path d="M75.8301 2.66968C75.8301 2.66968 75.9391 2.76121 76.1452 2.92052" stroke="#093951" stroke-width="1.1668" stroke-linecap="round" stroke-linejoin="round"/>
<path d="M77.6689 4.0049C80.4137 5.81843 85.8753 8.75983 91.6047 8.0624C99.7633 7.06918 90.8813 0.487345 84.716 2.32393C79.7502 3.80316 76.9902 11.2288 83.4026 15.2351C84.8707 16.1525 91.7357 17.5898 89.8641 12.1888C89.2181 10.3246 85.3579 9.09275 82.1534 10.1943C79.0426 11.2636 76.6776 16.5484 79.2837 19.1347" stroke="#093951" stroke-width="1.1668" stroke-linecap="round" stroke-linejoin="round" stroke-dasharray="3.48 8.12"/>
<path d="M80.0225 19.7092C80.1345 19.7777 80.2523 19.8425 80.3759 19.9038" stroke="#093951" stroke-width="1.1668" stroke-linecap="round" stroke-linejoin="round"/>
<path d="M123.994 23.9631L121.406 31.7819L116.593 30.4159C114.655 28.8117 115.278 24.792 115.278 24.792L123.994 23.9631Z" fill="#CE364C"/>
<path d="M111.197 87.3453C111.197 87.6211 111.225 87.8152 111.225 87.8152H119.197C119.197 87.6577 119.194 87.5 119.186 87.3453C119.096 85.2602 118.437 83.4511 118.437 83.4511L116.445 82.5957C116.273 83.6228 115.832 84.2783 115.277 84.7062C115.131 84.8215 114.979 84.9171 114.822 84.9988C114.748 85.0382 114.675 85.0748 114.599 85.1085C114.433 85.1846 114.262 85.2464 114.09 85.2971C113.387 85.511 112.675 85.556 112.177 85.6319C111.327 85.764 111.197 86.7459 111.197 87.3453Z" fill="#CE364C"/>
<path d="M111.197 87.3452C111.197 87.621 111.225 87.8151 111.225 87.8151H119.197C119.197 87.6576 119.194 87.4999 119.186 87.3452H111.197Z" fill="#ADBEC4"/>
<path d="M114.821 84.9986L115.927 85.3532L116.161 84.9479L115.277 84.7058C115.131 84.8213 114.979 84.917 114.821 84.9986Z" fill="#ADBEC4"/>
<path d="M114.09 85.2967L114.835 85.792L115.294 85.6119L114.599 85.1082C114.433 85.1842 114.262 85.246 114.09 85.2967Z" fill="#ADBEC4"/>
<path d="M125.348 87.3455C125.367 87.6157 125.438 87.8153 125.438 87.8153H130.748C130.815 87.6606 130.863 87.5057 130.897 87.3455C131.42 84.8046 127.891 81.6953 127.891 81.6953L126.771 83.1895C126.771 83.1895 126.901 85.5813 125.952 86.0793C125.384 86.3776 125.311 86.9404 125.348 87.3455Z" fill="#CE364C"/>
<path d="M130.897 87.3455H125.348C125.367 87.6157 125.438 87.8153 125.438 87.8153H130.747C130.815 87.6606 130.863 87.5059 130.897 87.3455Z" fill="#ADBEC4"/>
<path d="M126.195 85.8888C126.195 85.8888 128.432 85.3788 129.452 86.0392V85.6698C129.452 85.6698 127.571 84.7554 126.195 85.8888Z" fill="#ADBEC4"/>
<path d="M126.639 85.3211C126.639 85.3211 128.067 84.6682 129.453 85.3211L129.294 84.9486C129.294 84.9486 127.64 84.3231 126.639 85.3211Z" fill="#ADBEC4"/>
<path d="M134.216 46.2737C134.216 51.3249 133.719 56.469 133.591 57.7737C133.463 59.0786 132.112 73.6558 131.922 79.2949C131.825 82.1835 130.897 85.6801 130.897 85.6801C130.897 85.6801 128.145 83.4557 126.586 85.1083L126.196 82.8544L126.927 81.0799C126.927 81.0799 126.146 79.6119 126.785 78.4714C127.424 77.3308 127.619 52.9521 127.619 52.9521L126.39 52.8733L120.491 81.0796V82.6863C120.491 82.6863 119.209 84.7325 119.198 86.0388L115.278 84.7058L115.917 82.8542L115.492 80.2104L116.916 76.763C116.916 76.763 120.99 49.8005 120.659 46.7751L134.216 46.2737Z" fill="#0D527C"/>
<path d="M116.594 30.4159C115.958 29.8914 115.598 29.1056 115.4 28.287C115.075 26.9336 115.194 25.489 115.253 24.982C115.268 24.8602 115.278 24.792 115.278 24.792C115.278 24.792 115.367 24.8478 115.504 24.982C115.876 25.3545 116.593 26.3302 116.69 28.3729C116.718 28.9611 116.692 29.6378 116.594 30.4159Z" fill="#A02E44"/>
<path d="M116.69 28.3728C116.309 28.3475 115.866 28.3171 115.4 28.2866C114.353 28.2181 113.185 28.137 112.343 28.0764C110.414 27.9343 102.008 26.6165 102.008 26.6165V24.4749C102.008 24.4749 104.976 24.4292 108.28 24.4749C111.585 24.5205 113.489 24.9819 113.489 24.9819H115.503C115.876 25.3544 116.594 26.3301 116.69 28.3728Z" fill="#FF8B66"/>
<path d="M121.489 24.2013C123.863 23.466 132.955 23.9947 136.054 26.2871C136.054 26.2871 134.14 39.911 134.491 48.6079C134.491 48.6079 124.866 49.3339 120.454 47.3285L121.489 24.2013Z" fill="#F24052"/>
<path d="M125.977 21.9155L126.538 25.2352C126.538 25.2352 127.437 25.7514 129.527 24.5779C129.527 24.5779 128.676 22.0178 129.75 20.3339C129.75 20.3339 129.513 20.3288 129.137 20.3431C129.137 20.3431 128.606 22.2472 125.977 21.9155Z" fill="#EF6E4B"/>
<path d="M130.415 18.7493C130.529 21.8966 126.036 23.2501 125.193 21.7504C124.923 21.2699 124.654 19.9359 124.555 19.0153C124.532 18.8065 124.516 18.5955 124.506 18.3841C124.443 16.95 124.698 15.5238 125.522 15.208C128.388 14.1062 130.275 14.8894 130.415 18.7493Z" fill="#FF8B66"/>
<path d="M128.215 18.4656C128.27 18.6332 128.145 18.8248 127.935 18.8938C127.726 18.9627 127.511 18.8825 127.456 18.7151C127.401 18.5475 127.527 18.3559 127.736 18.287C127.946 18.218 128.16 18.298 128.215 18.4656Z" fill="#DB614D"/>
<path d="M125.001 18.807C124.959 18.9719 124.761 19.0622 124.555 19.0154C124.532 18.8066 124.515 18.5956 124.506 18.3842C124.568 18.3747 124.633 18.3787 124.699 18.3955C124.912 18.4524 125.047 18.6373 125.001 18.807Z" fill="#DB614D"/>
<path d="M127.59 16.7201C127.631 16.7233 127.673 16.7067 127.7 16.6719C127.743 16.6168 127.733 16.5373 127.678 16.4939C127.331 16.2216 126.837 16.3063 126.816 16.3099C126.748 16.3222 126.702 16.3879 126.714 16.4566C126.726 16.5253 126.791 16.5712 126.86 16.5594C126.864 16.5587 127.265 16.4919 127.522 16.6936C127.542 16.7095 127.566 16.7183 127.59 16.7201Z" fill="#0E3944"/>
<path d="M124.716 17.0956C124.717 17.0956 124.719 17.0958 124.72 17.0958C124.79 17.099 124.849 17.0451 124.853 16.9752C124.857 16.8791 125.084 16.8309 125.205 16.8265C125.275 16.824 125.329 16.7654 125.327 16.6956C125.325 16.6257 125.265 16.5701 125.196 16.5734C124.981 16.5805 124.613 16.6707 124.6 16.9635C124.597 17.0317 124.648 17.09 124.716 17.0956Z" fill="#0E3944"/>
<path d="M125.519 19.3361C125.613 19.3437 125.72 19.3412 125.839 19.3285L125.814 19.1565C125.549 19.1849 125.355 19.1558 125.268 19.0754C125.23 19.0403 125.219 19.0011 125.216 18.9788C125.806 18.2982 125.863 17.4253 125.866 17.388L125.676 17.376C125.675 17.3847 125.617 18.2523 125.047 18.8921L125.03 18.911L125.027 18.9352C125.025 18.95 125.011 19.083 125.134 19.1964C125.22 19.276 125.349 19.3225 125.519 19.3361Z" fill="#EF6E4B"/>
<path d="M129.515 18.7991C129.515 18.7991 129.582 17.6588 128.891 16.9989C128.201 16.3391 128.801 15.3682 128.801 15.3682C128.801 15.3682 126.035 14.9004 124.804 16.0191C124.804 16.0191 123.882 14.3988 126.514 13.7373C129.146 13.0758 133.42 15.1199 129.829 20.6707L130.415 18.7495L129.515 18.7991Z" fill="#0E3944"/>
<path d="M129.604 18.6565C129.604 18.6565 130.224 17.9148 130.809 18.3591C131.395 18.8031 130.433 20.165 129.805 20.1212C129.177 20.0774 129.604 18.6565 129.604 18.6565Z" fill="#FF8B66"/>
<path d="M126.712 17.8012C126.712 17.8012 127.179 17.3157 127.457 17.8012" stroke="#0C476B" stroke-width="0.5496" stroke-miterlimit="10" stroke-linecap="round" stroke-linejoin="round"/>
<path d="M125.327 17.9015C125.327 17.9015 125.01 17.4189 124.758 17.9015" stroke="#0C476B" stroke-width="0.5496" stroke-miterlimit="10" stroke-linecap="round" stroke-linejoin="round"/>
<path d="M127.592 19.7406C127.589 19.9103 127.566 20.1335 127.485 20.3539C127.305 20.8558 126.824 21.3473 125.605 21.1726C125.551 21.1675 125.495 21.1573 125.44 21.1472L125.179 19.6696C125.179 19.6696 125.212 19.6721 125.27 19.6772C125.569 19.7 126.578 19.7507 127.574 19.4568C127.574 19.4568 127.592 19.5709 127.592 19.7406Z" fill="#1A4850"/>
<path d="M127.591 19.7406C126.616 20.0675 125.328 19.9179 125.328 19.9179L125.27 19.6772C125.569 19.7 126.577 19.7507 127.573 19.4568C127.573 19.4568 127.591 19.5709 127.591 19.7406Z" fill="white"/>
<path d="M127.484 20.3539C127.304 20.8559 126.823 21.3474 125.604 21.1726C125.639 20.8254 125.834 20.3235 126.711 20.572C126.711 20.572 127.18 20.2654 127.484 20.3539Z" fill="#DB614D"/>
<path d="M139.388 35.3299C137.315 37.0026 134.674 36.8684 134.674 36.8684C134.674 36.8684 133.805 35.1298 133.339 31.7817C132.971 29.1486 134.831 26.026 135.615 26.1731C135.615 26.1731 136.035 25.8056 137.014 27.6025C137.733 28.9279 139.388 35.3299 139.388 35.3299Z" fill="#CE364C"/>
<path d="M125.379 43.2093C125.616 43.0152 126.526 42.7129 126.526 42.7129C127.284 42.5995 127.703 42.5331 128.059 42.2813C128.414 42.0323 129.565 41.9396 129.565 41.9396C129.565 41.9396 129.582 41.1876 128.964 40.3036C128.964 40.3036 128.356 40.3719 128.188 40.2755C127.851 40.086 127.689 39.5112 127.004 39.2922C126.316 39.0732 125.564 38.4631 125.564 38.4631C125.564 38.4631 125.198 38.616 125.407 38.9277C125.618 39.2422 126.165 39.4564 126.215 39.6242C126.225 39.6583 126.232 39.6924 126.234 39.7263C126.234 39.7263 126.234 39.7291 126.236 39.7349C126.249 39.8619 126.216 39.9903 126.137 40.0664C126.134 40.0719 126.128 40.0802 126.12 40.0855C125.786 40.3523 124.834 40.3825 124.409 40.356C123.819 40.3177 123.003 40.3108 123.128 40.6758C123.253 41.0407 123.594 40.7235 124.885 41.049L124.897 41.1846C124.989 41.2132 124.097 41.4287 123.266 41.4578C122.693 41.4795 122.891 41.861 123.068 41.9491C123.245 42.0399 123.817 41.9339 124.232 41.9235C124.505 41.9136 124.79 41.9014 124.959 41.8935L125.041 42.0542C124.03 42.5866 123.627 42.3777 123.595 42.7088C123.564 43.0371 124.403 42.9492 124.727 42.7835C124.868 42.7125 125.157 42.6498 125.441 42.6009C124.748 43.1588 124.398 43.0813 124.431 43.3499C124.465 43.6266 125.141 43.4034 125.379 43.2093Z" fill="#FF8B66"/>
<path d="M102.738 24.9757C102.738 24.9757 101.756 23.8061 101.355 23.5167C100.953 23.2274 99.7109 23.4734 99.5956 23.6403C99.4804 23.8072 99.4349 24.0645 99.4349 24.0645C99.4349 24.0645 96.4375 24.1161 96.1618 24.2626C95.8863 24.409 96.0483 24.6833 96.0483 24.6833C96.0483 24.6833 97.0303 24.6462 98.4996 24.7652C98.4996 24.7652 98.4332 25.6272 98.539 25.7787C98.6448 25.9301 98.7509 26.0814 98.7663 26.3025C98.7818 26.5238 98.8327 26.7424 99.3316 26.8662C99.8308 26.99 102.202 26.8814 102.537 26.4318C102.872 25.9825 102.738 24.9757 102.738 24.9757Z" fill="#FF8B66"/>
<path d="M98.5 24.7651C98.5782 24.5214 99.1709 24.3685 99.4236 24.3508L99.4351 24.0642C99.4351 24.0642 99.5599 24.4843 99.6161 24.6072C99.6724 24.7303 99.7093 25.0293 99.9778 25.0104C100.246 24.9915 100.274 24.4815 100.19 24.1857C100.19 24.1857 100.598 24.7923 101.052 24.935C101.052 24.935 100.867 25.4563 100.886 25.7249C100.904 25.9935 100.527 26.2741 100.386 26.2999C100.386 26.2999 100.212 26.5344 100.163 26.5219C100.115 26.5095 99.6103 26.5616 99.6103 26.5616C99.6103 26.5616 99.9006 26.3974 99.878 26.3038C99.878 26.3038 100.095 26.225 99.9347 25.9822C99.7747 25.7394 99.0881 26.1369 99.0881 26.1369C99.0881 26.1369 99.2004 25.9225 99.4496 25.8575C99.6991 25.7922 99.8414 25.7823 99.8414 25.7823C99.8414 25.7823 99.8114 25.3565 99.6491 25.3039C99.4865 25.2513 98.956 25.3839 98.7764 25.5395C98.7764 25.5395 98.9325 25.2746 99.2136 25.2071C99.4946 25.1397 99.4437 24.6351 99.3634 24.6249C99.2832 24.6145 99.1377 24.5772 98.8903 24.674C98.6434 24.7709 98.5 24.7651 98.5 24.7651Z" fill="#EF6E4B"/>
<path d="M139.389 35.3299C139.27 35.4263 139.148 35.5174 139.024 35.6036C137.86 36.4071 136.586 36.7036 135.719 36.8126C135.088 36.8887 134.675 36.8684 134.675 36.8684C134.675 36.8684 134.999 36.5998 135.516 36.283C136.345 35.7735 137.671 35.1323 138.955 35.2566C139.1 35.2716 139.244 35.2944 139.389 35.3299Z" fill="#A02E44"/>
<path d="M138.435 41.0119C137.282 41.2627 132.231 42.1423 128.47 42.1169C128.47 42.1169 127.283 40.3099 127.773 40.2591C130.738 39.9601 132.821 38.4825 134.349 38.1682C135.878 37.854 136.078 37.854 135.878 37.2509C135.847 37.1596 135.791 37.0076 135.718 36.8124C135.66 36.6577 135.591 36.4778 135.515 36.2826C136.344 35.773 137.669 35.1319 138.954 35.2561C138.975 35.3677 138.997 35.4841 139.023 35.6033C139.248 36.7642 139.512 38.2545 139.52 39.0298C139.538 40.4113 139.588 40.7611 138.435 41.0119Z" fill="#FF8B66"/>
<path d="M144.085 32.9728L143.03 38.7235C143.03 38.7235 137.315 40.3606 135.881 40.1275C134.444 39.897 128.341 34.2249 128.341 34.2249C128.992 32.6484 130.774 32.3494 130.774 32.3494C130.774 32.3494 136.512 36.3488 137.128 36.085C137.743 35.8215 142.881 32.6408 144.085 32.9728Z" fill="#6EA6B7"/>
<path d="M150.28 31.657C150.28 31.657 146.794 31.1528 144.594 31.9214L144.434 32.8865C144.434 32.8865 141.713 35.202 141.158 36.2328C139.961 38.4565 139.02 46.1067 139.02 46.1067L150.049 45.8916L150.28 31.657Z" fill="#558999"/>
<path d="M132.123 87.8C132.597 87.4166 133.815 85.7744 134.066 84.9492C134.419 83.7833 134.838 82.1803 135.266 80.4338H137.089C136.491 82.3387 136.108 83.9323 135.937 84.6502C135.943 84.7705 135.971 84.8711 136.004 84.9868C136.056 85.162 136.157 87.8152 136.157 87.8152H132.074C132.09 87.8104 132.103 87.8067 132.111 87.8049C132.118 87.8026 132.12 87.8021 132.123 87.8Z" fill="#EF6E4B"/>
<path d="M145.809 80.4338H147.965C147.562 82.6541 147.247 84.5395 147.247 84.5395V87.8155H144.898C145.125 86.8349 145.778 83.8961 145.778 82.6566C145.777 81.9285 145.789 81.1845 145.809 80.4338Z" fill="#FF8B66"/>
<path d="M134.759 82.4467C136.04 77.5175 137.625 70.0556 137.831 68.8196C137.964 68.021 138.084 65.4861 138.398 62.3741C138.48 58.8254 138.889 50.712 140.882 46.1064L145.574 46.216C145.384 49.8732 148.93 53.8203 144.612 58.0505C144.05 59.63 142.187 64.9867 141.917 67.3457C141.597 70.1294 141.079 71.3636 139.469 74.4689C138.075 77.1567 137.089 80.2894 136.498 82.4465L134.759 82.4467Z" fill="#EF6E4B"/>
<path d="M150.662 62.1532C150.361 63.7115 149.935 64.7536 149.7 66.0648C149.359 67.9737 150.331 70.7395 149.35 73.8137C148.886 75.2689 148.019 80.0741 147.556 82.7315H145.776C145.776 82.7063 145.777 82.68 145.777 82.6561C145.777 76.1879 146.67 68.4763 146.537 65.5442C146.481 64.3084 146.271 62.5553 146.049 60.9603C146.048 60.9525 145.359 56.322 144.686 55.9335C141.934 54.3427 140.882 46.1064 140.882 46.1064L147.905 46.4331C147.905 46.4331 151.996 49.8322 150.922 55.8831C150.922 55.8831 150.926 55.9451 150.932 56.0539C151.103 58.9024 150.935 60.741 150.662 62.1532Z" fill="#FF8B66"/>
<path d="M136.363 87.8152C136.363 87.8152 136.543 85.3867 136.069 84.7527C136.069 84.7527 135.544 85.5864 134.826 85.5864C134.358 85.5864 134.17 84.5109 133.77 84.7527C133.419 84.9648 133.183 85.5714 132.241 86.1928C131.298 86.8141 130.533 86.6373 130.474 87.8152H136.363Z" fill="#093951"/>
<path d="M147.583 85.2828C147.583 85.2828 147.554 84.4763 146.435 84.5704C145.316 84.6644 145.396 85.476 145.396 85.476C145.396 85.476 145.227 85.3453 145.08 85.476C144.933 85.6067 145.057 86.7256 144.774 86.9612C144.491 87.1968 144.579 87.8152 144.579 87.8152H147.848C147.848 87.8152 148.025 87.02 147.701 86.7256C147.377 86.4312 148.201 85.3711 147.583 85.2828Z" fill="#093951"/>
<path d="M149.026 43.6834C149.86 45.7337 152.44 52.9265 151.596 62.542C151.596 62.542 149.082 64.1236 143.679 63.9435C137.832 63.7485 136.397 61.8881 136.397 61.8881C138.691 52.9263 141.664 42.3757 141.664 42.3757C138.425 36.8457 144.084 32.9731 144.084 32.9731C144.084 32.9731 144.125 32.9578 144.201 32.9325C144.943 32.6842 149.062 31.4244 151.751 33.1453C151.928 33.2569 152.098 33.3834 152.26 33.5229C155.157 36.0067 149.026 43.6834 149.026 43.6834Z" fill="#093951"/>
<path d="M145.274 23.6571C144.865 24.3746 144.833 26.038 145.602 26.8994C146.371 27.7607 149.178 24.6358 149.178 24.6358C149.178 24.6358 146.434 21.6255 145.274 23.6571Z" fill="#0E3944"/>
<path d="M149.93 23.5816C149.93 23.5816 145.768 22.1882 144.93 25.1183C144.092 28.0486 144.853 31.1392 146.807 30.9324C149.555 30.6416 153.163 25.2299 149.93 23.5816Z" fill="#FF8B66"/>
<path d="M147.833 27.6972C147.852 27.8726 147.689 28.0338 147.469 28.0568C147.25 28.0799 147.057 27.9565 147.039 27.7808C147.02 27.6054 147.183 27.4442 147.402 27.4212C147.622 27.3984 147.815 27.5217 147.833 27.6972Z" fill="#DB614D"/>
<path d="M147.51 25.9004C147.484 25.8988 147.458 25.8847 147.443 25.8605C147.269 25.5898 146.934 25.6214 146.93 25.6221C146.883 25.6272 146.84 25.5926 146.835 25.5451C146.83 25.4976 146.865 25.4549 146.912 25.4501C146.93 25.448 147.358 25.4075 147.588 25.7676C147.614 25.8077 147.602 25.8612 147.562 25.887C147.546 25.8971 147.528 25.9015 147.51 25.9004Z" fill="#0E3944"/>
<path d="M145.593 25.456C145.575 25.4549 145.558 25.4484 145.543 25.4362C145.297 25.2324 144.995 25.3597 144.982 25.3652C144.938 25.3843 144.887 25.3641 144.869 25.3205C144.85 25.2769 144.869 25.226 144.913 25.2068C144.93 25.1994 145.324 25.0302 145.653 25.303C145.69 25.3334 145.695 25.3878 145.664 25.4247C145.646 25.4468 145.619 25.4574 145.593 25.456Z" fill="#0E3944"/>
<path d="M145.17 28.5271C145.17 28.5271 145.798 28.932 146.896 28.5771C146.896 28.5771 146.566 29.8786 145.868 29.7131C145.17 29.5478 145.17 28.5271 145.17 28.5271Z" fill="#1A4850"/>
<path d="M148.833 26.098C148.833 26.098 149.553 26.9337 149.176 27.8771C149.176 27.8771 149.874 27.0213 150.24 27.7651C150.605 28.5086 149.142 29.595 149.142 29.595C149.142 29.595 150.699 29.8495 151.774 26.6813C152.189 25.4609 150.785 25.2364 148.833 26.098Z" fill="#0E3944"/>
<path d="M149.09 28.937C148.771 29.797 147.547 31.2868 146.25 30.8612C146.25 30.8612 146.576 32.1435 146.037 32.6106C146.037 32.6106 145.467 33.6029 146.764 33.744C148.386 33.9207 149.289 32.6106 149.289 32.6106C148.582 31.0371 149.553 29.0959 149.553 29.0959C149.203 29.3271 149.09 28.937 149.09 28.937Z" fill="#EF6E4B"/>
<path d="M145.376 28.0919L145.453 27.9181C145.422 27.9038 145.147 27.7708 145.257 27.5024C145.291 27.421 145.337 27.3694 145.395 27.3486C145.497 27.312 145.613 27.3747 145.614 27.3751L145.706 27.2089C145.698 27.2048 145.516 27.1052 145.333 27.169C145.221 27.208 145.137 27.2958 145.082 27.4302C144.935 27.786 145.21 28.0186 145.376 28.0919Z" fill="#DB614D"/>
<path d="M147.223 26.9477C147.211 27.135 147.105 27.2804 146.986 27.2728C146.867 27.265 146.781 27.1071 146.793 26.9198C146.805 26.7326 146.911 26.5872 147.03 26.5948C147.149 26.6024 147.235 26.7605 147.223 26.9477Z" fill="#1A4850"/>
<path d="M147.335 26.8993C147.335 26.8993 147.236 26.4684 147.083 26.4582C146.93 26.4481 146.675 26.7351 146.675 26.7351L146.395 26.5308L146.665 26.6369C146.665 26.6369 146.898 26.3088 147.11 26.3757C147.322 26.4423 147.335 26.8993 147.335 26.8993Z" fill="#1A4850"/>
<path d="M145.489 26.6792C145.476 26.8664 145.37 27.0121 145.252 27.0043C145.133 26.9964 145.047 26.8385 145.059 26.6513C145.071 26.4641 145.177 26.3186 145.296 26.3262C145.415 26.3341 145.501 26.492 145.489 26.6792Z" fill="#1A4850"/>
<path d="M145.602 26.6307C145.602 26.6307 145.503 26.1998 145.35 26.1897C145.197 26.1795 144.941 26.4666 144.941 26.4666L144.661 26.2623L144.931 26.3684C144.931 26.3684 145.165 26.0403 145.377 26.1071C145.589 26.1738 145.602 26.6307 145.602 26.6307Z" fill="#1A4850"/>
<path d="M145.146 24.5389C145.146 24.5389 145.355 24.0448 146.5 24.1483C147.646 24.2521 148.506 24.5273 148.576 25.5794C148.646 26.6314 149.659 26.7494 149.659 26.7494C149.659 26.7494 151.373 27.587 151.602 27.1476C152.065 26.2636 152.143 23.4917 150.32 22.6479C147.829 21.4949 144.891 22.6675 145.146 24.5389Z" fill="#0E3944"/>
<path d="M145.41 23.5953C145.41 23.5953 144.943 24.1802 146.012 24.7651C147.082 25.35 147.566 25.3014 147.566 25.3014C147.566 25.3014 146.681 25.0994 145.962 24.3474C145.962 24.3474 146.831 25.2366 148.485 25.2933C150.139 25.35 150.156 24.2805 150.156 24.2805C150.156 24.2805 146.43 22.3086 145.41 23.5953Z" fill="#0E3944"/>
<path d="M151.205 23.8917C151.205 23.8917 152.021 22.865 153.19 23.3826C154.358 23.9002 155.046 25.0807 154.168 26.9136C153.289 28.7465 152.979 30.0482 153.769 31.3021C154.559 32.5564 153.19 33.2291 153.19 33.2291C153.19 33.2291 153.815 32.6802 153.572 32.0946C153.406 31.6941 152.403 31.3487 151.92 30.6179C151.267 29.6276 152.123 28.2957 151.92 26.9336C151.718 25.5713 151.174 26.0979 151.174 26.0979L151.205 23.8917Z" fill="#0E3944"/>
<path d="M151.75 33.1453C151.4 33.3378 150.985 33.5432 150.495 33.7611C141.584 37.7478 143.678 34.0119 143.678 34.0119C143.683 33.7433 143.772 33.4923 143.929 33.2592C144.002 33.1451 144.093 33.0362 144.2 32.9322C144.927 32.689 148.891 31.4749 151.58 33.0438C151.639 33.0743 151.694 33.1098 151.75 33.1453Z" fill="#EF6E4B"/>
<path d="M151.75 33.1451C151.4 33.3377 150.985 33.5431 150.495 33.761C141.584 37.7477 143.678 34.0118 143.678 34.0118C143.683 33.7432 143.772 33.4921 143.929 33.259C144.253 33.4112 144.914 33.7102 145.133 33.761L145.275 34.3085L146.035 33.8167C146.035 33.8167 148.714 33.8928 151.58 33.0437C151.639 33.0741 151.694 33.1096 151.75 33.1451Z" fill="#FF8B66"/>
<path d="M150.28 31.657L148.143 32.5248L147.9 33.9277C147.9 33.9277 143.251 39.0126 147.437 47.128L151.75 46.1067L150.725 42.1149C150.725 42.1149 153.872 35.614 153.191 33.2294C153.037 32.6903 150.39 32.2986 150.39 32.2986L150.28 31.657Z" fill="#74ABC1"/>
<path d="M144.595 31.9214V33.423C144.595 33.423 141.67 35.8316 140.763 38.9065C139.855 41.9811 139.02 46.1066 139.02 46.1066C139.02 46.1066 139.638 38.8062 140.883 36.0992C142.128 33.3921 144.267 32.7237 144.267 32.7237L144.595 31.9214Z" fill="#74ABC1"/>
<path d="M130.774 32.3494C130.774 32.3494 130.718 32.6154 130.488 32.9525C130.242 33.3175 129.793 33.7661 128.995 34.0474C128.8 34.1184 128.582 34.1793 128.341 34.2249C128.992 32.6484 130.774 32.3494 130.774 32.3494Z" fill="#558999"/>
<path d="M129.422 32.3367L130.487 32.9525C130.241 33.3175 129.792 33.7662 128.994 34.0474C128.69 33.7636 128.005 33.0641 127.783 32.3088C127.734 32.1541 127.709 31.9946 127.709 31.8374C127.709 31.7334 128.054 30.2535 128.386 29.9998C128.386 29.9998 129.6 29.0292 129.843 29.1279C130.084 29.2268 130.786 29.5055 130.786 29.5055L129.843 29.5588L129.217 30.0605L129.498 30.8411L129.767 31.5863L130.801 31.5685C130.801 31.5685 130.145 31.9259 129.932 32.0527C129.899 32.073 129.863 32.0933 129.828 32.1136C129.63 32.2251 129.422 32.3367 129.422 32.3367Z" fill="#FF8B66"/>
<path d="M130.801 31.5687C130.801 31.5687 130.146 31.9252 129.931 32.054C129.714 32.1831 128.979 32.4144 128.979 32.4144V30.9603L129.499 30.8416L129.767 31.5869L130.801 31.5687Z" fill="#EF6E4B"/>
<path d="M132.888 31.8364H129.736C129.563 31.8364 129.423 31.6963 129.423 31.5233V29.8461C129.423 29.6732 129.563 29.5332 129.736 29.5332H132.888C133.061 29.5332 133.201 29.6734 133.201 29.8463V31.5236C133.201 31.6965 133.061 31.8364 132.888 31.8364Z" fill="#C96F32"/>
<path d="M132.683 31.8364H129.531C129.358 31.8364 129.218 31.6963 129.218 31.5233V29.8461C129.218 29.6732 129.358 29.5332 129.531 29.5332H132.683C132.855 29.5332 132.995 29.6734 132.995 29.8461V31.5233C132.996 31.6965 132.855 31.8364 132.683 31.8364Z" fill="#FFB878"/>
<path d="M132.598 30.3432H132.282C132.18 30.3432 132.098 30.2606 132.098 30.159V29.8424C132.098 29.7407 132.18 29.6582 132.282 29.6582H132.598C132.7 29.6582 132.783 29.7407 132.783 29.8424V30.159C132.783 30.2606 132.7 30.3432 132.598 30.3432Z" fill="#C96F32"/>
<path d="M132.689 29.852C132.689 29.9004 132.65 29.9396 132.601 29.9396C132.553 29.9396 132.514 29.9004 132.514 29.852C132.514 29.8036 132.553 29.7644 132.601 29.7644C132.65 29.7644 132.689 29.8036 132.689 29.852Z" fill="#1A4850"/>
<path d="M132.689 30.1494C132.689 30.1978 132.65 30.237 132.601 30.237C132.553 30.237 132.514 30.1978 132.514 30.1494C132.514 30.101 132.553 30.0618 132.601 30.0618C132.65 30.0618 132.689 30.101 132.689 30.1494Z" fill="#1A4850"/>
<path d="M132.367 29.852C132.367 29.9004 132.327 29.9396 132.279 29.9396C132.231 29.9396 132.191 29.9004 132.191 29.852C132.191 29.8036 132.231 29.7644 132.279 29.7644C132.327 29.7644 132.367 29.8036 132.367 29.852Z" fill="#1A4850"/>
<path d="M132.367 30.1494C132.367 30.1978 132.327 30.237 132.279 30.237C132.231 30.237 132.191 30.1978 132.191 30.1494C132.191 30.101 132.231 30.0618 132.279 30.0618C132.327 30.0618 132.367 30.101 132.367 30.1494Z" fill="#1A4850"/>
<path d="M129.407 29.5073C129.407 29.5073 130.233 29.81 130.395 29.9396C130.558 30.069 130.254 31.0412 130.254 31.0412L130.051 31.1221C130.051 31.1221 129.849 31.4749 129.747 31.4809C129.646 31.4869 129.423 31.5586 129.423 31.5586C129.423 31.5586 129.464 31.9724 128.998 32.1651C128.532 32.3579 128.066 32.0944 128.066 31.6286C128.066 31.1627 128.541 29.9179 129.407 29.5073Z" fill="#FF8B66"/>
<path d="M149.694 49.4508C150.082 49.5345 150.984 49.4677 151.352 49.2671C151.72 49.0665 151.715 48.9118 151.102 48.9996L150.281 48.7656L149.555 49.4859" fill="#EF6E4B"/>
<path d="M152.668 44.8052L150.83 46.2756C150.83 46.2756 148.763 46.5585 148.637 46.5885C148.51 46.6185 148.582 47.2783 148.637 47.5792C148.691 47.8801 148.791 48.4482 149.092 48.749C149.393 49.0499 149.46 49.4508 149.694 49.4508C149.928 49.4508 151.532 48.6003 151.866 47.8559L153.637 46.4765L152.668 44.8052Z" fill="#FF8B66"/>
<path d="M153.191 33.2295C153.191 33.2295 158.069 37.5699 159.974 39.8425C161.879 42.115 153.037 47.4625 153.037 47.4625C153.037 47.4625 151.898 47.4505 151.207 45.7354C151.207 45.7354 155.687 41.7475 155.725 41.5804C155.763 41.4132 156.164 41.2126 156.164 41.2126C156.164 41.2126 154.446 39.7445 152.13 38.7238C152.13 38.7238 150.681 34.868 153.191 33.2295Z" fill="#6EA6B7"/>
<path d="M119.199 10.0513L116.701 1.10815L115.942 2.5309L119.199 10.0513Z" fill="#CFECFF"/>
<path d="M115.942 11.8559L106.719 1.99951V3.692L115.942 11.8559Z" fill="#CFECFF"/>
<path d="M115.493 16.1987L106.719 11.856L107.721 14.2327L115.493 16.1987Z" fill="#CFECFF"/>
<path d="M146.445 17.7024L142.991 8.77072L144.214 7.99976L146.445 17.7024Z" fill="#CFECFF"/>
<path d="M148.226 18.0681L148.139 5.31323L149.608 5.85826L148.226 18.0681Z" fill="#CFECFF"/>
<path d="M149.521 18.3988L153.132 11.8713L154.678 12.682L149.521 18.3988Z" fill="#CFECFF"/>
<path d="M44.5078 9.89443L48.6064 0L49.334 0.832759L44.5078 9.89443Z" fill="#CFECFF"/>
<path d="M46.2383 12.1595L57.2608 2.94287L58.1966 4.62153L46.2383 12.1595Z" fill="#CFECFF"/>
<path d="M47.0049 15.5069L56.058 14.4434L55.3894 16.1474L47.0049 15.5069Z" fill="#CFECFF"/>
<path d="M40.8607 10.9989L41.9166 2.94287H40.6426L40.8607 10.9989Z" fill="#CFECFF"/>
<defs>
<linearGradient id="paint0_linear_886_54844" x1="82.8247" y1="24.1373" x2="82.8247" y2="43.0943" gradientUnits="userSpaceOnUse">
<stop/>
<stop offset="1" stop-opacity="0"/>
</linearGradient>
</defs>
</svg>
