<svg width="115" height="92" viewBox="0 0 115 92" fill="none" xmlns="http://www.w3.org/2000/svg">
<path d="M9.53408 29.4475H59.4082C59.4082 29.4475 58.2865 26.1968 54.7921 27.0167C54.7921 27.0167 54.0761 25.0433 52.1347 24.0183C50.1933 22.993 47.7051 24.0183 47.7051 24.0183C47.7051 24.0183 47.1759 22.4782 45.7989 21.93C44.4219 21.3819 42.9004 21.93 42.9004 21.93C42.9004 21.93 41.3562 17.6018 36.5218 17.6018C31.3889 17.6018 30.5179 21.4308 30.5179 21.4308C30.5179 21.4308 28.5132 18.5216 24.5365 19.2769C21.2135 19.9081 20.549 23.3829 20.549 23.3829C20.549 23.3829 19.6182 22.9833 18.5133 23.3829C17.4081 23.7825 17.3244 24.9787 17.3244 24.9787C17.3244 24.9787 15.938 24.311 14.6035 24.9787C13.0791 25.7416 13.436 27.5897 13.436 27.5897C13.436 27.5897 11.0939 27.5336 9.53408 29.4475Z" fill="#A39595" fill-opacity="0.6"/>
<path d="M75.656 21.6345H105.467C105.467 21.6345 104.796 19.9639 102.708 20.3853C102.708 20.3853 102.28 19.3711 101.119 18.8443C99.959 18.3173 98.4716 18.8443 98.4716 18.8443C98.4716 18.8443 98.1553 18.0527 97.3322 17.771C96.509 17.4893 95.5996 17.771 95.5996 17.771C95.5996 17.771 94.6766 15.5466 91.7869 15.5466C88.7189 15.5466 88.1982 17.5145 88.1982 17.5145C88.1982 17.5145 86.9999 16.0193 84.623 16.4076C82.6368 16.732 82.2396 18.5177 82.2396 18.5177C82.2396 18.5177 81.6832 18.3123 81.0226 18.5177C80.3621 18.723 80.3119 19.3378 80.3119 19.3378C80.3119 19.3378 79.4832 18.9946 78.6856 19.3378C77.7743 19.7299 77.9878 20.6795 77.9878 20.6795C77.9878 20.6795 76.5885 20.6508 75.656 21.6345Z" fill="#A39595" fill-opacity="0.6"/>
<path d="M95.1075 53.2282C95.2938 53.8616 95.4904 54.4844 95.5286 55.1343C95.5072 55.1661 95.5113 55.2841 95.535 55.252C95.5399 55.3567 95.739 55.3376 95.739 55.2344C95.737 55.167 95.7349 55.0997 95.7308 55.0344C96.1963 54.572 96.8722 54.279 97.4187 53.8772C97.8606 53.5519 98.1766 53.1644 98.3438 52.6996C98.7969 51.4501 98.3723 50.126 98.9174 48.8798C99.3871 47.8052 100.23 46.871 100.943 45.8975C101.696 44.8678 102.251 43.7859 102.307 42.5801C102.352 41.6566 102.214 40.4262 101.335 39.7346C100.403 39.0004 99.2479 39.5506 98.5338 40.2053C96.4651 42.1047 95.5079 44.505 95.1208 46.9593C94.9074 48.3178 94.6859 49.6844 94.7369 51.0556C94.7659 51.7919 94.8984 52.5125 95.1075 53.2282Z" fill="#EBEBEB"/>
<path d="M95.5192 55.633C95.4122 54.3492 95.4189 53.0635 95.576 51.7848C95.5732 51.7801 95.5682 51.7771 95.568 51.7709C95.542 50.7307 95.4385 49.6946 95.4895 48.6532C95.545 47.5217 95.7522 46.4128 96.0622 45.309C96.0659 45.2963 96.0905 45.2992 96.0875 45.3123C95.8325 46.3889 95.6843 47.4877 95.6351 48.5827C95.6087 49.1704 95.614 49.7586 95.6526 50.3458C95.6652 50.5368 95.6873 50.7294 95.7032 50.9221C95.7032 50.9215 95.7034 50.921 95.7034 50.9204C96.2278 47.993 97.5784 45.2159 99.572 42.7306C99.5992 42.6967 99.6739 42.733 99.6475 42.7676C98.2118 44.6429 97.1533 46.7028 96.4988 48.8401C97.4937 47.3655 98.9961 46.153 100.111 44.7362C100.117 44.7284 100.133 44.7364 100.128 44.7444C99.1265 46.3217 97.4719 47.5657 96.4173 49.1198C96.2343 49.7531 96.0845 50.3925 95.9732 51.0358C95.82 51.919 95.7483 52.8077 95.7333 53.6975C96.3391 52.7913 96.9682 51.9247 97.4638 50.9662C97.477 50.9407 97.5227 50.9581 97.5121 50.9835C97.0903 51.979 96.5236 53.0513 95.7299 53.9003C95.7255 54.5303 95.749 55.1607 95.7952 55.79C95.9189 57.4701 96.2775 59.1277 96.4433 60.8023C96.4484 60.8527 96.3596 60.8586 96.3472 60.8106C95.9113 59.1202 95.6627 57.3542 95.5192 55.633Z" fill="#A6A6A6"/>
<path d="M97.7493 42.6764C97.7558 42.6641 97.7781 42.6726 97.7726 42.6847C97.3889 43.5333 97.1723 44.393 96.8951 45.2629C96.8825 45.3027 96.8107 45.2942 96.816 45.2526C96.9287 44.3702 97.3225 43.4899 97.7493 42.6764Z" fill="#A6A6A6"/>
<path d="M88.0084 46.2326C88.2571 46.7311 88.5657 47.2136 88.8907 47.6826C89.5814 48.6861 90.302 49.6056 90.4324 50.774C90.4906 51.2956 90.5113 51.8198 90.71 52.3225C90.8816 52.7577 91.1606 53.1591 91.4814 53.5347C92.2301 54.4072 93.1657 55.159 93.8596 56.0641C94.5814 57.0049 95.1138 58.0401 95.4397 59.1123C95.457 59.171 95.5727 59.1551 95.5554 59.0966C95.5529 59.0919 95.552 59.0882 95.5511 59.0832C95.5536 59.0803 95.5577 59.0771 95.558 59.0709C95.6679 56.5655 95.4179 54.0405 94.4627 51.6404C94.0448 50.5911 93.5296 49.5472 92.9449 48.5496C92.4332 47.6793 91.7954 46.8426 90.897 46.1923C90.3142 45.7723 89.0499 44.9763 88.2203 45.3975C87.8219 45.6002 87.8516 45.92 88.0084 46.2326Z" fill="#EBEBEB"/>
<path d="M91.1556 51.9126C91.6926 52.6471 92.3295 53.3309 92.9755 54.0056C93.2787 54.3223 93.5862 54.6363 93.8889 54.9534C94.0319 55.1031 94.1922 55.2524 94.3236 55.4132C94.2408 55.1497 94.1603 54.8858 94.0761 54.6227C93.6722 53.3568 93.2835 52.0798 92.6816 50.8627C92.0933 49.6729 91.311 48.5557 90.5072 47.4524C90.486 47.4234 90.5447 47.4024 90.5661 47.4305C91.2278 48.3012 91.8994 49.1708 92.4557 50.0886C92.7667 50.6014 93.028 51.1289 93.2578 51.6657C92.9871 50.5149 92.663 49.41 92.1899 48.2959C92.1857 48.2859 92.2034 48.2788 92.2087 48.2889C92.7858 49.3815 93.2012 50.6101 93.3169 51.7939C93.3171 51.7963 93.3157 51.7978 93.3148 51.7996C93.4505 52.1249 93.5752 52.4534 93.6918 52.7846C94.1851 54.1861 94.6182 55.6025 95.0198 57.0239C95.0129 56.0853 94.9393 55.1639 94.7176 54.2378C94.7125 54.2166 94.7523 54.2117 94.7585 54.2323C95.0497 55.1859 95.181 56.1895 95.061 57.1693C95.2128 57.7097 95.3604 58.2508 95.5049 58.7922C95.8128 59.9471 96.1909 61.1225 96.3708 62.2952C96.3754 62.3255 96.3227 62.3318 96.3129 62.3031C96.098 61.671 95.9685 61.0156 95.7928 60.3757C95.6166 59.7337 95.4349 59.0928 95.2482 58.4527C94.9761 57.5205 94.6913 56.591 94.4011 55.6623C94.2072 55.3217 93.8321 55.0196 93.551 54.7339C93.2426 54.4205 92.9344 54.107 92.6342 53.7885C92.0756 53.1953 91.5629 52.5792 91.1273 51.9229C91.1183 51.9087 91.1457 51.8992 91.1556 51.9126Z" fill="#A6A6A6"/>
<path d="M91.0226 50.8409C91.7018 51.5383 92.3184 52.3103 92.8035 53.1049C92.8097 53.115 92.7899 53.1258 92.7819 53.1157C92.1825 52.3643 91.593 51.6069 90.9948 50.8549C90.9849 50.8424 91.0113 50.8293 91.0226 50.8409Z" fill="#A6A6A6"/>
<path d="M104.354 48.6081C103.948 49.1673 103.485 49.8389 103.659 50.5103C103.769 50.9353 104.158 51.2803 104.229 51.7138C104.386 52.6708 103.194 53.3032 102.331 53.7553C100.181 54.884 97.2313 55.8905 96.8405 58.1954C96.8256 58.2769 96.6491 58.2567 96.662 58.1767C96.662 58.1715 96.6641 58.1665 96.6664 58.1614C96.662 58.1562 96.6558 58.1546 96.6558 58.1478C96.3775 56.9799 96.3837 55.79 96.6961 54.6273C97.0169 53.439 97.6651 52.3716 98.43 51.3278C99.724 49.5616 101.095 47.7529 103.052 46.3997C103.594 46.0257 104.703 45.3526 105.134 46.1975C105.552 47.0187 104.851 47.9264 104.354 48.6081Z" fill="#EBEBEB"/>
<path d="M102.385 52.3528C100.959 53.5876 98.6927 54.2798 97.4654 55.6629C98.1927 53.5431 99.3962 51.6368 101.247 49.981C101.294 49.9385 101.22 49.8782 101.168 49.9181C99.8132 50.9597 98.8102 52.1773 98.0781 53.4982C98.4072 52.555 98.8677 51.663 99.4087 50.7761C99.4291 50.7426 99.3698 50.7137 99.3456 50.7467C98.6563 51.6867 98.1984 52.7421 97.9116 53.8066C96.2945 56.9384 96.1447 60.6114 96.4835 63.9126C96.4884 63.9595 96.5783 63.961 96.5764 63.9126C96.4835 61.3112 96.5362 58.6644 97.3154 56.1237C97.3318 56.0707 97.3497 56.0184 97.3665 55.9656C98.7016 54.4767 100.959 53.7867 102.41 52.3728C102.424 52.3589 102.401 52.3394 102.385 52.3528Z" fill="#A6A6A6"/>
<path d="M102.717 51.2926C101.968 51.8418 101.232 52.4038 100.482 52.9526C100.474 52.9582 100.484 52.9688 100.493 52.964C101.309 52.5224 102.138 51.9386 102.761 51.3281C102.787 51.3034 102.747 51.2701 102.717 51.2926Z" fill="#A6A6A6"/>
<path d="M102.834 48.9124C102.154 49.784 101.441 50.6014 100.595 51.3766C100.584 51.3869 100.601 51.4012 100.614 51.3917C101.523 50.6913 102.33 49.8442 102.874 48.9312C102.887 48.9097 102.85 48.8918 102.834 48.9124Z" fill="#A6A6A6"/>
<path d="M99.4648 66.2405H92.9092L93.7926 59.1843H98.4554L99.4648 66.2405Z" fill="#EBEBEB"/>
<path d="M98.6191 60.3311H93.6477L93.7914 59.1841H98.4549L98.6191 60.3311Z" fill="#C7C7C7"/>
<path d="M99.2604 59.5291H93.1152V58.4024H99.2604V59.5291Z" fill="#EBEBEB"/>
<path d="M105.467 66.2166L93.4753 66.1719L81.4838 66.1555L57.5008 66.1248L33.5177 66.1553L21.5262 66.1715L9.53471 66.2166L21.5262 66.2615L33.5177 66.2777L57.5008 66.3084L81.4838 66.2775L93.4753 66.2613L105.467 66.2166Z" fill="#263238"/>
<path d="M57.4996 85.1521C33.1071 85.1521 13.3331 83.5402 13.3331 81.5517C13.3331 79.5633 33.1071 77.9514 57.4996 77.9514C81.892 77.9514 101.666 79.5633 101.666 81.5517C101.666 83.5402 81.892 85.1521 57.4996 85.1521Z" fill="#D5607D" fill-opacity="0.6"/>
<path d="M82.497 81.7105C82.497 82.2342 85.6703 82.6589 89.5844 82.6589C93.4986 82.6589 96.6719 82.2344 96.6719 81.7105C96.6719 81.1869 93.4986 80.7622 89.5844 80.7622C85.6703 80.7622 82.497 81.1869 82.497 81.7105Z" fill="#8F2682" fill-opacity="0.5"/>
<path d="M92.5416 82.1107C93.066 82.0873 93.5906 82.0538 94.1102 81.9837C94.3682 81.9443 94.6316 81.9147 94.8742 81.8141C94.9037 81.7992 94.9329 81.7831 94.9561 81.7572C94.9683 81.7458 94.9717 81.7256 94.9766 81.7099C94.9708 81.6943 94.9694 81.6731 94.9556 81.6628C94.9085 81.6115 94.8436 81.5911 94.7829 81.5684C94.6587 81.5268 94.5306 81.4992 94.4018 81.4757C93.8848 81.3883 93.3604 81.3485 92.8366 81.3139C92.3122 81.2858 91.7867 81.2709 91.2621 81.2549L92.8334 81.3443C93.3555 81.3839 93.8792 81.4291 94.3891 81.5204C94.5166 81.5423 94.6435 81.5686 94.7624 81.6071C94.8197 81.6266 94.8825 81.6497 94.9138 81.6847C94.9517 81.7173 94.9014 81.7565 94.8494 81.7815C94.6254 81.8777 94.3579 81.9129 94.1037 81.9535C93.5871 82.0253 93.0643 82.0695 92.5416 82.1107Z" fill="#8F2682" fill-opacity="0.5"/>
<path d="M89.5833 82.19C89.9575 82.2016 90.3322 82.1957 90.7064 82.1911C91.0806 82.1812 91.4553 82.1727 91.8281 82.1462C91.4528 82.1345 91.079 82.1405 90.705 82.1451C90.3311 82.1552 89.9573 82.1639 89.5833 82.19Z" fill="#8F2682" fill-opacity="0.5"/>
<path d="M85.5065 82.0225C85.754 82.0595 86.0049 82.079 86.2554 82.0998C86.5065 82.1154 86.7577 82.1323 87.0098 82.1314C86.7607 82.0942 86.5107 82.0747 86.2609 82.0541C86.0102 82.0385 85.7599 82.0217 85.5065 82.0225Z" fill="#8F2682" fill-opacity="0.5"/>
<path d="M89.584 81.2312C89.1281 81.2314 88.672 81.2349 88.2162 81.2432C87.7603 81.2522 87.3035 81.2467 86.8488 81.2836C86.3943 81.3179 85.9394 81.3456 85.4858 81.3858C85.2598 81.411 85.0341 81.4399 84.811 81.4798C84.6999 81.5011 84.5891 81.5245 84.4814 81.5556C84.4281 81.5718 84.3743 81.5882 84.3246 81.6115C84.2777 81.6342 84.2213 81.6631 84.2158 81.7107C84.2238 81.6634 84.2804 81.6375 84.328 81.6165C84.3779 81.5952 84.4322 81.5806 84.486 81.5663C84.5944 81.539 84.7055 81.5193 84.817 81.5017C85.0396 81.4651 85.265 81.4384 85.4909 81.4159C85.9442 81.381 86.3992 81.3587 86.853 81.3295C87.3058 81.2873 87.7622 81.2877 88.2173 81.2735C88.6727 81.2636 89.1281 81.249 89.584 81.2312Z" fill="#8F2682" fill-opacity="0.5"/>
<path d="M91.7147 81.9445C92.0892 81.9348 92.4638 81.9176 92.836 81.8775C93.0218 81.8556 93.2086 81.8387 93.3903 81.7813C93.4126 81.7714 93.4356 81.7635 93.4565 81.7447C93.4825 81.7274 93.4751 81.6797 93.4485 81.6696C93.405 81.6396 93.3592 81.6273 93.3137 81.615C93.2224 81.5912 93.1299 81.5752 93.0372 81.5614C92.2927 81.4694 91.542 81.4543 90.7931 81.4446C91.1669 81.4679 91.5406 81.4852 91.9141 81.5027C92.287 81.5263 92.6605 81.5541 93.0271 81.6067C93.1186 81.619 93.2102 81.6337 93.2974 81.6551C93.3404 81.6652 93.3852 81.6796 93.4128 81.698C93.4301 81.709 93.4236 81.7103 93.4183 81.72C93.408 81.73 93.3882 81.7382 93.3698 81.7467C93.2033 81.8021 93.0135 81.8236 92.8307 81.8472C92.4608 81.8889 92.0878 81.9169 91.7147 81.9445Z" fill="#8F2682" fill-opacity="0.5"/>
<path d="M89.5847 81.9908C89.8543 82.0055 90.1239 82.0025 90.3936 82.0009C90.6632 81.9941 90.9328 81.9886 91.2012 81.9652C90.9309 81.9503 90.6616 81.9534 90.3925 81.9551C90.1232 81.9621 89.8541 81.9676 89.5847 81.9908Z" fill="#8F2682" fill-opacity="0.5"/>
<path d="M86.6498 81.8928C86.8278 81.9222 87.0084 81.9342 87.1889 81.9474C87.3697 81.9554 87.5507 81.9647 87.7324 81.9563C87.5533 81.9267 87.3734 81.9147 87.1933 81.9016C87.0128 81.8939 86.8327 81.8847 86.6498 81.8928Z" fill="#8F2682" fill-opacity="0.5"/>
<path d="M89.5859 81.4307C89.2596 81.4271 88.933 81.4269 88.6064 81.4313C88.2798 81.4357 87.9529 81.4307 87.6268 81.4513L86.6495 81.5134C86.4871 81.5286 86.325 81.5454 86.164 81.5691C86.0837 81.582 86.0037 81.5962 85.925 81.6149C85.8859 81.6247 85.8466 81.6346 85.8093 81.6482C85.7746 81.6618 85.7284 81.6767 85.7208 81.7108C85.7307 81.6775 85.7767 81.6653 85.8121 81.6534C85.8498 81.6416 85.8894 81.6335 85.9287 81.6258C86.0078 81.6109 86.0883 81.6006 86.1688 81.5914C86.3296 81.5709 86.4915 81.5564 86.6537 81.5439L87.6302 81.4972C87.955 81.4716 88.2814 81.4714 88.6075 81.4618C88.9334 81.4556 89.2596 81.4449 89.5859 81.4307Z" fill="#8F2682" fill-opacity="0.5"/>
<path d="M26.3618 72.1735C22.4475 72.1735 19.2743 71.7489 19.2743 71.2252C19.2743 70.7014 22.4475 70.2769 26.3618 70.2769C30.2761 70.2769 33.4492 70.7014 33.4492 71.2252C33.4492 71.7489 30.2761 72.1735 26.3618 72.1735Z" fill="#C7C7C7"/>
<path d="M29.5431 71.7331C30.0751 71.7004 30.6073 71.6557 31.1306 71.5648C31.261 71.5407 31.3914 71.5164 31.5193 71.4827C31.6462 71.4483 31.776 71.4142 31.8873 71.3445C31.942 71.3158 31.9981 71.2503 31.9682 71.1863C31.9374 71.1274 31.8755 71.0946 31.8183 71.065C31.6994 71.0087 31.5706 70.9747 31.4425 70.9425C30.9243 70.8264 30.3923 70.7743 29.8614 70.7281C29.3294 70.6904 28.7958 70.6705 28.2632 70.647L29.8573 70.7585C30.3856 70.8093 30.9169 70.8672 31.4259 70.9863C31.5519 71.0166 31.6794 71.0494 31.7914 71.1011C31.8452 71.1274 31.8997 71.159 31.9211 71.1999C31.9406 71.2398 31.9087 71.2856 31.8567 71.3151C31.758 71.3789 31.6297 71.4157 31.5057 71.4499C31.3806 71.4844 31.2511 71.5097 31.1221 71.535C30.6027 71.6273 30.0728 71.6827 29.5431 71.7331Z" fill="white"/>
<path d="M26.5853 71.8336C26.9595 71.8433 27.3342 71.8352 27.7086 71.8288C28.0828 71.8168 28.4575 71.8063 28.8301 71.778C28.4545 71.7683 28.0807 71.7762 27.7068 71.7828C27.333 71.7947 26.9593 71.8054 26.5853 71.8336Z" fill="white"/>
<path d="M22.5084 71.6211C22.7552 71.6629 23.0062 71.6873 23.2566 71.7131C23.508 71.7335 23.7592 71.7554 24.0117 71.7595C23.7631 71.7173 23.5133 71.693 23.2635 71.6675C23.0128 71.647 22.7628 71.6253 22.5084 71.6211Z" fill="white"/>
<path d="M26.5859 70.6167C26.1262 70.6195 25.6657 70.6255 25.2057 70.6362C24.7457 70.6472 24.2843 70.6436 23.8266 70.6914C23.3692 70.7352 22.9101 70.7676 22.4544 70.8211C22.2277 70.8531 22.0016 70.8914 21.7796 70.9422C21.6695 70.9696 21.56 71 21.4556 71.0399C21.3594 71.0806 21.2315 71.1275 21.218 71.2252C21.2364 71.129 21.364 71.0876 21.4613 71.0502C21.5664 71.0141 21.6766 70.9876 21.7872 70.9639C22.0087 70.9166 22.2341 70.8807 22.4609 70.8515C22.9163 70.8031 23.3754 70.7762 23.8319 70.7372C24.2873 70.6842 24.748 70.6829 25.2073 70.6667C25.6666 70.6542 26.1259 70.6371 26.5859 70.6167Z" fill="white"/>
<path d="M28.7142 71.5217C29.0925 71.5066 29.4713 71.4832 29.846 71.4314C30.0323 71.4021 30.2221 71.3811 30.3985 71.3055C30.4201 71.2945 30.4415 71.2821 30.4587 71.2621C30.4679 71.2532 30.4705 71.2376 30.4746 71.2253C30.4712 71.2131 30.4689 71.1969 30.4597 71.1883C30.4249 71.148 30.3778 71.1333 30.3338 71.1156C30.2439 71.0841 30.1515 71.0635 30.0585 71.0459C29.685 70.9811 29.3069 70.9526 28.929 70.9274C28.5507 70.9066 28.1716 70.897 27.793 70.8875C28.1707 70.9151 28.5484 70.9353 28.9258 70.9579C29.3018 70.9881 29.6795 71.0223 30.0457 71.0906C30.1372 71.1068 30.2283 71.1259 30.3127 71.1543C30.3529 71.1686 30.3978 71.1859 30.4171 71.2095C30.4399 71.2293 30.4102 71.2543 30.3729 71.2735C30.2156 71.3441 30.022 71.371 29.8396 71.4015C29.4674 71.4545 29.0907 71.4888 28.7142 71.5217Z" fill="white"/>
<path d="M26.585 71.5805C26.8545 71.5939 27.1243 71.5899 27.3939 71.5871C27.6634 71.579 27.933 71.5724 28.2012 71.5479C27.9305 71.5343 27.6616 71.5384 27.3923 71.5411C27.1232 71.5494 26.8543 71.5562 26.585 71.5805Z" fill="white"/>
<path d="M23.65 71.4564C23.8274 71.4886 24.0081 71.5035 24.1885 71.5197C24.3695 71.5305 24.5505 71.5429 24.7324 71.5372C24.5535 71.5046 24.3739 71.4899 24.194 71.4739C24.0137 71.4632 23.8336 71.451 23.65 71.4564Z" fill="white"/>
<path d="M26.584 70.8697C26.2555 70.8675 25.9266 70.8687 25.598 70.8746C25.2693 70.8805 24.9399 70.8759 24.6122 70.9028C24.2847 70.9289 23.9567 70.9499 23.6301 70.9806C23.4673 70.9998 23.3046 71.0215 23.1441 71.0516C23.0643 71.068 22.9847 71.0859 22.9074 71.1096C22.8373 71.1355 22.7386 71.1573 22.7191 71.2253C22.743 71.1593 22.8407 71.1427 22.912 71.1203C22.99 71.1004 23.07 71.0864 23.1503 71.0737C23.3106 71.047 23.4728 71.0274 23.6354 71.0112C23.962 70.9858 24.2897 70.9701 24.6166 70.9488C24.9425 70.9168 25.2714 70.9162 25.5994 70.9054C25.9273 70.8976 26.2555 70.8853 26.584 70.8697Z" fill="white"/>
<path d="M21.6418 72.5325C20.2165 72.5325 19.061 72.3717 19.061 72.1734C19.061 71.975 20.2165 71.8142 21.6418 71.8142C23.0672 71.8142 24.2227 71.975 24.2227 72.1734C24.2227 72.3717 23.0672 72.5325 21.6418 72.5325Z" fill="#C7C7C7"/>
<path d="M20.7477 72.0254C20.5858 72.0302 20.4236 72.0396 20.2633 72.0655C20.183 72.08 20.103 72.0918 20.0262 72.1356C20.0085 72.1448 19.9841 72.172 19.996 72.1998C20.008 72.2245 20.0296 72.2359 20.048 72.246C20.0867 72.2653 20.126 72.2762 20.1658 72.2867C20.485 72.3573 20.8109 72.3623 21.1348 72.3641C20.8153 72.3246 20.488 72.3159 20.183 72.2427C20.1166 72.2283 20.0068 72.1904 20.0607 72.1671C20.1147 72.1332 20.1989 72.1176 20.2734 72.0997C20.4284 72.0685 20.5881 72.0467 20.7477 72.0254Z" fill="white"/>
<path d="M21.6426 71.994C21.5294 71.978 21.4158 71.9794 21.3024 71.9796C21.189 71.9851 21.0756 71.9894 20.9641 72.0113C21.0786 72.0274 21.1913 72.0258 21.3042 72.0256C21.4169 72.0201 21.5294 72.0159 21.6426 71.994Z" fill="white"/>
<path d="M22.875 72.0603C22.8032 72.0343 22.7271 72.0259 22.6512 72.0159C22.5746 72.0113 22.498 72.0053 22.4203 72.0172C22.4941 72.0435 22.5691 72.0518 22.6441 72.0616C22.72 72.066 22.7952 72.0717 22.875 72.0603Z" fill="white"/>
<path d="M21.6427 72.3738C21.7819 72.3786 21.9217 72.3812 22.0613 72.3806C22.2009 72.3802 22.3408 72.38 22.4799 72.3662C22.6189 72.3513 22.7582 72.3423 22.8962 72.3226C22.9648 72.3109 23.0331 72.2972 23.1003 72.2794C23.1334 72.2695 23.1663 72.2586 23.1973 72.2448C23.2258 72.231 23.264 72.2141 23.2656 72.1841C23.2389 72.2373 23.1538 72.2426 23.0922 72.2579C23.0253 72.2707 22.9572 72.2803 22.8887 72.2879L22.4747 72.3206C22.3376 72.3381 22.1982 72.3375 22.0595 72.3456C21.9208 72.3519 21.7819 72.3616 21.6427 72.3738Z" fill="white"/>
<path d="M20.999 72.0915C20.8838 72.0905 20.7686 72.0935 20.6534 72.1071C20.5949 72.1145 20.5395 72.1205 20.479 72.1467C20.4677 72.1498 20.4342 72.1752 20.4542 72.2026C20.47 72.2217 20.4855 72.225 20.5002 72.2319C20.5296 72.2427 20.5579 72.2493 20.5867 72.2552C20.8167 72.2942 21.0471 72.2964 21.2773 72.2895C21.0503 72.2585 20.819 72.253 20.6002 72.2105C20.5517 72.2065 20.473 72.1728 20.5078 72.1816C20.5476 72.1619 20.608 72.1533 20.6612 72.1419C20.7723 72.1224 20.8857 72.1073 20.999 72.0915Z" fill="white"/>
<path d="M21.6426 72.073C21.5612 72.0557 21.4793 72.0561 21.3974 72.0552C21.3157 72.0594 21.2341 72.0624 21.1538 72.0831C21.2366 72.1006 21.3176 72.1001 21.399 72.101C21.4802 72.0968 21.5612 72.0936 21.6426 72.073Z" fill="white"/>
<path d="M22.5293 72.1119C22.478 72.0889 22.423 72.0833 22.3685 72.0763C22.3133 72.0747 22.2581 72.0717 22.202 72.0867C22.2549 72.1098 22.3087 72.1154 22.3628 72.1222C22.4175 72.1236 22.4716 72.1264 22.5293 72.1119Z" fill="white"/>
<path d="M21.6421 72.2948C21.8411 72.3074 22.041 72.3116 22.2404 72.3002C22.3397 72.291 22.4396 72.2855 22.5382 72.273C22.5874 72.2652 22.6367 72.2568 22.6852 72.2455C22.7289 72.2304 22.7908 72.2233 22.8105 72.1841C22.7843 72.2174 22.7241 72.2157 22.6788 72.2236C22.6302 72.2301 22.5812 72.2347 22.532 72.238L22.236 72.2546C22.138 72.2656 22.0384 72.2647 21.9395 72.2711C21.8406 72.2763 21.7415 72.2844 21.6421 72.2948Z" fill="white"/>
<path d="M21.6412 82.5012C16.3398 82.5012 12.0421 81.883 12.0421 81.1205C12.0421 80.3579 16.3398 79.7397 21.6412 79.7397C26.9426 79.7397 31.2402 80.3579 31.2402 81.1205C31.2402 81.883 26.9426 82.5012 21.6412 82.5012Z" fill="#D5607D"/>
<path d="M17.594 81.795C16.8695 81.7243 16.1443 81.6452 15.4357 81.5083C15.2598 81.4714 15.0834 81.4342 14.9134 81.3832C14.7453 81.3324 14.5714 81.2776 14.4398 81.1841C14.3708 81.1409 14.3273 81.0739 14.351 81.0128C14.3768 80.9525 14.4437 80.9015 14.5182 80.8642C14.6673 80.7863 14.8398 80.7363 15.0109 80.6905C15.7037 80.514 16.4305 80.4288 17.1529 80.3543C17.5149 80.3179 17.8799 80.303 18.2431 80.2757L19.334 80.196C18.6056 80.2354 17.8753 80.2667 17.1483 80.3237C16.4233 80.3935 15.6956 80.4728 14.993 80.6467C14.8195 80.6947 14.6452 80.746 14.4888 80.8292C14.4115 80.8695 14.3349 80.9241 14.3027 81.002C14.2719 81.0838 14.3345 81.1683 14.4074 81.2123C14.5516 81.3124 14.7275 81.3648 14.8989 81.4156C15.0716 81.4658 15.2494 81.5021 15.4267 81.538C16.1393 81.6737 16.867 81.7418 17.594 81.795Z" fill="white"/>
<path d="M21.6152 81.9432L18.5629 81.8613C19.0691 81.909 19.5781 81.9305 20.0871 81.9465C20.5966 81.957 21.1062 81.962 21.6152 81.9432Z" fill="white"/>
<path d="M27.1582 81.6299L26.1356 81.7272C25.7955 81.7629 25.4544 81.7913 25.1142 81.8334C25.4585 81.8293 25.801 81.8032 26.1425 81.7729C26.4834 81.7372 26.824 81.6969 27.1582 81.6299Z" fill="white"/>
<path d="M21.6152 80.1515C22.871 80.1722 24.1273 80.2031 25.3767 80.3026C26.0016 80.3471 26.6258 80.4042 27.2433 80.4927C27.5518 80.5374 27.8588 80.5906 28.159 80.6622C28.3089 80.6977 28.4575 80.7387 28.5985 80.793C28.6689 80.82 28.7367 80.8519 28.797 80.8914C28.8573 80.9295 28.9108 80.9832 28.9141 81.0474C28.9134 80.9832 28.8609 80.9271 28.8016 80.8872C28.742 80.8456 28.6746 80.8119 28.6047 80.7829C28.4646 80.7247 28.3168 80.6798 28.1673 80.6406C27.8666 80.5656 27.5591 80.51 27.2502 80.4625C26.632 80.3687 26.0076 80.3061 25.382 80.2568C24.1291 80.1734 22.8717 80.1326 21.6152 80.1515Z" fill="white"/>
<path d="M18.7177 81.4838C18.2032 81.4394 17.6886 81.3914 17.1817 81.3129C17.0555 81.2917 16.9294 81.2696 16.8061 81.2404C16.6842 81.2109 16.5575 81.1804 16.4563 81.1244C16.405 81.0979 16.3652 81.0569 16.3924 81.0216C16.4179 80.9842 16.4791 80.9598 16.5322 80.9366C16.6461 80.8935 16.7705 80.8654 16.8949 80.8405C17.3938 80.7395 17.9097 80.6904 18.4233 80.6468L19.9707 80.5498C19.4539 80.5684 18.9362 80.5849 18.4196 80.6162C17.9042 80.6549 17.3876 80.6983 16.8807 80.796C16.7546 80.8225 16.629 80.8521 16.5092 80.8987C16.4519 80.9255 16.3875 80.9474 16.348 81.0028C16.3408 81.017 16.3351 81.0345 16.3342 81.0499C16.3395 81.0652 16.3415 81.0838 16.3528 81.0955C16.3737 81.1217 16.4004 81.1399 16.4289 81.1554C16.5428 81.2161 16.6697 81.244 16.7946 81.2731C16.92 81.3014 17.0474 81.3224 17.1746 81.3425C17.6845 81.4201 18.2013 81.4573 18.7177 81.4838Z" fill="white"/>
<path d="M21.6133 81.5705C21.2471 81.5436 20.8812 81.5343 20.5153 81.5236C20.1491 81.5182 19.7832 81.5114 19.4156 81.5227C19.7806 81.5497 20.1473 81.5589 20.5136 81.5696C20.8803 81.5749 21.2471 81.5815 21.6133 81.5705Z" fill="white"/>
<path d="M25.6055 81.3877C25.3568 81.3888 25.1119 81.4072 24.8665 81.4243C24.6218 81.4468 24.3773 81.4677 24.1337 81.5066C24.3807 81.5058 24.6266 81.4872 24.8727 81.4699C25.1179 81.4475 25.3635 81.4263 25.6055 81.3877Z" fill="white"/>
<path d="M21.6141 80.5242C22.0619 80.5429 22.5093 80.5584 22.9568 80.5692C23.4042 80.584 23.8525 80.5843 24.2968 80.6302C24.7421 80.6629 25.1892 80.6866 25.6338 80.7262C25.8553 80.7509 26.0759 80.7807 26.2935 80.821C26.4022 80.8406 26.5108 80.8625 26.6157 80.8929C26.6681 80.908 26.7196 80.9257 26.7675 80.9483C26.8128 80.9713 26.8634 81.0011 26.8691 81.0475C26.8662 81.0007 26.816 80.9683 26.7712 80.9435C26.7238 80.919 26.6727 80.8993 26.6207 80.8824C26.5165 80.8482 26.4087 80.8224 26.3001 80.7991C26.0821 80.7553 25.861 80.7234 25.6393 80.6958C25.1945 80.6511 24.7474 80.6219 24.3012 80.5843C23.855 80.5435 23.406 80.5485 22.958 80.5387C22.5102 80.5297 22.0619 80.5251 21.6141 80.5242Z" fill="white"/>
<path d="M54.0439 78.5228C50.9129 78.5228 48.3748 78.1989 48.3748 77.7995C48.3748 77.4 50.9129 77.0762 54.0439 77.0762C57.1748 77.0762 59.7129 77.4 59.7129 77.7995C59.7129 78.1989 57.1748 78.5228 54.0439 78.5228Z" fill="#C7C7C7"/>
<path d="M56.4388 77.9912C56.8608 77.9778 57.2829 77.9562 57.7022 77.9078C57.9112 77.8813 58.1219 77.8607 58.3241 77.7915C58.3487 77.7801 58.374 77.77 58.3961 77.749C58.4064 77.7404 58.4147 77.7209 58.414 77.7069C58.4101 77.6907 58.4021 77.6756 58.3899 77.6681C58.3439 77.6322 58.2921 77.6175 58.2415 77.6026C58.1394 77.5742 58.0354 77.5549 57.9313 77.5385C57.5129 77.4797 57.0911 77.4526 56.6695 77.4296C56.2474 77.4107 55.8249 77.4018 55.4029 77.3936C55.8242 77.4199 56.2456 77.4396 56.6667 77.4602C57.0869 77.4881 57.5081 77.5207 57.9207 77.5836C58.0237 77.5985 58.1265 77.6164 58.2243 77.6423C58.2721 77.6548 58.3227 77.6718 58.3526 77.6948C58.3864 77.7139 58.3473 77.738 58.3029 77.7577C58.1169 77.8241 57.9027 77.8497 57.6969 77.8778C57.2797 77.9275 56.8592 77.9599 56.4388 77.9912Z" fill="white"/>
<path d="M54.0436 78.0465C54.3466 78.0603 54.6499 78.0566 54.9531 78.0542C55.2562 78.0465 55.5593 78.0401 55.8613 78.016C55.5573 78.002 55.2546 78.0058 54.9519 78.0082C54.6492 78.016 54.3466 78.0224 54.0436 78.0465Z" fill="white"/>
<path d="M50.7435 77.9295C50.9439 77.961 51.147 77.9752 51.3498 77.9904C51.5531 78.0005 51.7567 78.012 51.9609 78.0055C51.7595 77.9737 51.5571 77.9599 51.3547 77.9446C51.1516 77.9347 50.9489 77.9233 50.7435 77.9295Z" fill="white"/>
<path d="M54.043 77.3766C53.6754 77.374 53.3077 77.375 52.9399 77.3803C52.5721 77.386 52.2039 77.3809 51.8368 77.4059L50.7367 77.4789C50.5541 77.497 50.3715 77.5168 50.1905 77.5452C50.1003 77.5604 50.0104 77.577 49.9221 77.5991C49.8781 77.6107 49.8342 77.6223 49.7926 77.6386C49.7537 77.6546 49.7033 77.6732 49.6962 77.7117C49.7059 77.674 49.756 77.6581 49.7956 77.6436C49.8374 77.6293 49.8818 77.6195 49.926 77.6098C50.0148 77.5915 50.1051 77.5788 50.1955 77.5672C50.3761 77.5424 50.5585 77.5246 50.7409 77.5093L51.8403 77.4517C52.2057 77.4215 52.5737 77.4215 52.9408 77.4107C53.3081 77.4035 53.6754 77.3919 54.043 77.3766Z" fill="white"/>
<path d="M55.7679 77.875C56.0699 77.8709 56.3717 77.8608 56.6725 77.8332C56.823 77.8185 56.9729 77.8071 57.1226 77.7675C57.1415 77.7604 57.1604 77.7558 57.1801 77.7408C57.1882 77.7361 57.2025 77.716 57.1953 77.7033C57.1896 77.6858 57.1785 77.6816 57.1691 77.6746C57.1307 77.6542 57.0937 77.6459 57.0564 77.6373C56.9817 77.6207 56.9069 77.6098 56.8319 77.5999C56.2298 77.539 55.6258 77.5269 55.0221 77.5261C55.3231 77.5451 55.6242 77.5589 55.9253 77.571C56.2259 77.5881 56.5267 77.6084 56.8232 77.6452C56.8972 77.6536 56.9713 77.6634 57.0424 77.6777C57.0773 77.6847 57.1141 77.6941 57.1387 77.7066C57.1519 77.7167 57.1468 77.7083 57.1447 77.7138C57.1371 77.7202 57.1199 77.7263 57.1049 77.732C56.9686 77.7708 56.8158 77.7861 56.6679 77.8029C56.3692 77.8319 56.0686 77.8531 55.7679 77.875Z" fill="white"/>
<path d="M54.0446 77.9071C54.2629 77.9231 54.4811 77.9214 54.6996 77.9211C54.9179 77.9154 55.1362 77.9113 55.3535 77.8892C55.1346 77.873 54.9165 77.8749 54.6985 77.8752C54.4804 77.881 54.2626 77.8852 54.0446 77.9071Z" fill="white"/>
<path d="M51.6664 77.8388C51.8104 77.8651 51.9567 77.8738 52.1027 77.8839C52.2493 77.8887 52.3958 77.8949 52.543 77.8832C52.3978 77.8567 52.2522 77.848 52.1067 77.8381C51.9606 77.8335 51.8148 77.8274 51.6664 77.8388Z" fill="white"/>
<path d="M54.043 77.516C53.7794 77.5112 53.5158 77.5088 53.252 77.5094C52.9882 77.5106 52.7244 77.509 52.461 77.5232C52.1977 77.5377 51.9341 77.5482 51.6714 77.5662C51.5401 77.578 51.409 77.5907 51.2786 77.6085C51.2135 77.6179 51.1486 77.6286 51.0845 77.642C51.0525 77.6488 51.0205 77.6562 50.9897 77.6658C50.9612 77.6757 50.9219 77.6845 50.9134 77.7118C50.9242 77.6858 50.963 77.6796 50.992 77.6711C51.0233 77.6634 51.0555 77.6578 51.0877 77.6531C51.1523 77.6435 51.2174 77.6367 51.2827 77.631C51.4131 77.6179 51.5442 77.6093 51.6753 77.6017L52.4638 77.5693C52.7262 77.5513 52.9898 77.5535 53.2529 77.5449C53.5163 77.5379 53.7794 77.5281 54.043 77.516Z" fill="white"/>
<path d="M79.6627 84.4722C74.3613 84.4722 70.0636 83.854 70.0636 83.0914C70.0636 82.3289 74.3613 81.7107 79.6627 81.7107C84.9641 81.7107 89.2617 82.3289 89.2617 83.0914C89.2617 83.854 84.9641 84.4722 79.6627 84.4722Z" fill="#8F2682" fill-opacity="0.5"/>
<path d="M75.3677 82.1882C74.5836 82.249 73.7989 82.3259 73.0316 82.4786C72.8407 82.5189 72.6493 82.5595 72.4639 82.616C72.2802 82.6731 72.0916 82.7327 71.9398 82.8433C71.8625 82.8928 71.8004 82.9824 71.8291 83.0694C71.8595 83.1526 71.9375 83.2166 72.0205 83.2604C72.1861 83.3539 72.3731 83.412 72.5592 83.4661C73.3142 83.6619 74.099 83.7517 74.8805 83.8302C75.6648 83.8948 76.4526 83.9303 77.2383 83.9756L76.0614 83.8877C75.6695 83.8573 75.2757 83.8409 74.8852 83.7999C74.1061 83.7165 73.3223 83.6209 72.5778 83.4227C72.394 83.3708 72.2091 83.3139 72.0513 83.2264C71.9706 83.1853 71.9032 83.1264 71.8779 83.06C71.8547 82.9925 71.9 82.9193 71.9729 82.8709C72.1125 82.7671 72.2986 82.7053 72.4791 82.6482C72.6615 82.5912 72.8515 82.5496 73.041 82.5082C73.8041 82.3544 74.5864 82.2664 75.3677 82.1882Z" fill="#8F2682" fill-opacity="0.5"/>
<path d="M79.6914 82.0226C79.144 82.0038 78.5959 82.0096 78.0485 82.0217C77.5013 82.0392 76.9539 82.0631 76.4095 82.1141L79.6914 82.0226Z" fill="#8F2682" fill-opacity="0.5"/>
<path d="M85.6523 82.3726C85.2931 82.3001 84.9269 82.2552 84.5603 82.2155C84.193 82.1811 83.8245 82.1518 83.4545 82.145C83.8204 82.1899 84.1875 82.2216 84.5532 82.2611L85.6523 82.3726Z" fill="#8F2682" fill-opacity="0.5"/>
<path d="M79.6912 84.0254C81.045 84.0442 82.3999 83.9989 83.7493 83.9044C84.4232 83.8494 85.0958 83.7794 85.7607 83.6744C86.0928 83.6208 86.4236 83.5592 86.7462 83.4745C86.9068 83.4311 87.0653 83.3805 87.2145 83.3156C87.2888 83.2826 87.361 83.2458 87.4229 83.1989C87.485 83.1542 87.5397 83.0933 87.5391 83.0239C87.5372 83.0933 87.4811 83.152 87.4181 83.1949C87.3553 83.2398 87.2826 83.2747 87.2079 83.3056C87.0577 83.3667 86.8987 83.4135 86.7375 83.4532C86.4155 83.5343 86.0852 83.5936 85.7536 83.6444C85.0891 83.7441 84.417 83.8085 83.7438 83.8587C82.3981 83.9695 81.0445 84.0046 79.6912 84.0254Z" fill="#8F2682" fill-opacity="0.5"/>
<path d="M76.5769 82.5359C76.0203 82.5668 75.4635 82.6091 74.9145 82.6958C74.7774 82.7184 74.6406 82.7418 74.5058 82.7738C74.3719 82.8066 74.2353 82.8382 74.1148 82.9057C74.0578 82.9328 73.9874 83.0003 74.0281 83.0693C74.0679 83.1291 74.136 83.1551 74.1969 83.1852C74.3248 83.2377 74.46 83.2704 74.5953 83.3004C75.1401 83.4104 75.6967 83.4596 76.2522 83.5032C76.8088 83.5387 77.3668 83.5576 77.9238 83.5797L76.2559 83.4728C75.7025 83.4242 75.1466 83.3694 74.61 83.2561C74.4764 83.2279 74.3425 83.1965 74.2208 83.1479C74.1642 83.1216 74.1003 83.094 74.0732 83.052C74.0476 83.0115 74.0874 82.9655 74.1429 82.9365C74.2507 82.8739 74.3869 82.8397 74.5178 82.8067C74.6502 82.774 74.7859 82.7495 74.9219 82.7258C75.4679 82.6376 76.0226 82.5846 76.5769 82.5359Z" fill="#8F2682" fill-opacity="0.5"/>
<path d="M79.6914 82.4392C79.2974 82.4291 78.9032 82.4368 78.509 82.4429C78.115 82.4545 77.7208 82.4646 77.3284 82.4926C77.7235 82.5027 78.1171 82.4952 78.5108 82.4889C78.9043 82.4773 79.2976 82.467 79.6914 82.4392Z" fill="#8F2682" fill-opacity="0.5"/>
<path d="M83.9824 82.6436C83.7221 82.6027 83.458 82.5792 83.1942 82.5544C82.9297 82.5348 82.6652 82.5139 82.3998 82.5107C82.6618 82.552 82.9249 82.5753 83.1878 82.6C83.4518 82.6195 83.7152 82.6403 83.9824 82.6436Z" fill="#8F2682" fill-opacity="0.5"/>
<path d="M79.6912 83.6089C80.1735 83.6067 80.656 83.601 81.1385 83.5909C81.6209 83.5798 82.1045 83.5846 82.5848 83.5388C83.065 83.497 83.5464 83.4648 84.025 83.4148C84.2636 83.3841 84.5014 83.3482 84.7355 83.2994C84.8519 83.2733 84.9678 83.2446 85.0794 83.2065C85.1353 83.1881 85.1893 83.1653 85.2399 83.1384C85.2873 83.1108 85.3393 83.0744 85.3418 83.0242C85.3365 83.0742 85.2841 83.1077 85.236 83.1338C85.1847 83.1587 85.1304 83.1795 85.0741 83.196C84.9618 83.2304 84.8455 83.2553 84.7286 83.2777C84.4949 83.323 84.2576 83.3567 84.0193 83.3846C83.5409 83.4297 83.0595 83.4562 82.5802 83.4932C82.1018 83.5442 81.619 83.5445 81.1374 83.5605C80.6553 83.5723 80.1735 83.5889 79.6912 83.6089Z" fill="#8F2682" fill-opacity="0.5"/>
<path d="M97.7954 75.2054C97.7954 75.4038 98.9509 75.5646 100.376 75.5646C101.802 75.5646 102.957 75.4038 102.957 75.2054C102.957 75.0071 101.802 74.8464 100.376 74.8464C98.9507 74.8464 97.7954 75.0071 97.7954 75.2054Z" fill="#C7C7C7"/>
<path d="M101.41 75.3871C101.597 75.3805 101.784 75.3687 101.969 75.3387C102.062 75.3218 102.155 75.3081 102.242 75.2586C102.262 75.2482 102.289 75.2184 102.276 75.1878C102.262 75.1608 102.238 75.1482 102.217 75.1368C102.173 75.1153 102.127 75.1028 102.082 75.0908C101.713 75.0099 101.336 75.0038 100.962 74.999C101.332 75.0417 101.711 75.0511 102.065 75.1348C102.108 75.1453 102.152 75.1571 102.188 75.1742C102.226 75.1955 102.241 75.2062 102.208 75.2272C102.144 75.2667 102.047 75.2844 101.96 75.3046C101.78 75.3398 101.595 75.3637 101.41 75.3871Z" fill="white"/>
<path d="M100.375 75.4228C100.506 75.4384 100.637 75.4364 100.768 75.4358C100.9 75.4299 101.031 75.4253 101.16 75.4029C101.028 75.3871 100.897 75.3893 100.767 75.3898C100.636 75.3959 100.506 75.4005 100.375 75.4228Z" fill="white"/>
<path d="M98.9486 75.3468C99.0323 75.3737 99.1204 75.3834 99.208 75.3943C99.2964 75.4 99.3849 75.407 99.4746 75.3961C99.389 75.3689 99.3021 75.3595 99.2152 75.3486C99.1275 75.3431 99.0401 75.3363 98.9486 75.3468Z" fill="white"/>
<path d="M100.375 74.9879C100.214 74.9836 100.053 74.9816 99.8911 74.9827C99.7296 74.9838 99.5679 74.9838 99.4072 75C99.2466 75.0168 99.0854 75.0271 98.9258 75.0491C98.8464 75.0624 98.7673 75.0777 98.6898 75.0975C98.6514 75.1086 98.6134 75.1207 98.5773 75.1362C98.5442 75.1518 98.4998 75.1706 98.497 75.2054C98.5046 75.1721 98.5488 75.1586 98.5833 75.1465C98.6203 75.1347 98.6587 75.1264 98.6976 75.1192C98.7751 75.1042 98.854 75.0928 98.9334 75.0841L99.4125 75.0458C99.5712 75.026 99.7324 75.0267 99.8929 75.018C100.053 75.0107 100.214 75.0006 100.375 74.9879Z" fill="white"/>
<path d="M101.121 75.3114C101.254 75.3113 101.387 75.307 101.52 75.291C101.587 75.2824 101.652 75.2752 101.72 75.2457C101.728 75.2411 101.738 75.236 101.746 75.2259C101.756 75.2156 101.757 75.1963 101.747 75.1854C101.73 75.165 101.712 75.1609 101.696 75.1534C101.662 75.1412 101.629 75.1337 101.596 75.1271C101.331 75.0822 101.065 75.0794 100.798 75.0847C101.061 75.1173 101.329 75.1234 101.583 75.1718C101.614 75.1773 101.646 75.1841 101.673 75.1933C101.686 75.1975 101.7 75.2047 101.701 75.2071C101.701 75.2032 101.705 75.2025 101.692 75.2108C101.644 75.2338 101.574 75.2437 101.512 75.2564C101.383 75.2781 101.252 75.2945 101.121 75.3114Z" fill="white"/>
<path d="M100.376 75.3324C100.47 75.3493 100.565 75.3488 100.659 75.3495C100.754 75.3449 100.848 75.3418 100.941 75.3208C100.846 75.3037 100.752 75.3044 100.658 75.3037C100.564 75.3083 100.47 75.3116 100.376 75.3324Z" fill="white"/>
<path d="M99.3497 75.288C99.4097 75.3115 99.4732 75.3178 99.5362 75.3253C99.5999 75.3275 99.6637 75.3312 99.7285 75.3169C99.6669 75.2929 99.6045 75.2871 99.542 75.2795C99.4787 75.2775 99.4159 75.274 99.3497 75.288Z" fill="white"/>
<path d="M100.375 75.0785C100.145 75.0669 99.9136 75.0621 99.6834 75.0755C99.5684 75.0858 99.4532 75.0923 99.3389 75.1059C99.2818 75.1143 99.225 75.1237 99.1689 75.1364C99.1181 75.1532 99.0468 75.1607 99.0228 75.2054C99.053 75.1666 99.1229 75.1681 99.1751 75.1585C99.2312 75.1508 99.288 75.1452 99.3448 75.1412L99.6875 75.1215C99.8012 75.1092 99.9161 75.1101 100.031 75.1033C100.145 75.0978 100.26 75.0893 100.375 75.0785Z" fill="white"/>
<path d="M79.8353 49.1981C75.3574 53.6623 67.3339 60.2186 64.6716 59.9765C62.296 59.7603 53.7266 58.2897 49.4781 55.9654C48.3777 55.3636 52.883 47.4435 53.9863 48.1651C56.2994 49.6778 62.0896 51.5908 63.6773 51.8803C65.0911 52.1379 73.5275 47.7241 78.1427 45.8878C83.7458 43.6584 81.6199 47.419 79.8353 49.1981Z" fill="black"/>
<path d="M55.9297 49.4705L53.0262 53.3879L53.016 53.4026L52.9514 53.4889L50.7508 56.4618C50.5077 56.4189 50.1636 56.3352 49.7408 56.2126C49.7408 56.2126 49.7408 56.2126 49.7372 56.211C47.9266 55.6871 44.7305 54.5024 42.4078 53.2186C41.0151 52.451 37.3089 49.9097 37.9662 49.0102C38.6199 48.1089 39.7855 48.7757 39.7855 48.7757C39.7855 48.7757 38.4193 47.5142 39.1813 46.6573C39.8076 45.9546 41.1062 46.5539 41.5581 46.7928C41.5855 46.8088 41.611 46.82 41.631 46.8327C41.6347 46.8344 41.6347 46.8344 41.6384 46.836C41.6892 46.8664 41.7164 46.8822 41.7164 46.8822C41.7164 46.8822 40.4314 45.5035 41.2658 44.6941C42.0131 43.9686 43.3324 44.9524 43.6038 45.1686C43.6201 45.1798 43.6291 45.1876 43.638 45.1953C43.6327 45.189 43.6238 45.1813 43.6169 45.1706C43.4163 44.9627 42.5202 43.9483 43.4522 43.5575C44.7022 43.0322 46.6853 45.4829 48.2776 46.2662C48.356 46.3048 48.7702 46.4811 49.3696 46.7354C50.055 47.0242 50.981 47.4084 51.9196 47.802C53.8928 48.6239 55.9297 49.4705 55.9297 49.4705Z" fill="black"/>
<path d="M48.5586 48.5399C47.6944 48.2942 46.9589 48.0637 46.322 47.7809C45.1467 47.2592 44.2957 46.5598 43.5837 45.2667C43.551 45.21 43.5696 45.1762 43.6039 45.1684C43.6096 45.1671 43.6133 45.1688 43.617 45.1705C43.6414 45.1697 43.6687 45.1857 43.6952 45.2165C44.5883 46.3179 45.3241 46.9622 46.3075 47.4984C46.9283 47.8392 47.6546 48.1384 48.5866 48.4793C48.6321 48.4959 48.6101 48.5553 48.5586 48.5399Z" fill="#263238"/>
<path d="M46.8571 50.3513C44.3634 49.4591 42.9602 48.8515 41.5291 46.9101C41.4836 46.8516 41.5091 46.794 41.5579 46.7927C41.5767 46.7935 41.6043 46.8019 41.6255 46.8266C41.6292 46.8282 41.6271 46.8312 41.6308 46.8328C41.6344 46.8345 41.6344 46.8345 41.6381 46.8362C43.3528 48.5893 44.4637 49.2318 46.8879 50.3001C46.9208 50.3145 46.892 50.3629 46.8571 50.3513Z" fill="#263238"/>
<path d="M39.9358 48.915C41.7581 50.524 42.9359 51.2694 45.4594 52.0676C45.519 52.0864 45.4905 52.1578 45.4284 52.1434C42.756 51.5298 41.2778 50.6083 39.8806 48.9645C39.7853 48.8526 39.821 48.8138 39.9358 48.915Z" fill="#263238"/>
<path d="M52.1646 52.8224C52.0556 52.7484 51.9587 52.6651 51.8674 52.5817C51.841 52.5554 51.8145 52.5293 51.7911 52.5055C51.7881 52.5032 51.7881 52.4984 51.7881 52.4984C50.4021 51.051 51.5976 48.563 51.5976 48.563C51.0275 48.3871 50.2807 48.1061 49.5757 47.7591C48.6497 47.3042 47.7953 46.7456 47.5069 46.1686C47.5069 46.1686 47.5011 46.1686 47.5041 46.1662C47.4254 46.007 47.3882 45.8482 47.4073 45.692C47.4139 45.6068 47.4381 45.5216 47.4774 45.4388C47.4804 45.4319 47.4834 45.4247 47.4924 45.4177C47.7477 44.9761 49.1622 45.0732 50.6995 45.3748C52.3907 45.7056 54.2307 46.286 54.8524 46.6705C55.6477 47.1673 57.8398 50.0037 57.8398 50.0037C57.8398 50.0037 54.1166 54.1851 52.1646 52.8224Z" fill="black"/>
<path d="M47.4546 45.826C47.9381 47.2839 50.1242 47.8423 51.654 48.4304C51.7701 48.4751 51.7662 48.5658 51.7059 48.6302C51.2248 49.8753 50.9989 51.744 52.0569 52.8287C52.088 52.8604 52.036 52.8999 51.9992 52.8714C50.667 51.8314 50.7015 49.9809 51.3377 48.644C49.7574 48.0605 47.5956 47.4235 47.4367 45.829C47.436 45.8202 47.4516 45.8168 47.4546 45.826Z" fill="#263238"/>
<path d="M52.081 57.5153L58.2464 49.7751C58.2464 49.7751 62.9326 51.6799 63.825 51.7386C64.7174 51.7975 75.3032 46.7003 78.7808 45.5194C82.2584 44.3385 82.7085 45.7728 80.4016 48.7891C78.0947 51.8052 68.1559 59.7316 65.4863 60.1307C62.8172 60.5299 52.081 57.5153 52.081 57.5153Z" fill="#D5607D"/>
<path opacity="0.2" d="M74.8728 49.9725C74.9395 50.0185 75.0016 50.0443 75.0752 50.0553C75.2178 50.0774 75.3581 50.0443 75.457 49.9615C75.6088 49.8437 75.8526 49.8087 76.0366 49.8823C76.2298 49.9596 76.2988 50.0921 76.4 50.2062C76.3241 50.1712 76.2551 50.1271 76.1815 50.0884C76.1125 50.0406 76.055 50.013 75.9814 50.0001C75.8411 49.9725 75.6939 50.0019 75.5996 50.0792C75.457 50.197 75.2132 50.243 75.0269 50.1749C74.8268 50.105 74.7532 49.967 74.6543 49.8547C74.7325 49.8897 74.7992 49.9339 74.8728 49.9725ZM53.6346 57.9342C53.5449 57.9121 53.4575 57.8882 53.3724 57.8661C53.4644 57.8679 53.5564 57.8937 53.6346 57.9342ZM52.8802 57.3196C52.9032 57.3895 52.9147 57.4576 52.9308 57.5275C52.9377 57.6011 52.9538 57.6527 52.9952 57.7042C53.0205 57.7373 53.0527 57.7667 53.0895 57.7888C53.0021 57.7667 52.9193 57.7447 52.8434 57.7226H52.8411C52.7928 57.5735 52.8549 57.4484 52.8802 57.3196ZM59.3018 54.5799C59.3248 54.6498 59.334 54.7179 59.3524 54.7878C59.3593 54.8595 59.3754 54.9129 59.4145 54.9626C59.4904 55.0601 59.6215 55.1245 59.7572 55.1227C59.9619 55.1208 60.1758 55.2257 60.2471 55.3803C60.3253 55.5422 60.254 55.6802 60.2264 55.8163C60.2034 55.7483 60.1919 55.6783 60.1758 55.6084C60.1689 55.5385 60.1482 55.4851 60.1068 55.4373C60.024 55.3416 59.8975 55.2827 59.7526 55.2864C59.541 55.2846 59.3386 55.1705 59.2742 55.0159C59.2052 54.8522 59.2742 54.7179 59.3018 54.5799ZM67.0827 58.2635C67.1057 58.3335 67.1149 58.4015 67.1333 58.4715C67.1402 58.5432 67.1563 58.5966 67.1977 58.6481C67.2736 58.7456 67.4024 58.8082 67.5381 58.8063C67.7129 58.8045 67.8969 58.8818 67.9889 59.0014C67.9406 59.029 67.8946 59.0566 67.8486 59.0823C67.7681 59.0106 67.6577 58.9683 67.5358 58.9701C67.3219 58.9683 67.1195 58.856 67.0551 58.6996C66.9861 58.5359 67.0551 58.4015 67.0827 58.2635ZM71.0479 48.7765C71.0525 48.782 71.0571 48.7894 71.0594 48.7949C71.1376 48.9568 71.0686 49.0948 71.0387 49.231C71.0157 49.1629 71.0065 49.093 70.9881 49.0249C70.9812 48.955 70.9605 48.8998 70.9191 48.8519C70.9145 48.8483 70.9122 48.8427 70.9076 48.8391C70.9559 48.8188 71.0019 48.7986 71.0479 48.7765ZM75.4087 53.4133C75.4225 53.4556 75.4317 53.4979 75.4409 53.5403C75.4156 53.5623 75.388 53.5844 75.3604 53.6065C75.3719 53.5403 75.3949 53.4777 75.4087 53.4133ZM79.6246 47.0911C79.6476 47.161 79.6568 47.2291 79.6752 47.299C79.6821 47.3707 79.6982 47.4241 79.7373 47.4738C79.8132 47.5713 79.9443 47.6357 80.08 47.6339C80.2847 47.632 80.4986 47.7369 80.5699 47.8915C80.6481 48.0534 80.5768 48.1914 80.5492 48.3275C80.5262 48.2595 80.5147 48.1895 80.4986 48.1215C80.4917 48.0515 80.471 47.9963 80.4296 47.9485C80.3468 47.8528 80.2203 47.7958 80.0777 47.7976C79.8638 47.7958 79.6614 47.6817 79.597 47.5271C79.528 47.3634 79.597 47.2291 79.6246 47.0911ZM69.1366 52.267C69.2079 52.3148 69.2654 52.3424 69.339 52.3553C69.4793 52.3811 69.6265 52.3535 69.7208 52.2743C69.8634 52.1566 70.1072 52.1106 70.2935 52.1805C70.4936 52.2504 70.5672 52.3884 70.6661 52.5007C70.5879 52.4639 70.5212 52.4215 70.4476 52.3829C70.3809 52.3369 70.3188 52.3111 70.2452 52.3001C70.1026 52.278 69.9623 52.3093 69.8634 52.3921C69.7116 52.5117 69.4678 52.5448 69.2838 52.4731C69.0906 52.3958 69.0216 52.2615 68.9181 52.1492C68.9963 52.1842 69.0653 52.2283 69.1366 52.267ZM57.4894 50.7287C57.5101 50.7416 57.5354 50.7527 57.5607 50.76C57.6918 50.8042 57.8436 50.795 57.954 50.7306C58.1173 50.6331 58.368 50.6202 58.5382 50.7122C58.7199 50.8079 58.7636 50.9532 58.8395 51.0765C58.7705 51.0305 58.7107 50.979 58.6486 50.9311C58.5911 50.8778 58.5359 50.8447 58.4646 50.8226C58.3289 50.7839 58.184 50.7968 58.069 50.8649C57.8965 50.9624 57.6481 50.9643 57.4825 50.8686C57.4572 50.8539 57.4342 50.8373 57.4158 50.8207L57.4894 50.7287ZM64.6378 55.3435C64.6953 55.3987 64.7459 55.4336 64.8172 55.4575C64.9483 55.5017 65.1024 55.4925 65.2105 55.4281C65.3761 55.3306 65.6245 55.3177 65.7947 55.4097C65.9787 55.5035 66.0201 55.6507 66.096 55.774C66.027 55.728 65.9695 55.6765 65.9051 55.6287C65.8476 55.5753 65.7924 55.5403 65.7234 55.5201C65.5854 55.4815 65.4405 55.4943 65.3278 55.5624C65.153 55.6599 64.9046 55.6618 64.739 55.5661C64.5642 55.4649 64.5228 55.3232 64.4446 55.1981C64.5136 55.2441 64.5734 55.2956 64.6378 55.3435ZM57.3583 58.4052C57.4296 58.4512 57.4848 58.4807 57.5607 58.4935C57.6987 58.5193 57.8482 58.4899 57.9425 58.4126C58.0851 58.2948 58.3289 58.2488 58.5152 58.3169C58.7153 58.3868 58.7866 58.5248 58.8878 58.6371C58.8096 58.6021 58.7406 58.5598 58.6693 58.5193C58.6003 58.4751 58.5405 58.4475 58.4669 58.4365C58.3243 58.4163 58.184 58.4475 58.0851 58.5303C57.9333 58.6481 57.6895 58.6831 57.5055 58.6113C57.3123 58.534 57.241 58.3997 57.1398 58.2856C57.218 58.3224 57.287 58.3647 57.3583 58.4052ZM62.9174 52.4381C63.0048 52.4326 63.0715 52.416 63.1336 52.3829C63.2532 52.3167 63.3245 52.2155 63.3199 52.0995C63.3222 51.9303 63.4648 51.7683 63.658 51.7168C63.6603 51.7168 63.6603 51.7168 63.6626 51.7168H63.6649C63.727 51.7279 63.7822 51.7352 63.8259 51.7389C63.8696 51.7426 63.934 51.7334 64.0191 51.7113H64.0214C64.0835 51.7187 64.1433 51.7315 64.2031 51.7389C64.118 51.7573 64.0306 51.7647 63.9455 51.7794C63.8535 51.7849 63.7891 51.7978 63.7247 51.8291C63.6028 51.8898 63.5223 51.9947 63.5246 52.1032C63.5269 52.267 63.3958 52.4381 63.2026 52.4951C63.0002 52.5577 62.8277 52.5007 62.6575 52.4786C62.7449 52.4602 62.83 52.451 62.9174 52.4381ZM62.1446 58.5947C62.232 58.5874 62.2987 58.5727 62.3608 58.5377C62.4804 58.4733 62.5517 58.3703 62.5471 58.2562C62.5494 58.0869 62.692 57.925 62.8852 57.8716C63.0922 57.8164 63.2578 57.8716 63.4303 57.8955C63.3452 57.9139 63.2578 57.9213 63.1727 57.9342C63.0807 57.9415 63.0163 57.9526 62.9519 57.9857C62.83 58.0464 62.7495 58.1513 62.7518 58.2599C62.7541 58.4236 62.623 58.5929 62.4298 58.6499C62.2274 58.7143 62.0549 58.6573 61.8847 58.6334C61.9721 58.615 62.0572 58.6076 62.1446 58.5947ZM70.7144 56.4475C70.8018 56.4419 70.8685 56.4254 70.9283 56.3923C71.0502 56.326 71.1215 56.2248 71.1169 56.1107C71.1192 55.9396 71.2618 55.7777 71.455 55.7262C71.6597 55.671 71.8276 55.7262 72.0001 55.7483C71.915 55.7667 71.8276 55.774 71.7402 55.7887C71.6505 55.7943 71.5838 55.8071 71.5217 55.8384C71.3998 55.901 71.3193 56.004 71.3216 56.1126C71.3239 56.2763 71.1928 56.4475 70.9996 56.5045C70.7972 56.5671 70.6247 56.5119 70.4545 56.4879C70.5419 56.4695 70.627 56.4622 70.7144 56.4475Z" fill="black"/>
<path d="M59.758 50.9714C59.0059 52.1519 58.1424 53.2918 57.2496 54.4055C56.8107 54.9531 56.3668 55.4967 55.9025 56.0303C55.419 56.5856 54.8948 57.1153 54.3967 57.6616C54.3739 57.6866 54.3244 57.6621 54.3456 57.6355C54.7996 57.0675 55.2162 56.4794 55.6649 55.9084C56.0973 55.3583 56.5398 54.8136 56.9784 54.2666C57.872 53.1519 58.7607 52.0306 59.7092 50.9465C59.7311 50.9219 59.7748 50.945 59.758 50.9714Z" fill="#263238"/>
<path d="M65.6251 52.0904C66.2806 52.2687 66.9161 52.5163 67.5348 52.7636C67.5514 52.7703 67.5404 52.7925 67.5224 52.7877C66.8586 52.6118 66.1822 52.4705 65.5191 52.2946C64.8535 52.1182 64.2037 51.8825 63.5257 51.7413C63.4848 51.7327 63.5013 51.6821 63.5425 51.6904C64.2392 51.8287 64.942 51.9044 65.6251 52.0904Z" fill="#263238"/>
<path d="M54.823 58.2462C58.1888 59.1096 63.6823 60.4012 65.4867 60.1313C68.1581 59.732 78.0967 51.8057 80.4029 48.7896C80.7739 48.3032 81.0749 47.857 81.3008 47.4578L54.823 58.2462Z" fill="#263238"/>
<path d="M27.3322 81.6731C28.1462 81.8958 51.4953 82.0196 52.3898 81.5743C52.7299 81.4069 52.9507 78.6873 53.1012 75.3954C53.1338 74.6844 56.1602 63.2567 56.1602 63.2567L40.5413 63.1377L38.0477 75.2806C38.0477 75.2806 29.0813 78.432 28.1662 79.0047C27.2556 79.5775 26.5182 81.4503 27.3322 81.6731Z" fill="black"/>
<path d="M27.3329 81.6722C28.1471 81.8957 51.4964 82.0201 52.3907 81.575C52.7308 81.4059 52.9521 78.6879 53.1002 75.3945C53.1076 75.2292 53.2776 74.4846 53.5352 73.4387H38.4265L38.0474 75.2798C38.0474 75.2798 29.0822 78.4314 28.1661 79.0049C27.2551 79.5784 26.5187 81.4506 27.3329 81.6722Z" fill="white"/>
<path d="M27.3326 81.673C28.1466 81.8957 51.4957 82.0195 52.3902 81.5742C52.7303 81.4068 52.9511 78.6873 53.1016 75.3953L38.0478 75.2805C38.0478 75.2805 29.0815 78.4319 28.1663 79.0047C27.256 79.5775 26.5186 81.4502 27.3326 81.673Z" fill="black"/>
<path d="M27.6741 80.9277C31.5887 80.8715 47.3846 80.9409 51.2597 81.1234C51.2912 81.1249 51.291 81.142 51.2595 81.1431C47.381 81.2666 31.5862 81.0949 27.6734 80.979C27.5908 80.9766 27.5913 80.9289 27.6741 80.9277Z" fill="#263238"/>
<path d="M29.6751 78.3406C30.6036 78.3152 31.508 78.6727 32.0103 79.1177C32.4931 79.5451 32.9041 80.1449 32.8712 80.7941C32.8703 80.8127 32.8273 80.813 32.8238 80.7937C32.6104 79.5672 31.2262 78.4836 29.6747 78.3798C29.6434 78.3778 29.6434 78.3414 29.6751 78.3406Z" fill="#263238"/>
<path d="M36.5281 75.5839C38.0948 75.5749 39.9075 76.0268 40.8723 77.057C40.9098 77.0969 40.8383 77.1389 40.7921 77.1194C39.3805 76.5278 38.038 76.0855 36.4998 75.7379C36.3912 75.7136 36.4158 75.5846 36.5281 75.5839Z" fill="#263238"/>
<path d="M35.315 75.9547C36.8818 75.9457 38.6944 76.3976 39.6595 77.4278C39.6968 77.4678 39.6255 77.5097 39.579 77.4902C38.1677 76.8986 36.825 76.4563 35.2868 76.1089C35.1784 76.0844 35.2028 75.9555 35.315 75.9547Z" fill="#263238"/>
<path d="M34.1021 76.3253C35.6688 76.3163 37.4815 76.7682 38.4465 77.7984C38.484 77.8384 38.4125 77.8803 38.366 77.8608C36.9548 77.2692 35.612 76.8269 34.0738 76.4793C33.9654 76.455 33.9898 76.3261 34.1021 76.3253Z" fill="#263238"/>
<path d="M32.8894 76.6964C34.4562 76.6872 36.2688 77.1393 37.2337 78.1695C37.2711 78.2095 37.1996 78.2514 37.1531 78.2319C35.7419 77.6403 34.3991 77.198 32.8609 76.8504C32.7528 76.826 32.7772 76.697 32.8894 76.6964Z" fill="#263238"/>
<path d="M50.2873 78.1441C52.045 78.1575 52.022 80.3427 50.2613 80.3295C48.5037 80.3159 48.5267 78.1305 50.2873 78.1441Z" fill="white"/>
<path d="M34.8615 72.2306C35.6587 71.7088 36.6537 72.2282 37.138 72.7769C37.9226 73.6658 38.4564 74.9085 38.5351 75.9894C38.5369 76.016 38.5116 76.0265 38.4858 76.0249C38.4516 76.1145 38.3184 76.1892 38.2032 76.1246C37.093 75.5014 35.8093 74.9454 34.9712 74.0682C34.482 73.5562 34.1073 72.7241 34.8615 72.2306ZM36.7615 74.9045C37.2984 75.2215 37.8513 75.5158 38.3731 75.8486C38.0985 75.2226 37.8591 74.5904 37.5058 73.9869C37.3372 73.6989 37.1571 73.4056 36.9405 73.1385C36.6035 72.7226 35.0745 71.667 34.9073 73.0297C34.8153 73.781 36.1219 74.5266 36.7615 74.9045Z" fill="#263238"/>
<path d="M42.4236 76.4748C41.0581 76.6351 39.6537 76.3169 38.3149 76.1436C38.176 76.1256 38.1459 75.9979 38.1995 75.9145C38.1797 75.9013 38.1705 75.8796 38.1951 75.8615C39.194 75.1312 40.6605 74.5389 41.9977 74.3402C42.8234 74.2177 43.9888 74.4007 44.1049 75.2197C44.2146 75.9942 43.2208 76.3811 42.4236 76.4748ZM43.3754 75.7664C44.4442 74.6968 42.4282 74.5996 41.8243 74.7093C41.436 74.7798 41.0512 74.8893 40.6793 75.0015C39.8998 75.2365 39.1767 75.5557 38.4341 75.8509C39.0983 75.9038 39.7508 76.0017 40.4121 76.0742C41.1998 76.1607 42.7861 76.3561 43.3754 75.7664Z" fill="#263238"/>
<path opacity="0.1" d="M27.3329 81.6738C27.947 81.8412 41.4296 81.9535 48.3687 81.8063L49.9258 75.3718L38.0486 75.2798C38.0486 75.2798 29.0809 78.4317 28.1655 79.0039C27.257 79.578 26.5187 81.4511 27.3329 81.6738Z" fill="black"/>
<path d="M45.5518 47.2434C42.2885 51.6565 37.0245 72.0946 37.0245 72.0946L54.1959 72.2266L57.4359 62.5864C57.4359 62.5864 61.6127 73.7207 74.7726 79.2734C80.5263 81.7011 91.1645 80.1123 93.5137 72.8211L82.4339 61.7189C82.4339 61.7189 78.6764 62.4385 77.1588 61.1627C71.93 56.7628 63.1879 46.8313 59.9482 44.9613C55.7663 42.5516 48.5455 43.1945 45.5518 47.2434Z" fill="#37474F"/>
<path d="M60.9339 52.525C60.8723 53.026 60.6674 53.53 60.5268 54.02C60.378 54.5383 60.2377 55.0583 60.0882 55.5765C60.0868 55.5816 60.0852 55.5866 60.0836 55.5917C60.157 55.4685 60.232 55.3459 60.3028 55.2217C60.545 54.7961 60.833 54.3928 61.0278 53.9506C61.0397 53.9236 61.0917 53.9378 61.0804 53.965C60.8937 54.4105 60.7578 54.8738 60.5225 55.3054C60.4116 55.5086 60.2945 55.709 60.1692 55.9068C60.1004 56.0149 60.0326 56.1242 59.958 56.23C59.924 56.2782 59.8909 56.3327 59.8488 56.3796C59.7754 56.6161 57.7942 62.2824 57.4913 62.5859C57.4688 62.6086 57.4308 62.599 57.4386 62.5716C57.5861 62.0641 59.659 56.0563 59.8329 55.5439C60.0024 55.044 60.1807 54.5461 60.3509 54.0463C60.5222 53.5431 60.6432 53.0005 60.8935 52.5182C60.9022 52.5018 60.9362 52.5053 60.9339 52.525Z" fill="#263238"/>
<path d="M38.5685 69.7431C39.5359 69.6897 40.5143 69.6943 41.4842 69.6886C42.4578 69.6829 43.4314 69.6815 44.4052 69.6842C46.3535 69.6897 48.3028 69.6855 50.2509 69.7124C51.3211 69.7271 52.3908 69.7505 53.4587 69.8112C53.5063 69.8139 53.5015 69.875 53.4548 69.8772C51.5115 69.9696 49.5637 69.9437 47.6181 69.9372C45.6688 69.9306 43.7191 69.9194 41.7703 69.8894C40.7038 69.873 39.6281 69.8712 38.5648 69.8025C38.5223 69.7998 38.5269 69.7453 38.5685 69.7431Z" fill="#263238"/>
<path d="M37.0242 72.095L51.643 72.2054L58.0117 44.1233C53.8073 42.8022 48.1217 43.7664 45.5503 47.244C42.2889 51.6563 37.0242 72.095 37.0242 72.095Z" fill="#263238"/>
<path d="M20.5324 82.4245C21.3468 82.646 44.6964 82.7363 45.5897 82.2898C45.9297 82.1218 46.1442 79.4021 46.2873 76.1098C46.3184 75.3988 52.5527 64.9303 52.5527 64.9303L36.9337 64.8335L31.2336 76.0167C31.2336 76.0167 22.2744 79.1809 21.3606 79.755C20.4512 80.3291 19.7179 82.2031 20.5324 82.4245Z" fill="black"/>
<path d="M20.5328 82.4245C21.347 82.6453 44.6959 82.7368 45.5883 82.2906C45.9285 82.1211 46.1433 79.4016 46.2854 76.1089C46.291 75.9527 46.8165 74.9181 47.2988 74.0257L32.3592 73.8062L31.2326 76.0175C31.2326 76.0175 22.2728 79.1808 21.3583 79.7541C20.4491 80.3297 19.7186 82.2037 20.5328 82.4245Z" fill="white"/>
<path d="M20.5322 82.4243C21.3466 82.6459 44.6962 82.7362 45.5895 82.2897C45.9295 82.1217 46.144 79.402 46.2871 76.1096L31.2332 76.0164C31.2332 76.0164 22.274 79.1806 21.3602 79.7547C20.451 80.329 19.7177 82.203 20.5322 82.4243Z" fill="black"/>
<path d="M20.8708 81.6784C24.7854 81.6168 40.5814 81.6633 44.4569 81.8404C44.4884 81.8418 44.4884 81.8589 44.4566 81.86C40.5784 81.989 24.7834 81.84 20.8704 81.7298C20.7878 81.7276 20.788 81.6797 20.8708 81.6784Z" fill="#263238"/>
<path d="M22.8651 79.0888C23.7936 79.0621 24.6986 79.4184 25.2021 79.8625C25.6858 80.2894 26.0982 80.8885 26.0667 81.5377C26.0657 81.5563 26.0227 81.5566 26.0193 81.5373C25.8033 80.3111 24.4164 79.2294 22.8648 79.1278C22.8333 79.1258 22.8331 79.0895 22.8651 79.0888Z" fill="#263238"/>
<path d="M29.7121 76.322C31.2789 76.3108 33.0927 76.7601 34.0598 77.7888C34.0973 77.8288 34.026 77.8707 33.9795 77.8514C32.5669 77.2619 31.2232 76.8214 29.6843 76.4762C29.576 76.4519 29.6001 76.3229 29.7121 76.322Z" fill="#263238"/>
<path d="M28.5012 76.6945C30.068 76.6833 31.8815 77.1326 32.8489 78.1614C32.8864 78.2011 32.8148 78.2433 32.7686 78.224C31.356 77.6344 30.0123 77.1939 28.4734 76.8487C28.365 76.8244 28.3892 76.6953 28.5012 76.6945Z" fill="#263238"/>
<path d="M27.2902 77.0671C28.857 77.0557 30.6705 77.5052 31.6379 78.534C31.6754 78.5739 31.6041 78.6158 31.5577 78.5965C30.145 78.007 28.8013 77.5665 27.2624 77.2213C27.1538 77.1968 27.178 77.0678 27.2902 77.0671Z" fill="#263238"/>
<path d="M26.0773 77.4397C27.6441 77.4283 29.4577 77.8778 30.425 78.9065C30.4625 78.9464 30.3912 78.9884 30.3448 78.9691C28.9321 78.3795 27.5884 77.939 26.0493 77.5939C25.941 77.5694 25.9651 77.4404 26.0773 77.4397Z" fill="#263238"/>
<path d="M43.4783 78.8626C45.2359 78.8734 45.2178 81.0588 43.4571 81.0478C41.6995 81.0369 41.7176 78.8516 43.4783 78.8626Z" fill="white"/>
<path d="M28.0407 72.9711C28.8368 72.4482 29.8326 72.9662 30.3184 73.5143C31.105 74.4019 31.6416 75.6441 31.7226 76.7247C31.7244 76.7514 31.6991 76.7619 31.6733 76.7604C31.6393 76.8501 31.5064 76.9249 31.3911 76.8605C30.2795 76.239 28.9948 75.6848 28.1546 74.8088C27.664 74.2972 27.2877 73.4659 28.0407 72.9711ZM29.9465 75.6423C30.484 75.9586 31.0374 76.2519 31.5602 76.584C31.2842 75.9584 31.0434 75.3265 30.6887 74.7236C30.5194 74.4358 30.3387 74.1429 30.1215 73.8761C29.7837 73.4606 28.2523 72.4072 28.0881 73.7703C27.9977 74.5215 29.3059 75.2653 29.9465 75.6423Z" fill="#263238"/>
<path d="M35.6115 77.2045C34.2465 77.3667 32.8414 77.0506 31.5021 76.8791C31.3632 76.8613 31.3326 76.7336 31.3862 76.6501C31.3664 76.637 31.3572 76.6151 31.3818 76.5971C32.3791 75.8653 33.8442 75.271 35.1809 75.0704C36.0064 74.9466 37.1723 75.1282 37.2903 75.9468C37.4014 76.7213 36.4085 77.1097 35.6115 77.2045ZM36.5616 76.4948C37.6281 75.4237 35.612 75.3293 35.008 75.4399C34.62 75.5109 34.2354 75.6209 33.8637 75.7337C33.0847 75.9698 32.3625 76.2902 31.6203 76.5864C32.2848 76.6383 32.9375 76.7354 33.5988 76.807C34.387 76.8922 35.9735 77.0852 36.5616 76.4948Z" fill="#263238"/>
<path d="M44.9659 46.3997C41.7026 50.8127 30.6311 73.0355 30.6311 73.0355L48.8694 73.1674L54.8402 61.4667C54.8402 61.4667 62.8435 81.4563 79.1533 81.4563C87.2252 81.4563 91.5685 78.1842 94.2031 73.5389L79.3893 61.8695C79.3893 61.8695 77.8308 62.7543 77.0134 62.084C71.7142 57.7385 62.602 45.9875 59.3625 44.1175C55.1804 41.7079 47.9598 42.3508 44.9659 46.3997Z" fill="#37474F"/>
<path d="M33.2423 70.684C34.2097 70.6307 35.1881 70.6352 36.158 70.6295C37.1316 70.6238 38.1052 70.6224 39.079 70.6251C41.0274 70.6306 42.9766 70.6264 44.9247 70.6533C45.9949 70.668 47.0646 70.6914 48.1325 70.7521C48.1801 70.7549 48.1753 70.8159 48.1286 70.8181C46.1854 70.9105 44.2375 70.8846 42.2919 70.8781C40.3427 70.8717 38.393 70.8603 36.4442 70.8303C35.3777 70.8139 34.3019 70.8121 33.2386 70.7434C33.1959 70.7407 33.2005 70.6862 33.2423 70.684Z" fill="#263238"/>
<path d="M55.2792 60.0683C55.4545 59.6063 55.6341 59.144 55.8234 58.6855C56.1969 57.7815 56.5371 56.8676 56.947 55.9734C57.0624 55.7216 57.1604 55.4655 57.2761 55.2138C57.395 54.9551 57.5093 54.6957 57.6202 54.4346C57.634 54.4018 57.6926 54.4167 57.6839 54.45C57.4313 55.3971 57.1809 56.3458 56.8278 57.2735C56.7071 57.5909 56.5806 57.9066 56.4513 58.2215C56.6185 57.9896 56.8005 57.7653 56.9877 57.5403C57.2894 57.1775 57.5974 56.8152 57.7865 56.4036C57.7936 56.3881 57.8237 56.3951 57.8175 56.4111C57.6565 56.8199 57.3957 57.1966 57.0981 57.5512C56.8531 57.843 56.5893 58.1302 56.3637 58.4334C56.144 58.9588 55.9127 59.4806 55.6633 59.9982C55.4253 60.4924 55.1688 60.9947 54.8445 61.4569C54.834 61.472 54.8082 61.4602 54.8121 61.4452C54.9292 60.9804 55.1072 60.522 55.2792 60.0683Z" fill="#263238"/>
<path d="M47.562 69.6843C48.9006 67.6482 50.3151 65.6385 51.627 63.5928C52.9451 61.5377 54.1984 59.4613 55.3854 57.3648C55.7164 56.7802 56.0478 56.196 56.3673 55.608C56.69 55.014 56.9913 54.4142 57.3126 53.8198C57.3195 53.8072 57.3471 53.8129 57.3409 53.8261C56.8473 54.9066 56.2799 55.9712 55.7339 57.0384C55.1943 58.0934 54.6039 59.1354 54.007 60.1741C52.8083 62.2603 51.5056 64.3185 50.1069 66.3385C49.3192 67.4763 48.4985 68.607 47.5997 69.7013C47.585 69.7195 47.55 69.7027 47.562 69.6843Z" fill="#263238"/>
<path d="M76.5671 61.7253C77.4319 62.3851 78.2679 63.0779 79.0506 63.8028C79.2096 63.95 79.365 64.0996 79.5201 64.2494C79.972 64.5155 80.4132 64.7933 80.8354 65.0903C81.3092 65.4237 81.7476 65.7823 82.2037 66.131C82.2189 66.1426 82.2 66.1637 82.1842 66.1521C81.7239 65.8151 81.226 65.5058 80.7432 65.1904C80.4785 65.0174 80.2137 64.8445 79.949 64.6713C80.412 65.1333 80.8633 65.6033 81.3076 66.0767C81.7225 66.5187 82.0945 66.9855 82.493 67.4365C82.5114 67.4573 82.4746 67.4812 82.4549 67.4611C82.0802 67.0813 81.6701 66.7236 81.2865 66.3494C80.9028 65.975 80.5141 65.604 80.1273 65.2318C79.7457 64.8647 79.3598 64.5009 78.9715 64.1385C78.5782 63.7712 78.2045 63.391 77.8181 63.0192C77.3841 62.6013 76.9546 62.1807 76.5278 61.758C76.5078 61.7384 76.5429 61.7069 76.5671 61.7253Z" fill="#263238"/>
<path d="M84.2068 69.368C84.3648 69.0473 84.5408 68.7214 84.7524 68.4138C84.8616 68.2552 84.9688 68.0958 85.0771 67.937C85.1804 67.7856 85.274 67.6124 85.4251 67.4809C85.4543 67.4555 85.5155 67.473 85.5022 67.5054C85.4948 67.5453 85.4805 67.5854 85.4642 67.6255C85.4575 67.6487 85.449 67.6717 85.4424 67.6949C85.4407 67.7004 85.435 67.7032 85.4288 67.7048C85.3957 67.7705 85.3573 67.8356 85.3237 67.8991C85.2439 68.0498 85.1622 68.2012 85.0921 68.3538C84.9612 68.6386 84.826 68.9236 84.7211 69.2125C84.5191 69.768 84.3395 70.3264 84.3344 70.891C84.3296 71.4431 84.4885 71.9791 84.8632 72.4393C85.2087 72.8636 85.702 73.2173 86.2218 73.5286C86.8325 73.8944 87.488 74.2284 88.1476 74.5489C88.186 74.5677 88.1405 74.6136 88.0993 74.6008C87.4054 74.3816 86.7124 74.1665 86.0866 73.8631C85.4746 73.5663 84.935 73.2123 84.5332 72.7621C83.6806 71.8071 83.649 70.5003 84.2068 69.368Z" fill="#263238"/>
<path d="M55.8871 58.7017C57.3626 61.3553 58.9675 63.9477 60.8264 66.4196C62.6355 68.8252 64.6232 71.1817 66.9641 73.2288C69.2342 75.2142 71.9142 76.9019 74.9969 77.8195C76.5096 78.2697 78.1028 78.529 79.7061 78.529C81.2494 78.529 82.7879 78.2914 84.2434 77.853C85.7255 77.4064 87.1271 76.7385 88.3415 75.8823C89.6385 74.9678 90.7241 73.8686 91.7377 72.7256C91.99 72.4411 92.2409 72.1559 92.4898 71.8691C92.5089 71.8472 92.551 71.8685 92.5326 71.8917C91.585 73.0914 90.5916 74.2697 89.4043 75.3053C88.2842 76.2821 86.9721 77.0862 85.5258 77.668C82.6311 78.8326 79.3499 79.0891 76.2534 78.4171C73.0762 77.7276 70.2359 76.1889 67.846 74.2937C65.3643 72.3258 63.2982 69.9829 61.4209 67.5812C59.4756 65.0924 57.7632 62.4722 56.3246 59.7407C56.1491 59.4075 55.9874 59.0688 55.8259 58.7304C55.8089 58.6958 55.8673 58.666 55.8871 58.7017Z" fill="#263238"/>
<path d="M49.7672 71.1372C49.9406 70.7942 50.108 70.4495 50.2872 70.1084C50.6465 69.4245 51.0053 68.7404 51.3666 68.0572C52.0831 66.7028 52.7583 65.3353 53.4309 63.9667C53.6213 63.5794 53.8055 63.19 53.9987 62.8038C54.0953 62.6102 54.1945 62.4176 54.292 62.2244C54.3847 62.0409 54.6276 61.5552 54.7564 61.3859C54.7902 61.3415 54.896 61.3596 54.8861 61.4168C54.8244 61.7693 54.4891 62.4122 54.3515 62.7499C54.2078 63.1022 54.0493 63.4511 53.8932 63.8002C53.5806 64.4986 53.2524 65.1927 52.9143 65.8836C52.2383 67.2652 51.5488 68.6436 50.7838 69.9954C50.5701 70.3732 50.3493 70.7474 50.1186 71.1186C50.0036 71.3037 49.896 71.4925 49.77 71.673C49.6439 71.8537 49.5105 72.0294 49.3925 72.2136C49.3603 72.2636 49.2518 72.2257 49.2787 72.1725C49.4523 71.8305 49.594 71.4796 49.7672 71.1372Z" fill="#263238"/>
<path d="M62.6686 47.0746C63.4941 47.9068 64.3005 48.7512 65.1023 49.598C65.905 50.4455 66.7203 51.2856 67.5115 52.1399C69.0911 53.8447 70.6701 55.5498 72.2306 57.2658C73.1074 58.23 73.9812 59.1954 74.8234 60.1791C74.8349 60.1925 74.8073 60.2087 74.7947 60.196C73.1338 58.5367 71.5514 56.8263 69.9622 55.1226C68.3758 53.4221 66.8102 51.7107 65.2529 49.9932C64.378 49.0283 63.5044 48.062 62.6569 47.0814C62.6525 47.0761 62.6636 47.0695 62.6686 47.0746Z" fill="#263238"/>
<path d="M94.7008 74.0849L72.4244 63.6428C72.061 63.3815 74.6973 49.9977 77.2774 46.1609C77.7112 45.5158 81.7613 43.9551 84.7554 46.7926C96.6409 58.0567 94.7008 74.0849 94.7008 74.0849Z" fill="#D5607D"/>
<path opacity="0.2" d="M80.472 52.0224C80.5594 52.0168 80.6261 52.0003 80.6882 51.9672C80.8078 51.9009 80.8791 51.7997 80.8768 51.6856C80.8791 51.5145 81.0217 51.3526 81.2149 51.3011C81.4196 51.2459 81.5875 51.3011 81.76 51.3232C81.6726 51.3416 81.5875 51.3489 81.5001 51.3636C81.4104 51.3692 81.3437 51.382 81.2793 51.4152C81.1574 51.4759 81.0792 51.5789 81.0815 51.6875C81.0838 51.8512 80.9527 52.0224 80.7595 52.0794C80.5571 52.142 80.3846 52.0868 80.2144 52.0628C80.2995 52.0444 80.3869 52.0371 80.472 52.0224ZM78.7769 60.6832C78.8643 60.6777 78.931 60.6612 78.9931 60.628C79.1127 60.5618 79.184 60.4606 79.1794 60.3447C79.1817 60.1754 79.3243 60.0135 79.5175 59.962C79.7245 59.9068 79.8901 59.962 80.0626 59.984C79.9775 60.0024 79.8901 60.0098 79.805 60.0245C79.713 60.03 79.6486 60.0429 79.5842 60.0742C79.4623 60.1349 79.3818 60.2398 79.3841 60.3484C79.3864 60.5121 79.2553 60.6832 79.0621 60.7403C78.8597 60.8028 78.6872 60.7458 78.517 60.7237C78.6044 60.7053 78.6895 60.6961 78.7769 60.6832ZM85.1709 54.9075C85.2583 54.902 85.325 54.8854 85.3871 54.8523C85.5067 54.786 85.578 54.6848 85.5757 54.5708C85.578 54.3996 85.7183 54.2377 85.9138 54.1862C86.1185 54.131 86.2864 54.1862 86.4589 54.2083C86.3715 54.2267 86.2841 54.2359 86.199 54.2488C86.107 54.2543 86.0426 54.2672 85.9782 54.3003C85.8563 54.361 85.7781 54.464 85.7781 54.5726C85.7827 54.7364 85.6516 54.9075 85.4584 54.9645C85.256 55.0271 85.0812 54.9719 84.9133 54.948C84.9984 54.9296 85.0858 54.9222 85.1709 54.9075ZM88.6393 63.7781C88.7267 63.7726 88.7934 63.756 88.8532 63.7211C88.9728 63.6567 89.0464 63.5536 89.0418 63.4396C89.0441 63.2703 89.1867 63.1084 89.3799 63.055C89.5846 63.0016 89.7525 63.055 89.925 63.0789C89.8376 63.0973 89.7525 63.1047 89.6651 63.1176C89.5754 63.1249 89.5087 63.1378 89.4466 63.1691C89.3247 63.2298 89.2442 63.3347 89.2465 63.4432C89.2488 63.607 89.1177 63.7763 88.9245 63.8333C88.7221 63.8977 88.5496 63.8407 88.3794 63.8186C88.4668 63.8002 88.5519 63.791 88.6393 63.7781ZM89.0717 69.4803C89.1591 69.4748 89.2281 69.4582 89.2879 69.4251C89.4075 69.3588 89.4788 69.2558 89.4765 69.1417C89.4788 68.9724 89.6214 68.8105 89.8146 68.7572C90.0193 68.7038 90.1872 68.7572 90.3597 68.7811C90.2723 68.7995 90.1872 68.8068 90.0998 68.8216C90.0101 68.8271 89.9434 68.84 89.879 68.8712C89.7571 68.932 89.6789 69.0368 89.6812 69.1454C89.6835 69.3092 89.5524 69.4784 89.3592 69.5373C89.1568 69.5999 88.9843 69.5428 88.8141 69.5208C88.8992 69.5024 88.9866 69.4932 89.0717 69.4803ZM83.2665 45.7682C83.2757 45.7682 83.2849 45.7664 83.2941 45.7664C83.347 45.7921 83.3999 45.8197 83.4528 45.8473C83.2941 45.8694 83.1492 45.8289 83.0089 45.8087C83.094 45.7903 83.1814 45.7829 83.2665 45.7682ZM75.4971 57.6951C75.5684 57.7411 75.6236 57.7705 75.6972 57.7834C75.8375 57.8092 75.987 57.7797 76.0813 57.7024C76.2239 57.5847 76.4677 57.5387 76.654 57.6086C76.8541 57.6785 76.9254 57.8165 77.0266 57.9288C76.9484 57.892 76.8794 57.8496 76.8058 57.8092C76.7391 57.765 76.6793 57.7374 76.6057 57.7282C76.4631 57.7061 76.3205 57.7374 76.2239 57.8202C76.0721 57.9398 75.8283 57.9729 75.6443 57.9012C75.4511 57.8239 75.3798 57.6896 75.2786 57.5773C75.3568 57.6123 75.4235 57.6546 75.4971 57.6951ZM72.9257 59.9491C73.0476 60.0411 73.089 60.1607 73.1511 60.2656C73.0821 60.2214 73.0246 60.1699 72.9602 60.1202C72.9395 60.1018 72.9211 60.0852 72.9004 60.0724C72.9096 60.0319 72.9188 59.9896 72.9257 59.9491ZM92.2664 60.8875C92.3377 60.9353 92.3952 60.9629 92.4688 60.9758C92.6091 61.0016 92.7563 60.974 92.8506 60.8948C92.9518 60.8139 93.1013 60.766 93.2462 60.7697L93.2876 60.9132C93.1749 60.9132 93.0714 60.9464 92.9932 61.0126C92.8414 61.1322 92.5976 61.1672 92.4136 61.0936C92.2204 61.0163 92.1514 60.8838 92.0502 60.7697C92.1261 60.8047 92.1951 60.8488 92.2664 60.8875ZM85.0352 66.9061C85.1042 66.9521 85.1617 66.9816 85.2353 66.9944C85.3756 67.0202 85.5228 66.9908 85.6194 66.9135C85.7597 66.7957 86.0058 66.7497 86.1921 66.8196C86.3899 66.8896 86.4635 67.0276 86.5624 67.1398C86.4865 67.103 86.4175 67.0607 86.3439 67.0202C86.2772 66.976 86.2151 66.9484 86.1415 66.9392C85.9989 66.9172 85.8586 66.9484 85.7597 67.0312C85.6079 67.1508 85.3664 67.184 85.1824 67.1122C84.9869 67.0349 84.9179 66.9006 84.8167 66.7884C84.8949 66.8233 84.9616 66.8675 85.0352 66.9061ZM94.1639 70.5604C94.2329 70.6082 94.2904 70.6358 94.364 70.6505C94.5043 70.6763 94.6515 70.6468 94.7481 70.5696C94.7665 70.5548 94.7849 70.5401 94.8079 70.5291C94.8079 70.599 94.8102 70.6671 94.8125 70.7352C94.6653 70.8124 94.4675 70.829 94.3111 70.7664C94.1156 70.6892 94.0466 70.5567 93.9454 70.4426C94.0236 70.4794 94.0903 70.5217 94.1639 70.5604ZM84.4924 59.6032C84.5614 59.6492 84.6189 59.6768 84.6925 59.6915C84.8328 59.7172 84.98 59.6878 85.0743 59.6105C85.2169 59.4928 85.4607 59.4468 85.647 59.5148C85.8471 59.5848 85.9207 59.7228 86.0196 59.835C85.9414 59.8 85.8747 59.7559 85.8011 59.7172C85.7344 59.6731 85.6723 59.6455 85.5987 59.6344C85.4561 59.6142 85.3158 59.6455 85.2169 59.7283C85.0651 59.846 84.8213 59.881 84.6373 59.8074C84.4441 59.7301 84.3751 59.5976 84.2739 59.4836C84.3498 59.5204 84.4188 59.5627 84.4924 59.6032ZM78.3606 65.6696C78.4296 65.7156 78.4871 65.7451 78.5607 65.758C78.701 65.7837 78.8482 65.7543 78.9448 65.677C79.0874 65.5592 79.3312 65.5132 79.5175 65.5832C79.7153 65.6512 79.7889 65.7892 79.8878 65.9033C79.8119 65.8665 79.7429 65.8242 79.6693 65.7837C79.6026 65.7396 79.5405 65.712 79.4669 65.7009C79.3243 65.6807 79.184 65.712 79.0851 65.7948C78.9356 65.9144 78.6918 65.9475 78.5078 65.8757C78.3123 65.7984 78.2433 65.6641 78.1421 65.55C78.2203 65.5868 78.287 65.6292 78.3606 65.6696ZM79.6233 47.0912C79.6463 47.1611 79.6555 47.2292 79.6739 47.2991C79.6808 47.3708 79.6969 47.4242 79.736 47.4739C79.8119 47.5714 79.943 47.6358 80.0787 47.634C80.2834 47.6321 80.4973 47.737 80.5686 47.8916C80.6468 48.0535 80.5755 48.1915 80.5479 48.3276C80.5249 48.2596 80.5134 48.1896 80.4973 48.1216C80.4904 48.0516 80.4697 47.9964 80.4283 47.9486C80.3455 47.8529 80.219 47.7959 80.0764 47.7977C79.8625 47.7959 79.6601 47.6818 79.5957 47.5272C79.5267 47.3635 79.5957 47.2292 79.6233 47.0912ZM74.5449 62.5343C74.5679 62.6024 74.5794 62.6723 74.5955 62.7404C74.6024 62.814 74.6185 62.8655 74.6599 62.917C74.7358 63.0145 74.8646 63.0789 75.0003 63.0771C75.205 63.0752 75.4189 63.1801 75.4902 63.3347C75.5684 63.4966 75.4994 63.6346 75.4695 63.7708C75.4465 63.7008 75.4373 63.6328 75.4189 63.5628C75.412 63.4929 75.3913 63.4396 75.3499 63.3899C75.2671 63.2942 75.1406 63.2372 74.998 63.2408C74.7841 63.239 74.5817 63.1249 74.5173 62.9704C74.4483 62.8048 74.5173 62.6723 74.5449 62.5343ZM75.4074 53.4134C75.4304 53.4833 75.4396 53.5514 75.4557 53.6213C75.4649 53.6949 75.4787 53.7464 75.5201 53.798C75.596 53.8955 75.7271 53.958 75.8628 53.958C76.0675 53.9544 76.2791 54.0592 76.3504 54.2138C76.4309 54.3757 76.3596 54.5156 76.3297 54.6499C76.3067 54.5818 76.2975 54.5119 76.2814 54.4438C76.2722 54.3739 76.2538 54.3205 76.2101 54.2708C76.1296 54.1752 76.0008 54.1181 75.8582 54.12C75.6466 54.1181 75.4442 54.0059 75.3775 53.8495C75.3085 53.6857 75.3775 53.5514 75.4074 53.4134ZM80.7779 55.7024C80.8009 55.7704 80.8124 55.8404 80.8285 55.9084C80.8354 55.982 80.8515 56.0336 80.8929 56.0851C80.9688 56.1826 81.0976 56.247 81.2333 56.2452C81.438 56.2433 81.6519 56.3482 81.7232 56.5028C81.8014 56.6647 81.7324 56.8027 81.7025 56.9388C81.6795 56.8689 81.6703 56.8008 81.6519 56.7309C81.645 56.661 81.6243 56.6076 81.5829 56.558C81.5001 56.4623 81.3736 56.4052 81.231 56.4089C81.0194 56.4071 80.817 56.293 80.7503 56.1384C80.6813 55.9728 80.7503 55.8404 80.7779 55.7024ZM92.4619 65.7322C92.4849 65.8003 92.4941 65.8702 92.5102 65.9383C92.5194 66.0119 92.5332 66.0634 92.5746 66.1149C92.6505 66.2124 92.7816 66.2768 92.9173 66.275C93.122 66.2713 93.3336 66.378 93.4049 66.5326C93.4854 66.6945 93.4141 66.8325 93.3842 66.9687C93.3612 66.8988 93.352 66.8307 93.3359 66.7608C93.3267 66.6908 93.3083 66.6375 93.2646 66.5878C93.1841 66.4921 93.0553 66.4351 92.9127 66.4388C92.7011 66.4369 92.4987 66.3228 92.432 66.1683C92.363 66.0027 92.432 65.8702 92.4619 65.7322ZM90.8542 72.2053C90.8634 72.2348 90.8703 72.2642 90.8795 72.2936L90.8358 72.2734C90.8427 72.2513 90.8496 72.2274 90.8542 72.2053ZM88.6784 51.3195C88.6922 51.3379 88.706 51.3544 88.7175 51.3728V51.3747C88.7267 51.4078 88.7336 51.4428 88.7405 51.4759C88.7497 51.5495 88.7635 51.601 88.8049 51.6525C88.8532 51.7151 88.9245 51.7629 89.005 51.7887C89.0464 51.8494 89.0878 51.912 89.1292 51.9727C88.9222 51.969 88.7267 51.8568 88.6623 51.704C88.6025 51.5605 88.6485 51.4391 88.6784 51.3195ZM88.6899 57.3197C88.7129 57.3896 88.7244 57.4577 88.7405 57.5276C88.7497 57.6012 88.7635 57.6528 88.8049 57.7043C88.8808 57.8018 89.0096 57.8644 89.1453 57.8644C89.35 57.8607 89.5639 57.9656 89.6352 58.1201C89.7134 58.282 89.6444 58.4219 89.6145 58.5562C89.5915 58.4881 89.5823 58.4182 89.5639 58.3501C89.557 58.2802 89.5363 58.2268 89.4949 58.1772C89.4121 58.0815 89.2856 58.0244 89.143 58.0263C88.9314 58.0244 88.729 57.9122 88.6623 57.7558C88.5933 57.592 88.6623 57.4577 88.6899 57.3197ZM82.611 62.5343C82.634 62.6024 82.6432 62.6723 82.6593 62.7404C82.6685 62.814 82.6823 62.8655 82.7237 62.917C82.7996 63.0145 82.9307 63.0789 83.0664 63.0771C83.2711 63.0752 83.4827 63.1801 83.554 63.3347C83.6345 63.4966 83.5632 63.6346 83.5356 63.7708C83.5103 63.7008 83.5011 63.6328 83.485 63.5628C83.4758 63.4929 83.4574 63.4396 83.4137 63.3899C83.3332 63.2942 83.2044 63.2372 83.0618 63.2408C82.8502 63.239 82.6478 63.1249 82.5811 62.9704C82.5121 62.8048 82.5811 62.6723 82.611 62.5343ZM75.5799 49.8916C75.7225 49.8328 75.895 49.8272 76.0353 49.8824C76.2285 49.9597 76.2975 50.0922 76.3987 50.2063C76.3228 50.1713 76.2538 50.1272 76.1802 50.0885C76.1112 50.0407 76.0537 50.0131 75.9801 50.0002C75.8398 49.9726 75.6926 50.002 75.5983 50.0793C75.5661 50.1051 75.5293 50.129 75.4902 50.1456C75.5201 50.0609 75.55 49.9763 75.5799 49.8916ZM84.1612 49.3544C84.2279 49.4004 84.29 49.4261 84.3636 49.4372C84.5062 49.4592 84.6465 49.4261 84.7454 49.3433C84.8972 49.2256 85.141 49.1906 85.325 49.2642C85.5182 49.3415 85.5872 49.474 85.6907 49.588C85.6125 49.5512 85.5435 49.5089 85.4722 49.4703C85.4009 49.4224 85.3434 49.3948 85.2698 49.382C85.1295 49.3544 84.9823 49.3838 84.888 49.4611C84.7454 49.5788 84.5016 49.6248 84.3153 49.5568C84.1152 49.4868 84.0416 49.3488 83.9427 49.2366C84.0209 49.2716 84.0899 49.3157 84.1612 49.3544Z" fill="black"/>
<path d="M77.6856 49.74C78.8482 49.8154 81.9072 47.564 82.1308 45.9899C82.1453 45.8819 79.886 42.5036 79.5254 41.7971C79.4522 41.6517 74.5355 44.684 74.5355 44.684C74.5355 44.684 75.8364 45.9873 76.456 47.2223C76.5064 47.3261 76.5427 47.426 76.5659 47.5248C76.5708 47.5388 76.5742 47.5564 76.5825 47.5754C76.7513 48.1629 76.3946 49.6561 77.6856 49.74Z" fill="#F7916D"/>
<path d="M79.1805 41.9363C79.5199 43.076 80.1989 46.3571 77.1638 47.4152C76.9589 47.4844 76.7675 47.5391 76.5826 47.575C76.5771 47.5567 76.5716 47.5387 76.5679 47.5234C76.5414 47.4259 76.5049 47.3251 76.4547 47.2222C75.8362 45.987 74.5365 44.6825 74.5365 44.6825C74.5365 44.6825 78.0449 42.5194 79.1805 41.9363Z" fill="#263238"/>
<path d="M77.9251 36.2935C79.2952 37.7076 80.4346 42.6494 79.502 44.1122C78.1498 46.2326 74.8424 47.4018 72.3143 45.9015C69.8636 44.4473 68.5211 37.9858 69.6647 36.5664C71.3492 34.4762 75.9013 34.2048 77.9251 36.2935Z" fill="#FFFAF6"/>
<path opacity="0.4" d="M71.0152 42.1441C71.0152 42.1441 71.3184 42.0118 71.3184 42.0401C71.3184 42.0491 71.227 42.1741 71.227 42.1853C71.227 42.2022 71.0152 42.2922 71.0152 42.313C71.0152 42.4571 71.0152 42.644 71.0152 42.7483C71.0152 42.909 71.0868 43.1079 71.0826 43.192C71.0785 43.276 70.9904 43.5973 71.0152 43.7044C71.0401 43.8115 71.0329 44.5708 71.1024 44.6708C71.1719 44.7707 71.207 45.2163 71.0566 45.1067C70.9062 44.997 71.0104 44.535 70.9554 44.4457C70.9004 44.3565 70.9126 43.7769 70.9126 43.6578C70.9126 43.5388 70.9828 43.2532 70.9828 43.1666C70.9828 43.0799 70.9228 42.7978 70.923 42.7119C70.9232 42.6552 70.9232 42.5448 70.9232 42.3956C70.9232 42.3884 70.7831 42.3189 70.7631 42.2766C70.7307 42.2085 70.5759 42.0736 70.5759 42.0609C70.5759 42.0188 70.9232 42.1443 70.9232 42.1443L71.0152 42.1441Z" fill="white"/>
<path d="M74.4082 39.7322C74.223 39.6921 74.0439 39.6797 73.8555 39.6553C73.643 39.6275 73.4776 39.5879 73.2734 39.6626C73.1639 39.7027 73.1043 39.8361 73.143 39.9248C73.2329 40.1317 73.4824 40.2172 73.7366 40.259C74.0121 40.3042 74.2391 40.2827 74.488 40.1786C74.7293 40.0777 74.6522 39.7852 74.4082 39.7322Z" fill="#263238"/>
<path d="M69.8419 40.9636C69.9562 40.8403 70.0875 40.7421 70.2163 40.6296C70.3617 40.5027 70.4613 40.3899 70.6793 40.3474C70.7964 40.3246 70.9464 40.3998 70.9848 40.4887C71.0738 40.6955 70.9438 40.8863 70.7766 41.0447C70.5952 41.2168 70.4003 41.3121 70.1241 41.3535C69.8569 41.394 69.691 41.1261 69.8419 40.9636Z" fill="#263238"/>
<path d="M75.4307 43.8943C75.3541 43.9898 75.2862 44.1142 75.1395 44.1519C74.9987 44.188 74.8157 44.1672 74.6724 44.1506C74.6583 44.149 74.6482 44.1624 74.6595 44.1709C74.803 44.2776 75.0509 44.3155 75.2342 44.2535C75.4134 44.1931 75.4686 44.0471 75.4746 43.9021C75.4753 43.8815 75.4417 43.8803 75.4307 43.8943Z" fill="#263238"/>
<path d="M74.4669 43.5826C73.8915 43.5101 73.2277 43.6864 72.8098 43.8064C72.7601 43.8093 72.6952 43.7414 72.6771 43.7065L72.6764 43.7039C72.6732 43.6917 72.5055 42.9948 72.5055 42.9948C72.4027 43.0619 71.8718 43.3806 71.844 43.2463C71.6181 42.1347 71.367 40.8986 71.4355 39.7543C71.4355 39.7164 71.5071 39.7124 71.5133 39.7492C71.7831 40.8107 71.818 41.9029 72.0678 42.9725C72.2403 42.8814 72.5177 42.72 72.6844 42.693C72.7323 42.6952 72.8174 43.4511 72.8645 43.562C72.8645 43.562 73.6486 43.2095 74.4329 43.4358C74.6364 43.495 74.7413 43.6172 74.4669 43.5826Z" fill="#263238"/>
<path d="M71.2125 41.3826C71.2053 41.3717 71.1881 41.4039 71.1929 41.4162C71.3157 41.7171 71.393 42.0783 71.0864 42.2593C71.0768 42.2649 71.0834 42.2799 71.0959 42.2755C71.4977 42.1305 71.3891 41.6519 71.2125 41.3826Z" fill="#263238"/>
<path d="M71.3694 41.7808C71.3804 41.8627 71.3675 41.9525 71.3176 42.0401C71.2677 42.1275 71.1564 42.193 71.0416 42.2204C70.9229 42.2485 70.7785 42.2187 70.6893 42.1587C70.6 42.0986 70.5377 42.0268 70.4961 41.951C70.4692 41.903 70.4498 41.8533 70.4326 41.8034C70.3979 41.6971 70.3866 41.5878 70.4146 41.482C70.4347 41.5606 70.4657 41.6353 70.5055 41.705C70.5423 41.7722 70.5835 41.8336 70.6297 41.8923C70.7277 42.0138 70.8625 42.1035 70.9929 42.0682C71.1339 42.0404 71.2063 41.9276 71.2162 41.7819C71.227 41.6391 71.2045 41.4868 71.1771 41.332C71.2804 41.4652 71.351 41.6163 71.3694 41.7808Z" fill="#263238"/>
<path opacity="0.4" d="M74.5291 41.2814C74.5312 41.2973 74.502 41.5079 74.4187 41.5869C74.3608 41.6417 74.3007 41.7078 74.292 41.8553C74.2849 41.9742 74.2807 41.9834 74.2856 42.0489C74.2952 42.179 74.4569 42.5339 74.4378 42.7004C74.4187 42.867 74.4245 42.9777 74.4785 43.0235C74.5324 43.0694 75.0071 43.2962 75.1407 43.4315C75.2743 43.5667 75.8003 43.9949 75.8194 44.1862C75.8385 44.3774 75.9245 45.2877 75.9055 45.4483C75.8864 45.6089 75.7594 45.9282 75.7813 46.0526C75.8031 46.1769 75.8107 46.4533 75.7865 46.4881C75.7622 46.5229 75.7382 46.5381 75.7049 46.542C75.6715 46.5459 75.6483 46.5275 75.6538 46.5098C75.6594 46.4923 75.7288 46.4597 75.7334 46.3948C75.7382 46.3298 75.6554 46.0987 75.6568 46.0373C75.6591 45.9302 75.8457 45.4886 75.836 45.4216C75.8263 45.3546 75.7238 44.2092 75.7118 44.1577C75.6998 44.106 75.1435 43.5382 75.0648 43.4865C74.9859 43.4348 74.3973 43.1481 74.3375 43.0697C74.2777 42.9913 74.3017 42.7102 74.3017 42.6644C74.3017 42.6327 74.189 42.1932 74.1487 41.8537C74.1473 41.8419 74.0804 41.7008 73.9502 41.6496C73.8794 41.6218 73.8338 41.5469 73.8332 41.54C73.826 41.4796 74.0261 41.5076 74.1892 41.473C74.3596 41.4369 74.5248 41.2485 74.5291 41.2814Z" fill="white"/>
<path d="M73.5754 40.9008C73.5754 40.8885 73.6095 40.9106 73.6122 40.9235C73.6778 41.2355 73.8183 41.5844 74.195 41.6309C74.2068 41.6324 74.2095 41.6482 74.1962 41.6488C73.756 41.6694 73.575 41.205 73.5754 40.9008Z" fill="#263238"/>
<path d="M73.6668 41.3121C73.7046 41.3888 73.768 41.4635 73.8628 41.5226C73.9578 41.5815 74.0942 41.5984 74.2119 41.58C74.3334 41.5609 74.4442 41.481 74.4884 41.3947C74.5326 41.3084 74.5464 41.2216 74.5392 41.1389C74.5351 41.0863 74.5236 41.0354 74.51 40.9846C74.4792 40.8775 74.4258 40.7765 74.3396 40.6931C74.3672 40.7702 74.3831 40.8479 74.3884 40.9244C74.3948 40.9976 74.3939 41.0672 74.3867 41.1366C74.3704 41.2804 74.303 41.41 74.1669 41.4271C74.0259 41.4549 73.8964 41.3816 73.8032 41.2562C73.711 41.1336 73.6427 40.9903 73.5774 40.8431C73.5629 40.9995 73.5877 41.1596 73.6668 41.3121Z" fill="#263238"/>
<path opacity="0.2" d="M77.7718 38.5934C78.2318 39.0381 79.2406 40.104 79.5723 40.1116C79.1785 38.3687 78.575 36.8509 77.6801 36.0549C77.2927 35.7105 76.8707 35.4586 76.3762 35.252C76.514 35.7103 77.2845 38.1281 77.7718 38.5934Z" fill="#263238"/>
<path d="M71.2245 37.6516C71.7877 38.0479 72.5693 38.1977 73.2919 38.0212C73.9957 37.8494 74.6423 37.3734 74.8053 36.7873C74.8102 36.7698 74.8442 36.7759 74.8394 36.7934C74.6648 37.4203 74.1443 37.9778 73.346 38.1561C72.5966 38.3233 71.7279 38.132 71.1886 37.6838C71.1644 37.6639 71.198 37.6332 71.2245 37.6516Z" fill="#263238"/>
<path d="M72.7279 33.1536C73.9802 33.0391 75.2209 33.4667 75.7933 34.0975C76.1413 34.4807 76.2543 34.8958 76.2434 35.3319C76.243 35.3496 76.1977 35.3509 76.1968 35.3332C76.1531 34.6491 75.604 33.9241 74.6178 33.551C73.6702 33.1926 72.4915 33.178 71.5429 33.5906C71.0477 33.8058 70.6699 34.1172 70.5082 34.4638C70.49 34.5026 70.3925 34.4894 70.406 34.4502C70.6383 33.7896 71.5947 33.257 72.7279 33.1536Z" fill="#263238"/>
<path d="M65.8449 36.1104C65.9581 35.5971 66.3155 35.1286 66.816 34.7982C67.5172 34.3352 68.3933 34.2964 69.2643 34.2725C69.288 34.2719 69.2896 34.3012 69.2659 34.3019C68.5244 34.3244 67.7739 34.3818 67.1479 34.7304C66.6375 35.0149 66.2424 35.4396 66.0758 35.9209C65.7299 36.9202 66.4084 38.0384 67.6157 38.4228C68.2992 38.6404 69.0957 38.6189 69.7586 38.3643C69.7846 38.3541 69.8103 38.3841 69.7837 38.395C68.5773 38.8905 67.0066 38.5913 66.2631 37.6702C65.8962 37.2155 65.7267 36.6464 65.8449 36.1104Z" fill="#263238"/>
<path d="M78.6911 37.4677C78.6911 37.4677 79.5616 35.549 78.3891 34.6268C77.7246 34.1042 75.8757 34.3914 75.8757 34.3914C75.8757 34.3914 75.1243 33.6024 73.5317 33.4942C71.9222 33.3848 70.1976 34.3224 70.1976 34.3224C70.1976 34.3224 68.5978 33.8116 67.3229 34.6023C65.5454 35.7046 66.203 38.0335 68.2829 38.571C69.7434 38.9484 71.4282 37.7711 71.4282 37.7711C71.6101 37.7704 73.5929 38.4451 74.7436 36.9847C74.7436 36.9847 76.0075 37.6561 76.9164 36.9827C76.9164 36.9827 77.5696 37.7353 78.6911 37.4677Z" fill="#263238"/>
<path d="M78.4824 40.4291C78.4824 40.4291 79.1259 38.5477 80.1473 38.6789C81.169 38.8103 81.1538 41.2752 80.2846 41.8603C79.4157 42.4452 78.7229 41.8123 78.7229 41.8123L78.4824 40.4291Z" fill="white"/>
<path d="M80.1213 39.3854C80.1369 39.3797 80.1482 39.3968 80.1362 39.4055C79.5352 39.8342 79.3979 40.4613 79.3802 41.076C79.4964 40.8081 79.73 40.6129 80.1675 40.7122C80.1905 40.7176 80.1831 40.7455 80.162 40.7478C79.8519 40.7807 79.6622 40.8801 79.5499 41.1202C79.4706 41.2902 79.4501 41.4821 79.4188 41.6611C79.4085 41.7207 79.2829 41.7263 79.2811 41.6615C79.2808 41.6569 79.2811 41.6517 79.2808 41.6468C78.943 40.9349 79.1914 39.7324 80.1213 39.3854Z" fill="#263238"/>
<path d="M38.5883 50.2132C37.8981 51.0769 38.7498 51.8907 38.7498 51.8907C38.7498 51.8907 37.8132 52.2205 37.445 52.9493C37.0229 53.7841 38.4742 54.6796 38.4742 54.6796C38.4742 54.6796 37.6129 55.1704 37.3203 55.9717C37.0169 56.8032 38.3203 57.8739 38.3203 57.8739C38.3203 57.8739 37.8318 58.6835 38.2003 59.5212C38.83 60.9533 41.6581 61.46 43.4516 61.7969C45.2452 62.1337 50.7272 61.7449 51.7813 61.7554L54.582 52.5644C54.582 52.5644 47.076 49.2235 44.8967 49.0673C43.0609 48.9353 39.3632 49.2439 38.5883 50.2132Z" fill="black"/>
<path d="M38.874 51.7585C40.8678 51.5239 42.8399 51.7738 44.8259 51.9337C44.8701 51.9373 44.8625 51.9925 44.8183 51.9887C42.8454 51.8113 40.854 51.9495 38.8765 51.8352C38.8218 51.8321 38.8201 51.7649 38.874 51.7585Z" fill="#263238"/>
<path d="M38.5471 54.5665C39 54.5244 39.4692 54.6018 39.9163 54.6559C40.3977 54.7141 40.8775 54.7794 41.3563 54.8502C42.315 54.9923 43.2695 55.1518 44.2173 55.3336C44.2592 55.3417 44.2543 55.3953 44.2097 55.3886C43.2541 55.2484 42.2961 55.1196 41.3338 55.0118C40.8524 54.9577 40.3701 54.9071 39.8878 54.8589C39.439 54.8142 38.9609 54.7969 38.5326 54.6727C38.4698 54.6543 38.4788 54.573 38.5471 54.5665Z" fill="#263238"/>
<path d="M38.3607 57.8789C38.7526 57.8295 39.2048 57.9486 39.5882 58.0121C40.0232 58.084 40.4588 58.1541 40.8946 58.2222C41.7663 58.3585 42.6383 58.4941 43.5157 58.606C43.5592 58.6115 43.5521 58.6664 43.5081 58.6609C42.616 58.5508 41.7224 58.4507 40.8314 58.3344C40.3939 58.2774 39.9569 58.2183 39.5202 58.1574C39.1489 58.1057 38.6774 58.0746 38.3504 57.9136C38.3322 57.9046 38.3412 57.8812 38.3607 57.8789Z" fill="#263238"/>
<path d="M51.781 61.7553C57.2601 62.0029 70.4865 63.7128 73.6858 62.4526C76.6019 61.3039 81.3342 56.4804 85.1322 51.7968C87.1573 49.2996 86.3429 47.4371 82.8041 48.7411C79.1209 50.0983 71.7729 55.2812 70.9748 55.5563C69.9432 55.9118 56.0777 52.9457 53.6914 52.1757C51.962 51.6176 50.6757 61.7052 51.781 61.7553Z" fill="black"/>
<path d="M52.3172 62.4224L54.5314 52.0978C54.5314 52.0978 69.4441 55.7025 71.0504 55.2521C71.9171 55.009 78.7138 50.5146 82.0345 48.751C85.1448 47.0989 87.6468 48.1854 85.5763 51.7134C82.9387 56.2081 76.0042 62.2737 73.4532 63.2309C71.5017 63.963 52.3172 62.4224 52.3172 62.4224Z" fill="#D5607D"/>
<path opacity="0.2" d="M80.4727 52.0225C80.5601 52.017 80.6268 52.0004 80.6889 51.9673C80.8085 51.901 80.8798 51.7998 80.8775 51.6858C80.8798 51.5146 81.0224 51.3527 81.2156 51.3012C81.4203 51.246 81.5882 51.3012 81.7607 51.3233C81.6733 51.3417 81.5882 51.349 81.5008 51.3638C81.4111 51.3693 81.3444 51.3822 81.28 51.4153C81.1581 51.476 81.0799 51.579 81.0822 51.6876C81.0845 51.8514 80.9534 52.0225 80.7602 52.0795C80.5578 52.1421 80.3853 52.0869 80.2151 52.063C80.3002 52.0446 80.3876 52.0372 80.4727 52.0225ZM70.7138 56.4477C70.8012 56.4422 70.8679 56.4256 70.9277 56.3925C71.0496 56.3262 71.1209 56.225 71.1163 56.111C71.1186 55.9398 71.2612 55.7779 71.4544 55.7264C71.6591 55.6712 71.827 55.7264 71.9995 55.7485C71.9144 55.7669 71.827 55.7742 71.7396 55.789C71.6499 55.7945 71.5832 55.8074 71.5211 55.8386C71.3992 55.9012 71.3187 56.0042 71.321 56.1128C71.3233 56.2766 71.1922 56.4477 70.999 56.5047C70.7966 56.5673 70.6241 56.5121 70.4539 56.4882C70.5413 56.4698 70.6264 56.4624 70.7138 56.4477ZM68.9083 63.1306C68.9106 62.9613 69.0532 62.7994 69.2464 62.746C69.4534 62.6908 69.619 62.746 69.7915 62.7681C69.7064 62.7865 69.619 62.7957 69.5316 62.8086C69.4419 62.8141 69.3752 62.827 69.3131 62.8601C69.1912 62.9208 69.1107 63.0238 69.113 63.1324C69.1153 63.2299 69.0693 63.3293 68.9911 63.4047C68.9106 63.4029 68.8278 63.401 68.7427 63.3992C68.8508 63.333 68.9129 63.2373 68.9083 63.1306ZM62.144 58.595C62.2314 58.5876 62.2981 58.5729 62.3602 58.5379C62.4798 58.4735 62.5511 58.3705 62.5465 58.2564C62.5488 58.0871 62.6914 57.9252 62.8846 57.8718C63.0916 57.8166 63.2572 57.8718 63.4297 57.8958C63.3446 57.9142 63.2572 57.9215 63.1721 57.9344C63.0801 57.9418 63.0157 57.9528 62.9513 57.9859C62.8294 58.0466 62.7489 58.1515 62.7512 58.2601C62.7535 58.4238 62.6224 58.5931 62.4292 58.6502C62.2268 58.7146 62.0543 58.6575 61.8841 58.6336C61.9715 58.6152 62.0566 58.6078 62.144 58.595ZM54.1492 53.8735C54.1492 53.8717 54.1515 53.8717 54.1515 53.8717C54.2044 53.8257 54.2711 53.7907 54.3424 53.7705C54.5471 53.7153 54.715 53.7705 54.8875 53.7926C54.8001 53.811 54.715 53.8202 54.6276 53.833C54.5379 53.8386 54.4712 53.8514 54.4091 53.8846C54.2872 53.9453 54.2067 54.0483 54.209 54.1569C54.2113 54.2802 54.1377 54.4071 54.0181 54.4862L54.1492 53.8735ZM55.1336 62.091C55.221 62.0854 55.2877 62.0689 55.3498 62.0358C55.4694 61.9695 55.5407 61.8683 55.5384 61.7542C55.5407 61.5831 55.681 61.4212 55.8765 61.3697C56.0812 61.3145 56.2491 61.3697 56.4216 61.3918C56.3342 61.4102 56.2491 61.4175 56.1617 61.4322C56.072 61.4378 56.0053 61.4506 55.9409 61.4838C55.819 61.5445 55.7408 61.6475 55.7431 61.7561C55.7454 61.9198 55.6143 62.091 55.4211 62.148C55.2187 62.2106 55.0462 62.1554 54.876 62.1314C54.9611 62.113 55.0485 62.1057 55.1336 62.091ZM75.4978 57.6952C75.5691 57.7412 75.6243 57.7706 75.6979 57.7835C75.8382 57.8093 75.9877 57.7798 76.082 57.7026C76.2246 57.5848 76.4684 57.5388 76.6547 57.6087C76.8548 57.6786 76.9261 57.8166 77.0273 57.9289C76.9491 57.8921 76.8801 57.8498 76.8065 57.8093C76.7398 57.7651 76.68 57.7375 76.6064 57.7283C76.4638 57.7062 76.3212 57.7375 76.2246 57.8203C76.0728 57.9399 75.829 57.973 75.645 57.9013C75.4518 57.824 75.3805 57.6897 75.2793 57.5774C75.3575 57.6124 75.4242 57.6547 75.4978 57.6952ZM57.3577 58.4054C57.429 58.4514 57.4842 58.4809 57.5601 58.4938C57.6981 58.5195 57.8476 58.4901 57.9419 58.4128C58.0845 58.295 58.3283 58.249 58.5146 58.3171C58.7147 58.387 58.786 58.525 58.8872 58.6373C58.809 58.6023 58.74 58.56 58.6687 58.5195C58.5997 58.4754 58.5399 58.4478 58.4663 58.4367C58.3237 58.4165 58.1834 58.4478 58.0845 58.5306C57.9327 58.6483 57.6889 58.6833 57.5049 58.6115C57.3117 58.5342 57.2404 58.3999 57.1392 58.2858C57.2174 58.3226 57.2864 58.365 57.3577 58.4054ZM64.007 61.2979C64.076 61.3458 64.1335 61.3734 64.2071 61.3881C64.3474 61.4138 64.4946 61.3844 64.5889 61.3071C64.7315 61.1894 64.9753 61.1434 65.1616 61.2114C65.3617 61.2814 65.4353 61.4194 65.5342 61.5316C65.456 61.4966 65.3893 61.4525 65.3157 61.4138C65.249 61.3678 65.1869 61.3421 65.1133 61.331C64.9707 61.309 64.8304 61.3421 64.7315 61.4249C64.5797 61.5426 64.3359 61.5776 64.1519 61.504C63.9587 61.4267 63.8897 61.2942 63.7885 61.1802C63.8644 61.217 63.9334 61.2593 64.007 61.2979ZM71.6936 59.8351C71.7534 59.8903 71.804 59.9271 71.873 59.9492C72.0064 59.9934 72.1582 59.9842 72.2663 59.9198C72.4319 59.8222 72.6826 59.8094 72.8528 59.9014C73.0345 59.997 73.0782 60.1424 73.1518 60.2657C73.0828 60.2215 73.0253 60.17 72.9609 60.1203C72.9034 60.067 72.8482 60.0338 72.7792 60.0136C72.6435 59.9731 72.4963 59.986 72.3836 60.0541C72.2088 60.1516 71.9627 60.1534 71.7948 60.0578C71.62 59.9566 71.5786 59.8149 71.5027 59.6898C71.5717 59.7358 71.6292 59.7873 71.6936 59.8351ZM64.6372 55.3437C64.6947 55.3989 64.7453 55.4338 64.8166 55.4578C64.9477 55.5019 65.1018 55.4927 65.2099 55.4283C65.3755 55.3308 65.6239 55.3179 65.7941 55.4099C65.9781 55.5038 66.0195 55.651 66.0954 55.7742C66.0264 55.7282 65.9689 55.6767 65.9045 55.6289C65.847 55.5755 65.7918 55.5406 65.7228 55.5203C65.5848 55.4817 65.4399 55.4946 65.3272 55.5626C65.1524 55.6602 64.904 55.662 64.7384 55.5663C64.5636 55.4651 64.5222 55.3234 64.444 55.1983C64.513 55.2443 64.5728 55.2958 64.6372 55.3437ZM74.5456 62.5344C74.5594 62.5749 74.5686 62.6172 74.5778 62.6577C74.5525 62.6724 74.5295 62.6853 74.5065 62.7C74.518 62.643 74.5341 62.5896 74.5456 62.5344ZM75.4081 53.4135C75.4311 53.4834 75.4403 53.5515 75.4564 53.6214C75.4656 53.695 75.4794 53.7466 75.5208 53.7981C75.5967 53.8956 75.7278 53.9582 75.8635 53.9582C76.0682 53.9545 76.2798 54.0594 76.3511 54.2139C76.4316 54.3758 76.3603 54.5157 76.3304 54.65C76.3074 54.5819 76.2982 54.512 76.2821 54.4439C76.2729 54.374 76.2545 54.3206 76.2108 54.271C76.1303 54.1753 76.0015 54.1182 75.8589 54.1201C75.6473 54.1182 75.4449 54.006 75.3782 53.8496C75.3092 53.6858 75.3782 53.5515 75.4081 53.4135ZM59.821 60.9244C59.844 60.9925 59.8532 61.0624 59.8693 61.1323C59.8785 61.2041 59.8946 61.2574 59.9337 61.3071C60.0096 61.4046 60.1407 61.469 60.2764 61.4672C60.4811 61.4654 60.6927 61.5702 60.764 61.7248C60.8445 61.8867 60.7732 62.0247 60.7456 62.1609C60.7226 62.091 60.7111 62.0229 60.695 61.953C60.6881 61.883 60.6674 61.8297 60.6237 61.7818C60.5432 61.6843 60.4144 61.6273 60.2718 61.631C60.0602 61.6291 59.8578 61.515 59.7911 61.3605C59.7244 61.1967 59.7911 61.0624 59.821 60.9244ZM80.7786 55.7025C80.8016 55.7706 80.8131 55.8405 80.8292 55.9086C80.8361 55.9822 80.8522 56.0337 80.8936 56.0852C80.9695 56.1827 81.0983 56.2471 81.234 56.2453C81.4387 56.2434 81.6526 56.3483 81.7239 56.5029C81.7331 56.525 81.7423 56.547 81.7469 56.5673C81.7147 56.6041 81.6802 56.6409 81.6434 56.6758C81.6319 56.6317 81.6135 56.593 81.5836 56.5581C81.5008 56.4624 81.3743 56.4054 81.2317 56.409C81.0201 56.4072 80.8177 56.2931 80.751 56.1386C80.682 55.973 80.751 55.8405 80.7786 55.7025ZM67.0821 58.2638C67.1051 58.3337 67.1143 58.4018 67.1327 58.4717C67.1396 58.5434 67.1557 58.5968 67.1971 58.6483C67.273 58.7458 67.4018 58.8084 67.5375 58.8066C67.7422 58.8047 67.9561 58.9096 68.0274 59.0642C68.1056 59.2261 68.0366 59.3641 68.0067 59.5002C67.9837 59.4322 67.9745 59.3622 67.9561 59.2942C67.9492 59.2242 67.9285 59.1709 67.8871 59.1212C67.8043 59.0255 67.6778 58.9685 67.5352 58.9703C67.3213 58.9685 67.1189 58.8562 67.0545 58.6998C66.9855 58.5361 67.0545 58.4018 67.0821 58.2638ZM59.3012 54.5801C59.3242 54.65 59.3334 54.7181 59.3518 54.788C59.3587 54.8598 59.3748 54.9131 59.4139 54.9628C59.4898 55.0603 59.6209 55.1247 59.7566 55.1229C59.9613 55.121 60.1752 55.2259 60.2465 55.3805C60.3247 55.5424 60.2534 55.6804 60.2258 55.8166C60.2028 55.7485 60.1913 55.6786 60.1752 55.6086C60.1683 55.5387 60.1476 55.4854 60.1062 55.4375C60.0234 55.3418 59.8969 55.283 59.752 55.2866C59.5404 55.2848 59.338 55.1707 59.2736 55.0162C59.2046 54.8524 59.2736 54.7181 59.3012 54.5801ZM53.2936 57.8608C53.3074 57.8645 53.3212 57.8645 53.335 57.8645C53.5397 57.8608 53.7536 57.9657 53.8249 58.1202C53.9031 58.2822 53.8341 58.422 53.8042 58.5563C53.7812 58.4882 53.772 58.4183 53.7536 58.3502C53.7467 58.2803 53.726 58.227 53.6846 58.1773C53.6018 58.0816 53.4753 58.0246 53.3327 58.0264C53.3074 58.0264 53.2844 58.0246 53.2614 58.0209L53.2936 57.8608ZM84.1619 49.3545C84.2286 49.4005 84.2907 49.4262 84.3643 49.4373C84.5069 49.4594 84.6472 49.4262 84.7461 49.3434C84.8979 49.2257 85.1417 49.1907 85.3257 49.2643C85.5189 49.3416 85.5879 49.4741 85.6914 49.5882C85.6132 49.5514 85.5442 49.509 85.4729 49.4704C85.4016 49.4226 85.3441 49.395 85.2705 49.3821C85.1302 49.3545 84.983 49.3839 84.8887 49.4612C84.7461 49.579 84.5023 49.625 84.316 49.5569C84.1159 49.487 84.0423 49.349 83.9434 49.2367C84.0216 49.2717 84.0906 49.3158 84.1619 49.3545Z" fill="black"/>
<path d="M56.4863 53.1479C56.3945 54.5846 56.1696 56.0216 55.9012 57.4436C55.7691 58.1426 55.6302 58.8396 55.4651 59.534C55.2933 60.2569 55.0667 60.9694 54.8751 61.6886C54.8664 61.7216 54.8036 61.7153 54.8098 61.6813C54.9455 60.9565 55.0327 60.2258 55.1615 59.5001C55.2854 58.8008 55.4228 58.1034 55.5545 57.4049C55.8232 55.9819 56.0835 54.554 56.4239 53.1409C56.432 53.1089 56.4883 53.1159 56.4863 53.1479Z" fill="#263238"/>
<path d="M74.5429 53.2922C74.7945 53.1211 75.0247 52.931 75.2812 52.7632C75.4291 52.6666 75.577 52.57 75.7246 52.473C75.7244 52.4658 75.7299 52.4587 75.7416 52.4578C75.7458 52.4574 75.7485 52.4555 75.7525 52.4548C75.7787 52.4377 75.8049 52.4206 75.8309 52.4035C75.8415 52.3906 75.8516 52.3773 75.8624 52.3656C75.8944 52.3304 75.9284 52.2968 75.9634 52.2634C76.0367 52.1933 76.108 52.1212 76.1858 52.0541C76.3408 51.9199 76.496 51.7863 76.6462 51.6487C76.6495 51.6458 76.6564 51.65 76.6531 51.6533C76.4995 51.8125 76.3597 51.9808 76.2028 52.1378C76.1782 52.1624 76.1527 52.1867 76.128 52.2116C76.612 51.905 77.1134 51.6251 77.621 51.3438C77.6286 51.3396 77.6371 51.3493 77.6304 51.3541C77.1465 51.7063 76.6676 52.0548 76.1515 52.3777C75.8974 52.5367 75.6414 52.6935 75.3861 52.8513C75.1211 53.0153 74.8354 53.1535 74.5675 53.313C74.5496 53.3238 74.5247 53.3045 74.5429 53.2922Z" fill="#263238"/>
<path d="M72.3368 63.3684C72.4681 63.339 73.0286 63.2687 73.1657 63.2212C74.0602 62.9112 75.6957 61.7648 76.0708 61.4822C76.8284 60.9114 77.5548 60.3131 78.2487 59.6928C79.6446 58.4449 80.9043 57.1124 82.1872 55.7911C82.9133 55.0435 83.6217 54.2845 84.3195 53.5198C84.3322 53.5058 84.3609 53.5192 84.3485 53.5342C83.6144 54.419 82.8928 55.3094 82.141 56.1832C82.2574 56.089 82.3735 55.9944 82.491 55.9009C82.7903 55.6627 83.0959 55.4286 83.4184 55.2104C83.432 55.2012 83.4481 55.2155 83.437 55.226C83.0711 55.5742 82.6697 55.8963 82.2679 56.2174C82.1697 56.296 82.0724 56.3751 81.9701 56.45C81.9211 56.4859 81.8721 56.5218 81.8231 56.5576C81.8151 56.5635 81.8063 56.5705 81.798 56.5771C81.4616 56.9604 81.1186 57.34 80.764 57.7135C79.4944 59.0508 78.1176 60.3372 76.5849 61.4868C76.1545 61.8095 75.7313 62.145 75.2444 62.4112C74.453 62.8442 73.7448 63.306 73.2234 63.4061C73.0817 63.4333 72.4791 63.4197 72.3363 63.3923C72.3207 63.389 72.323 63.3715 72.3368 63.3684Z" fill="#263238"/>
<path d="M88.3926 25.6275H32.1304C32.1304 25.6275 32.9621 24.2026 34.1066 23.49C35.2511 22.7775 36.9202 23.49 36.9202 23.49C36.9202 23.49 36.735 22.2189 37.7365 21.5064C38.7379 20.794 39.8768 21.1581 39.8768 21.1581C39.8768 21.1581 39.064 18.0826 41.8077 16.1993C44.903 14.0747 47.6025 15.7743 47.6025 15.7743C47.6025 15.7743 47.335 14.7693 48.2067 14.1214C49.0787 13.4737 50.0346 13.9032 50.0346 13.9032C50.0346 13.9032 50.9941 8.758 56.061 8.02972C61.7508 7.21166 64.1506 12.2838 64.1506 12.2838C64.1506 12.2838 65.9793 10.3627 68.47 11.104C70.6566 11.755 70.6842 14.4861 70.6842 14.4861C70.6842 14.4861 72.0157 13.6921 73.1125 14.2103C74.2094 14.7284 74.1655 15.8464 74.1655 15.8464C74.1655 15.8464 76.192 15.0769 78.4575 16.0884C80.723 17.0998 80.2618 19.3481 80.2618 19.3481C80.2618 19.3481 81.5153 19.1407 82.2902 19.7345C83.0651 20.3281 82.7879 21.1874 82.7879 21.1874C82.7879 21.1874 84.0729 20.8926 85.2188 21.5294C86.3647 22.1661 86.1733 23.9111 86.1733 23.9111C86.1733 23.9111 87.7472 23.9836 88.3926 25.6275Z" fill="#C7C7C7" fill-opacity="0.6"/>
<path d="M55.3251 30.7073C56.5871 30.7073 56.5154 29.5501 55.9346 28.394C55.7469 28.0224 55.6227 27.7079 55.3251 27.2139C55.0291 27.7079 54.9049 28.0222 54.7172 28.394C54.1365 29.5499 54.0649 30.7073 55.3251 30.7073Z" fill="#C7C7C7"/>
<path d="M50.8251 43.669C52.0871 43.669 52.0154 42.5118 51.4346 41.3557C51.2469 40.984 51.1227 40.6696 50.8251 40.1755C50.5291 40.6696 50.4049 40.984 50.2172 41.3557C49.6365 42.5118 49.5649 43.669 50.8251 43.669Z" fill="#DBDBDB"/>
<path d="M42.2646 34.947C43.5266 34.947 43.4548 33.7899 42.8741 32.6338C42.6864 32.2621 42.5622 31.9477 42.2646 31.4536C41.9685 31.9477 41.8443 32.2619 41.6567 32.6338C41.0757 33.7897 41.0042 34.947 42.2646 34.947Z" fill="#DBDBDB"/>
<path d="M35.4735 51.1621C36.7356 51.1621 36.6638 50.0049 36.083 48.8489C35.8954 48.4772 35.7712 48.1627 35.4735 47.6687C35.1775 48.1627 35.0533 48.477 34.8657 48.8489C34.2847 50.0048 34.2131 51.1621 35.4735 51.1621Z" fill="#C7C7C7"/>
<path d="M69.8232 35.7908C71.0852 35.7908 71.0134 34.6336 70.4327 33.4775C70.245 33.1059 70.1208 32.7914 69.8232 32.2974C69.5271 32.7912 69.4029 33.1057 69.2153 33.4775C68.6343 34.6334 68.5628 35.7908 69.8232 35.7908Z" fill="#C7C7C7"/>
<path d="M85.0478 30.0022C86.3098 30.0022 86.238 28.845 85.6573 27.689C85.4696 27.3173 85.3454 27.0028 85.0478 26.5088C84.7518 27.0026 84.6275 27.3171 84.4399 27.689C83.8591 28.845 83.7876 30.0022 85.0478 30.0022Z" fill="#DBDBDB"/>
<path d="M93.9247 45.0501C95.1867 45.0501 95.115 43.8929 94.5342 42.7368C94.3463 42.3651 94.2223 42.0507 93.9247 41.5566C93.6287 42.0505 93.5045 42.365 93.3168 42.7368C92.7358 43.8929 92.6643 45.0501 93.9247 45.0501Z" fill="#DBDBDB"/>
</svg>
