<svg width="101" height="92" viewBox="0 0 101 92" fill="none" xmlns="http://www.w3.org/2000/svg">
<path opacity="0.51" d="M23.0606 21.975C22.9952 22.2928 22.9268 22.6076 22.8471 22.9221C22.1799 25.5547 21.9696 35.1119 12.7104 43.89C3.6252 52.503 2.5247 67.1391 22.1766 74.8605C41.8286 82.5819 71.3392 84.3586 90.4489 62.4171C98.9988 52.6003 104.629 40.7349 98.2658 30.3546C91.6847 19.6193 79.4433 26.7193 70.8978 21.2655C60.3174 14.5127 49.1724 2.301 34.0542 7.4508C25.6789 10.3037 23.3912 20.3689 23.0606 21.975Z" fill="white"/>
<mask id="mask0_886_54015" style="mask-type:luminance" maskUnits="userSpaceOnUse" x="14" y="9" width="77" height="83">
<path d="M90.0875 9.9292H14.7402V91.9998H90.0875V9.9292Z" fill="white"/>
</mask>
<g mask="url(#mask0_886_54015)">
<path d="M47.4279 61.575L46.472 63.2779C44.5869 66.0156 41.2379 74.2001 40.7665 85.7029C40.7665 85.7029 39.0441 121.917 39.2529 124.834H50.7829L55.8111 79.1996L59.2026 124.76L72.4539 124.834C72.4539 124.834 71.273 73.3679 63.7947 63.1859L63.637 61.575H47.4279Z" fill="url(#paint0_linear_886_54015)"/>
<path d="M55.834 79.4591V63.4658" stroke="#0087AF" stroke-width="2" stroke-miterlimit="10" stroke-linecap="round" stroke-linejoin="round"/>
<path d="M58.0746 63.4658L58.0509 74.0775C58.015 74.8295 57.723 75.5465 57.2234 76.1099L55.9336 77.5643" stroke="#0087AF" stroke-width="2" stroke-miterlimit="10" stroke-linecap="round" stroke-linejoin="round"/>
<path d="M49.318 35.3454C49.318 35.3454 42.3117 32.7721 44.9835 25.6296C46.3116 22.0793 50.1287 19.6728 54.0144 21.0605C55.8588 21.7192 57.4659 23.1684 58.0451 26.0683L49.318 35.3454Z" fill="#1E2144"/>
<path d="M50.9828 22.4596C50.595 22.6022 50.2214 22.8074 49.8706 23.0819C46.7352 25.5365 47.9978 31.0511 50.3092 33.7171C51.5886 35.1928 53.5942 36.0223 55.4695 35.5286C58.2124 34.8068 59.3447 31.8985 59.0803 29.1793C58.8833 27.1531 57.9748 25.1661 56.4679 23.8332C54.9631 22.5018 52.8168 21.7844 50.9828 22.4596Z" fill="#F69D9B"/>
<path d="M49.5275 32.0137C48.9772 32.4584 48.0861 32.5701 47.4408 32.2668C46.7957 31.9638 46.3105 31.2766 46.2128 30.5273C46.1252 29.8552 46.3692 29.126 46.8934 28.7743C47.4174 28.4227 48.2826 28.5362 48.6412 29.1008L49.5275 32.0137Z" fill="#F69D9B"/>
<path d="M48.9742 30.196L48.5367 39.6702C48.4287 41.4184 49.701 42.9483 51.4395 43.1611C53.4474 43.4069 55.2046 41.8105 55.152 39.7882L54.9838 30.9315L48.9742 30.196Z" fill="#F69D9B"/>
<path d="M55.0974 36.9128V35.6091C55.0974 35.6091 52.4234 36.1409 50.3096 33.717C50.3096 33.717 51.4027 36.3098 55.0974 36.9128Z" fill="#111010"/>
<path d="M48.0913 28.6665C51.4831 28.838 54.7949 26.8867 56.7948 24.1418C56.7948 24.1418 54.1929 20.7792 50.403 21.8797C46.5184 23.0076 48.0913 28.6665 48.0913 28.6665Z" fill="#1E2144"/>
<path d="M48.2405 30.8728C47.8482 30.8728 47.5303 30.6275 47.5303 30.325C47.5303 30.0982 47.7091 29.9035 47.9641 29.8203" stroke="#DB7272" stroke-width="1.6108" stroke-miterlimit="10" stroke-linecap="round"/>
<path d="M56.4205 30.9602C56.4642 30.84 56.5279 30.7394 56.5987 30.6461C56.6683 30.5515 56.7476 30.4665 56.8332 30.3877L56.8895 30.6602C56.7892 30.615 56.7093 30.5522 56.6429 30.4836C56.5772 30.4139 56.5228 30.3412 56.4786 30.2624C56.3894 30.1077 56.3296 29.9412 56.3115 29.7642C56.44 29.8854 56.5538 30.005 56.6698 30.1119C56.7298 30.1627 56.7838 30.217 56.8442 30.2562C56.9027 30.2967 56.9601 30.3311 57.0137 30.3504L57.2424 30.433L57.07 30.6229C56.9918 30.709 56.9075 30.7889 56.8133 30.8593C56.7204 30.9309 56.6205 30.9953 56.5005 31.04L56.4205 30.9602Z" fill="#DB7272"/>
<path d="M57.099 31.8667C56.9794 32.0755 56.7843 32.2464 56.5442 32.3388C56.4248 32.3872 56.2923 32.4106 56.1591 32.4106C56.0248 32.4117 55.8927 32.3769 55.7687 32.3322C55.5164 32.2339 55.3366 32.0439 55.185 31.8527C55.1202 31.7491 55.0564 31.6453 55.0056 31.5371C54.9633 31.4238 54.9212 31.3123 54.8936 31.1958C54.9861 31.2764 55.0641 31.3616 55.1418 31.4451C55.2213 31.5266 55.3068 31.5997 55.3808 31.6799C55.4708 31.7414 55.5412 31.8258 55.6321 31.8759C55.6761 31.9027 55.7171 31.9331 55.7595 31.9614L55.8949 32.0223C56.0748 32.0987 56.2688 32.1182 56.473 32.0884C56.678 32.0575 56.8855 31.9739 57.099 31.8667Z" fill="#DB7272"/>
<path d="M54.7197 28.2037C54.7854 28.5147 54.8097 28.8308 54.7525 29.1576C54.7227 29.3188 54.6667 29.4902 54.5318 29.6288C54.4973 29.6612 54.4566 29.6893 54.418 29.7182C54.3767 29.7429 54.3293 29.7574 54.2844 29.7758C54.1931 29.797 54.0976 29.8121 54.0069 29.7953C53.8242 29.7742 53.6503 29.6765 53.5357 29.5478C53.4177 29.4209 53.3281 29.2777 53.2645 29.1278C53.1384 28.8271 53.0698 28.5182 53.049 28.1991C53.0462 28.1557 53.0792 28.1182 53.1226 28.1154C53.1625 28.1128 53.1975 28.1404 53.205 28.1787L53.2058 28.1826C53.2634 28.4742 53.3482 28.7692 53.4735 29.0312C53.6004 29.286 53.7865 29.5307 54.0384 29.5495C54.1611 29.5672 54.2834 29.5443 54.3657 29.4614C54.4533 29.3808 54.503 29.2466 54.5392 29.1105C54.6065 28.8328 54.6078 28.5228 54.5878 28.2254L54.5876 28.2218C54.585 28.185 54.613 28.1531 54.6496 28.1507C54.6835 28.1487 54.7129 28.1717 54.7197 28.2037Z" fill="#222B45"/>
<path d="M58.5458 27.9994C58.6006 28.2607 58.6201 28.5244 58.5844 28.7993C58.5666 28.9358 58.525 29.079 58.4273 29.2092C58.3789 29.2729 58.3086 29.332 58.2262 29.3618C58.1861 29.3833 58.1443 29.3857 58.1022 29.3914C58.0597 29.3997 58.0185 29.3982 57.9776 29.3906C57.8118 29.3706 57.6679 29.2677 57.577 29.1537C57.4856 29.0376 57.4197 28.9128 57.3724 28.784C57.2804 28.526 57.2322 28.2662 57.2217 27.998C57.2201 27.9543 57.2539 27.9177 57.2975 27.9161C57.3369 27.9146 57.3706 27.9422 57.378 27.9796L57.3787 27.9832C57.4267 28.227 57.4915 28.4749 57.5861 28.6981C57.6376 28.8072 57.6913 28.9134 57.7623 28.9984C57.8335 29.0832 57.9191 29.1353 58.0102 29.145C58.1033 29.1586 58.1848 29.1349 58.244 29.0613C58.3055 28.9881 58.3441 28.8764 58.3701 28.7604C58.4187 28.526 58.4233 28.2682 58.4139 28.0187L58.4137 28.0154C58.4122 27.9786 58.4411 27.9475 58.4779 27.9462C58.511 27.9451 58.5394 27.9681 58.5458 27.9994Z" fill="#222B45"/>
<path d="M45.7718 26.5321C47.3723 26.5321 48.6697 24.8303 48.6697 22.731C48.6697 20.6317 47.3723 18.9299 45.7718 18.9299C44.1714 18.9299 42.874 20.6317 42.874 22.731C42.874 24.8303 44.1714 26.5321 45.7718 26.5321Z" fill="#1E2144"/>
<path d="M79.5085 25.4118L78.8515 23.9814C78.3745 22.7995 77.8244 21.5504 77.1855 20.2269L76.3172 18.6146C76.3172 18.6146 74.7853 13.3751 74.5131 13.0654C74.241 12.7557 74.5172 14.8182 74.5172 14.8182C74.5172 14.8182 73.8802 12.9165 73.4349 12.4615C73.0805 12.099 73.4693 14.7617 73.4693 14.7617C72.1528 12.0775 72.3025 12.1366 72.1528 12.0775C71.7645 11.924 72.7668 15.1996 72.7668 15.1996C72.7668 15.1996 71.8803 13.1294 71.4729 13.1031C71.0657 13.077 72.3197 17.1886 72.3197 17.1886C72.3197 17.1886 71.4801 16.6409 70.5948 16.8874C70.3694 16.9502 70.2563 17.24 70.276 17.412C71.4663 17.4887 73.2019 19.8158 73.2019 19.8158C73.2019 19.8158 73.3065 20.1336 73.4824 20.672C73.482 20.672 73.4816 20.6721 73.4816 20.6721C73.5738 20.9548 73.6669 21.2392 73.7598 21.5239C74.0509 22.4201 74.4309 23.5959 74.8373 24.8712C76.3923 29.8261 77.8715 35.3811 78.562 42.8916C73.979 42.7129 67.1428 40.9145 61.5948 39.4525C61.5417 42.254 61.5411 45.0564 61.5568 47.8589C61.9798 48.2041 62.3634 48.5667 62.653 48.9719C72.7257 50.5226 83.1144 50.0376 83.9188 48.7042C84.5152 48.1903 87.3302 42.2051 79.5085 25.4118Z" fill="#F99E99"/>
<path d="M41.6822 39.551C36.3699 41.266 30.0484 43.2612 25.6924 43.6718C25.9688 36.1346 27.1401 30.5068 28.4202 25.4737C28.756 24.1778 29.0705 22.9829 29.3119 22.0721C29.3892 21.7828 29.4663 21.4938 29.5428 21.2064H29.5421C29.688 20.6591 29.7748 20.336 29.7748 20.336C29.7748 20.336 31.3799 17.917 32.5641 17.7749C32.5742 17.602 32.4452 17.3188 32.2169 17.2686C31.3193 17.0711 30.5112 17.6644 30.5112 17.6644C30.5112 17.6644 31.5372 13.4898 31.132 13.5383C30.7269 13.5871 29.9555 15.7027 29.9555 15.7027C29.9555 15.7027 30.776 12.3771 30.3968 12.5516C30.2505 12.6189 30.3968 12.5516 29.2298 15.3042C29.2298 15.3042 29.4716 12.6242 29.1376 13.0055C28.7179 13.4842 28.1867 15.4181 28.1867 15.4181C28.1867 15.4181 28.349 13.3437 28.0942 13.6677C27.8395 13.9919 26.5981 19.3077 26.5981 19.3077L25.8198 20.9651C25.2549 22.3218 24.7741 23.5995 24.3628 24.8058L23.7855 26.27C16.8994 43.4683 20.0396 49.2895 20.6632 49.7698C21.5285 51.0407 31.6759 50.9717 41.53 48.9464C41.6347 45.8154 41.7048 42.6838 41.6822 39.551Z" fill="#F99E99"/>
<path d="M41.2747 41.1024C42.79 39.2696 46.2506 37.9998 48.5856 37.6158C50.8205 39.8135 54.3741 38.5568 55.1191 37.551C56.8853 37.903 61.636 38.8933 63.7713 39.407C66.4811 40.0032 65.8049 42.9777 65.1517 45.6743C65.1517 45.6743 67.3139 62.8286 64.6532 64.8314C61.8553 66.9375 61.2189 65.2252 58.8767 65.9704C49.7045 68.8888 44.855 66.3982 44.855 66.3982C40.5893 61.7448 41.1518 44.6772 41.1518 44.6772C40.9432 43.6961 40.492 42.0491 41.2747 41.1024Z" fill="url(#paint1_linear_886_54015)"/>
<path d="M28.9135 42.3944C28.9135 42.3944 27.1635 50.9213 29.0865 52.5979C32.6314 55.6886 47.7642 50.3496 47.7642 50.3496L48.5857 37.6157L28.9135 42.3944Z" fill="url(#paint2_linear_886_54015)"/>
<path d="M55.1191 37.551L75.4348 41.8754C75.4348 41.8754 76.2243 50.3635 74.2242 51.906C70.4574 54.8111 55.3736 49.3119 55.3736 49.3119L55.1191 37.551Z" fill="url(#paint3_linear_886_54015)"/>
<path d="M41.3008 52.3735L41.415 46.8914" stroke="#EA1F7C" stroke-width="2" stroke-miterlimit="10"/>
<path d="M65.7496 52.0887L65.0752 46.3562" stroke="#EA1F7C" stroke-width="2" stroke-miterlimit="10"/>
</g>
<defs>
<linearGradient id="paint0_linear_886_54015" x1="55.8446" y1="61.575" x2="55.8446" y2="124.834" gradientUnits="userSpaceOnUse">
<stop stop-color="#D5607D"/>
<stop offset="1" stop-color="#8F2682"/>
</linearGradient>
<linearGradient id="paint1_linear_886_54015" x1="53.4062" y1="37.551" x2="53.4062" y2="67.3885" gradientUnits="userSpaceOnUse">
<stop stop-color="#8F2682"/>
<stop offset="1" stop-color="#D5607D"/>
</linearGradient>
<linearGradient id="paint2_linear_886_54015" x1="38.3851" y1="37.6157" x2="38.3851" y2="53.5607" gradientUnits="userSpaceOnUse">
<stop stop-color="#8F2682"/>
<stop offset="1" stop-color="#D5607D"/>
</linearGradient>
<linearGradient id="paint3_linear_886_54015" x1="65.3538" y1="37.551" x2="65.3538" y2="52.7531" gradientUnits="userSpaceOnUse">
<stop stop-color="#8F2682"/>
<stop offset="1" stop-color="#D5607D"/>
</linearGradient>
</defs>
</svg>
