<svg width="32" height="32" viewBox="0 0 32 32" fill="none" xmlns="http://www.w3.org/2000/svg">
<g id="ic:round-menu">
<path id="Vector" d="M24.25 12.423V12.3194L24.1768 12.2462L20.7538 8.82322L20.6806 8.75H20.577H9.615C9.09275 8.75 8.64388 8.92789 8.28622 9.28622C7.92789 9.64388 7.75 10.0927 7.75 10.615V23.385C7.75 23.9073 7.92794 24.3565 8.28622 24.7148C8.64395 25.0725 9.09283 25.25 9.615 25.25H22.385C22.9073 25.25 23.3565 25.0721 23.7148 24.7138C24.0725 24.3561 24.25 23.9072 24.25 23.385V12.423ZM9.25 23.385V12.85V10.615C9.25 10.4947 9.28622 10.4133 9.34978 10.3498C9.41334 10.2862 9.49472 10.25 9.615 10.25H20.0464L22.75 12.9536V23.385C22.75 23.5053 22.7138 23.5867 22.6502 23.6502C22.5867 23.7138 22.5053 23.75 22.385 23.75H9.615C9.49472 23.75 9.41334 23.7138 9.34978 23.6502C9.28622 23.5867 9.25 23.5053 9.25 23.385ZM14.4101 21.1286L14.4102 21.1288C14.8477 21.5662 15.3822 21.788 16 21.788C16.6178 21.788 17.1523 21.5662 17.5898 21.1288C18.0278 20.6908 18.25 20.1559 18.25 19.538C18.25 18.9201 18.0278 18.3856 17.5898 17.9482C17.1524 17.5102 16.6179 17.288 16 17.288C15.3821 17.288 14.8475 17.5102 14.4101 17.9484C13.9722 18.3863 13.75 18.9207 13.75 19.538C13.75 20.1553 13.9723 20.6901 14.4101 21.1286ZM10.52 14.77V15.02H10.77H18.192H18.442V14.77V11.77V11.52H18.192H10.77H10.52V11.77V14.77Z" fill="white" stroke="white" stroke-width="0.5"/>
</g>
</svg>
