<svg width="20" height="20" viewBox="0 0 20 20" fill="none" xmlns="http://www.w3.org/2000/svg">
<circle cx="10" cy="10" r="10" fill="#E6E6E6"/>
<path d="M15.0085 8.15828C13.8001 6.92467 12.4114 5.88173 10.8899 5.06511C10.8138 5.02196 10.7278 4.99951 10.6403 5.00001C10.5529 5.00051 10.4671 5.02395 10.3916 5.06798C10.316 5.112 10.2534 5.17509 10.2098 5.25092C10.1663 5.32675 10.1434 5.41267 10.1435 5.50011V6.5128C8.29709 6.6085 6.91991 7.24569 6.04567 8.41008C4.25444 10.7959 5.29762 14.4839 5.34277 14.6397C5.37305 14.7435 5.4362 14.8348 5.52274 14.8998C5.60928 14.9648 5.71455 14.9999 5.82277 15C5.83777 15 5.85327 14.9995 5.86867 14.998C5.98427 14.9874 6.09258 14.9369 6.17502 14.8551C6.25746 14.7734 6.30892 14.6655 6.32056 14.55C6.46606 13.0935 6.96875 12.0075 7.81394 11.322C8.4838 10.8071 9.29895 10.5163 10.1435 10.4913V11.5C10.1434 11.5875 10.1663 11.6734 10.2098 11.7492C10.2534 11.8251 10.316 11.8881 10.3916 11.9322C10.4671 11.9762 10.5529 11.9996 10.6403 12.0001C10.7278 12.0006 10.8138 11.9782 10.8899 11.935C12.4114 11.1184 13.8001 10.0755 15.0085 8.84187C15.0952 8.74917 15.1434 8.62699 15.1434 8.50007C15.1434 8.37315 15.0952 8.25098 15.0085 8.15828ZM11.1435 10.6256V10.0001C11.1435 9.8774 11.0984 9.75903 11.0168 9.66746C10.9351 9.5759 10.8227 9.51753 10.7009 9.50346C9.44512 9.40355 8.19674 9.77117 7.19555 10.5357C6.69977 10.9379 6.29361 11.4393 6.00317 12.0078C5.95842 10.9435 6.25415 9.89265 6.84741 9.00787C7.6001 8.00738 8.87718 7.50009 10.6435 7.50009C10.7761 7.50009 10.9033 7.44741 10.9971 7.35364C11.0908 7.25987 11.1435 7.1327 11.1435 7.00009V6.3746C12.1537 6.97604 13.0932 7.68899 13.9443 8.50007C13.0932 9.31115 12.1537 10.0241 11.1435 10.6256Z" fill="#8F2682"/>
</svg>
