<svg width="16" height="18" viewBox="0 0 16 18" fill="none" xmlns="http://www.w3.org/2000/svg">
<path d="M8.20381 17.9468C8.37263 17.996 8.54955 18.0113 8.72431 17.9917C8.89907 17.9721 9.06821 17.9181 9.22194 17.8327C9.37567 17.7473 9.51092 17.6322 9.61988 17.4942C9.72884 17.3561 9.80934 17.1979 9.85671 17.0285L10.2038 15.7833H12.0918C12.333 15.7833 12.5718 15.7358 12.7946 15.6435C13.0174 15.5512 13.2199 15.416 13.3904 15.2454C13.561 15.0749 13.6963 14.8724 13.7885 14.6496C13.8808 14.4268 13.9283 14.188 13.9283 13.9468V12.0827L14.415 11.9211C14.5805 11.8661 14.7327 11.7772 14.8617 11.6599C14.9907 11.5426 15.0937 11.3996 15.1641 11.2401C15.2346 11.0806 15.2708 10.9081 15.2705 10.7338C15.2702 10.5594 15.2334 10.387 15.1625 10.2278L14.1304 7.91003C13.997 7.61192 13.9281 7.28897 13.9283 6.96237C13.927 5.50906 13.4721 4.09241 12.6269 2.91012C11.7818 1.72782 10.5886 0.838871 9.21392 0.367311C9.14535 0.837468 9.08413 1.31742 9.03026 1.80717C10.0548 2.22209 10.9325 2.93285 11.5514 3.84874C12.1703 4.76463 12.5023 5.84413 12.505 6.94952C12.5042 7.47413 12.6143 7.993 12.8283 8.47202L13.7943 10.6373L13.2047 10.8357C13.0026 10.9022 12.8266 11.0309 12.702 11.2034C12.5773 11.3759 12.5103 11.5834 12.5105 11.7962V13.9578C12.5105 14.0128 12.4997 14.0672 12.4787 14.118C12.4576 14.1688 12.4268 14.215 12.3879 14.2539C12.349 14.2928 12.3028 14.3236 12.252 14.3447C12.2012 14.3657 12.1468 14.3765 12.0918 14.3765H9.14045L8.51419 16.5804L2.19094 14.7751L3.23777 11.102L2.95678 10.8099C2.38771 10.2194 1.95678 9.50999 1.69504 8.73278C1.43331 7.95558 1.3473 7.12998 1.44323 6.31551C1.53915 5.50105 1.81461 4.71802 2.24975 4.02289C2.68488 3.32776 3.26885 2.73784 3.95954 2.29569C4.00362 1.72269 4.05871 1.15948 4.12483 0.606063C3.13704 1.04626 2.26547 1.71069 1.57932 2.54659C0.893184 3.38249 0.411367 4.36684 0.172129 5.42149C-0.0671101 6.47614 -0.0571823 7.57204 0.201124 8.62218C0.459432 9.67232 0.959004 10.6478 1.66018 11.4711L0.809853 14.4537C0.760857 14.6225 0.745776 14.7993 0.765478 14.974C0.785181 15.1487 0.839278 15.3178 0.924648 15.4714C1.01002 15.6251 1.12497 15.7603 1.26288 15.8693C1.40078 15.9783 1.5589 16.059 1.72813 16.1066L8.20381 17.9468ZM9.3186 11.0854C9.51067 10.9698 9.73518 10.9198 9.95817 10.9431C10.1812 10.9664 10.3905 11.0616 10.5546 11.2144C10.7186 11.3673 10.8284 11.5693 10.8674 11.7901C10.9064 12.0109 10.8725 12.2384 10.7707 12.4382C10.6689 12.6379 10.5049 12.7991 10.3033 12.8974C10.1018 12.9957 9.87378 13.0256 9.65371 12.9828C9.43365 12.9399 9.23352 12.8266 9.08359 12.6599C8.93367 12.4932 8.8421 12.2822 8.82273 12.0588C7.98344 11.5462 7.30161 10.8123 6.85211 9.93759C6.32572 10.0347 5.78195 9.94804 5.31179 9.69219C4.84163 9.43634 4.47358 9.0268 4.26924 8.53207C4.06489 8.03734 4.03664 7.48744 4.18921 6.97437C4.34178 6.46131 4.66592 6.0162 5.10739 5.71352C5.10906 3.85687 5.23176 2.0023 5.4747 0.161617C5.80195 0.0896773 6.13403 0.0417989 6.46827 0.018366C6.63234 0.00612233 6.79701 4.82152e-07 6.9623 4.82152e-07C7.29533 -0.000122282 7.62796 0.0231984 7.95772 0.0697895C7.69143 1.89931 7.55458 3.74535 7.54816 5.59414C7.88765 5.78043 8.17546 6.04825 8.38567 6.37347C8.59587 6.6987 8.72186 7.07111 8.75228 7.45716C8.78271 7.8432 8.71661 8.23075 8.55995 8.58489C8.40329 8.93903 8.16098 9.24863 7.85487 9.48579C8.19184 10.1397 8.69712 10.6919 9.3186 11.0854Z" fill="#A3A3A5"/>
</svg>
