<svg width="103" height="90" viewBox="0 0 103 90" fill="none" xmlns="http://www.w3.org/2000/svg">
<path d="M83.2271 3.22282C60.1254 -3.95703 40.8332 5.7129 36.9761 18.6525C35.1158 24.8932 40.0462 29.1796 40.0462 29.1796C46.3559 34.5919 59.9416 34.2883 65.4956 29.2863C67.8264 27.1873 66.4539 23.4715 65.4843 21.5375C63.8597 18.297 68.4593 16.7224 73.582 16.9257C76.1409 17.0273 78.4107 17.9287 80.4393 19.8426C87.5081 26.5119 80.4393 36.8492 68.8263 45.5193C67.5279 46.4886 66.3377 47.4276 65.2633 48.3317C61.8183 51.2309 59.9903 54.8251 59.9903 58.5105V59.8322V60.5251C59.9903 63.5639 63.7203 66.0273 68.3214 66.0273C72.9225 66.0273 77.2312 66.1841 77.2312 63.1454L76.6525 57.4457C76.6525 56.6253 76.9851 55.8196 77.61 55.1105C77.8828 54.801 78.1517 54.4927 78.4197 54.1894C81.954 50.1878 88.0131 45.8528 93.0622 39.8505C98.1113 33.8481 108.978 11.2259 83.2271 3.22282Z" fill="#2D2F4F"/>
<path d="M78.7478 72.7617C78.7478 76.7467 83.5956 83.5303 69.0778 83.3443C63.5016 83.2729 58.9795 80.1138 58.9795 76.1289C58.9795 72.1439 63.5007 68.9134 69.0778 68.9134C74.6549 68.9134 78.7478 68.7767 78.7478 72.7617Z" fill="#2D2F4F"/>
<path d="M86.2451 3.15726C63.1433 -4.0226 44.425 5.713 40.5679 18.6526C38.7076 24.8933 43.638 29.1797 43.638 29.1797C50.7068 33.8482 62.3198 32.8478 67.8739 27.8458C70.2046 25.7468 70.0457 23.4715 69.0762 21.5376C67.4516 18.2971 72.0512 16.7225 77.1739 16.9258C79.7328 17.0274 82.0026 17.9288 84.0311 19.8427C91.0999 26.512 84.0311 36.8493 72.4182 45.5194C71.1198 46.4887 69.9296 47.4277 68.8552 48.3318C65.4101 51.231 63.5822 54.8252 63.5822 58.5106V59.8324V60.5252C63.5822 63.564 67.3121 66.0274 71.9132 66.0274C76.5144 66.0274 80.2443 63.564 80.2443 60.5252V57.4458C80.2443 56.6253 80.5769 55.8197 81.2018 55.1106C81.4746 54.801 81.7435 54.4928 82.0115 54.1894C85.5458 50.1879 91.6049 45.8529 96.654 39.8505C101.703 33.8482 111.996 11.1604 86.2451 3.15726Z" fill="url(#paint0_linear_886_53965)"/>
<path d="M45.9648 17.432C48.5434 8.78143 58.7534 2.96924 71.371 2.96924C76.0676 2.96924 80.9634 3.75068 85.9225 5.29187C92.4637 7.32492 96.573 10.3887 98.485 14.6586C102.289 23.154 96.1589 33.3715 93.7115 36.2811C90.9815 39.5265 87.8408 42.3456 85.07 44.8329" stroke="#D5607D" stroke-width="5" stroke-miterlimit="10"/>
<path d="M72.6696 83.3445C78.2467 83.3445 82.7679 80.114 82.7679 76.129C82.7679 72.144 78.2467 68.9136 72.6696 68.9136C67.0924 68.9136 62.5713 72.144 62.5713 76.129C62.5713 80.114 67.0924 83.3445 72.6696 83.3445Z" fill="url(#paint1_linear_886_53965)"/>
<path opacity="0.2" d="M67.9812 85.996C78.1918 85.996 86.4692 85.0622 86.4692 83.9104C86.4692 82.7585 78.1918 81.8247 67.9812 81.8247C57.7705 81.8247 49.4932 82.7585 49.4932 83.9104C49.4932 85.0622 57.7705 85.996 67.9812 85.996Z" fill="url(#paint2_linear_886_53965)"/>
<path d="M17.3466 37.2083C17.3466 37.2083 18.7725 37.9961 19.5218 39.4787C20.2711 40.9613 19.5316 46.0336 20.1319 46.2396C20.7322 46.4455 31.3374 48.3743 31.3374 48.3743C31.3374 48.3743 29.9542 48.7861 29.6083 49.7333C29.2625 50.6805 29.666 51.2159 29.666 51.2159C29.666 51.2159 21.8209 51.0224 20.095 50.4842C18.369 49.946 15.8906 47.3946 15.8906 47.3946L17.3466 37.2083Z" fill="url(#paint3_linear_886_53965)"/>
<path d="M16.993 85.6391V86.5581C16.993 86.5581 16.4489 87.4325 15.509 87.2427C14.5692 87.0529 13.3096 86.4544 13.3096 86.4544V85.1443L16.993 85.6391Z" fill="url(#paint4_linear_886_53965)"/>
<path d="M6.80377 85.1443L7.05113 86.7348C7.05113 86.7348 6.30911 86.9822 5.51768 86.9822C4.72625 86.9822 3.86612 86.5927 3.44009 86.207C3.01407 85.8213 2.92773 85.1443 2.92773 85.1443H6.80377Z" fill="url(#paint5_linear_886_53965)"/>
<path d="M19.6229 54.0125C19.6229 54.0125 20.635 69.5252 19.7995 71.0992C18.9639 72.6731 17.2928 79.8286 17.3688 82.1081C17.4448 84.3877 17.3663 85.3103 17.3663 85.3103C17.3663 85.3103 17.876 86.2873 15.9133 86.3416C13.9507 86.3959 13.0391 85.4189 13.0391 85.4189C13.0391 85.4189 12.3555 76.9608 13.0391 73.2702C13.7228 69.5795 14.1026 68.4941 14.1026 68.4941C14.1026 68.4941 13.1151 59.6018 11.8997 59.6561C10.6844 59.7104 9.69692 69.9052 9.69692 69.9052C9.69692 69.9052 7.79794 77.6034 7.3422 80.5885C6.88646 83.5736 7.3422 85.4189 7.3422 85.4189C7.3422 85.4189 7.26623 86.016 5.44322 85.9074C3.62021 85.7989 2.25293 84.7134 2.25293 84.7134C2.25293 84.7134 2.93657 69.6881 3.54424 68.277C4.15191 66.8658 4.15191 66.8658 4.15191 66.8658C4.15191 66.8658 3.16447 62.9668 3.16447 59.9275C3.16447 56.8881 3.8297 53.886 3.8297 53.886L19.6229 54.0125Z" fill="#2D2F4F"/>
<path d="M17.1086 86.085C17.1086 86.085 19.8203 87.0474 21.7198 87.2225C23.6193 87.3976 23.8031 89.2802 23.8031 89.2802C23.8031 89.2802 13.2028 89.1051 13.1416 88.7548C13.0803 88.4046 12.8965 86.3438 12.8965 86.3438C12.8965 86.3438 16.3577 87.3992 17.1086 86.085Z" fill="#2D2F4F"/>
<path d="M7.23061 86.3715C7.23061 86.3715 8.38077 88.3099 7.99737 88.5206C7.61396 88.7314 1.7587 88.6918 1.61931 88.5206C1.47992 88.3495 3.01343 85.8213 3.01343 85.8213C3.01343 85.8213 3.66084 86.3885 5.48796 86.4533C7.31508 86.5182 6.94351 85.8551 7.23061 86.3715Z" fill="#2D2F4F"/>
<path d="M16.0097 36.8418C15.2733 36.8359 13.7321 36.4796 11.8365 36.6035C8.74863 36.8053 6.41994 36.6765 3.79371 37.3363C1.47029 37.9199 1.27088 39.4108 1.09151 39.792C0.338827 41.3912 -0.678981 48.0079 0.663969 49.1047C2.98516 51.0006 3.7542 49.2695 3.7542 49.2695L3.3882 53.9776C3.3882 53.9776 5.55998 55.8904 12.121 55.5133C18.6975 55.1353 20.0923 53.8391 20.0923 53.8391L18.3989 47.7273C18.3989 47.7273 20.8677 36.8806 16.0097 36.8418Z" fill="url(#paint6_linear_886_53965)"/>
<path d="M5.2432 47.1941C5.2432 47.1941 3.60459 47.3793 2.70559 47.8382C1.8066 48.297 2.59124 50.3903 3.0652 50.5911C3.53917 50.792 4.19538 49.6918 4.58066 49.3982C4.96594 49.1046 5.9334 49.1918 5.9334 49.1918C5.9334 49.1918 4.95539 48.0733 5.2432 47.1941Z" fill="url(#paint7_linear_886_53965)"/>
<path d="M14.2128 29.9336C14.2128 29.9336 14.8729 31.8226 14.861 32.4987C14.8491 33.1748 14.2883 35.1736 13.7707 35.4657C13.2531 35.7579 12.4621 35.7165 12.4621 35.7165L12.7534 36.9074C12.7534 36.9074 12.9724 37.7433 10.9187 38.0777C8.86513 38.4122 7.40307 36.8403 7.40307 36.8403C7.40307 36.8403 7.76514 35.6266 7.41157 34.4644C7.058 33.3022 6.68808 30.3637 8.34034 29.7038C9.99267 29.044 14.2128 29.9336 14.2128 29.9336Z" fill="url(#paint8_linear_886_53965)"/>
<path d="M12.7563 30.6644C10.7044 31.0799 9.56182 30.7669 9.56182 30.7669C9.56182 30.7669 10.2472 31.3494 9.73421 31.7884C9.2212 32.2274 9.81944 33.726 9.51551 33.7668C9.21159 33.8075 8.97759 32.4212 8.06676 32.549C7.15587 32.6768 7.5238 33.0153 7.75029 33.5386C7.97673 34.062 8.27251 34.382 7.58641 34.6138C6.90031 34.8457 4.99839 33.603 4.65408 32.1768C4.30977 30.7506 5.48309 30.1313 5.48309 30.1313C5.48309 30.1313 4.49447 28.3658 8.16254 28.0004C11.8307 27.635 13.3207 28.0742 14.2217 27.4784C15.1226 26.8825 16.9973 29.8055 12.7563 30.6644Z" fill="#2D2F4F"/>
<path d="M12.517 35.6896C12.517 35.6896 11.2126 35.8079 10.5368 35.3788C9.86102 34.9497 9.6582 34.8359 9.6582 34.8359C9.6582 34.8359 10.0165 35.4049 10.769 35.9774C11.5214 36.5499 11.3255 37.9982 11.3255 37.9982C11.3255 37.9982 12.8701 37.7819 12.753 37.088C12.636 36.3942 12.517 35.6896 12.517 35.6896Z" fill="#EAA2A2"/>
<path d="M11.5809 32.4118C11.5971 32.5076 11.5015 32.5946 11.3675 32.6061C11.2335 32.6177 11.1117 32.5494 11.0955 32.4536C11.0794 32.3579 11.1749 32.2708 11.309 32.2593C11.443 32.2478 11.5647 32.3161 11.5809 32.4118Z" fill="#2D2F4F"/>
<path d="M14.4041 31.956C14.4203 32.0518 14.3248 32.1388 14.1907 32.1503C14.0566 32.1619 13.9349 32.0936 13.9188 31.9978C13.9026 31.9021 13.9981 31.815 14.1322 31.8035C14.2662 31.792 14.3879 31.8603 14.4041 31.956Z" fill="#2D2F4F"/>
<path d="M12.4766 34.4825C12.4766 34.4825 12.9699 34.2071 13.3608 34.1982C13.7517 34.1892 13.9425 34.3106 13.9425 34.3106C13.9425 34.3106 13.7588 33.9876 13.2638 33.9917C12.7687 33.9958 12.4766 34.4825 12.4766 34.4825Z" fill="white"/>
<path d="M13.5729 33.4938C13.5642 33.4945 13.5553 33.4952 13.5461 33.4958C13.0813 33.5261 12.9217 33.5495 12.9217 33.5495L12.8955 33.465C12.9023 33.464 13.0616 33.4406 13.5349 33.4095C13.6447 33.4023 13.7825 33.3783 13.8158 33.3058C13.8528 33.2248 13.7529 33.0944 13.5613 32.9733C13.19 32.7387 13.0807 32.27 13.0761 32.2502L13.196 32.2363C13.197 32.2409 13.3032 32.6945 13.6416 32.9084C13.8765 33.0568 13.9849 33.2155 13.9312 33.3328C13.9025 33.3953 13.8168 33.4727 13.5729 33.4938Z" fill="#DD9292"/>
<path d="M12.0889 32.5083C12.157 32.9611 11.6986 33.3677 11.0648 33.4164C10.431 33.4651 9.862 33.1375 9.79383 32.6847C9.72566 32.2318 10.1841 31.8252 10.8179 31.7765C11.4517 31.7278 12.0207 32.0555 12.0889 32.5083Z" stroke="#2D2F4F" stroke-width="3" stroke-miterlimit="10"/>
<path d="M15.3584 31.8942C15.4266 32.3471 14.9681 32.7537 14.3343 32.8023C13.7006 32.851 13.1315 32.5234 13.0634 32.0706C12.9952 31.6178 13.4537 31.2112 14.0874 31.1625C14.7212 31.1138 15.2902 31.4414 15.3584 31.8942Z" stroke="#2D2F4F" stroke-width="3" stroke-miterlimit="10"/>
<path d="M11.9492 32.1956C11.9492 32.1956 12.3726 31.6277 13.065 31.8805" stroke="#2D2F4F" stroke-width="3" stroke-miterlimit="10"/>
<path d="M10.5897 36.8333C10.5897 36.8333 10.4669 36.3197 10.5897 35.7933C10.7125 35.2669 10.5897 34.8721 10.5897 34.8721C10.5897 34.8721 11.1832 34.9306 11.2241 35.6178C11.2651 36.3051 12.6215 36.1852 13.051 36.0138C13.4806 35.8423 14.1773 34.4229 14.1773 34.4229C14.1773 34.4229 14.9801 35.9647 14.5865 36.871C14.1929 37.7773 13.4806 39.067 13.4806 39.067C13.4806 39.067 12.4006 38.5012 10.6645 38.2016C10.475 38.1689 10.8134 36.8536 10.5897 36.8333Z" fill="url(#paint9_linear_886_53965)"/>
<path d="M2.70728 37.7424C2.70728 37.7424 4.63105 38.2793 4.58914 40.3884C4.54729 42.4974 3.89355 46.1804 3.89355 46.1804L0.831859 49.1597C0.831859 49.1597 -0.127742 48.982 0.0119402 46.5269C0.151622 44.0719 0.0743059 39.0628 2.70728 37.7424Z" fill="url(#paint10_linear_886_53965)"/>
<path d="M0.322042 48.3406C0.322042 48.3406 8.74047 39.8182 9.48395 38.8887C10.2274 37.9592 10.6825 37.7995 12.1386 38.1143C13.5947 38.4292 13.8891 39.4477 13.8891 39.4477C13.8891 39.4477 5.90597 49.8791 3.68402 50.3479C0.00938553 51.1231 0.322042 48.3406 0.322042 48.3406Z" fill="url(#paint11_linear_886_53965)"/>
<path d="M30.663 48.6641C30.663 48.6641 31.6565 48.8357 34.0616 49.1596C36.4667 49.4834 37.4406 50.4658 37.4406 51.039C37.4406 51.6121 36.6385 52.3899 34.9197 51.7349C33.2009 51.0799 29.5366 50.9433 29.5366 50.9433C29.5366 50.9433 28.6406 49.4413 30.663 48.6641Z" fill="url(#paint12_linear_886_53965)"/>
<path d="M54.3928 7.424C41.4151 4.47368 27.5487 9.59602 23.4213 18.8651C19.2939 28.1342 26.4684 38.04 39.4461 40.9903C52.4238 43.9406 66.2902 38.8182 70.4176 29.5492C74.5449 20.2801 67.3705 10.3743 54.3928 7.424ZM40.3766 38.9008C29.0145 36.3178 22.7332 27.6452 26.3467 19.5302C29.9603 11.415 42.1005 6.93038 53.4625 9.51343C64.8245 12.0965 71.1059 20.769 67.4923 28.8841C63.8787 36.9992 51.7386 41.4839 40.3766 38.9008Z" fill="url(#paint13_linear_886_53965)"/>
<path d="M43.0831 43.8732L34.1472 41.8417C33.3349 41.6571 32.8859 41.0368 33.1443 40.4564L33.3469 40.0015C33.5952 39.4441 34.4288 39.136 35.2089 39.3133L44.2613 41.3713C45.0415 41.5487 45.4727 42.1443 45.2245 42.7017L45.0219 43.1567C44.7634 43.7371 43.8954 44.0579 43.0831 43.8732Z" fill="url(#paint14_linear_886_53965)"/>
<path d="M35.0319 57.7598L29.4883 56.4995L35.8435 42.2273L41.3872 43.4876L35.0319 57.7598Z" fill="url(#paint15_linear_886_53965)"/>
<path d="M23.826 82.4849L18.6396 81.3059C17.4091 81.0261 16.7289 80.0866 17.1204 79.2074L27.2096 56.5498C27.6011 55.6706 28.916 55.1846 30.1466 55.4643L35.3329 56.6434C36.5635 56.9231 37.2436 57.8627 36.8521 58.7419L26.7629 81.3995C26.3714 82.2787 25.0565 82.7647 23.826 82.4849Z" fill="url(#paint16_linear_886_53965)"/>
<path opacity="0.61" d="M67.5009 28.8768C71.1098 20.7602 64.823 12.0892 53.4589 9.50948C42.0948 6.92979 29.9568 11.4183 26.3479 19.5349C22.7391 27.6514 29.0259 36.3225 40.39 38.9021C51.754 41.4818 63.892 36.9933 67.5009 28.8768Z" fill="white"/>
<defs>
<linearGradient id="paint0_linear_886_53965" x1="44.9135" y1="22.0263" x2="99.9755" y2="62.892" gradientUnits="userSpaceOnUse">
<stop stop-color="#9B3081"/>
<stop offset="1" stop-color="#C9567E"/>
</linearGradient>
<linearGradient id="paint1_linear_886_53965" x1="19.6647" y1="56.0448" x2="74.7267" y2="96.9106" gradientUnits="userSpaceOnUse">
<stop stop-color="#D5607D"/>
<stop offset="1" stop-color="#8F2682"/>
</linearGradient>
<linearGradient id="paint2_linear_886_53965" x1="86.4691" y1="83.9104" x2="49.4931" y2="83.9104" gradientUnits="userSpaceOnUse">
<stop stop-color="#8F2682"/>
<stop offset="0.9906" stop-color="#C7547E"/>
</linearGradient>
<linearGradient id="paint3_linear_886_53965" x1="31.3375" y1="44.2121" x2="15.8907" y2="44.2121" gradientUnits="userSpaceOnUse">
<stop stop-color="#FFAC06"/>
<stop offset="1" stop-color="#F87919"/>
</linearGradient>
<linearGradient id="paint4_linear_886_53965" x1="16.993" y1="86.207" x2="13.3096" y2="86.207" gradientUnits="userSpaceOnUse">
<stop stop-color="#FFD9D9"/>
<stop offset="1" stop-color="#EFB4B4"/>
</linearGradient>
<linearGradient id="paint5_linear_886_53965" x1="7.05111" y1="86.0633" x2="2.92776" y2="86.0633" gradientUnits="userSpaceOnUse">
<stop stop-color="#FFD9D9"/>
<stop offset="1" stop-color="#EFB4B4"/>
</linearGradient>
<linearGradient id="paint6_linear_886_53965" x1="20.0923" y1="46.0699" x2="0.00878308" y2="46.0699" gradientUnits="userSpaceOnUse">
<stop stop-color="#FFAC06"/>
<stop offset="1" stop-color="#F87919"/>
</linearGradient>
<linearGradient id="paint7_linear_886_53965" x1="4.57243" y1="46.9988" x2="4.34466" y2="48.799" gradientUnits="userSpaceOnUse">
<stop stop-color="#FFD9D9"/>
<stop offset="1" stop-color="#EFB4B4"/>
</linearGradient>
<linearGradient id="paint8_linear_886_53965" x1="14.8612" y1="33.7923" x2="7.10844" y2="33.7923" gradientUnits="userSpaceOnUse">
<stop stop-color="#FFD9D9"/>
<stop offset="1" stop-color="#EFB4B4"/>
</linearGradient>
<linearGradient id="paint9_linear_886_53965" x1="10.5352" y1="36.745" x2="14.6951" y2="36.745" gradientUnits="userSpaceOnUse">
<stop stop-color="#FFD9D9"/>
<stop offset="1" stop-color="#EFB4B4"/>
</linearGradient>
<linearGradient id="paint10_linear_886_53965" x1="4.58983" y1="43.451" x2="-0.00195778" y2="43.451" gradientUnits="userSpaceOnUse">
<stop stop-color="#FFAC06"/>
<stop offset="1" stop-color="#F87919"/>
</linearGradient>
<linearGradient id="paint11_linear_886_53965" x1="13.889" y1="44.2257" x2="0.315424" y2="44.2257" gradientUnits="userSpaceOnUse">
<stop stop-color="#FFAC06"/>
<stop offset="1" stop-color="#F87919"/>
</linearGradient>
<linearGradient id="paint12_linear_886_53965" x1="37.4407" y1="50.3242" x2="29.3389" y2="50.3242" gradientUnits="userSpaceOnUse">
<stop stop-color="#FFD9D9"/>
<stop offset="1" stop-color="#EFB4B4"/>
</linearGradient>
<linearGradient id="paint13_linear_886_53965" x1="70.9147" y1="28.2705" x2="25.2523" y2="13.1248" gradientUnits="userSpaceOnUse">
<stop stop-color="#8F2682"/>
<stop offset="1" stop-color="#D7D7DA"/>
</linearGradient>
<linearGradient id="paint14_linear_886_53965" x1="45.2534" y1="42.6276" x2="33.6916" y2="38.7926" gradientUnits="userSpaceOnUse">
<stop stop-color="#CF5B7D"/>
<stop offset="1" stop-color="#D7D7DA"/>
</linearGradient>
<linearGradient id="paint15_linear_886_53965" x1="39.0276" y1="50.6014" x2="32.1962" y2="48.3355" gradientUnits="userSpaceOnUse">
<stop stop-color="#E8E8E8"/>
<stop offset="1" stop-color="#D7D7DA"/>
</linearGradient>
<linearGradient id="paint16_linear_886_53965" x1="20.4015" y1="67.0903" x2="32.2746" y2="73.7454" gradientUnits="userSpaceOnUse">
<stop stop-color="#D5607D"/>
<stop offset="1" stop-color="#8F2682"/>
</linearGradient>
</defs>
</svg>
