<svg width="111" height="58" viewBox="0 0 111 58" fill="none" xmlns="http://www.w3.org/2000/svg">
<path d="M110.958 45.9682L84.6507 35.476C84.6407 35.472 84.6299 35.4698 84.6188 35.4694C84.5293 35.4668 75.585 35.2041 68.5566 35.2041C64.4245 35.2041 61.7512 35.2938 60.6109 35.4705C58.3184 35.826 50.1093 36.3255 42.8665 36.7662C37.9695 37.0641 33.7404 37.3215 32.2012 37.4821C28.433 37.8753 0.347804 41.6148 0.0645142 41.6526C0.0330419 41.6568 0.00810386 41.6758 0.00160835 41.7005C-0.0048485 41.7252 0.0084906 41.7505 0.0352459 41.7642L31.6611 57.9903C31.6738 57.9967 31.6884 58.0001 31.7032 58.0001C31.7076 58.0001 31.712 57.9998 31.7163 57.9992C32.1888 57.9349 79.0297 51.561 84.6295 50.7666C90.2311 49.9717 110.734 46.1212 110.941 46.0823C110.972 46.0764 110.996 46.0555 110.999 46.03C111.003 46.0045 110.987 45.9798 110.958 45.9682Z" fill="#D5607D" fill-opacity="0.6"/>
<path d="M54.1142 0.980797C53.4608 0.387407 52.7086 0.0304875 52.0504 0.00159018C52.0262 0.000519906 52.0022 0 51.9778 0C50.337 0 48.4401 2.38561 48.4226 2.4097C48.255 2.6403 47.992 2.75133 47.7136 2.86888C47.5238 2.94906 47.3274 3.03193 47.1523 3.1566C46.7703 3.42851 46.2312 3.71149 46.1459 3.75583C42.3782 4.42022 40.9592 7.46869 40.4926 8.47129L40.4573 8.54692C40.1477 9.20807 40.3695 9.55536 40.737 10.1307C40.8956 10.3791 41.0754 10.6605 41.2623 11.0351C41.8978 12.3083 44.2356 13.778 44.3348 13.84C44.3485 13.8485 44.3653 13.8531 44.3827 13.8531C44.3837 13.8531 44.3848 13.8531 44.3859 13.8531C44.4416 13.8512 44.5453 13.8479 46.0365 12.6804C46.9116 11.9953 48.0444 11.0805 49.2263 10.1045C51.318 8.37705 53.8183 6.24241 53.9811 5.91139C54.0529 5.76534 54.157 5.58621 54.2775 5.37879C54.648 4.74103 55.1555 3.86756 55.2411 3.04792C55.3016 2.46887 54.8592 1.65745 54.1142 0.980797Z" fill="#1F2223"/>
<path d="M57.5785 8.6084C56.737 7.24399 54.4571 5.16681 54.4341 5.14598C54.4199 5.13305 54.3995 5.12543 54.3778 5.12501C54.3551 5.12479 54.3352 5.13136 54.3201 5.14372C54.2982 5.1617 52.1036 6.95046 49.8598 7.6406C48.6347 8.0174 47.4761 8.76567 46.8945 9.17816C46.0308 9.79072 45.347 10.4329 45.1523 10.8142C45.0882 10.9398 45.077 11.035 45.118 11.1053L45.1445 11.1506C45.3429 11.4897 45.9467 12.5215 45.7544 12.7793C45.7319 12.8094 45.6993 12.8241 45.6484 12.827C45.6042 12.8295 45.5585 12.8318 45.5119 12.8341C44.9329 12.8634 44.14 12.9036 44.0114 13.446C43.8904 13.9563 43.8182 14.5805 44.3383 14.8796L44.7275 15.1035C44.5366 15.2401 43.9761 15.6301 43.367 15.9513C42.5941 16.3589 42.2111 17.0868 42.1952 17.1176C42.1861 17.1351 42.1879 17.1551 42.2 17.1715C42.2801 17.2803 44.1748 19.8398 45.3307 20.1784C45.6764 20.2797 46.0374 20.331 46.4035 20.331C46.4034 20.331 46.4035 20.331 46.4035 20.331C47.0278 20.331 47.4466 20.183 47.4641 20.1767C47.4756 20.1726 47.4855 20.1664 47.4932 20.1585L48.0819 19.5599C48.176 19.4921 49.6175 18.459 50.2946 18.27C50.5919 18.187 51.1283 18.1432 51.7495 18.0925C52.6136 18.0221 53.689 17.9343 54.6939 17.7017C56.5373 17.275 58.6044 15.5704 58.7294 13.5607C58.85 11.6217 58.495 10.0944 57.5785 8.6084Z" fill="#DDA76C"/>
<path d="M47.7766 13.5381C47.425 13.5381 47.0584 13.3833 46.6559 13.065C46.3373 12.813 46.4183 12.1401 46.4219 12.1115C46.4237 12.0978 46.4313 12.0849 46.4435 12.075C46.5296 12.005 48.5692 10.3625 50.0293 10.3625C50.4161 10.3625 50.7301 10.4782 50.9624 10.7063C51.2292 10.9682 51.2977 11.258 51.1663 11.5677C50.738 12.577 48.3494 13.4472 47.9995 13.5164C47.9267 13.5308 47.8517 13.5381 47.7766 13.5381ZM46.5734 12.145C46.553 12.3391 46.552 12.8098 46.7653 12.9785C47.1373 13.2727 47.4681 13.4158 47.7765 13.4158C47.7766 13.4158 47.7766 13.4158 47.7766 13.4158C47.8391 13.4158 47.9014 13.4097 47.962 13.3978C48.3795 13.3152 50.6306 12.4456 51.0197 11.5288C51.1349 11.2575 51.0767 11.0135 50.8419 10.783C50.6376 10.5824 50.3717 10.4849 50.0293 10.4849C48.7062 10.4848 46.7856 11.9768 46.5734 12.145Z" fill="#1E1F26"/>
<path d="M54.3028 10.6073H54.3027C53.3867 10.6072 53.0662 10.2795 52.6532 9.49558C52.4604 9.12958 53.002 8.64765 54.2627 8.0631C55.1773 7.63906 56.1566 7.30942 56.1663 7.30611C56.1781 7.30217 56.191 7.30061 56.2035 7.30152C57.1756 7.37143 57.8103 8.98876 57.8369 9.0576C57.8462 9.08182 57.8357 9.10811 57.8104 9.12368C57.7145 9.18276 55.4508 10.5708 54.4477 10.6047C54.3978 10.6064 54.349 10.6073 54.3028 10.6073ZM56.2083 7.42491C55.1322 7.78752 52.4748 8.83892 52.796 9.44852C53.199 10.2133 53.4872 10.4849 54.3027 10.4849H54.3028C54.3469 10.4849 54.3934 10.4841 54.4412 10.4825C55.3229 10.4527 57.3523 9.24676 57.6726 9.05316C57.5696 8.80593 56.9899 7.50112 56.2083 7.42491Z" fill="#1E1F26"/>
<path d="M50.8175 10.6075C50.8027 10.6075 50.7877 10.6041 50.7744 10.5971C50.739 10.5783 50.7296 10.5402 50.7534 10.5122C51.0141 10.2054 52.6153 9.45165 52.6833 9.4197C52.7201 9.40248 52.7675 9.41202 52.7893 9.44107C52.8111 9.47012 52.799 9.50764 52.7623 9.52489C52.3072 9.73855 51.0821 10.3447 50.8817 10.5805C50.8668 10.598 50.8424 10.6075 50.8175 10.6075Z" fill="#1E1F26"/>
<path d="M46.4887 12.7889C46.4819 12.7889 46.4751 12.7882 46.4683 12.7867L45.8441 12.6522C45.8029 12.6433 45.7786 12.6097 45.7898 12.5771C45.8011 12.5445 45.8437 12.5253 45.8848 12.5341L46.509 12.6687C46.5502 12.6776 46.5744 12.7112 46.5632 12.7438C46.5538 12.771 46.5227 12.7889 46.4887 12.7889Z" fill="#1E1F26"/>
<path d="M53.9093 12.0113C53.8757 12.0113 53.8447 11.9937 53.835 11.9669C53.8233 11.9344 53.8471 11.9005 53.8882 11.8913C54.4187 11.7715 54.4248 11.2188 54.4248 11.2133C54.4248 11.1795 54.4595 11.1521 54.5022 11.1521C54.5448 11.1521 54.5795 11.1795 54.5795 11.2133C54.5795 11.2398 54.5721 11.8641 53.9306 12.0089C53.9235 12.0105 53.9163 12.0113 53.9093 12.0113Z" fill="#7C5B42"/>
<path d="M53.3329 14.5592C53.2077 14.5592 53.1167 14.5308 53.062 14.4746C52.97 14.38 53.0261 14.2534 53.0328 14.2393C53.0478 14.2077 53.0924 14.1916 53.1324 14.2035C53.1722 14.2153 53.1925 14.2504 53.1778 14.282C53.1768 14.2842 53.1446 14.3593 53.1849 14.4003C53.2146 14.4305 53.2889 14.4427 53.3939 14.4343C53.6195 14.4165 54.0656 13.8678 54.3913 13.4672C54.6229 13.1824 54.8229 12.9364 54.9596 12.8418C55.2974 12.608 56.1269 12.1904 56.5771 12.1904C56.8208 12.1904 57.1205 12.0421 57.1601 11.902C57.1943 11.7812 57.0282 11.6913 56.8829 11.6372C56.8443 11.6228 56.8277 11.5864 56.8459 11.5559C56.8641 11.5253 56.9102 11.5122 56.9488 11.5266C57.3234 11.6661 57.3366 11.8384 57.311 11.9287C57.2499 12.1449 56.8663 12.3127 56.5771 12.3127C56.1998 12.3127 55.4274 12.6806 55.0614 12.9339C54.9411 13.0171 54.7372 13.2679 54.5214 13.5334C54.0458 14.1183 53.6877 14.534 53.4093 14.556C53.3826 14.5581 53.3571 14.5592 53.3329 14.5592Z" fill="#7C5B42"/>
<path d="M52.0456 14.8907C52.0316 14.8907 52.0174 14.8877 52.0047 14.8814C51.6108 14.6868 51.9614 14.1229 51.9765 14.099C51.9956 14.0688 52.042 14.0566 52.0802 14.0716C52.1184 14.0867 52.1339 14.1234 52.1148 14.1537C52.1117 14.1585 51.8158 14.6438 52.0866 14.7777C52.1229 14.7956 52.1339 14.8333 52.1112 14.862C52.0965 14.8806 52.0714 14.8907 52.0456 14.8907Z" fill="#7C5B42"/>
<path d="M47.8435 12.7566C47.5967 12.7566 47.4737 12.6891 47.4141 12.6324C47.3502 12.5717 47.3544 12.4791 47.4267 12.3571C47.676 11.9364 48.7877 11.1318 49.7835 11.1318C49.8779 11.1318 49.9702 11.1391 50.0579 11.1536C50.069 11.1554 50.0795 11.1591 50.0885 11.1645C50.0963 11.1692 50.2797 11.2804 50.2686 11.4856C50.2553 11.7332 49.9685 11.9971 49.4163 12.2699C48.602 12.6722 48.1115 12.7566 47.8435 12.7566ZM49.7835 11.2542C48.8829 11.2542 47.8071 12.0033 47.5668 12.409C47.5137 12.4985 47.5205 12.5423 47.533 12.5541C47.5645 12.584 47.6467 12.6343 47.8435 12.6343C48.0913 12.6343 48.5512 12.5531 49.3344 12.1662C49.9626 11.8558 50.1051 11.6232 50.114 11.4826C50.1214 11.3663 50.039 11.2938 50.0072 11.2703C49.9356 11.2596 49.8605 11.2542 49.7835 11.2542Z" fill="#382312"/>
<path d="M50.1468 11.209C50.0854 11.1512 49.9653 11.1167 49.8255 11.1167C49.6684 11.1167 49.5088 11.1591 49.3759 11.2362C49.1286 11.3795 49.1723 11.5662 49.2317 11.6479C49.2527 11.6837 49.425 11.9598 49.7353 11.9599C49.8342 11.9599 49.9349 11.9312 50.0346 11.8748C50.1824 11.7911 50.2669 11.688 50.2859 11.5683C50.3093 11.4216 50.2256 11.2831 50.1468 11.209Z" fill="#382312"/>
<path d="M54.2419 9.86772C53.9951 9.86772 53.8722 9.80017 53.8125 9.74347C53.7486 9.6828 53.7529 9.59015 53.8252 9.46817C54.0744 9.04746 55.1862 8.24292 56.1819 8.24292C56.2763 8.24292 56.3686 8.25023 56.4563 8.26466C56.4674 8.26649 56.4779 8.27023 56.4869 8.27561C56.4948 8.28026 56.6781 8.39147 56.6671 8.59666C56.6537 8.84432 56.3669 9.10822 55.8147 9.38102C55.0004 9.78329 54.51 9.86772 54.2419 9.86772ZM56.1819 8.36524C55.2813 8.36524 54.2055 9.11443 53.9652 9.52006C53.9121 9.60963 53.9189 9.65345 53.9314 9.66522C53.9629 9.69516 54.0451 9.7454 54.2419 9.7454C54.4897 9.7454 54.9495 9.66418 55.7327 9.27726C56.3635 8.96569 56.505 8.73231 56.5125 8.59143C56.5188 8.47596 56.4368 8.40428 56.4057 8.38141C56.3341 8.37068 56.2589 8.36524 56.1819 8.36524Z" fill="#382312"/>
<path d="M56.5433 8.32029C56.4819 8.26252 56.3618 8.22803 56.222 8.22803C56.0649 8.22803 55.9053 8.27047 55.7723 8.34753C55.5251 8.49089 55.5688 8.67751 55.6281 8.75925C55.6492 8.79509 55.8214 9.07116 56.1317 9.07122H56.1318C56.2307 9.07122 56.3314 9.04257 56.431 8.98612C56.5788 8.90239 56.6634 8.79922 56.6824 8.67953C56.7058 8.53284 56.6221 8.39435 56.5433 8.32029Z" fill="#382312"/>
<path d="M64.3166 26.9887L63.8212 26.5344C63.7179 26.4181 61.945 24.4254 61.547 24.2005C61.2322 24.0227 59.5796 22.121 58.9694 21.4033C58.953 21.3839 58.9244 21.3736 58.8948 21.3769C58.8656 21.38 58.8412 21.396 58.8319 21.4181C58.7634 21.5805 57.2957 22.2113 56.2121 22.6341V20.9017C56.2121 20.8836 56.2019 20.8665 56.1844 20.8549C55.9075 20.6711 53.4686 19.0577 53.1047 18.9893C52.8245 18.9367 51.6346 18.2801 51.1998 18.0315C51.1789 18.0195 51.1519 18.0167 51.1277 18.0237L49.3193 18.5507C49.3065 18.5544 49.2952 18.5608 49.2865 18.5691C48.6248 19.2011 47.818 19.5216 46.8882 19.5216C46.13 19.5216 45.5667 19.298 45.5611 19.2957C45.5597 19.2952 45.5583 19.2947 45.5569 19.2942C44.4617 18.9152 43.7469 18.3918 43.4324 17.7385C43.0079 16.8567 43.4744 16.0353 43.4792 16.0271C43.4907 16.0073 43.488 15.9841 43.472 15.9662L42.7944 15.209C42.7882 15.202 42.7802 15.1962 42.7709 15.1918C40.6763 14.2032 38.4848 13.7019 36.2574 13.7019C31.2685 13.7019 26.7727 16.1765 23.1603 18.1649C22.9778 18.2654 22.7972 18.3648 22.6186 18.4627C19.9533 19.9248 16.8298 22.7676 14.4672 25.882C11.7617 29.4483 10.3143 32.9444 10.3916 35.7263C10.4681 38.4788 11.5595 40.3789 13.7281 41.5352C15.5932 42.5297 17.9324 42.836 20.3664 43.0855C21.7182 43.2241 22.9888 43.2944 24.1429 43.2944C26.1127 43.2944 27.0479 43.0924 27.0867 43.0838C27.1175 43.077 27.1398 43.0559 27.1429 43.0307C27.2261 42.34 27.6868 40.8444 27.6914 40.8293C27.7008 40.7993 27.6801 40.7684 27.6435 40.7575C27.6299 40.7535 26.2376 40.3414 21.8841 39.1163C16.6178 37.6346 15.8604 34.2709 15.7537 33.2753C15.6659 32.4562 16.6328 31.0898 18.4762 29.428C20.039 28.0191 21.7163 26.863 22.2783 26.6025C23.1746 26.1869 23.8261 25.9675 24.1043 25.8815C23.7227 26.8104 22.6504 29.9708 22.3317 32.3027C21.9962 34.7572 22.2441 38.6359 22.2467 38.6749C22.2478 38.6916 22.2575 38.7073 22.2737 38.7182C22.2898 38.7291 22.311 38.7343 22.3321 38.7325L47.8399 36.583C47.8817 36.5795 47.9123 36.5502 47.9088 36.517C47.9071 36.502 47.752 34.9991 48.0293 33.7711C48.2802 32.6602 49.7675 30.1238 50.0614 29.6293C50.616 30.1303 53.9827 33.1605 55.5779 34.3408C57.3244 35.633 59.5465 35.9605 59.5687 35.9637C59.6047 35.9688 59.6398 35.9535 59.6538 35.927L64.3293 27.0521C64.3407 27.0307 64.3357 27.0062 64.3166 26.9887Z" fill="#355572"/>
<path d="M24.0735 25.6514C24.0458 25.6514 24.0191 25.6396 24.0051 25.6189C23.9851 25.5891 23.9995 25.552 24.0372 25.5362C24.0829 25.517 28.6309 23.6028 30.914 22.2375C33.1546 20.8977 34.2714 19.8058 34.1576 17.556C34.1121 16.6555 33.3853 15.9531 31.9976 15.4683C30.9527 15.1033 29.9091 15.0072 29.8987 15.0062C29.8563 15.0024 29.8258 14.9722 29.8306 14.9386C29.8354 14.9051 29.8734 14.8808 29.9161 14.8847C29.9267 14.8856 30.9938 14.984 32.06 15.3564C33.486 15.8545 34.2647 16.6134 34.3121 17.5511C34.4287 19.8549 33.2906 20.9697 31.0073 22.3351C28.7143 23.7063 24.1555 25.625 24.1097 25.6443C24.0982 25.6491 24.0858 25.6514 24.0735 25.6514Z" fill="#8F2682"/>
<path d="M32.5597 15.1568C32.5484 15.1568 32.5369 15.1549 32.526 15.1507C32.2545 15.0467 32.0698 15.0047 32.0679 15.0043C32.0268 14.9951 32.003 14.9612 32.0147 14.9287C32.0263 14.8962 32.0691 14.8774 32.1102 14.8866C32.1182 14.8884 32.3099 14.932 32.5934 15.0406C32.6318 15.0553 32.6479 15.0919 32.6293 15.1223C32.616 15.1441 32.5884 15.1568 32.5597 15.1568Z" fill="#8F2682"/>
<path d="M31.9504 22.4053C31.9266 22.4053 31.903 22.3966 31.8879 22.3802C31.8627 22.3529 31.8703 22.3146 31.9048 22.2947C32.0086 22.2348 32.112 22.1722 32.212 22.1084C32.2453 22.0872 32.2939 22.0914 32.3207 22.1177C32.3475 22.144 32.3423 22.1825 32.309 22.2037C32.2071 22.2687 32.1018 22.3325 31.9959 22.3936C31.9822 22.4015 31.9662 22.4053 31.9504 22.4053ZM32.626 21.9698C32.605 21.9698 32.584 21.9631 32.5687 21.9498C32.54 21.9248 32.5423 21.8861 32.574 21.8634C32.6916 21.7788 32.8068 21.6908 32.9164 21.6017C32.9462 21.5774 32.9951 21.5769 33.0257 21.6005C33.0564 21.6241 33.057 21.6627 33.0272 21.687C32.9154 21.7778 32.7979 21.8676 32.678 21.9539C32.6632 21.9646 32.6446 21.9698 32.626 21.9698ZM33.2962 21.4246C33.2784 21.4246 33.2605 21.4197 33.2459 21.4099C33.2135 21.3879 33.2097 21.3493 33.2375 21.3236C33.3408 21.2281 33.4408 21.1293 33.5346 21.0298C33.5602 21.0028 33.6086 20.9972 33.6429 21.0174C33.6771 21.0376 33.6841 21.0759 33.6586 21.103C33.5627 21.2046 33.4606 21.3056 33.355 21.4032C33.3397 21.4173 33.318 21.4246 33.2962 21.4246ZM33.8705 20.815C33.8562 20.815 33.8417 20.8119 33.8288 20.8053C33.7929 20.7871 33.7824 20.7492 33.8055 20.7208C33.8913 20.6152 33.9728 20.5064 34.0478 20.3975C34.0682 20.3679 34.1152 20.3569 34.1527 20.373C34.1902 20.3891 34.2041 20.4263 34.1836 20.456C34.1069 20.5675 34.0235 20.6788 33.9356 20.7869C33.9209 20.8051 33.896 20.815 33.8705 20.815ZM34.3295 20.1473C34.3189 20.1473 34.3081 20.1456 34.2978 20.1419C34.2589 20.128 34.2415 20.0918 34.2591 20.061C34.324 19.947 34.3839 19.8299 34.4373 19.713C34.4518 19.6811 34.4961 19.6647 34.5363 19.6762C34.5765 19.6877 34.5973 19.7227 34.5828 19.7545C34.5281 19.8744 34.4666 19.9944 34.4001 20.1112C34.3872 20.1339 34.359 20.1473 34.3295 20.1473ZM34.6555 19.4326C34.6487 19.4326 34.6418 19.4319 34.635 19.4304C34.5938 19.4214 34.5696 19.3877 34.581 19.3551C34.6227 19.2352 34.6591 19.1122 34.6892 18.9896C34.6973 18.9565 34.7381 18.935 34.7798 18.9412C34.8217 18.9477 34.8491 18.9798 34.841 19.0129C34.8102 19.1385 34.7729 19.2646 34.7301 19.3876C34.7206 19.4147 34.6895 19.4326 34.6555 19.4326ZM34.8391 18.6867C34.8361 18.6867 34.833 18.6866 34.8299 18.6863C34.7875 18.6823 34.7572 18.6518 34.7622 18.6183C34.7812 18.4918 34.794 18.366 34.8 18.2442C34.8016 18.2104 34.8382 18.1846 34.8803 18.1855C34.923 18.1868 34.9562 18.2152 34.9545 18.2489C34.9483 18.3739 34.9353 18.5031 34.9158 18.6328C34.9111 18.6639 34.8777 18.6867 34.8391 18.6867ZM34.8748 17.9276C34.8339 17.9276 34.7998 17.9023 34.7977 17.8696C34.7895 17.7432 34.7736 17.6181 34.7502 17.4976C34.7438 17.4642 34.7727 17.433 34.8149 17.4279C34.8576 17.4228 34.8966 17.4457 34.9031 17.4791C34.9272 17.6036 34.9437 17.7329 34.9521 17.8634C34.9543 17.8972 34.9215 17.9259 34.8788 17.9276C34.8775 17.9276 34.8762 17.9276 34.8748 17.9276ZM34.7277 17.1776C34.6936 17.1776 34.6624 17.1597 34.6531 17.1324C34.6118 17.0117 34.5613 16.8928 34.503 16.7791C34.487 16.7479 34.5061 16.7122 34.5457 16.6995C34.5852 16.6869 34.6303 16.7019 34.6464 16.7332C34.707 16.8515 34.7594 16.975 34.8023 17.1005C34.8135 17.1331 34.7891 17.1667 34.7479 17.1755C34.7411 17.1769 34.7344 17.1776 34.7277 17.1776ZM34.3668 16.4748C34.3397 16.4748 34.3134 16.4635 34.2992 16.4436C34.2228 16.3358 34.1368 16.2307 34.0434 16.131C34.018 16.1039 34.0252 16.0656 34.0595 16.0455C34.0938 16.0254 34.1423 16.031 34.1677 16.0582C34.265 16.162 34.3546 16.2715 34.4341 16.3837C34.455 16.4132 34.4418 16.4505 34.4045 16.467C34.3926 16.4723 34.3796 16.4748 34.3668 16.4748ZM33.7961 15.865C33.7757 15.865 33.7552 15.8586 33.7401 15.846C33.633 15.7571 33.517 15.6715 33.3951 15.5917C33.3622 15.5701 33.3577 15.5315 33.385 15.5056C33.4122 15.4795 33.461 15.4759 33.4938 15.4975C33.6203 15.5804 33.7409 15.6693 33.8521 15.7617C33.8815 15.7861 33.8803 15.8248 33.8494 15.8481C33.8344 15.8594 33.8152 15.865 33.7961 15.865Z" fill="#8F2682"/>
<path d="M31.0735 22.8386C31.0447 22.8386 31.0171 22.8259 31.0038 22.804C30.9852 22.7735 31.0014 22.737 31.0399 22.7224C31.0416 22.7217 31.211 22.6568 31.4731 22.5265C31.5093 22.5085 31.557 22.5171 31.5797 22.5457C31.6025 22.5744 31.5916 22.6121 31.5554 22.6301C31.2851 22.7645 31.1141 22.8299 31.107 22.8326C31.0961 22.8367 31.0847 22.8386 31.0735 22.8386Z" fill="#8F2682"/>
<path d="M50.0421 29.5801C50.0269 29.5801 50.0116 29.5766 49.9982 29.5692C49.9631 29.5501 49.9543 29.512 49.9785 29.4842C51.5862 27.6425 52.2732 23.3044 52.2799 23.2608C52.2851 23.2272 52.3237 23.2034 52.3661 23.2075C52.4085 23.2116 52.4387 23.2421 52.4335 23.2756C52.4267 23.3196 51.7349 27.6876 50.1058 29.5537C50.0908 29.5708 50.0666 29.5801 50.0421 29.5801Z" fill="#8F2682"/>
<path d="M61.1926 31.4C61.1699 31.4 61.1474 31.3921 61.1321 31.377C60.6069 30.8565 57.3893 26.1246 56.9273 24.9953C56.4668 23.8693 55.103 20.3214 55.0893 20.2858C55.0769 20.2534 55.0999 20.2193 55.1408 20.2095C55.1816 20.1996 55.2248 20.2179 55.2373 20.2502C55.251 20.2859 56.6143 23.8326 57.0745 24.9577C57.5338 26.0806 60.7312 30.7836 61.253 31.3007C61.2796 31.3271 61.2741 31.3656 61.2408 31.3867C61.2265 31.3956 61.2095 31.4 61.1926 31.4Z" fill="#8F2682"/>
<path d="M26.0408 43.2206C26.018 43.2206 25.9955 43.2127 25.9802 43.1975C25.1874 42.4061 26.343 40.5328 26.3926 40.4535C26.4115 40.4232 26.4579 40.4108 26.4961 40.4258C26.5344 40.4407 26.5501 40.4774 26.5312 40.5077C26.5195 40.5264 25.3691 42.3906 26.1014 43.1215C26.1279 43.148 26.1222 43.1865 26.0888 43.2075C26.0746 43.2163 26.0577 43.2206 26.0408 43.2206Z" fill="#8F2682"/>
<path d="M27.0954 41.5906H26.1222C26.0796 41.5906 26.0449 41.5632 26.0449 41.5294C26.0449 41.4957 26.0796 41.4683 26.1222 41.4683H27.0954C27.1381 41.4683 27.1727 41.4957 27.1727 41.5294C27.1727 41.5632 27.1381 41.5906 27.0954 41.5906Z" fill="#8F2682"/>
<path d="M27.0942 42.1934H25.9933C25.9507 42.1934 25.916 42.166 25.916 42.1322C25.916 42.0984 25.9507 42.071 25.9933 42.071H27.0942C27.1369 42.071 27.1715 42.0984 27.1715 42.1322C27.1715 42.166 27.1369 42.1934 27.0942 42.1934Z" fill="#8F2682"/>
<path d="M19.2747 42.506C19.2507 42.506 19.227 42.4972 19.2119 42.4805C19.1869 42.4532 19.1948 42.4149 19.2294 42.3952C19.8794 42.025 20.9021 41.183 20.9124 41.1746C20.9419 41.1502 20.9909 41.1494 21.0217 41.1728C21.0525 41.1961 21.0536 41.2348 21.024 41.2592C20.9818 41.2941 19.9812 42.1177 19.3198 42.4944C19.3061 42.5022 19.2903 42.506 19.2747 42.506Z" fill="#8F2682"/>
<path d="M18.8808 40.3408C18.8414 40.3408 18.8078 40.3171 18.8039 40.2854C18.6903 39.3414 19.3623 38.2498 19.391 38.2038C19.4098 38.1735 19.4561 38.1611 19.4945 38.176C19.5328 38.1909 19.5486 38.2276 19.5297 38.2579C19.5229 38.2688 18.8485 39.3648 18.9579 40.2739C18.962 40.3075 18.9308 40.3374 18.8883 40.3406C18.8858 40.3407 18.8833 40.3408 18.8808 40.3408Z" fill="#8F2682"/>
<path d="M12.5579 38.2915C12.5292 38.2915 12.5017 38.2789 12.4883 38.2572C12.4696 38.2268 12.4855 38.1902 12.5239 38.1754C12.5418 38.1685 14.3272 37.4742 15.2097 36.689C15.238 36.6637 15.2869 36.6615 15.3188 36.6839C15.3508 36.7064 15.3536 36.745 15.3253 36.7703C14.4222 37.5737 12.666 38.2566 12.5917 38.2853C12.5808 38.2895 12.5693 38.2915 12.5579 38.2915Z" fill="#8F2682"/>
<path d="M15.8882 32.0585C15.878 32.0585 15.8677 32.0569 15.8578 32.0535C14.4506 31.5765 14.1851 30.1249 14.1745 30.0634C14.1688 30.0299 14.1984 29.9991 14.2407 29.9945C14.2828 29.9898 14.322 30.0133 14.3277 30.0468C14.3302 30.0612 14.5927 31.4917 15.9187 31.9411C15.9579 31.9544 15.9761 31.9903 15.9593 32.0214C15.9467 32.0446 15.9182 32.0585 15.8882 32.0585Z" fill="#8F2682"/>
<path d="M15.4302 32.5291C14.6548 32.5291 14.0832 32.3744 14.0578 32.3674C14.0174 32.3564 13.9961 32.3215 14.0102 32.2896C14.0242 32.2577 14.0683 32.2409 14.1086 32.2519C14.115 32.2537 14.7556 32.4265 15.5766 32.4049C15.6189 32.4031 15.655 32.4302 15.6564 32.464C15.6579 32.4978 15.6244 32.526 15.5817 32.5272C15.5304 32.5285 15.4799 32.5291 15.4302 32.5291Z" fill="#8F2682"/>
<path d="M14.0831 34.2686C14.0675 34.2686 14.0518 34.2649 14.0382 34.2572C14.0035 34.2375 13.9954 34.1993 14.0203 34.1719C14.0442 34.1454 14.6128 33.5234 15.2616 33.4768C15.3042 33.474 15.3418 33.4985 15.3457 33.5322C15.3495 33.5658 15.3182 33.5955 15.2757 33.5986C14.6976 33.6401 14.1516 34.237 14.1461 34.243C14.131 34.2597 14.1072 34.2686 14.0831 34.2686Z" fill="#8F2682"/>
<path d="M18.4855 26.7901C18.4685 26.7901 18.4515 26.7857 18.4372 26.7767C18.4039 26.7556 18.3985 26.7171 18.4251 26.6907C18.8565 26.2643 19.0277 24.3332 19.0293 24.3138C19.0323 24.2801 19.0693 24.255 19.1118 24.2569C19.1544 24.2592 19.1866 24.2884 19.1837 24.3221C19.1767 24.4031 19.0073 26.311 18.5459 26.7672C18.5306 26.7822 18.5081 26.7901 18.4855 26.7901Z" fill="#8F2682"/>
<path d="M21.591 22.5928C21.5761 22.5928 21.5611 22.5895 21.5479 22.5824C21.5125 22.5636 21.503 22.5256 21.5268 22.4976C22.8244 20.9691 22.7898 18.4282 22.7893 18.4027C22.7887 18.3689 22.8227 18.3411 22.8655 18.3406C22.9084 18.3399 22.9433 18.367 22.944 18.4008C22.9445 18.4267 22.9801 21.0053 21.6552 22.5658C21.6403 22.5833 21.6159 22.5928 21.591 22.5928Z" fill="#8F2682"/>
<path d="M27.0943 23.9325C27.0626 23.9325 27.0329 23.917 27.0216 23.892C26.4321 22.5983 26.5949 21.2921 26.8353 20.4241C27.0955 19.4847 27.501 18.8404 27.5051 18.834C27.5242 18.8038 27.5707 18.7917 27.6089 18.8068C27.647 18.822 27.6624 18.8587 27.6433 18.8889C27.6393 18.8952 27.2412 19.5284 26.9855 20.4537C26.7502 21.3051 26.5907 22.5855 27.1671 23.8506C27.1816 23.8824 27.1608 23.9174 27.1206 23.9289C27.1119 23.9313 27.103 23.9325 27.0943 23.9325Z" fill="#8F2682"/>
<path d="M28.5621 32.0586C28.53 32.0586 28.5 32.0426 28.489 32.0172C27.8806 30.6176 26.0133 29.0861 25.9945 29.0708C25.9648 29.0466 25.9655 29.0078 25.9961 28.9843C26.0267 28.9608 26.0757 28.9614 26.1055 28.9856C26.1245 29.0011 28.0158 30.5522 28.6352 31.9775C28.6491 32.0094 28.6276 32.0442 28.5872 32.0552C28.5789 32.0575 28.5705 32.0586 28.5621 32.0586Z" fill="#8F2682"/>
<path d="M29.466 27.7722C29.4555 27.7722 29.4448 27.7705 29.4345 27.7669C27.8445 27.2054 26.5152 24.7796 26.4594 24.6766C26.4426 24.6455 26.4608 24.6096 26.5 24.5963C26.5392 24.5829 26.5847 24.5974 26.6016 24.6284C26.615 24.6532 27.9628 27.1132 29.4976 27.6552C29.5366 27.6689 29.5541 27.7051 29.5367 27.736C29.5238 27.7587 29.4955 27.7722 29.466 27.7722Z" fill="#8F2682"/>
<path d="M37.4245 26.4551C37.4238 26.4551 37.423 26.4551 37.4223 26.4551C36.4309 26.4328 33.9737 25.6793 33.8696 25.6473C33.8298 25.635 33.8101 25.5996 33.8256 25.5681C33.8411 25.5366 33.8859 25.5209 33.9257 25.5333C33.951 25.5411 36.462 26.3111 37.4267 26.3328C37.4694 26.3338 37.503 26.3619 37.5018 26.3957C37.5006 26.4288 37.4662 26.4551 37.4245 26.4551Z" fill="#8F2682"/>
<path d="M41.3782 30.2498C41.3544 30.2498 41.3308 30.2411 41.3157 30.2247C41.2905 30.1975 41.298 30.1592 41.3325 30.1393C42.7734 29.3065 45.242 26.5644 45.2668 26.5368C45.2915 26.5092 45.3397 26.5028 45.3746 26.5223C45.4094 26.5418 45.4176 26.58 45.3929 26.6075C45.2912 26.7209 42.8849 29.3935 41.4238 30.238C41.41 30.246 41.394 30.2498 41.3782 30.2498Z" fill="#8F2682"/>
<path d="M46.5152 33.0629C46.4961 33.0629 46.477 33.0574 46.462 33.0461C45.317 32.1858 45.6073 30.5718 45.6202 30.5036C45.6266 30.4702 45.6657 30.4469 45.7081 30.4522C45.7503 30.4571 45.7795 30.4883 45.7732 30.5217C45.7701 30.5378 45.4823 32.1413 46.5685 32.9574C46.5995 32.9807 46.6007 33.0194 46.5713 33.0439C46.5561 33.0566 46.5357 33.0629 46.5152 33.0629Z" fill="#8F2682"/>
<path d="M53.2747 31.9693C53.2722 31.9693 53.2697 31.9692 53.2671 31.969C53.2247 31.9658 53.1935 31.9359 53.1976 31.9023C53.3246 30.8649 55.0214 28.1454 55.0935 28.0301C55.1125 27.9999 55.1588 27.9874 55.1972 28.0025C55.2354 28.0175 55.2511 28.0541 55.2322 28.0844C55.2146 28.1124 53.4758 30.899 53.3515 31.9141C53.3477 31.9457 53.314 31.9693 53.2747 31.9693Z" fill="#8F2682"/>
<path d="M60.5149 26.0532C60.4932 26.0532 60.4716 26.046 60.4563 26.032C60.4284 26.0064 60.432 25.9678 60.4643 25.9458C61.1604 25.4709 61.6537 24.4203 61.6586 24.4097C61.6733 24.378 61.7178 24.3618 61.7579 24.3734C61.7979 24.385 61.8185 24.4202 61.8038 24.4519C61.7832 24.4961 61.2919 25.5426 60.5653 26.0384C60.5507 26.0483 60.5328 26.0532 60.5149 26.0532Z" fill="#8F2682"/>
<path d="M56.7043 23.7651C56.6747 23.7651 56.6465 23.7516 56.6337 23.7288C56.6163 23.698 56.6338 23.6618 56.6727 23.648C56.6925 23.641 58.6534 22.9431 59.3113 22.2927C59.338 22.2663 59.3867 22.2621 59.42 22.2832C59.4534 22.3042 59.4588 22.3427 59.4321 22.3691C58.7508 23.0427 56.8178 23.7307 56.7359 23.7597C56.7256 23.7633 56.7148 23.7651 56.7043 23.7651Z" fill="#8F2682"/>
<path d="M57.381 23.3295C57.3515 23.3295 57.3234 23.3161 57.3105 23.2935C57.2329 23.1576 56.8511 22.5998 56.8472 22.5942C56.8269 22.5645 56.8409 22.5274 56.8784 22.5113C56.916 22.4952 56.9629 22.5063 56.9833 22.536C56.9991 22.5591 57.3716 23.1033 57.4514 23.2431C57.469 23.2739 57.4517 23.3101 57.4128 23.324C57.4024 23.3277 57.3916 23.3295 57.381 23.3295Z" fill="#8F2682"/>
<path d="M57.9318 23.0786C57.9042 23.0786 57.8776 23.0669 57.8636 23.0463L57.3978 22.3598C57.3777 22.3301 57.3918 22.293 57.4294 22.277C57.4671 22.2611 57.514 22.2723 57.5341 22.302L57.9999 22.9885C58.02 23.0182 58.0059 23.0553 57.9683 23.0713C57.9567 23.0762 57.9442 23.0786 57.9318 23.0786Z" fill="#8F2682"/>
<path d="M58.5888 22.8103C58.5632 22.8103 58.5381 22.8002 58.5234 22.7819L57.973 22.0954C57.9501 22.0669 57.9608 22.0291 57.9968 22.011C58.0329 21.9929 58.0807 22.0014 58.1036 22.0299L58.654 22.7163C58.6769 22.7449 58.6662 22.7827 58.6301 22.8008C58.6173 22.8072 58.6029 22.8103 58.5888 22.8103Z" fill="#8F2682"/>
<path d="M46.9625 20.1927C46.3191 20.1928 45.5412 20.094 44.5955 19.8952C43.194 19.6006 42.3562 18.6718 42.1727 17.2093C42.0355 16.1156 42.3142 15.0949 42.3171 15.0847C42.3262 15.0517 42.3674 15.0307 42.4092 15.0381C42.4509 15.0454 42.4772 15.078 42.4681 15.111C42.4653 15.121 42.1914 16.1252 42.3269 17.1999C42.5067 18.6258 43.2833 19.4928 44.6352 19.7771C45.5911 19.978 46.3507 20.0717 46.964 20.0717C48.4271 20.0718 49.0582 19.5385 49.5404 18.6566C49.5573 18.6256 49.6028 18.6114 49.6421 18.6248C49.6813 18.6381 49.6993 18.6742 49.6823 18.7052C49.398 19.2252 48.9925 19.7909 48.1408 20.0441C47.808 20.143 47.419 20.1927 46.9625 20.1927Z" fill="#8F2682"/>
<path d="M42.2667 16.2138C42.2252 16.2138 42.1909 16.1877 42.1895 16.1546C42.1881 16.1209 42.2215 16.0926 42.2642 16.0915L43.1952 16.067C43.2379 16.0654 43.2737 16.0923 43.2751 16.1261C43.2765 16.1598 43.243 16.1881 43.2003 16.1892L42.2693 16.2137C42.2685 16.2138 42.2676 16.2138 42.2667 16.2138Z" fill="#8F2682"/>
<path d="M42.2667 17.1178C42.2296 17.1178 42.1969 17.0968 42.1906 17.0669C42.1834 17.0336 42.2117 17.002 42.2538 16.9964L43.0012 16.8959C43.0432 16.8901 43.0832 16.9127 43.0904 16.946C43.0975 16.9793 43.0692 17.0109 43.0271 17.0165L42.2798 17.117C42.2754 17.1176 42.271 17.1178 42.2667 17.1178Z" fill="#8F2682"/>
<path d="M42.3879 17.9224C42.3557 17.9224 42.3257 17.9064 42.3147 17.881C42.3009 17.849 42.3225 17.8142 42.363 17.8033L43.2784 17.5565C43.3188 17.5456 43.3627 17.5627 43.3765 17.5947C43.3903 17.6267 43.3687 17.6614 43.3283 17.6723L42.4129 17.9191C42.4046 17.9213 42.3962 17.9224 42.3879 17.9224Z" fill="#8F2682"/>
<path d="M42.6321 18.5126C42.6051 18.5126 42.5788 18.5014 42.5647 18.4815C42.5437 18.452 42.5568 18.4147 42.594 18.3982L43.3556 18.0587C43.3928 18.0421 43.44 18.0525 43.461 18.0819C43.4819 18.1114 43.4688 18.1487 43.4316 18.1652L42.67 18.5047C42.658 18.5101 42.6449 18.5126 42.6321 18.5126Z" fill="#8F2682"/>
<path d="M43.3039 19.0766C43.285 19.0766 43.2661 19.0712 43.2512 19.0602C43.2199 19.0372 43.2182 18.9985 43.2473 18.9738L43.8189 18.4882C43.848 18.4635 43.8969 18.4621 43.9282 18.4851C43.9595 18.5082 43.9612 18.5469 43.9321 18.5716L43.3605 19.0571C43.3452 19.0701 43.3246 19.0766 43.3039 19.0766Z" fill="#8F2682"/>
<path d="M44.087 19.596C44.0727 19.596 44.0582 19.5928 44.0452 19.5862C44.0093 19.5679 43.999 19.53 44.0221 19.5016L44.4455 18.9826C44.4687 18.9542 44.5166 18.9461 44.5524 18.9643C44.5883 18.9827 44.5986 19.0205 44.5755 19.0489L44.1521 19.5679C44.1373 19.5861 44.1124 19.596 44.087 19.596Z" fill="#8F2682"/>
<path d="M44.7355 19.9217C44.7167 19.9217 44.6979 19.9163 44.683 19.9054C44.6517 19.8825 44.6498 19.8438 44.6788 19.819L45.2363 19.3424C45.2654 19.3176 45.3143 19.3161 45.3456 19.339C45.377 19.362 45.3789 19.4007 45.3499 19.4255L44.7923 19.9021C44.7771 19.9151 44.7563 19.9217 44.7355 19.9217Z" fill="#8F2682"/>
<path d="M45.7375 19.9978C45.7271 19.9978 45.7165 19.9961 45.7064 19.9926C45.6673 19.979 45.6495 19.943 45.6667 19.912L45.8409 19.5979C45.858 19.5669 45.9037 19.5529 45.9428 19.5664C45.9819 19.58 45.9997 19.6161 45.9825 19.647L45.8083 19.9612C45.7956 19.9841 45.7672 19.9978 45.7375 19.9978Z" fill="#8F2682"/>
<path d="M46.7531 20.1891C46.7104 20.1891 46.6758 20.1617 46.6758 20.1279V19.6979C46.6758 19.6641 46.7104 19.6367 46.7531 19.6367C46.7958 19.6367 46.8304 19.6641 46.8304 19.6979V20.1279C46.8304 20.1617 46.7958 20.1891 46.7531 20.1891Z" fill="#8F2682"/>
<path d="M48.1926 19.9219C48.1499 19.9219 48.1152 19.8945 48.1152 19.8607V19.5348C48.1152 19.501 48.1499 19.4736 48.1926 19.4736C48.2352 19.4736 48.2699 19.501 48.2699 19.5348V19.8607C48.2699 19.8945 48.2352 19.9219 48.1926 19.9219Z" fill="#8F2682"/>
<path d="M63.4791 14.7204C63.189 13.8026 62.9869 13.656 62.8868 13.6326C62.8736 13.2208 62.7969 11.8615 62.3608 11.6752C62.2648 11.5198 61.6585 10.5883 60.9103 10.5554C60.14 10.5217 58.6577 11.0088 58.5971 11.0288C58.58 11.0345 58.5659 11.0449 58.5577 11.0581C58.5477 11.074 57.5504 12.6643 56.5051 14.2552C54.6212 17.1226 54.2081 17.5198 54.1179 17.5549C54.0932 17.5584 54.072 17.5713 54.0614 17.5895C54.0368 17.632 53.4628 18.6394 53.895 19.4995C54.1005 19.9084 54.5008 20.2135 55.0851 20.4066C55.1899 20.6668 55.9434 22.5338 56.0641 22.7567C56.0729 22.7728 56.09 22.7852 56.1111 22.7907C56.1189 22.7927 56.1271 22.7937 56.1351 22.7937C56.1488 22.7937 56.1624 22.7909 56.1745 22.7852L58.945 21.4904C58.9756 21.4761 58.9899 21.4471 58.9797 21.4202C58.7091 20.7072 58.2879 19.5669 58.2364 19.3518L60.3152 18.2009C61.3246 17.6421 63.8606 15.9275 63.4791 14.7204Z" fill="#DDA76C"/>
<path d="M56.461 19.7523C56.4392 19.7523 56.4175 19.745 56.4022 19.7309C55.6245 19.0133 56.0288 17.3711 56.0464 17.3016C56.0547 17.2685 56.0955 17.2471 56.1373 17.2536C56.1792 17.2603 56.2064 17.2925 56.198 17.3256C56.1939 17.342 55.7909 18.9789 56.5196 19.6513C56.5474 19.677 56.5437 19.7156 56.5112 19.7376C56.4967 19.7474 56.4788 19.7523 56.461 19.7523Z" fill="#7C5B42"/>
<path d="M57.6458 16.3037C57.6203 16.3037 57.5954 16.2938 57.5806 16.2756C57.5576 16.2472 57.568 16.2094 57.6039 16.1911C58.2738 15.8505 60.4431 15.8465 60.4649 15.8465C60.7189 15.8465 61.1672 15.1522 61.1672 14.9701C61.132 14.8553 60.1805 14.3902 59.3146 14.0244C59.0135 13.9869 58.7921 13.8422 58.7208 13.6356C58.6675 13.4811 58.7137 13.3253 58.8359 13.248C58.8513 13.2383 58.8709 13.2336 58.8904 13.2348C58.9189 13.2366 61.753 13.4169 62.4607 13.4706C62.5033 13.4738 62.5344 13.5038 62.5303 13.5374C62.5263 13.571 62.4892 13.5958 62.4459 13.5924C61.7818 13.542 59.2389 13.3797 58.9124 13.3589C58.8555 13.4109 58.8374 13.509 58.87 13.6034C58.8967 13.6808 58.9969 13.865 59.3502 13.905C59.3591 13.906 59.3678 13.9082 59.3757 13.9116C59.3804 13.9136 59.8592 14.1158 60.3317 14.34C61.3219 14.8099 61.3219 14.9141 61.3219 14.9701C61.3219 15.17 60.8648 15.9689 60.4649 15.9689C59.8703 15.9689 58.2121 16.0273 57.6875 16.294C57.6746 16.3006 57.6601 16.3037 57.6458 16.3037Z" fill="#7C5B42"/>
<path d="M87.8345 10.9011H86.4797C86.437 10.9011 86.4023 10.8737 86.4023 10.84V10.3488C86.4023 10.315 86.437 10.2876 86.4797 10.2876C86.5005 10.2876 86.5195 10.2941 86.5334 10.3048C86.5584 10.3091 86.6355 10.3174 86.8602 10.3174C87.2879 10.3174 87.9365 10.288 87.943 10.2877C87.9668 10.2865 87.9897 10.2942 88.0054 10.3082C88.0211 10.3223 88.0278 10.3413 88.0235 10.3597L87.9106 10.8509C87.9039 10.88 87.8718 10.9011 87.8345 10.9011ZM86.557 10.7788H87.7699L87.8538 10.414C87.6543 10.4222 87.1921 10.4397 86.8602 10.4397C86.7256 10.4397 86.6273 10.438 86.557 10.4315V10.7788Z" fill="#8F2682"/>
<path d="M89.6411 10.6558H88.5402C88.4975 10.6558 88.4629 10.6284 88.4629 10.5946C88.4629 10.5608 88.4975 10.5334 88.5402 10.5334H89.6411C89.6837 10.5334 89.7184 10.5608 89.7184 10.5946C89.7184 10.6284 89.6838 10.6558 89.6411 10.6558Z" fill="#8F2682"/>
<path d="M81.7368 9.01587H79.1965C79.1538 9.01587 79.1191 8.98847 79.1191 8.95471C79.1191 8.92095 79.1538 8.89355 79.1965 8.89355H81.7368C81.7795 8.89355 81.8141 8.92095 81.8141 8.95471C81.8141 8.98847 81.7795 9.01587 81.7368 9.01587Z" fill="#8F2682"/>
<path d="M78.5186 9.01592C78.4801 9.01592 78.4467 8.99314 78.442 8.96213C78.4368 8.92858 78.467 8.89813 78.5094 8.89406L80.0337 8.74802C80.0754 8.74392 80.1146 8.76783 80.1198 8.80138C80.1249 8.83492 80.0947 8.86538 80.0523 8.86944L78.528 9.01549C78.5249 9.0158 78.5217 9.01592 78.5186 9.01592Z" fill="#8F2682"/>
<path d="M81.8996 8.86937C81.858 8.86937 81.8237 8.84329 81.8223 8.8102C81.8209 8.77644 81.8544 8.74818 81.8971 8.74708C82.4255 8.73338 94.8471 8.41276 95.5812 8.52462C95.6231 8.53101 95.6506 8.56309 95.6425 8.59624C95.6344 8.62939 95.5942 8.65106 95.5519 8.6447C94.835 8.53535 82.0314 8.86595 81.9021 8.86931C81.9013 8.86934 81.9004 8.86937 81.8996 8.86937Z" fill="#8F2682"/>
<path d="M82.0655 9.86813C82.025 9.86813 81.991 9.8432 81.9884 9.81079C81.9858 9.77709 82.0182 9.74804 82.0608 9.74593C82.0945 9.74425 85.476 9.57704 88.8347 9.45289C95.6834 9.1997 95.7658 9.3621 95.8098 9.44941C95.8257 9.48075 95.8064 9.51634 95.7668 9.52891C95.7321 9.53977 95.6935 9.52965 95.6737 9.50607C95.5603 9.45249 94.6367 9.35886 88.6986 9.5804C85.3896 9.70388 82.1033 9.86641 82.0704 9.86803C82.0688 9.86806 82.0672 9.86813 82.0655 9.86813Z" fill="#8F2682"/>
<path d="M46.4894 11.4049C46.4727 11.4049 46.4559 11.4007 46.4417 11.3919C46.4081 11.371 46.4022 11.3326 46.4286 11.306C46.4939 11.2402 48.042 9.69419 49.2678 9.7459C49.3104 9.7477 49.3432 9.77648 49.3409 9.81024C49.3386 9.844 49.3017 9.87008 49.2596 9.86806C48.1133 9.82115 46.5658 11.366 46.5503 11.3816C46.535 11.3969 46.5123 11.4049 46.4894 11.4049Z" fill="#21150A"/>
<path d="M52.5226 8.5569C52.5057 8.5569 52.4887 8.55252 52.4744 8.54353C52.441 8.52246 52.4356 8.48399 52.4622 8.45757C52.5234 8.39694 53.9793 6.97137 55.6542 6.86547C55.6971 6.8625 55.7341 6.88791 55.7375 6.92155C55.7409 6.95522 55.7092 6.9847 55.6665 6.98739C54.0577 7.08909 52.5976 8.51941 52.5831 8.53384C52.5678 8.54901 52.5453 8.5569 52.5226 8.5569Z" fill="#21150A"/>
<path d="M58.9314 13.2826C58.9261 13.2826 58.9207 13.2821 58.9154 13.2812C58.8736 13.2742 58.8469 13.2418 58.8557 13.2087C59.1117 12.2503 58.5598 11.119 58.5542 11.1077C58.5386 11.0762 58.5582 11.0407 58.598 11.0284C58.6376 11.0161 58.6826 11.0316 58.6982 11.063C58.7217 11.1106 59.2727 12.2392 59.007 13.2341C58.9993 13.2628 58.9672 13.2826 58.9314 13.2826Z" fill="#7C5B42"/>
<path d="M54.0538 17.8282C54.015 17.8282 53.9816 17.8051 53.9771 17.774C53.9722 17.7404 54.0027 17.7101 54.0452 17.7063C55.6378 17.5633 56.8874 16.8609 57.7593 15.6184C58.4118 14.6887 58.5942 13.7914 58.5959 13.7825C58.6025 13.7491 58.6421 13.7263 58.6843 13.7314C58.7264 13.7366 58.7553 13.7679 58.7487 13.8013C58.7469 13.8105 58.5602 14.7292 57.8946 15.6777C57.2775 16.5571 56.1118 17.6439 54.0627 17.8278C54.0597 17.8281 54.0567 17.8282 54.0538 17.8282Z" fill="#7C5B42"/>
<path d="M59.8265 11.6275C59.8249 11.6275 59.8232 11.6274 59.8215 11.6274C59.7975 11.6262 59.2274 11.5957 58.777 11.3977C58.6534 11.3434 58.5946 11.2774 58.6022 11.2018C58.6202 11.0237 59.0373 10.8951 59.1207 10.8711C59.1609 10.8596 59.2053 10.876 59.2198 10.9077C59.2344 10.9394 59.2137 10.9745 59.1736 10.9861C59.0032 11.0351 58.7635 11.1408 58.7564 11.2115C58.7532 11.2437 58.8223 11.2777 58.8522 11.2908C59.2714 11.4751 59.8258 11.505 59.8313 11.5053C59.8739 11.5074 59.9063 11.5365 59.9036 11.5702C59.901 11.6026 59.867 11.6275 59.8265 11.6275Z" fill="#7C5B42"/>
<path d="M62.2594 11.7151C62.2584 11.7151 62.2574 11.7151 62.2563 11.7151L59.9141 11.643C59.8715 11.6417 59.8382 11.6132 59.8399 11.5795C59.8415 11.5458 59.8765 11.5199 59.9202 11.5208L62.2624 11.5928C62.3051 11.5942 62.3383 11.6226 62.3366 11.6563C62.335 11.6893 62.3007 11.7151 62.2594 11.7151Z" fill="#7C5B42"/>
<path d="M62.7214 12.7566C62.7192 12.7566 62.717 12.7566 62.7147 12.7564C62.1378 12.7172 59.2454 12.5078 58.9594 12.2316C58.9253 12.1986 58.9217 12.1671 58.9247 12.1465C58.97 11.8306 59.7159 11.6192 59.8008 11.5961C59.841 11.5852 59.8851 11.6021 59.899 11.634C59.9129 11.666 59.8914 11.7008 59.851 11.7118C59.6479 11.7671 59.1174 11.9535 59.0793 12.1547C59.1062 12.1849 59.3164 12.3108 60.9424 12.4804C61.8359 12.5736 62.7191 12.6339 62.7279 12.6345C62.7705 12.6374 62.802 12.667 62.7983 12.7007C62.7949 12.7326 62.7611 12.7566 62.7214 12.7566Z" fill="#7C5B42"/>
<path d="M62.5484 13.592C62.5463 13.592 62.5441 13.5919 62.5418 13.5917C62.5337 13.5912 61.7137 13.536 61.0747 13.4388C60.9603 13.4214 60.7958 13.4068 60.6053 13.3898C59.88 13.3252 58.8868 13.2367 58.9249 12.8439C58.9298 12.793 58.9615 12.7477 59.0192 12.7092C59.4757 12.4042 61.7577 12.5606 62.0165 12.5795C62.0591 12.5826 62.0903 12.6124 62.0864 12.646C62.0825 12.6796 62.0446 12.7043 62.0023 12.7013C61.3172 12.6515 59.4636 12.5724 59.1189 12.8026C59.0816 12.8276 59.0797 12.8469 59.0791 12.8533C59.0524 13.1283 60.0353 13.2159 60.6226 13.2682C60.8163 13.2855 60.9836 13.3004 61.1039 13.3187C61.7347 13.4146 62.5466 13.4693 62.5548 13.4698C62.5974 13.4726 62.629 13.5022 62.6254 13.5359C62.622 13.5678 62.5882 13.592 62.5484 13.592Z" fill="#7C5B42"/>
<path d="M43.6849 39.4227C43.1497 39.1651 42.4836 38.8445 41.7901 38.4442C40.9973 37.9867 39.8932 37.6138 38.5971 37.3659C37.5613 37.1678 36.4184 37.0542 35.4613 37.0542C35.135 37.0542 34.8521 37.0675 34.6206 37.0936C33.4417 37.2268 30.2624 39.2406 28.9048 40.1006C28.6477 40.2634 28.4619 40.3811 28.3758 40.4312C27.8453 40.7405 27.5232 40.9322 27.5201 40.9341C27.5038 40.9438 27.493 40.9581 27.4901 40.974L27.1161 42.9778C27.1129 42.9947 27.1189 43.0119 27.1325 43.0252C27.1461 43.0385 27.1661 43.0467 27.1877 43.0477C27.2 43.0483 28.4262 43.11 29.4558 43.2199C30.3717 43.3179 31.5046 43.3734 33.0213 43.3945C33.0546 43.3949 33.0869 43.3951 33.1185 43.3951C33.9461 43.3951 34.2264 43.2297 34.6907 42.9557C34.9027 42.8306 35.1664 42.675 35.5459 42.4977C35.6314 42.4577 35.7127 42.4219 35.7897 42.3905C35.7229 42.4787 35.6605 42.5869 35.603 42.7147C35.509 42.9238 35.5145 43.0892 35.6191 43.2065C35.7304 43.3312 35.9475 43.3945 36.2643 43.3945C36.9052 43.3945 37.8029 43.14 38.2499 42.9689C38.6644 42.8102 38.8917 42.6498 38.9254 42.4919C38.9294 42.4734 38.9304 42.4564 38.9295 42.4405C38.9412 42.4411 38.9536 42.4414 38.9667 42.4414C39.1231 42.4414 39.4011 42.3968 39.8374 42.1844C40.3255 41.9469 40.3078 41.6925 40.2983 41.5559C40.2975 41.5441 40.2965 41.53 40.2963 41.5185C40.301 41.5193 40.3064 41.5203 40.3128 41.5217C40.3293 41.5252 40.3458 41.5281 40.3623 41.5303C40.3902 41.5339 40.4188 41.5358 40.4474 41.5358C40.7765 41.5358 41.073 41.2998 41.2209 41.0659C41.2858 40.9634 41.2198 40.7568 40.2389 40.0025C39.9345 39.7685 39.621 39.5436 39.4074 39.3933C39.585 39.4303 39.8124 39.4706 40.0419 39.492C40.1735 39.5042 40.5636 39.636 41.0152 39.7886C42.0156 40.1266 43.3857 40.5896 44.237 40.5895C44.3998 40.5895 44.5393 40.5719 44.6516 40.5374C44.7903 40.4947 44.9764 40.4226 44.9913 40.2889C45.0165 40.0635 44.5153 39.8223 43.6849 39.4227Z" fill="#DDA76C"/>
<path d="M38.9212 39.316C38.9066 39.316 38.8918 39.3128 38.8787 39.3059L38.0602 38.8793C38.0245 38.8608 38.0147 38.8228 38.0382 38.7946C38.0617 38.7664 38.1097 38.7586 38.1453 38.7772L38.9639 39.2038C38.9995 39.2224 39.0094 39.2603 38.9859 39.2885C38.971 39.3063 38.9463 39.316 38.9212 39.316Z" fill="#7C5B42"/>
<path d="M40.2297 41.5299C40.2295 41.5299 40.2293 41.5299 40.2291 41.5299C40.1827 41.5296 40.1126 41.5292 38.4851 40.5086C37.6907 40.0104 36.9036 39.5057 36.8958 39.5007C36.8626 39.4794 36.8576 39.4409 36.8845 39.4147C36.9114 39.3885 36.9601 39.3845 36.9932 39.4057C38.2016 40.1807 40.0569 41.3489 40.2428 41.4085C40.2796 41.4134 40.3074 41.4389 40.3071 41.4693C40.3067 41.5029 40.2722 41.5299 40.2297 41.5299Z" fill="#7C5B42"/>
<path d="M38.5872 42.3498C38.5667 42.3498 38.5463 42.3434 38.5311 42.3307C38.2835 42.1241 35.4864 40.4344 35.4581 40.4174C35.4242 40.3969 35.4177 40.3585 35.4436 40.3316C35.4695 40.3048 35.518 40.2997 35.552 40.3202C35.6677 40.39 38.3873 42.0329 38.6434 42.2465C38.6728 42.2711 38.6714 42.3098 38.6404 42.333C38.6255 42.3442 38.6063 42.3498 38.5872 42.3498Z" fill="#7C5B42"/>
<path d="M33.6438 39.9164C33.6196 39.9164 33.5959 39.9075 33.5808 39.8907C33.556 39.8633 33.564 39.8251 33.5988 39.8055C33.6438 39.78 34.0458 39.5609 34.2814 39.6939C34.3162 39.7136 34.3242 39.7518 34.2994 39.7792C34.2746 39.8067 34.2262 39.813 34.1915 39.7935C34.0674 39.7233 33.7796 39.8538 33.6886 39.9051C33.675 39.9127 33.6594 39.9164 33.6438 39.9164Z" fill="#7C5B42"/>
<path d="M35.2235 38.7556C35.1963 38.7556 35.1704 38.7442 35.1565 38.7249C35.0773 38.6871 34.6266 38.7095 34.2471 38.7549C34.205 38.76 34.1655 38.737 34.1591 38.7036C34.1527 38.6701 34.1817 38.639 34.224 38.6339C34.2336 38.6328 34.4626 38.6055 34.7027 38.5916C35.1478 38.5656 35.2615 38.6049 35.2953 38.6717C35.3111 38.703 35.2918 38.7386 35.2522 38.7512C35.2427 38.7542 35.233 38.7556 35.2235 38.7556Z" fill="#7C5B42"/>
<path d="M36.2677 38.3984C36.2348 38.3984 36.2047 38.3817 36.1943 38.3562C36.1587 38.3178 35.9129 38.2342 35.6528 38.1725C35.6119 38.1628 35.5887 38.1287 35.6009 38.0963C35.6132 38.064 35.6563 38.0456 35.6972 38.0553C35.974 38.121 36.3106 38.2206 36.3428 38.3224C36.3531 38.3551 36.3279 38.3883 36.2865 38.3965C36.2802 38.3978 36.2739 38.3984 36.2677 38.3984Z" fill="#7C5B42"/>
<path d="M105.325 12.4447C105.316 12.4394 104.479 11.9133 104.321 11.5613C104.315 11.5477 104.303 11.5362 104.287 11.5289C104.243 11.5083 104.15 11.4653 101.731 11.4653C101.731 11.4653 101.732 11.4653 101.731 11.4653C94.2516 11.4653 72.4136 11.8748 72.1939 11.879C72.1636 11.8796 72.1365 11.8941 72.1246 11.9162L58.555 37.1135C58.55 37.1229 58.5479 37.1331 58.5492 37.1433C58.56 37.2337 58.8535 37.3939 59.3755 37.5943C59.3861 37.5984 59.3976 37.6005 59.4093 37.6005C59.411 37.6005 59.4126 37.6005 59.4143 37.6004C59.5502 37.5934 59.9637 37.5721 82.704 25.0499C93.9355 18.8651 105.209 12.6052 105.321 12.5427C105.341 12.5316 105.353 12.5137 105.354 12.4944C105.355 12.4751 105.344 12.4567 105.325 12.4447Z" fill="#8F2682" fill-opacity="0.1"/>
<path d="M105.342 12.46C105.327 12.4423 105.303 12.4316 105.276 12.4316C105.276 12.4316 105.276 12.4316 105.275 12.4316C105.195 12.4326 97.138 12.5334 89.1435 12.6672C72.9378 12.9384 72.7739 13.0743 72.7039 13.1324C72.3651 13.4133 60.7967 35.0495 59.4788 37.5157C59.4682 37.5353 59.4715 37.5579 59.4872 37.5752C59.5018 37.5912 59.5252 37.6006 59.55 37.6006C59.552 37.6006 59.554 37.6006 59.556 37.6004L91.0564 35.6582C91.0838 35.6565 91.1079 35.6436 91.12 35.624L105.346 12.5196C105.358 12.5004 105.356 12.4779 105.342 12.46Z" fill="#D3607D"/>
<path d="M97.3496 17.5608C97.3231 17.4031 97.1528 17.2378 96.8434 17.0695C96.7623 17.0255 96.4904 16.9749 95.0958 16.9749C90.071 16.9749 75.5695 17.6474 75.4236 17.6542C75.3947 17.6556 75.3692 17.6696 75.3575 17.6905L64.741 36.6557C64.7247 36.6849 64.7395 36.7192 64.7751 36.7343L65.8728 37.201C65.8843 37.2059 65.8969 37.2083 65.9094 37.2083C65.9264 37.2083 65.9433 37.2038 65.9571 37.1952L97.2807 17.7634C97.2847 17.7609 97.2885 17.758 97.2918 17.7549C97.2998 17.7474 97.3693 17.6789 97.3496 17.5608Z" fill="#8F2682"/>
<path d="M87.3001 41.278L80.9034 38.9563C80.8884 38.9508 80.8715 38.9493 80.8553 38.952L71.1652 40.5562L62.3606 41.6303C62.3365 41.6332 62.3156 41.645 62.3041 41.662L61.7395 42.5002C61.7296 42.515 61.7277 42.5323 61.7344 42.5481C61.741 42.564 61.7555 42.577 61.7745 42.5842L69.8615 45.6303C69.872 45.6343 69.8833 45.6363 69.8947 45.6363C69.9004 45.6363 69.9062 45.6357 69.9119 45.6347L87.2849 42.5092C87.3201 42.5029 87.3451 42.4781 87.3451 42.4496V41.3336C87.3452 41.3097 87.3276 41.288 87.3001 41.278Z" fill="#3C698E"/>
<path d="M87.2688 41.3792C84.2769 42.6056 69.938 44.5939 69.938 44.5939L62.5684 41.7126L81.2567 38.8789L87.2688 41.3792Z" fill="#467EB7"/>
<path d="M69.9372 44.655C69.9254 44.655 69.9137 44.6529 69.9029 44.6487L62.5333 41.7673C62.5035 41.7557 62.4865 41.7303 62.4909 41.7043C62.4954 41.6782 62.5204 41.6573 62.553 41.6524L81.2413 38.8187C81.2585 38.8161 81.2763 38.8182 81.2919 38.8246L87.304 41.325C87.3295 41.3356 87.3454 41.3565 87.3454 41.3793C87.3453 41.4021 87.3292 41.4229 87.3036 41.4334C84.3354 42.65 70.094 44.6342 69.9505 44.654C69.9461 44.6547 69.9416 44.655 69.9372 44.655ZM62.8081 41.7383L69.9488 44.5302C70.6168 44.4369 83.9432 42.5652 87.0981 41.3776L81.2439 38.9429L62.8081 41.7383Z" fill="#467EB7"/>
<path d="M97.2969 17.6813C97.2818 17.6637 97.2574 17.6541 97.2293 17.6546L75.7209 18.4415C75.6911 18.4426 75.6646 18.4572 75.6531 18.4791L65.838 37.124C65.8276 37.1436 65.8309 37.1661 65.8468 37.1834C65.8614 37.1993 65.8847 37.2086 65.9094 37.2086C65.9114 37.2086 65.9134 37.2085 65.9154 37.2084L86.8424 35.9182C86.8706 35.9164 86.8952 35.9027 86.9069 35.8824L97.3034 17.7409C97.3144 17.7215 97.312 17.699 97.2969 17.6813Z" fill="#315087"/>
<path d="M83.7137 18.8037H76.5441C76.5014 18.8037 76.4668 18.7763 76.4668 18.7426C76.4668 18.7088 76.5014 18.6814 76.5441 18.6814H83.7137C83.7564 18.6814 83.7911 18.7088 83.7911 18.7426C83.7911 18.7763 83.7564 18.8037 83.7137 18.8037Z" fill="#8F2682"/>
<path d="M76.2043 19.563C76.1629 19.563 76.1286 19.5371 76.127 19.5042C76.1254 19.4704 76.1587 19.442 76.2014 19.4407L83.7097 19.2176C83.7526 19.2166 83.7883 19.2426 83.7899 19.2764C83.7915 19.3101 83.7582 19.3385 83.7155 19.3398L76.2072 19.563C76.2062 19.563 76.2053 19.563 76.2043 19.563Z" fill="#8F2682"/>
<path d="M83.0916 20.2771H76.2043C76.1616 20.2771 76.127 20.2497 76.127 20.2159C76.127 20.1822 76.1616 20.1548 76.2043 20.1548H83.0916C83.1343 20.1548 83.1689 20.1822 83.1689 20.2159C83.1689 20.2497 83.1343 20.2771 83.0916 20.2771Z" fill="#8F2682"/>
<path d="M82.4151 21.1257H75.5773C75.5346 21.1257 75.5 21.0983 75.5 21.0646C75.5 21.0308 75.5346 21.0034 75.5773 21.0034H82.4151C82.4578 21.0034 82.4925 21.0308 82.4925 21.0646C82.4925 21.0983 82.4578 21.1257 82.4151 21.1257Z" fill="#8F2682"/>
<path d="M86.3229 30.0125C86.3139 29.9972 86.2974 29.9856 86.2772 29.9802C86.2152 29.9639 86.1051 29.9563 85.9304 29.9563C84.1245 29.9563 76.0653 30.8214 75.9841 30.8301C75.9563 30.8331 75.9327 30.8478 75.9225 30.8685L70.2045 42.4729C70.1945 42.4932 70.1989 42.5162 70.2161 42.5332C70.2309 42.5479 70.2532 42.5562 70.2765 42.5562C70.2803 42.5562 70.2841 42.556 70.2879 42.5556L80.5623 41.3501C80.5895 41.3469 80.6125 41.3326 80.6227 41.3124L86.3245 30.061C86.3324 30.0454 86.3319 30.0278 86.3229 30.0125Z" fill="#8F2682"/>
<path d="M76.0447 30.8436L75.6263 30.5715C75.6074 30.5592 75.5822 30.5548 75.5584 30.5594C75.5346 30.5641 75.5151 30.5775 75.5057 30.5954C74.511 32.4989 69.5488 42.0035 69.5488 42.185C69.5488 42.3947 70.092 42.5208 70.2585 42.5545C70.2648 42.5558 70.2713 42.5564 70.2776 42.5564C70.3088 42.5564 70.3379 42.5414 70.3496 42.5175L76.0676 30.9131C76.0798 30.8884 76.0706 30.8604 76.0447 30.8436Z" fill="#1A2D44"/>
<path d="M85.8835 29.9598C85.6952 29.9093 85.3465 29.8848 84.8174 29.8848C84.447 29.8848 83.9853 29.8973 83.4448 29.922C80.3919 30.0616 75.6152 30.5533 75.5673 30.5583C75.5368 30.5615 75.5115 30.5787 75.503 30.6021C75.4945 30.6255 75.5044 30.6507 75.5282 30.6662L75.9466 30.9383C75.9605 30.9473 75.9779 30.9522 75.9958 30.9522C75.9986 30.9522 76.0015 30.9521 76.0044 30.9518L85.8673 30.0785C85.9033 30.0753 85.9317 30.0528 85.9356 30.0243C85.9395 29.9959 85.9178 29.969 85.8835 29.9598Z" fill="#1A2D44"/>
<path d="M86.0492 29.7842L86.2542 30.0384L81.3331 30.4184L80.8398 30.1477L86.0492 29.7842Z" fill="#1A2D44"/>
<path d="M81.3323 30.4796C81.3166 30.4796 81.3012 30.4758 81.2882 30.4688L80.795 30.1981C80.7682 30.1834 80.756 30.157 80.7643 30.1321C80.7727 30.1072 80.7998 30.0892 80.8323 30.0869L86.0416 29.7234C86.0707 29.7214 86.0982 29.7322 86.1136 29.7514L86.3185 30.0057C86.333 30.0236 86.3346 30.0462 86.3228 30.0653C86.3111 30.0845 86.2876 30.0974 86.2608 30.0994L81.3398 30.4793C81.3373 30.4795 81.3348 30.4796 81.3323 30.4796ZM81.0587 30.1939L81.3531 30.3554L86.1204 29.9874L86.0085 29.8485L81.0587 30.1939Z" fill="#1A2D44"/>
</svg>
