<svg width="21" height="21" viewBox="0 0 21 21" fill="none" xmlns="http://www.w3.org/2000/svg">
<g id="Frame 110" clip-path="url(#clip0_596_4430)">
<path id="Vector" d="M2.36364 5.31818H18.7727M5.81818 1L9.27273 5.31818M11 1L14.4545 5.31818M4.04268 1.2903L16.9972 1.04913C18.4468 1.02215 19.6364 2.1898 19.6364 3.63959V17.4091C19.6364 18.84 18.4764 20 17.0455 20H4.09091C2.65999 20 1.5 18.84 1.5 17.4091V3.88076C1.5 2.46864 2.63081 1.31659 4.04268 1.2903ZM8.40909 9.90632V14.9608C8.40909 15.0915 8.54863 15.1749 8.66371 15.1129L13.7182 12.3912C13.8436 12.3237 13.838 12.142 13.7087 12.0823L8.6542 9.74949C8.53975 9.69667 8.40909 9.78027 8.40909 9.90632Z" stroke="#A3A3A5" stroke-width="2"/>
</g>
<defs>
<clipPath id="clip0_596_4430">
<rect width="20" height="21" fill="white" transform="translate(0.5)"/>
</clipPath>
</defs>
</svg>
