<svg width="140" height="92" viewBox="0 0 140 92" fill="none" xmlns="http://www.w3.org/2000/svg">
<path d="M46.1556 40.7744L37.2559 60.0406L37.8362 66.155L43.4018 68.0665L53.1359 46.4414L46.1556 40.7744Z" fill="#FE9F73"/>
<path d="M51.4411 52.0414L49.0177 56.8932L43.9531 52.2838C43.9531 52.2838 49.2695 45.4586 49.4444 45.5194C49.6194 45.5803 52.4814 50.4494 52.4814 50.4494L51.4411 52.0414Z" fill="#E82538"/>
<path d="M52.6612 89.7904L45.619 89.2186L45.5467 87.7383L45.4775 82.5168L52.75 83.255L52.6612 89.7904Z" fill="#FE9F73"/>
<path d="M33.6654 53.0862C33.6654 53.0862 48.8554 54.9917 50.9788 57.714C52.0256 59.0561 54.2361 78.716 53.3514 86.2061C53.3514 86.2061 46.9011 86.3309 44.8743 85.9761L44.6216 66.0323L32.9576 62.5051L26.9688 53.304L33.6654 53.0862Z" fill="#3AA1C9"/>
<path d="M47.7071 91.6007L57.3231 91.5983C57.4099 91.5844 57.4808 91.5693 57.5324 91.5529C58.1492 91.3564 58.2008 90.9957 58.1718 90.7874C58.1589 90.6949 58.1053 90.613 58.026 90.5616L52.7141 87.1226L50.9591 87.8989C50.4006 88.1474 49.8053 88.3058 49.1953 88.3643C47.9498 88.4839 45.9514 88.5487 45.5547 87.7751L45.6174 90.7438C45.6174 90.7438 45.3269 91.6237 47.7071 91.6007Z" fill="#EF3A4C"/>
<path d="M68.0656 87.5011L61.4056 89.8601L60.7342 88.5389L58.5352 83.8026L65.4733 81.5012L68.0656 87.5011Z" fill="#FE9F73"/>
<path d="M64.28 91.1834L73.0537 87.2478C73.1272 87.1996 73.1857 87.1569 73.2261 87.1208C73.7085 86.6891 73.608 86.3389 73.4964 86.1608C73.4468 86.0816 73.3643 86.0288 73.2709 86.0144L67.017 85.0491L65.7332 86.4754C65.3252 86.9306 64.8468 87.3186 64.3141 87.6216C63.2265 88.2401 61.4295 89.1166 60.751 88.5731L62.0225 91.2564C62.0226 91.2563 62.1223 92.0355 64.28 91.1834Z" fill="#EF3A4C"/>
<path d="M50.9377 86.3682C47.9984 86.3682 44.9121 86.0473 44.8723 86.0431L44.8125 86.0368L44.5928 68.6929L44.728 68.6912L44.9463 85.9146C45.5294 85.9734 50.2237 86.4255 53.3504 86.1385L53.3628 86.2732C52.6176 86.3415 51.7835 86.3682 50.9377 86.3682Z" fill="black"/>
<path d="M37.1609 90.2517H31.6462V69.1465H30.421V90.2517H25.0495C24.3 90.2517 23.6924 90.8593 23.6924 91.6088H30.421H31.6462H38.518C38.518 90.8593 37.9104 90.2517 37.1609 90.2517Z" fill="#F07162"/>
<path d="M15.0859 39.5022H25.5016C26.8233 39.5022 27.9698 40.4152 28.2656 41.7033L34.4648 68.6922L19.9412 67.178L15.0859 39.5022Z" fill="#FEC786"/>
<path d="M44.1164 65.7192C44.1164 65.7192 27.4602 65.7194 22.4895 65.7194C21.6874 65.7194 20.9997 65.1469 20.854 64.3581L16.4345 40.4312C16.3158 39.7884 15.6875 39.3683 15.0438 39.511C14.4307 39.647 14.0476 40.2617 14.1617 40.8793L19.1683 67.9849C19.2071 68.195 19.3012 68.3805 19.4316 68.5311C19.7538 69.1296 20.386 69.5365 21.1133 69.5365H44.1164C45.1705 69.5365 46.025 68.682 46.025 67.6278C46.0251 66.5737 45.1705 65.7192 44.1164 65.7192Z" fill="#F99247"/>
<path d="M22.4841 65.8118C21.6372 65.8118 20.9109 65.2073 20.7571 64.3743L16.3376 40.4475C16.2846 40.1606 16.1215 39.914 15.8782 39.7528C15.6351 39.5918 15.3442 39.5379 15.0586 39.6013C15.0085 39.6124 14.9587 39.5808 14.9475 39.5305C14.9364 39.4803 14.9681 39.4306 15.0183 39.4195C15.3536 39.3452 15.6954 39.4085 15.981 39.5976C16.2668 39.7869 16.4584 40.0767 16.5206 40.4136L20.9401 64.3405C21.0776 65.0851 21.727 65.6256 22.4841 65.6256C22.5356 65.6256 22.5772 65.6673 22.5772 65.7186C22.5772 65.7701 22.5355 65.8118 22.4841 65.8118Z" fill="#21111D"/>
<path d="M30.294 70.005H30.2939L21.2715 69.9889C18.8411 70.2079 18.5517 68.1282 18.5379 68.014L18.0016 65.11C17.9922 65.0594 18.0256 65.0109 18.0762 65.0015C18.1269 64.9923 18.1753 65.0256 18.1846 65.0761L18.7226 67.9907C18.731 68.0734 18.9552 70.0132 21.2589 69.8031L21.2675 69.8027L30.2942 69.8189C30.3456 69.819 30.3872 69.8607 30.3871 69.9122C30.387 69.9634 30.3454 70.005 30.294 70.005Z" fill="#21111D"/>
<path d="M19.9658 39.5952C19.9658 39.5952 19.9657 39.5952 19.9656 39.5952L15.5304 39.5887C15.479 39.5887 15.4374 39.5469 15.4375 39.4955C15.4376 39.4441 15.4792 39.4026 15.5305 39.4026H15.5307L19.9658 39.4091C20.0173 39.4091 20.0588 39.4509 20.0587 39.5023C20.0588 39.5537 20.0171 39.5952 19.9658 39.5952Z" fill="#21111D"/>
<path d="M67.7934 39.8042C67.7934 39.8042 66.9526 38.03 63.4043 38.7828L63.722 39.4538L65.5988 39.2945L67.7934 39.8042Z" fill="#21111D"/>
<path d="M65.4117 45.8413L60.2551 45.6668C60.2551 45.6668 58.5096 45.68 58.343 44.157L56.0079 44.3613C55.1399 44.4372 54.3297 43.8955 54.0947 43.0616C53.9798 42.6538 53.9022 42.169 53.9207 41.6229C53.9793 39.8907 55.3184 38.9967 55.9769 38.8745C56.6354 38.7523 59.7437 39.291 59.7437 39.291L61.2801 39.2901L67.2195 39.6885L65.4117 45.8413Z" fill="#FE9F73"/>
<path d="M63.9826 39.2393C64.0069 38.5218 63.4413 37.9204 62.7193 37.896C61.9974 37.8715 61.3924 38.4334 61.3682 39.1508C61.3439 39.8683 61.9095 40.4697 62.6314 40.4942C63.3534 40.5186 63.9584 39.9567 63.9826 39.2393Z" fill="#FE9F73"/>
<path d="M61.883 39.0704C61.8921 38.8005 62.1024 38.6272 62.3083 38.5747C62.552 38.5127 62.7837 38.6011 62.8988 38.7999C63.0687 39.0937 62.9446 39.3506 62.8516 39.4812C63.0019 39.4302 63.1129 39.3459 63.1824 39.2299C63.3328 38.9787 63.2403 38.6578 63.2393 38.6545C63.2336 38.6354 63.2446 38.6154 63.2639 38.6097C63.2831 38.6041 63.3033 38.615 63.309 38.6341C63.3133 38.6484 63.4115 38.9877 63.2451 39.2663C63.1491 39.4271 62.985 39.5332 62.7576 39.5816L62.6301 39.6088L62.7251 39.52C62.7386 39.5074 63.0513 39.2087 62.8357 38.8359C62.7164 38.6294 62.4867 38.6038 62.3264 38.6447C62.16 38.6871 61.964 38.8245 61.9556 39.0725C61.9555 39.075 61.9557 39.0774 61.9555 39.08C61.9548 39.0997 61.9384 39.1153 61.9184 39.1149C61.8984 39.1145 61.8824 39.098 61.8828 39.078C61.8829 39.0755 61.8829 39.0729 61.883 39.0704Z" fill="#F07162"/>
<path d="M61.0617 45.9457C61.0617 45.9457 57.5536 46.2995 57.5075 43.9909C57.4416 40.6876 59.3461 40.4323 60.9021 40.2888L64.1011 40.3639L65.0256 40.5012C64.7525 40.7253 64.4148 40.8564 64.0611 40.8758C63.2919 40.9181 61.2202 41.0171 61.1224 41.2042C60.9842 41.4685 61.4155 45.4438 61.0617 45.9457Z" fill="#21111D"/>
<path d="M61.1348 43.7356C61.1353 43.7204 61.1454 43.7066 61.1609 43.7021C61.1801 43.6966 61.2003 43.7075 61.206 43.7266L61.4222 44.4582L63.1432 44.2876C63.1631 44.2856 63.181 44.3001 63.1829 44.3199C63.1855 44.34 63.1704 44.3575 63.1504 44.3594L61.3695 44.536L61.1363 43.7469C61.1351 43.7432 61.1346 43.7393 61.1348 43.7356Z" fill="#F07162"/>
<path d="M64.9649 40.4918L65.5813 39.8597L63.9819 39.1299C63.9819 39.1299 63.8157 39.9596 62.9475 39.9448C62.0794 39.9299 60.7405 39.4157 58.743 40.8526C56.7454 42.2894 61.6529 40.8299 61.8222 40.8211C61.9915 40.8123 64.9649 40.4918 64.9649 40.4918Z" fill="#21111D"/>
<path d="M67.7942 39.8042C68.4609 40.5234 68.7734 42.95 67.6771 44.6369L67.679 44.6371C66.6535 46.5654 64.7218 45.8833 64.6661 45.8162L64.6864 45.7915C64.641 45.7999 64.5956 45.8074 64.5501 45.8123C64.5501 45.8123 64.6845 45.7344 64.8728 45.5645L65.4894 44.8135C65.7472 44.3899 65.9766 43.8172 66.0508 43.0691C66.1246 42.3263 66.1052 41.6748 65.9592 41.1355C65.5211 40.9795 64.6472 40.835 62.913 40.9422C60.2677 41.1057 63.5052 40.0622 64.7442 39.6848C64.5182 39.5871 64.2632 39.5131 63.9695 39.4704C63.9695 39.4704 66.4579 38.363 67.7942 39.8042Z" fill="#21111D"/>
<path d="M63.9551 45.7922C63.9551 45.7922 65.0117 45.8795 65.2453 45.8364C65.479 45.7934 66.2244 43.4598 66.0911 42.1637C65.9577 40.8675 64.4523 43.3203 64.4514 43.3493C64.4504 43.3783 63.9551 45.7922 63.9551 45.7922Z" fill="#FE9F73"/>
<path d="M65.8523 41.3784L67.0543 40.1709L65.3184 41.2878L65.8523 41.3784Z" fill="#FE9F73"/>
<path d="M68.1333 41.4557C68.1333 41.4557 70.6255 41.794 70.129 40.3839C69.6324 38.9737 68.488 38.6955 67.6842 39.931C66.8803 41.1666 68.1333 41.4557 68.1333 41.4557Z" fill="#21111D"/>
<path d="M63.4219 42.4723C63.427 42.4852 63.4278 42.5001 63.4231 42.5143C63.2546 43.0162 63.6426 43.4781 63.6464 43.4827C63.6684 43.5085 63.6653 43.5469 63.6397 43.5688C63.6141 43.5907 63.5755 43.5877 63.5536 43.5621C63.5357 43.5411 63.1171 43.0422 63.3072 42.4755C63.318 42.4435 63.3526 42.4263 63.3846 42.437C63.4023 42.443 63.4155 42.4562 63.4219 42.4723Z" fill="#21111D"/>
<path d="M62.3546 42.901C62.3543 42.8976 62.354 42.8941 62.3537 42.8906C62.323 42.5258 62.6367 42.4124 62.6399 42.4113C62.6572 42.4053 62.6759 42.4144 62.6819 42.4316C62.6879 42.4486 62.6788 42.4676 62.6616 42.4736C62.6507 42.4775 62.3931 42.5723 62.4195 42.8851C62.4197 42.8882 62.42 42.8913 62.4203 42.8943C62.4507 43.1944 62.7055 43.1952 62.7165 43.195C62.7348 43.1948 62.7494 43.2098 62.7499 43.2277C62.75 43.2459 62.7354 43.2609 62.7172 43.261C62.7139 43.261 62.391 43.2603 62.3546 42.901Z" fill="black"/>
<path d="M62.5792 45.1217C62.5789 45.1183 62.5786 45.1148 62.5783 45.1113C62.5476 44.7465 62.8614 44.6331 62.8645 44.632C62.8818 44.626 62.9005 44.6351 62.9065 44.6523C62.9125 44.6694 62.9034 44.6884 62.8862 44.6943C62.8744 44.6986 62.6178 44.7935 62.644 45.1058C62.6442 45.1089 62.6446 45.112 62.6449 45.115C62.6752 45.4151 62.9301 45.4159 62.9411 45.4157C62.9593 45.4155 62.974 45.4303 62.9744 45.4484C62.9746 45.4666 62.96 45.4816 62.9417 45.4817C62.9385 45.4817 62.6156 45.481 62.5792 45.1217Z" fill="black"/>
<path d="M60.3128 43.217C60.3115 43.2064 60.3149 43.1952 60.323 43.1869C60.3373 43.1721 60.3608 43.1717 60.3755 43.186C60.8492 43.6447 60.514 44.1533 60.5105 44.1584C60.4991 44.1754 60.476 44.1798 60.459 44.1683C60.442 44.1569 60.4375 44.1338 60.4489 44.1167C60.4615 44.0981 60.752 43.6541 60.3238 43.2394C60.3174 43.2332 60.3137 43.2252 60.3128 43.217Z" fill="#F07162"/>
<path d="M63.7162 45.4434C63.719 45.4298 63.7172 45.4151 63.7099 45.4019C63.4554 44.9376 63.7555 44.4144 63.7586 44.4092C63.7757 44.38 63.7658 44.3428 63.7368 44.3257C63.7077 44.3087 63.6703 44.3185 63.6532 44.3476C63.6393 44.3714 63.3155 44.9365 63.6029 45.4606C63.6191 45.4902 63.6562 45.501 63.6857 45.4848C63.7021 45.4758 63.7127 45.4604 63.7162 45.4434Z" fill="#21111D"/>
<path d="M24.0153 55.3583C24.0153 55.3583 21.6935 63.6005 26.9726 65.4065C32.2518 67.2126 50.3084 65.812 50.3084 65.812L58.3455 86.2707C58.3455 86.2707 63.8661 85.525 66.4362 82.1087C66.4362 82.1087 58.8431 59.1569 55.7172 57.6982C52.5914 56.2395 39.2546 53.9473 39.2546 53.9473L24.0153 55.3583Z" fill="#4CB7D8"/>
<path d="M58.3026 86.3458L58.2829 86.2954L53.4971 74.1129L53.623 74.0635L58.3887 86.195C58.9695 86.0947 64.1113 85.1296 66.3823 82.0684L66.4909 82.149C64.061 85.4246 58.4129 86.3288 58.3561 86.3376L58.3026 86.3458Z" fill="black"/>
<path d="M49.2322 39.604L48.4135 60.8107L48.4023 72.1071L54.2753 71.7348L57.8535 42.156L49.2322 39.604Z" fill="#FE9F73"/>
<path d="M54.4839 73.0975C54.4939 72.9617 54.931 67.546 54.9046 67.3367C52.9314 66.4955 51.3861 69.3576 49.2144 68.4288C49.6785 69.6427 48.8586 71.918 49.0106 72.249L47.5726 74.4747L47.1217 74.9443C46.9083 75.1665 46.9164 75.5809 47.1397 75.8699C47.363 76.1589 47.717 76.2132 47.9303 75.991L47.7416 76.1875C47.5283 76.4097 47.5363 76.8241 47.7596 77.1131C47.9829 77.4021 48.3369 77.4563 48.5502 77.2342C48.3369 77.4564 48.345 77.8708 48.5682 78.1598C48.7915 78.4489 49.1455 78.503 49.3589 78.2809L49.5476 78.0844C49.3342 78.3066 49.3423 78.721 49.5656 79.01C49.5785 79.0268 49.5921 79.0426 49.6059 79.0578L49.606 79.058L49.6061 79.0581C49.6222 79.0758 49.6387 79.0924 49.6557 79.1079C49.9125 79.3533 50.121 79.3915 50.2782 79.3315C50.6056 79.2068 51.9149 77.739 52.543 77.0611C53.5362 76.0201 54.3635 74.7278 54.4839 73.0975Z" fill="#FE9F73"/>
<path d="M49.3473 78.2997C49.3537 78.3095 49.3619 78.3184 49.3718 78.3259C49.4167 78.3594 49.4802 78.3501 49.5137 78.3052L51.9681 75.0128C52.0016 74.9679 51.992 74.9046 51.9475 74.8709C51.9025 74.8375 51.839 74.8467 51.8056 74.8916L49.3512 78.184C49.3251 78.219 49.325 78.2651 49.3473 78.2997Z" fill="#F07162"/>
<path d="M48.3746 77.3711C48.381 77.381 48.3892 77.3899 48.3992 77.3974C48.4441 77.4308 48.5076 77.4215 48.5411 77.3767L50.7676 74.39C50.8011 74.3451 50.7915 74.2819 50.7469 74.2481C50.702 74.2147 50.6385 74.2239 50.6051 74.2687L48.3785 77.2554C48.3524 77.2904 48.3523 77.3366 48.3746 77.3711Z" fill="#F07162"/>
<path d="M55.2323 63.8833C54.9624 66.34 54.4364 73.0707 54.2852 74.0133C54.0733 75.3344 48.3076 73.5301 48.3076 73.5301C48.3076 73.5301 48.318 64.3951 48.4207 60.8103L55.2323 63.8833Z" fill="#FE9F73"/>
<path d="M47.7028 76.1921C47.7092 76.202 47.7174 76.2109 47.7273 76.2183C47.7722 76.2518 47.8357 76.2425 47.8691 76.1977L49.6586 73.7972C49.6922 73.7523 49.6826 73.689 49.638 73.6553C49.593 73.6219 49.5295 73.6311 49.4961 73.676L47.7066 76.0765C47.6806 76.1114 47.6804 76.1575 47.7028 76.1921Z" fill="#F07162"/>
<path d="M36.1466 40.4029C44.2999 35.9433 54.2734 37.086 57.2613 38.8268C57.4187 38.9185 57.6907 39.175 57.8131 39.3319C58.0811 39.6755 58.2235 40.0644 58.4474 40.631C59.1261 42.3483 56.7805 54.7484 56.7805 54.7484C56.7805 54.7484 50.7522 54.5479 47.7526 53.4161L48.4439 46.9062C48.4439 46.9062 46.703 50.658 45.0946 54.3238C43.8716 57.1114 41.8347 57.7233 41.8347 57.7233C41.8347 57.7233 35.3402 60.6143 23.4473 56.0301C23.4473 56.0301 27.9932 44.8626 36.1466 40.4029Z" fill="#FF424D"/>
<path d="M63.0557 91.5609H61.9893L63.913 47.5107H66.0459L63.0557 91.5609Z" fill="#21111D"/>
<path d="M100.405 91.5991H101.472L99.5479 47.5105H97.415L100.405 91.5991Z" fill="#21111D"/>
<path d="M99.4082 59.6895H64.46V60.3841H99.4082V59.6895Z" fill="#21111D"/>
<path d="M99.8772 71.1238H63.9932V71.8184H99.8772V71.1238Z" fill="#21111D"/>
<path d="M56.8561 54.8388L56.7816 54.8386C51.3569 54.8267 47.7582 53.5139 47.7224 53.5006L47.6559 53.4759L48.4974 46.4904L48.1308 45.0093L48.3059 44.966L48.6803 46.4791L47.8521 53.3551C48.3636 53.5317 51.7617 54.6362 56.7073 54.658C56.8731 53.7888 58.4376 45.5034 58.4819 42.2699L58.4822 42.2524C58.4977 41.1198 58.5237 39.2243 56.2533 38.4117C53.9339 37.5816 48.0885 36.7823 42.2763 38.1722L42.2344 37.9968C48.0847 36.598 53.9752 37.4048 56.314 38.242C58.7058 39.0981 58.6787 41.0742 58.6626 42.2549L58.6623 42.2723C58.6156 45.6856 56.8878 54.6751 56.8704 54.7655L56.8561 54.8388Z" fill="black"/>
<path d="M38.1595 58.6097L38.1504 58.4297C38.1857 58.4278 41.7062 58.2317 43.5025 56.5397C45.3085 54.8386 48.4726 46.5366 48.5044 46.4529L48.673 46.5169C48.5428 46.86 45.4623 54.9415 43.6261 56.6709C41.7811 58.4089 38.3065 58.6024 38.1595 58.6097Z" fill="black"/>
<path d="M26.9182 51.7407L25.3311 53.9065L25.4402 53.9864L27.0273 51.8206L26.9182 51.7407Z" fill="black"/>
<path d="M26.3942 53.4016L25.3262 55.1953L25.4424 55.2645L26.5105 53.4708L26.3942 53.4016Z" fill="black"/>
<path d="M38.6325 66.3104C34.3737 66.3105 29.3944 66.151 26.9483 65.4935C24.9579 64.9584 23.7725 63.1686 23.5202 60.3174C23.3312 58.1813 23.7338 56.1763 23.7379 56.1562L23.9146 56.1924C23.9105 56.2121 23.5127 58.1948 23.7 60.3051C23.9492 63.1116 25.0579 64.7986 26.9951 65.3194C31.6978 66.5834 45.8741 65.9943 46.0167 65.9883L46.0244 66.1685C45.9555 66.1714 42.6078 66.3104 38.6325 66.3104Z" fill="black"/>
<path d="M58.0664 42.2918L57.9337 42.2656C58.0797 41.5246 57.8693 40.7209 57.8672 40.7129L57.9979 40.678C58.0069 40.712 58.2185 41.5194 58.0664 42.2918Z" fill="black"/>
<path d="M57.578 42.5903L57.4454 42.5642C57.5916 41.8222 57.3811 41.0195 57.3789 41.0114L57.5096 40.9766C57.5186 41.0105 57.7302 41.8179 57.578 42.5903Z" fill="black"/>
<path d="M125.525 69.4329C125.525 69.4329 125.087 63.3295 122.718 64.5141C120.349 65.6988 118.417 73.4762 118.16 73.708C117.902 73.9397 117.98 81.0475 117.98 81.0475L120.735 79.6572C120.735 79.6572 121.468 62.6679 125.525 69.4329Z" fill="#258D8C"/>
<path d="M122.872 56.7961C122.872 56.7961 117.563 61.5462 116.114 69.6906C114.666 77.835 119.243 80.2319 119.243 80.2319C119.243 80.2319 119.895 63.1071 122.872 56.7961Z" fill="#7FC6A6"/>
<path d="M113.022 81.3309C113.022 81.3309 112.133 63.9933 107.652 56.4763C107.652 56.4763 115.519 61.1697 118.128 73.4887C118.275 74.1822 118.362 74.9531 118.473 75.6956C118.589 76.468 118.658 77.1519 118.64 77.8346C118.609 79.0409 118.441 80.0775 118.392 80.8393C117.967 87.4217 113.022 81.3309 113.022 81.3309Z" fill="#258D8C"/>
<path d="M113.174 73.9685C112.869 71.4967 111.93 69.1404 110.422 67.1586C109.332 65.7269 108.071 64.6389 107.086 65.4154C104.897 67.1408 104.459 77.8541 104.459 77.8541C104.459 77.8541 106.931 70.4372 108.013 70.9265C109.095 71.4158 110.099 81.4852 110.099 81.4852L114.142 81.82L113.174 73.9685Z" fill="#7FC6A6"/>
<path d="M118.687 80.7256C118.853 76.9404 118.379 73.3075 117.276 69.9277C116.394 67.2235 115.111 64.6746 113.462 62.3516C110.654 58.3958 107.716 56.441 107.687 56.4216L107.615 56.531C107.644 56.5502 110.565 58.4944 113.359 62.4321C115.937 66.0649 118.931 72.1867 118.557 80.7199L118.687 80.7256Z" fill="#21111D"/>
<path d="M119.307 80.2342C119.308 80.1915 119.475 75.8965 120.004 70.8866C120.492 66.2659 121.395 60.0755 122.929 56.8239L122.811 56.7681C121.269 60.0364 120.363 66.2427 119.874 70.8736C119.345 75.8879 119.177 80.1864 119.176 80.2293L119.307 80.2342Z" fill="#21111D"/>
<path d="M120.8 79.6604C120.801 79.6324 120.925 76.8402 121.336 74.0107C121.875 70.2903 122.655 68.197 123.591 67.9571C124.143 67.8156 124.775 68.3236 125.468 69.4672L125.58 69.3993C124.853 68.2007 124.173 67.6727 123.558 67.8305C122.553 68.0881 121.761 70.1615 121.206 73.9928C120.795 76.8287 120.67 79.6268 120.669 79.6547L120.8 79.6604Z" fill="#21111D"/>
<path d="M114.076 81.8279L114.206 81.8119L113.238 73.9604C112.928 71.455 111.973 69.0893 110.473 67.1189C109.523 65.8713 108.68 65.1927 107.966 65.1021C107.629 65.0592 107.319 65.1474 107.044 65.3639C106.123 66.0904 105.396 68.415 104.886 72.2731C104.507 75.1369 104.394 77.8244 104.393 77.8512L104.523 77.8566C104.528 77.7498 104.985 67.1539 107.125 65.4666C107.371 65.2726 107.649 65.1937 107.95 65.2318C108.627 65.3179 109.441 65.9794 110.369 67.1981C111.854 69.1501 112.801 71.494 113.108 73.9764L114.076 81.8279Z" fill="#21111D"/>
<path d="M109.882 72.1431L109.766 72.2031L110.615 73.85L110.731 73.79L109.882 72.1431Z" fill="#21111D"/>
<path d="M109.871 73.2574L109.757 73.3206L110.606 74.8628L110.721 74.7996L109.871 73.2574Z" fill="#21111D"/>
<path d="M119.285 62.3325L118.559 63.9268L118.678 63.981L119.404 62.3868L119.285 62.3325Z" fill="#21111D"/>
<path d="M119.187 63.5728L118.569 64.6882L118.684 64.7517L119.302 63.6362L119.187 63.5728Z" fill="#21111D"/>
<path d="M123.352 65.0999L122.116 65.73L122.176 65.8466L123.412 65.2166L123.352 65.0999Z" fill="#21111D"/>
<path d="M122.83 65.8252L122.099 66.27L122.167 66.3818L122.898 65.937L122.83 65.8252Z" fill="#21111D"/>
<path d="M122.139 79.2164C122.139 79.2164 121.909 91.8915 118.514 91.5942H115.844H115.415H112.746C109.351 91.8915 109.12 79.2164 109.12 79.2164C112.333 78.7309 118.927 78.7309 122.139 79.2164Z" fill="#F75553"/>
<path d="M110.481 80.8302L110.386 80.9202L114.095 84.8376L114.19 84.7476L110.481 80.8302Z" fill="#21111D"/>
<path d="M111.572 83.3719L111.474 83.4578L113.516 85.8063L113.615 85.7205L111.572 83.3719Z" fill="#21111D"/>
<path d="M104.036 47.777H59.7548C59.5564 47.777 59.3955 47.6162 59.3955 47.4177V46.9901C59.3955 46.7917 59.5563 46.6309 59.7548 46.6309H104.036C104.234 46.6309 104.395 46.7917 104.395 46.9901V47.4177C104.395 47.6162 104.234 47.777 104.036 47.777Z" fill="#F7AB48"/>
<path d="M92.1964 82.8623H75.8926V91.5206H92.1964V82.8623Z" fill="#FEC786"/>
<g opacity="0.3">
<path d="M92.1991 82.8625H86.9824V91.5208H92.1991V82.8625Z" fill="#FEC786"/>
</g>
<path d="M93.027 82.8623H75.0635V84.3757H93.027V82.8623Z" fill="#F9B870"/>
<path d="M93.0947 84.4433H75.0635V84.3081H92.9594V82.9299H89.2557V82.7947H93.0947V84.4433Z" fill="black"/>
<g opacity="0.5">
<path d="M93.0289 82.8625H86.9824V84.3759H93.0289V82.8625Z" fill="#F9B870"/>
</g>
<g opacity="0.5">
<path d="M84.8118 85.0486H77.7441V86.6987H84.8118V85.0486Z" fill="#F3FFFE"/>
</g>
<g opacity="0.5">
<path d="M84.8118 89.3169H77.7441V89.4834H84.8118V89.3169Z" fill="#F3FFFE"/>
</g>
<g opacity="0.5">
<path d="M84.8118 88.4084H77.7441V88.575H84.8118V88.4084Z" fill="#F3FFFE"/>
</g>
<path d="M92.265 91.5885H75.8936V91.4532H92.1297V84.376H92.265V91.5885Z" fill="black"/>
<path d="M90.9302 76.2H78.3838V82.8629H90.9302V76.2Z" fill="#4CB7D8"/>
<g opacity="0.5">
<path d="M82.3983 76.2H78.3838V82.8629H82.3983V76.2Z" fill="#4CB7D8"/>
</g>
<path d="M91.5688 76.2H77.7451V77.3646H91.5688V76.2Z" fill="#4CB7D8"/>
<path d="M91.567 77.432H77.6758V76.1321H80.6456V76.2673H77.811V77.2967H91.567V77.432Z" fill="black"/>
<g opacity="0.5">
<path d="M82.3981 76.2H77.7451V77.3646H82.3981V76.2Z" fill="#4CB7D8"/>
</g>
<g opacity="0.5">
<path d="M84.066 79.1519H89.5049V77.8821H84.066V79.1519Z" fill="#F3FFFE"/>
</g>
<g opacity="0.5">
<path d="M84.066 81.2947H89.5049V81.1665H84.066V81.2947Z" fill="#F3FFFE"/>
</g>
<g opacity="0.5">
<path d="M84.066 80.5957H89.5049V80.4676H84.066V80.5957Z" fill="#F3FFFE"/>
</g>
<path d="M90.9284 82.9302H78.3145V77.3643H78.4497V82.7949H90.9284V82.9302Z" fill="black"/>
<path d="M64.3892 34.6678L63 27.9287L65.0343 29.0147L65.0459 23.7227L66.7336 31.187L64.7237 30.3654L64.3892 34.6678Z" fill="#F7AB48"/>
<path d="M68.0322 37.2619L69.8306 32.6586L70.6315 34.1083L72.708 30.9246L70.8057 36.0816L69.9161 34.8006L68.0322 37.2619Z" fill="#F7AB48"/>
<path d="M58.0118 37.5434L55.2471 33.4469L56.8951 33.6122L55.4564 30.094L58.6175 34.5907L57.0579 34.5943L58.0118 37.5434Z" fill="#F7AB48"/>
<path d="M101.388 39.9043H88.8418V46.5672H101.388V39.9043Z" fill="#FEBAC7"/>
<path d="M101.386 39.9043H97.3711V46.5672H101.386V39.9043Z" fill="#FEBAC7"/>
<path d="M102.027 39.9043H88.2031V41.0689H102.027V39.9043Z" fill="#FEBAC7"/>
<path d="M102.093 41.1365H88.2021V41.0013H101.958V39.9043H102.093V41.1365Z" fill="black"/>
<path d="M102.024 39.9043H97.3711V41.0689H102.024V39.9043Z" fill="#FEBAC7"/>
<g opacity="0.5">
<path d="M95.7015 41.5864H90.2627V42.8562H95.7015V41.5864Z" fill="#F3FFFE"/>
</g>
<g opacity="0.5">
<path d="M95.7015 44.8711H90.2627V44.9992H95.7015V44.8711Z" fill="#F3FFFE"/>
</g>
<g opacity="0.5">
<path d="M95.7015 44.1721H90.2627V44.3003H95.7015V44.1721Z" fill="#F3FFFE"/>
</g>
<path d="M101.455 46.6346H88.8408V46.4993H101.32V41.0686H101.455V46.6346Z" fill="black"/>
<path d="M100.696 37.4818C100.696 37.4818 100.199 38.7297 100.614 39.6744L91.0755 39.7452L90.1953 39.6643L89.4199 39.1829L89.4206 38.4473L89.6369 37.8393L90.3414 37.4719L100.696 37.4818Z" fill="white"/>
<path d="M90.6307 39.8666L100.936 39.8764C101.003 39.8765 101.058 39.8221 101.058 39.755C101.058 39.6879 101.004 39.6334 100.936 39.6334L90.6309 39.6235C90.0089 39.6229 89.5032 39.1528 89.5038 38.5756C89.5044 37.9984 90.0109 37.5293 90.633 37.5299L100.938 37.5398C101.006 37.5399 101.06 37.4855 101.06 37.4184C101.06 37.3513 101.006 37.2968 100.939 37.2968L90.6332 37.2869C89.8771 37.2861 89.2614 37.8642 89.2607 38.5754C89.2601 39.2866 89.8747 39.8658 90.6307 39.8666Z" fill="#258D8C"/>
<path d="M95.4977 38.6082L100.555 38.613C100.57 38.613 100.582 38.601 100.582 38.5861C100.582 38.5712 100.57 38.5591 100.555 38.5591L95.4977 38.5542C95.4828 38.5542 95.4707 38.5662 95.4707 38.5812C95.4707 38.5961 95.4827 38.6082 95.4977 38.6082Z" fill="#AAC9F8"/>
<path d="M89.8766 38.6028L94.7899 38.6075C94.8049 38.6075 94.817 38.5955 94.817 38.5805C94.817 38.5656 94.8049 38.5535 94.79 38.5535L89.8766 38.5488C89.8617 38.5488 89.8496 38.5609 89.8496 38.5758C89.8496 38.5907 89.8617 38.6028 89.8766 38.6028Z" fill="#AAC9F8"/>
<path d="M90.0045 39.0872L92.5254 39.0896C92.5403 39.0896 92.5524 39.0776 92.5524 39.0627C92.5524 39.0477 92.5404 39.0356 92.5255 39.0356L90.0046 39.0332C89.9896 39.0332 89.9775 39.0452 89.9775 39.0602C89.9775 39.0751 89.9896 39.0872 90.0045 39.0872Z" fill="#AAC9F8"/>
<path d="M92.8952 39.0901L100.555 39.0975C100.57 39.0975 100.582 39.0854 100.582 39.0705C100.582 39.0556 100.57 39.0435 100.555 39.0435L92.8952 39.0361C92.8803 39.0361 92.8682 39.0482 92.8682 39.0631C92.8682 39.078 92.8802 39.0901 92.8952 39.0901Z" fill="#AAC9F8"/>
<path d="M89.5244 34.9153C89.5244 34.9153 90.0194 36.1641 89.6024 37.108L99.1409 37.1971L100.021 37.1179L100.798 36.638L100.798 35.9023L100.583 35.294L99.8793 34.9252L89.5244 34.9153Z" fill="white"/>
<path d="M99.5851 37.3191L89.2796 37.3092C89.2125 37.3092 89.1581 37.2547 89.1582 37.1876C89.1583 37.1204 89.2127 37.0661 89.2798 37.0662L99.5854 37.0761C100.207 37.0766 100.714 36.6075 100.715 36.0303C100.715 35.4531 100.209 34.9831 99.5874 34.9824L89.2819 34.9726C89.2147 34.9725 89.1604 34.918 89.1605 34.8509C89.1605 34.7838 89.215 34.7294 89.2821 34.7295L99.5876 34.7394C100.344 34.7401 100.958 35.3193 100.958 36.0306C100.957 36.7418 100.341 37.3199 99.5851 37.3191Z" fill="#FC4963"/>
<path d="M89.6656 36.0467L94.723 36.0515C94.738 36.0515 94.75 36.0395 94.75 36.0246C94.75 36.0096 94.738 35.9975 94.7231 35.9975L89.6657 35.9927C89.6508 35.9927 89.6387 36.0047 89.6387 36.0196C89.6387 36.0346 89.6507 36.0466 89.6656 36.0467Z" fill="#AAC9F8"/>
<path d="M95.4361 36.0523L100.35 36.057C100.364 36.057 100.377 36.0449 100.377 36.03C100.377 36.0151 100.364 36.003 100.35 36.003L95.4362 35.9983C95.4213 35.9983 95.4092 36.0103 95.4092 36.0253C95.4092 36.0402 95.4212 36.0523 95.4361 36.0523Z" fill="#AAC9F8"/>
<path d="M97.6959 36.5384L100.217 36.5408C100.232 36.5408 100.244 36.5287 100.244 36.5138C100.244 36.4989 100.232 36.4868 100.217 36.4868L97.696 36.4844C97.681 36.4844 97.6689 36.4964 97.6689 36.5113C97.6689 36.5263 97.681 36.5384 97.6959 36.5384Z" fill="#AAC9F8"/>
<path d="M89.6637 36.5303L97.3238 36.5377C97.3388 36.5377 97.3508 36.5256 97.3508 36.5107C97.3508 36.4958 97.3388 36.4837 97.3239 36.4837L89.6637 36.4763C89.6488 36.4763 89.6367 36.4884 89.6367 36.5033C89.6368 36.5182 89.6488 36.5303 89.6637 36.5303Z" fill="#AAC9F8"/>
<path d="M89.2812 37.3359L99.5867 37.3458C100.358 37.3465 100.986 36.7564 100.986 36.0302C100.987 35.3041 100.36 34.7128 99.5893 34.712L89.2837 34.7021C89.2018 34.7021 89.1351 34.7686 89.1351 34.8505C89.135 34.9324 89.2016 34.9991 89.2835 34.9992C89.2984 34.9992 89.3105 34.9872 89.3105 34.9722C89.3105 34.9573 89.2984 34.9452 89.2835 34.9452C89.2314 34.9452 89.189 34.9027 89.1891 34.8506C89.1891 34.7985 89.2316 34.7561 89.2837 34.7561L99.5892 34.766C100.33 34.7668 100.933 35.3338 100.932 36.0302C100.932 36.7265 100.328 37.2925 99.5868 37.2917L89.2812 37.2818C89.2291 37.2818 89.1867 37.2393 89.1868 37.1872C89.1869 37.1351 89.2293 37.0927 89.2814 37.0928C89.2963 37.0928 89.3084 37.0807 89.3084 37.0658C89.3084 37.0509 89.2964 37.0388 89.2815 37.0388C89.1996 37.0387 89.1329 37.1052 89.1328 37.1872C89.1327 37.2691 89.1993 37.3358 89.2812 37.3359Z" fill="#21111D"/>
<path d="M90.6313 39.8937L100.937 39.9036C101.019 39.9036 101.085 39.837 101.085 39.7552C101.086 39.6733 101.019 39.6066 100.937 39.6065C100.922 39.6065 100.91 39.6186 100.91 39.6335C100.91 39.6484 100.922 39.6605 100.937 39.6605C100.989 39.6606 101.032 39.703 101.032 39.7551C101.031 39.8072 100.989 39.8496 100.937 39.8496L90.6314 39.8397C89.8901 39.839 89.2877 39.2719 89.2884 38.5755C89.289 37.8792 89.8926 37.3133 90.6338 37.314L100.939 37.3239C100.991 37.3239 101.034 37.3664 101.034 37.4185C101.034 37.4706 100.991 37.513 100.939 37.513C100.924 37.513 100.912 37.525 100.912 37.5399C100.912 37.5548 100.924 37.5669 100.939 37.5669C101.021 37.567 101.088 37.5004 101.088 37.4186C101.088 37.3367 101.021 37.27 100.939 37.2699L90.6338 37.26C89.8629 37.2593 89.2351 37.8494 89.2344 38.5755C89.2336 39.3016 89.8603 39.8929 90.6313 39.8937Z" fill="#21111D"/>
<path d="M97.8336 38.0996C97.8336 38.0996 98.1575 38.9085 97.9698 39.5035L97.7065 39.0958C97.7065 39.0958 97.5262 39.3116 97.4156 39.503C97.4156 39.503 97.2155 38.1734 96.8252 38.0986L97.8336 38.0996Z" fill="#F75553"/>
<path d="M90.9202 35.5366C90.9202 35.5366 90.5948 36.3449 90.7813 36.9403L91.0454 36.533C91.0454 36.533 91.2252 36.7492 91.3355 36.9408C91.3355 36.9408 91.5382 35.6116 91.9287 35.5376L90.9202 35.5366Z" fill="#7FC6A6"/>
<path d="M90.0084 38.1192L100.559 38.1293C100.574 38.1293 100.586 38.1172 100.586 38.1023C100.586 38.0874 100.574 38.0753 100.559 38.0753L90.0085 38.0652C89.9935 38.0652 89.9814 38.0772 89.9814 38.0921C89.9814 38.107 89.9934 38.1192 90.0084 38.1192Z" fill="#AAC9F8"/>
<path d="M89.6676 35.5623L100.218 35.5724C100.233 35.5724 100.246 35.5604 100.246 35.5454C100.246 35.5305 100.233 35.5184 100.219 35.5184L89.6676 35.5083C89.6527 35.5083 89.6406 35.5203 89.6406 35.5353C89.6406 35.5502 89.6526 35.5623 89.6676 35.5623Z" fill="#AAC9F8"/>
<path d="M82.8945 40.0667V40.8557C81.5133 40.8557 80.3896 41.9792 80.3896 43.3603C80.3896 44.7413 81.5133 45.8648 82.8945 45.8648V46.1784C82.8945 46.4283 83.0972 46.631 83.3472 46.631H86.834C87.084 46.631 87.2867 46.4283 87.2867 46.1784V40.0667H82.8945ZM81.0073 43.3604C81.0073 42.3198 81.854 41.4733 82.8945 41.4733V45.2473C81.854 45.2473 81.0073 44.4008 81.0073 43.3604Z" fill="#258D8C"/>
<path d="M84.8092 43.3118L84.7051 43.3743L85.353 44.4542L85.4572 44.3917L84.8092 43.3118Z" fill="#49263E"/>
<path d="M85.5525 43.5189L85.4473 43.5796L86.0592 44.6415L86.1645 44.5808L85.5525 43.5189Z" fill="#49263E"/>
<g opacity="0.5">
<path d="M85.4406 39.3983C85.4406 39.3983 83.384 38.7372 83.9851 37.1047C84.5862 35.4722 86.2548 34.2299 85.4406 32.5869C85.4406 32.5869 87.521 33.749 86.8952 35.4321C86.2693 37.1152 84.6519 37.2333 85.4406 39.3983Z" fill="white"/>
</g>
<path d="M131.29 91.449H6.03125V91.9298H131.29V91.449Z" fill="#21111D"/>
</svg>
