<svg width="18" height="17" viewBox="0 0 18 17" fill="none" xmlns="http://www.w3.org/2000/svg">
<g clip-path="url(#clip0_828_3512)">
<mask id="path-1-inside-1_828_3512" fill="white">
<path d="M6.00827 11.9472C5.90836 11.9448 5.81264 11.9065 5.73864 11.8393C5.10409 11.211 4.6698 10.4088 4.49051 9.534C4.31122 8.65918 4.39498 7.75086 4.73121 6.92357C5.06745 6.09628 5.6411 5.38707 6.37986 4.88536C7.11861 4.38366 7.98937 4.11191 8.88234 4.10441C9.77532 4.0969 10.6505 4.35398 11.3976 4.8432C12.1447 5.33242 12.7302 6.03188 13.0803 6.85341C13.4304 7.67493 13.5294 8.58172 13.3648 9.45943C13.2003 10.3371 12.7795 11.1465 12.1556 11.7854C12.1198 11.8215 12.0772 11.8502 12.0302 11.8697C11.9833 11.8893 11.933 11.8993 11.8821 11.8993C11.8313 11.8993 11.7809 11.8893 11.734 11.8697C11.6871 11.8502 11.6445 11.8215 11.6086 11.7854C11.5376 11.7121 11.4978 11.614 11.4978 11.5119C11.4978 11.4098 11.5376 11.3118 11.6086 11.2385C12.1273 10.7087 12.4774 10.0371 12.6146 9.30858C12.7519 8.58001 12.6702 7.82711 12.3799 7.14493C12.0896 6.46275 11.6037 5.88187 10.9835 5.47565C10.3633 5.06943 9.63668 4.85608 8.89533 4.86252C8.15397 4.86897 7.43115 5.09493 6.81812 5.51188C6.20508 5.92882 5.72933 6.51805 5.45093 7.20518C5.17253 7.89231 5.10397 8.64651 5.25389 9.37258C5.40381 10.0986 5.7655 10.764 6.29329 11.2847C6.36386 11.3567 6.40339 11.4535 6.40339 11.5543C6.40339 11.6551 6.36386 11.7519 6.29329 11.8239C6.25665 11.8628 6.21248 11.8937 6.16347 11.9149C6.11447 11.9361 6.06166 11.9471 6.00827 11.9472Z"/>
</mask>
<path d="M6.00827 11.9472C5.90836 11.9448 5.81264 11.9065 5.73864 11.8393C5.10409 11.211 4.6698 10.4088 4.49051 9.534C4.31122 8.65918 4.39498 7.75086 4.73121 6.92357C5.06745 6.09628 5.6411 5.38707 6.37986 4.88536C7.11861 4.38366 7.98937 4.11191 8.88234 4.10441C9.77532 4.0969 10.6505 4.35398 11.3976 4.8432C12.1447 5.33242 12.7302 6.03188 13.0803 6.85341C13.4304 7.67493 13.5294 8.58172 13.3648 9.45943C13.2003 10.3371 12.7795 11.1465 12.1556 11.7854C12.1198 11.8215 12.0772 11.8502 12.0302 11.8697C11.9833 11.8893 11.933 11.8993 11.8821 11.8993C11.8313 11.8993 11.7809 11.8893 11.734 11.8697C11.6871 11.8502 11.6445 11.8215 11.6086 11.7854C11.5376 11.7121 11.4978 11.614 11.4978 11.5119C11.4978 11.4098 11.5376 11.3118 11.6086 11.2385C12.1273 10.7087 12.4774 10.0371 12.6146 9.30858C12.7519 8.58001 12.6702 7.82711 12.3799 7.14493C12.0896 6.46275 11.6037 5.88187 10.9835 5.47565C10.3633 5.06943 9.63668 4.85608 8.89533 4.86252C8.15397 4.86897 7.43115 5.09493 6.81812 5.51188C6.20508 5.92882 5.72933 6.51805 5.45093 7.20518C5.17253 7.89231 5.10397 8.64651 5.25389 9.37258C5.40381 10.0986 5.7655 10.764 6.29329 11.2847C6.36386 11.3567 6.40339 11.4535 6.40339 11.5543C6.40339 11.6551 6.36386 11.7519 6.29329 11.8239C6.25665 11.8628 6.21248 11.8937 6.16347 11.9149C6.11447 11.9361 6.06166 11.9471 6.00827 11.9472Z" fill="#161616"/>
<path d="M6.00827 11.9472L5.97233 13.4467L5.99168 13.4472L6.01105 13.4472L6.00827 11.9472ZM5.73864 11.8393L4.68321 12.9052L4.70636 12.9281L4.73048 12.95L5.73864 11.8393ZM12.1556 11.7854L13.2206 12.8417L13.2288 12.8334L12.1556 11.7854ZM11.6086 11.7854L10.5317 12.8295L10.5376 12.8356L10.5436 12.8417L11.6086 11.7854ZM11.6086 11.2385L10.5368 10.1891L10.5317 10.1943L11.6086 11.2385ZM6.29329 11.2847L7.3645 10.2347L7.35568 10.2257L7.34671 10.2168L6.29329 11.2847ZM6.29329 11.8239L5.22207 10.7739L5.21208 10.7841L5.20227 10.7945L6.29329 11.8239ZM6.04421 10.4476C6.30454 10.4538 6.55395 10.5536 6.7468 10.7286L4.73048 12.95C5.07134 13.2594 5.51217 13.4357 5.97233 13.4467L6.04421 10.4476ZM6.79407 10.7735C6.37002 10.3536 6.07978 9.81749 5.95997 9.23285L3.02105 9.83515C3.25981 11.0002 3.83816 12.0684 4.68321 12.9052L6.79407 10.7735ZM5.95997 9.23285C5.84015 8.64822 5.89613 8.04121 6.12083 7.48835L3.3416 6.35879C2.89383 7.46051 2.78229 8.67014 3.02105 9.83515L5.95997 9.23285ZM6.12083 7.48835C6.34552 6.93549 6.72889 6.46154 7.22258 6.12626L5.53713 3.64447C4.55332 4.3126 3.78937 5.25707 3.3416 6.35879L6.12083 7.48835ZM7.22258 6.12626C7.71628 5.79097 8.2982 5.60937 8.89495 5.60435L8.86974 2.60446C7.68054 2.61445 6.52093 2.97634 5.53713 3.64447L7.22258 6.12626ZM8.89495 5.60435C9.4917 5.59934 10.0766 5.77114 10.5758 6.09808L12.2194 3.58832C11.2245 2.93682 10.0589 2.59447 8.86974 2.60446L8.89495 5.60435ZM10.5758 6.09808C11.0751 6.42502 11.4664 6.89246 11.7003 7.44146L14.4602 6.26535C13.994 5.17131 13.2142 4.23982 12.2194 3.58832L10.5758 6.09808ZM11.7003 7.44146C11.9343 7.99047 12.0005 8.59646 11.8905 9.18302L14.8391 9.73585C15.0583 8.56698 14.9264 7.35939 14.4602 6.26535L11.7003 7.44146ZM11.8905 9.18302C11.7805 9.76958 11.4993 10.3104 11.0824 10.7374L13.2288 12.8334C14.0596 11.9825 14.62 10.9047 14.8391 9.73585L11.8905 9.18302ZM11.0906 10.7291C11.1942 10.6247 11.3175 10.5417 11.4534 10.4851L12.6071 13.2544C12.8369 13.1586 13.0454 13.0183 13.2206 12.8417L11.0906 10.7291ZM11.4534 10.4851C11.5892 10.4285 11.735 10.3993 11.8821 10.3993V13.3993C12.131 13.3993 12.3774 13.3501 12.6071 13.2544L11.4534 10.4851ZM11.8821 10.3993C12.0293 10.3993 12.175 10.4285 12.3109 10.4851L11.1571 13.2544C11.3869 13.3501 11.6333 13.3993 11.8821 13.3993V10.3993ZM12.3109 10.4851C12.4468 10.5417 12.5701 10.6247 12.6736 10.7291L10.5436 12.8417C10.7189 13.0183 10.9273 13.1586 11.1571 13.2544L12.3109 10.4851ZM12.6856 10.7413C12.8858 10.9478 12.9978 11.2242 12.9978 11.5119H9.99785C9.99785 12.0038 10.1893 12.4764 10.5317 12.8295L12.6856 10.7413ZM12.9978 11.5119C12.9978 11.7996 12.8858 12.076 12.6856 12.2826L10.5317 10.1943C10.1893 10.5475 9.99785 11.02 9.99785 11.5119H12.9978ZM12.6805 12.2878C13.4065 11.5463 13.8965 10.6062 14.0887 9.58631L11.1406 9.03084C11.0582 9.4681 10.8481 9.87115 10.5368 10.1891L12.6805 12.2878ZM14.0887 9.58631C14.2809 8.56644 14.1665 7.51251 13.7602 6.55757L10.9997 7.73229C11.174 8.14171 11.223 8.59358 11.1406 9.03084L14.0887 9.58631ZM13.7602 6.55757C13.3538 5.60263 12.6736 4.7895 11.8054 4.22086L10.1616 6.73044C10.5338 6.97424 10.8255 7.32287 10.9997 7.73229L13.7602 6.55757ZM11.8054 4.22086C10.9372 3.65221 9.92005 3.35356 8.88228 3.36258L8.90837 6.36247C9.35331 6.3586 9.78942 6.48665 10.1616 6.73044L11.8054 4.22086ZM8.88228 3.36258C7.84451 3.37161 6.83267 3.68791 5.97453 4.27157L7.6617 6.75219C8.02962 6.50195 8.46343 6.36634 8.90837 6.36247L8.88228 3.36258ZM5.97453 4.27157C5.1164 4.85522 4.45042 5.68004 4.06071 6.64191L6.84116 7.76845C7.00824 7.35607 7.29377 7.00243 7.6617 6.75219L5.97453 4.27157ZM4.06071 6.64191C3.671 7.60377 3.57501 8.65953 3.78488 9.67591L6.7229 9.06925C6.63292 8.63349 6.67407 8.18085 6.84116 7.76845L4.06071 6.64191ZM3.78488 9.67591C3.99474 10.6923 4.50105 11.6237 5.23987 12.3525L7.34671 10.2168C7.02995 9.90435 6.81288 9.50502 6.7229 9.06925L3.78488 9.67591ZM5.22207 12.3347C5.01783 12.1263 4.90339 11.8461 4.90339 11.5543H7.90339C7.90339 11.0608 7.70989 10.587 7.3645 10.2347L5.22207 12.3347ZM4.90339 11.5543C4.90339 11.2625 5.0178 10.9823 5.22207 10.7739L7.3645 12.8739C7.70993 12.5215 7.90339 12.0477 7.90339 11.5543H4.90339ZM5.20227 10.7945C5.30555 10.685 5.43004 10.5978 5.56811 10.5381L6.75884 13.2917C6.99492 13.1896 7.20774 13.0405 7.38431 12.8533L5.20227 10.7945ZM5.56811 10.5381C5.70608 10.4784 5.8549 10.4475 6.00549 10.4472L6.01105 13.4472C6.26842 13.4467 6.52285 13.3937 6.75884 13.2917L5.56811 10.5381Z" fill="#161616" mask="url(#path-1-inside-1_828_3512)"/>
<path d="M15.167 8.77344H17.5396" stroke="#161616" stroke-width="1.5" stroke-miterlimit="10"/>
<path d="M13.2646 12.9409L14.944 14.6203" stroke="#161616" stroke-width="1.5" stroke-miterlimit="10"/>
<path d="M4.3981 12.9409L2.71875 14.6203" stroke="#161616" stroke-width="1.5" stroke-miterlimit="10"/>
<path d="M0.5 8.77344H2.87265" stroke="#161616" stroke-width="1.5" stroke-miterlimit="10"/>
<path d="M8.91992 2.87265V0.5" stroke="#161616" stroke-width="1.5" stroke-miterlimit="10"/>
<path d="M13.4883 4.48257L15.1676 2.80322" stroke="#161616" stroke-width="1.5" stroke-miterlimit="10"/>
<path d="M2.87305 2.80322L4.55239 4.48257" stroke="#161616" stroke-width="1.5" stroke-miterlimit="10"/>
<path d="M9.08887 12.7253V16.5" stroke="#161616" stroke-width="1.5" stroke-miterlimit="10"/>
<path d="M7.94141 13.0565L9.08922 11.0613L10.2447 13.0565H7.94141Z" fill="#161616"/>
</g>
<defs>
<clipPath id="clip0_828_3512">
<rect width="17.04" height="16" fill="white" transform="translate(0.5 0.5)"/>
</clipPath>
</defs>
</svg>
